<svg xmlns="http://www.w3.org/2000/svg" viewBox="0 0 1080 1350" xmlns:v="https://vecta.io/nano"><defs><clipPath id="A"><path d="M0 0h1080v1350H0z" fill="none"/></clipPath></defs><g clip-path="url(#A)"><path d="M-77.4-75.32h1250.04v1544.17H-77.4z" fill="#fff" stroke="#000" stroke-miterlimit="10"/><path d="M669.53 812.17c-6.62 15.76-15.11 30.63-23.21 45.66-4.01 7.45-7.94 14.95-11.52 22.61-3.43 7.34-6.32 14.89-9.29 22.42-2.97 7.52-6.17 14.98-10.53 21.83-2.22 3.49-3.68 7.21-4.94 11.14-1.25 3.92-2.7 7.58-4.55 11.25-7.47 14.82-12.36 30.75-19.1 45.9-1.9 4.28-4.03 8.43-5.56 12.86-1.49 4.31-2.62 8.72-3.7 13.14-1.09 4.48-2.56 8.76-4.37 13s-3.74 8.46-5.27 12.83c-.23.66.27 1.34.87 1.54 4.37 1.42 9.14 1.28 13.67 1.04 4.88-.26 9.7-.61 14.58-.53l17.35.47c5.58.11 11.3.23 16.86-.45 6.86-.85 12.39-5.4 16.69-10.54 4.93-5.9 8.69-12.69 12.42-19.38 1.78-3.2 3.55-6.42 5.48-9.54 2.34-3.78 5.08-7.28 7.67-10.88a753.01 753.01 0 0 0 19.86-28.98c12.77-19.56 24.32-39.82 36.37-59.81 5.92-9.82 11.87-19.63 17.24-29.76 5.37-10.14 9.8-20.73 14.72-31.09 9.17-19.29 18.53-38.48 24.2-59.16 3.81-13.91 6.29-31.2-5.86-41.84-5.87-5.15-13.45-8.16-21.3-7.42s-15.45 4.36-22.09 8.65c-14.08 9.1-25.23 21.71-35.7 34.62-11.96 14.75-24.22 31.65-27.33 50.85-.71 4.37-.89 8.79-.39 13.19.18 1.58 2.68 1.6 2.5 0-2.15-18.98 8.22-36.98 18.92-51.79 5.36-7.41 11.23-14.44 17.2-21.37 4.91-5.7 10.28-11.04 16.04-15.89 6.27-5.27 13.2-10.15 20.85-13.19 6.78-2.69 14.47-3.93 21.37-.94 7.03 3.05 12.88 8.38 15.18 15.82 2.14 6.95 1.38 14.49-.07 21.5-4.01 19.41-12.36 37.73-20.83 55.52l-14.02 30.16c-4.7 10.05-10.17 19.72-15.83 29.26l-17.06 28.64c-5.72 9.87-11.6 19.64-17.66 29.3-6.02 9.6-12.23 19.1-18.64 28.45l-9.84 14c-2.53 3.51-5.21 6.92-7.5 10.6-3.87 6.21-7.14 12.78-10.95 19.04s-7.84 12.27-13.76 16.27c-2.61 1.76-5.54 2.99-8.69 3.28-5.62.52-11.29.47-16.93.35l-17.05-.47c-4.61-.07-9.17.27-13.77.52s-9.01.45-13.25-.93l.87 1.54c2.7-7.74 6.75-14.97 8.91-22.91 2.21-8.13 4.02-16.15 7.67-23.8 7.15-15 12.04-30.96 19.05-46.02 1.7-3.66 3.74-7.17 5.16-10.96s2.35-7.76 4.02-11.46c1.71-3.77 4.24-7.15 6.16-10.82 1.78-3.42 3.36-6.94 4.84-10.49 3.15-7.53 5.87-15.24 9.17-22.7 3.42-7.73 7.25-15.28 11.22-22.74 8.9-16.77 18.49-33.2 25.85-50.73.62-1.48-1.8-2.13-2.41-.66h0z"/><path d="m556.7,1012.18c4.93-8.72,9.04-25.37,17.41-31.41,12.21-8.82,25.76,4.51,36.86,8.26,4.84,1.63,8.71,3.15,13.87,3.35,7.14.28,8.94,1.13,14.82,2.83,4.66,1.35,13.58,1.45,17.64,4.25,8.05,5.56,1.59,16.89.39,24.87-2.19,14.48-6.73,40.17,3.46,53.28,3.32,4.27,8.76,6.73,12.72,10.36,12.84,11.76,23.04,25.06,37.43,35.34,13,9.29,20.47,24.37,35.48,31.46,6.32,2.99,11.49,5.96,17.09,10.28,15.34,11.84,31.6,22.19,48.13,32.27-1.22,4.29-.74,11.77-3.79,15.12-6.06,6.64-27.44,6.78-35.93,7.36-10.25.7-21.02,1.12-31.21-.48-27.5-4.33-48.75-18.06-72.44-31.47-18.32-10.38-35.84-14.2-56.15-18.69-16.83-3.72-33.53-4.33-50.29-8.73-7.53-1.98-15.13-3.57-22.71-5.41-6.82-1.66-10.87-4.82-16.81-7.6-8.3-3.89-16.37-.56-15.42-13.29.47-6.38,3.29-14.52,5.21-20.74,2.12-6.87,1.53-13.13,4.61-19.82,2.44-5.31,5.92-10.08,8.93-15.07,12.82-21.21,18.46-44.75,30.67-66.33Z"/><path d="M557.78 1012.81c2.76-4.94 4.63-10.35 6.89-15.53 2.2-5.05 4.65-10.49 8.74-14.32 10.32-9.66 23.59 1.16 33.5 5.74 2.99 1.39 6.17 2.43 9.32 3.38 3.57 1.08 7.06 1.4 10.76 1.65 5.58.38 10.63 2.57 16.1 3.45 3.03.49 6.1.82 9.09 1.56 2.62.65 5.23 1.67 6.7 4.1 2.9 4.79.08 11.49-1.27 16.35s-1.96 10.13-2.64 15.22c-.81 6.02-1.42 12.08-1.43 18.15-.01 5.73.47 11.6 2.22 17.09 1.83 5.75 5.07 10.21 9.94 13.77 2.76 2.01 5.59 3.83 8.1 6.16 2.73 2.54 5.38 5.17 7.99 7.83 5.29 5.4 10.42 10.95 15.92 16.14 2.71 2.56 5.5 5.04 8.41 7.36 2.71 2.17 5.61 4.09 8.24 6.37 4.92 4.24 9.12 9.21 13.53 13.96 4.33 4.66 8.93 9.15 14.39 12.49 3.07 1.88 6.42 3.26 9.59 4.98 3.19 1.73 6.27 3.65 9.21 5.77l19.62 14.27c6.71 4.59 13.54 9 20.42 13.31l10.27 6.34-.57-1.41c-1.36 5.03-.11 12.56-4.98 15.87-4.32 2.94-10.18 3.73-15.24 4.37-5.4.68-10.84.92-16.27 1.21-8.02.44-16.01 1.01-24.05.58-16.4-.88-32.22-6.28-46.89-13.43-7.06-3.44-13.92-7.27-20.74-11.16-7.13-4.07-14.15-8.4-21.58-11.91-14.46-6.83-30-10.52-45.54-13.96-17.72-3.92-35.96-4.92-53.55-9.48-4.44-1.15-8.91-2.18-13.38-3.21-4.16-.96-8.48-1.71-12.49-3.19-6.2-2.28-11.47-6.51-17.94-8.11-2.1-.52-4.37-.79-6.34-1.71-2.01-.93-2.95-2.64-3.24-4.79-.48-3.56.31-7.31 1.14-10.76.92-3.83 2.12-7.58 3.3-11.33 1.21-3.86 1.96-7.71 2.57-11.71.64-4.23 1.61-8.21 3.58-12.03 1.93-3.74 4.29-7.23 6.53-10.78 2.28-3.61 4.38-7.32 6.32-11.12 7.67-15.01 12.9-31.1 20.05-46.35 1.78-3.8 3.68-7.53 5.74-11.18.79-1.4-1.37-2.67-2.16-1.26-8.62 15.31-14.15 32.03-21.28 48.04-3.55 7.96-7.61 15.58-12.31 22.92-2.27 3.54-4.56 7.1-6.25 10.96-1.7 3.89-2.31 8.03-2.94 12.19-1.22 8.03-4.52 15.49-6.1 23.44-.98 4.94-2.09 12.23 2.93 15.43 1.86 1.19 4.15 1.59 6.27 2.07 2.79.63 5.39 1.48 7.94 2.77 3.32 1.68 6.51 3.63 9.95 5.06 3.95 1.65 8.18 2.46 12.34 3.42 9.32 2.15 18.56 4.74 27.98 6.41s18.33 2.61 27.47 4.09c8.64 1.4 17.19 3.38 25.7 5.44 7.83 1.89 15.6 4.06 23.14 6.91 15.59 5.88 29.44 15.4 44.1 23.17 14.38 7.62 29.51 13.94 45.66 16.56 9 1.46 18.13 1.41 27.21.91l17.37-1.05c5.81-.47 11.8-1.08 17.34-2.97 2.16-.74 4.3-1.68 6.06-3.15 2.22-1.85 3.11-4.6 3.61-7.36.55-3.04.6-6.18 1.41-9.17.15-.54-.1-1.12-.57-1.41-14.2-8.67-28.28-17.58-41.7-27.43-6.27-4.61-12.27-9.37-19.2-12.98-3.08-1.6-6.27-2.97-9.19-4.86-2.83-1.83-5.42-4-7.86-6.32-4.7-4.47-8.83-9.49-13.35-14.14-2.26-2.33-4.61-4.56-7.16-6.58-2.91-2.31-5.96-4.42-8.81-6.82-5.79-4.89-11.08-10.32-16.33-15.77-5.15-5.35-10.21-11.16-16.06-15.75-2.73-2.14-5.77-3.89-8.38-6.19-2.22-1.95-3.88-4.32-5.13-6.99-2.51-5.35-3.25-11.44-3.42-17.28-.18-6.12.33-12.25 1.08-18.33.65-5.25 1.2-10.69 2.55-15.81 1.38-5.25 3.77-11 2.5-16.51-1.36-5.89-6.98-7.83-12.29-8.76-2.97-.52-6-.79-8.95-1.48-2.61-.61-5.12-1.57-7.74-2.16-3.14-.71-6.31-.78-9.51-1.03-3.74-.3-7.3-1.5-10.83-2.7-6.05-2.06-11.36-5.49-17.09-8.24-5.26-2.53-11.24-4.6-17.08-2.97-5.63 1.57-9.46 6.06-12.28 10.93-3.03 5.23-5.15 10.93-7.5 16.48-1.01 2.37-2.05 4.74-3.31 6.99-.79 1.41 1.37 2.67 2.16 1.26zM404.74-120.74l3.23-.77c25.44-6.24 50.64-10.16 76.45-14.58l23.6-3.81c4.77-.68 10.77.6 15.39.36 7.87-.42 15.43-3.24 23.32-3.91 8.93-.76 17.89-1.02 26.82-1.77 11.1-.94 22.07-2.89 33.16-3.85 14.97-1.3 30.1-.45 45.11-.64 13.8-.17 28.58-3.22 42.22-.32 9.15 1.95 12.43 14.12 15.58 22.94 4.87 13.64 8.99 28.38 14.8 41.46 10.45 23.53 20.25 46.68 26.03 71.79 3.2 13.93 7.94 27.37 11.27 41.23 2.38 9.9 3.33 20.21 6.82 29.82 5.29 14.54 12.85 27.94 18.89 42.13 7.49 17.59 13.08 35.67 21.64 52.83l31.54 64.75c3.64 7.1 7.93 13.88 11.63 20.96 5.3 10.16 5.98 16.77 8.35 27.55 2.79 12.74 7.8 24.49 9.54 38.16 2.06 16.21 4.76 32.34 7.7 48.44 2.17 11.88 6.66 22.55 9.52 34.22 3.06 12.49 3.04 25.01 7.03 37.34 4.45 13.73 9.92 26.84 13 41.03 2.21 10.19 2.77 20.6 5.06 30.76 9.09 40.29 15.85 81.11 19.97 122.21a944.37 944.37 0 0 1 4.2 62.67c.32 9.72-.76 20.24.74 29.83 1.73 11.1 3.68 18.9 3.1 31.09-.38 7.96-1.93 9.65-10.22 11.29-20.42 4.05-40.64 9.46-61.06 14.12-33.4 7.63-66.01 13.56-99.87 18.98-7.63 1.22-23.68 7.17-30.58 3.54-4.64-2.44-6.33-10.15-7.47-15.22-1.55-6.94-3.28-13.13-5.87-19.69-4.49-11.37-6.06-22.66-9.1-34.47-5.96-23.19-17.23-45.45-24.82-68.24-8.44-25.34-20.81-49.1-33.17-72.69-5.56-10.61-12.15-20.96-17.59-31.46-5.54-10.69-5.85-24.12-10.84-35.29-2.93-6.55-6.6-12.57-9.22-19.28-3.3-8.45-2.15-15.56-3.94-24.11-4.38-20.92-11.91-41.92-17.94-62.63-4.2-14.43-9.2-30.1-11.28-44.87-2.6-18.43-5.06-36.35-10.07-54.33-3.52-12.63-2.03-24.43-3.81-37.16-1.53-10.97-5.75-21.42-7.48-32.39-2.25-14.31-3.8-28.74-4.63-43.21-.21-3.75.92-44.05-1.16-44.42-3.99-.72-18.58 3.49-21.12 6.76-3.36 4.33-2.38 12.76-3.76 18.07-8.43 32.26-12.17 66.22-18.56 99-6.93 35.53-13.69 73.14-26.28 107.26-3.42 9.27-2.02 15.63-8.12 23.72-9.55 12.67-21.77 22.06-33.43 32.65-21.18 19.23-39.24 41.99-60.67 61.21-14.49 12.99-31.06 23.22-45.72 36.14-16.57 14.61-34.79 25.98-53.73 37.1-17.65 10.36-34.34 21.93-51.77 32.62-7.1 4.36-15.21 6.8-22.31 11.08-7.95 4.79-11.88 10.95-21.3 14.76-9.78 3.95-19.74 6.4-28.99 11.69-13.96 8-25.2 19.92-39.53 27.32-13.86 7.16-28.91 14.95-44.27 17.82-8.59 1.6-21.43 13.68-28.73 8.91-.64-.42-4.04-5.06-4.89-5.98-7.64-8.2-14.24-18.96-19.02-29.43-3.89-8.52-8.57-16.24-12.52-24.79-3.62-7.83-7.81-15.55-11.74-23.09-8.03-15.41-11.38-31.64-20.82-46.71-7.98-12.74-17.2-20.79-4.25-32.39 12.79-11.45 23.54-25.11 36.61-36.59 7.84-6.88 15.15-13.45 24-19.15 13.88-8.94 24.13-18.05 35.39-30.24 15.02-16.27 31.94-30.55 46.95-46.94 5.75-6.28 12.05-13.38 19.63-17.52 2.53-1.38 5.42-1.66 7.87-2.92 6.61-3.41 9.68-9.9 15.17-14.98 5.96-5.52 12.97-9.78 19.22-14.96 14.2-11.78 24.12-26.75 39.3-37.48 14.55-10.28 29.87-21.08 37.76-37.45 2.11-4.39 2.95-7.95 4.48-12.59 1.79-5.44 4.66-9.4 5.73-14.97 1.4-7.23 1.4-14.75 2.71-22.05 4.56-25.55 13.82-51.12 22.52-75.64 3.82-10.76 7.33-21.31 10.12-32.39 2.75-10.88 1.54-22.36 1.55-33.57.02-17.72-.74-34.15-3.33-51.86-3.41-23.37-3.35-46-3.32-69.57.01-12.57-.7-25.11-.99-37.67-.15-6.3-.23-12.61-.05-18.92.22-7.77-1.41-13.59 5.77-16.13 15.73-5.59 37.9-3.03 54.62-4 14.99-.87 29.64-3.16 44.23-6.57z"/><path d="M405.07-119.53c17.31-4.1 34.69-7.64 52.22-10.68l25.62-4.36c8.95-1.53 18.26-3.89 27.34-4.25 7.18-.29 13.84.85 21.01-.52 8.79-1.68 17.23-3.08 26.2-3.6 17.45-1.02 34.65-3.88 52.06-5.1 17.88-1.25 35.81.34 53.69-1.01 8.23-.62 16.55-1.46 24.8-.63 4.28.43 8.25.97 11.4 4.12 2.57 2.57 4.24 6.06 5.6 9.38 5.84 14.27 9.63 29.32 15.22 43.69 6.1 15.69 13.52 30.82 19.29 46.66 6 16.48 9.65 33.5 14.53 50.31 2.41 8.3 4.98 16.58 6.87 25.01 1.91 8.49 2.91 17.19 5.56 25.51 4.96 15.63 13.46 29.96 19.88 44.99 6.77 15.86 12.03 32.33 19.3 47.98l22.82 47.29 11.9 23.95c3.98 7.53 8.73 14.69 12.31 22.43 3.2 6.91 4.6 14.28 6.16 21.68 1.69 8.01 4.18 15.78 6.4 23.65 4.71 16.73 5.96 34.38 8.89 51.48 1.45 8.47 2.82 16.95 5.19 25.22 2.37 8.25 5.35 16.34 7.22 24.73 1.9 8.52 2.53 17.26 4.18 25.83 1.6 8.3 4.61 16.2 7.4 24.15 2.87 8.17 5.69 16.39 7.64 24.84 2 8.65 2.76 17.49 4.24 26.23 2.96 17.51 7.4 34.8 10.53 52.3 6.4 35.77 10.91 71.87 13.3 108.13.61 9.18 1.08 18.37 1.41 27.57.31 8.59-.3 17.2.16 25.78.37 7.05 1.97 13.94 2.94 20.92.55 3.93.89 7.89.94 11.87.04 3.2.43 7.8-1 10.8-1.28 2.69-3.75 3.42-6.48 4.09-4.31 1.05-8.71 1.8-13.04 2.75l-25.87 6.06c-17.63 4.27-35.29 8.37-53.06 11.98-17.14 3.49-34.35 6.64-51.6 9.55-7.7 1.3-15.55 2.2-23.15 3.98-6.04 1.41-12.06 3.31-18.27 3.77-3.05.22-6.49.2-8.91-1.95-2.61-2.32-3.66-6.29-4.52-9.55-1.95-7.38-3.48-14.76-6.16-21.94-5.92-15.87-8.15-32.68-13.48-48.74-5.32-16.03-12.32-31.44-18.15-47.28-5.78-15.72-11.36-31.27-18.55-46.44-7.51-15.83-15.51-31.53-24.24-46.71-4.2-7.3-8.95-14.56-12.26-22.32s-4.25-15.45-6.34-23.17c-1.99-7.33-5.41-13.82-8.78-20.58-2.04-4.1-4.04-8.26-5.07-12.75-.99-4.29-1.07-8.7-1.53-13.06-1.75-16.67-7.9-33.22-12.86-49.14-5.22-16.73-10.65-33.56-14.62-50.64-3.91-16.82-5.19-34.15-8.63-51.07-1.86-9.14-4.99-18.13-6.01-27.41-.9-8.2-.64-16.48-1.6-24.68-.94-7.99-3.28-15.66-5.32-23.42-2.38-9.07-3.62-18.34-4.72-27.64-1.33-11.24-2.41-22.5-2.3-33.82.09-8.99.24-17.99-.02-26.97-.11-3.97 1.2-11.51-4.36-11.28-6.86.29-18.96 2.98-21.71 10.21-2.17 5.72-1.6 12.31-3.1 18.23-2.16 8.56-4.01 17.2-5.67 25.87-3.28 17.14-5.86 34.4-8.79 51.6-5.76 33.78-12.09 67.88-21.5 100.84a375.71 375.71 0 0 1-7.59 23.64c-2.34 6.52-2.77 13.75-5.61 20.04-3.41 7.57-10.33 13.96-16.28 19.61-5.65 5.37-11.61 10.38-17.43 15.56-25.15 22.42-45.58 49.76-71.95 70.85-13.12 10.49-26.79 20.12-39.58 31.03-13.01 11.09-27.32 20.51-41.93 29.33l-44.22 27.51c-7.28 4.69-14.51 9.78-22.32 13.55-6.82 3.3-14 5.87-20.14 10.42-5.81 4.31-10.74 9.35-17.53 12.2-7.5 3.15-15.39 5.28-22.82 8.61-14.21 6.37-25.29 17.56-38.19 26-13.84 9.06-30.43 16.96-46.47 21.04-6.02 1.53-10.85 3.09-16.35 6.04-4.23 2.27-12.23 7.67-16.81 3.77-1.62-1.37-2.81-3.59-4.16-5.21-2.84-3.39-5.7-6.64-8.23-10.29-4.7-6.79-8.35-14.05-11.9-21.47-7.35-15.33-15.4-30.37-23.15-45.51-7.38-14.42-11.26-30.41-19.45-44.44-3.5-5.99-8.64-11.51-11.03-18.07-3.03-8.3 3.59-13.41 9-18.57 12.1-11.53 22.84-24.33 35.43-35.37 6.32-5.54 12.69-11.03 19.69-15.72 6.18-4.14 12.28-8.29 18.01-13.04 12.34-10.23 22.71-22.54 34.18-33.7 12.22-11.88 24.36-23.69 36.03-36.12 5.43-5.78 11.24-11.57 18.88-14.18 6.24-2.13 10.1-5.73 14.27-10.78 5.43-6.58 12.01-11.38 18.82-16.43 5.85-4.34 11.22-9.13 16.3-14.35 5.36-5.5 10.43-11.27 15.91-16.66 5.82-5.72 12.25-10.43 18.85-15.2 11.11-8.02 22.16-16.82 29.36-28.7 3.94-6.5 5.45-13.64 8.33-20.57 1.33-3.21 3-6.29 4-9.64 1.14-3.83 1.48-7.92 1.87-11.88 1.78-18 6.24-35.32 11.71-52.54 5.35-16.81 11.74-33.27 17.16-50.05 2.46-7.61 5.11-15.44 6.27-23.37 1.21-8.28.7-16.66.58-24.99-.26-17.35-.56-34.56-2.86-51.8-2.34-17.62-3.58-35.13-3.77-52.91l-.95-54.18c-.24-8.46-.1-16.89-.14-25.34-.01-2.69-.43-5.87.58-8.42 1.55-3.92 6.78-4.78 10.44-5.58 14.34-3.13 29.27-1.65 43.82-2.04 16.44-.45 32.84-3.1 48.84-6.8 1.57-.36.9-2.77-.66-2.41-17.52 4.04-35.41 6.7-53.41 6.78-14.36.07-29.5-1.1-43.43 3.14-4.36 1.33-7.64 3.39-8.45 8.13-1.16 6.75-.38 14.4-.32 21.22l1.12 54.5c.02 17.67.3 35.38 2.36 52.95 2.13 18.22 4.15 36.12 4.28 54.5.06 8.67.57 17.4.15 26.06-.46 9.41-3.24 18.42-6.05 27.36-5.28 16.79-11.7 33.2-17.12 49.95-5.28 16.32-10.37 33.18-12.13 50.3-.49 4.78-.69 9.65-1.69 14.36-.89 4.2-2.92 7.93-4.55 11.86-3.23 7.79-4.95 15.61-9.78 22.73-9.16 13.49-22.99 21.92-35.69 31.62-11.97 9.14-21.11 21.24-32.08 31.46-6.06 5.65-12.95 10.17-19.42 15.3-5.83 4.61-9.74 10.67-15.16 15.61-3.21 2.93-6.8 3.7-10.67 5.29-3 1.23-5.7 3.22-8.21 5.25-6.04 4.87-11.01 10.88-16.32 16.49-11.92 12.61-24.91 24.14-37.07 36.51-11.67 11.88-22.64 23.88-36.4 33.47-13.26 9.24-25.86 18.78-37.4 30.18-6.15 6.07-11.93 12.48-17.94 18.69-5.06 5.23-11.96 9.98-15.77 16.21-6.4 10.46 4.05 20.78 9.21 29.23 8.79 14.38 12.7 31.02 20.36 45.96l23.52 46.29c6.24 13.16 13.93 25.3 23.78 36.07 6.59 7.21 18.33-1.94 24.76-5.07 6.73-3.27 14.44-4.07 21.47-6.65 7.94-2.91 15.58-6.6 23.11-10.43s13.93-7.5 20.39-12.28 12.2-9.58 18.59-13.96c7.49-5.13 15.5-8.66 24.03-11.67 7.04-2.49 14.18-4.67 20.24-9.18 5.73-4.27 10.71-9.02 17.17-12.26 7.39-3.7 14.85-6.75 21.89-11.15l46.22-29.23c14.33-8.5 28.61-17.08 41.93-27.13 6.35-4.79 12.26-10.07 18.39-15.14 7.18-5.94 14.74-11.4 22.19-16.99 13.32-10 25.54-20.96 37.11-32.93 12.02-12.44 23.51-25.4 35.97-37.41 11.7-11.28 24.91-21.08 35.57-33.4 4.35-5.02 7.92-10.05 9.48-16.59 1.74-7.28 3.74-14.14 6.14-21.25 11.23-33.27 17.53-68.08 24.03-102.52 3.29-17.43 5.89-34.98 8.91-52.46 1.51-8.73 3.12-17.45 4.98-26.11 1.56-7.27 4.03-14.55 4.76-21.96.32-3.29.32-6.78 1.44-9.93 1.24-3.5 4.17-4.68 7.42-5.92a55.26 55.26 0 0 1 7.69-2.29c1.32-.29 2.65-.5 3.99-.68.81-.11 1.9.12 1.55-.24 1.3 1.34.67 7.29.71 8.98.14 4.83.14 9.67.12 14.5-.09 24.64.6 49.75 6.79 73.75 2.33 9.03 5.03 17.85 5.8 27.19.66 8.02.48 16.09 1.62 24.07 1.26 8.77 4.16 17.31 5.9 26 1.75 8.7 3.11 17.48 4.38 26.26 2.56 17.68 6.7 34.48 11.73 51.6 5.06 17.23 10.85 34.27 15.47 51.62 2.38 8.96 3.95 17.68 4.87 26.89.76 7.53 3.34 14.06 6.73 20.77 3.95 7.83 7.28 15.36 9.3 23.92 1.68 7.14 3.09 14.39 6.31 21.03 7.72 15.9 17.39 30.93 25.49 46.67 8.26 16.06 16.18 32.35 22.47 49.3l18.65 49.18c3.08 7.97 5.98 16.02 8.28 24.25 2.31 8.28 3.82 16.75 5.96 25.07 2.11 8.22 5.55 15.95 7.84 24.11 1.74 6.22 2.43 13.11 5.37 18.93 5.12 10.16 17.67 6.42 26.51 4.25 15.53-3.81 31.49-5.78 47.23-8.6 17.54-3.15 35.02-6.58 52.43-10.4 18.19-3.99 36.23-8.65 54.39-12.79 7.13-1.62 15.6-2.11 22.28-5.15 3.26-1.48 4.67-3.97 5.21-7.43 2.39-15.37-3.41-30.61-3.59-45.9-.21-17.95-.49-35.75-1.77-53.69-2.57-36.13-7.22-72.11-13.73-107.74-3.24-17.73-7.97-35.3-10.57-53.13-1.32-9.07-2.44-18.08-4.86-26.95-2.28-8.35-5.24-16.49-8.1-24.66-2.92-8.34-5.35-16.53-6.66-25.29-1.35-8.96-2.45-17.85-4.93-26.59-2.34-8.23-5.29-16.28-7.22-24.63-2.03-8.8-3.34-17.81-4.8-26.72-1.47-8.98-2.66-18-3.94-27.01-1.18-8.26-3.57-16.23-5.93-24.22-4.32-14.65-5.89-29.76-13.26-43.34-8.53-15.71-16.85-31.36-24.58-47.5-7.97-16.65-16.72-33.09-23.78-50.14-6.41-15.47-11.71-31.37-18.77-46.58-7.66-16.51-15.89-32.25-19.3-50.29-3.33-17.59-9.04-34.4-13.28-51.76-4.17-17.09-9.49-33.62-16.12-49.92-6.47-15.89-13.72-31.34-19.15-47.64l-7.81-23.04c-1.78-5.03-3.68-10.38-7.26-14.45-3.91-4.44-9.15-5.3-14.81-5.78-8.56-.73-17.16.24-25.7.85-18.22 1.31-36.51-.46-54.73 1.1-8.93.77-17.79 2.19-26.7 3.2-8.69.98-17.41 1.34-26.13 1.9-8.27.52-15.99 2.2-24.11 3.64s-15.29-.42-22.98.61c-34.3 4.61-68.71 11.06-102.38 19.04-1.56.37-.9 2.78.66 2.41zm484.16 888.74c.27 5.59 1.56 10.83 3.82 15.94 1.02 2.31 2.15 4.57 3.21 6.87 1.21 2.63 2.47 5.27 2.81 8.18.15 1.29.23 2.59.45 3.87.28 1.63.79 3.21 1.28 4.77 1.03 3.25 2.21 6.44 3.28 9.68.49 1.48.96 2.96 1.39 4.46.37 1.31.6 2.69 1.06 3.97.68 1.9 1.83 3.63 2.93 5.31 1.24 1.91 2.56 3.78 3.69 5.77.64 1.13 1.7 2.7 1.29 4.07-.51 1.68-2.29 3-3.64 3.97-1.79 1.29-3.72 2.38-5.68 3.39-10.39 5.4-20.64 10.96-30.49 17.32-5.41 3.49-10.71 7.16-15.87 11-4.26 3.17-8.41 6.39-12.21 10.09-3.71 3.62-7.29 7.37-11.12 10.86-3.51 3.2-7.32 6.43-11.72 8.34-2.98 1.29-6.62 2.06-8.62-1.12-1.85-2.94-2.18-6.81-2.5-10.19l-.49-5.39c-.28-2.56-.82-5.09-1.27-7.62l-3.75-20.51c-1.33-6.83-2.76-13.65-4.43-20.41-1.68-6.84-3.58-13.56-4.71-20.52-.55-3.4-.93-6.81-1.46-10.21-.55-3.51-.94-7.04-1.18-10.58a120.56 120.56 0 0 1-.25-5.37c-.02-.8.06-1.65-.04-2.45-.07-.56-.25-1.08-.28-1.64-.07-1.4.65-2.9.22-4.27-.57-1.79-2.78-2.02-4.35-2.17s-1.59 2.34 0 2.5c.53.05 1.78.14 2.01.51-.12-.2-.03.19-.05.34-.03.3-.1.62-.15.93-.14.89-.24 1.77-.14 2.68.16 1.52.25 3.01.31 4.55.24 7.17 1.36 14.18 2.29 21.27.9 6.89 2.27 13.7 4.14 20.39 1.92 6.86 3.4 13.85 4.81 20.83l3.92 20.96c.87 4.88 1.78 9.69 2.21 14.62.5 5.82 1.19 16.87 9.4 16.54 4.35-.18 8.5-2.77 11.89-5.28 4.24-3.14 8.03-6.82 11.76-10.53 3.37-3.35 6.64-6.85 10.34-9.85 5.09-4.13 10.45-7.98 15.86-11.68 10.87-7.45 22.26-14.19 34-20.17 3.48-1.77 7.02-3.47 10.09-5.92 1.47-1.17 2.95-2.62 3.55-4.45.53-1.62-.05-3.2-.75-4.67-1.89-3.93-4.89-7.22-6.79-11.14-.45-.94-.65-1.91-.91-2.91-.43-1.67-.92-3.31-1.44-4.95-1.04-3.24-2.22-6.44-3.29-9.68-.98-2.98-1.71-5.84-2.04-8.96-.31-2.94-1.28-5.52-2.47-8.21-2.1-4.72-4.65-9.27-6.05-14.27-.81-2.9-1.21-5.86-1.36-8.85-.08-1.6-2.58-1.61-2.5 0h0z"/><path d="m842.52,843.54c-5.74,2.54-12.17,2.91-18.4,2.95-6.2.04-8.02-1.78-13.17-3.39-6.62-2.07-18.38-2.88-23.13,3.37-3.76,4.94,1.04,14.46,2.94,19.31,3.42,8.72,6.78,16.41,6.97,25.96.2,10.07-.6,20.2-.24,30.25.41,11.44,7.36,20.69,13.13,30.53,4.84,8.25,11.87,10.08,19.11,15.63,6.84,5.24,4.46,8.51,5.99,16.07,2.37,11.72,12.63,12.7,18.85,20.11-1.25.26-2.37.07-3.35-.59,15.19.76,26.05-.93,38.88-8.84,8.3-5.11,14.87-10.91,22.26-17.07,8.56-7.13,13.76-5.38,23.35-1.26,16.54,7.1,35.39,8.12,52.54,1.81,11.74-4.32,19.07-15.64,31.08-18.69,11.1-2.83,23.32.52,34.66-1.35,11.43-1.89,18.78-5.26,25.96-13.63,7.39-8.62,18.26-12.98,23.83-23.24,5.25-9.68,7.82-20.07,13.55-29.66,10.45-17.51,1.73-39.56-18.52-46.14-8.76-2.85-18.13-2.93-27.26-3.09-11.33-.2-20.77-2.27-31.42-5.94-8.85-3.05-18.04-5.35-26.92-8.31-8.18-2.72-15.32-7.01-23.97-8.48-8.41-1.43-17.19.74-25.65.66-3.72-.03-9.04.26-12.28-1.91-3.83-2.55-3.88-6.72-7.78-9.41-18.13-12.51-40.7.51-47.65,18.17-1.97,5.01-3.87,16.4-1.05,21.83,3.17,6.11,17.05,7.34,12.83,15.75-6.22-5.2-10.41-13.38-13.06-20.59-2.43-6.61-3.49-8.11-10.59-11.93-16.15-8.69-27.25,4.82-41.47,11.12Z"/><path d="M841.89 842.46c-4.68 2.01-9.79 2.58-14.84 2.73-4.07.12-7.65-.18-11.44-1.69-6.35-2.53-13.17-3.98-20-2.68-3.15.6-6.34 1.96-8.44 4.47-2.09 2.5-2.24 5.7-1.74 8.79.59 3.63 2.06 7.05 3.46 10.42 1.62 3.91 3.2 7.87 4.57 11.88 1.57 4.58 2.74 9.3 2.97 14.16.25 5.11.02 10.26-.11 15.37-.25 9.68-.99 19.44 2.8 28.58 1.7 4.09 3.91 7.94 6.21 11.72 2.27 3.73 4.31 7.81 7.22 11.09 2.52 2.84 5.69 4.94 8.9 6.91 3.48 2.14 7.48 4.2 10.15 7.36 2.14 2.53 2.06 5.62 2.33 8.74.34 4.02 1.21 8.03 3.61 11.35 4.22 5.85 11.51 8.14 16.15 13.55l.55-2.09c-.9.14-1.61 0-2.38-.46l-.63 2.33c10.76.52 21.37-.31 31.34-4.68 10.99-4.82 20.2-12.81 29.31-20.44 3.89-3.26 8.05-6.24 13.38-5.51 5.27.72 10.08 3.6 15.04 5.32 11.43 3.97 23.8 5.13 35.75 3.19 5.67-.92 11.51-2.43 16.62-5.11 4.45-2.33 8.34-5.55 12.28-8.62 4-3.11 8.21-6.19 13.08-7.78 5.95-1.94 12.36-1.72 18.54-1.46 6.2.26 12.39.58 18.54-.5 4.79-.84 9.53-2.09 13.9-4.28 4.2-2.11 7.87-5.12 11-8.6 3.47-3.86 7.25-7.12 11.34-10.31 3.96-3.09 7.91-6.25 10.98-10.27 3.56-4.65 5.73-10.31 7.9-15.69 2.46-6.08 4.85-12.16 8.17-17.84 2.21-3.78 3.72-7.9 4.31-12.25 1.14-8.4-1.23-17-6.37-23.73-6.1-7.98-15.18-12.24-24.93-13.84-6.37-1.05-12.83-1.17-19.26-1.28-6.13-.11-12.2-.73-18.19-2.04-6.23-1.36-12.19-3.51-18.26-5.43l-18.61-5.59c-6-1.88-11.66-4.45-17.51-6.71s-11.51-3.55-17.65-3.45c-6.43.11-12.78 1.15-19.22 1.14-2.51 0-5.07.07-7.53-.46-2.68-.58-4.56-1.99-5.99-4.31-1.3-2.1-2.39-4.28-4.36-5.86s-4.21-2.71-6.49-3.63c-4.23-1.71-8.87-2.34-13.4-1.86-9.15.97-17.59 5.95-23.56 12.86-5.96 6.9-8.96 15.35-9.23 24.43-.12 3.85.2 8.3 2.94 11.27 2.28 2.46 5.5 3.82 8.28 5.6 2.65 1.69 4.76 3.76 3.19 7.02l1.96-.25c-5.18-4.41-8.72-10.39-11.37-16.59-1.79-4.2-2.83-9.07-6.41-12.19-4.14-3.61-9.88-6.32-15.35-6.84-5.55-.53-10.9 1.42-15.73 3.98-6.02 3.19-11.53 7.25-17.76 10.05-1.47.66-.2 2.81 1.26 2.16 5.3-2.38 10.1-5.66 15.11-8.58 4.62-2.68 9.64-5.16 15.1-5.2s11.19 2.55 15.36 5.99c3.5 2.89 4.46 7.66 6.17 11.66 2.75 6.46 6.47 12.73 11.86 17.33.56.48 1.59.53 1.96-.25 1.42-2.96 1.18-5.88-1.2-8.24s-5.45-3.59-8.14-5.36c-1.27-.84-2.58-1.82-3.35-3.16-.97-1.68-1.24-3.78-1.35-5.69-.25-4.53.43-9.2 1.74-13.53 5.22-17.24 26.58-30.08 43.53-21.11 2.33 1.23 4.31 2.65 5.71 4.92 1.23 2 2.27 4.11 4.13 5.62 3.75 3.04 9.03 2.72 13.58 2.73 6.22.02 12.37-1.04 18.58-1.15 6.34-.11 12.21 1.44 18.05 3.78 5.57 2.23 11 4.6 16.74 6.39l18.31 5.5c5.89 1.86 11.67 3.95 17.7 5.31 5.67 1.27 11.46 2.01 17.27 2.2 11.7.39 24.25-.12 34.78 5.87 7.5 4.26 13.1 11.46 15.02 19.91a28.97 28.97 0 0 1 .09 12.4c-1.07 5.01-3.74 9.02-6 13.53-2.75 5.48-4.83 11.25-7.2 16.9-2.21 5.27-4.6 10.5-8.57 14.69-3.37 3.56-7.37 6.43-11.2 9.48-1.96 1.56-3.89 3.18-5.67 4.94-1.79 1.78-3.36 3.77-5.18 5.53-7.21 6.97-17.25 10.09-27.11 10.59-11.58.59-23.79-2.39-34.77 2.6-8.94 4.06-15.38 12.04-24.3 16.15-10.82 4.99-23.96 5.93-35.62 4.2-6.01-.89-11.92-2.56-17.53-4.9-4.22-1.76-8.6-3.91-13.28-3.92-4.83-.01-8.85 2.62-12.44 5.6-4.61 3.84-9.14 7.76-13.96 11.33-8.9 6.6-18.61 11.85-29.71 13.38-5.34.73-10.75.7-16.12.45-1.27-.06-1.66 1.72-.63 2.33 1.39.82 2.74.97 4.31.72 1.01-.16 1.1-1.45.55-2.09-4.09-4.77-10.19-7-14.47-11.51-2.49-2.62-3.77-5.89-4.31-9.44-.43-2.83-.19-5.81-1-8.57-.86-2.91-2.96-5.05-5.31-6.85-3.19-2.44-6.71-4.34-10.06-6.54-3.5-2.3-6.42-5.03-8.6-8.64l-6.89-11.51c-2.12-3.79-4.01-7.72-5.11-11.94-1.2-4.62-1.09-9.42-1.05-14.16l.33-15.46c.07-4.83.11-9.64-.76-14.41-1.48-8.08-4.98-15.65-8.01-23.23-1.3-3.25-2.68-6.83-2.54-10.39.14-3.46 2.73-5.7 5.82-6.82 7.18-2.6 15.03-.59 21.83 2.09 4.23 1.67 8.4 1.79 12.9 1.59 5.13-.22 10.18-.99 14.92-3.03 1.47-.63.2-2.79-1.26-2.16zM37.8 541.6c-2.86.42-5.43 2.05-7.69 3.79-2.82 2.17-5.34 4.71-7.76 7.31-2.43 2.61-4.74 5.32-7.14 7.95-2.58 2.82-5.29 5.17-8.6 7.13-3.9 2.3-7.55 4.77-10.97 7.75s-6.84 6.31-10.38 9.33l-22.52 18.79c-7.66 6.75-14.71 14.19-21.94 21.4l-10.35 10.27c-3.12 2.97-6.33 5.85-9.33 8.94-2.86 2.94-5.57 6.08-7.76 9.56-2.29 3.63-3.95 7.69-5.95 11.48s-4.18 7.87-5.68 12.06c-1.17 3.27-1.68 6.65-1.96 10.11a94.22 94.22 0 0 0-.22 11.27c.12 3.21.27 6.63 1.42 9.66 2.55 6.73 8.61 11.15 13.04 16.56 2.38 2.9 3.68 6.27 5.58 9.45 1.33 2.23 3.05 4.5 5.6 5.38 2.77.96 5.73-.12 8.2-1.42 4.07-2.13 7.77-5.06 11.39-7.85 3.78-2.92 7.49-5.92 11.41-8.66 3.7-2.59 7.49-4.94 10.96-7.85 6.71-5.62 12.61-12.21 19.8-17.25 3.9-2.73 8-5.18 11.91-7.9s7.94-5.69 11.82-8.66c7.57-5.81 14.76-12.01 21.58-18.68s13.2-13.52 19.68-20.39c5.95-6.32 12.03-12.49 18.15-18.65 5.27-5.31 10.37-10.79 14.87-16.77 4.45-5.91 8.5-12.49 10.31-19.74.8-3.22 1.12-6.57.71-9.87-.2-1.58-2.7-1.6-2.5 0 .86 6.91-1.57 13.64-4.9 19.59-3.7 6.62-8.54 12.54-13.65 18.12-5 5.46-10.37 10.57-15.53 15.88l-19.12 20.15c-6.38 6.67-12.91 13.21-19.87 19.28S5.72 681.05-2.02 686.45c-3.81 2.65-7.76 5.08-11.6 7.68-3.47 2.36-6.68 5.08-9.77 7.91l-9.48 8.72c-3.32 2.9-6.85 5.36-10.51 7.8-7.75 5.16-14.59 11.58-22.5 16.51-2.24 1.39-5.3 3.26-8.06 2.38-2.42-.78-3.9-3.48-5.03-5.57-.87-1.6-1.57-3.3-2.5-4.86-.86-1.45-1.89-2.8-2.96-4.09-2.28-2.73-4.88-5.18-7.26-7.83s-4.38-5.31-5.33-8.6c-.87-3.04-.91-6.38-.97-9.52-.14-7.16.18-14.39 2.96-21.07 1.69-4.06 3.86-7.91 5.9-11.8 1.91-3.66 3.48-7.46 5.87-10.85 4.78-6.78 11.31-12.07 17.2-17.82l21.08-21.06c6.79-6.81 14.09-12.99 21.53-19.07l11.22-9.31c3.39-2.92 6.58-6.06 9.96-8.98 3.45-2.97 7.18-5.26 11.05-7.62 3.09-1.89 5.67-4.21 8.1-6.87 4.64-5.07 8.97-10.59 14.38-14.88 2.11-1.67 4.5-3.23 7.21-3.63 1.59-.23.91-2.64-.66-2.41h0z"/><path d="m-36,636.62c1.29,2.69.43,6.05,1.65,8.94,2.87,6.8,10.6,10.28,15.27,15.63,4.33,4.97,8.42,11.7,9.47,18.45.91,5.84-2.38,13.04-.75,18.66,2.19,7.54,6.64,4.56,14.77,5.03,11.21.64,16.51,9.74,7.52,19.39-7.19,7.72-16.3,11.41-19.5,22.99-5.54,20.11,11.65,36.71,19.88,53.04,3.45,6.85,6.45,12.94,8.39,20.25,1.42,5.34,1.79,11.48,4.3,16.28,6.46,12.36,17.09,20.32,17.49,34.97.26,9.51-2.19,17.45-7.34,25.35-2.76,4.23-5.96,8.16-8.74,12.38-7.09,10.73-18.26,12.26-31.52,11.93-4.73-.12-10.08,1.03-14.59-.45-4.81-1.59-6.88-5.03-10.63-8.44-10.16-9.25-27.36-15.66-40.96-15.95-7.02-.15-9.8-.78-14.74-6.01-7.57-8.02-10.52-10.6-11.27-21.42-.33-4.71-1.24-12.46-3.62-16.72-3.09-5.53-10.53-5.85-14.53-10.71-3.45-4.2-9.64-15.19-11.34-20.09-4.35-12.55-.45-30.72,2.15-43.18,5.96-28.52,10.66-57.64,12.53-86.55,1.16-17.93,7.94-40.59,18.27-55.29,5.85-8.32,14.42-13.77,24.73-12.49,10.47,1.3,28.01,3.4,33.13,14.02Z"/><path d="M-37.07 637.25c.75 1.72.62 3.65.81 5.47.18 1.64.61 3.15 1.38 4.62 1.4 2.65 3.54 4.83 5.79 6.77l7.1 5.9c2.61 2.41 4.78 5.31 6.63 8.34 1.92 3.15 3.48 6.54 4.27 10.15.79 3.6.1 7.14-.44 10.72-.47 3.11-.89 6.35-.03 9.43.59 2.08 1.64 4.28 3.64 5.33 1.76.92 3.83.86 5.75.76 2.79-.15 5.63-.4 8.41.05 4.93.81 9.86 4.22 8.86 9.81-1.07 5.97-6.93 10.17-11.29 13.81-4.44 3.71-8.75 7.65-11.15 13.03-5.38 12.06-1.24 24.75 4.97 35.56 3.17 5.51 6.8 10.73 10.1 16.15 3.66 6.02 6.89 12.47 9.43 19.04 1.38 3.58 2.46 7.25 3.21 11.01.68 3.43 1.21 6.92 2.45 10.21 2.22 5.86 6.41 10.92 9.98 16s6.79 10.29 7.97 16.4c1.31 6.83.24 14.32-2.28 20.75-2.83 7.21-7.88 13.08-12.23 19.39-1.76 2.56-3.51 4.98-5.96 6.93-2.22 1.77-4.8 3.07-7.5 3.94-5.78 1.87-11.91 1.92-17.92 1.83-3.73-.06-7.48.58-11.2.22s-6.36-2-8.85-4.45c-2.37-2.33-4.59-4.71-7.23-6.75-2.45-1.9-5.07-3.57-7.79-5.06-5.9-3.23-12.3-5.65-18.85-7.17-3.07-.71-6.19-1.23-9.34-1.48-2.91-.24-5.89-.03-8.77-.64-2.38-.5-4.36-1.68-6.15-3.31-2.32-2.11-4.46-4.51-6.54-6.86-1.54-1.73-2.97-3.56-4-5.64-1.17-2.36-1.73-5-2.03-7.61-.69-6.06-.81-12.29-3.21-18-1.1-2.62-2.87-4.59-5.27-6.1-2.32-1.46-4.91-2.43-7.22-3.9s-3.75-3.45-5.21-5.64c-1.55-2.34-2.99-4.76-4.35-7.22-2.72-4.9-5.12-9.78-5.93-15.38-1-6.9-.35-14.03.67-20.89 1.01-6.75 2.51-13.41 3.87-20.1l4.64-24.7c2.8-16.41 5.03-32.93 6.4-49.52.59-7.12.97-14.18 2.31-21.21 1.31-6.88 3.19-13.67 5.6-20.25 2.35-6.4 5.22-12.64 8.86-18.41 3.38-5.36 7.63-10.25 13.49-12.95 5.55-2.56 11.16-2 17.01-1.17 5.36.76 10.75 1.76 15.82 3.71 4.6 1.77 9.04 4.52 11.3 9.05.72 1.44 2.87.18 2.16-1.26-4.9-9.87-18.07-12.37-27.91-13.81-5.73-.84-11.38-1.66-17 .25-6.12 2.08-11.11 6.47-14.85 11.66-7.99 11.08-12.88 24.63-15.92 37.86-1.58 6.85-2.45 13.74-2.94 20.75-.59 8.51-1.43 17.01-2.46 25.48-2.09 17.2-5 34.3-8.41 51.28-2.76 13.74-6.68 27.95-5.4 42.08.53 5.83 2.36 10.91 5.05 16.06 1.43 2.73 2.95 5.41 4.59 8.02 1.3 2.07 2.64 4.26 4.33 6.05 3.91 4.12 10.91 4.75 13.81 9.86 3.09 5.45 2.97 12.33 3.66 18.38.61 5.33 2.37 9.8 5.82 13.92 1.97 2.35 4.11 4.59 6.26 6.76 1.84 1.87 3.88 3.55 6.35 4.51 2.44.95 5.13 1.1 7.72 1.18 3.24.1 6.43.36 9.62.96a71.75 71.75 0 0 1 19.92 6.88c2.93 1.53 5.78 3.26 8.42 5.26 2.69 2.03 4.93 4.47 7.32 6.82 2.34 2.31 5.06 4.15 8.32 4.84 3.63.77 7.34.3 11 .15 6.48-.26 12.85.22 19.22-1.42 5.53-1.42 10.55-4.35 14.15-8.82 2.36-2.93 4.38-6.17 6.6-9.21 2.31-3.16 4.59-6.36 6.41-9.84 3.35-6.38 5.03-13.42 4.99-20.62-.04-6.44-2.02-12.4-5.32-17.89-3.24-5.39-7.32-10.23-10.58-15.61-1.88-3.11-3.19-6.23-3.99-9.79-.84-3.73-1.38-7.5-2.47-11.17-2.16-7.26-5.52-14.27-9.15-20.89-6.17-11.26-15.12-21.39-18.49-34-1.7-6.37-1.6-13.36 1.17-19.43 2.5-5.49 7.06-9.31 11.59-13.09 4.47-3.74 9.88-8.09 11.02-14.15.99-5.26-2.02-9.76-6.82-11.79-2.78-1.17-5.78-1.47-8.77-1.43-2.34.03-4.79.5-7.12.19-2.17-.29-3.2-1.87-3.83-3.85-1.07-3.39-.32-7.02.21-10.43.54-3.5.88-6.86.08-10.35-.85-3.71-2.48-7.26-4.47-10.5-1.8-2.95-3.93-5.85-6.41-8.27-2.25-2.19-4.81-4.03-7.21-6.05s-4.48-4.02-5.89-6.68c-1.67-3.15-.78-6.84-2.19-10.09-.64-1.47-2.8-.2-2.16 1.26z"/><path d="M940.42 80.01c.87 9.69-3.09 20.81-7.48 29.11-6.17 11.67-7.5 24.53-11.76 37.09-8.96 26.38-14.52 54-26.44 79.27-6.39 13.55-10.69 27.64-16.17 41.55-13.29 33.72-34.4 61.86-52.46 92.96-24.02 41.36-44.78 83.7-72.04 123.14-19.89 28.78-33.27 59.95-49.22 90.97-23.28 45.29-52.54 87.13-81.93 128.59-4.89 6.9-10.68 13.56-15.06 20.82-8.09 13.4-14.06 28.35-21.99 42.02-5.61 9.69-23.81 24.41-22.11 36.63 27.66 6.37 51.52 20.49 76.74 33.38 22.8 11.65 42.9 29.42 67.54 36.97 14.46 4.43 28.83 8.21 42.1 15.73 7.38 4.18 14.44 8.69 22.04 12.53 10.9 5.5 23.16 9.53 34.93 12.7 12.41 3.34 30.29 9.22 42.47 9.02 2.21-8.09 8.51-15.76 12.99-22.65L895 850.08c17.29-25.53 36.12-49.52 55.06-73.86l57.05-72.05 28.03-35.23c9.19-11.51 15.33-23.92 22.84-36.54 14.55-24.47 31.89-47.81 43.87-73.64 16.22-34.97 26.2-74.91 35.5-112.22 1.39-5.56 3.77-31.57 8.1-33.24l-1.93 2.97" fill="#fff"/><path d="M939.17 80.01c.92 13.64-6.26 24.12-10.78 36.33-2.33 6.3-3.79 12.86-5.47 19.36s-3.85 12.68-5.83 19.01l-11.74 39.36c-4.18 13.22-9.74 25.62-15.08 38.38-5.55 13.27-9.75 27.07-15.42 40.29-5.24 12.21-11.59 23.92-18.36 35.34-13.88 23.44-28.8 46.16-42.11 69.94l-41.22 73.06c-14.43 23.93-30.82 46.4-43.78 71.22-12.85 24.59-24.28 49.87-38.01 74.01-13.74 24.16-28.97 47.45-44.72 70.34l-23.92 34.14c-7.85 11.05-15.99 21.31-22.23 33.42-5.71 11.08-10.28 23.49-17.64 33.6-5.83 8.01-13.56 14.78-18.02 23.75-1.65 3.33-2.72 6.87-2.35 10.61.05.54.35 1.07.92 1.21 20.88 4.92 40.11 14.32 59.03 24.19 9.1 4.75 18.37 9.27 27.21 14.49 8.5 5.01 16.68 10.54 25.07 15.72 8.03 4.96 16.28 9.61 25.05 13.15 9.55 3.86 19.68 6.16 29.41 9.53 20.85 7.21 38.28 21.05 59.05 28.52 10.44 3.75 21.23 6.54 31.92 9.49 9.55 2.63 19.44 5.34 29.41 5.32.56 0 1.05-.39 1.21-.92 2.8-9.33 9.44-17.06 14.66-25.12l16.99-26.34c11.54-17.78 23.52-35.23 36.2-52.22 25.62-34.34 52.68-67.56 79.24-101.18l39.33-49.63c12.18-15.75 20.85-34.14 31.52-50.91s21.87-33.37 30.88-51.17c8.78-17.35 15.49-35.74 21.31-54.26 6.72-21.38 12.79-43.23 17.64-65.12 1.22-5.48 1.76-11.12 2.7-16.65.54-3.15 1.11-6.31 1.92-9.4.46-1.77 1.06-5.5 2.91-6.44l-1.71-1.71-1.93 2.97c-.88 1.35 1.28 2.61 2.16 1.26l1.93-2.97c.72-1.11-.66-2.24-1.71-1.71-3.1 1.58-3.88 7.05-4.56 9.99-1.36 5.97-2.17 12.05-3.09 18.1-2.54 16.67-7.81 33.28-12.33 49.51-5.43 19.5-11.54 38.86-19.34 57.55-7.93 19.01-18.34 36.6-29.41 53.92l-16.03 25.25c-5.21 8.5-10.19 17.77-15.51 26.53-11.45 18.84-26.79 35.45-40.34 52.81l-78.99 100.41c-14.46 18.96-28.29 38.32-41.34 58.28l-19.69 30.49c-5.62 8.69-12.79 17.05-15.81 27.1l1.21-.92c-9.31.01-18.52-2.44-27.44-4.87-9.37-2.55-18.82-5.03-28.05-8.07-10.87-3.57-21.13-8.22-31.02-13.95-9.03-5.24-17.82-10.53-27.6-14.3-9.54-3.68-19.43-6.18-29.11-9.4-9.43-3.13-18.25-7.79-26.75-12.87-8.47-5.07-16.64-10.6-25.06-15.74-8.7-5.31-17.81-9.84-26.83-14.57-20.42-10.69-41.06-21.21-63.63-26.53l.92 1.21c-1-9.97 8.34-19.01 14.24-25.96 7.18-8.45 12.04-17.77 16.93-27.71 5.97-12.13 11.89-24.08 20.09-34.9 8.29-10.94 16.17-22.17 24.03-33.42 15.92-22.78 31.47-45.85 45.72-69.72 14.4-24.13 26.57-49.31 39.15-74.41 6.18-12.33 12.58-24.57 19.71-36.38 7.24-12 15.49-23.34 22.97-35.19 14.93-23.65 28.25-48.26 41.77-72.73 13.2-23.88 27.29-47.07 41.66-70.26 6.97-11.25 13.74-22.64 19.67-34.48 5.97-11.93 10.65-24.32 15.2-36.84 4.76-13.11 10.86-25.61 15.82-38.63 4.87-12.79 8.63-25.96 12.44-39.09 3.78-13.03 8.35-25.85 11.66-39 1.69-6.68 3.31-13.42 6.07-19.76 2.46-5.67 5.47-10.96 7.31-16.9 1.68-5.44 2.6-11.08 2.22-16.77-.11-1.6-2.61-1.61-2.5 0h0z"/><path d="M996.28 127.36c12.24-1.87 24.81-2.82 37.12-4.19 33.71-3.74 66.72-18.06 66.44-56.01-.14-19.31-5.33-38.31-8.62-57.22-4.65-26.74-7.34-53.83-7.99-80.97-.23-9.41 4.87-42.47-.41-54.41.09-6.9-4.13-10.3-12.66-10.2l-26.67-1.13-57.37-2.09c-12.46-.42-28.85-3.47-40.15 3.56-8.12 5.05-11.37 14.56-14.4 23.12-18.15 51.36-38.58 101.96-58.99 152.48-4.57 11.3-6.66 23.38-10.68 34.56-3.92 10.88-7.85 19.97-8.12 31.92-.36 15.94-.18 41.79 22.47 40.02 9.87-.77 18.04-7.4 27.47-9.55 8.79-2 18.01.15 26.91-.95l65.65-8.96z"/><path d="M996.61 128.57c9.08-1.38 18.23-2.25 27.37-3.16 7.16-.72 14.33-1.41 21.41-2.78 11.45-2.2 22.93-5.88 32.76-12.3 9.3-6.07 16.66-14.67 20.24-25.26 2.01-5.93 2.77-12.21 2.69-18.45-.11-8.86-1.27-17.67-2.78-26.39-1.52-8.72-3.42-17.37-5.05-26.06-1.68-8.95-3.07-17.96-4.25-26.98-2.36-18.01-3.84-36.13-4.41-54.28-.32-10.34 1.1-20.62 1.62-30.93.29-5.82.46-11.68-.04-17.49-.2-2.35-.5-4.72-1.07-7.02-.24-.96-.57-1.88-.9-2.81-.29-.84-.2-2.21-.45-3.38-1.19-5.53-6.3-7.77-11.48-8.1-9-.58-18.06-.73-27.08-1.11l-55.09-2.02c-7.26-.26-14.51-.98-21.78-1.13-7.03-.15-14.35.38-20.76 3.5-6.16 3-10.28 8.47-13.11 14.57-3.31 7.13-5.58 14.78-8.24 22.16C913.88-66.67 900.63-32.83 887.12.91l-10.28 25.54c-3.44 8.51-6.78 16.25-9.27 24.7-2.45 8.3-4.44 16.72-7.4 24.86-2.67 7.32-5.54 14.62-6.83 22.33-.97 5.8-1 11.77-.84 17.64.14 4.98.57 10.02 1.8 14.86 1.1 4.32 2.91 8.62 6.02 11.88 3.34 3.5 7.93 5.21 12.71 5.41 7.18.31 13.7-2.63 20.08-5.56 3.4-1.56 6.84-3.1 10.49-3.99 4.43-1.08 9.01-1.02 13.53-.87s8.65.39 12.96-.07 8.9-1.1 13.34-1.67l27.11-3.61 26.06-3.79c1.59-.24.91-2.65-.66-2.41l-53.07 7.38-13.32 1.65c-4.31.41-8.65.13-12.97 0-4.06-.12-8.14-.11-12.15.65-3.65.7-7.1 2.1-10.48 3.61-6.49 2.9-12.94 6.31-20.25 6.2-4.68-.07-9.06-1.72-12.16-5.29-2.89-3.32-4.35-7.7-5.25-11.94-.99-4.68-1.27-9.48-1.34-14.25-.09-6.22.08-12.42 1.44-18.52 1.68-7.54 4.72-14.64 7.22-21.92 2.7-7.88 4.53-16.02 6.97-23.97 2.6-8.44 6.2-16.55 9.5-24.73l38.82-98.86 9.32-25.3c2.63-7.27 4.87-14.79 8.02-21.85 2.76-6.19 6.65-11.69 12.94-14.63 6.46-3.01 13.94-3.18 20.93-2.93 7.23.26 14.44.88 21.67 1.14l26.69 1.01 53.36 2.04c2.57.12 5.43.64 7.39 2.44.73.67 1.3 1.5 1.67 2.42.54 1.36.45 2.65.65 4.05.12.86.6 1.72.85 2.56.3 1.03.53 2.09.72 3.15.44 2.48.63 5 .74 7.52.48 11.15-.73 22.3-1.55 33.4-.37 5.05-.32 10.01-.13 15.08.33 8.79.87 17.58 1.63 26.34 1.51 17.58 3.8 35.14 7.06 52.48 3.21 17.05 7.49 34.07 7.69 51.52.14 11.76-3.12 23.31-10.94 32.29-16.38 18.79-43.18 21.95-66.43 24.27-8.44.84-16.88 1.7-25.26 2.97-1.59.24-.91 2.65.66 2.41zM602.02 958.66c-.6-1.99.03-3.34 1.83-4.34 2.19-1.21 4.9-1.54 7.36-1.73 5.29-.41 10.8-.11 16.03.82 4.51.8 8.68 2.87 12.95 4.44 2.67.98 5.37 1.56 8.17 2.05 6.7 1.16 13.45 2.07 20.04 3.73 3.39.85 6.83 1.86 9.9 3.57 1.96 1.09 4.25 2.77 4.5 5.13.17 1.58 2.67 1.6 2.5 0-.64-5.95-7.61-8.53-12.51-10.07-7.05-2.21-14.43-3.22-21.7-4.42-2.62-.43-5.29-.82-7.84-1.58-5.03-1.5-9.7-4.15-14.88-5.17-5.49-1.08-11.35-1.41-16.92-1.01-5.13.37-14 2.1-11.83 9.26.47 1.54 2.88.88 2.41-.66h0z"/><path d="M612.05 998.95c-.95-7.62 1.98-14.94 5.54-21.53 3.83-7.06 8.55-13.58 12.6-20.51 2.02-3.47 3.88-7.07 5.12-10.91.49-1.53-1.92-2.19-2.41-.66-2.33 7.24-6.86 13.66-10.93 20-4.31 6.72-8.74 13.63-11.13 21.31-1.23 3.96-1.81 8.15-1.3 12.29.2 1.58 2.7 1.6 2.5 0h0zm9.95-.33c-.64-2.36.61-4.99 1.66-7.04 1.45-2.82 3.24-5.44 5.01-8.06 1.49-2.21 2.88-4.39 3.98-6.82 1.55-3.43 2.97-6.93 4.72-10.27 1.95-3.73 4.32-7.21 7.62-9.88 1.25-1.01-.53-2.77-1.77-1.77-6.17 4.99-9.15 12.57-12.27 19.62-1.2 2.72-2.61 5.14-4.27 7.6-1.82 2.71-3.69 5.4-5.18 8.31-1.38 2.68-2.75 5.91-1.91 8.97.42 1.55 2.83.89 2.41-.66h0zm9.98 3.99c5.83-14.03 15.68-25.45 26.31-36.07 1.14-1.14-.63-2.91-1.77-1.77-10.97 10.96-20.95 22.72-26.96 37.18-.62 1.48 1.8 2.13 2.41.66h0zm16.7-.33c-.12-2.41 1.76-4.3 3.42-5.8 2.06-1.86 4.36-3.42 6.48-5.21 2.54-2.15 4.51-4.94 6.56-7.54l7.67-9.82c2.85-3.63 5.75-7.23 8.79-10.7 1.06-1.21-.7-2.98-1.77-1.77-5.63 6.42-10.74 13.27-16.02 19.97-2.19 2.78-4.29 5.79-7 8.09-2.2 1.86-4.6 3.47-6.71 5.42-2.07 1.91-4.07 4.38-3.92 7.36.08 1.6 2.58 1.61 2.5 0h0zm-49.95-9.99c-.06-4.42.87-8.57 2.52-12.66 1.39-3.45 2.91-6.8 4.14-10.32 2.32-6.61 4.38-14.44 9.62-19.42 1.17-1.11-.6-2.88-1.77-1.77-4.25 4.04-6.46 9.89-8.42 15.29l-3 8.44c-1.11 2.98-2.55 5.82-3.63 8.81-1.36 3.75-2.02 7.64-1.96 11.63.02 1.61 2.52 1.61 2.5 0h0zm69.72 215.34c-3.64 3.2-2.43 5.36-4.22 9.33s-4.39 6.65-7.29 10.16l-16.29 20.14-19.94 24.63c-2.76 3.4-9.67 15.62-13.58 16.62-7.73 1.99-11.2-8.27-8.9-14.36 2.56-6.77 8.72-11.77 14.18-15.82 6.84-5.08 11.46-11.53 16.85-18.17 4.6-5.67 12.06-12.05 14.81-18.8-4.85-13.08-55.56 18.64-64.32 21.3-5.72 1.73-11.7 1.54-17.5 3.3-3.3 1-7.87 4.02-11.43 3.79-11.39-.73-6-13.14.16-19.01 6.3-5.99 16.15-7.79 24.38-10.66 10.17-3.54 19.81-8.29 29.82-12.38 7.63-3.12 15.7-8.22 23.68-9.52 4.76-.78 8.28-2.82 12.79-3.93 5.32-1.31 8.91-.15 14.25-2.68 16.14-7.64 31.78-14.3 47.54-23.2 19.16-10.82 37.35-21.2 54.46-35.25 7.73-6.35 13.22-14.01 23.31-17.45 5.28-1.8 10.47-2.37 15.73-4.46 5.89-2.33 6.6-4.63 10.81 1.04 7.43 10.01-1.42 11.24-8.32 15.43-8.96 5.44-14.49 12.45-21.76 19.52-4.91 4.77-11.71 6.24-17.04 10.49-4.81 3.84-8.33 5.32-13.66 8.33-5.45 3.09-9.13 7.99-14.96 10.83-5.21 2.55-10.08 3.88-14.65 7.83-8.01 6.92-15.9 14.2-26.12 17.98-9.29 3.44-19.34 11.4-29.09 12.71"/><path d="M667.56 1206.74c-1.13 1.02-2.09 2.18-2.67 3.6-.48 1.16-.67 2.39-.97 3.6-.82 3.35-2.8 6.23-4.97 8.86l-16.16 19.82-16.53 20.44c-2.39 2.96-4.92 5.85-7.18 8.91-1.4 1.89-2.65 3.89-3.97 5.84-1.49 2.21-3.01 4.42-4.74 6.44-1.24 1.45-2.57 3.05-4.58 3.23-5.14.47-7.19-5.76-6.99-9.88.15-2.98 1.68-5.71 3.39-8.08 2.06-2.85 4.7-5.26 7.41-7.47 2.77-2.25 5.7-4.27 8.3-6.74 2.75-2.63 5.22-5.53 7.61-8.48 2.33-2.88 4.57-5.83 7.05-8.58s5.02-5.32 7.35-8.14c1.08-1.3 2.11-2.64 3.05-4.05.83-1.26 1.99-2.87 2.32-4.37.25-1.14-.94-2.51-1.76-3.17-2-1.6-4.8-1.71-7.24-1.47-3.59.36-7.1 1.4-10.49 2.58-8.62 3.01-16.86 7.09-24.99 11.21-6.46 3.28-12.8 6.9-19.43 9.84-1 .44-2.5.94-3.81 1.25-4.06.96-8.24 1.17-12.33 1.99-3.53.7-6.54 2.26-9.86 3.56-2.57 1.01-5.58 1.58-8.09.04-3.65-2.25-1.22-7.75.38-10.52 3.02-5.22 7.72-8.62 13.26-10.86 6.7-2.7 13.78-4.35 20.51-7 7.9-3.1 15.57-6.74 23.41-9.97 7.27-2.99 14.14-7.3 21.8-9.26 1.86-.48 3.78-.71 5.63-1.24s3.48-1.17 5.2-1.8c3.48-1.27 6.86-1.93 10.55-2.21 1.68-.13 3.37-.3 5.01-.73 1.95-.51 3.73-1.4 5.54-2.25l11.55-5.36 22.6-10.81c7.47-3.8 14.75-7.96 22.02-12.13 6.91-3.97 13.77-8.03 20.48-12.35 6.7-4.31 13.23-8.87 19.51-13.78 2.95-2.31 5.83-4.68 8.56-7.25 2.46-2.31 4.87-4.69 7.47-6.85 2.66-2.21 5.56-4.15 8.74-5.52 3.69-1.59 7.68-2.33 11.55-3.31 3.49-.88 6.76-2.09 10-3.63.7-.33 1.58-.84 2.39-.76.88.09 1.58.92 2.12 1.52 1.67 1.86 4.13 4.91 3.75 7.62-.28 1.95-2.31 3.12-3.86 3.98-2.32 1.3-4.77 2.35-7.03 3.75-3.17 1.96-6.12 4.27-8.88 6.76-2.75 2.49-5.33 5.17-7.91 7.83-2.6 2.68-5.13 5.56-8.31 7.57-2.93 1.86-6.15 3.2-9.18 4.89-3.18 1.77-5.87 4.21-8.96 6.12s-6.17 3.35-9.19 5.14c-3.03 1.79-5.62 4.18-8.32 6.41-2.85 2.35-5.86 4.1-9.24 5.58-3.34 1.46-6.74 2.83-9.73 4.95s-5.72 4.81-8.56 7.2-5.71 4.68-8.78 6.73c-6.21 4.14-13.3 6.4-19.85 9.91s-12.55 7.23-19.67 8.25c-1.59.23-.91 2.64.66 2.41 7.46-1.07 14.12-5.23 20.65-8.71 3.34-1.78 6.73-3.24 10.22-4.7 3.51-1.47 6.82-3.34 9.96-5.49 3.1-2.12 6.04-4.49 8.91-6.91 2.93-2.48 5.72-5.32 8.98-7.37 3.16-1.98 6.67-3.26 10.04-4.81 3.38-1.55 6.27-3.66 9.11-6.05s5.71-4.62 9.02-6.43c3.06-1.68 6.18-3.27 9.06-5.25 1.54-1.06 2.95-2.28 4.5-3.32 1.53-1.03 3.17-1.9 4.81-2.73 3.19-1.62 6.43-3.13 9.25-5.37 2.99-2.37 5.54-5.37 8.19-8.1 2.64-2.71 5.31-5.38 8.22-7.81 2.77-2.32 5.75-4.39 8.96-6.06 2.2-1.14 4.53-2.12 6.52-3.64 1.71-1.3 2.98-3.08 2.93-5.31-.06-3.06-2.09-5.87-3.93-8.14-1.39-1.72-3.15-3.3-5.51-2.83-1 .2-1.93.69-2.85 1.12-1.56.75-3.12 1.44-4.77 1.99-4.01 1.35-8.2 2.05-12.25 3.26-3.53 1.06-6.85 2.6-9.89 4.69-5.72 3.92-10.28 9.21-15.61 13.61-12.76 10.52-26.84 19.32-41.13 27.6-7.35 4.26-14.72 8.51-22.26 12.41-7.64 3.96-15.43 7.61-23.24 11.21l-11.76 5.45c-1.93.9-3.82 1.93-5.88 2.52-1.74.5-3.53.66-5.33.79-3.79.28-7.27 1.02-10.84 2.33-1.73.63-3.44 1.29-5.22 1.79-1.93.54-3.92.77-5.85 1.29-7.86 2.13-15.02 6.49-22.5 9.61-7.98 3.33-15.8 7.03-23.87 10.12-6.81 2.6-14 4.18-20.68 7.12-5.45 2.41-9.99 6.08-12.99 11.26-2 3.45-4.01 8.66-1.31 12.29 1.44 1.94 3.82 2.69 6.13 2.91 3.37.33 6.55-1.38 9.53-2.71 6.65-2.97 14.14-2.12 20.9-4.61 2.55-.94 4.98-2.23 7.4-3.45l23.65-11.95c4.18-1.97 8.4-3.86 12.73-5.48 3.51-1.31 7.15-2.54 10.87-3.08 1.33-.19 2.71-.29 4.05-.13a9.08 9.08 0 0 1 1.5.36c.17.06.2.05.5.23.17.1.51.33.44.27.49.39.55.5.82.96.04.08.15.22.15.31-.03-.56-.33.11-.4.26a22.49 22.49 0 0 1-1.23 2.2c-1.98 3.17-4.52 5.95-7.04 8.68-2.49 2.69-4.94 5.38-7.23 8.24-2.44 3.05-4.85 6.14-7.47 9.04-2.63 2.91-5.49 5.48-8.62 7.84-2.79 2.1-5.53 4.3-7.93 6.84-4.19 4.42-7.46 9.89-6.41 16.16.79 4.75 4.23 9.6 9.56 9.03 2.21-.23 3.75-1.43 5.23-3.01 1.85-1.97 3.43-4.2 4.96-6.41l4.34-6.41c2.02-2.89 4.39-5.56 6.61-8.3l33.49-41.25c2.16-2.61 4.19-5.43 5.26-8.68.41-1.25.58-2.55.95-3.81.42-1.46 1.3-2.54 2.41-3.55 1.19-1.08-.58-2.85-1.77-1.77h0zm161.89-774.89l-.23 1.85c-.15 1.19 1.41 1.49 2.13.88 6.61-5.53 11.83-12.31 16.77-19.32 2.63-3.74 5.21-7.53 7.98-11.17 2.94-3.88 6.03-7.63 9.12-11.39l8.82-10.96c2.86-3.72 5.47-7.61 8.44-11.24 5.48-6.7 11.77-12.66 18.24-18.38 7.32-6.48 14.87-12.71 21.85-19.56l-1.77-1.77c-7.8 8.13-13.05 18.22-20.36 26.74l-22.39 26.79c-3.74 4.4-7.56 8.74-11.53 12.95-3.87 4.11-7.92 8.04-11.81 12.14-7.85 8.27-15.34 16.89-22.26 25.96-7.66 10.05-14.62 20.68-20.18 32.05l2.28.96c2.94-8 9.07-14.41 14.6-20.69 2.69-3.06 5.37-6.15 7.72-9.49l8.38-12.13c5.68-8.08 11.74-15.77 18.71-22.79 7.19-7.25 14.74-14.14 21.91-21.4 3.87-3.92 7.53-7.95 10.92-12.3s6.7-8.77 10.6-12.69c1.14-1.14-.6-2.87-1.77-1.77-7.01 6.63-12.23 14.78-17.93 22.49-2.96 4-6.21 7.66-9.51 11.37-3.44 3.86-6.68 7.9-9.84 11.99l-9.45 12.46c-3.07 4.04-6.14 8.12-9.66 11.79-6.61 6.9-14.35 12.62-20.94 19.53-3.48 3.65-6.59 7.68-9.91 11.48-3.24 3.7-6.65 7.55-8.74 12.05-.55 1.18.99 2.7 1.96 1.51l21.94-26.69c7.28-8.92 13.17-17.63 20.35-25.95 3.06-3.54 6.63-6.59 9.81-10.02 1.57-1.69 3.05-3.49 4.28-5.44 1.24-1.97 2.27-4.07 3.41-6.09 4.22-7.55 8.82-14.84 15.05-20.91 3.93-3.82 8.47-6.91 12.31-10.84 3.85-3.94 7.23-8.3 10.85-12.44 1.06-1.21-.56-2.85-1.77-1.77-7.92 7.12-13.31 16.47-20.26 24.44l-11.5 13.05c-3.76 4.43-7.66 9.21-11.34 13.94-3.67 4.72-7.24 9.52-10.67 14.42-3.3 4.71-6.39 9.54-9.9 14.11-3.46 4.5-7.13 8.83-10.68 13.25s-6.69 8.96-9.98 13.51c-2.88 3.98-6.62 7.2-9.95 10.8-3.45 3.73-6.16 7.92-7.43 12.88-.41 1.6 1.82 2.12 2.41.66 4.41-10.89 11.61-20.37 19.16-29.26l24.38-28.48 25.81-31.51c8.13-10.05 16.18-20.2 24.93-29.72 4.48-4.88 9.32-9.38 13.89-14.16 4.21-4.4 8.08-9.28 9.99-15.15.37-1.14-1.3-2.2-2.09-1.22-9.4 11.64-17.23 24.41-25.71 36.71-4.31 6.25-8.87 12.25-13.92 17.93-5.04 5.66-10.52 10.91-15.42 16.69s-9.25 11.68-13.87 17.52c-4.6 5.81-9.55 11.34-14.61 16.76l-15.57 16.46-10.44 11.49c-3.72 4.07-7.39 8.22-10.66 12.67-2.46 3.36-5.69 7.69-5.63 12.07.01.86 1.09 1.68 1.88 1.08 10.2-7.74 18.78-17.34 26.22-27.72 3.85-5.38 7.66-10.73 11.9-15.81 4.19-5.03 8.59-9.89 13.03-14.7 8.98-9.74 17.84-19.51 26.17-29.81l12.83-15.68c2.21-2.6 4.46-5.18 6.77-7.69 1.74-1.9 3.64-3.68 5.29-5.66 2.97-3.6 5.53-7.53 8.5-11.13 1.55-1.89 3.19-3.74 5.06-5.31 1.26-1.06 2.84-2.18 4.55-2.19l-1.25-1.25c-.24 8.35-7.5 14.85-13.25 20.04-3.04 2.74-6.2 5.37-9.03 8.34-3.77 3.97-7.12 8.34-10.7 12.48-3.76 4.35-7.82 8.31-12.23 12.01s-8.61 7.01-12.43 11.05c-7.91 8.36-15.6 16.99-23.13 25.69-8.47 9.79-16.58 19.92-23.73 30.72-.66 1 .43 2 1.41 1.84 6.95-1.17 11.44-8.29 14.99-13.72 4.97-7.61 10.62-14.72 16.41-21.71 6.69-8.07 13.68-15.9 20.92-23.48 3.39-3.55 6.89-6.98 10.14-10.66 3.13-3.55 6.11-7.23 9.07-10.92 6.59-8.22 13.12-16.58 21.04-23.59l-1.96-.25c.93 1.61-.27 3.26-1.36 4.45-1.66 1.82-3.68 3.28-5.67 4.71-1.69 1.21-3.54 2.36-5.02 3.84-2.6 2.61-4.79 5.76-7.15 8.59-2.96 3.55-5.99 7.05-9.22 10.36-1.12 1.15.64 2.92 1.77 1.77 3.07-3.15 5.96-6.46 8.78-9.84l4.09-4.95c1.16-1.41 2.26-2.95 3.56-4.23 3.48-3.42 8.19-5.37 11.28-9.25 1.57-1.96 2.45-4.39 1.11-6.72-.42-.73-1.37-.78-1.96-.25-6.94 6.14-12.83 13.34-18.61 20.55-5.93 7.4-11.92 14.61-18.55 21.4-7.19 7.37-14.13 14.99-20.8 22.85a415.76 415.76 0 0 0-9.8 11.98c-2.72 3.46-5.51 6.92-7.95 10.58-2.2 3.29-4.22 6.71-6.75 9.77-2.36 2.86-5.23 5.66-9.03 6.3l1.41 1.84c12.96-19.57 29.02-36.76 44.77-54.06 7.66-8.41 17.26-14.67 24.84-23.18 3.87-4.34 7.43-8.93 11.33-13.24 2.69-2.98 5.76-5.59 8.75-8.26 6.66-5.95 14.86-13.21 15.14-22.85.02-.67-.59-1.25-1.25-1.25-3.7.02-6.83 3.15-9.17 5.68-3.06 3.3-5.67 6.99-8.34 10.6-2.88 3.89-6.31 7.22-9.53 10.82-4.56 5.09-8.89 10.38-13.18 15.69l-13.24 16.14c-4.29 5-8.75 9.85-13.22 14.69-8.88 9.6-17.81 19.21-25.49 29.82-4.33 5.98-8.5 11.99-13.39 17.54-4.85 5.5-10.16 10.64-16.01 15.07l1.88 1.08c-.02-1.64.66-3.23 1.39-4.66 1.01-1.99 2.24-3.85 3.54-5.66 2.85-3.96 6.08-7.65 9.35-11.26l24.43-26.31c5.2-5.49 10.33-11.05 15.13-16.89 4.65-5.66 8.98-11.58 13.6-17.27 4.68-5.76 9.88-10.97 14.91-16.41 5-5.4 9.74-11.02 14.03-17.01 9.72-13.58 18.22-28.04 28.72-41.06l-2.09-1.22c-1.73 5.32-5.27 9.75-9.07 13.76-3.95 4.16-8.17 8.05-12.1 12.22-8.87 9.42-16.97 19.52-25.09 29.58l-25.68 31.41c-8.05 9.76-16.37 19.26-24.63 28.85-8.51 9.87-16.67 20.28-21.59 32.46l2.41.66c1.12-4.37 3.44-8.08 6.45-11.4 2.9-3.2 6.15-6.06 8.91-9.39 1.57-1.9 2.89-3.96 4.3-5.98 1.63-2.33 3.34-4.6 5.09-6.83l10.62-13.13c7.15-9 13.22-18.79 20.17-27.94 7.23-9.52 14.91-18.69 22.93-27.56 3.97-4.39 7.54-9.05 11.1-13.78 3.52-4.67 7.13-9.33 11.5-13.25l-1.77-1.77c-3.22 3.68-6.24 7.53-9.57 11.1-3.42 3.67-7.36 6.58-11.11 9.88-6.53 5.74-11.58 12.73-15.93 20.21-2.27 3.9-4.14 8.19-6.91 11.76-2.93 3.77-6.59 6.88-9.9 10.29-7.46 7.68-13.26 16.89-19.99 25.19l-24.59 29.95 1.96 1.51c1.86-4.02 4.79-7.46 7.67-10.78l8.63-10.12c6.26-7.12 13.91-12.82 20.68-19.43 7.17-7 12.89-15.38 18.93-23.34 3.18-4.19 6.41-8.35 9.82-12.35 3.25-3.81 6.74-7.39 9.82-11.35 6.61-8.49 12.18-17.85 20.05-25.3l-1.77-1.77c-3.48 3.5-6.49 7.4-9.5 11.29s-6.14 7.63-9.55 11.17c-7.13 7.42-14.72 14.37-22.04 21.6a177.26 177.26 0 0 0-19.34 22.68c-5.45 7.58-10.35 15.52-16.49 22.57-6.22 7.15-13.21 14.22-16.55 23.29-.49 1.32 1.66 2.23 2.28.96 9.95-20.36 24.23-38.4 39.61-54.91 7.71-8.27 15.8-16.13 23.2-24.68 7.57-8.76 14.78-17.82 22.27-26.64 4.03-4.75 7.82-9.58 11.36-14.72 3.63-5.26 7.25-10.53 11.69-15.15 1.11-1.16-.62-2.9-1.77-1.77-12.38 12.15-26.62 22.36-38.03 35.5-2.9 3.34-5.46 6.9-8.08 10.46-2.88 3.92-5.94 7.72-9.03 11.48-6 7.32-11.93 14.64-17.36 22.41-5.57 7.98-11.21 15.88-18.73 22.17l2.13.88.23-1.85c.2-1.59-2.3-1.58-2.5 0h0zM-143.6 85.64c10.22 0 19.35.54 29.11 3.03 5.39 1.38 9.59 4.06 14.91 6.27 6.97 2.9 13.02 2.72 20.39 2.87 5.89.12 10.37 2.56 16.03 3.3 7.98 1.05 16.88-.16 24.93-.16l51.4.07c18.01-.08 35.68-6.51 53.27-10.02 18.75-3.75 35.48-8.25 51.47-18.6 10.22-6.62 21.9-9.04 32.46-14.95 6.29-3.52 11.99-7.2 18.46-10.38 5.52-2.72 11.77-10.24 18-10.29 2.71 12.56 6.68 19.19-5.69 26.63-12.62 7.59-25.89 14.37-39.53 20.42-8.5 3.77-13.46 7.62-22.22 8.02-7.16.32-14.17 1.52-21.18 2.97-3.57.74-10.62 1.96-11.79 5.36 19.93 3.89 39.71 12.99 59.79 15.93 13.42 1.96 29.51 1.32 43.07-.07-8.68 7.35-7.12 15.69-20.32 15.53-21.5-.26-45.25 3.49-65.89-3.06-9.49-3.01-19.08-3.64-28.52-6.96-6.14-2.16-11-2.22-17.47-2.22-2.48 0-5.27-.4-7.73-.07-3.18.42-4.46 1.99-6.73 2.45-3.71.76-7.4 1.33-11.08 2.22-9.41 2.27-19.09.28-28.48 2.21-5.82 1.2-9.83 2.41-16.45 2.37-21.6-.13-43.21.01-64.82.01h2.02"/><path d="M-143.6 86.89c11.39.01 23.82.33 34.42 4.98 5.02 2.21 9.77 4.97 15.19 6.11 5.31 1.12 10.64.75 16.01 1.14 5.36.39 10.36 2.76 15.71 3.35 5.79.64 11.63.2 17.42-.07 12.28-.58 24.65-.15 36.94-.12 12.09.03 24.27.56 36.25-1.37 11.76-1.9 23.18-5.38 34.8-7.93 10.68-2.35 21.37-4.41 31.72-8.04 4.94-1.73 9.78-3.76 14.45-6.13 4.94-2.51 9.45-5.75 14.37-8.27s10.33-4.5 15.56-6.59c5.21-2.08 10.19-4.47 15.05-7.29s10.15-5.88 15.36-8.6c4.06-2.11 7.32-5.46 11.2-7.86 1.83-1.13 3.81-2.09 5.99-2.17l-1.21-.92c.76 3.48 1.77 6.91 2.41 10.42.48 2.65.68 5.5-.48 8.02-1.53 3.33-4.8 5.45-7.84 7.26-4.56 2.72-9.18 5.33-13.86 7.83-9.39 5.02-19.13 9.22-28.68 13.9-4.11 2.01-8.15 4.26-12.63 5.33-2.45.59-4.91.67-7.41.85-2.7.19-5.39.5-8.06.88-5.07.72-10.18 1.63-15.15 2.86-3.24.8-7.33 1.98-8.69 5.38-.24.6.26 1.42.87 1.54 13.83 2.74 27.07 7.71 40.59 11.59 6.67 1.91 13.42 3.56 20.3 4.5 6.57.89 13.2 1.17 19.82 1.12 7.51-.06 15.01-.54 22.48-1.3l-.88-2.13c-2.48 2.14-4.45 4.67-6.26 7.38-1.38 2.06-2.72 4.29-4.78 5.75-2.8 1.98-6.26 2.04-9.56 2.02-4.71-.03-9.41.12-14.12.3-9.18.34-18.37.8-27.56.38-4.69-.22-9.37-.66-13.99-1.52s-9.1-2.42-13.69-3.55c-4.73-1.16-9.53-1.96-14.29-3.01-4.68-1.04-9.15-2.85-13.82-3.85-4.37-.94-8.81-.93-13.26-.98s-8.14-.62-12.07 1.31-8.4 2.11-12.58 3.05c-5.15 1.15-10.19 1.44-15.46 1.47-4.78.03-9.55.09-14.25 1.02-3.99.79-7.92 1.85-11.98 2.18-5.53.45-11.16.11-16.7.1-5.73-.01-11.46 0-17.2 0l-35.05.06c-1.61 0-1.61 2.5 0 2.5h2.02c1.61 0 1.61-2.5 0-2.5h-2.02v2.5l62.83-.02c4.25.02 8.39-.24 12.57-1.08 4.71-.94 9.24-1.99 14.07-2.17 5.08-.19 10.18.07 15.24-.47 4.7-.5 9.34-1.75 13.98-2.63 1.79-.34 3.43-.67 5.06-1.48 2.24-1.1 4.24-1.58 6.76-1.53 4.44.09 8.95.04 13.37.47 4.91.47 9.37 2.35 14.11 3.58 4.82 1.25 9.73 2.07 14.59 3.12 4.72 1.02 9.27 2.61 13.97 3.68 4.49 1.02 9.06 1.64 13.65 2 9.36.73 18.75.37 28.12.01l15.38-.44c4.07-.02 8.28.28 12.01-1.68 2.53-1.32 4.27-3.57 5.84-5.89 2.04-3.02 4.04-5.92 6.83-8.32.78-.68.18-2.24-.88-2.13-13.07 1.32-26.38 1.96-39.47.52-13.86-1.52-27.14-6.14-40.38-10.28-7.47-2.33-14.99-4.55-22.68-6.07l.87 1.54c.57-1.42 2.42-2.17 3.74-2.67 1.67-.63 3.41-1.04 5.15-1.41 5-1.06 10.04-2.05 15.12-2.68 5.02-.62 10.17-.43 15.05-1.88 4.21-1.25 8.08-3.4 12-5.31 9.76-4.76 19.68-9.07 29.25-14.22 4.75-2.55 9.47-5.19 14.06-8.01 2.92-1.79 5.86-4.02 7.49-7.11 3.38-6.39-.04-14.32-1.46-20.79-.11-.52-.68-.94-1.21-.92-4.42.16-8.13 2.95-11.51 5.53-1.84 1.41-3.66 2.89-5.64 4.1-2.25 1.39-4.72 2.46-7.03 3.75-5.12 2.85-10.05 6.06-15.27 8.71-5.04 2.56-10.36 4.48-15.6 6.58-5.11 2.05-10.1 4.3-14.75 7.27s-9.36 5.5-14.33 7.69c-9.87 4.36-20.34 7.16-30.86 9.43L54.87 92.3l-17.38 4.24c-5.87 1.31-11.81 2.41-17.81 2.9-6.1.5-12.25.32-18.37.31-12.52 0-25.04-.08-37.56-.09-5.86 0-11.7.46-17.56.57-2.82.05-5.66.01-8.47-.3-2.81-.32-5.5-1.11-8.21-1.87-2.46-.69-4.94-1.29-7.5-1.48-2.82-.21-5.67-.1-8.49-.24-5.83-.29-11.02-1.73-16.29-4.24-5.03-2.39-9.85-4.45-15.32-5.59s-11.16-1.74-16.8-2c-2.9-.13-5.8-.17-8.71-.17-1.61 0-1.61 2.5 0 2.5h0zm1203.93 507.5c9.45 9.35 26.04 19.25 39.23 16.71 13.86-2.66 19.23 9.39 22.2 21.43 2.77 11.21 5.78 23.45 6.24 35.26.39 10.1 3.15 27.98-6.09 33.73-8.85 5.51-18.31-2.46-27.6 1.53-3.42 1.47-5.44 3.47-9.36 3.89-8.81.96-19.72-4.07-27.82-6.89-12.18-4.24-24.28-9.12-37.13-10.93-8.05-1.13-16.3-2.23-24.37-2.83-10.11-.75-19.8-5.61-29.43-8.58-17.11-5.29-34.22-10.29-49.7-19.08-7.03-3.99-13.38-9.69-20.68-13.26-6.27-3.06-13.58-4.61-19.27-8.89-5.87-4.41-7.81-9.76-3.1-16.47 6.85-9.77 12.27-.5 18.54 4.93 11.95 10.34 27.88 15.96 42.12 21.27 12.18 4.53 25.36 11.26 38.22 12.35 14.67 1.24 25.09 5.26 37.65 13.56 13.58 8.97 32.23 11.87 47.52 16.23 12.71 3.62 26.23 7.13 39.48 7.01 6.65-.06 14.75-1.49 21.22-.19 3.2.65 15.04 6.86 18.51 2.83 3.55-4.13-3.51-14.87-5.66-18-4.07-5.93-6.4-12.74-10.69-18.52-3.82-5.16-8.78-7.76-13.15-11.94-3.25-3.1-5.16-6.28-9.19-9.43-3.21-2.51-6.34-4.62-9.77-6.74-15.67-9.65-30.83-20.69-43.82-33.78-7.25-7.31-14.97-14.3-21.96-21.84-6.31-6.81-11.14-14.37-17.79-20.96-14.19-14.05-29.51-27.71-42.98-42.15-7.63-8.18-28.54-25.82-23.36-39.66 8.54-1.77 22.16 18.61 27.18 24.27 7.26 8.19 13.81 16.56 21.47 24.49 3.14 3.25 8.64 12.13 14.16 6.82 2.57-2.47 1.75-12.49 1.27-15.39-2-12.07-10.76-20.16-14.75-31.22-2.71-7.5-5.61-16.61-3.89-24.65 1.15-5.37 2.31-7.71 9.41-6.28 3.77.76 6.72 2.65 8.57 6.2 2.46 4.72 2.08 12.77 3.61 17.99 1.47 5.04 4.38 9.85 5.52 15.01 2.29 10.41 1.72 21.37 4.33 31.71 1.71 6.76 3.38 17.33 8.37 22.99 7.18 8.14 16.25 13.22 22.35 22.74 4.9 7.66 7.86 18.26 14.41 24.74z"/><path d="M1059.45 595.28c5.61 5.52 12.24 10.19 19.41 13.45 3.59 1.63 7.35 2.95 11.25 3.58 1.86.3 3.74.48 5.62.44 1.83-.04 3.57-.41 5.37-.64 3.21-.4 6.45.09 9.2 1.85 2.58 1.64 4.47 4.17 5.91 6.82 1.63 2.99 2.74 6.23 3.66 9.51 1.21 4.32 2.21 8.72 3.2 13.1 1.09 4.82 2.07 9.68 2.77 14.58.59 4.2.79 8.4 1.05 12.63.4 6.44 1.08 13.06 0 19.47-.49 2.88-1.33 5.87-3.18 8.19-2.18 2.73-5.61 3.99-9.03 4.04-3.95.05-7.81-1.1-11.72-1.51-3.97-.41-7.61.22-11.13 2.09-1.68.89-3.3 1.94-5.15 2.47-1.96.56-4.07.56-6.09.4-4.18-.33-8.27-1.56-12.21-2.91-8.47-2.89-16.8-6.15-25.27-9.03-4.64-1.58-9.33-3.05-14.1-4.2-4.75-1.14-9.57-1.81-14.41-2.46s-9.94-1.28-14.93-1.74c-2.42-.22-4.86-.33-7.26-.72-2.36-.38-4.69-.96-6.99-1.63-4.57-1.34-9-3.09-13.48-4.7s-9.05-2.94-13.59-4.35c-9.13-2.83-18.25-5.78-27.06-9.5-4.4-1.86-8.72-3.91-12.91-6.22-4.02-2.22-7.75-4.86-11.51-7.5-3.7-2.6-7.47-5.14-11.6-7.02-3.9-1.77-8.01-3.03-11.91-4.79-3.65-1.64-7.57-3.83-9.83-7.25-2.17-3.27-1.65-6.86.34-10.09 1.76-2.85 4.51-5.86 8.03-3.99 3.02 1.6 5.28 4.5 7.71 6.83 12.3 11.77 29.22 17.31 44.81 23.19 8.8 3.32 17.34 7.36 26.41 9.95 8.36 2.38 17.1 2.31 25.49 4.6 7.91 2.17 15.2 5.91 22.05 10.36 7.11 4.61 14.81 7.75 22.91 10.17 8.09 2.42 16.36 4.18 24.5 6.43 9.43 2.6 18.83 5.26 28.55 6.57 4.75.64 9.56 1 14.36.82 4.53-.17 9.05-.74 13.59-.69 3.12.03 5.88.48 8.77 1.57 2.72 1.03 5.45 2.1 8.3 2.71 2.35.5 5.24.9 7.36-.53s2.43-4.23 2.02-6.61c-.99-5.77-4.77-10.57-7.77-15.41-2.41-3.89-4.26-8.08-6.52-12.05-2.21-3.88-4.85-7.31-8.27-10.21-3.23-2.74-6.73-5.13-9.62-8.24-1.43-1.54-2.76-3.19-4.21-4.72-1.55-1.63-3.26-3.04-5.05-4.39-3.73-2.81-7.7-5.22-11.64-7.71-4.01-2.53-7.96-5.15-11.84-7.87-7.69-5.38-15.09-11.18-22.02-17.5-3.45-3.14-6.7-6.47-10.03-9.74L1031 584.72c-3.56-3.51-6.78-6.74-9.89-10.35-3.08-3.58-5.92-7.35-8.9-11.01-6.13-7.52-13.39-14.05-20.39-20.73l-21.33-20.66-14.85-15.24c-4.7-4.78-9.37-9.75-12.88-15.49-2.89-4.72-5.22-10.43-3.23-15.93l-.87.87c3.21-.6 6.6 2.25 8.81 4.18 3.55 3.1 6.64 6.71 9.61 10.36 2.41 2.96 4.67 6.05 7.15 8.95l13.74 16.01c2.42 2.78 4.87 5.53 7.42 8.2 1.58 1.65 2.99 3.45 4.54 5.13 3.01 3.24 7.42 6.26 11.54 2.91 3.2-2.61 2.82-8.23 2.65-11.93-.23-4.91-1.28-9.56-3.3-14.06-2.41-5.36-5.82-10.18-8.67-15.3-3.1-5.58-5.25-11.78-6.65-18-.75-3.35-1.19-6.79-.93-10.23.17-2.19.55-4.86 1.64-6.82.86-1.54 2.38-1.8 4.03-1.72 2.65.13 5.5.86 7.61 2.51 4.63 3.62 4.59 10.39 5.27 15.69.38 2.96 1 5.76 2.08 8.56 1.25 3.23 2.81 6.35 3.85 9.66 2.15 6.88 2.24 14.37 2.95 21.5.63 6.32 1.97 12.41 3.43 18.57 1.26 5.32 2.67 10.97 5.8 15.55 3.36 4.92 8.46 8.69 12.88 12.6 4.7 4.15 9.02 8.58 12.11 14.08 2.91 5.18 5.04 10.77 8.08 15.88 1.46 2.45 3.13 4.78 5.15 6.8 1.14 1.14 2.9-.63 1.77-1.77-3.89-3.92-6.34-8.97-8.7-13.89-2.44-5.11-4.84-10.18-8.43-14.6s-8.14-8.18-12.47-12c-4.1-3.62-8.16-7.27-10.41-12.35-2.13-4.82-3.14-10.06-4.34-15.16-.68-2.88-1.35-5.73-1.77-8.66-.5-3.47-.78-6.97-1.09-10.46-.58-6.53-1.09-13.25-3.49-19.41-1.14-2.94-2.53-5.77-3.55-8.76-.9-2.65-1.27-5.38-1.59-8.14-.59-5.04-1.01-10.63-4.71-14.49-1.69-1.76-3.9-2.93-6.24-3.55-2.11-.55-4.54-.96-6.7-.47-3.79.85-4.77 4.97-5.34 8.29-1.07 6.18.22 12.52 2.03 18.44 1.69 5.52 3.83 10.72 6.76 15.7 2.78 4.72 5.91 9.3 7.98 14.39 1.68 4.15 2.4 8.42 2.5 12.88.07 3.05.46 9.23-3.82 9.7-2.04.22-3.9-1.44-5.24-2.76-1.5-1.47-2.78-3.14-4.18-4.71l-13.07-14.67c-3.53-4.16-7.23-8.2-10.65-12.46l-7.39-9.23c-2.76-3.29-5.65-6.54-8.98-9.27-2.48-2.03-5.54-4.21-8.89-4.22-.76 0-1.75.02-2.2.73s-.63 1.9-.77 2.73c-.33 1.99-.24 4 .15 5.98.84 4.25 3.02 8.19 5.46 11.72 5.01 7.28 11.49 13.28 17.62 19.59l12.93 13.27 14.87 14.33 14.86 14.3c4.67 4.59 8.72 9.64 12.79 14.76 8.48 10.65 18.65 19.65 28.22 29.27 9.11 9.17 19.18 17.32 29.78 24.7 5.39 3.75 10.96 7.19 16.49 10.73 2.71 1.73 5.39 3.56 7.89 5.59 2.41 1.95 4.37 4.31 6.42 6.62 3.94 4.43 9.07 7.45 13.17 11.68 4.47 4.6 6.91 10.69 9.95 16.24 2.08 3.81 4.74 7.26 6.75 11.12.98 1.87 1.86 3.83 2.35 5.89.32 1.37.6 3.29-.49 4.41-1.03 1.07-2.93.91-4.26.73-2.03-.27-4.02-.91-5.94-1.58-1.75-.61-3.46-1.3-5.21-1.92-1.92-.68-3.92-.94-5.95-1.06-6.29-.37-12.55.73-18.84.66-6.94-.07-13.83-1.11-20.6-2.57-6.54-1.41-12.95-3.3-19.41-5.05-5.64-1.53-11.33-2.84-16.98-4.33-5.82-1.54-11.61-3.24-17.18-5.53-2.7-1.11-5.34-2.38-7.88-3.84s-5.03-3.21-7.59-4.74c-9.8-5.85-20.36-9.4-31.72-10.57-3.11-.32-6.15-.68-9.2-1.39-3.25-.76-6.44-1.76-9.58-2.87-6.19-2.19-12.19-4.84-18.31-7.22-11.17-4.35-22.58-8.12-33.01-14.13-5.01-2.89-9.73-6.24-13.84-10.34-2.82-2.81-6.38-7.25-10.82-7.04-2.35.11-4.3 1.57-5.77 3.3-1.8 2.12-3.36 4.7-3.85 7.47-.92 5.17 2.23 9.35 6.17 12.3 4.76 3.57 10.58 5.25 16.02 7.45 5.89 2.38 11 6.03 16.17 9.65 10.79 7.57 22.85 12.76 35.26 17.07 6.28 2.18 12.64 4.14 18.99 6.1 6.32 1.95 12.46 4.33 18.73 6.44 3.11 1.05 6.27 1.98 9.5 2.59 3.34.63 6.73.78 10.11 1.11 6.98.67 14 1.5 20.92 2.65 6.62 1.09 13.08 2.97 19.44 5.1 6.13 2.05 12.23 4.21 18.29 6.45 5.51 2.03 11 4.26 16.78 5.42 2.7.54 5.49.87 8.24.66s5.03-1.18 7.38-2.49c2.51-1.39 4.95-2.5 7.87-2.62 2.74-.11 5.44.41 8.12.88 5.19.9 10.7 1.46 15.27-1.74 7.23-5.05 7.16-15.82 6.85-23.68-.18-4.59-.44-9.2-.78-13.78-.5-6.79-1.7-13.51-3.16-20.15-1.3-5.94-2.57-11.98-4.46-17.77-1.39-4.28-3.25-8.55-6.25-11.96-2.85-3.24-6.74-5.21-11.07-5.45-2.55-.14-4.97.56-7.5.71-2.69.16-5.38-.13-8-.73-10.34-2.34-19.96-8.62-27.45-15.98-1.15-1.13-2.92.64-1.77 1.77zM-35.48 1054.69c3.04-3.4 8.27-4.33 12.4-5.75 2.38-.82 4.55-1.97 6.85-2.96 2.99-1.28 6.13-2.19 9.25-3.09 12.63-3.65 24.53-9.57 36.49-14.96 6.39-2.88 12.8-5.79 19.34-8.33 6.16-2.39 12.45-4.42 18.69-6.56 5.93-2.03 12.05-4.01 17.63-6.9 4.99-2.59 9.35-6.16 13.75-9.63 4.81-3.79 9.71-7.13 15.38-9.5 2.62-1.09 5.29-2.1 7.84-3.36 2.72-1.35 5.03-3.1 7.44-4.91 4.49-3.38 9.7-5.8 13.63-9.9 3.77-3.94 6.85-8.36 11.03-11.93 4.56-3.88 9.71-6.97 14.52-10.51a83.44 83.44 0 0 0 12.97-11.83c7.39-8.29 13.27-17.74 19.99-26.55 7.75-10.17 17.03-19.16 25.31-28.91 4.17-4.9 8.23-9.89 12.28-14.89 3.94-4.87 7.77-9.86 10.84-15.34 3.02-5.39 6.5-10.53 9.4-15.99 2.78-5.24 4.75-10.79 7.68-15.97 2.8-4.95 5.75-10.09 6.59-15.81.45-3.07.13-6.17.46-9.25s1.67-5.72 3.37-8.27c2.19-3.28 3.86-6.46 5.41-10.07s3.07-7.4 5.68-10.29c.94-1.04 2.29-2.28 3.79-2.31 1.07-.02 1.11 1.1 1.57 2.24.53 1.3.98 2.63 1.37 3.98 1.51 5.22 2.53 11.85.34 17.05-1.01 2.4-3.06 4.24-4.59 6.31s-2.47 4.52-2.99 7.03-.89 5.16-1.85 7.65c-1.12 2.9-2.67 5.62-4.21 8.3-3 5.21-5.72 10.25-7.43 16.04-1.95 6.6-3.5 13.31-5.73 19.83-4.15 12.13-10.85 23.15-17.53 34.01-6.67 10.85-12.62 22.41-20.62 32.36-7.52 9.36-17.93 15.62-26.32 24.1-9.04 9.14-19.1 17.16-28.58 25.83-9.7 8.87-18.52 18.64-29.43 26.13-3.69 2.53-14.94 6.95-12.21 13.14.7 1.59 2.25 2.75 3.74 3.55 2.2 1.19 4.25.95 6.61.55 3.06-.52 5.56 1 8.29 2.16 2.39 1.01 4.85 1.48 7.42 1.69 5.81.49 11.66-.13 17.45-.49 6.29-.39 12.61-.25 18.9-.27 6.12-.02 12.39.49 18.45-.57 4.84-.85 9.29-2.87 13.66-5.06l35.64-17.2c6.11-2.81 12.22-5.44 18.53-7.75 5.66-2.08 10.91-4.57 15.78-8.17 9.7-7.15 17.9-16.16 26.15-24.88 2.78-2.93 7.34-8.48 11.87-5.78 5.86 3.48 5.74 10.57 2.72 15.83-5.84 10.17-17.8 14.17-25.87 22.17-4.07 4.03-7.87 8.35-12.27 12.04-4.94 4.13-10.28 6.53-16.57 7.79-3.08.62-6.2 1.11-9.22 2s-6.19 2.28-9.28 3.42c-6.1 2.24-12.27 4.29-18.44 6.34-12.88 4.29-25.67 8.87-38.77 12.46-12.54 3.43-25.37 5.67-38.35 6.52-13.07.85-26.28.4-39.22-1.66-6.05-.96-12.03-2.08-17.67-4.5-4.94-2.12-9.76-4.07-15.24-3.19-4.75.76-8.69 3.39-12.49 6.2-4.27 3.16-8.55 5.61-13.54 7.46-5.45 2.03-11.04 3.62-16.54 5.5l-19.58 6.57c-5.96 1.94-11.84 3.92-17.6 6.41-5.73 2.48-11.33 5.23-17.04 7.75s-11.54 4.8-17.6 6.33c-2.89.73-5.57 1.63-8.29 2.85-3.02 1.35-5.93 2.52-9.25 2.85-3.06.31-6.14.23-9.18.66l-9.52 1.48c-5.99.75-12.02 1.03-18.05 1.05-1.61 0-1.61 2.5 0 2.5 6.27-.01 12.53-.33 18.75-1.13 3.05-.4 6.06-.99 9.09-1.43 3.32-.48 6.69-.32 10.01-.76 3-.39 5.71-1.41 8.45-2.63 2.97-1.33 5.86-2.31 9.01-3.12 5.91-1.52 11.61-3.76 17.19-6.21l17.04-7.75c6.14-2.68 12.45-4.74 18.82-6.83l19.59-6.58c5.54-1.86 11.17-3.46 16.63-5.58 4.83-1.87 8.96-4.34 13.11-7.41s8.53-5.9 13.88-5.96c5.81-.06 10.84 3.41 16.21 5.12 5.85 1.87 12.23 2.7 18.3 3.48 26.02 3.34 52.42.59 77.56-6.67 13.16-3.8 26.08-8.42 39.07-12.76 6.25-2.09 12.47-4.23 18.62-6.59 3.05-1.17 6.04-2.17 9.25-2.84s6.15-1.1 9.17-1.94c11.6-3.23 18.83-13 27.19-20.9 8.23-7.78 19.79-11.55 25.28-22.12 2.33-4.47 3.01-9.8.1-14.19-2.49-3.76-6.53-6.54-11.05-4.62-4.42 1.88-7.64 6.19-10.88 9.56-4.33 4.51-8.61 9.06-13.16 13.34-4.63 4.35-9.56 8.63-15.1 11.78-5.48 3.12-11.59 4.79-17.39 7.17-12.59 5.15-24.83 11.33-37.03 17.32-5.25 2.57-10.41 5.5-15.83 7.68-5.23 2.11-10.51 2.66-16.11 2.62-7.06-.06-14.11.01-21.17.03-5.87 0-11.71.69-17.57.85-2.88.08-5.81.07-8.67-.38s-5.33-1.78-8.01-2.84c-2.5-.99-4.47-.97-7.06-.53-2.26.38-5.57-.43-6.59-2.81-1.26-2.93 4.38-5.87 6.27-7.02 3.9-2.39 7.57-4.88 11.16-7.73 10.4-8.25 19.35-18.08 29.32-26.83l14.74-12.95c4.84-4.4 8.96-8.88 13.74-12.99 4.58-3.94 9.44-7.55 13.9-11.63s8.3-8.86 11.75-13.88c3.6-5.26 6.77-10.79 10.03-16.26l9.97-16.37c6.71-11.16 12.46-22.58 16.05-35.14 1.85-6.46 3.09-13.36 5.91-19.48 2.53-5.49 6.12-10.43 8.56-15.97 1.11-2.53 1.83-5.08 2.3-7.8.48-2.72 1.12-5.39 2.73-7.69 1.47-2.1 3.41-3.88 4.64-6.16 1.14-2.14 1.53-4.68 1.7-7.08.39-5.56-.81-11.31-2.88-16.46-.75-1.86-1.17-4.02-3.47-4.08-1.49-.04-2.92.48-4.14 1.33-5.92 4.12-7.28 12.3-10.6 18.24-1.28 2.3-2.97 4.36-4.26 6.66s-2.07 4.9-2.3 7.6c-.3 3.48.08 6.96-.77 10.39-.73 2.94-1.94 5.71-3.34 8.39-2.67 5.11-5.55 9.95-7.73 15.31-2.43 5.96-6.04 11.32-9.34 16.82-3.38 5.64-6.62 11.17-10.69 16.37-4.01 5.13-8.18 10.16-12.36 15.16-4.34 5.18-8.78 10.27-13.32 15.28-4.17 4.61-8.52 9.05-12.39 13.92-7.11 8.94-13.07 18.74-20.51 27.42-3.96 4.62-8.33 8.87-13.21 12.52-4.69 3.5-9.69 6.55-14.25 10.22-4.49 3.62-7.85 8.02-11.67 12.28-3.91 4.35-9.2 6.82-13.83 10.27-2.51 1.88-4.92 3.69-7.75 5.06-2.67 1.29-5.46 2.32-8.19 3.49-5.41 2.32-10.11 5.58-14.72 9.2-4.59 3.6-9.11 7.33-14.36 9.95-6.03 3.01-12.62 5.06-18.99 7.22-6.38 2.16-12.77 4.28-19 6.84s-12.37 5.32-18.5 8.09l-18.89 8.4c-6.26 2.66-12.55 4.68-19.04 6.68-5.06 1.56-9.68 4.07-14.71 5.71-3.93 1.28-8.55 2.5-11.41 5.7-1.07 1.2.69 2.97 1.77 1.77h0z"/></g><path d="M403.4 1186.52c-2.54 3.85-4.86 5-8.35 4.29-2.43-.5-4.21-1.76-5.39-3.8-1.17-2.08-1.45-4.5-.88-7.28.6-2.94 1.91-5.16 3.94-6.71 2.03-1.54 4.3-2.06 6.85-1.54 1.76.36 3.12 1.13 4.07 2.26.99 1.14 1.35 2.36 1.09 3.65-.32 1.57-1.56 2.46-2.93 2.17-1.37-.28-2.17-1.38-1.9-2.67.12-.59.51-1.12 1.15-1.64.2-.2.31-.34.33-.42.13-.63-.82-1.39-1.95-1.62-2.86-.58-5.47 2.19-6.44 6.93-.94 4.58.44 7.85 3.57 8.49 2.04.42 3.6-.45 5.43-3.01l1.41.9zm11.14-11.35l-.99 4.86c1.96-3.19 4.52-4.75 6.99-4.24 2.08.42 3.15 1.95 2.77 3.83-.33 1.61-1.52 2.46-2.93 2.18-1.92-.39-2.49-2.8-.65-4.21-1.72-.15-3.27.8-4.66 2.8-1.49 2.1-2.56 4.74-3.2 7.84l-.08.39-.32 1.57c-.32 1.57.05 1.93 2.56 2.44l.74.15-.29 1.41-10.46-2.14.29-1.41.16.03c1.29.26 2.1.31 2.49.18.4-.16.7-.63.86-1.42l.32-1.57 1.92-9.36c.34-1.69.13-2.02-1.28-2.3l-1.61-.33.34-1.68 7.02.99zm24.32 19.05c-.41 2-.16 2.78.94 3.01.24.05.6.04 1.15-.05.26-.07.46-.07.62-.04.27.06.36.24.29.55-.12.59-.62 1.02-1.46 1.34s-1.71.38-2.61.2c-1.84-.38-2.66-1.36-2.88-3.49-2.19 1.72-4.67 2.27-7.45 1.7-3.45-.71-5.31-2.96-4.74-5.75.5-2.47 2.57-3.97 6.15-4.54 1.73-.3 4.28-.39 7.65-.27l.31-1.53c.34-1.65.21-2.81-.34-3.54-.57-.81-1.56-1.34-3.01-1.64-1.88-.38-3.63 0-3.8.81-.02.12.01.33.17.57.28.63.36 1.22.26 1.73-.23 1.14-1.31 1.81-2.52 1.57-1.37-.28-2.07-1.44-1.78-2.89.29-1.41 1.23-2.44 2.87-3.05 1.64-.64 3.58-.74 5.77-.29 2.47.5 4.29 1.41 5.4 2.74.88 1.08 1.07 2.75.61 4.98l-1.61 7.88zm-2.68-5.65c-2.83-.13-4.85-.01-6.1.26-1.85.48-2.96 1.51-3.29 3.12-.36 1.76.71 3.33 2.47 3.69 1.68.34 3.69-.27 4.96-1.51.46-.44.76-.91.92-1.32.21-.45.42-1.26.66-2.44l.37-1.8zm23.06 9.38c-2.54 3.85-4.86 5-8.35 4.29-2.43-.5-4.21-1.76-5.39-3.8-1.17-2.08-1.45-4.5-.88-7.28.6-2.94 1.91-5.16 3.94-6.7s4.3-2.06 6.85-1.54c1.76.36 3.12 1.13 4.07 2.26.99 1.14 1.35 2.36 1.09 3.65-.32 1.57-1.56 2.46-2.93 2.17-1.37-.28-2.17-1.38-1.9-2.67.12-.59.51-1.12 1.15-1.64.21-.2.32-.34.33-.42.13-.63-.82-1.39-1.95-1.62-2.86-.58-5.47 2.19-6.44 6.93-.94 4.58.44 7.85 3.57 8.49 2.04.42 3.6-.45 5.43-3.01l1.41.9zm9-2.66l6.33-4.01c.71-.47 1.12-.91 1.21-1.34.1-.51-.47-.87-1.69-1.12l-1.21-.25.29-1.41 10.3 2.11-.29 1.41c-2.73-.23-4.63.28-7.32 2.05l-2.12 1.36 4.01 8.74c.62 1.19 1.14 1.99 1.66 2.46s1.3.84 2.37 1.18l-.29 1.41-10.34-2.12.29-1.41.74.15c1.14.23 1.77.12 1.86-.31.03-.16 0-.41-.13-.76l-3.32-7.5-2.85 1.78-.46 2.23-.32 1.57c-.16.78-.11 1.32.2 1.63.31.27 1.11.55 2.4.82l.16.03-.29 1.41-9.91-2.03.29-1.41.16.03c2.51.51 3 .33 3.32-1.24l.32-1.57 4.09-19.98c.34-1.69.17-2.01-1.28-2.3l-1.88-.38.34-1.68 7.34 1.05-3.97 19.39z"/></svg>