<svg xmlns="http://www.w3.org/2000/svg" xmlns:xlink="http://www.w3.org/1999/xlink" viewBox="0 0 1080 1350" xmlns:v="https://vecta.io/nano"><defs><clipPath id="A"><path d="M-1280 0h1080v1350h-1080z" fill="none"/></clipPath><clipPath id="B"><path d="M0 0h1080v1350H0z" fill="none"/></clipPath><path id="C" d="M381.47 726.75l.07 4.96c1.23-3.54 3.4-5.61 5.92-5.64 2.12-.03 3.5 1.23 3.52 3.15.02 1.64-.96 2.73-2.4 2.75-1.96.03-3.03-2.2-1.54-3.98-1.72.22-3.02 1.48-3.95 3.74-1.01 2.37-1.49 5.18-1.44 8.34v.4l.03 1.6c.02 1.6.47 1.87 3.03 1.84h.76l.02 1.43-10.68.15-.02-1.44h.16c1.32-.02 2.12-.15 2.48-.36.36-.25.55-.77.54-1.57l-.02-1.6-.13-9.56c-.02-1.72-.31-2-1.75-1.98l-1.64.02-.02-1.72 7.07-.54z"/><path id="D" d="M620.6 723.41l.07 4.96c1.23-3.54 3.4-5.61 5.92-5.64 2.12-.03 3.5 1.23 3.52 3.15.02 1.64-.96 2.73-2.4 2.75-1.96.03-3.03-2.2-1.54-3.98-1.72.22-3.02 1.48-3.95 3.74-1.01 2.37-1.49 5.18-1.44 8.34v.4l.03 1.6c.02 1.6.47 1.87 3.03 1.84h.76l.02 1.43-10.68.15-.02-1.44h.16c1.32-.02 2.12-.15 2.47-.36.36-.25.55-.77.54-1.57l-.02-1.6-.13-9.56c-.02-1.72-.31-2-1.75-1.98l-1.64.02-.02-1.72 7.07-.54z"/><path id="E" d="M501.23 775.4c1.71 1.9 2.58 4.2 2.62 6.96s-.77 5.09-2.42 7.07c-1.65 1.94-3.68 2.93-6.08 2.96s-4.45-.9-6.16-2.79c-1.71-1.9-2.58-4.2-2.62-6.96-.04-2.8.77-5.17 2.42-7.11s3.72-2.93 6.16-2.96c2.36-.03 4.41.9 6.08 2.83zm-10.46 7.19c.07 5.28 1.67 8.14 4.55 8.1s4.4-2.94 4.32-8.26c-.07-5.28-1.63-8.18-4.47-8.14-3 .04-4.48 2.82-4.4 8.3z"/></defs><g clip-path="url(#A)"><path d="M-64.4 612.89c-41.06 25.63-82.81 54.73-126.52 75.47-9.02 4.28-16.95 10.02-26.6 11.44-4.61.68-8.12 2.29-12.72 3.24-5.46 1.13-11.59-.45-17.28.51-9.02 1.53-16.59 2.39-26.1 2.37-7.93-.02-15.74-.45-23.58.7-5.76.85-11.83 2.15-17.62 3.12-9.35 1.58-18.19 1.67-27.57 2.98-17.37 2.43-33.87 2.39-51.52 2.39l-41.99.01c-14.63-.12-28.94 2.19-43.49 2.88-9.01.43-16.72 3.44-25.89 3.31-9.74-.14-18.63.14-28.25 1.45-14.4 1.96-28.93-.36-43.2 1.37-23.04 2.8-46 8.03-68.85 13.18-11.72 2.64-22.99 5.46-34.4 9.11-6.6 2.12-9.94 5.17-15.4 8.58-4.1 2.56-11.4 2.95-14.38 6.65 3.06 9.67 9.55 9.76 18.12 6.43 9.3-3.62 16.9-7.91 26.73-10.43 9.14-2.34 16.59-5.6 26.12-5.82 8.52-.2 15.07-2.6 23.13-3.14 36.61-2.48 74.29.11 111 .11h97.12 78.09c5.86 0 13.64-1.44 19.09.45-9.08 14.6-30 23.75-43.49 33.16-9.96 6.94-19.33 14.79-29.54 21.37-10.9 7.02-23.53 12.98-33.1 21.92-13.27 12.39-25.61 21.59-33.87 38.01-7.45 14.82-14.39 29.37-22.99 43.64-12.96 21.49-27.3 41.91-40.03 63.48-3.23 5.47-6.57 10.8-10.16 15.81-6.07 8.49-13.17 13.35-20.37 20.93-2.3 2.43-6.96 6.65-4.09 10.38 1.2 1.55 13.19 1.2 15.06.61 3.1-.97 3.38-3.03 5.9-4.83 2.63-1.87 5.15-2.38 7.78-4.48 6.67-5.34 11.16-14.19 16.74-20.65 17.37-20.08 33.45-43.02 48.24-65.18 7.66-11.47 15.02-23.47 20.92-36.06 3.43-7.31 5.35-15.88 10.49-22.13 5.64-6.85 16.13-12.81 24.24-17.88 11.93-7.45 23.11-16.77 35.57-23.75 10.39-5.82 21.98-8.87 32.5-14.31s19.97-13.18 30.31-18.99 18.71-13.7 27.58-21.59c6.98-6.21 13.61-4.6 22.98-4.6 8.61 0 20.72-2.08 28.86.46.63 7.23-13.34 14.38-17.86 18.01-10.05 8.07-20.4 16.55-31.01 23.9-16.66 11.54-38.25 18.53-51.33 34.25-5.43 6.53-9.49 13.21-15.94 19.07-12.95 11.78-25.06 27.16-36.12 40.72-8 9.81-16.37 17.9-22.13 29.1-2.5 4.86-5.98 7.78-8.67 12.31-1.24 2.09-.6 4.16-2.45 6.07 5.27 2.91 11.32 3.89 17.31 3.05 8.32-1.16 9.86-7.82 14.61-14.74 5.49-8.02 11.81-18.83 19.46-25.05 6.63-5.4 14.12-9.75 20.77-15.1 7.21-5.8 12.32-13.33 19.3-19.2 6.02-5.06 10.16-10.96 16.25-15.96 5.18-4.25 8.34-8.54 14.32-11.77 7.82-4.23 15.72-8.06 23.59-12.2 18.37-9.65 34.45-19.51 50.15-33.17 11.49-10 18.21-22.69 27.28-34.98 4.04-5.48 8.98-10.11 13.22-15.37 2.62-3.25 3.6-7.57 6.08-10.63 7.04-8.73 20.38-15.32 29.94-21.46 14.49-9.31 32.63-16.25 47.9-23.81 21.26-10.52 42.53-20.37 64.81-28.6 28.84-10.65 59.65-21.29 86.33-36.77.85-8.66-13.48-7.91-18.45-10.83-3.72-2.19-6.28-5.69-10.03-8.12-6.1-3.97-13.53-5.81-19.39-10.12-9.19-6.76-14.02-32.02-27.77-22.75-17.43 11.75-35.92 21.3-53.73 32.42z" fill="#007857"/><path d="M-65.03 611.81c-38.01 23.76-75 49.39-115 69.79-4.62 2.36-9.33 4.53-13.96 6.88-5.02 2.54-9.86 5.51-15.09 7.64-4.9 1.99-10.1 2.53-15.14 4-5.7 1.66-10.69 2.09-16.6 1.91-5.07-.15-9.91.88-14.92 1.52a138.3 138.3 0 0 1-16.4 1.13c-10.9.09-21.38-.07-32.15 1.89-11.23 2.04-22.37 3.15-33.7 4.39-11.26 1.22-22.36 2.47-33.71 2.76-23.4.59-46.86-.49-70.25.27-11.52.37-22.95 1.93-34.45 2.64-10.71.66-21.04 3.5-31.8 3.45-11.06-.05-21.81 1.58-32.81 2.15-11.92.62-23.86-.66-35.75.7-25.75 2.95-51.27 8.93-76.46 14.91-5.99 1.42-11.96 2.94-17.88 4.64-5.34 1.53-10.86 2.91-15.75 5.6-4.39 2.42-8.16 5.91-12.95 7.54-3.83 1.3-8.02 2.13-10.88 5.21-.29.31-.47.79-.32 1.22 2.69 7.83 8.38 10.7 16.32 8.44 5.59-1.59 10.88-4.34 16.19-6.63 6.27-2.7 12.66-4.5 19.19-6.43 6.51-1.92 12.93-3.93 19.76-4.27 6.03-.3 11.79-1.44 17.73-2.42 13.93-2.3 28.66-1.84 42.75-1.82l85.92 1.18h87.86 49 24.5c6.89 0 14.36-1.61 21.06.41l-.75-1.84c-6.55 10.2-17.31 16.82-27.46 22.98-11.14 6.76-21.56 14.07-32.01 21.86-11.28 8.41-23.54 14.96-35.25 22.69-10.62 7.02-20.22 16.29-29.19 25.29-4.24 4.25-8.18 8.81-11.53 13.8-3.85 5.74-6.7 12.08-9.77 18.25-6.72 13.46-13.71 26.71-21.64 39.51-8.01 12.92-16.45 25.57-24.61 38.4s-14.99 27.19-24.94 38.66c-4.29 4.94-9.35 9.1-14.02 13.65-2.94 2.87-7.86 6.7-8.25 11.15-.64 7.42 11.73 5.85 16.2 5.12 1.38-.22 2.59-.62 3.73-1.46.85-.63 1.44-1.46 2.17-2.2 1.47-1.5 3.07-2.47 4.94-3.41 5.14-2.6 8.76-6.38 12.21-10.96 4.13-5.49 8.04-11.02 12.47-16.28 4.57-5.42 8.99-10.96 13.3-16.58 9.17-11.94 17.84-24.25 26.29-36.71 8.34-12.3 16.55-24.71 23.35-37.94 5.9-11.47 8.47-24.93 18.74-33.49 5.17-4.31 11.02-7.76 16.74-11.29 5.93-3.67 11.63-7.65 17.32-11.68s11.68-8.28 17.85-11.92c6.23-3.68 12.86-6.41 19.57-9.05 6.25-2.46 12.47-4.96 18.33-8.27 6.2-3.51 12.01-7.65 17.96-11.57 5.9-3.89 12.18-7.16 17.91-11.31 5.34-3.88 10.3-8.24 15.21-12.63 5.28-4.72 9.56-7.96 16.87-8.05 6.29-.08 12.49.13 18.78-.26 6.32-.39 12.86-.88 19.03.86l-.92-1.21c.15 6.56-9.06 11.32-13.73 14.45-6.48 4.35-12.35 9.63-18.48 14.44-7.71 6.05-15.55 12.02-24.03 16.98-7.12 4.17-14.51 7.84-21.63 12.01-6.73 3.94-13.29 8.34-18.79 13.9-6.44 6.52-11 14.62-17.54 21.06-6.83 6.73-13.59 13.37-19.86 20.64-6.24 7.23-12.17 14.72-18.24 22.09-6.14 7.46-12.91 14.45-18.22 22.56-2.92 4.45-5.21 9.05-8.51 13.25-1.33 1.7-2.86 3.4-3.84 5.33-1.02 2-1.07 4.25-2.45 6.07-.4.52-.1 1.43.45 1.71 8.32 4.33 20.88 6.01 27.37-2.23 3.34-4.23 5.87-9.28 8.85-13.78 3.63-5.48 7.2-11.05 11.58-15.97 9.04-10.16 22.11-15.63 31.61-25.37 4.53-4.64 8.66-9.6 13.55-13.88 5.04-4.42 9.23-9.66 14.18-14.16 4.73-4.31 9.49-9.4 14.98-12.71 6.25-3.77 13.01-6.81 19.5-10.14 12.06-6.18 23.94-12.74 35.17-20.35 10.66-7.22 21.35-15.19 29.57-25.19 8.37-10.18 14.59-21.95 23.38-31.8 4.2-4.72 8.55-9 11.32-14.74 2.93-6.07 7.49-10.22 12.96-14.07 10.11-7.13 21.17-13.74 32.16-19.4 11.99-6.17 24.49-11.3 36.59-17.26 13.23-6.52 26.57-12.84 40.14-18.63 26.24-11.19 53.54-19.64 79.68-31.09 6.43-2.81 12.78-5.79 19.02-9 3.09-1.59 6.14-3.24 9.16-4.95 1.87-1.06 2.64-1.36 2.41-3.58-.74-7.19-10.55-7.78-15.87-9.25-5.45-1.51-8.66-6.28-13.22-9.3-5.4-3.57-11.77-5.29-17.26-8.69-7.18-4.44-9.93-13.06-14.74-19.62-3.68-5.01-8.81-8.64-14.98-5.42s-11.64 7.5-17.49 11.02l-18.87 11.04-18.81 11.23c-1.36.85-.11 3.01 1.26 2.16 11.77-7.32 23.9-14.04 35.8-21.14 6.07-3.62 11.94-7.53 17.93-11.28 3.42-2.14 6.72-2.5 9.92.22 5.77 4.9 8.28 12.9 12.87 18.78 6.62 8.47 18.6 9.52 26.45 16.52 3.16 2.82 5.99 5.62 10.14 6.81 3.64 1.04 7.69 1.35 11.08 3.14 1.22.65 4.11 2.67 3.33 4.5-.32.75-3.02 1.73-3.63 2.07l-4.89 2.64c-5.79 3.04-11.69 5.87-17.65 8.54-25.23 11.31-51.65 19.52-77.17 30.1-24.64 10.21-48.56 22.2-72.69 33.53-11.13 5.22-21.47 11.48-31.98 17.81-9.2 5.54-18.97 11.36-23.8 21.33-2.97 6.13-7.86 10.67-12.27 15.76-3.87 4.47-7.19 9.35-10.51 14.24-7.31 10.77-14.71 20.71-24.81 29.04-20.92 17.26-45.02 28.38-68.64 41.27-5.11 2.79-8.96 6.78-13.26 10.62-4.67 4.17-8.94 8.54-13.31 13.02s-9.31 8.6-13.62 13.31-8.96 9.44-14.32 13.35c-5.27 3.85-10.82 7.33-15.94 11.38-4.31 3.41-7.84 7.55-11.09 11.96-3.51 4.77-6.74 9.78-10 14.72-2.82 4.27-4.92 10.14-9.74 12.58-6.02 3.04-14.49 1.11-20.13-1.83l.45 1.71c1.09-1.42 1.3-2.64 1.8-4.29.77-2.54 2.48-4.56 4.1-6.61 2.77-3.51 4.89-7.15 7.16-10.98 4.82-8.15 11.33-15.06 17.42-22.25 12.64-14.93 24.42-30.36 38.7-43.82 6.95-6.55 11.74-14.81 18.28-21.71 5.94-6.26 13.23-11 20.67-15.26 7.32-4.19 14.9-7.95 22.12-12.32 7.89-4.78 15.23-10.47 22.48-16.16 7.21-5.66 14.25-11.38 21.77-16.62 4.62-3.22 11.32-7.7 11.17-14.05-.01-.55-.38-1.05-.92-1.21-11.2-3.17-23.71-.34-35.2-.65-4.94-.13-9.89 0-14.29 2.51-5.28 3-9.6 8.08-14.2 12-10.65 9.07-23.01 15.84-34.65 23.54-5.73 3.79-11.6 7.3-17.9 10.08-6.25 2.76-12.71 5-18.97 7.75-12.92 5.67-24.03 14.42-35.57 22.39-10 6.9-21.57 12.3-30.25 20.94-3.9 3.88-6.39 8.59-8.44 13.64-2.6 6.42-5.1 12.75-8.32 18.9-6.67 12.76-14.62 24.76-22.69 36.67-8.31 12.26-16.83 24.38-25.84 36.14-8.26 10.77-17.13 20.97-25.12 31.95-1.95 2.68-4.01 5.35-6.45 7.61-2.65 2.45-5.79 3.52-8.73 5.46-2.17 1.43-3.62 4.26-6.16 5.07-1.51.48-3.38.39-4.94.43-1.92.05-3.85.06-5.77-.11-.75-.06-1.87.03-2.53-.37-2.49-1.5-.26-4.68.97-6.17 3.88-4.7 8.69-8.64 13.11-12.8 10.13-9.54 16.73-21.41 23.9-33.19 7.65-12.56 15.78-24.82 23.73-37.19 7.93-12.33 15.64-24.76 22.45-37.74s11.79-26.35 20.44-37.6c7.64-9.95 17.53-18.09 26.78-26.47 10.35-9.38 23.28-15.16 34.8-22.88 11.29-7.57 21.6-16.53 33.16-23.72 9.39-5.84 19.23-11.12 27.7-18.3 3.91-3.31 7.41-7.04 10.18-11.36.45-.7 0-1.61-.75-1.84-7.17-2.16-15.13-.5-22.49-.5h-27.56-56.72c-37.76 0-75.55.48-113.3-.32l-55.69-.85c-9.22.08-18.44.33-27.65.9-8.07.5-15.89 2.78-23.95 3.23-8.11.45-15.42 2.36-23.19 4.63s-15.32 4.8-22.82 8.1c-5.33 2.35-14.19 7.73-20.25 4.83-1.48-.71-2.55-1.87-3.39-3.25-1.19-1.96-1.78-2.82.41-4.1 3.04-1.78 6.7-2.24 9.9-3.65 2.82-1.25 5.28-3.2 7.85-4.88 3.58-2.33 7.28-3.97 11.36-5.24 8.71-2.72 17.55-5.02 26.44-7.1 18.28-4.29 36.66-8.42 55.16-11.62 9.52-1.65 19.14-3.27 28.81-3.5 9.2-.22 18.41.47 27.61-.14 8.82-.58 17.48-1.91 26.34-2.05 4.03-.06 8.1.18 12.12-.15s8.29-1.21 12.41-1.97c9.18-1.68 18.67-1.82 27.96-2.67 9.26-.85 18.46-1.44 27.76-1.39l55.36-.1c18.11-.24 35.99-2.37 53.99-4.17 8.09-.81 16-2.56 24.02-3.88 9.61-1.58 19.19-.93 28.87-1.1 7.95-.14 15.64-1.36 23.49-2.39 4.37-.57 8.7.1 13.08-.05 4.1-.15 7.87-1.45 11.78-2.54 3.81-1.07 7.74-1.45 11.49-2.73 3.41-1.16 6.65-2.75 9.84-4.41l23.52-11.92c31.84-16.35 61.81-36.02 91.91-55.31l21.81-13.83c1.36-.85.11-3.01-1.26-2.16z"/></g><g clip-path="url(#B)"><path d="M-20.02-54.26H1127.7v1458.53H-20.02z" fill="#0d8467"/><path d="M336.4 61c-8.79 5.8-17.52 9.05-26.81 13.67s-18.17 11.2-27.31 16.61-20.03 8.98-30.36 11.78l-126.04 32.78c-18.22 4.91-36.9 5.96-55.18 10.88-14.73 3.96-29.34 7.42-44.04 11.06-28.14 6.96-55.96 11.47-84.69 13.74 16.11-7.67 30.94-15.57 44.67-27.2 19.75-16.75 44.87-27.12 68.27-37.61 10.87-4.88 20.26-11.89 31.4-16.32 9.45-3.76 19.06-6.95 28.29-11.29 18.75-8.81 36.32-20.37 55.24-28.71 15.69-6.92 32.34-12.91 47.54-20.63 13.85-7.03 28.89-15.45 43.79-20.06 5.74-1.77 11.38-3.61 17.29-3.83 9.78-.37 19.1-2.88 28.77-3.18 10.83-.34 28-3.61 35.29 6.24"/><path d="M335.77 59.92c-10.57 6.91-22.64 10.93-33.5 17.31-10.88 6.4-20.88 14.11-32.7 18.79-12.24 4.85-25.22 7.8-37.93 11.14l-39.97 10.31-40.38 10.35c-13.3 3.45-26.52 7.47-40.04 9.98-13.12 2.44-26.43 3.97-39.37 7.3l-39.84 10.05c-26.38 6.48-52.94 11.55-80 14.21l-10.06.89.63 2.33c12.89-6.15 25.62-12.77 37.15-21.26 5.69-4.19 10.92-8.95 16.69-13.03s11.68-7.65 17.8-10.99c12.38-6.76 25.33-12.4 38.21-18.15 6.55-2.92 12.77-6.33 18.99-9.88 6.53-3.73 13.14-6.95 20.17-9.63 7.21-2.75 14.49-5.36 21.53-8.53s13.58-6.66 20.2-10.29c13.36-7.3 26.54-14.85 40.54-20.87 14.04-6.04 28.41-11.37 42.13-18.15 13.67-6.76 26.93-14.46 41.36-19.56 7.38-2.6 14.8-4.77 22.63-5.23s15.34-2.16 23.05-2.85c5.47-.48 11.03-.77 16.52-.98s10.93-.18 15.89 1.87c2.34.97 4.44 2.46 5.99 4.47.97 1.26 3.14.01 2.16-1.26-6.6-8.59-18.77-7.98-28.48-7.34-6.29.42-12.57.66-18.81 1.54-4.04.57-8.06 1.25-12.11 1.68-3.73.4-7.49.39-11.19 1.04-7.43 1.31-14.84 3.91-21.81 6.73s-14.14 6.3-21.04 9.82-13.53 7.09-20.45 10.32c-7.3 3.4-14.75 6.47-22.2 9.53-7.03 2.89-14.1 5.73-21.01 8.91s-13.94 6.9-20.76 10.64c-13.77 7.55-27.36 15.45-42 21.22-7.1 2.8-14.41 5.18-21.37 8.33s-12.87 6.89-19.25 10.42c-12.58 6.96-26.2 11.99-39.1 18.32-12.72 6.24-25.14 13.29-36.17 22.24-5.74 4.66-11.45 9.2-17.69 13.2s-12.51 7.44-19 10.74l-9.82 4.82c-1.1.53-.58 2.43.63 2.33 26.97-2.16 53.75-6.34 80.08-12.59l39.85-9.86c6.68-1.72 13.3-3.58 20.07-4.93 6.67-1.34 13.39-2.37 20.09-3.46s13.16-2.21 19.65-3.75c6.79-1.61 13.5-3.55 20.24-5.32l40.37-10.41 40.76-10.45c13.03-3.39 26.23-6.48 39.03-10.64 5.86-1.91 11.66-4.13 17.14-6.97s10.71-6.41 15.94-9.78c5.41-3.49 10.88-6.84 16.67-9.65s11.43-5.18 17-8.09c2.8-1.46 5.52-3.04 8.16-4.77 1.34-.88.09-3.04-1.26-2.16h0zm44.45 117.43c-3.79.28-5.88 6-6.81 9.03-1.5 4.92-2.44 9.89-3.58 14.88s-2.8 9.71-3.27 14.54c-.29 2.99-.07 6.08-.08 9.09-.01 3.3.9 6.13 1.06 9.32.14 2.82.23 5.03.86 7.78.88 3.86.83 7.47 1.09 11.35.21 3.14 1.1 6.08 1.11 9.28 0 2.19-.13 4.33.05 6.52.38 4.65 1.03 9.43.9 14.1-.04 1.52-.46 2.72-.73 4.19-.88 4.81-.8 9.85-1.63 14.71a124.82 124.82 0 0 1-3.7 15.62c-2.82 9.22-5.46 18.4-8.94 27.27-2.4 6.13-3.77 12.47-4.88 18.79-.74 4.2-3.59 12.13 3.44 7.73 5.04-3.15 7.11-9.55 9.15-14.87 2.63-6.88 3.72-14.01 6.18-20.97 1.03-2.9 3.78-16.62 7.61-16.48 3.08.12 4.24 9.43 4.68 11.69 1.31 6.68-.08 14.95-.08 21.72v8.15c-.03 2.39-1.07 5.32 1.41 6.27 2.82 1.07 4.02-1.38 5.12-3.2 2.29-3.78 3.8-7.68 4.27-12.29.43-4.26.91-8.33 1.75-12.55.28-1.42 1.65-6.27 3.1-7.11 3.12-1.81 2.14 1.46 2.68 2.83.91 2.31 1.23 3.98 1.54 6.38.49 3.73 2.04 7 2.8 10.57.54 2.55-.22 5.11.23 7.63s1.37 4.94 1.88 7.46c4.22 1.07 5.59.14 6.64-3.78 1.17-4.4.75-9.02.75-13.58v-17.38c.04-5.8-1.66-10.47-1.57-16.16.08-4.59-.6-8.53-1.83-12.92-1.33-4.74-3.13-7.99-5.59-12.08-2.66-4.43-4.53-10.89-5.75-15.91-1.06-4.34-2.32-8.35-3.97-12.49-2.09-5.22-3.45-10.64-5.67-15.85-1.2-2.81-2.54-5.84-3.29-8.78-.6-2.38-.23-5.15-.23-7.6v-15.11c.02-5.5-1.08-10.7-1.03-16.19.04-3.63.23-7.18-.5-10.75-.34-1.65-.47-2.9-.48-4.58-.03-2.29-.52-5.27-3.04-6.07-.58-.18-1.13-.25-1.64-.21z"/><path d="M380.22 176.1c-5.4.59-7.33 7.4-8.55 11.8-1.09 3.91-1.89 7.9-2.78 11.86s-2.07 7.7-2.88 11.61-.84 7.84-.78 11.85c.03 1.97.09 3.88.39 5.83s.61 3.72.71 5.62.2 3.65.47 5.46c.29 1.97.8 3.9 1.01 5.89.4 3.95.41 7.88 1.06 11.81s.27 7.99.62 12.03.88 8.26.86 12.41c-.01 1.98-.55 3.81-.86 5.75s-.49 3.85-.65 5.78c-.33 4.11-.78 8.13-1.61 12.17-1.63 7.93-4.15 15.66-6.57 23.39-1.21 3.87-2.47 7.73-3.86 11.54s-2.88 7.57-3.94 11.5-1.7 7.56-2.43 11.37c-.38 1.97-.93 3.91-1.13 5.92-.15 1.53-.03 3.51 1.62 4.18 2.1.86 4.75-1.06 6.28-2.29 4.86-3.91 6.99-10.71 8.94-16.39 1.31-3.81 2.25-7.74 3.27-11.64.78-2.96 1.8-5.83 2.63-8.77 1.15-4.07 2.02-8.41 4.05-12.16.37-.68.8-1.48 1.44-1.96.32-.23.46-.31.79-.07 1.44 1.06 1.87 3.86 2.24 5.47.44 1.9.75 3.84 1.08 5.76.62 3.62.45 7.36.24 11s-.48 7.32-.47 10.99v6.24c0 1.37-.25 2.73-.24 4.1.01 2.72 2.14 4.91 5 4.31 2.61-.55 4.03-3.71 5.15-5.84 1.66-3.14 2.8-6.51 3.26-10.03.53-3.96.85-7.93 1.56-11.87.43-2.37.99-4.9 2.22-7 .21-.35.39-.63.73-.85.11-.07.63-.2.67-.27 0 0-.27-.18-.34-.08s.1.88.11 1.01c.04.45.07.91.19 1.35.45 1.64 1.07 3.15 1.35 4.85.3 1.81.54 3.59 1.04 5.36s1.15 3.59 1.64 5.41c.52 1.92.52 3.69.43 5.65-.17 3.82 1.25 7.25 2.03 10.92.09.41.47.77.87.87 2.03.5 4.43.89 6.13-.63 1.8-1.61 2.27-4.53 2.59-6.78.52-3.7.27-7.44.26-11.16l-.02-11.42c0-3.81.12-7.52-.38-11.27-.46-3.46-1.16-6.88-1.17-10.38-.02-6.81-1.24-13.57-4.12-19.78-1.28-2.76-3-5.27-4.38-7.98-1.52-2.97-2.58-6.18-3.5-9.37s-1.62-6.4-2.56-9.56c-1.08-3.59-2.52-7.03-3.77-10.56s-2.22-6.81-3.48-10.16c-1.32-3.52-3.05-6.89-4.09-10.51-.94-3.25-.42-6.76-.43-10.1v-11.46c0-4.25-.43-8.41-.79-12.64s0-8.19-.26-12.29c-.12-1.97-.58-3.85-.81-5.8-.19-1.54-.08-3.09-.32-4.63-.48-3.07-2.44-5.47-5.76-5.39-1.61.04-1.61 2.54 0 2.5 3.12-.08 3.37 3.08 3.44 5.47.09 3.27.96 6.43 1.02 9.71.06 3.49-.1 6.94.19 10.43s.76 6.95.8 10.45v10.72c0 3.32-.23 6.68-.09 9.99s1.55 6.64 2.87 9.75 2.58 6.45 3.68 9.76c2.16 6.51 4.84 12.83 6.53 19.49 1.47 5.79 2.96 11.77 6.02 16.97 1.52 2.6 3.08 5.17 4.21 7.97 1.2 2.96 2.02 6.11 2.57 9.26.59 3.36.4 6.69.64 10.07s.95 6.48 1.29 9.73c.42 3.99.18 8.07.18 12.08l.06 12.25c.07 3.72.16 7.62-1.13 11.17-.26.71-.61 1.53-1.34 1.88-1 .47-2.4.05-3.39-.2l.87.87c-.39-1.85-.98-3.66-1.44-5.49s-.55-3.7-.45-5.67c.18-3.84-1.18-7.19-2.21-10.83-.5-1.77-.74-3.55-1.04-5.36-.28-1.66-.86-3.17-1.32-4.77-.43-1.5.07-3.8-2.03-4.16-2.48-.42-3.96 2.13-4.74 4.03-1.03 2.5-1.55 5.09-1.98 7.74-.61 3.8-.78 7.69-1.47 11.47-.64 3.57-2.05 6.84-3.91 9.94-.52.87-1.12 2.23-2.14 2.63-1.28.5-2.2-.47-2.23-1.65-.04-1.33.23-2.67.24-4.01v-6c-.03-7.24 1.27-14.58.34-21.8-.26-2.01-.64-4.04-1.05-6.03-.44-2.13-.95-4.4-2.06-6.29-.87-1.48-2.35-2.66-4.13-2.04-1.62.56-2.63 2.3-3.35 3.75-1.92 3.86-2.87 8.11-4.03 12.23-.81 2.86-1.8 5.66-2.57 8.54-1.01 3.82-1.92 7.67-3.18 11.41-1.05 3.11-2.2 6.26-3.63 9.22-1.32 2.72-3.02 5.39-5.6 7.06-.78.51-1.85 1.27-2.84 1.21.11 0 .04.05.03-.07 0-.08-.08-.48-.09-.7-.08-1.88.56-3.8.95-5.62.73-3.43 1.27-6.88 2.11-10.28.95-3.88 2.25-7.6 3.66-11.33 2.85-7.53 5.14-15.26 7.48-22.96 2.31-7.59 4.4-15.3 5.1-23.23.35-3.95.64-7.82 1.46-11.71s.22-7.89-.13-11.7c-.19-2-.44-4.01-.52-6.01s.07-3.89.01-5.83-.43-3.94-.74-5.89-.43-3.99-.53-6.01c-.09-1.91-.21-3.83-.46-5.73s-.78-3.82-1.01-5.76c-.21-1.81-.21-3.63-.38-5.44s-.54-3.6-.78-5.41c-.27-2.03-.21-4.07-.25-6.11s-.07-3.99.12-5.98c.37-3.92 1.57-7.73 2.56-11.52s1.73-7.7 2.64-11.55c.73-3.1 1.47-6.28 2.75-9.21.8-1.84 2.17-4.68 4.45-4.93 1.58-.17 1.6-2.68 0-2.5z"/><path d="M412.77-48.34c-5.67-1.65-10.76-3.69-16.73-4.27-16.3-1.59-35.89-.98-50.09 8.07-22.07 14.07-37.79 34.86-51.07 57.07-6.88 11.5-15.31 21.39-20.4 33.67-4.67 11.26-7.62 22.32-11.52 33.7-3.42 9.95-7 19.92-9.87 29.97-3.55 12.42-12.44 24.08-17.68 36.06-4.24 9.68-9.33 19.33-14.17 28.7-5.27 10.19-8.28 20.21-13.42 30.38l-16.55 33.03c-6.69 13.85-15.69 25.7-22.83 39.21-11 20.82-22.72 41.63-32 63.32-4.04 9.45-7.49 19.2-11.56 28.68-2.42 5.62-2.98 10.96-5.69 15.89 6.06 2.77 10.65-2 15.42-5.19 12.39-8.28 24.05-16.27 34.78-26.46 7.38-7 16.92-9.7 24.83-15.73 4.98-3.8 9.14-9.01 14.23-12.58 5.72-4.01 12.65-5.89 18.4-9.96a425.94 425.94 0 0 1 25.09-16.51c10.19-6.21 18.61-13.95 29.5-19.56 9.54-4.91 19.27-8.34 28.94-12.78 4.56-2.1 9.48-4.1 13.88-6.14 5.57-2.58 9.69-6.85 15.01-10.42 11.04-7.41 21.17-10.56 29.85-20.54 4.6-5.29 9.81-8.04 15.12-12.12 4.35-3.34 6.04-7.94 9.59-12.33 7.61-9.41 18.53-15.53 25.39-25.8 5.93-8.88 12.46-17.4 18.48-26.27 4.74-6.99 9.19-14.35 12.85-21.96s8.65-15.65 11.16-22.7 5.24-16.84 6.46-24.36c1.33-8.18 1.89-17.03 3.75-25.1 2.09-9.05 5.59-16.92 5.48-26.46-.09-7.54-.42-14.58 1.5-21.71 2.49-9.24 3.59-22.4.59-31.65-2.51-7.74-10.12-11.58-16.01-16.65-15.82-13.61-32.17-5.1-50.68-10.49z" fill="#ffe443"/><path d="M413.1-49.55c-4.5-1.33-8.93-2.97-13.56-3.82-3.83-.7-7.78-.91-11.66-1.07-8.12-.33-16.34.03-24.31 1.7-16.12 3.37-29.33 13.88-40.63 25.43s-20.95 25.68-29.56 39.86c-4.59 7.57-9.96 14.63-14.5 22.23s-7.81 16.19-10.66 24.76l-9.15 27.68-4.76 14.17c-1.42 4.45-2.54 9.02-4.27 13.36-3.37 8.44-8.41 16.09-12.63 24.11s-7.99 17.04-12.28 25.41-8.58 17.05-12.21 25.96-8.3 18.19-12.84 27.16c-4.45 8.78-8.52 17.8-13.27 26.43-4.46 8.12-9.61 15.82-14.38 23.75-4.92 8.2-9.24 16.77-13.75 25.21l-13.52 25.96c-4.35 8.74-8.3 17.24-11.91 26.09l-5.22 13.22c-1.82 4.63-3.97 9.18-5.58 13.89-1.44 4.21-2.31 8.59-4.4 12.55-.41.78-.01 1.52.75 1.84 4.4 1.83 8.43.26 12.15-2.3l13.55-9.32c4.64-3.21 9.21-6.51 13.65-9.98s8.78-7.54 13.16-11.35c8.03-7 18.66-10.01 26.64-17.16 4.25-3.81 8.03-8.2 12.95-11.18s9.95-4.63 14.64-7.5c4.99-3.06 9.68-6.69 14.57-9.9s10.05-6.27 15.02-9.5c9.52-6.19 18.17-13.58 28.38-18.67 10.82-5.4 22.22-9.8 33.32-14.62 5.15-2.24 10.21-4.34 14.73-7.72s8.65-6.64 13.4-9.45c8.91-5.27 17.93-9.72 24.98-17.52 3.73-4.13 8.24-7.11 12.73-10.34 1.98-1.43 3.88-2.87 5.45-4.76s2.81-3.96 4.15-5.99c5.8-8.82 14.72-14.65 21.99-22.11 3.81-3.91 6.69-8.41 9.8-12.86l10.81-15.14c3.58-5.07 6.93-10.02 10.06-15.25s5.59-10.31 8.28-15.54 5.36-9.83 7.68-14.93c2.1-4.62 3.63-9.47 5.01-14.34s2.67-10.08 3.49-15.22c.95-5.95 1.48-11.96 2.41-17.92 1.71-11.01 6.66-21.53 6.8-32.77.08-6.09-.39-12.19.61-18.23.82-4.97 2.29-9.75 2.85-14.78.99-8.89 1.19-20.05-4.65-27.44-2.76-3.5-6.45-6.06-9.96-8.74-3.95-3.02-7.51-6.22-12.16-8.18-8.65-3.65-18.05-2.92-27.22-3.13-5.08-.12-10.09-.63-15-2.01-1.55-.44-2.21 1.97-.66 2.41 9.29 2.63 18.75 1.82 28.27 2.27 4.55.22 9.1.88 13.33 2.61 4.83 1.98 8.56 5.45 12.67 8.56 3.55 2.69 7.37 5.39 9.81 9.2 2.57 4.01 3.21 9.12 3.44 13.78.25 5.17-.16 10.38-1.09 15.47s-2.38 9.97-2.69 15.19c-.33 5.65.31 11.35-.29 16.98s-2.4 11.01-3.92 16.42c-3.06 10.95-3.42 22.28-5.64 33.38-2.05 10.31-5.08 20.57-9.88 29.94-5.04 9.85-9.92 19.89-15.82 29.27-6.42 10.2-13.82 19.72-20.63 29.65-3 4.38-6.1 8.37-9.97 12.02s-7.7 6.72-11.41 10.24-6.59 7.02-9.26 11.13c-1.33 2.05-2.65 4.12-4.4 5.84-2.02 1.99-4.53 3.53-6.85 5.15-1.98 1.39-3.95 2.8-5.8 4.36-2.27 1.92-4.11 4.17-6.19 6.26-3.55 3.58-7.68 6.44-12.01 8.99s-8.71 4.82-12.94 7.46c-4.63 2.9-8.67 6.54-13.19 9.58s-9.69 4.86-14.62 7.02l-16.35 7.09c-5.48 2.29-10.7 4.49-15.87 7.14s-9.61 5.62-14.15 8.86-8.62 6.32-13.1 9.24l-15.02 9.5c-4.95 3.25-9.58 6.85-14.57 9.9-4.48 2.74-9.46 4.49-14 7.12s-8.31 6.48-12.14 10.13-8.32 6.76-13.13 9.37c-4.4 2.38-8.91 4.6-12.94 7.59-4.24 3.15-7.92 7.05-12 10.41-8.83 7.28-18.46 13.32-27.74 19.98-3.92 2.81-7.85 6.04-12.87 3.96l.75 1.84c2.01-3.81 2.98-7.95 4.28-12.03 1.42-4.45 3.46-8.72 5.18-13.06 3.6-9.09 7.09-18.2 11.16-27.1 7.99-17.49 17.26-34.33 26.29-51.29 4.34-8.16 9.03-16.04 13.92-23.88s9.4-16 13.52-24.39l13.11-26.06c4.4-8.67 7.7-17.74 11.67-26.59 3.91-8.72 8.7-17.04 12.86-25.64 2.06-4.26 3.88-8.63 5.97-12.87 1.93-3.89 4.08-7.66 6.22-11.44 4.31-7.64 8.06-15.21 10.56-23.64 2.8-9.41 6.13-18.64 9.3-27.93s5.67-18.12 8.94-27.03 7.26-16.2 12.27-23.73l14.21-22.04c4.39-6.98 9.07-13.8 14.2-20.26 5.1-6.41 10.63-12.48 16.7-17.98s12.76-10.94 20.13-14.6 15.82-5.35 24.07-5.96 16.85-.66 24.84.96c4.35.88 8.53 2.41 12.78 3.67 1.55.46 2.21-1.95.66-2.41z"/><path d="m480.4-43.17c-9.81,6.37-21.12,10.46-29.95,18.24-7.24,6.38-12.72,17.76-17.28,26.18-8.92,16.5-11.34,34.22-11.06,52.77.26,17.32,8.35,33.16,18.77,46.75,18.37,23.96,30.54,51.64,54.47,70.9,9.71,7.82,17.64,15.87,27.99,22.95,11.38,7.77,21.46,17.71,32.13,26.47,6.51,5.34,12.78,11.29,19.66,16.16,8.35,5.9,17.9,9.47,26.41,15.06,13.96,9.17,25.78,22.02,38.88,32.37,23.64,18.68,49.45,41.59,76.74,54.51,12.62,5.97,25.01,11.33,38.19,15.93,10.2,3.56,20.56,10.97,30.69,13.54-4.03-6.67-13.41-12.31-19.03-17.98-9.83-9.92-19-19.02-27.25-30.28-8.85-12.07-17.99-22.97-24.95-36.31-7.99-15.32-16.02-31.92-26.86-45.58-8.73-11-17.11-22.52-24.14-34.74-4.66-8.1-9.44-14.67-14.94-22.47-15.72-22.26-29.35-45.29-46.02-66.86-6.42-8.31-13-16.65-19.98-24.46-6-6.72-8.89-14.68-15.14-21.33-13-13.85-22.83-30.27-35.26-44.58-6.09-7.02-13.52-14.14-20.77-19.85-7.95-6.27-12.99-12.75-21.38-17.51-11.52-6.53-24.06-17.92-37.52-17.63"/><path d="M479.77-44.25c-8.47 5.44-17.94 9.23-26.11 15.17-7.33 5.34-12.21 12.55-16.57 20.39-4.73 8.52-9.3 17.1-12.02 26.5s-3.96 19.6-4.19 29.57c-.23 10.09.87 19.73 4.55 29.2 3.49 8.98 8.56 17.18 14.37 24.83 11.49 15.12 20.72 31.77 32.06 46.99 5.65 7.59 11.85 14.8 18.95 21.08 3.86 3.41 7.92 6.58 11.8 9.96l11.88 10.14c4.05 3.27 8.5 6.21 12.72 9.37s8.57 6.83 12.7 10.41l23.79 20.4c3.96 3.39 7.99 6.75 12.34 9.64 4.43 2.94 9.19 5.34 13.91 7.79 9.3 4.83 17.62 10.63 25.56 17.45 7.88 6.77 15.35 14.01 23.48 20.5l23.55 18.93c16.01 12.8 32.48 25.44 50.86 34.68 9.72 4.89 19.77 9.23 29.88 13.22 5.08 2 10.34 3.63 15.36 5.77 4.7 2.01 9.18 4.49 13.75 6.77 4.29 2.14 8.68 4.14 13.33 5.37 1.03.27 2-.89 1.41-1.84-3.92-6.28-10.37-10.47-15.9-15.19-6.36-5.43-12.12-11.81-17.78-17.95-6.02-6.52-11.33-13.5-16.65-20.58-5.29-7.02-10.67-13.99-15.4-21.41-4.68-7.33-8.43-15.19-12.46-22.89-3.96-7.55-8.07-15.04-12.74-22.17s-10.56-14.14-15.8-21.25c-5.41-7.34-10.52-14.91-15.1-22.79-4.4-7.56-9.37-14.71-14.42-21.85-5.35-7.56-10.51-15.24-15.62-22.96-10.11-15.28-20.11-30.67-31.31-45.19-5.54-7.17-11.14-14.3-17.06-21.17-2.99-3.47-5.91-6.84-8.37-10.73-2.19-3.45-4.21-7.01-6.67-10.28s-5.45-6.23-8.13-9.38c-2.96-3.48-5.78-7.08-8.54-10.72l-15.25-20.36c-5.49-7.01-11.4-13.64-17.91-19.73S508.78.11 502.33-5.77c-2.89-2.63-5.88-5.17-9.18-7.29s-6.56-3.95-9.76-6.05c-6.42-4.22-12.86-8.69-20.16-11.26-3.35-1.18-6.85-1.84-10.4-1.81-1.61.01-1.61 2.51 0 2.5 7.83-.07 14.94 3.62 21.44 7.64 3.31 2.04 6.52 4.24 9.78 6.35s6.73 3.92 9.89 6.19c3.37 2.42 6.39 5.28 9.42 8.09s6.45 5.62 9.76 8.36c6.83 5.63 13.18 11.86 18.96 18.56 11.25 13.07 20.39 27.8 31.8 40.74 2.82 3.2 5.67 6.24 8.03 9.82s4.34 7.18 6.78 10.6c2.41 3.37 5.29 6.37 7.96 9.53a404.92 404.92 0 0 1 8.76 10.71c11.46 14.45 21.94 29.52 32.1 44.89l15.14 22.71 14.96 21.57c4.88 7.45 9.13 15.28 14.14 22.65 4.96 7.29 10.33 14.27 15.76 21.21 10.53 13.49 18.02 29.03 25.89 44.14 4.03 7.73 8.89 14.94 14.06 21.95L743 326.64c5.38 6.7 11.3 12.92 17.31 19.03 2.76 2.81 5.46 5.72 8.43 8.31 2.93 2.57 6.05 4.91 9 7.46 2.69 2.32 5.32 4.8 7.21 7.84l1.41-1.84c-9.75-2.57-18.19-8.44-27.43-12.29-4.93-2.05-10.04-3.67-15.01-5.62-5.08-2-10.11-4.13-15.1-6.36-9.34-4.16-18.51-8.57-27.23-13.92-8.77-5.37-17.15-11.37-25.32-17.6-8.1-6.17-16-12.6-23.91-19.01-7.8-6.31-15.66-12.48-23.14-19.18-7.46-6.68-14.81-13.51-22.93-19.4-8.22-5.96-17.51-9.87-26.17-15.08-9.09-5.47-16.8-12.99-24.92-19.75-7.92-6.59-15.44-13.66-23.54-20.04-3.93-3.09-8.1-5.84-12.09-8.84-4.29-3.23-8.35-6.75-12.4-10.28-7.52-6.56-15.49-12.62-22.33-19.92-12.74-13.59-22.14-29.78-32.4-45.21-5.22-7.85-11.22-15.16-16.31-23.08s-9.43-17.02-11.48-26.52-1.6-20.4-.46-30.34c1.15-10.06 3.69-20.01 8.03-29.18 3.86-8.14 8.23-16.56 13.61-23.81 5.81-7.83 14.17-12.56 22.63-17.05 4.25-2.26 8.5-4.5 12.55-7.1 1.35-.87.1-3.03-1.26-2.16h0z"/><path d="M258.25 411.72c3.05-10.02 9.75-18.46 12.85-28.46.91-2.93 1.47-5.98 1.49-9.05a26.88 26.88 0 0 0-.4-4.82c-.18-1.05-.11-1.8-1.13-2.15-.79-.27-1.91-.1-2.7.09-2.83.67-3.82 2.35-5.31 4.56-.9 1.33-2.08 2.19-3.24 3.26-1.19 1.1-2.02 2.52-3.1 3.72l-4.08 4.56c-1.48 1.68-2.45 3.52-3.73 5.33-1.94 2.75-3.43 5.41-2.76 8.86.25 1.31.56 2.46.42 3.83-.11 1.04-.9 2.11-1.43 2.98-1.54 2.51-2.84 5.17-4.19 7.79-2.37 4.61-16.38 19.18-10.85 25.02 9.44-3.72 16.38-14.14 20.06-22.89-3.21 2.39-9.19 14.03-11.18 18.05-2.66 5.36-6.88 15.52-6.58 21.34 9.47 10.23 24.12-36.29 25.87-42.02z" fill="#ffe443"/><path d="M259.45 412.06c3.26-10.51 10.48-19.33 13.29-30.01.73-2.78 1.15-5.68 1.09-8.56-.03-1.49-.21-2.95-.44-4.42-.14-.94-.26-1.87-1.05-2.51-1.73-1.41-4.84-.56-6.57.47-1.9 1.13-2.79 3.02-4.13 4.68-.79.98-1.82 1.71-2.73 2.57-.98.94-1.73 2.06-2.58 3.11-1.8 2.22-3.92 4.17-5.63 6.46-1.57 2.1-3.17 4.41-4.44 6.71-1.19 2.17-1.79 4.51-1.41 6.99.19 1.27.72 2.65.44 3.94s-1.32 2.44-1.96 3.54c-1.31 2.27-2.37 4.67-3.67 6.95-1.41 2.46-3.29 4.67-4.96 6.95-2.35 3.24-4.68 6.6-6.16 10.34-1.16 2.92-1.63 6.37.65 8.88.27.3.83.48 1.22.32 10-4.04 16.73-13.86 20.8-23.46.41-.97-.58-2.58-1.71-1.71-3.13 2.41-5.16 6.48-7.06 9.85-1.99 3.51-3.89 7.09-5.58 10.76-2.18 4.71-4.18 9.65-5.22 14.74-.33 1.62-1.26 4.88.04 6.21.7.71 1.6 1.28 2.57 1.51 4.83 1.14 8.63-5.16 10.65-8.52 3.68-6.13 6.42-12.85 8.96-19.51 2.03-5.35 3.91-10.77 5.58-16.25.47-1.54-1.94-2.2-2.41-.66-1.93 6.34-4.13 12.61-6.56 18.77-1.69 4.29-3.51 8.54-5.64 12.63-1.67 3.22-3.51 6.59-6.09 9.18-.94.94-1.9 1.72-3.07 1.96-.3.06.1 0-.2.02h-.37c-.15 0 .1.04-.19-.03a2.77 2.77 0 0 1-.41-.12c-.32-.11-.83-.5-1.25-.94l.37.88c-.12-2.97.68-5.94 1.56-8.75 1-3.22 2.25-6.36 3.64-9.42 2.16-4.74 4.64-9.39 7.33-13.85 1.26-2.09 2.64-4.78 4.61-6.3l-1.71-1.71c-3.78 8.9-9.98 18.54-19.31 22.31l1.22.32c-1.61-1.77-.79-4.49-.01-6.45 1.2-2.99 3.07-5.74 4.92-8.36l5.13-7.06c.89-1.31 1.56-2.72 2.28-4.12 1.15-2.24 2.47-4.37 3.7-6.56 1.34-2.39.56-4.5.27-7.03-.26-2.34.76-4.44 2.01-6.35 1.39-2.12 2.72-4.38 4.39-6.29 1.71-1.96 3.56-3.82 5.14-5.89.73-.95 1.46-1.84 2.36-2.64s1.86-1.61 2.61-2.6c1.15-1.51 2-3.34 3.84-4.13.63-.27 2.58-.97 3.14-.39.19.2.2 1 .23 1.24.12.77.22 1.53.28 2.31.2 2.76-.04 5.53-.66 8.23-2.55 11.15-10.19 20.27-13.56 31.13-.48 1.54 1.93 2.2 2.41.66z"/><path d="m568.17,639.99c8.02-.09,14.78,3.1,22.64,3.08,10.45-.02,20.94-1.23,31.36-1.89,20.38-1.29,41.16-1.49,60.6,5.69,9.64,3.56,19.46,8.65,29.62,10.96,4.69,1.07,8.29-.01,12.88.37,6.38.54,12.17,3.56,18.1,5.7,45.42,16.35,91.3,41.4,114.03,85.79,10.7,20.9,13.38,41.78,9.71,64.51-1.77,10.98-2.79,19.85-6.9,30.73-6.12,16.22-12.63,28.28-23.22,42.4-8.99,11.99-20.83,21.52-33.03,30.07-11.24,7.88-24.16,18.5-37.05,23.32-27.85,10.42-55.2,20.52-84.25,27.84-19.03,4.8-41.03,2.39-61.07,2.39h-52.8c-21.29,0-47.74,3.92-68.22-1.5-16.76-4.44-33.28-6.81-50.14-10.07-7.3-1.41-14.96.51-22.13-1.36s-14.12-4.26-21.38-5.6c-7.55-1.4-14,.05-21.51-2.91-7.84-3.08-16.08-3.31-24.01-6.14-17.32-6.17-39.68-20.34-50.66-35.05-5.36-7.18-9.35-15.87-14.34-23.38-4.69-7.05-9.18-15.54-11.51-23.77-2.25-7.94-5.64-14.32-6.62-22.48-1.09-8.98-3.25-16.92-3.15-26.04.19-17.97.91-36.71,4.45-54.32s11.96-33.54,19.68-49.41c6-12.32,16.08-26.78,27.19-35.22,5.97-4.53,28.15-16.02,28.71-24.37.43-6.48-6.18-17.71-8.9-23.57-8.43-18.13-17.25-36.85-29.02-53.11-7.13-9.84-13.59-20.52-17.38-32.04-1.84-5.6-4.26-10.45-6.36-15.44-1.63-3.87-8.21-12.18-5.58-16.61,3.52.46,11.71,11.81,14.85,15.07,6.39,6.64,13.3,13.98,18.54,21.59,1.96,2.85,4.08,5.59,5.96,8.35,1.13,1.67,2.46,4.56,3.67,6.14,5.05,6.55,10.02,11.76,14.57,18.74,5.59,8.56,11.82,17.04,19.29,24.07,4.64,4.37,8.94,6.89,13.88,10.72,10.45,8.1,19.44,18.88,29.71,26.93,8.32,6.51,27.5,2.95,38.29,2.95,7.09,0,14.38.45,21.45.07,7.04-.38,13.34-2.93,20.39-1.78,11.89,1.95,22.35-1.23,34.59-1.43,15-.24,30.03.16,45.03,0Z" fill="#ffe443"/><path d="M568.17 641.24c6.3.05 12.24 2.07 18.45 2.81 6.72.8 13.74.02 20.47-.48 13.41-1 26.82-2.19 40.28-1.75 13.27.44 26.21 2.67 38.57 7.6 5.94 2.37 11.76 5.03 17.79 7.15 5.95 2.09 11.25 3.06 17.53 2.83 6.78-.24 12.64 2.13 18.82 4.57l15.57 5.9c10.15 4.04 20.13 8.55 29.79 13.67 19.09 10.11 37.07 22.72 51.57 38.84 15.83 17.6 27.61 39.58 29.94 63.38 1.24 12.66-.46 25.04-2.53 37.51-2.06 12.45-5.98 24.11-11.39 35.5-5 10.52-11.23 20.55-18.47 29.67-7.76 9.79-17.41 17.9-27.49 25.2-9.81 7.11-19.51 14.7-30.02 20.77-11.37 6.57-24.51 10.37-36.82 14.8-12.48 4.48-25.03 8.75-37.73 12.55-12.56 3.76-25.11 7.38-38.25 8.19-12.81.79-25.65-.07-38.47-.25l-41.72-.03c-12.48 0-24.88.18-37.34.79-11.94.58-24.03 1.15-35.93-.36-6.39-.81-12.53-2.65-18.79-4.08-6.63-1.51-13.31-2.79-20-4.01l-20.09-3.66c-5.97-1.11-11.85-.49-17.87-.81-6.72-.35-13.27-3.09-19.74-4.78-5.89-1.54-11.56-2.18-17.62-2.49-6.8-.34-12.65-2.98-19.2-4.43-6.1-1.34-12.18-2.33-18.03-4.59-21.09-8.15-41.41-22.29-53.03-41.96-3.23-5.46-6.3-10.99-9.74-16.32-3.5-5.43-6.62-11.18-8.9-17.23-2.16-5.74-3.99-11.7-5.91-17.53s-2.63-12.35-3.68-18.63c-2.25-13.44-1.86-26.8-1.07-40.37s2.12-26.66 5.88-39.4c3.65-12.38 9.37-24 15.03-35.55 5.28-10.77 11.11-21.05 19.11-30.08 3.37-3.81 7.07-7.5 11.27-10.39 2.86-1.97 5.85-3.74 8.77-5.61 6.17-3.95 13.61-8.29 17.68-14.6 4.22-6.54-1.01-15.45-3.99-21.48l-15.02-30.97c-5.78-11.26-12.38-21.78-19.61-32.15-3.49-5.02-6.75-10.21-9.56-15.64-3.04-5.88-4.98-12.07-7.45-18.18-1.8-4.44-3.58-9.06-5.94-13.24-1.84-3.26-6.22-8.89-4.25-12.79l-1.41.57c2.94.61 5.66 4.58 7.5 6.72 2.4 2.79 4.63 5.74 7.16 8.41 8.53 9 16.33 18.27 23.38 28.49 1.27 1.85 2.23 3.85 3.42 5.75 1.48 2.35 3.37 4.46 5.13 6.6 4.04 4.91 7.91 9.83 11.44 15.13 6.53 9.82 13.85 19.5 23.27 26.72 4.7 3.6 9.59 6.88 14.04 10.8s8.8 8.29 13.16 12.49c3.85 3.71 7.76 7.71 12.18 10.75 3.03 2.09 6.74 2.92 10.34 3.35 8.93 1.08 17.88-.39 26.81-.58 6.27-.13 12.53.3 18.8.19 6.24-.11 12.17-1.67 18.35-2.12 3.47-.25 6.8.46 10.24.71 3.45.24 6.9.12 10.34-.17 6.67-.55 13.28-1.62 19.99-1.76 15.01-.32 30.02.15 45.03 0 1.61-.02 1.61-2.52 0-2.5-13.09.13-26.17-.15-39.26-.06a178.93 178.93 0 0 0-19.09 1.13c-5.82.66-11.67 1.3-17.54.82-2.91-.24-5.71-.84-8.64-.72-2.96.11-5.88.67-8.8 1.17-6.54 1.13-13.06 1.08-19.68.93-9.7-.21-19.27.78-28.95.83-4.52.03-9.3-.13-13.57-1.76-4.84-1.84-8.86-6.35-12.55-9.84-8.4-7.93-16.39-16.03-25.8-22.78-10.28-7.38-18.25-16.67-25.33-27.1-3.3-4.85-6.59-9.59-10.31-14.13l-5.43-6.64c-1.77-2.25-2.98-4.65-4.47-7.04-6.84-10.95-15.47-20.76-24.37-30.06-2.92-3.05-5.45-6.44-8.24-9.6-2.01-2.29-4.69-5.87-7.88-6.53-.52-.11-1.15.06-1.41.57-1.75 3.47-.09 7.27 1.54 10.46 2.22 4.36 4.51 8.51 6.49 13.01 2.55 5.78 4.36 11.83 6.9 17.61 2.67 6.07 5.99 11.85 9.63 17.39s7.31 10.31 10.7 15.65 6.59 10.96 9.58 16.61c5.66 10.71 10.48 21.81 15.93 32.62 2.29 4.54 4.77 9.21 5.9 14.2.93 4.11-.26 6.69-3.11 9.65-5.84 6.04-13.47 10.25-20.5 14.73-18.77 11.98-28.96 32.38-38.26 51.83-5.48 11.47-10.57 23.28-13.16 35.78s-3.76 26.36-4.25 39.63c-.25 6.81-.67 13.76-.18 20.57.46 6.44 1.85 12.75 2.74 19.13.87 6.22 2.54 11.9 4.64 17.8 2.16 6.07 3.8 12.23 6.57 18.08 2.74 5.78 6.28 10.99 9.59 16.44 3.31 5.44 6.21 11.11 9.72 16.43 6.08 9.22 14.42 16.6 23.39 22.94 9.13 6.45 19.11 11.99 29.63 15.82 6.03 2.2 12.37 2.96 18.57 4.49 3.19.79 6.19 2.14 9.36 2.94 2.91.74 5.92.97 8.91 1.11 6.98.32 13.47 1.51 20.2 3.4 6.03 1.7 11.92 3.78 18.24 3.91 3.19.06 6.38-.15 9.56-.05 3.76.12 7.41.97 11.1 1.65l20.61 3.75c12.43 2.35 24.68 6.34 37.3 7.51 12.33 1.14 24.76.37 37.1-.24 13.27-.65 26.53-.56 39.81-.56l42.09.19c12.78.35 25.65.97 38.38-.57 13.12-1.59 26.01-5.83 38.59-9.77 13.18-4.13 26.21-8.72 39.18-13.47 12.06-4.42 23.93-8.48 34.75-15.55 10.19-6.65 20.19-13.94 29.83-21.37 9.86-7.61 18.7-16.14 26.05-26.23 6.86-9.43 12.74-19.47 17.41-30.16 5.03-11.5 8.18-23.03 10.12-35.41 1.97-12.56 3.24-24.92 1.56-37.6-1.62-12.22-5.64-23.96-11.41-34.84-20.77-39.14-60.1-63.36-100.06-79.45-5.24-2.11-10.57-3.99-15.84-6.02-5.69-2.19-11.31-4.81-17.5-5.07-2.91-.12-5.82.33-8.74.13-3.59-.24-7.2-1.51-10.58-2.68-6.39-2.21-12.53-5.05-18.81-7.53-25.34-10.02-52.46-7.73-79.02-5.74-6.94.52-14.24 1.37-21.16.38-5.97-.85-11.68-2.67-17.76-2.72-1.61-.01-1.61 2.49 0 2.5zm-200.63 79.23c2.64 2.84 4.01 6.38 4.07 10.62.06 4.28-1.21 7.9-3.81 10.81-2.56 2.88-5.82 4.36-9.74 4.42-3.88.05-7.18-1.34-9.86-4.14-2.68-2.84-4.05-6.38-4.11-10.66-.06-4.52 1.68-8.9 4.71-11.79 2.41-2.27 5.39-3.44 8.99-3.49 3.84-.05 7.1 1.34 9.74 4.22zm-16.3 1.19c-.74 1.21-1.24 2.54-1.51 3.94-.26 1.4-.39 3.33-.36 5.72.03 2.48.22 4.44.52 5.83a11.99 11.99 0 0 0 1.62 3.94c1.51 2.26 3.69 3.39 6.53 3.35s4.98-1.23 6.43-3.53c.74-1.21 1.24-2.54 1.51-3.94.26-1.44.39-3.37.36-5.8-.03-2.44-.22-4.36-.52-5.79-.3-1.44-.84-2.75-1.61-3.9-1.51-2.26-3.65-3.39-6.41-3.35-2.92.04-5.1 1.23-6.55 3.53z"/><use xlink:href="#C"/><path d="M409.29 740.16c.03 2.04.44 2.75 1.56 2.74.24 0 .6-.09 1.12-.29.24-.12.44-.17.6-.17.28 0 .4.15.41.47 0 .6-.38 1.12-1.14 1.62-.75.49-1.59.74-2.51.75-1.88.03-2.89-.76-3.56-2.79-1.77 2.14-4.07 3.22-6.91 3.26-3.52.05-5.82-1.76-5.86-4.6-.04-2.52 1.66-4.42 5.04-5.75 1.63-.66 4.1-1.3 7.41-1.9l-.02-1.56c-.02-1.68-.4-2.79-1.09-3.38-.73-.67-1.81-.97-3.29-.95-1.92.03-3.55.77-3.54 1.61 0 .12.08.32.29.52.41.55.62 1.11.62 1.63.02 1.16-.89 2.05-2.13 2.07-1.4.02-2.33-.97-2.35-2.45-.02-1.44.68-2.65 2.15-3.59 1.47-.98 3.34-1.49 5.58-1.52 2.52-.04 4.49.46 5.86 1.52 1.09.87 1.63 2.46 1.67 4.74l.11 8.04zm-3.83-4.95c-2.79.48-4.75 1.03-5.9 1.56-1.71.86-2.57 2.12-2.55 3.75.03 1.8 1.4 3.1 3.2 3.08 1.72-.02 3.54-1.05 4.52-2.54.35-.53.55-1.05.62-1.49.11-.48.14-1.32.12-2.52l-.03-1.84zm36.14 4.06c-1.66 4.3-3.68 5.93-7.24 5.98-2.48.04-4.49-.82-6.08-2.55-1.58-1.78-2.38-4.09-2.42-6.92-.04-3 .76-5.45 2.42-7.39s3.76-2.93 6.36-2.97c1.8-.03 3.29.43 4.46 1.34 1.21.9 1.83 2.01 1.85 3.33.02 1.6-1 2.73-2.4 2.75s-2.41-.89-2.43-2.21c0-.6.26-1.2.77-1.85.16-.24.23-.4.23-.48 0-.64-1.1-1.18-2.26-1.17-2.92.04-4.87 3.31-4.81 8.15.07 4.68 2.1 7.57 5.3 7.52 2.08-.03 3.42-1.21 4.66-4.1l1.57.58zm7.95-24.31l.2 14.12c1.68-2.62 3.78-3.93 6.26-3.97 2.4-.03 4.42 1.1 5.44 3 .37.67.58 1.31.71 1.91s.18 1.6.2 3.04l.09 6.28.02 1.6c.02 1.6.47 1.87 3.03 1.84h.16l.02 1.44-10.12.14-.02-1.44h.16c1.32-.02 2.12-.15 2.47-.36.36-.25.55-.77.54-1.57l-.02-1.6-.09-6.44c-.03-1.84-.32-3.19-.94-4.03-.61-.79-1.86-1.37-2.86-1.36-1.72.02-3.5 1.29-4.32 3.1-.47 1.01-.68 2.61-.65 4.73l.06 4.12.02 1.6c.01.8.18 1.32.54 1.55.36.2 1.2.3 2.52.29h.16l.02 1.44-10.12.14-.02-1.44h.16c2.56-.04 3-.32 2.97-1.92l-.02-1.6-.28-20.39c-.02-1.72-.27-2-1.75-1.98l-1.92.03-.02-1.72 7.39-.54zm21.56 20.18c-.01 2.04.37 3.63 1.07 4.79 1.06 1.75 2.6 2.6 4.6 2.58 2.68-.04 4.34-1.26 5.94-4.36l1.41.74c-1.59 3.82-4.28 5.74-8.08 5.79-2.68.04-4.89-.81-6.59-2.51-1.66-1.7-2.54-3.96-2.57-6.76-.04-3 .76-5.49 2.46-7.47 1.69-2.02 3.8-3.05 6.36-3.09 2.44-.03 4.41.9 6 2.79 1.59 1.86 2.38 4.33 2.38 7.33l-12.96.18zm7.01-1.82c1.28-.02 1.63-.34 1.62-1.5-.04-3.2-1.67-5.3-4.11-5.26-1.88.03-3.18 1.24-3.99 3.61-.35 1.05-.53 2.13-.51 3.25l7-.1zm26.09-8.28l5.88-.08.02 1.72-5.88.08.15 10.92c.02 1.44.15 2.44.4 3 .33.75 1.02 1.14 2.02 1.13 1.96-.03 2.97-1.84 3.04-5.48l1.68-.02c.04.28.05.56.05.92.03 2.4-.62 4.29-2 5.63-.95.93-2.22 1.39-3.82 1.41-2.36.03-3.89-.83-4.6-2.54-.33-.75-.51-2.31-.55-4.71l-.14-10.2-3.28.04-.02-1.56c3.2-.28 4.96-2.99 5.29-8.15l1.64-.02.11 7.92zm16.04-.23l.19 13.72.02 1.6c.01.8.18 1.32.54 1.55.36.2 1.2.3 2.52.29h.28l.02 1.44-10.36.14-.02-1.44h.28c2.56-.04 2.99-.33 2.97-1.92l-.02-1.6-.13-9.56c-.02-1.72-.27-2-1.75-1.98l-2.04.03-.02-1.72 7.51-.54zm-4.31-7.58c-.03-2.04 2.48-3.12 3.94-1.7s.46 3.95-1.62 3.98c-1.24.02-2.29-1.05-2.31-2.29zm35.38 6.71l.09 6.72-1.4.02c-.58-1.59-1.24-2.74-2.01-3.49-1.1-1.06-2.42-1.57-3.9-1.55-2.2.03-3.7 1.21-3.68 2.81.01 1 .5 1.67 1.43 2.1.48.27 1.45.54 2.93.84l2 .41 2.65.68c.56.19 1.09.5 1.57.94 1.13.9 1.71 2.26 1.74 4.02.05 3.72-2.47 6.19-6.43 6.25-2.04.03-3.85-.59-5.51-1.88l-1.38 1.66-1.4.02-.11-7.56 1.6-.02c1.02 3.99 3.45 6.11 6.8 6.06 2.36-.03 3.98-1.37 3.95-3.25-.02-1.6-1.11-2.38-4.32-3.1l-2.13-.45c-2.04-.45-3.45-1.03-4.26-1.74-.93-.83-1.43-2.06-1.45-3.66-.05-3.48 2.24-5.83 5.76-5.88 1.88-.03 3.53.47 4.9 1.53l1.14-1.46 1.4-.02zm8.54 9.96c-.01 2.04.37 3.63 1.07 4.79 1.06 1.75 2.6 2.6 4.6 2.58 2.68-.04 4.34-1.26 5.94-4.36l1.41.74c-1.59 3.82-4.28 5.74-8.08 5.79-2.68.04-4.89-.81-6.59-2.51-1.66-1.7-2.54-3.96-2.57-6.76-.04-3 .76-5.49 2.46-7.47 1.69-2.02 3.8-3.05 6.36-3.09 2.44-.03 4.41.9 6 2.8 1.59 1.86 2.38 4.33 2.38 7.33l-12.96.18zm7.01-1.82c1.28-.02 1.63-.34 1.62-1.5-.04-3.2-1.67-5.3-4.11-5.26-1.88.03-3.18 1.24-3.99 3.62-.34 1.04-.53 2.13-.51 3.25l7-.1zm14.78-8.12l.19 13.72.02 1.6c.01.8.18 1.32.54 1.55.36.2 1.2.3 2.52.29h.28l.02 1.44-10.36.14-.02-1.44h.28c2.56-.04 2.99-.33 2.97-1.92l-.02-1.6-.13-9.56c-.02-1.72-.27-2-1.75-1.98l-2.04.03-.02-1.72 7.51-.54zm-4.3-7.58c-.03-2.04 2.48-3.12 3.94-1.7s.46 3.95-1.62 3.98c-1.24.02-2.29-1.05-2.31-2.29zm27.53 7.25l5.88-.08.02 1.72-5.88.08.15 10.92c.02 1.44.15 2.44.4 2.99.33.75 1.02 1.14 2.01 1.13 1.96-.03 2.97-1.84 3.04-5.48l1.68-.02c.04.28.05.56.05.92.03 2.4-.62 4.29-2 5.63-.95.93-2.22 1.39-3.82 1.41-2.36.03-3.89-.83-4.59-2.54-.33-.75-.51-2.31-.55-4.71l-.14-10.2-3.28.05-.02-1.56c3.2-.29 4.96-2.99 5.29-8.15l1.64-.02.11 7.92z"/><use xlink:href="#D"/><path d="M648.43 736.82c.03 2.04.44 2.75 1.56 2.74.24 0 .6-.09 1.12-.29.24-.12.44-.17.6-.17.28 0 .4.15.41.47 0 .6-.38 1.12-1.14 1.62-.75.49-1.59.74-2.51.75-1.88.03-2.89-.76-3.56-2.79-1.77 2.14-4.07 3.22-6.91 3.25-3.52.05-5.82-1.76-5.86-4.6-.04-2.52 1.66-4.42 5.04-5.75 1.63-.66 4.1-1.3 7.41-1.9l-.02-1.56c-.02-1.68-.4-2.79-1.09-3.39-.73-.67-1.81-.97-3.29-.95-1.92.03-3.55.77-3.54 1.61 0 .12.08.32.29.52.41.55.62 1.11.62 1.63.02 1.16-.89 2.05-2.13 2.07-1.4.02-2.33-.97-2.35-2.45-.02-1.44.68-2.65 2.15-3.59 1.47-.98 3.34-1.49 5.58-1.52 2.52-.04 4.49.46 5.86 1.52 1.09.86 1.63 2.46 1.67 4.74l.11 8.04zm-3.83-4.95c-2.79.48-4.75 1.03-5.9 1.56-1.71.86-2.57 2.12-2.55 3.75.03 1.8 1.4 3.1 3.2 3.08 1.72-.02 3.54-1.05 4.52-2.54.35-.53.54-1.05.62-1.49.11-.48.14-1.32.12-2.52l-.03-1.84zm23.43-9.56l.09 6.72-1.4.02c-.58-1.59-1.24-2.74-2.01-3.49-1.09-1.07-2.42-1.57-3.9-1.55-2.2.03-3.7 1.21-3.68 2.81.01 1 .5 1.67 1.43 2.1.48.27 1.45.54 2.93.84l2 .41 2.65.68c.56.19 1.09.51 1.57.94 1.13.9 1.71 2.26 1.74 4.02.05 3.72-2.47 6.19-6.43 6.25-2.04.03-3.85-.59-5.51-1.88l-1.38 1.66-1.4.02-.11-7.56 1.6-.02c1.02 3.99 3.45 6.11 6.8 6.06 2.36-.03 3.98-1.38 3.95-3.25-.02-1.6-1.11-2.38-4.32-3.1l-2.12-.45c-2.05-.45-3.46-1.03-4.26-1.74-.93-.83-1.43-2.06-1.45-3.66-.05-3.48 2.24-5.83 5.76-5.88 1.88-.03 3.53.47 4.9 1.53l1.14-1.46 1.4-.02zm10.97.29l4.4-.06.02 1.72-4.4.06.17 12 .02 1.6c.01.8.18 1.32.54 1.55.36.19 1.2.3 2.52.29h.72l.02 1.43-10.68.15-.02-1.44h.16c2.56-.04 3-.32 2.97-1.92l-.02-1.6-.17-12-3.52.05-.02-1.72 3.52-.05-.02-1.24c-.04-3.24.37-5 1.51-6.66 1.37-1.98 3.44-3.01 6.16-3.05 3.24-.04 5.26 1.33 5.29 3.69.02 1.44-.89 2.45-2.21 2.47-1.24.02-2.21-.93-2.23-2.09a2.62 2.62 0 0 1 .34-1.29c.16-.28.23-.44.23-.52 0-.44-.45-.67-1.37-.66-1.6.02-2.98 1.12-3.6 2.89-.27.76-.41 2.13-.38 4.12l.03 2.28zm9.97 9.5c-.01 2.04.37 3.63 1.07 4.79 1.06 1.75 2.6 2.6 4.6 2.58 2.68-.04 4.34-1.26 5.94-4.36l1.41.74c-1.59 3.82-4.28 5.74-8.08 5.79-2.68.04-4.89-.81-6.59-2.51-1.66-1.7-2.54-3.96-2.57-6.76-.04-3 .76-5.49 2.46-7.47 1.69-2.02 3.8-3.05 6.36-3.09 2.44-.03 4.41.9 6 2.8 1.58 1.86 2.38 4.33 2.38 7.33l-12.96.18zm7.01-1.82c1.28-.02 1.63-.34 1.62-1.5-.04-3.2-1.67-5.3-4.11-5.26-1.88.03-3.18 1.24-3.99 3.62-.35 1.04-.53 2.13-.51 3.25l7-.1zm14.53-8.12l.07 4.96c1.23-3.54 3.4-5.61 5.92-5.64 2.12-.03 3.5 1.23 3.52 3.15.02 1.64-.96 2.73-2.4 2.75-1.96.03-3.03-2.2-1.54-3.98-1.72.22-3.02 1.48-3.95 3.74-1.01 2.37-1.49 5.18-1.44 8.34v.4l.03 1.6c.02 1.6.47 1.87 3.03 1.84h.76l.02 1.43-10.68.15-.02-1.44h.16c1.32-.02 2.12-.15 2.47-.36.36-.25.55-.77.54-1.57l-.02-1.6-.13-9.56c-.02-1.72-.31-2-1.75-1.98l-1.64.02-.02-1.72 7.07-.54zm18.88-.27l.19 13.72.02 1.6c.01.8.18 1.32.54 1.55.36.2 1.21.3 2.52.29h.28l.02 1.44-10.36.14-.02-1.44h.28c2.56-.04 3-.33 2.97-1.92l-.02-1.6-.13-9.56c-.02-1.72-.27-2-1.75-1.98l-2.04.03-.02-1.72 7.51-.54zm-4.3-7.58c-.03-2.04 2.48-3.12 3.94-1.7s.46 3.95-1.62 3.98c-1.24.02-2.29-1.05-2.31-2.29zm16.42 7.41l5.88-.08.02 1.72-5.88.08.15 10.92c.02 1.44.15 2.44.4 3 .33.75 1.02 1.14 2.02 1.13 1.96-.03 2.97-1.84 3.04-5.48l1.68-.02c.04.28.05.56.05.92.03 2.4-.62 4.29-2 5.63-.95.93-2.22 1.39-3.82 1.41-2.36.03-3.89-.83-4.6-2.54-.33-.75-.51-2.31-.54-4.71l-.14-10.2-3.28.05-.02-1.56c3.2-.29 4.96-2.99 5.29-8.15l1.64-.02.11 7.92zm26.15 13.44c.03 2.04.44 2.75 1.56 2.74.24 0 .6-.09 1.12-.29.24-.12.44-.17.6-.17.28 0 .4.15.41.47 0 .6-.38 1.13-1.14 1.62-.75.49-1.59.74-2.51.75-1.88.03-2.89-.76-3.56-2.79-1.77 2.14-4.08 3.22-6.91 3.26-3.52.05-5.82-1.76-5.86-4.6-.04-2.52 1.66-4.42 5.04-5.75 1.63-.66 4.1-1.3 7.41-1.9l-.02-1.56c-.02-1.68-.4-2.79-1.09-3.38-.73-.67-1.81-.97-3.29-.95-1.92.03-3.55.77-3.54 1.61 0 .12.08.32.29.52.41.55.62 1.11.62 1.63.02 1.16-.89 2.05-2.13 2.07-1.4.02-2.33-.97-2.35-2.45-.02-1.44.68-2.65 2.15-3.59 1.47-.98 3.34-1.49 5.58-1.52 2.52-.04 4.49.46 5.86 1.52 1.09.87 1.63 2.46 1.67 4.74l.11 8.04zm-3.83-4.95c-2.79.48-4.74 1.03-5.9 1.56-1.71.86-2.57 2.12-2.55 3.75.03 1.8 1.4 3.1 3.2 3.08 1.72-.02 3.54-1.05 4.52-2.54.35-.53.54-1.05.62-1.49.11-.48.14-1.32.12-2.52l-.03-1.84zm-402.66 58.63c.03 2.04.44 2.75 1.56 2.74.24 0 .6-.09 1.12-.29.24-.12.44-.17.6-.17.28 0 .4.15.41.47 0 .6-.38 1.12-1.14 1.62-.75.49-1.59.74-2.51.75-1.88.03-2.89-.76-3.56-2.79-1.77 2.14-4.07 3.22-6.91 3.26-3.52.05-5.82-1.76-5.86-4.6-.04-2.52 1.66-4.42 5.04-5.75 1.63-.66 4.1-1.3 7.41-1.9l-.02-1.56c-.02-1.68-.4-2.79-1.09-3.38-.73-.67-1.81-.97-3.29-.95-1.92.03-3.55.77-3.54 1.61 0 .12.08.32.29.52.41.55.62 1.11.62 1.63.02 1.16-.89 2.05-2.13 2.07-1.4.02-2.33-.97-2.35-2.45-.02-1.44.68-2.65 2.15-3.59 1.47-.98 3.34-1.49 5.58-1.52 2.52-.04 4.49.46 5.86 1.52 1.09.87 1.63 2.46 1.67 4.74l.11 8.04zm-3.83-4.95c-2.79.48-4.75 1.03-5.9 1.56-1.71.86-2.57 2.12-2.55 3.75.02 1.8 1.4 3.1 3.2 3.08 1.72-.02 3.54-1.05 4.52-2.54.35-.53.55-1.05.62-1.49.11-.48.14-1.32.12-2.52l-.03-1.84zm30.25-19.46l7.98 21.21 7.02-21.42 10.04-.14.03 1.88h-.72c-1.64.03-2.64.17-3.03.37-.36.21-.55.73-.54 1.57l.02 1.16.27 19.04.02 1.16c.01.84.22 1.4.58 1.59.4.19 1.4.26 3.04.24h.72l.03 1.87-13.12.18-.03-1.88h.72c1.64-.03 2.64-.13 3-.33.4-.21.59-.77.58-1.61l-.02-1.16-.3-21.39-8.55 26.44-1.6.02-9.88-26.18.25 17.67c.04 2.72.34 4.52.95 5.35s1.86 1.29 3.74 1.35l.03 1.88-11.4.16-.03-1.88c1.92-.11 3.15-.6 3.74-1.45s.84-2.65.81-5.37l-.21-15.32-.02-1.16c-.01-.84-.22-1.36-.62-1.55-.36-.19-1.36-.3-3-.28h-.76l-.03-1.87 10.32-.14zm34.98 9.75l.19 13.72.02 1.6c.01.8.18 1.32.54 1.55.36.2 1.2.3 2.52.28h.28l.02 1.44-10.36.14-.02-1.44h.28c2.56-.04 3-.33 2.97-1.92l-.02-1.6-.13-9.56c-.02-1.72-.27-2-1.75-1.98l-2.04.03-.02-1.72 7.51-.54zm-4.31-7.58c-.03-2.04 2.48-3.12 3.94-1.7s.46 3.95-1.62 3.98c-1.24.02-2.29-1.05-2.31-2.29zm16.68-3.43l.34 24.55.02 1.6c.01.8.18 1.32.54 1.55.36.2 1.2.3 2.52.28h.28l.02 1.44-10.36.14-.02-1.44h.28c2.56-.04 3-.33 2.97-1.92l-.02-1.6-.29-20.39c-.02-1.72-.27-2-1.71-1.98l-1.96.03-.02-1.72 7.39-.54zm22.54 24.32c.03 2.04.44 2.75 1.56 2.74.24 0 .6-.09 1.12-.29.24-.12.44-.17.6-.17.28 0 .4.15.41.47 0 .6-.38 1.12-1.14 1.62-.75.49-1.59.74-2.51.75-1.88.03-2.89-.76-3.56-2.79-1.77 2.14-4.07 3.22-6.91 3.26-3.52.05-5.82-1.76-5.86-4.6-.04-2.52 1.66-4.42 5.04-5.75 1.63-.66 4.1-1.3 7.41-1.9l-.02-1.56c-.02-1.68-.4-2.79-1.09-3.38-.73-.67-1.81-.97-3.29-.95-1.92.03-3.55.77-3.54 1.61 0 .12.08.32.29.52.41.55.62 1.11.62 1.63.02 1.16-.89 2.05-2.13 2.07-1.4.02-2.33-.97-2.35-2.45-.02-1.44.68-2.65 2.15-3.59 1.47-.98 3.34-1.49 5.58-1.52 2.52-.04 4.49.46 5.86 1.52 1.09.87 1.63 2.46 1.67 4.74l.11 8.04zm-3.83-4.95c-2.79.48-4.75 1.03-5.9 1.56-1.71.86-2.57 2.12-2.55 3.75.02 1.8 1.4 3.1 3.2 3.08 1.72-.02 3.54-1.05 4.52-2.54.35-.53.55-1.05.62-1.49.11-.48.14-1.32.12-2.52l-.03-1.84zm15.8-9.01l.05 3.24c1.68-2.58 3.75-3.89 6.26-3.93 2.36-.03 4.42 1.1 5.44 3 .37.67.58 1.31.71 1.91s.18 1.6.2 3.04l.09 6.28.02 1.6c.02 1.6.47 1.87 3.03 1.84h.16l.02 1.44-10.12.14-.02-1.44h.16c1.32-.02 2.12-.15 2.47-.36.36-.25.55-.77.54-1.57l-.02-1.6-.09-6.48c-.03-1.84-.32-3.16-.94-3.99-.61-.79-1.86-1.37-2.86-1.36-1.72.02-3.5 1.29-4.32 3.1-.47 1.01-.68 2.57-.65 4.69l.06 4.16.02 1.6c.01.8.18 1.32.54 1.55.36.2 1.2.3 2.52.28h.16l.02 1.44-10.12.14-.02-1.44h.16c2.56-.04 3-.32 2.97-1.92l-.02-1.6-.13-9.56c-.02-1.72-.27-2-1.75-1.98l-1.44.02-.02-1.72 6.91-.54z"/><use xlink:href="#E"/><path d="M533.43 785.99c-1.66 4.3-3.68 5.93-7.24 5.98-2.48.04-4.49-.82-6.08-2.55-1.58-1.78-2.38-4.09-2.42-6.92-.04-3 .76-5.45 2.42-7.39s3.76-2.93 6.36-2.97c1.8-.03 3.29.43 4.46 1.34 1.21.9 1.83 2.01 1.85 3.33.02 1.6-1 2.73-2.4 2.75s-2.41-.89-2.43-2.21c0-.6.26-1.2.77-1.85.16-.24.23-.4.23-.48 0-.64-1.1-1.18-2.26-1.17-2.92.04-4.87 3.31-4.81 8.15.07 4.68 2.11 7.57 5.31 7.53 2.08-.03 3.42-1.21 4.66-4.1l1.57.58zm16.68-11.27c1.71 1.9 2.58 4.2 2.62 6.96s-.77 5.09-2.42 7.07c-1.65 1.94-3.68 2.93-6.08 2.96s-4.45-.9-6.16-2.79c-1.71-1.9-2.58-4.2-2.62-6.96-.04-2.8.77-5.17 2.42-7.11s3.72-2.93 6.16-2.97c2.36-.03 4.41.9 6.08 2.83zm-10.46 7.19c.07 5.28 1.67 8.13 4.55 8.09s4.4-2.94 4.32-8.26c-.07-5.28-1.63-8.18-4.47-8.14-3 .04-4.48 2.82-4.4 8.3zm21.59-9.66l.05 3.24c1.68-2.58 3.74-3.89 6.26-3.93 2.36-.03 4.42 1.1 5.44 3 .37.67.58 1.31.71 1.91s.18 1.6.2 3.04l.09 6.28.02 1.6c.02 1.6.47 1.87 3.03 1.84h.16l.02 1.44-10.12.14-.02-1.44h.16c1.32-.02 2.12-.15 2.47-.36.36-.25.55-.77.54-1.57l-.02-1.6-.09-6.48c-.03-1.84-.32-3.16-.94-3.99-.61-.79-1.86-1.37-2.86-1.36-1.72.02-3.5 1.29-4.32 3.1-.47 1.01-.68 2.57-.65 4.69l.06 4.16.02 1.6c.01.8.18 1.32.54 1.55.36.2 1.2.3 2.52.28h.16l.02 1.44-10.12.14-.02-1.44h.16c2.56-.04 3-.32 2.97-1.92l-.02-1.6-.13-9.56c-.02-1.72-.27-2-1.75-1.98l-1.44.02-.02-1.72 6.91-.54zm22.96-.33l5.88-.08.02 1.72-5.88.08.15 10.92c.02 1.44.15 2.44.4 3 .33.75 1.02 1.15 2.02 1.13 1.96-.03 2.97-1.84 3.04-5.48l1.68-.02c.04.28.05.56.05.92.03 2.4-.62 4.29-2 5.63-.95.93-2.22 1.39-3.82 1.41-2.36.03-3.89-.83-4.6-2.54-.33-.76-.51-2.31-.54-4.71l-.14-10.2-3.28.05-.02-1.56c3.2-.29 4.96-2.99 5.29-8.15l1.64-.02.11 7.92zm16.03-.22l.19 13.72.02 1.6c.01.8.18 1.32.54 1.55.36.2 1.21.3 2.52.28h.28l.02 1.44-10.36.14-.02-1.44h.28c2.56-.04 3-.33 2.97-1.92l-.02-1.6-.13-9.56c-.02-1.72-.27-2-1.75-1.98l-2.04.03-.02-1.72 7.51-.54zm-4.31-7.58c-.03-2.04 2.48-3.12 3.94-1.7s.46 3.95-1.62 3.98c-1.24.02-2.29-1.05-2.31-2.29zm16.67 7.41l.04 3.24c1.68-2.58 3.75-3.89 6.26-3.93 2.36-.03 4.42 1.1 5.44 3 .37.67.58 1.31.71 1.91s.18 1.6.2 3.04l.09 6.28.02 1.6c.02 1.6.47 1.87 3.03 1.84h.16l.02 1.44-10.12.14-.02-1.44h.16c1.32-.02 2.12-.15 2.48-.36.36-.25.55-.77.54-1.57l-.02-1.6-.09-6.48c-.03-1.84-.32-3.16-.94-3.99-.61-.79-1.86-1.37-2.86-1.36-1.72.02-3.5 1.29-4.32 3.1-.47 1.01-.68 2.57-.65 4.69l.06 4.16.02 1.6c.01.8.18 1.32.54 1.55.36.19 1.2.3 2.52.28h.16l.02 1.44-10.12.14-.02-1.44h.16c2.56-.04 2.99-.32 2.97-1.92l-.02-1.6-.13-9.56c-.02-1.72-.27-2-1.75-1.98l-1.44.02-.02-1.72 6.91-.54zM644.41 790l-.05-3.32c-1.72 2.58-3.59 3.69-6.19 3.72-2.48.03-4.29-.78-5.43-2.48-.53-.75-.79-2.07-.81-3.87l-.12-8.64c-.02-1.72-.27-2-1.75-1.98l-1.52.02-.02-1.72 6.99-.54.17 12.2c.03 2.2.12 2.6.65 3.35.53.83 1.5 1.22 2.82 1.2 2.04-.03 3.51-.97 4.36-2.86.54-1.25.8-2.89.77-4.93l-.07-4.92c-.02-1.72-.27-2-1.75-1.98l-2.04.03-.02-1.72 7.51-.54.2 14c.02 1.28.19 2.08.47 2.43.28.32 1.01.47 2.09.45h1l.02 1.71-7.28.38zm12.67-9.45c-.01 2.04.37 3.63 1.07 4.79 1.06 1.75 2.6 2.6 4.6 2.58 2.68-.04 4.34-1.26 5.94-4.36l1.41.74c-1.59 3.82-4.28 5.74-8.08 5.79-2.68.04-4.89-.81-6.59-2.51-1.66-1.7-2.54-3.96-2.57-6.76-.04-3 .76-5.49 2.46-7.47 1.69-2.02 3.8-3.05 6.36-3.09 2.44-.03 4.41.9 6 2.8 1.59 1.86 2.38 4.33 2.38 7.33l-12.96.18zm7.01-1.82c1.28-.02 1.64-.34 1.62-1.5-.04-3.2-1.67-5.3-4.11-5.26-1.88.03-3.18 1.24-3.99 3.61-.34 1.04-.53 2.13-.51 3.25l7-.1zm14.53-8.12l.07 4.96c1.23-3.54 3.4-5.61 5.92-5.64 2.12-.03 3.5 1.23 3.52 3.15.02 1.64-.96 2.73-2.4 2.75-1.96.03-3.03-2.2-1.54-3.98-1.72.22-3.02 1.48-3.95 3.74-1.01 2.37-1.49 5.18-1.44 8.34v.4l.03 1.6c.02 1.6.47 1.87 3.03 1.84h.76l.02 1.43-10.68.15-.02-1.44h.16c1.32-.02 2.12-.15 2.48-.36.36-.25.55-.77.54-1.57l-.02-1.6-.13-9.56c-.02-1.72-.31-2-1.75-1.98l-1.64.02-.02-1.72 7.07-.54zm27.83 13.41c.03 2.04.44 2.75 1.56 2.74.24 0 .6-.09 1.12-.29.24-.12.44-.17.6-.17.28 0 .4.15.41.47 0 .6-.38 1.12-1.14 1.62-.75.49-1.59.74-2.51.75-1.88.03-2.89-.76-3.56-2.79-1.77 2.14-4.08 3.22-6.92 3.25-3.52.05-5.82-1.76-5.86-4.6-.04-2.52 1.66-4.42 5.04-5.75 1.63-.66 4.1-1.3 7.41-1.9l-.02-1.56c-.02-1.68-.4-2.79-1.09-3.39-.73-.67-1.81-.97-3.29-.95-1.92.03-3.55.77-3.54 1.61 0 .12.08.32.29.52.41.55.62 1.11.62 1.63.02 1.16-.89 2.05-2.13 2.07-1.4.02-2.33-.97-2.35-2.45-.02-1.44.68-2.65 2.15-3.59 1.47-.98 3.34-1.49 5.58-1.52 2.52-.04 4.49.46 5.86 1.52 1.09.86 1.63 2.46 1.67 4.74l.11 8.04zm-3.83-4.95c-2.79.48-4.74 1.03-5.9 1.56-1.71.86-2.57 2.12-2.55 3.75.02 1.8 1.4 3.1 3.2 3.08 1.72-.02 3.54-1.05 4.52-2.54.35-.53.55-1.05.62-1.49.11-.48.14-1.32.12-2.52l-.03-1.84zm16.04-9.02l.19 13.72.02 1.6c.01.8.18 1.32.54 1.55.36.2 1.2.3 2.52.28h.28l.02 1.44-10.36.14-.02-1.44h.28c2.56-.04 3-.33 2.97-1.92l-.02-1.6-.13-9.56c-.02-1.72-.27-2-1.75-1.98l-2.04.03-.02-1.72 7.51-.54zm-4.3-7.58c-.03-2.04 2.48-3.12 3.94-1.7s.46 3.95-1.62 3.98c-1.24.02-2.29-1.05-2.31-2.29zm38.05 20.91c.03 2.04.44 2.75 1.56 2.74.24 0 .6-.09 1.12-.29.24-.12.44-.17.6-.17.28 0 .4.15.41.47 0 .6-.38 1.12-1.14 1.62s-1.59.74-2.51.75c-1.88.03-2.89-.76-3.56-2.79-1.77 2.14-4.08 3.22-6.92 3.25-3.52.05-5.82-1.76-5.86-4.6-.04-2.52 1.66-4.42 5.04-5.75 1.63-.66 4.1-1.3 7.41-1.9l-.02-1.56c-.02-1.68-.4-2.79-1.09-3.39-.73-.67-1.81-.97-3.29-.95-1.92.03-3.55.77-3.54 1.61 0 .12.08.32.29.52.41.55.62 1.11.62 1.63.02 1.16-.89 2.05-2.13 2.07-1.4.02-2.33-.97-2.35-2.45-.02-1.44.68-2.65 2.15-3.59 1.47-.98 3.34-1.49 5.58-1.52 2.52-.04 4.49.46 5.86 1.52 1.09.86 1.63 2.46 1.67 4.74l.11 8.04zm-3.83-4.95c-2.79.48-4.74 1.03-5.9 1.56-1.71.86-2.57 2.12-2.55 3.75.03 1.8 1.4 3.1 3.2 3.08 1.72-.02 3.54-1.05 4.52-2.54.35-.53.55-1.05.62-1.49.11-.48.14-1.32.12-2.52l-.03-1.84zm22.58 9.8l-.04-3.16c-1.21 2.34-3.03 3.52-5.47 3.56-2.32.03-4.25-.86-5.76-2.64-1.5-1.82-2.3-4.13-2.34-6.97-.04-2.88.69-5.29 2.18-7.23 1.49-1.98 3.36-2.97 5.64-3 2.24-.03 4.09.94 5.56 2.88l-.13-9.04c-.02-1.72-.31-2-1.75-1.98l-2.36.03-.02-1.72 7.83-.55.35 24.83c.02 1.24.19 2.04.47 2.39.28.36.97.51 2.05.49h.72l.02 1.71-6.95.38zm-9.4-8.79c.06 4.44 1.78 7.06 4.62 7.02 2.88-.04 4.68-3.11 4.61-7.75-.03-1.96-.29-3.55-.83-4.79-.71-1.79-2.32-3.01-3.96-2.98-1.64.02-3.1 1.2-3.76 2.97-.5 1.33-.72 3.17-.68 5.53zm-412.41 53.41c-.01 2.04.37 3.63 1.07 4.79 1.06 1.75 2.6 2.6 4.6 2.58 2.68-.04 4.34-1.26 5.94-4.36l1.41.74c-1.59 3.82-4.28 5.74-8.08 5.79-2.68.04-4.89-.81-6.6-2.51-1.66-1.7-2.54-3.96-2.57-6.76-.04-3 .76-5.49 2.46-7.47 1.69-2.02 3.8-3.05 6.36-3.09 2.44-.03 4.41.9 6 2.79 1.59 1.86 2.38 4.33 2.38 7.33l-12.96.18zm7.01-1.82c1.28-.02 1.64-.34 1.62-1.5-.04-3.2-1.67-5.3-4.11-5.26-1.88.03-3.18 1.24-3.99 3.61-.35 1.05-.53 2.13-.51 3.25l7-.1zm22.64-8.68l.09 6.72-1.4.02c-.58-1.59-1.24-2.74-2.01-3.49-1.09-1.07-2.42-1.57-3.9-1.55-2.2.03-3.7 1.21-3.68 2.81.01 1 .5 1.67 1.43 2.1.48.27 1.45.54 2.93.84l2 .41 2.65.68c.56.19 1.09.5 1.57.94 1.13.9 1.71 2.26 1.74 4.02.05 3.72-2.47 6.19-6.43 6.25-2.04.03-3.85-.59-5.51-1.88l-1.38 1.66-1.4.02-.11-7.56 1.6-.02c1.02 3.99 3.45 6.11 6.8 6.06 2.36-.03 3.98-1.38 3.95-3.25-.02-1.6-1.11-2.38-4.32-3.1l-2.13-.45c-2.05-.45-3.45-1.03-4.26-1.74-.93-.83-1.43-2.06-1.45-3.66-.05-3.48 2.24-5.83 5.76-5.88 1.88-.03 3.53.47 4.9 1.53l1.14-1.46 1.4-.02zm18.36-.25l.09 6.72-1.4.02c-.58-1.59-1.24-2.74-2.01-3.49-1.09-1.07-2.42-1.57-3.9-1.55-2.2.03-3.7 1.21-3.68 2.81.01 1 .5 1.67 1.43 2.1.48.27 1.45.54 2.93.84l2.01.41 2.65.68c.56.19 1.09.5 1.57.94 1.13.9 1.71 2.26 1.74 4.02.05 3.72-2.47 6.19-6.43 6.25-2.04.03-3.85-.59-5.51-1.88l-1.38 1.66-1.4.02-.11-7.56 1.6-.02c1.02 3.99 3.45 6.11 6.8 6.06 2.36-.03 3.98-1.38 3.95-3.25-.02-1.6-1.11-2.38-4.32-3.1l-2.13-.45c-2.05-.45-3.45-1.03-4.26-1.74-.93-.83-1.43-2.06-1.45-3.66-.05-3.48 2.24-5.83 5.76-5.88 1.88-.03 3.53.47 4.9 1.53l1.14-1.46 1.4-.02zm8.54 9.96c-.01 2.04.37 3.63 1.07 4.79 1.06 1.75 2.6 2.6 4.6 2.58 2.68-.04 4.34-1.26 5.94-4.36l1.41.74c-1.59 3.82-4.28 5.74-8.08 5.79-2.68.04-4.89-.81-6.6-2.51-1.66-1.7-2.53-3.96-2.57-6.76-.04-3 .76-5.49 2.46-7.47 1.69-2.02 3.8-3.05 6.36-3.09 2.44-.03 4.41.9 6 2.8 1.59 1.86 2.38 4.33 2.38 7.33l-12.96.18zm7.01-1.82c1.28-.02 1.63-.34 1.62-1.5-.04-3.2-1.67-5.3-4.11-5.26-1.88.03-3.18 1.24-3.99 3.62-.35 1.04-.53 2.13-.51 3.25l7-.1zm14.53-8.12l.07 4.96c1.23-3.54 3.4-5.61 5.92-5.64 2.12-.03 3.5 1.23 3.52 3.15.02 1.64-.96 2.73-2.4 2.75-1.96.03-3.03-2.2-1.54-3.98-1.72.22-3.02 1.48-3.95 3.74-1.01 2.37-1.49 5.18-1.44 8.34v.4l.03 1.6c.02 1.6.47 1.87 3.02 1.84h.76l.02 1.43-10.68.15-.02-1.44h.16c1.32-.02 2.12-.15 2.47-.36.36-.25.55-.77.54-1.57l-.02-1.6-.13-9.56c-.02-1.72-.31-2-1.75-1.98l-1.64.02-.02-1.72 7.07-.54zm15.42 9.42c-.01 2.04.37 3.63 1.07 4.79 1.06 1.75 2.6 2.6 4.6 2.58 2.68-.04 4.34-1.26 5.94-4.36l1.41.74c-1.59 3.82-4.28 5.74-8.08 5.79-2.68.04-4.89-.81-6.59-2.51-1.66-1.7-2.54-3.96-2.57-6.76-.04-3 .76-5.49 2.46-7.47 1.69-2.02 3.8-3.05 6.36-3.09 2.44-.03 4.41.9 6 2.79 1.59 1.86 2.38 4.33 2.38 7.33l-12.96.18zm7.01-1.82c1.28-.02 1.64-.34 1.62-1.5-.04-3.2-1.67-5.3-4.11-5.26-1.88.03-3.18 1.24-3.99 3.62-.35 1.04-.53 2.13-.51 3.25l7-.1zm35.07 10.51l-.05-3.32c-1.72 2.58-3.59 3.69-6.19 3.73-2.48.03-4.29-.78-5.43-2.48-.53-.75-.79-2.07-.81-3.87l-.12-8.64c-.02-1.72-.27-2-1.75-1.98l-1.52.02-.02-1.72 6.99-.54.17 12.2c.03 2.2.12 2.6.65 3.35.53.83 1.5 1.22 2.82 1.2 2.04-.03 3.51-.97 4.36-2.86.54-1.25.8-2.89.77-4.93l-.07-4.92c-.02-1.72-.27-2-1.75-1.98l-2.04.03-.02-1.72 7.51-.54.2 14c.02 1.28.19 2.08.47 2.43.28.32 1.01.47 2.09.45h1l.02 1.7-7.27.38zm15.7-19.13l.04 3.24c1.68-2.58 3.75-3.89 6.26-3.93 2.36-.03 4.42 1.1 5.44 3 .37.67.58 1.31.71 1.91s.18 1.6.2 3.04l.09 6.28.02 1.6c.02 1.6.47 1.87 3.02 1.84h.16l.02 1.44-10.12.14-.02-1.44h.16c1.32-.02 2.12-.15 2.48-.36.36-.25.55-.77.54-1.57l-.02-1.6-.09-6.48c-.03-1.84-.32-3.16-.94-3.99-.61-.79-1.86-1.37-2.86-1.36-1.72.02-3.5 1.29-4.32 3.1-.47 1.01-.68 2.57-.65 4.69l.06 4.16.02 1.6c.01.8.18 1.32.54 1.55.36.2 1.2.3 2.52.29h.16l.02 1.44-10.12.14-.02-1.44h.16c2.56-.04 3-.32 2.97-1.92l-.02-1.6-.13-9.56c-.02-1.72-.27-2-1.75-1.98l-1.44.02-.02-1.72 6.91-.54zm34.58 13.31c.03 2.04.44 2.75 1.56 2.74.24 0 .6-.09 1.12-.29.24-.12.44-.17.6-.17.28 0 .4.15.41.47 0 .6-.38 1.13-1.14 1.62s-1.59.74-2.51.75c-1.88.03-2.89-.76-3.56-2.79-1.77 2.14-4.07 3.22-6.91 3.26-3.52.05-5.82-1.76-5.86-4.6-.04-2.52 1.66-4.42 5.04-5.75 1.63-.66 4.1-1.29 7.41-1.9l-.02-1.56c-.02-1.68-.4-2.79-1.09-3.38-.73-.67-1.81-.97-3.29-.95-1.92.03-3.55.77-3.54 1.61 0 .12.08.32.29.52.41.55.62 1.11.62 1.63.02 1.16-.89 2.05-2.13 2.07-1.4.02-2.33-.97-2.35-2.45-.02-1.44.68-2.65 2.15-3.59 1.47-.98 3.34-1.49 5.58-1.52 2.52-.04 4.49.46 5.86 1.52 1.09.87 1.63 2.46 1.67 4.74l.11 8.04zm-3.83-4.95c-2.79.48-4.74 1.03-5.9 1.56-1.71.86-2.57 2.12-2.55 3.75.02 1.8 1.4 3.1 3.2 3.08 1.72-.02 3.55-1.05 4.52-2.54.35-.53.55-1.05.62-1.49.11-.48.14-1.32.12-2.52l-.03-1.84zm26.96-9.17l.04 2.84c1.29-2.3 3.11-3.48 5.47-3.52 2.2-.03 4.05.9 5.6 2.76s2.34 4.21 2.38 6.97c.04 2.84-.69 5.25-2.22 7.19-1.49 1.9-3.4 2.89-5.72 2.92-2.44.03-3.97-.91-5.32-3.17l.08 5.8.02 1.6c.01.8.18 1.32.54 1.51.36.23 1.2.34 2.52.32h.44l.02 1.43-10.4.15-.02-1.44h.16c2.56-.04 3-.32 2.97-1.92l-.02-1.6-.25-17.63c-.02-1.72-.27-2-1.75-1.98l-1.44.02-.02-1.72 6.91-.54zm.09 9.52c.06 4.6 1.98 7.53 4.82 7.49s4.44-2.98 4.37-8.14c-.06-4.68-1.7-7.42-4.46-7.38-3.04.04-4.8 3.07-4.73 8.03zm33.1 3.82c.03 2.04.44 2.75 1.56 2.74.24 0 .6-.09 1.12-.29.24-.12.44-.17.6-.17.28 0 .4.15.41.47 0 .6-.38 1.13-1.14 1.62-.75.49-1.59.74-2.51.75-1.88.03-2.89-.76-3.56-2.79-1.77 2.14-4.07 3.22-6.91 3.26-3.52.05-5.82-1.76-5.86-4.6-.04-2.52 1.66-4.42 5.04-5.75 1.63-.66 4.1-1.29 7.41-1.9l-.02-1.56c-.02-1.68-.4-2.79-1.09-3.38-.73-.67-1.81-.97-3.29-.95-1.92.03-3.55.77-3.54 1.61 0 .12.08.32.29.52.41.55.62 1.11.62 1.63.02 1.16-.89 2.05-2.13 2.07-1.4.02-2.33-.97-2.35-2.45-.02-1.44.68-2.65 2.15-3.59 1.46-.98 3.34-1.49 5.58-1.52 2.52-.04 4.49.46 5.86 1.52 1.09.87 1.63 2.46 1.67 4.74l.11 8.04zm-3.83-4.95c-2.79.48-4.75 1.03-5.9 1.56-1.71.86-2.57 2.12-2.55 3.75.02 1.8 1.4 3.1 3.2 3.08 1.72-.02 3.55-1.05 4.52-2.54.35-.53.54-1.05.62-1.49.11-.48.14-1.32.12-2.52l-.03-1.84zm14.8-9.01l.04 2.84c1.29-2.3 3.11-3.48 5.47-3.52 2.2-.03 4.05.9 5.6 2.76s2.34 4.21 2.38 6.97c.04 2.84-.69 5.25-2.22 7.19-1.49 1.9-3.4 2.89-5.72 2.92-2.44.03-3.97-.9-5.32-3.16l.08 5.8.02 1.6c.01.8.18 1.32.54 1.51.36.23 1.2.34 2.52.32h.44l.02 1.43-10.4.15-.02-1.44h.16c2.56-.04 3-.32 2.97-1.92l-.02-1.6-.25-17.63c-.02-1.72-.27-2-1.75-1.98l-1.44.02-.02-1.72 6.91-.54zm.09 9.52c.06 4.6 1.99 7.53 4.82 7.49 2.84-.04 4.44-2.98 4.37-8.14-.07-4.68-1.71-7.42-4.46-7.38-3.04.04-4.8 3.07-4.73 8.03zm20.6-.17c-.01 2.04.37 3.63 1.07 4.79 1.06 1.75 2.6 2.6 4.6 2.58 2.68-.04 4.34-1.26 5.94-4.36l1.41.74c-1.59 3.82-4.28 5.74-8.08 5.79-2.68.04-4.89-.81-6.6-2.51-1.66-1.7-2.54-3.96-2.57-6.76-.04-3 .76-5.49 2.46-7.47 1.69-2.02 3.8-3.05 6.36-3.09 2.44-.03 4.41.9 6 2.8 1.59 1.86 2.38 4.33 2.38 7.33l-12.96.18zm7.01-1.82c1.28-.02 1.64-.34 1.62-1.5-.04-3.2-1.67-5.3-4.11-5.26-1.88.03-3.18 1.24-3.99 3.61a9.88 9.88 0 0 0-.52 3.25l7-.1zm14.53-8.12l.07 4.96c1.23-3.54 3.4-5.61 5.92-5.64 2.12-.03 3.5 1.23 3.52 3.15.02 1.64-.96 2.73-2.4 2.75-1.96.03-3.03-2.2-1.54-3.98-1.72.22-3.02 1.48-3.95 3.74-1.01 2.37-1.49 5.18-1.44 8.34v.4l.03 1.6c.02 1.6.47 1.87 3.02 1.84h.76l.02 1.43-10.68.15-.02-1.44h.16c1.32-.02 2.12-.15 2.48-.36.36-.25.55-.77.54-1.57l-.02-1.6-.13-9.56c-.02-1.72-.31-2-1.75-1.98l-1.64.02-.02-1.72 7.07-.54zm27.83 13.42c.03 2.04.44 2.75 1.56 2.74.24 0 .6-.09 1.12-.29.24-.12.44-.17.6-.17.28 0 .4.15.41.47 0 .6-.38 1.13-1.14 1.62-.75.49-1.59.74-2.51.75-1.88.03-2.89-.76-3.56-2.79-1.77 2.14-4.07 3.22-6.91 3.25-3.52.05-5.82-1.76-5.86-4.6-.04-2.52 1.66-4.42 5.04-5.75 1.63-.66 4.1-1.3 7.41-1.9l-.02-1.56c-.02-1.68-.4-2.79-1.09-3.39-.73-.67-1.81-.97-3.29-.95-1.92.03-3.55.77-3.54 1.61 0 .12.08.32.29.52.41.55.62 1.11.62 1.63.02 1.16-.89 2.05-2.13 2.07-1.4.02-2.33-.97-2.35-2.45-.02-1.44.68-2.65 2.15-3.59 1.47-.98 3.34-1.49 5.58-1.52 2.52-.04 4.49.46 5.86 1.52 1.09.86 1.63 2.46 1.67 4.74l.11 8.04zm-3.83-4.95c-2.79.48-4.75 1.03-5.9 1.56-1.71.86-2.57 2.12-2.55 3.75.02 1.8 1.4 3.1 3.2 3.08 1.72-.02 3.55-1.05 4.52-2.54.35-.53.54-1.05.62-1.49.11-.48.14-1.32.12-2.52l-.03-1.84zm10.59 15.89c2.65-1.92 3.99-3.78 3.96-5.5 0-.24-.08-.36-.29-.36h-.12s-.28.04-.64.05c-1.64.02-2.73-.88-2.75-2.32-.02-1.4 1.09-2.42 2.56-2.44 1.96-.03 3.3 1.51 3.34 3.91.04 2.72-1.69 5.3-5.13 7.75l-.94-1.11zm35.47-23.01c1.71 1.9 2.58 4.2 2.62 6.96s-.77 5.09-2.42 7.07c-1.65 1.94-3.68 2.93-6.08 2.96s-4.45-.9-6.16-2.79c-1.71-1.9-2.58-4.2-2.62-6.96-.04-2.8.77-5.17 2.42-7.11s3.72-2.93 6.16-2.97c2.36-.03 4.41.9 6.08 2.83zm-10.46 7.19c.07 5.28 1.67 8.14 4.55 8.1s4.4-2.94 4.32-8.26c-.07-5.28-1.63-8.18-4.47-8.14-3 .04-4.48 2.82-4.4 8.3zM359.7 889.99l-.04-3.16c-1.21 2.34-3.03 3.52-5.47 3.56-2.32.03-4.25-.86-5.76-2.64-1.51-1.82-2.3-4.13-2.34-6.97-.04-2.88.69-5.29 2.18-7.23 1.49-1.98 3.36-2.97 5.64-3 2.24-.03 4.09.94 5.56 2.88l-.13-9.04c-.02-1.72-.31-2-1.75-1.98l-2.36.03-.02-1.72 7.83-.55.35 24.83c.02 1.24.19 2.04.47 2.39.28.36.97.51 2.05.49h.72l.02 1.71-6.95.38zm-9.4-8.79c.06 4.44 1.78 7.06 4.62 7.02 2.88-.04 4.68-3.11 4.61-7.74-.03-1.96-.29-3.56-.83-4.79-.71-1.79-2.32-3.01-3.96-2.98-1.64.02-3.1 1.2-3.76 2.97-.5 1.33-.72 3.17-.68 5.53zm25.14-10.35l.19 13.72.02 1.6c.01.8.18 1.32.54 1.55.36.2 1.2.3 2.52.29h.28l.02 1.44-10.36.14-.02-1.44h.28c2.56-.04 2.99-.33 2.97-1.93l-.02-1.6-.13-9.56c-.02-1.72-.27-2-1.75-1.98l-2.04.03-.02-1.72 7.51-.54zm-4.31-7.58c-.03-2.04 2.48-3.11 3.94-1.7 1.46 1.42.46 3.95-1.62 3.98-1.24.02-2.29-1.05-2.31-2.29zm19.66 21.16l3.55-9.33c.23-.72.34-1.29.34-1.68-.01-.92-.74-1.39-2.18-1.37h-.56l-.02-1.43 8-.11.02 1.44h-.16c-1.48.02-2.7 1.28-3.67 3.81l-5.48 14.11-1.4.02-7.1-15.98c-.54-1.31-1.1-1.71-2.66-1.68h-.32l-.02-1.43 9.44-.13.02 1.44h-.56c-1.64.03-2.16.28-2.15.96 0 .28.09.56.21.84l4.71 10.53zm14.3-4.36c-.01 2.04.37 3.63 1.07 4.78 1.06 1.75 2.6 2.6 4.6 2.58 2.68-.04 4.34-1.26 5.94-4.36l1.41.74c-1.59 3.82-4.28 5.74-8.08 5.79-2.68.04-4.89-.81-6.59-2.51-1.66-1.7-2.54-3.96-2.57-6.76-.04-3 .76-5.49 2.46-7.47 1.69-2.02 3.8-3.05 6.36-3.09 2.44-.03 4.41.9 6 2.8 1.59 1.86 2.38 4.33 2.38 7.33l-12.96.18zm7.01-1.82c1.28-.02 1.64-.34 1.62-1.5-.04-3.2-1.67-5.3-4.11-5.26-1.88.03-3.18 1.24-3.99 3.62-.35 1.04-.53 2.13-.51 3.25l7-.1zm14.49-8.12l.05 3.24c1.68-2.58 3.75-3.89 6.26-3.93 2.36-.03 4.42 1.1 5.44 3 .37.67.58 1.31.71 1.91s.18 1.6.2 3.04l.09 6.28.02 1.6c.02 1.6.47 1.87 3.03 1.84h.16l.02 1.44-10.12.14-.02-1.44h.16c1.32-.02 2.12-.15 2.47-.36.36-.25.55-.77.54-1.57l-.02-1.6-.09-6.48c-.03-1.84-.32-3.16-.94-3.99-.61-.79-1.86-1.37-2.86-1.36-1.72.02-3.5 1.29-4.32 3.1-.47 1.01-.68 2.57-.66 4.69l.06 4.16.02 1.6c.01.8.18 1.32.54 1.55.36.2 1.2.3 2.52.29h.16l.02 1.44-10.12.14-.02-1.44h.16c2.56-.04 3-.32 2.97-1.92l-.02-1.6-.13-9.56c-.02-1.72-.27-2-1.75-1.98l-1.44.02-.02-1.72 6.91-.54zm22.96-.32l5.88-.08.02 1.72-5.88.08.15 10.92c.02 1.44.15 2.44.4 3 .33.75 1.02 1.15 2.02 1.13 1.96-.03 2.97-1.84 3.04-5.48l1.68-.02c.04.28.05.56.05.92.03 2.4-.62 4.29-2 5.63-.95.93-2.22 1.39-3.82 1.41-2.36.03-3.89-.83-4.6-2.54-.33-.75-.51-2.31-.55-4.71l-.14-10.2-3.28.05-.02-1.56c3.2-.29 4.96-2.99 5.29-8.15l1.64-.02.11 7.92zm13.85 9.45c-.01 2.04.37 3.63 1.07 4.79 1.06 1.75 2.6 2.6 4.6 2.58 2.68-.04 4.34-1.26 5.94-4.36l1.41.74c-1.59 3.82-4.28 5.74-8.08 5.79-2.68.04-4.89-.81-6.59-2.51-1.66-1.7-2.54-3.96-2.57-6.76-.04-3 .76-5.49 2.46-7.47 1.69-2.02 3.8-3.05 6.36-3.09 2.44-.03 4.41.9 6 2.8 1.59 1.86 2.38 4.33 2.38 7.33l-12.96.18zm7.01-1.82c1.28-.02 1.64-.34 1.62-1.5-.04-3.2-1.67-5.3-4.11-5.26-1.88.03-3.18 1.24-3.99 3.61-.35 1.05-.53 2.13-.51 3.25l7-.1zm14.54-8.12l.07 4.96c1.23-3.54 3.4-5.61 5.92-5.64 2.12-.03 3.5 1.23 3.52 3.15.02 1.64-.96 2.73-2.4 2.75-1.96.03-3.03-2.2-1.54-3.98-1.72.22-3.02 1.48-3.95 3.74-1.01 2.37-1.49 5.18-1.44 8.34v.4l.03 1.6c.02 1.6.47 1.87 3.03 1.84h.76l.02 1.43-10.68.15-.02-1.44h.16c1.32-.02 2.12-.15 2.48-.36.36-.25.55-.77.54-1.57l-.02-1.6-.13-9.56c-.02-1.72-.31-2-1.75-1.98l-1.64.02-.02-1.72 7.07-.54zm27.82 13.41c.03 2.04.44 2.75 1.56 2.74.24 0 .6-.09 1.12-.29.24-.12.44-.17.6-.17.28 0 .4.15.41.47 0 .6-.38 1.13-1.14 1.62-.75.49-1.59.74-2.51.75-1.88.03-2.89-.76-3.56-2.79-1.77 2.15-4.07 3.22-6.91 3.25-3.52.05-5.82-1.76-5.86-4.6-.04-2.52 1.66-4.42 5.04-5.75 1.63-.66 4.1-1.3 7.41-1.9l-.02-1.56c-.02-1.68-.4-2.79-1.09-3.38-.73-.67-1.81-.97-3.29-.95-1.92.03-3.55.77-3.54 1.61 0 .12.08.32.29.52.41.55.62 1.11.62 1.63.02 1.16-.89 2.05-2.13 2.07-1.4.02-2.33-.97-2.35-2.45-.02-1.44.68-2.65 2.15-3.59 1.47-.98 3.34-1.49 5.58-1.52 2.52-.04 4.49.46 5.86 1.52 1.09.86 1.63 2.46 1.67 4.74l.11 8.04zm-3.83-4.95c-2.79.48-4.75 1.02-5.9 1.56-1.71.86-2.57 2.12-2.55 3.75.03 1.8 1.4 3.1 3.2 3.08 1.72-.02 3.55-1.05 4.52-2.54.35-.53.55-1.05.62-1.49.11-.48.14-1.32.12-2.52l-.03-1.84zm16.04-9.02l.19 13.72.02 1.6c.01.8.18 1.32.54 1.55.36.2 1.2.3 2.52.29h.28l.02 1.44-10.36.14-.02-1.44h.28c2.56-.04 3-.33 2.97-1.93l-.02-1.6-.13-9.56c-.02-1.72-.27-2-1.75-1.98l-2.04.03-.02-1.72 7.51-.54zm-4.31-7.58c-.03-2.04 2.48-3.11 3.94-1.7 1.46 1.42.46 3.95-1.62 3.98-1.24.02-2.29-1.05-2.31-2.29zm36.53 26.05l-.05-3.32c-1.72 2.58-3.59 3.69-6.19 3.72-2.48.03-4.29-.78-5.43-2.48-.53-.75-.79-2.07-.81-3.87l-.12-8.64c-.02-1.72-.27-2-1.75-1.98l-1.52.02-.02-1.72 6.99-.54.17 12.2c.03 2.2.12 2.6.65 3.35.53.83 1.5 1.22 2.82 1.2 2.04-.03 3.51-.97 4.36-2.86.54-1.25.8-2.89.77-4.93l-.07-4.92c-.02-1.72-.27-2-1.75-1.98l-2.04.03-.02-1.72 7.51-.54.2 14c.02 1.28.19 2.08.47 2.43.28.32 1.01.46 2.09.45h1l.02 1.71-7.27.38zm15.7-19.14l.04 3.24c1.68-2.58 3.75-3.89 6.26-3.93 2.36-.03 4.42 1.1 5.44 3 .37.67.58 1.31.71 1.91s.18 1.6.2 3.04l.09 6.28.02 1.6c.02 1.6.47 1.87 3.03 1.84h.16l.02 1.44-10.12.14-.02-1.44h.16c1.32-.02 2.12-.15 2.47-.36.36-.25.55-.77.54-1.57l-.02-1.6-.09-6.48c-.03-1.84-.32-3.16-.94-3.99-.61-.79-1.86-1.37-2.86-1.36-1.72.02-3.5 1.29-4.32 3.1-.47 1.01-.68 2.57-.66 4.69l.06 4.16.02 1.6c.01.8.18 1.32.54 1.55.36.2 1.2.3 2.52.29h.16l.02 1.44-10.12.14-.02-1.44h.16c2.56-.04 3-.33 2.97-1.92l-.02-1.6-.13-9.56c-.02-1.72-.27-2-1.75-1.98l-1.44.02-.02-1.72 6.91-.54zm39.69 15.13c2.44-.03 4.12.14 5.09.49 1.49.58 2.43 2.21 2.46 4.16.06 4.2-3.27 6.37-9.95 6.46-5.4.08-8.46-1.4-8.5-4-.02-1.64 1.2-2.94 3.63-3.85-1.81-.57-2.7-1.72-2.73-3.4-.03-2.2 1.07-3.42 3.74-4.05-2.09-.93-3.4-2.95-3.43-5.31-.06-4 3.03-6.68 7.79-6.75 1.8-.02 3.45.47 4.98 1.45 1.86-1.74 2.53-2.11 3.81-2.13 1.56-.02 2.65.88 2.67 2.28.02 1.08-.77 1.93-1.77 1.95-1.04.01-1.65-.46-1.82-1.46-.09-.36-.21-.56-.41-.55-.28 0-.76.33-1.35.98 1.02 1.15 1.51 2.46 1.53 3.9.04 2.76-1.17 4.7-3.68 5.85-.68.29-1.31.5-1.95.63-.6.09-1.88.15-3.76.21-2.68.08-3.75.61-3.73 1.85 0 .52.17.84.5 1.03.36.19 1.32.3 2.8.32l4.08-.06zm-4.99 3.51c-1.91 1.03-2.61 1.92-2.6 3.24.03 1.8 1.96 2.77 5.32 2.73 4.48-.06 7.06-1.42 7.03-3.7-.02-1.28-1.03-2.15-2.63-2.28-.4-.04-1.8-.06-4.16-.02l-2.96.04zm-1.06-13.02c.04 3 1.59 4.86 4.11 4.82 2.56-.04 4.05-1.9 4.01-5.05-.04-3.08-1.47-4.82-3.99-4.78-2.68.04-4.17 1.86-4.13 5.02zm33.42 7.25c.03 2.04.44 2.75 1.56 2.74.24 0 .6-.09 1.12-.29.24-.12.44-.17.6-.17.28 0 .4.16.41.47 0 .6-.38 1.12-1.14 1.62-.75.49-1.59.74-2.51.75-1.88.03-2.89-.76-3.56-2.79-1.77 2.14-4.08 3.21-6.92 3.25-3.52.05-5.82-1.76-5.86-4.6-.04-2.52 1.66-4.42 5.04-5.75 1.63-.66 4.1-1.3 7.41-1.9l-.02-1.56c-.02-1.68-.4-2.79-1.09-3.38-.73-.67-1.81-.97-3.29-.95-1.92.03-3.55.77-3.54 1.61 0 .12.08.32.29.52.41.55.62 1.11.62 1.63.02 1.16-.89 2.05-2.13 2.07-1.4.02-2.33-.97-2.36-2.45-.02-1.44.68-2.65 2.15-3.59 1.47-.98 3.34-1.49 5.58-1.52 2.52-.04 4.49.46 5.86 1.52 1.09.86 1.63 2.46 1.67 4.74l.11 8.04zm-3.83-4.95c-2.79.48-4.75 1.02-5.9 1.56-1.71.86-2.57 2.12-2.55 3.75.03 1.8 1.4 3.1 3.2 3.08 1.72-.02 3.54-1.05 4.52-2.54.35-.53.55-1.05.62-1.49.11-.48.14-1.32.12-2.52l-.03-1.84zm14.41-19.84l.19 13.36c1.45-2.3 2.96-3.16 5.4-3.2 2.4-.03 4.37.86 5.92 2.68 1.54 1.78 2.34 4.13 2.38 7.01s-.77 5.29-2.38 7.23c-1.61 1.9-3.64 2.89-6.08 2.92-2.4.03-4.41-.98-6.04-3.07l-1.92 3.15-1.52.02c.45-2.21.64-5.65.58-10.33l-.22-15.56c-.02-1.72-.27-2-1.75-1.98l-1.4.02-.02-1.72 6.87-.53zm.09 20.51c.07 4.92 1.99 7.81 5.15 7.77 2.92-.04 4.52-2.9 4.45-7.98-.07-5.24-1.79-8.13-4.79-8.09-3.2.04-4.88 2.99-4.8 8.31zm21.66-20.81l.19 13.36c1.45-2.3 2.96-3.16 5.39-3.19 2.4-.03 4.37.86 5.92 2.68 1.54 1.78 2.34 4.13 2.38 7.01s-.77 5.29-2.38 7.23c-1.61 1.9-3.64 2.89-6.08 2.92-2.4.03-4.41-.98-6.04-3.07l-1.92 3.15-1.52.02c.45-2.2.64-5.65.58-10.33l-.22-15.56c-.02-1.72-.27-2-1.75-1.98l-1.4.02-.02-1.72 6.87-.54zm.09 20.52c.07 4.92 1.99 7.81 5.15 7.77 2.92-.04 4.52-2.9 4.45-7.98-.07-5.24-1.79-8.13-4.79-8.09-3.2.04-4.88 2.99-4.8 8.31zm22.7-10l.19 13.72.02 1.6c.01.8.18 1.32.54 1.55.36.2 1.21.3 2.52.29h.28l.02 1.44-10.36.14-.02-1.44h.28c2.56-.04 3-.33 2.97-1.92l-.02-1.6-.13-9.56c-.02-1.72-.27-2-1.75-1.98l-2.04.03-.02-1.72 7.51-.54zm-4.31-7.58c-.03-2.04 2.48-3.11 3.94-1.7 1.46 1.42.46 3.95-1.62 3.98-1.24.02-2.29-1.05-2.31-2.29zm26.66 21.06c.03 2.04.44 2.75 1.56 2.74.24 0 .6-.09 1.12-.29.24-.12.44-.17.6-.17.28 0 .4.15.41.47 0 .6-.38 1.13-1.14 1.62-.75.49-1.59.74-2.51.75-1.88.03-2.89-.76-3.56-2.79-1.77 2.15-4.07 3.22-6.91 3.25-3.52.05-5.82-1.76-5.86-4.6-.04-2.52 1.66-4.42 5.04-5.75 1.63-.66 4.1-1.3 7.41-1.9l-.02-1.56c-.02-1.68-.4-2.79-1.09-3.38-.73-.67-1.81-.97-3.29-.95-1.92.03-3.55.77-3.54 1.61 0 .12.08.32.29.52.41.55.62 1.11.62 1.63.02 1.16-.89 2.05-2.13 2.07-1.4.02-2.33-.97-2.35-2.45-.02-1.44.68-2.65 2.15-3.59 1.47-.98 3.34-1.49 5.58-1.52 2.52-.04 4.49.46 5.86 1.52 1.09.86 1.63 2.46 1.67 4.74l.11 8.04zm-3.83-4.95c-2.79.48-4.75 1.02-5.9 1.56-1.71.86-2.57 2.12-2.55 3.76.03 1.8 1.4 3.1 3.2 3.08 1.72-.02 3.55-1.05 4.52-2.54.35-.53.54-1.05.62-1.49.11-.48.14-1.32.12-2.52l-.03-1.84zm15.8-9.01l.04 3.24c1.68-2.58 3.75-3.89 6.26-3.93 2.36-.03 4.42 1.1 5.44 3 .37.67.58 1.31.71 1.91s.18 1.6.2 3.04l.09 6.28.02 1.6c.02 1.6.47 1.87 3.03 1.84h.16l.02 1.44-10.12.14-.02-1.44h.16c1.32-.02 2.12-.15 2.47-.36.36-.25.55-.77.54-1.57l-.02-1.6-.09-6.48c-.03-1.84-.32-3.16-.94-3.99-.61-.79-1.86-1.37-2.86-1.36-1.72.02-3.5 1.29-4.32 3.1-.47 1.01-.68 2.57-.66 4.69l.06 4.16.02 1.6c.01.8.18 1.32.54 1.55.36.2 1.2.3 2.52.29h.16l.02 1.44-10.12.14-.02-1.44h.16c2.56-.04 3-.32 2.97-1.92l-.02-1.6-.13-9.56c-.02-1.72-.27-2-1.75-1.98l-1.44.02-.02-1.72 6.91-.54zm31.79 1.87c1.71 1.9 2.58 4.2 2.62 6.96s-.77 5.09-2.42 7.07c-1.65 1.94-3.68 2.93-6.08 2.96s-4.45-.9-6.16-2.79c-1.71-1.9-2.58-4.2-2.62-6.96-.04-2.8.77-5.17 2.42-7.11s3.72-2.93 6.16-2.96c2.36-.03 4.41.9 6.08 2.83zm-10.46 7.19c.07 5.28 1.67 8.14 4.55 8.1s4.4-2.94 4.32-8.26c-.07-5.28-1.63-8.18-4.47-8.14-3 .04-4.48 2.82-4.4 8.3zm21.38 1.34l-.02-1.28c-.02-1.64.16-3 .5-4.05.27-.68.5-1.29.78-1.73.27-.44 1.18-1.7 2.63-3.76.82-1.25 1.24-2.7 1.22-4.34-.04-3.08-1.71-4.9-4.55-4.86-1.92.03-3.67.97-3.65 2.05 0 .24.21.52.65.87.77.63 1.18 1.34 1.19 2.1.02 1.24-.97 2.21-2.25 2.23-1.48.02-2.62-1.28-2.64-3.04-.02-1.72.68-3.13 2.14-4.27s3.29-1.73 5.57-1.76 4.13.58 5.55 1.84 2.16 2.93 2.19 5.01c.02 1.4-.28 2.56-.87 3.57-.59.97-1.89 2.35-3.82 4.13-1.26 1.1-2.09 2.11-2.44 3-.35.84-.49 2.29-.42 4.25l-1.76.02zm3.36 5.67a2.5 2.5 0 0 1-2.48 2.55c-1.4.02-2.5-1.08-2.52-2.48s1.09-2.5 2.49-2.51c1.32-.02 2.49 1.05 2.51 2.45z"/><path d="M102.57 1435.95c-7.7-1.77-10.77-12.79-14.16-18.76-9.67-16.99-20.48-35.69-27.03-54.33-10.59-30.14-18.43-60.96-26.24-91.76-3.12-12.31-2.41-27.15-7.56-38.77-3.6-8.13-11.22-14.94-15.55-22.87-3.83-7.01-9.33-13.09-14.54-19.15-7.68-8.93-12.99-18.69-19.38-28.54-10.16-15.66-19.45-31.72-28.96-47.73-2.51-4.22-6.06-8.91-7.62-13.59-2.42-7.28.02-7.31 6.19-12.52 6.37-5.38 16.26-18.65 25.66-10.86 4.01 3.33 4.45 9.9 7.22 14.2 4.17 6.47 8.2 11.33 11.5 18.21 5.58 11.65 13.85 24.29 21.62 34.72 6.68 8.97 11.38 20.16 18.38 28.44 6.28 7.42 10.48 15.55 16.89 23.1 6.74 7.95 13.7 19.38 16.89 28.98 2.77 8.36 7.49 17.23 8.89 25.99 1.59 9.89 2.14 19.84 4.71 29.77 1.76 6.82 5.66 12.95 7.51 19.61 1.87 6.73 2.38 13.68 3.56 20.53 1.39 8.04 6.65 14 8.45 21.79 2.15 9.36 1.13 15.63 6.57 23.9 9.04 13.74 14.56 28.97 23.2 43.13 2.62 4.3 6.76 8.48 8.82 13.02 1.93 4.26.43 13.83 7.29 13.31 7.39-21.73 12.01-44.04 22.57-64.82 9.37-18.43 23.01-35.04 34.73-52 2-2.89 3.1-5.54 4.07-8.88 1.09-3.78 2.4-6.96 4.14-10.5 2.42-4.94 2.45-9.09 2.46-14.53v-38.74l.02-31.94c-.21-8.17-4.34-12.24-9.1-18.77-4.86-6.67-10.37-12.78-15.48-19.22-3.42-4.32-4.98-9.81-8.69-14.01-2.43-2.75-6.73-5.18-5.51-9.51.46-1.63 4.36-5.01 6.02-5.35 6.83-1.41 15.52 14.19 18.54 18.64 2.76 4.07 4.86 8.48 8.12 12.25 2.11 2.44 6.13 10.65 9.75 10.05 3.16-6.06 3.84-13.63 4.89-20.16.72-4.46 2.92-8.84 3.53-13.39.43-3.18-.22-6.22.61-9.4 1.44-5.55 1.44-11.28 7.67-12.19 6.14-.9 8.51-.31 8.26 6.03-.69 17.42-8.88 33.64-10.3 51.09-.44 5.39.05 11.04.05 16.45v31.65c0 17.39-2.67 34.59-4.48 51.84-.79 7.58-2.63 16.38-.94 23.91.53 2.35 1.67 4.51 2.2 6.86 2.27 10.16-4.48 14.77-9.08 22.89-3.14 5.55-6.74 16.81-11.85 20.75-.26-8.69 9.92-13.81 13.29-21.13 4.16-9.01 4.92-11.69 12.14-19.19 11.46-11.93 18.23-27.67 28.28-40.44 7.25-9.21 16.93-15.34 25.02-23.46 5.41-5.44 8.98-9.84 15.17-14.5 12.74-9.59 14.84-21.26 21.99-34.31 8.53-15.57 21.19-27.61 32.38-41.09 9.65-11.63 12.24-24.41 18.66-37.81 3.7-7.72 8.12-15.18 11.76-22.91 3.45-7.34 3.75-12.58 8.19-19.51 2.86-4.45 2.38-7.86 3.66-12.41.2-.72 3.5-8.45 3.67-8.56 5.37-3.2 6.48 2.35 9.41 5.07 4.39 4.07 4.33-.79 5.45 6.65.57 3.8-.1 8.23-.07 12.09.22 26.47-15.53 49.4-24.96 73.13-1.96 4.93-1.72 10.42-4.28 15.33-3.26 6.25-7.08 12.44-11.33 17.89-11.4 14.64-19.99 31.09-32.54 44.94-5.15 5.68-5.91 10.23-9.31 16.82-3.71 7.19-10.21 14.63-14.95 21.37-5.9 8.39-13.86 14.85-20.06 23.01-5.6 7.38-11.82 14.33-17.66 21.57-5.34 6.63-11.88 12.52-16.24 19.9-3.12 5.29-4.79 11.46-6.76 17.48-.82 2.51-1.25 5.01-2.04 7.46-1.9 5.86-4.86 9.36-7.28 14.8s.35 14.3-4.75 17.91c-5.26 3.72-12.04-3.35-17.25-2.65-6.99.94-7.86 11.26-13.76 12.25" fill="#007857"/><path d="M102.9 1434.75c-5.02-1.31-7.67-6.38-9.77-10.7-2.55-5.24-5.25-10.28-8.12-15.36-7.43-13.13-14.76-26.43-20.31-40.49-5.61-14.22-9.93-29.04-14.14-43.73-4.3-14.99-8.21-30.08-12.05-45.18-1.81-7.11-3.46-14.1-4.35-21.4-.79-6.47-1.41-13.02-3.1-19.34-1.68-6.32-4.74-11.65-8.7-16.81-1.98-2.59-4.05-5.11-5.95-7.76s-3.43-5.58-5.19-8.35c-3.64-5.71-8.17-10.77-12.57-15.89-4.9-5.7-9.02-11.96-12.99-18.32l-24-38.73-11.63-19.62c-1.79-2.96-3.8-5.79-5.44-8.83-1.29-2.39-2.91-5.57-2.72-8.4.13-1.99 1.93-3.19 3.36-4.32 1.95-1.54 3.87-3.08 5.67-4.8 3.67-3.5 7.28-7.55 11.96-9.72 6.05-2.81 10.95.8 13.16 6.51.95 2.44 1.65 4.99 2.88 7.31 1.55 2.94 3.69 5.63 5.57 8.36 4.02 5.85 6.96 12.11 10.36 18.31 3.49 6.34 7.36 12.47 11.45 18.44s8.14 11.1 11.7 17.01c3.54 5.9 6.76 12.03 10.87 17.57 2.08 2.81 4.4 5.42 6.44 8.26s4.04 5.89 6.06 8.84c3.97 5.79 8.68 10.98 12.63 16.78s7.24 11.61 9.71 17.94l7.47 19.66c4.96 14.22 3.29 29.93 8.85 44.01 2.72 6.89 5.83 13.25 7.16 20.61s1.43 14.28 4.19 20.9c2.52 6.04 5.8 11.41 7 17.94 1.03 5.57 1.28 11.29 3.51 16.57 1.3 3.08 3.24 5.78 4.97 8.63 1.88 3.11 3.63 6.3 5.3 9.53 3.42 6.58 6.54 13.31 9.96 19.89 1.69 3.26 3.45 6.49 5.37 9.62 1.73 2.84 3.86 5.4 5.81 8.09 1.58 2.19 3.18 4.47 3.77 7.14.45 2.01.6 4.08 1.08 6.08.85 3.5 2.89 6.16 6.76 6.01.58-.02 1.02-.38 1.21-.92 7.99-23.6 13.13-48.25 25.46-70.15 5.98-10.62 13.1-20.53 20.26-30.38l10.49-14.6c1.55-2.22 2.93-4.45 3.94-6.97 1.07-2.68 1.72-5.5 2.76-8.2 1.97-5.16 4.55-9.54 4.96-15.17.46-6.23.14-12.58.14-18.82l.1-40.54c.05-6.33.51-12.95-.27-19.24-.58-4.76-2.89-8.74-5.69-12.53-3.46-4.68-6.96-9.32-10.67-13.81s-8.21-9.2-11.15-14.57c-2.47-4.51-4.7-8.49-8.43-12.09-1.56-1.51-3.64-3.62-2.61-6.01.67-1.56 3.15-3.68 4.75-4.21 3.05-1.01 6.4 2.79 8.15 4.75 2.64 2.95 4.83 6.28 6.96 9.6 4.72 7.38 9.36 14.76 14.58 21.8 1.26 1.7 4.6 6.14 7.33 4.57 1.43-.82 2.21-4.49 2.64-5.92.87-2.85 1.41-5.8 1.88-8.74s.75-5.89 1.49-8.75c.8-3.09 2.04-6.06 2.7-9.19.56-2.68.4-5.3.51-8s.86-5.36 1.49-7.94c.45-1.85 1.01-3.92 2.53-5.19 1.71-1.43 4.6-1.65 6.75-1.55 4.9.23 3 7.75 2.59 10.9-1.56 12.14-6.03 23.66-8.42 35.64-2.5 12.55-1.34 25.5-1.34 38.22s.19 26.04-.94 39.04-2.72 25.93-4.34 38.85c-.7 5.61-1.33 11.36-.26 16.96.51 2.64 1.77 5.03 2.36 7.64.63 2.76.53 5.59-.42 8.26-1.58 4.4-4.96 7.95-7.43 11.84-2.31 3.65-3.88 7.69-5.71 11.59-1.79 3.81-3.71 8.02-7.04 10.72l2.13.88c-.01-5.69 4.5-9.71 8.06-13.59 1.67-1.82 3.34-3.72 4.55-5.89 1.36-2.46 2.36-5.13 3.58-7.66 2.4-4.95 5.69-8.88 9.42-12.87 4.63-4.94 8.53-10.5 12.18-16.19 3.73-5.83 7.22-11.81 11.11-17.54 4.02-5.92 8.58-11.17 13.93-15.92 5.16-4.57 10.65-8.79 15.53-13.67 4.72-4.72 9.09-9.76 14.37-13.88 4.92-3.83 9.06-8.14 12.28-13.5 3.07-5.11 5.28-10.66 7.84-16.03 6.15-12.92 15.15-23.77 24.57-34.42 4.59-5.19 9.48-10.29 13.46-15.97s6.58-11.58 9.06-17.76c2.71-6.74 5.29-13.48 8.58-19.97 3.47-6.84 7.42-13.47 10.51-20.49 2.63-5.98 4.01-12.35 7.44-17.98 1.65-2.7 2.55-5.38 3.08-8.49.36-2.11.73-4.15 1.53-6.13l2.36-5.52c.19-.41.37-.92.66-1.13 1.12-.82 2.67-.37 3.58.5 1.54 1.47 2.41 3.51 4.02 4.95 1.24 1.12 2.44 1.42 3.87 2.09.57.26.1-.24.37.36.54 1.19.63 3.05.75 4.28.32 3.5-.17 7.03-.2 10.54-.05 6.96-.93 13.74-2.74 20.46-3.63 13.53-10.1 26.05-16.02 38.68-2.79 5.95-6.08 12.13-7.46 18.6-.76 3.56-1.22 7.17-2.85 10.48s-3.71 6.77-5.77 10c-4.01 6.26-8.77 11.99-12.98 18.11l-12.2 18.11c-4.28 6.18-9.04 11.82-13.81 17.61-3.89 4.73-5.65 10.47-8.43 15.83-3.27 6.31-7.87 11.85-12.13 17.51s-8.9 11.37-13.96 16.69c-10.35 10.89-19.08 23.24-28.96 34.56-4.47 5.13-9.33 9.98-13.02 15.73s-5.81 12.88-7.86 19.57c-1.13 3.69-1.8 7.43-3.47 10.94-1.42 2.99-3.23 5.78-4.72 8.74-1.18 2.36-1.86 4.59-2.11 7.22s-.13 5.45-.75 8.08c-.69 2.91-2.65 5.19-5.86 4.89-2.68-.25-5.15-1.68-7.61-2.64-4.33-1.69-8.32-1.28-11.46 2.37-2.43 2.82-4.1 8.02-8.11 8.87-1.57.33-.91 2.74.66 2.41 4.23-.89 6.06-5.22 8.34-8.39 1.36-1.88 3.14-3.71 5.6-3.86 2.67-.16 5.37 1.5 7.77 2.46 4.56 1.83 9.78 1.99 12.25-3.06 2.3-4.69.65-10.23 2.48-15.02 1.26-3.31 3.37-6.3 5-9.43s2.73-6.5 3.61-9.99c1.85-7.29 4.17-15.15 8.19-21.55s9.38-11.44 14.14-17.08l15.05-18.17c4.8-5.95 9.61-11.7 14.87-17.26 4.9-5.19 9.02-10.78 13.32-16.45s8.98-11.64 12.09-18.33c1.29-2.78 2.37-5.65 3.83-8.35 1.69-3.11 4.03-5.63 6.32-8.3 9.74-11.4 17.27-24.41 25.97-36.57 4.48-6.27 9.23-12.22 13.09-18.92 1.83-3.17 3.65-6.33 4.58-9.9s1.22-7.04 2.46-10.41c4.9-13.32 12.14-25.7 17.46-38.85 2.62-6.48 4.85-13.14 6.21-20s1.41-13.97 1.71-21.04c.13-3.1.04-6.26-.73-9.28-.29-1.14-.7-2.08-1.85-2.53-1.55-.6-2.68-.92-3.9-2.26-1.42-1.55-2.3-3.6-4.02-4.87-1.69-1.25-3.62-1.2-5.48-.35-1.52.7-1.8 1.77-2.44 3.23l-2.33 5.52c-.88 2.22-1.11 4.61-1.56 6.95-.72 3.72-2.74 6.45-4.38 9.77-1.33 2.68-2.29 5.5-3.24 8.33-2.48 7.39-6.17 14.16-9.82 21.03-3.51 6.61-6.71 13.3-9.47 20.26-2.6 6.56-5.07 13.2-8.65 19.31-3.82 6.52-9.06 12.07-14.05 17.7-4.78 5.4-9.58 10.8-13.99 16.51-4.36 5.64-8.29 11.58-11.47 17.96-2.74 5.48-4.97 11.22-7.95 16.58-3.35 6.03-7.71 10.67-13.11 14.9-5.41 4.25-9.85 9.48-14.73 14.29-5.11 5.03-10.85 9.35-16.15 14.17-5.15 4.68-9.47 9.93-13.36 15.69-4.02 5.96-7.63 12.19-11.54 18.22-3.97 6.12-8.4 11.62-13.32 16.99-3.51 3.83-6.19 7.94-8.38 12.64-1.22 2.62-2.24 5.4-3.92 7.78s-3.69 4.31-5.6 6.4c-3.29 3.6-6.28 7.56-6.27 12.64 0 1.17 1.33 1.54 2.13.88 6.17-5.01 8.15-13.85 11.81-20.58 4.02-7.39 10.98-13.23 9.76-22.43-.3-2.25-1.1-4.29-1.84-6.41-.99-2.86-1.33-5.83-1.33-8.85-.01-5.45.93-10.84 1.54-16.24 1.38-12.27 3.01-24.53 3.93-36.84.92-12.38.64-24.8.64-37.2s-1.08-23.96 1.25-35.7c2.22-11.2 6.25-21.98 8.07-33.28.65-4.02 1.91-9.32.43-13.27-.98-2.62-3.51-3.25-6.07-3.14-4 .17-7.71 1.17-9.54 5.04-1.92 4.06-2.76 9.4-2.77 13.83 0 6.63-2.9 12.39-3.88 18.86s-1.67 12.63-4.53 18.33l1.08-.62c-2.1.17-3.83-2.51-4.89-3.98-1.29-1.78-2.38-3.7-3.75-5.43-3.49-4.4-6.26-9.29-9.28-14.01-2.24-3.5-4.47-7.01-7.08-10.25-2.33-2.9-5.39-6.43-9.23-7.22-3.43-.7-6.95 2.21-8.73 4.92-2.62 3.99.76 7.74 3.55 10.39 4.57 4.35 6.34 10.46 10.12 15.38 4.47 5.82 9.45 11.24 13.89 17.09 3.45 4.55 7.84 9.29 9.61 14.81 1.05 3.29.95 6.73.99 10.14v11.28l-.11 46.21c0 6.64.88 14.07-1.44 20.42-1.11 3.04-2.73 5.88-3.85 8.92s-1.79 6.24-3.25 9.16c-3 6-7.7 11.43-11.64 16.84l-12.24 17.2c-8.71 12.81-15.89 26.26-21.15 40.84s-9.25 30.45-14.35 45.52l1.21-.92c-4.82.19-4.64-6.18-5.3-9.59-1.09-5.67-5.52-9.9-8.68-14.5-8.44-12.28-13.48-26.7-21.01-39.52-1.82-3.1-4.03-6.03-5.51-9.32-1.21-2.68-1.87-5.55-2.34-8.44-1.01-6.26-1.7-12.29-4.37-18.12-1.41-3.08-3.08-6.05-4.32-9.21s-1.79-6.58-2.28-10c-1.1-7.65-2.11-15.14-5.13-22.32-1.42-3.37-3.03-6.66-4.25-10.11s-1.99-7.22-2.63-10.9c-1.35-7.73-1.8-15.62-3.29-23.32-1.4-7.24-4.64-13.96-7.25-20.8-2.41-6.31-4.66-12.41-8.04-18.3s-7.24-11.07-11.45-16.22c-4.86-5.95-8.71-12.64-13.37-18.74-2.15-2.82-4.48-5.47-6.47-8.41s-3.61-5.7-5.31-8.62c-3.59-6.15-7.34-12.03-11.51-17.81-4.3-5.96-8.39-12.09-12.15-18.41-3.73-6.27-6.61-13.03-10.47-19.21-3.5-5.61-8.04-10.67-10.29-16.96-1.74-4.86-3.63-9.82-8.94-11.68-9.63-3.38-17.67 8.01-23.97 13.3-2.82 2.37-7.14 4.57-7.18 8.76-.06 6.02 4.42 11.78 7.46 16.59 8.33 13.17 15.83 26.86 24.07 40.09l12.15 19.23c3.85 6.17 7.79 12.29 12.43 17.9s9.66 10.89 13.59 17.04c1.84 2.88 3.41 5.89 5.42 8.66s4.15 5.37 6.2 8.07c4.14 5.47 7.02 11.16 8.53 17.88s2.04 13.8 3.01 20.71 2.99 14.26 4.8 21.33l6.07 23.29c4.12 15.37 8.51 30.68 13.49 45.79 4.78 14.5 10.57 28.32 17.72 41.81 3.51 6.62 7.2 13.15 10.91 19.66 2.68 4.71 4.76 9.72 7.44 14.42 2.19 3.85 5.13 7.48 9.59 8.64 1.56.41 2.22-2 .66-2.41h0z"/><path d="m783.72,1421.34c-4.61-4.61-8.97-9.67-14.02-13.79-5.96-4.87-12.68-7.83-17.83-13.7-17.57-20.02-36.67-38.69-55.87-57.09-25.34-24.28-49.33-49.72-70.66-77.34,7.18-1.39,22.29-6.75,29.7-3.22,4.98,2.37,11,13.79,15.32,18.07,5,4.96,9.99,9.51,15.29,14.14,12.23,10.67,26.97,18.73,38.32,30.26,9.39,9.53,19.05,17.61,29.04,25.91,5.04,4.19,8.95,9.75,13.86,14.07,5.13,4.5,11.63,6.72,15.48,12.76,4.21,6.59,5.92,12.65,12.35,17.82,4.69,3.77,10.62,8.04,16.41,9.97,14.58,4.86,29.74,1.75,44.3,5.29,10.31,2.51,33.34,1.65,40.67,10.04l-2.08.68" fill="#007857"/><path d="M784.61 1420.46c-5.02-5.04-9.68-10.5-15.35-14.84-5.32-4.08-11.45-7.14-16.03-12.13l-15.33-16.81-16.12-16.54-32.52-31.65c-10.58-10.36-20.92-20.96-30.9-31.88-11.21-12.26-21.96-24.93-32.12-38.07l-.55 2.09c4.27-.84 8.44-2.11 12.69-3.03 4.34-.94 9.14-1.9 13.58-1.06 4.14.78 6.65 4.19 9.04 7.4 2.63 3.54 4.95 7.4 7.95 10.65 4.29 4.64 9.18 8.85 13.91 13.02 4.49 3.96 9.18 7.65 14.01 11.17l14.85 10.85c4.84 3.74 9.24 7.84 13.59 12.13 4.68 4.63 9.57 9.05 14.55 13.35 4.75 4.1 9.83 7.91 14.38 12.23 4.39 4.17 7.98 9.17 12.7 12.98 3.95 3.18 8.69 5.37 12.23 9.05 3.71 3.85 5.54 9.2 8.4 13.65 3.09 4.81 7.45 8.27 12.09 11.49 5.17 3.59 10.64 6.13 16.81 7.41s12.69 1.53 19.07 1.75c6.48.23 12.98.49 19.31 1.97 3.69.86 7.48 1.26 11.24 1.66 4.48.48 8.97.91 13.41 1.68 4.01.7 8.16 1.58 11.79 3.49 1.47.77 2.8 1.7 3.91 2.94l.55-2.09-2.08.68c-1.52.5-.87 2.91.66 2.41l2.08-.68c.92-.3 1.19-1.37.55-2.09-2.46-2.74-5.99-4.29-9.45-5.37-4.26-1.33-8.71-1.99-13.12-2.55l-13.1-1.48c-4.8-.62-9.46-1.91-14.28-2.41-12.67-1.32-26.57.52-38.46-5-2.83-1.31-5.5-2.98-8.05-4.77-2.48-1.74-4.99-3.56-7.13-5.71-3.79-3.81-5.93-8.74-8.58-13.33-1.4-2.42-2.95-4.67-5.04-6.55-1.86-1.68-3.95-3.07-6.04-4.43-2.32-1.51-4.62-3.03-6.66-4.91-2.2-2.02-4.19-4.25-6.19-6.46-2.05-2.27-4.12-4.53-6.44-6.53-2.46-2.13-5-4.17-7.49-6.26-5-4.21-9.93-8.49-14.71-12.94-4.67-4.35-9.01-9.05-13.9-13.17-4.57-3.86-9.42-7.39-14.28-10.88s-10.06-7.18-14.83-11.1c-4.95-4.07-9.68-8.43-14.32-12.85-1.92-1.83-3.89-3.63-5.55-5.71-1.41-1.77-2.69-3.65-4-5.49-2.48-3.5-5.03-7.53-8.63-10-3.38-2.31-8.05-2.17-11.94-1.74-4.83.53-9.55 1.72-14.25 2.91-1.84.47-3.67.94-5.53 1.31-1.03.2-1.07 1.42-.55 2.09 18.18 23.53 38.3 45.5 59.42 66.41l32.44 31.53c10.82 10.71 21.43 21.64 31.57 32.99 2.61 2.92 5.11 5.81 8.22 8.22 2.87 2.22 5.96 4.12 8.94 6.18 6.74 4.65 12.05 10.82 17.78 16.58 1.14 1.14 2.9-.63 1.77-1.77h0z"/><path d="M869.51 1363.13l-.01-23.15c.07-7.72-2.9-13.94-3.12-21.81-.27-9.48.21-19.01.08-28.5-.1-7.51-1.76-24.38 11.95-18.03 1.38 5.81-.18 11.98.98 17.96 1.29 6.69 1.46 14.1 3.06 20.77 1.49 6.19 2.23 10.66 2.35 17.28.12 7.04 3.06 12.78 3.18 19.91.08 4.76-.23 11.67 2.76 15.73 3.7 5.02 12.67 6.4 18.52 8.27 7.13 2.29 14.82 3.11 21.6 6.05 5.67 2.46 8.85 4.06 15.25 3.91" fill="#007857"/><path d="M870.76 1363.13l-.04-13.54c0-4.29.28-8.67-.11-12.95-.34-3.78-1.29-7.45-2.05-11.16-.83-4.06-.99-8.08-1.01-12.22-.04-8.29.34-16.58.13-24.87-.1-3.97-.36-8.1.61-11.99.42-1.66 1.13-3.55 2.72-4.42 2.09-1.13 4.78-.16 6.76.74l-.57-.75c1.26 5.6-.04 11.39.82 17.04.43 2.82.91 5.62 1.24 8.45l1.04 8.34c.81 5.26 2.37 10.34 2.9 15.65.26 2.65.21 5.31.43 7.95.21 2.59.75 5.14 1.35 7.66s1.28 5.17 1.57 7.81c.25 2.3.17 4.61.23 6.92.11 4.18.43 8.9 3.06 12.35 2.49 3.26 6.57 4.89 10.36 6.1a228.55 228.55 0 0 0 13.06 3.74c5.98 1.51 12.07 2.56 17.76 5.04 2.35 1.03 4.71 2.11 7.19 2.81 2.57.73 5.23.97 7.9.93 1.61-.03 1.61-2.53 0-2.5-4.27.07-8.06-.92-11.96-2.59-4.32-1.85-8.59-3.36-13.18-4.44a309.13 309.13 0 0 1-13.46-3.51c-3.55-1-7.22-1.81-10.58-3.37-1.61-.74-3.17-1.65-4.41-2.92-1.31-1.34-2.04-3.05-2.48-4.84-.96-3.84-.65-7.8-.82-11.72-.19-4.63-1.6-9.04-2.5-13.55s-.64-9.38-1.26-14.05c-.61-4.62-1.93-9.08-2.66-13.68-.78-4.91-1.1-9.88-1.92-14.79-.43-2.58-.71-5.07-.69-7.69.02-2.47.17-4.93.04-7.4a27.54 27.54 0 0 0-.41-3.51c-.23-1.22-.56-1.58-1.68-2.04-1.42-.59-2.89-1.04-4.43-1.15-5.17-.37-7.53 4.22-8.19 8.66-.86 5.72-.25 11.65-.28 17.4l-.18 15.73c-.01 5.03.04 9.99 1.02 14.94.9 4.5 2.12 8.93 2.18 13.55v15.95l.02 7.88c0 1.61 2.5 1.61 2.5 0h0z"/><path d="M1117.68 1258.96c-1.39-7.77-32.52-12.08-39.7-14.49-21.9-7.35-44.73-12.22-66.34-19.15-5.49-1.76-6.35-1.11-10.65-5.94s-9.22-9.33-13.53-14.29c-9.13-10.52-17.84-20.62-27.74-30.55-10.17-10.2-17.78-19.06-25.19-31.48-5.83-9.76-14.62-16.04-21.37-24.96-6.83-9.02-15.21-16.48-22.28-25.34-2.33-2.92-15.58-16.78-14.74-19.27 1.62-4.81 13.75-8.37 18.63-7.16 7.7 1.92 14.11 14.72 17.64 21.07 11.21 20.14 29.43 35.86 45.95 51.39 6.97 6.55 14.56 12.14 21.44 19.05 3.09 3.11 13.97 17.16 17.93 14.39 2.02-7.48.46-17.13.46-24.85v-30.52-24.61c-.12-10.67-.3-9.42 9.34-13.13 9.07 6.49 4.46 23.52 6.23 32.78 1.99 10.4 4.61 20.88 6.02 31.39.51 3.77-.72 7.65-.32 11.42.58 5.4 3 9.99 3.29 15.48.35 6.56-2.27 16.03 2.1 21.61 4.68 5.96 21.19 7.29 28.45 8.95 10.42 2.39 19.78 3.61 29.9 6.99 9.89 3.3 21.82 7.55 32.24 8.5 6.88.62 13.07 1.2 19.9 2.22 4.84.72 11.23-.74 15.69.99 1.65 5.55-1.78 12.7-3.12 18.11s-2.32 9.67-3.14 14.83c-3.34.83-8.35 1.25-11.8.62-4.42-.81-7.46-4.23-12.26-3.22" fill="#007857"/><path d="M1118.89 1258.63c-.44-2.19-2.43-3.73-4.23-4.82-2.66-1.61-5.67-2.69-8.61-3.65-6.87-2.23-13.98-3.66-21.03-5.22-8.63-1.91-16.94-5-25.44-7.41l-36.88-10.15c-5.13-1.49-10.32-2.92-15.38-4.65-1.58-.54-2.82-1.5-3.98-2.67-2.09-2.09-4.01-4.36-6.08-6.48-4.37-4.49-8.6-9.03-12.71-13.76l-12.39-14.01c-7.95-8.73-16.65-16.78-24.2-25.87a135.57 135.57 0 0 1-9.81-13.42c-1.54-2.4-2.93-4.91-4.59-7.24-1.56-2.2-3.28-4.28-5.08-6.28-3.64-4.05-7.62-7.78-11.22-11.87-3.85-4.38-7.29-9.08-11.24-13.39-4.02-4.39-8.18-8.64-12.04-13.18l-6.22-7.25c-2.43-2.74-4.87-5.49-7.13-8.38-.9-1.15-1.79-2.33-2.54-3.58-.21-.35-.49-.83-.61-1.14-.07-.18-.11-.35-.16-.53.04.16-.1.23.04.03.96-1.33 1.86-2.27 3.31-3.11 1.72-1 3.58-1.72 5.49-2.27 3.23-.93 7.05-1.7 10.17-.08 3.76 1.96 6.5 5.68 8.8 9.14s4.25 7.18 6.29 10.83c5.47 9.77 12.59 18.52 20.26 26.63 7.68 8.11 15.95 15.62 24.1 23.25 4.34 4.06 8.85 7.91 13.38 11.77 3.79 3.23 7.66 6.49 10.99 10.21 2.29 2.56 4.51 5.16 6.93 7.6 2.22 2.23 4.78 4.84 7.83 5.88 1.04.35 2.33.45 3.3-.17.9-.57.95-1.77 1.13-2.74.26-1.37.42-2.75.52-4.14.41-5.65-.24-11.29-.41-16.94-.19-6.35-.04-12.73-.04-19.08l.01-19.91-.02-19.3c-.02-2.13-.58-5.96.89-7.59.59-.65 1.54-1.05 2.37-1.4 1.7-.71 3.46-1.3 5.18-1.97l-.96-.13c5.15 3.79 5.29 11.32 5.27 17.11 0 3.2-.17 6.41-.1 9.61.08 3.67.84 7.19 1.58 10.78l3.08 14.9c.92 4.76 2.2 9.79 1.84 14.65-.18 2.4-.59 4.79-.38 7.21.19 2.19.71 4.34 1.3 6.46 1.17 4.2 2.2 8.17 1.99 12.57-.3 6.47-2.02 15.2 3.41 20.17 4.44 4.07 11.42 5.23 17.13 6.3l9.1 1.61c4.17.8 8.32 1.77 12.49 2.61 4.61.92 9.23 1.87 13.77 3.11 4.47 1.22 8.84 2.81 13.24 4.25 8.66 2.84 17.35 5.27 26.45 6.1 4.98.46 9.97.94 14.93 1.6 2.23.3 4.43.68 6.68.69 2.08.01 4.15-.13 6.22-.11 1.98.01 3.94.16 5.81.84l-.87-.87c1.36 4.96-.97 10.26-2.41 14.94-1.73 5.63-2.91 11.52-3.85 17.33l.87-.87c-4.02.96-8.89 1.51-12.88.16-1.82-.61-3.5-1.59-5.3-2.26-1.93-.71-3.86-.88-5.88-.51-1.58.29-.91 2.7.66 2.41 4.14-.77 7.51 2.39 11.39 3.18 4.1.83 8.63.38 12.67-.58.38-.09.81-.47.87-.87 1.15-7.07 2.83-14 4.96-20.83.93-2.99 1.81-6.11 1.79-9.27 0-1.08.01-3.23-.81-4.05-.87-.87-2.84-.96-4.01-1.09-3.21-.37-6.45 0-9.67-.05-3.59-.07-7.2-.84-10.77-1.25-7.32-.84-14.66-1.19-21.86-2.89s-13.64-3.93-20.37-6.19-14.04-3.96-21.23-5.39l-16.9-3.38c-5.06-.86-10.2-1.71-15.03-3.48-1.95-.71-3.99-1.62-5.52-3.05-1.92-1.8-2.67-4.47-2.91-7.02-.57-5.96 1.02-11.9-.04-17.84-.61-3.45-1.88-6.73-2.57-10.16-.75-3.74.03-7.27.1-11.01.08-3.72-.85-7.56-1.51-11.2-.71-3.85-1.51-7.69-2.32-11.52-1.25-5.95-2.78-11.8-2.77-17.91.01-5.05.39-10.12-.27-15.14-.31-2.36-.85-4.66-1.86-6.82-.86-1.82-2.39-4.2-4.26-5.12-1-.49-2.64.51-3.6.87s-1.85.68-2.75 1.06c-1.26.52-2.55 1.11-3.45 2.17s-1.21 2.44-1.34 3.82c-.23 2.26-.09 4.57-.07 6.84l-.01 24.07v23.98c0 3.59-.05 7.18.12 10.77s.42 6.95.45 10.43c.03 3.31-.15 6.63-.99 9.85l.57-.75c-1.33.86-3.91-1.34-5-2.25-2.4-2-4.55-4.31-6.64-6.63-1.59-1.77-3.1-3.62-4.77-5.31-3.65-3.73-7.66-7.1-11.64-10.47-7.49-6.34-14.64-13.05-21.78-19.77-6.96-6.56-13.81-13.27-20.04-20.55-5.88-6.86-10.88-14.21-15.23-22.12-3.41-6.19-7.2-13.35-13.3-17.31-5.34-3.46-12.53-1.61-17.87.97-2.23 1.07-5.29 2.89-5.91 5.52-.41 1.72 1.16 3.69 2.08 4.99 3.37 4.77 7.41 9.05 11.27 13.41 2.24 2.53 4.32 5.19 6.57 7.71 3.36 3.75 6.87 7.37 10.25 11.1 3.34 3.68 6.29 7.65 9.51 11.43 3.04 3.58 6.41 6.86 9.65 10.26 3.3 3.46 6.45 7.07 8.96 11.16 2.49 4.06 5.03 8.05 7.86 11.88 5.56 7.54 11.94 14.36 18.53 21.01 7.53 7.59 14.63 15.59 21.65 23.65 3.49 4 6.93 8.03 10.63 11.83l5.6 5.75c1.62 1.71 3.12 3.57 4.87 5.16 2.24 2.04 4.79 2.71 7.63 3.55l14.84 4.47 31.31 8.56 15.75 4.65c2.96.93 5.87 2 8.88 2.73l16.65 3.8c5.42 1.36 11.28 2.74 16.09 5.7 1.29.79 2.71 1.86 2.99 3.27.32 1.58 2.73.91 2.41-.66h0zm-910.94 95.31c-.08-6.56 2.33-12.55 5.71-18.05 1.78-2.89 3.33-5.96 5.57-8.54 1.9-2.19 3.98-4.29 5.14-7l-2.28-.96c-1.01 2.82-2 5.65-3.25 8.37s-2.89 5.14-4.68 7.56c-3.63 4.9-7.25 9.92-8.9 15.87l2.46.33c-.15-3.43 1.51-6.68 3.17-9.58s3.41-5.37 4.99-8.13c1.41-2.45 2.8-4.92 4.41-7.25 1.28-1.85 3.05-4.57 5.38-5.18l-1.41-.57c1.29 1.7.45 4.04-.33 5.79-1.13 2.53-2.7 4.85-4.3 7.1-1.41 1.98-2.77 4.05-4.32 5.9-1.16 1.39-2.39 2.77-3.04 4.48-.51 1.33-.61 3.29-1.83 4.22l1.84.75c-.3-1.48 1.02-3.75 1.74-5.1 1.3-2.43 2.82-4.73 4.4-6.98 3.37-4.81 7.24-9.25 10.05-14.45.76-1.42-1.38-2.68-2.16-1.26-5.53 10.06-13.76 18.43-18.46 28.97-.66 1.47 1.21 2.58 2.16 1.26 3.59-4.97 7.44-9.76 11.12-14.66 1.28-1.71 2.73-3.28 4.03-4.97 1.17-1.52 2.47-3.2 2.87-5.12.28-1.36-1.53-2.22-2.28-.96-1.4 2.33-1.24 5.14-2.57 7.48-1.34 2.33-3.21 4.29-4.41 6.71-2.51 5.07-6.38 9.36-8.45 14.66-.54 1.38 1.54 2.08 2.28.96 4.57-6.85 7.32-14.76 12.24-21.39l-2.28-.3c.76 2.18-1.76 6.09-3.92 6.57-1.57.35-.91 2.76.66 2.41 2.02-.45 3.54-2.26 4.53-3.99.92-1.61 1.78-3.81 1.14-5.66-.38-1.08-1.64-1.17-2.28-.3-4.93 6.63-7.68 14.54-12.24 21.39l2.28.96c2.03-5.18 5.87-9.48 8.38-14.42 1.18-2.34 3.06-4.23 4.32-6.51s1.13-5.07 2.48-7.32l-2.28-.96c-.38 1.81-1.75 3.43-2.88 4.84-1.3 1.62-2.7 3.17-3.93 4.85-3.58 4.88-7.42 9.56-10.97 14.46l2.16 1.26c4.7-10.54 12.94-18.91 18.46-28.97l-2.16-1.26c-2.94 5.45-7.05 10.1-10.55 15.18-1.6 2.32-3.15 4.71-4.4 7.24-.9 1.81-1.91 3.97-1.49 6.05.15.73 1.21 1.22 1.84.75 1.47-1.12 2.05-2.59 2.54-4.33.56-1.97 1.67-3.36 2.97-4.93 1.75-2.11 3.31-4.45 4.89-6.7 1.73-2.46 3.39-5.02 4.49-7.84.87-2.23 1.4-5.06-.17-7.12-.35-.45-.83-.73-1.41-.57-2.73.71-4.72 3.36-6.3 5.52-1.82 2.49-3.34 5.18-4.87 7.85-1.68 2.94-3.63 5.72-5.3 8.68-1.79 3.18-3.48 6.77-3.32 10.51.06 1.38 2.07 1.73 2.46.33 1.66-6 5.48-11 9.13-15.93 1.76-2.37 3.25-4.78 4.45-7.48 1.22-2.75 2.23-5.57 3.24-8.4.47-1.32-1.73-2.27-2.28-.96-1.23 2.89-3.54 4.99-5.49 7.37-2.24 2.75-3.86 5.98-5.72 8.99-3.42 5.51-5.62 11.95-5.54 18.49.02 1.61 2.52 1.61 2.5 0h0z"/></g></svg>