<svg xmlns="http://www.w3.org/2000/svg" viewBox="0 0 1080 1350" xmlns:v="https://vecta.io/nano"><defs><clipPath id="A"><path d="M0 0h1080v1350H0z" fill="none"/></clipPath></defs><g clip-path="url(#A)"><path d="M-35.29-64.15h1147.72v1458.53H-35.29z" fill="#0d8467"/><path d="m667.34,1224.5c5.13,1.14,8.57,10.19,11,14.35,3.37,5.76,7.64,9.33,9.93,15.43,2.3,6.12,10.02,17.31,16.57,19.05,7.2,1.91,18.74-.95,25.6-2.59,8.69-2.07,17.08-2.22,26.32-2.02,4.35.09,7.53,1.84,11.79,2.35s9.55.13,13.87-.07,5.96-3.35,9.9-4.37c3.34-.86,7.19,1.38,9.61-2.1,3.23-4.63-.35-8.44-3.99-9.16s-8.42.09-12.26.09c3.13-.04,6.35.43,9.33-.33-5.87-11.51-21.44-4.7-30.34-4.05-10.17.75-22.61-3.47-32.18-6.41-4.57-1.4-7.86-1.91-12.55-2.37-5.3-.52-10.84-2.03-13.39-6.66-1.48-2.69-1.98-5.84-3.66-8.44-2.28-3.54-5.23-4.31-8.51-6.57-5.17-3.57-11.34-7.38-15.98-11.62" fill="#ffe443"/><path d="m667.01,1225.71c2.34.58,3.97,2.72,5.24,4.64,1.49,2.26,2.67,4.69,3.91,7.09,2.98,5.77,7.96,10.32,10.56,16.29,1.06,2.43,2.07,4.8,3.47,7.07,1.54,2.53,3.3,4.94,5.27,7.15,1.8,2.03,3.84,3.98,6.21,5.35,2.28,1.33,4.85,1.76,7.46,1.88,6.34.29,12.75-1.14,18.89-2.58,3.45-.81,6.88-1.6,10.4-2.02,3.88-.47,7.79-.64,11.69-.67s7.73-.15,11.49.83c3.46.9,6.75,1.71,10.34,1.82s7.45.03,11.08-.35c2.95-.31,4.95-2.04,7.43-3.44,1.3-.74,2.62-1.11,4.12-1.09,1.33.02,2.66.23,3.99.1,3.09-.31,5.34-2.82,5.8-5.84.44-2.83-1.17-5.41-3.58-6.8-2.84-1.63-6.44-1.39-9.59-1.19-1.83.11-3.66.27-5.5.29-1.61.01-1.61,2.51,0,2.5,3.24-.01,6.47.37,9.66-.37.82-.19,1.11-1.15.75-1.84-1.64-3.13-4.28-5.44-7.66-6.49s-6.88-.88-10.27-.44-6.82,1.23-10.24,1.83c-4.07.71-8.17.62-12.26.03-5.13-.74-10.15-2.1-15.11-3.58s-9.46-3.13-14.36-3.99c-4.48-.78-9.27-.64-13.5-2.49-1.92-.84-3.67-2.1-4.79-3.9-1.31-2.11-1.87-4.6-2.86-6.87-1.05-2.4-2.67-4.36-4.81-5.86-2.08-1.45-4.34-2.61-6.44-4.04-4.95-3.36-10.05-6.56-14.5-10.59-1.19-1.08-2.96.68-1.77,1.77,3.9,3.54,8.3,6.47,12.66,9.4,2,1.34,3.96,2.74,6.04,3.95,1.93,1.11,3.85,2.21,5.2,4.03,2.83,3.81,2.84,8.98,6.66,12.18,3.26,2.73,7.54,3.66,11.67,4.09,5.04.52,9.79,1.52,14.63,3.03,4.86,1.51,9.73,3.02,14.69,4.15,4.71,1.07,9.58,1.86,14.42,1.69,3.37-.12,6.67-.89,9.97-1.53,7.18-1.39,16.42-2.83,20.46,4.89l.75-1.84c-2.95.68-6,.27-8.99.28v2.5c3.55-.03,7.11-.65,10.66-.32,2.49.23,5.56,1.58,5.6,4.51.02,1.45-.86,3.23-2.14,3.95-1.08.61-2.42.46-3.61.39-2.79-.17-5.15.17-7.56,1.67-1.06.66-2.05,1.42-3.16,2-1.5.77-3.06.83-4.71.91-3.51.18-7.04.38-10.55.14s-6.45-1.4-9.73-2.06c-3.53-.71-7.26-.53-10.85-.5-7.24.08-14.28.88-21.32,2.55-5.81,1.38-11.75,2.74-17.75,2.75-2.46,0-5.07-.17-7.27-1.36-2.35-1.27-4.31-3.19-6.07-5.17-3.53-3.98-6.1-8.47-8.18-13.33-1.43-3.36-3.62-6.22-5.81-9.11-1.95-2.57-3.71-5.21-5.18-8.09-1.31-2.56-2.59-5.16-4.28-7.5-1.54-2.13-3.46-4.21-6.1-4.87-1.56-.39-2.23,2.02-.66,2.41h0Z"/><path d="m853.15,1067.45c4.77-.76,5.88,2.52,9.34,3.99,3.19,1.36,7.11,1.29,10.57,2.65,6.38,2.5,12.59,2.93,18.78,4.63,6.26,1.72,34.39,7.42,38.55-1.49,2.02-4.32-.86-9.43-3.64-12.67-5.58-6.52-12.2-7.33-17.03-15.7-4.27-7.4-4.67-16.73-10.07-23.44-5.61-6.97-9.73-15.03-15.42-22.12-3.68-4.58-5.37-5.52-7.2-11-1.31-3.94-5.58-10.92-10.34-8.8-.77,2.61-.36,5.51-.1,8.16-.34-1.5-1.14-2.73-2.39-3.71-3.82.15-2.32,7.61-1.93,10.32-1.08-2.48-3.74-5.86-6.65-6.04-1.25,3.89-.48,9.2-.31,13.33.24,5.86,4.34,8.62,7.81,13.22,3.07,4.08,5.27,7.19,6.61,12.08.84,3.05,4.12,10.82,3.09,13.68-3.64-1.32-6.9-3.21-10.83-3.64" fill="#ffe443"/><path d="M853.48 1068.66c3.5-.48 5.24 2.38 8.09 3.73 1.95.93 4.1 1.28 6.21 1.66 2.36.42 4.51 1.14 6.77 1.9 4.51 1.52 9.23 2.19 13.87 3.21 2.22.49 4.4 1.13 6.62 1.61 5.14 1.12 10.37 1.94 15.61 2.35s10.72.64 15.59-1.12c1.89-.68 3.7-1.72 4.84-3.42 2.05-3.08 1.28-7.06-.24-10.18-1.69-3.46-4.41-6.36-7.44-8.69-2.72-2.1-5.75-3.8-8.29-6.13-6.34-5.81-7.41-14.29-10.49-21.88-.75-1.85-1.61-3.66-2.71-5.33-1.18-1.79-2.61-3.42-3.86-5.16-2.7-3.78-5.12-7.74-7.69-11.59-2.41-3.62-5.02-7.04-7.85-10.34-.97-1.13-1.9-2.27-2.64-3.57-.86-1.51-1.33-3.14-1.98-4.74-1.18-2.93-2.97-5.9-5.57-7.78-1.14-.82-2.54-1.4-3.96-1.35-.69.02-1.53.15-2.14.5-.91.52-.97 1.7-1.09 2.66-.28 2.22 0 4.44.22 6.65l2.46-.33c-.43-1.66-1.89-4.81-3.98-4.59-1.52.16-2.54 1.32-3.01 2.7-.97 2.89-.17 6.24.25 9.16l2.28-.96c-1.42-3.13-4.13-6.29-7.73-6.66-.55-.06-1.06.43-1.21.92-1.24 4.11-.64 8.5-.4 12.7.11 2.01.33 3.86 1.15 5.72.72 1.64 1.79 3.07 2.93 4.44 2.64 3.16 5.35 6.2 7.51 9.74 1.88 3.07 2.77 6.42 3.92 9.79.62 1.83 1.24 3.66 1.71 5.54.34 1.35.81 3 .37 4.38l1.54-.87c-3.71-1.38-7.18-3.19-11.16-3.69-1.59-.2-1.58 2.3 0 2.5 3.7.46 7.04 2.32 10.5 3.6.65.24 1.35-.27 1.54-.87.87-2.71-.41-6.12-1.23-8.69-1-3.13-1.89-6.41-3.19-9.42-1.62-3.74-4.12-7.14-6.71-10.26-2.38-2.86-5.38-5.55-6.15-9.35-.47-2.33-.42-4.91-.53-7.29-.11-2.45-.11-4.94.6-7.3l-1.21.92c2.63.27 4.58 3.24 5.57 5.42.64 1.41 2.47.31 2.28-.96-.25-1.7-.54-3.4-.57-5.13-.02-.97-.13-3.5 1.29-3.61l-.88-.37c1.05.87 1.72 1.83 2.06 3.16s2.6 1.1 2.46-.33c-.26-2.6-.64-5.26.06-7.83l-.87.87c2.85-1.17 5.19 1.41 6.63 3.59 1.72 2.59 2.37 5.58 3.82 8.3s3.58 4.79 5.47 7.09c2.74 3.35 5.11 6.97 7.46 10.59 2.36 3.63 4.69 7.28 7.34 10.72 2.39 3.11 4.13 6.25 5.42 9.96 2.45 7.07 4.09 14.51 9.66 19.91 2.31 2.24 5.05 3.93 7.67 5.79 2.87 2.03 5.47 4.43 7.32 7.44 1.6 2.61 3.12 6.57 1.01 9.35-.99 1.3-2.63 1.99-4.15 2.43-4.66 1.37-9.81 1.1-14.59.69s-9.52-1.16-14.19-2.17c-1.84-.4-3.65-.9-5.48-1.34-4.29-1.03-8.68-1.63-12.93-2.83-2.1-.59-4.09-1.49-6.2-2.02-1.99-.5-4.04-.72-6.04-1.21-1.69-.41-3.13-1.06-4.51-2.11-1.08-.83-2.1-1.71-3.38-2.24-1.47-.61-2.97-.62-4.52-.41s-.91 2.63.66 2.41h0z"/><path d="M564.16 962.01c-4.91-5-11.04-8.73-15.59-14.1-3.19-3.77-4.29-8.18-6.9-12.21-3.47-5.35-9.5-9.22-13.87-13.85-4.8-5.08-9.24-10.5-13.82-15.77-9.86-11.35-20.53-22.26-30.96-33.12-3.84 3.87-17.49-1.03-13.76 6.53 1.03 2.09 2.89 3.64 3.97 6.04 1.68 3.74 3.1 8.16 5.6 11.82 5.4 7.91 7.57 16.75 11.83 24.82 6.34 12.03 12.31 24.44 19.05 36.23 6.09 10.67 15.01 21.36 22.26 31.18 3.55 4.82 5.07 9.01 7.51 14.26 2.07 4.46 5.4 7.98 7.98 12.16 2.26 3.66 3.11 8.26 5.34 11.77 3.95 6.2 10.6 11.8 15.17 17.66 4.18 5.36 6.89 11.83 10.9 17.48 4.81 6.77 7.58 13.72 13.26 19.89s7.92 13.19 11.5 20.09c2.01 3.88 5.04 5.95 7.87 9.19 3.7 4.23 6.01 10.03 8.89 14.78 5.29 8.72 12.36 15.39 19.47 22.53 23 23.12 46.77 46.41 62.26 75.16-1.81 5.04-9.49 7.49-13.71 10.2-5.28 3.39-10.84 3.25-16.75 5.24-3.42 1.15-7.52 3.46-10.95 4.02-5.82.95-9.63-7.02-13.71-11.14-10.19-10.27-23.29-17.26-33.84-27.05-6.32-5.87-11.87-12.58-18.21-18.43-7.58-6.99-15.42-13.04-22.72-20.44-5.05-5.12-10.94-8.72-16.03-13.71l-12.73-12.78c-7.83-7.83-15.14-15.88-24.28-22.01-5.53-3.72-8.3-9.48-13.33-13.56-5.3-4.29-11.26-7.9-16.61-12.19-6.8-5.45-13.06-13.76-18.51-20.49-3.53-4.35-6.75-8.98-10.14-13.52-8.27-11.06-18.39-20.48-26.07-32.1-4.13-6.25-7.82-10.97-12.78-16.59-5.7-6.46-9.06-14.49-13.32-21.86-6.48-11.21-9.87-23.99-14.89-35.95-2.67-6.36-4.5-12.92-7.13-19.24s-6.43-13.32-8.36-20.33c-3.21-11.68-8.15-22.74-11-34.97-3.14-13.45-11.64-23.85-14.92-37.22-2.56-10.41-7.3-22.61 1.57-31.33 6.73-6.61 14.16-14.8 21.78-20.13 10.86-7.59 22.06-14.11 30.94-24.19 6.3-7.15 15.89-10.49 23.89-15.38 2.71-1.66 4.46-3.36 6.93-4.98 5.18-3.39 8.78-4.7 15.04-6.58 6.98-2.1 13.72-5.75 19.9-9.38 2.44-1.43 4.1-3.98 7.02-3.83 2.7.14 7.78 7.58 9.47 9.25 6.24 6.16 11.82 13.08 17.2 20 6.14 7.9 13.12 15.09 19.51 22.86 6.03 7.33 10.64 16.14 17.47 22.73 3.79 3.65 8.55 5.64 11.61 9.92 4.21 5.89 7.57 12.17 12.37 17.75 12.93 15.02 28.44 28.82 40.01 44.87 5.71 7.92 13.57 14.27 18.71 22.52 4.32 6.94 9.61 11.8 15.29 17.55 3.42 3.46 8.05 5.55 11.13 9.31 2.57 3.14 3.85 7.92 6.91 10.62 1.43 1.27 4.04 1.48 5.66 2.53 3.36 2.18 5.37 5.65 8.66 7.92 7.49 5.16 15.66 8.94 24.11 11.93 10.7 3.79 20.82 9.28 31.34 13.54 7.96 3.23 16.39 4.3 24.27 7.58 18.45 7.69 34.77 19.08 52.61 27.82 6.78 3.32 13.51 6.9 20.39 9.95 8.05 3.58 16.99 5.15 24.91 9.07 2.89 1.43 5.31 3.81 8.39 4.88 2.55.88 5.51.59 8.12 1.42 2.21.7 3.96 2.18 6.2 2.89 3.32 1.05 6.87.21 9.67 2.77 5.32 4.87-.45 13.4-3.46 18.24-3.45 5.54-5.95 10.87-8.91 16.65-1.54 3-4.45 9.35-7.09 11.17-4.36 3-13.34-.46-17.72-1.39-13.29-2.84-26.59-4.3-39.81-8.72-6.82-2.28-14.08-4.02-20.52-7.18-4.5-2.21-7.7-3.09-12.29-4.49l-3.87-.43-5.4-3.62c-5.33-1.8-12.46-.6-18.15-1.98-7.25-1.76-14.57-2.95-21.68-5.03-6.82-1.99-13.8-1.72-20.59-3.83-6.42-1.99-12.58-4.83-19.06-6.69-8.51-2.44-16.22-4.85-24.57-7.8-6.42-2.27-12.8-5.74-19.23-7.74-7.39-2.3-13.21-3.36-19.48-8.73-6.49-5.56-14.25-8.27-20.63-14.01-5.8-5.23-12.14-9.43-17.53-15.32-6.48-7.08-12.28-14.53-19.06-21.43z"/><path d="M565.04 961.12c-3.32-3.31-7.09-6.1-10.62-9.17-3.83-3.34-6.62-6.89-8.81-11.47-1.96-4.1-4.15-7.63-7.42-10.81s-7.01-6.05-10.19-9.44c-7.36-7.86-14.08-16.3-21.37-24.24-7.44-8.11-15.11-15.99-22.73-23.92-.48-.5-1.28-.45-1.77 0-3.05 2.77-8.64.73-12.31 2.07-5.28 1.94-.5 7.55 1.27 10.18 2.32 3.44 3.28 7.72 5.27 11.37 2.07 3.81 4.49 7.29 6.28 11.27 1.74 3.88 3.21 7.86 4.95 11.74 1.87 4.18 4.13 8.19 6.22 12.26l13.56 25.85c4.51 8.05 9.9 15.48 15.48 22.81 5.28 6.94 10.43 13.5 14.02 21.5 1.78 3.98 3.82 7.49 6.39 11.02 2.74 3.76 4.58 7.47 6.3 11.78 2.98 7.49 9.09 12.85 14.39 18.72 6.07 6.72 9.92 15 14.92 22.48 2.36 3.55 4.37 7.31 6.64 10.92s5.29 6.74 7.86 10.23c4.89 6.62 6.67 15.31 12.15 21.44 2.84 3.18 5.9 5.86 8.14 9.55 2.19 3.61 3.91 7.48 6.16 11.06 4.53 7.22 10.51 13.32 16.5 19.31 12.35 12.34 24.79 24.64 36.3 37.78 5.91 6.74 11.56 13.71 16.73 21.04 2.48 3.51 4.85 7.09 7.09 10.75 1.12 1.83 2.21 3.69 3.26 5.57.52.93 1.05 1.5.65 2.55-.27.72-1.11 1.42-1.68 1.93-2.62 2.34-5.98 3.69-9.03 5.35-3.62 1.97-6.9 3.51-10.97 4.38-3.85.83-7.49 1.77-11.12 3.31s-7.69 3.87-11.29 1.22c-2.7-1.98-4.56-5-6.66-7.56-2.46-2.99-5.45-5.56-8.44-8.01-6.64-5.46-13.86-10.17-20.62-15.47s-12.83-11.9-18.93-18.23c-6.45-6.69-13.64-12.54-20.58-18.7-3.42-3.04-6.58-6.32-9.95-9.4-3.26-2.98-6.86-5.56-10.25-8.4-6.96-5.82-13.13-12.74-19.49-19.19-6.09-6.18-12.18-12.44-19.22-17.56-3.49-2.54-6.41-5.06-9.17-8.38-2.46-2.95-4.94-5.65-8-8-7.33-5.63-15.19-10.32-21.54-17.13-6.11-6.56-11.71-13.76-17.02-20.98-5.18-7.05-10.56-13.81-16.32-20.4-6.08-6.95-11.57-14.08-16.86-21.64-4.86-6.94-11.06-12.92-15.51-20.11-2.33-3.77-4.31-7.74-6.42-11.63-2.09-3.85-4.26-7.62-6.04-11.64-3.69-8.31-6.37-17.02-9.78-25.45-3.38-8.34-5.97-16.97-9.68-25.18-1.93-4.28-4-8.52-5.53-12.96s-2.64-8.84-4.13-13.21c-2.91-8.58-5.85-17.05-8.09-25.83-2.06-8.06-6.1-15.35-9.64-22.82-3.47-7.33-5.68-15.01-7.46-22.91-.87-3.84-1.54-7.89-.91-11.82.67-4.21 2.88-7.21 5.83-10.15 6.29-6.26 12.34-12.94 19.55-18.17 6.86-4.98 14.13-9.37 20.81-14.6s11.93-12.39 19.24-16.92c6.75-4.19 13.96-7.25 20.35-12.05 3.03-2.28 6.36-4.22 9.9-5.62 3.9-1.54 7.98-2.51 11.87-4.07s7.81-3.54 11.55-5.63c1.73-.96 3.5-1.89 5.08-3.08 1.4-1.05 3.25-3.16 5.19-2.62 2.37.66 4.57 4.2 6.04 6.01 2.01 2.47 4.26 4.67 6.42 7.01 6.24 6.76 11.62 14.2 17.55 21.22 6.13 7.26 12.86 14.07 18.43 21.79 4.79 6.64 9.05 14.11 15.36 19.46 2.85 2.42 6.23 4.22 8.82 6.94 3.02 3.19 5.18 7.34 7.59 11 9.64 14.63 23.27 26.33 34.87 39.35 5.83 6.54 10.73 13.81 16.54 20.34l8.37 9.25c2.86 3.35 5.06 7.1 7.69 10.62 2.44 3.28 5.22 6.28 8.09 9.19 2.77 2.82 5.48 5.69 8.66 8.05 3.43 2.54 6.76 4.8 8.91 8.6 1.6 2.83 2.88 6.24 5.53 8.3 1.11.86 2.44 1.24 3.75 1.7 2.24.79 3.82 2.26 5.44 3.95 2.85 2.97 5.68 5.29 9.21 7.44 7.78 4.73 16.14 7.68 24.56 11.01 8.72 3.45 17.07 7.78 25.73 11.38s18.37 5 27.14 8.79c16.63 7.19 31.72 17.35 47.83 25.56 8.35 4.26 16.74 8.8 25.44 12.32 8.23 3.33 17.62 4.68 25.16 9.54 3.61 2.32 6.45 3.95 10.77 4.45 2.42.28 4.37.81 6.54 1.96 1.74.93 3.38 1.69 5.35 2.01 3.88.63 8.79.92 8.98 5.99.14 3.58-2 7.1-3.78 10.06-4.22 7.01-7.97 14.17-11.65 21.48-1.4 2.78-2.95 6.72-5.57 8.58-2.83 2.01-7.31.85-10.38.12-7.91-1.89-15.82-3.46-23.83-4.94-9.49-1.76-18.57-4.3-27.78-7.13-4.42-1.36-8.89-2.67-13.12-4.55-3.6-1.6-7.08-3.19-10.86-4.36-1.94-.6-3.7-.96-5.69-1.3-2.55-.43-4.14-2.17-6.33-3.4-3.07-1.74-7.44-1.5-10.86-1.61-4.64-.14-8.9-1.02-13.42-2-4.77-1.03-9.57-1.97-14.29-3.25-9.07-2.45-18.42-2.77-27.3-5.99-4.43-1.61-8.8-3.41-13.31-4.78l-13.78-4.14c-4.4-1.4-8.81-2.82-13.13-4.45-4.34-1.64-8.51-3.67-12.81-5.41-7.83-3.16-16.48-4.24-23.25-9.63-6.53-5.2-14.31-8.62-20.66-14-6.52-5.52-13.48-10.66-19.22-17.02-6.07-6.73-11.73-13.83-18.06-20.33-1.12-1.15-2.89.61-1.77 1.77 6.68 6.86 12.56 14.41 19.06 21.43 3.08 3.32 6.53 6.23 10.05 9.07 3.31 2.68 6.46 5.59 9.83 8.19 3.4 2.62 7.16 4.69 10.84 6.9s6.96 5.11 10.57 7.55c6.72 4.55 15.01 5.65 22.41 8.68 4.44 1.81 8.76 3.92 13.27 5.56 4.49 1.64 9.05 3.12 13.61 4.55l13.83 4.15c4.58 1.48 9.15 3.41 13.77 5 4.42 1.53 8.86 2.34 13.49 2.95 5.09.66 9.88 1.91 14.85 3.12 8.84 2.16 17.69 4.3 26.8 4.63 2.15.08 4.5.06 6.59.65 2.42.69 4.09 2.56 6.29 3.68 1.73.88 4 .69 5.89 1.21a75.16 75.16 0 0 1 6.01 1.95c4.19 1.56 8.12 3.68 12.36 5.15s8.75 2.74 13.11 4.16c9.42 3.07 19.12 4.83 28.85 6.6 4.28.78 8.6 1.48 12.81 2.58 3.14.82 6.25 1.75 9.49 2.07 2.7.27 5.69.12 7.88-1.66 2.4-1.95 3.92-5.13 5.31-7.82 3.86-7.48 7.53-14.97 11.93-22.15 2.82-4.6 6.77-11.51 2.87-16.62-2.26-2.95-5.6-3.15-8.99-3.66-4.08-.61-7.22-3.41-11.39-3.93-2.59-.32-4.87-.54-7.18-1.83-1.93-1.08-3.65-2.51-5.6-3.55-3.84-2.05-8.06-3.4-12.19-4.71-4.58-1.45-9.18-2.82-13.58-4.78-4.56-2.02-9.01-4.28-13.46-6.52-8.45-4.25-16.82-8.55-25.04-13.24-8.06-4.59-16.07-9.28-24.39-13.39-3.84-1.9-7.75-3.75-11.77-5.25-4.58-1.71-9.35-2.8-14.05-4.11-9.55-2.65-18.35-7.21-27.36-11.25-8.65-3.87-17.76-6.62-26.21-10.93-4-2.04-8.36-4.28-11.69-7.33-2.73-2.5-4.9-5.81-8.45-7.24-1.7-.68-3.37-.98-4.67-2.38-1.38-1.48-2.27-3.38-3.21-5.15-1.77-3.33-3.78-5.96-6.78-8.29-3.46-2.69-6.76-5.21-9.87-8.32-3.02-3.03-6.05-6.06-8.73-9.39s-4.85-7.19-7.56-10.59c-2.69-3.36-5.67-6.46-8.57-9.64-5.97-6.55-10.93-13.92-16.79-20.59-12.1-13.79-26.45-25.99-36.5-41.43-2.26-3.47-4.33-7.32-7.21-10.33-2.7-2.82-6.2-4.66-9.13-7.21-6.67-5.82-10.97-13.88-16.26-20.85-5.64-7.44-12.22-14.12-18.19-21.28-6.08-7.3-11.67-14.97-18.26-21.85-2.08-2.17-3.99-4.35-5.92-6.66-1.53-1.82-3.36-4.26-5.68-5.12-2.75-1.02-5.17 1.01-7.19 2.59-3.58 2.81-8.04 4.88-12.13 6.83-7.39 3.51-15.57 4.91-22.62 9.16-3.52 2.12-6.58 4.88-10.14 6.95-3.53 2.05-7.22 3.81-10.79 5.79s-6.7 3.96-9.58 6.56c-3.22 2.91-5.95 6.31-9.23 9.19-6.8 5.95-14.48 10.76-21.91 15.87-7.31 5.02-13.53 11.17-19.75 17.45-2.75 2.78-5.92 5.39-7.7 8.95-1.49 2.99-2.06 6.32-1.99 9.64.15 7.33 2.47 15.15 4.75 22.07 2.63 8 6.97 15.25 10.28 22.96 3.68 8.55 5.38 17.86 8.4 26.66l4.47 13.15c1.4 4.42 2.57 8.87 4.36 13.16s3.67 8.04 5.4 12.1c1.93 4.53 3.42 9.22 5.08 13.85 3.12 8.7 6.54 17.35 9.85 25.99 3.2 8.34 7.41 15.99 11.6 23.85 2.08 3.9 4.22 7.8 6.86 11.36 2.52 3.4 5.49 6.46 8.12 9.79 5.57 7.03 10.22 14.67 16 21.55 5.89 7 12.17 13.67 17.63 21.02 5.34 7.19 10.7 14.33 16.42 21.24s11.9 12.54 19.2 17.67c4 2.81 8.27 5.48 11.69 9 2.67 2.76 4.85 5.95 7.62 8.62 3.25 3.14 7.26 5.42 10.71 8.35 3.32 2.83 6.46 5.87 9.54 8.95l20.03 20.16c3.18 3.08 6.73 5.73 10.17 8.51s6.77 6.21 10.15 9.36c6.93 6.46 14.45 12.27 21.2 18.93 6.52 6.44 12.43 13.47 19.51 19.33 6.74 5.58 14.09 10.35 20.96 15.76 3.3 2.6 6.63 5.32 9.46 8.44 2.27 2.5 4.06 5.42 6.51 7.75 1.96 1.87 4.33 3.31 7.13 3.09 3.79-.3 7.35-2.55 10.85-3.83 3.98-1.46 8.22-1.87 12.26-3.12 3.42-1.06 6.36-3.06 9.52-4.69 2.85-1.47 5.9-2.96 8.13-5.33.8-.84 1.78-1.99 2.06-3.14.38-1.58-1.03-3.13-1.8-4.48-4.4-7.74-9.41-15.12-14.81-22.19-10.75-14.07-22.98-26.91-35.42-39.49l-18.97-19.14c-3.22-3.41-6.3-6.97-8.95-10.85-2.42-3.55-4.27-7.4-6.36-11.14s-4.36-6.64-7.27-9.53c-3.3-3.27-5.31-6.72-7.28-10.89-1.83-3.88-3.63-7.8-6.05-11.35-2.52-3.69-5.72-6.8-8.15-10.56-2.39-3.7-4.45-7.6-6.87-11.29a219.97 219.97 0 0 1-7.19-11.62c-2.12-3.69-4.4-7.2-7.19-10.42s-6.05-6.4-8.94-9.73c-3.14-3.62-5.21-7.21-6.92-11.67-1.52-3.96-3.66-7.24-6.15-10.66-5.17-7.12-7.66-15.59-12.94-22.66-5.59-7.48-11.47-14.75-16.67-22.51-5.37-8.01-9.76-16.66-14.17-25.22-4.45-8.64-9.3-17.19-13.01-26.17-1.61-3.9-3.15-7.84-5.09-11.6-2.12-4.11-4.8-7.77-6.6-12.06-.7-1.67-1.32-3.39-2.11-5.02-.84-1.73-2.11-3.12-3.18-4.71-1.39-2.07-1.92-3.56.83-3.98 3.9-.59 8.75.52 11.94-2.37h-1.77l22.73 23.92c7.28 7.94 14 16.38 21.37 24.24 3.18 3.39 6.86 6.2 10.19 9.44 3.59 3.49 5.58 7.46 7.78 11.86 4.25 8.48 12.56 13.08 19.07 19.59 1.14 1.14 2.91-.63 1.77-1.77z"/><path d="M745.88 904.96c20.15-.06 63.04 18.91 68.44-11.1 2.33-12.93.17-32.29-6.92-43.37-8.11-12.66-23.13-19.56-34.28-29.07-16.8-14.31-26.55-29.97-46.45-40.93-19.35-10.65-40.18-18.35-59.75-28.7-18.4-9.73-39.41-12.12-58.14-20.8-26.83-12.42-49.55-31.29-74.7-46.3-14.72-8.78-31.72-13.03-46.56-21.69-10.98-6.41-20.72-15-31.18-22.16-11.97-8.19-25.79-19.05-40.53-22.18-14.28-3.04-30.71-3.27-45.28-4.17-22.58-1.4-47.21-4.38-67.27 6.87-36.94 20.71-42.77 80.98-50.59 117.15-6 27.74-9.01 56.5-16.41 83.87-7.23 26.76-17.94 52.58-25.03 79.42-8.12 30.72-18.51 63.54-18.03 95.49v63.89c-.39 24.04 24.65 63.75 50.27 64.42 13.3.35 22.63.1 34.68-5.25 11.05-4.9 23.3-8.3 34.92-11.62 8.67-2.48 15.96-3.6 24.86-3.58 9.49.02 15.98-3.23 25.1-4.3 31.64-3.7 62.58 16.45 80.57 41.06 9.09 12.44 23.35 21.71 30.65 35.08 9.95 18.24 26.54 29.86 38.8 46.62 10.25 14 23.77 27.82 37.15 38.89 12.09 10 28.83 22.1 44.43 22.41 5.44.11 16.57 2.14 20.53-2.24 3.92-4.34 2.01-12.76 2.08-18.21.23-18.28-15.73-31.45-26.78-45.24-17.24-21.53-39.72-35.23-54.81-57.97-3.45-5.2-7.99-7.72-11.49-11.96-8.67-10.51-13.9-24.24-18.26-37.11-8.64-25.5-17.8-51.36-27.6-76.59-6.95-17.89-12.38-36.9-20.3-54.23-3.99-8.72-10.01-16.29-11.58-25.67-.88-5.28-2.47-10.27-4.09-15.36-3.22-10.17-3.09-20.34-7.68-30.08-2.21-4.69-4.66-9.32-5.59-14.33-.78-4.2-2.11-7.17-2.21-11.61-.21-9.75.05-19.54.05-29.29 0-7.81 1.11-15.55 1.74-23.32.6-7.4-.46-12.71 8.43-13.07 7.1-.29 19.45 11.65 24.1 16.82 7.13 7.94 13.48 16.87 21.24 24.69 9 9.09 20.72 15.15 28.48 25.11 13.82 17.76 31.47 30.38 47.32 46.6 8.12 8.31 14.53 9.23 24.06 15.37 9.4 6.06 12.15 11.45 19.11 18.56 5.02 5.13 10.93 7.61 16.03 12.5 13.4 12.84 22.22 30.92 35.55 44.16 13.2 13.12 21.32 31.22 35.33 43.27 3.51 3.02 7.22 5.3 9.87 9.21 8.96 13.21 14.76 30.14 21.89 44.47 1.99 4 2.99 7.85 4.53 12.01 2.09 5.64 5.6 10.62 7.7 16.26 3.76 10.09 8.74 18.24 14.63 27.22 7.13 10.87 11.92 23.34 19.47 33.95 2.7 3.79 5.35 5.75 9.09 8.28 5.43 3.68 8.14 7.63 11.91 12.36 5 6.27 17.31 13.45 25.62 14.66 3.96.58 11.88 1.45 14.94-1.39 3.63-3.38 4.81-12.45 6-17.01 2.36-9.04 4.11-20.27 1.75-29.59-1.72-6.8-4.8-13.71-7.92-19.92-3.65-7.25-4.85-14.92-8.86-22.23-8.56-15.63-15.8-32.21-24.54-48.1-3.6-6.55-9.92-9.68-14.53-15.32-4.24-5.19-9.68-11.18-13.21-16.88-6.02-9.74-13.68-18.87-20.08-28.32-3.26-4.81-5.84-9.6-8.87-14.44-1.61-2.58-2.56-5.39-4.4-7.85-6.71-8.97-17.41-15.82-25.31-23.83-9.06-9.17-17.59-18.87-25.5-29.04-6.13-7.9-8.55-16.17-14.1-24.55-5.07-7.66-11.47-11.31-10.7-21.17 1.66-21.49 25.55-19.52 41.22-19.53h46.97z" fill="#ffe443"/><path d="M745.88 906.21c17.03.09 33.5 7.8 50.68 5.46 7.19-.98 13.75-4.37 16.98-11.14 4.47-9.4 3.43-21.97 1.66-31.87-2.12-11.89-7.22-21.72-16.4-29.65-10.13-8.74-21.79-15.23-31.5-24.56-9.51-9.14-18.01-19.35-28.49-27.45-11.85-9.16-26.03-15.14-39.59-21.28l-21.6-9.94c-6.71-3.24-13.19-6.91-20.12-9.66-13.64-5.42-28.13-8.28-41.81-13.56-28.22-10.9-51.89-31.07-77.42-46.79-12.84-7.9-26.94-12.6-40.55-18.91s-25.43-16.2-37.82-25.05c-11.13-7.95-22.46-16.61-35.24-21.72-13.53-5.41-29.16-5.54-43.52-6.28-26.34-1.35-56.8-7.05-80.57 7.68-17.32 10.74-27.12 29.85-33.5 48.56-6.88 20.18-10.2 41.28-14.36 62.12l-7.95 42.4c-2.71 15.92-5.49 31.86-9.7 47.47-4.12 15.26-9.36 30.18-14.42 45.14-5.15 15.26-9.6 30.65-13.82 46.18-4.13 15.19-8.29 30.39-11.18 45.88-2.86 15.33-3.75 30.45-3.57 46.01l-.03 50.59c-.14 10.57 1.41 19.93 5.65 29.69 4.44 10.22 10.76 19.86 18.72 27.68 6.67 6.55 15.04 12.29 24.54 13.42 12.19 1.46 25.44.05 36.75-4.76 7.45-3.17 15.01-5.87 22.76-8.21s14.82-4.62 22.42-6.01 14.53-.73 21.76-1.8 13.51-3.4 20.5-3.99c13.79-1.16 27.59 2.25 39.85 8.47 12.02 6.1 22.72 14.7 31.61 24.81 4.25 4.84 7.84 10.2 12.24 14.92 4.64 4.97 9.71 9.53 14.39 14.47 4.92 5.2 8.4 10.85 12.17 16.87 3.5 5.59 7.68 10.71 12.1 15.59 4.47 4.93 9.19 9.63 13.72 14.49 4.91 5.26 9.23 10.86 13.62 16.54 9.35 12.09 20.13 23.11 31.74 33.03 10.01 8.55 20.8 16.89 33.13 21.79 5.57 2.21 11.01 3.01 16.93 3.39 4.99.32 10.41 1.18 15.29-.32 4.49-1.37 6.43-5.13 6.86-9.62.27-2.82 0-5.66-.17-8.47s-.07-5.73-.49-8.58c-1.73-11.63-9.58-21.1-17.07-29.67-8.96-10.24-17.51-20.67-27.42-30.04-9.98-9.44-20.47-18.4-29.35-28.92-4.38-5.19-7.74-11.28-12.72-15.93-5.27-4.91-9.62-9.86-13.21-16.18-7.58-13.33-11.76-28.36-16.75-42.77l-16.48-45.79-16.43-44.95c-2.51-7.06-5.14-14.08-8.12-20.95-2.84-6.54-6.65-12.52-9.7-18.94-3.25-6.83-4.01-14.44-6.22-21.63-2.33-7.58-3.55-15.22-5.29-22.93-1.73-7.7-5.89-14.15-8.22-21.59-2.34-7.47-3.1-14.88-3.11-22.67l.2-24.56c.26-7.54 1.4-15.01 1.84-22.54.12-2.11 0-4.66 1.01-6.59 1.33-2.52 4.82-3.07 7.41-2.66 5.14.81 10.02 5.19 13.78 8.47 9.68 8.45 16.94 19.1 25.51 28.58 9.3 10.29 21.88 16.94 30.88 27.44 4.79 5.59 9.37 11.22 14.61 16.42 5.2 5.16 10.66 10.05 16.11 14.95 5.38 4.84 10.75 9.68 15.87 14.78 4.39 4.37 8.75 8.1 14.25 11.02 5.98 3.17 12.08 6.04 17.31 10.44 4.59 3.86 8.16 8.68 12.23 13.04 4.94 5.29 11.31 8.49 16.66 13.26 5.27 4.71 9.69 10.43 13.87 16.1l12.2 16.81c4.2 5.51 8.77 10.14 13.3 15.15 9.19 10.16 15.87 22.28 24.86 32.61 4.34 4.98 9.55 8.67 14.29 13.19 5.06 4.82 8.28 12.03 11.3 18.23 3.24 6.67 6.11 13.51 9.14 20.27 1.4 3.12 2.87 6.2 4.35 9.28 1.81 3.79 2.92 7.79 4.4 11.71 2.57 6.79 6.32 13.14 9.12 19.86 2.71 6.47 6.12 12.58 9.85 18.52 3.89 6.19 7.73 12.31 11.14 18.79 3.49 6.65 6.86 13.41 11.14 19.6 3.86 5.58 9.31 8.32 14.14 12.84 4.37 4.08 7.32 9.37 11.94 13.2 8.32 6.9 18.72 11.56 29.64 11.45 4.75-.05 8.57-1.21 10.79-5.66 2.36-4.74 3-10.21 4.27-15.3 1.7-6.83 2.9-13.94 2.61-21.01-.28-6.95-2.48-13.5-5.18-19.85-1.47-3.46-3.22-6.77-4.77-10.19-1.67-3.69-2.82-7.58-4.16-11.4-2.52-7.2-6.42-13.71-9.85-20.5l-10.84-21.89c-3.23-6.45-6.14-13.87-10.94-19.34-4.15-4.72-9.23-8.38-13.28-13.24-4.77-5.71-9.18-11.44-13.27-17.65-4.33-6.59-9.2-12.8-13.83-19.17-4.55-6.26-8.47-12.84-12.49-19.44-1.77-2.9-3.05-6.13-5.04-8.89s-4.26-5.11-6.65-7.39c-4.91-4.7-10.34-8.81-15.37-13.37-5.49-4.97-10.51-10.53-15.42-16.06-5.39-6.06-11-12.27-15.5-19.03-4.11-6.17-6.79-13.15-10.63-19.48-3.06-5.03-7.73-9.09-10.36-14.34-2.57-5.13-1.88-11.99 1.05-16.86 2.35-3.9 6.29-6.3 10.55-7.65 8.51-2.69 17.74-2.08 26.54-2.06h47.3c1.61 0 1.61-2.5 0-2.5h-47.63c-8.71-.02-17.76-.53-26.21 1.95s-14.1 8.14-15.37 16.76c-.78 5.28.27 10.09 3.34 14.45 3.49 4.95 7.48 9.27 10.42 14.63 3.57 6.53 6.44 13.37 10.98 19.33 4.35 5.7 8.99 11.2 13.75 16.56 5.04 5.67 10.18 11.35 15.82 16.42 4.92 4.42 10.19 8.43 14.97 13.01 2.49 2.38 5.03 4.93 6.91 7.82 2.07 3.19 3.67 6.74 5.64 10.02 3.78 6.29 7.63 12.44 11.97 18.37 8.56 11.69 16.37 23.95 25.68 35.04 2.04 2.43 4 4.89 6.33 7.06s5.07 4.3 7.35 6.72c5.16 5.48 8.18 13.47 11.51 20.15l10.56 21.31c3.62 7.15 7.59 13.97 10.17 21.58 4.88 14.36 14.02 27.49 13.43 43.19-.26 6.92-1.98 13.46-3.45 20.18-1.04 4.78-1.81 13.1-7.34 14.7-5.01 1.45-11.57.33-16.41-1.32-6.09-2.07-12.07-5.52-16.87-9.8-4.36-3.89-7.24-9.11-11.65-12.99-2.39-2.1-5.16-3.68-7.62-5.69-2.89-2.36-5.02-5.3-7.02-8.42-3.96-6.18-7.18-12.77-10.62-19.24-3.42-6.43-7.43-12.43-11.23-18.63-3.84-6.26-7.15-12.72-9.82-19.57-2.69-6.9-6.67-13.1-9.06-20.15-2.2-6.49-5.34-12.51-8.12-18.76-2.93-6.6-5.74-13.25-8.92-19.74-2.85-5.83-5.88-12.33-10.34-17.12-4.41-4.74-9.95-8.23-14.33-13.08-8.93-9.91-15.5-21.65-24.15-31.79-4.41-5.16-9.32-9.79-13.51-15.15-4.43-5.66-8.47-11.62-12.71-17.42-3.87-5.29-7.9-10.51-12.51-15.18-4.92-4.99-11.19-8.11-16.32-12.81-4.41-4.05-7.87-9-12.13-13.2-4.49-4.43-9.79-7.81-15.36-10.71-5.41-2.82-10.78-5.43-15.3-9.63l-15.74-15.01c-10.6-9.6-21.48-18.97-30.65-29.99-4.41-5.31-8.8-10.1-14.22-14.42-5.27-4.2-10.8-8.08-15.68-12.76-9.64-9.25-16.87-20.66-26.42-29.99-5.95-5.81-14.82-14.77-24.01-12.68-3.59.82-5.51 3.27-6.1 6.81-1.01 6.13-1.1 12.6-1.66 18.79-.72 7.88-.64 15.76-.71 23.66-.07 7.54-.86 15.62.8 23.03 1.48 6.56 3.27 12.6 6.16 18.68 3.58 7.54 4.89 15.3 6.49 23.42 1.44 7.3 4.22 14.21 5.73 21.48 1.47 7.07 3.86 12.97 7.37 19.28 7.43 13.37 12.42 27.75 17.43 42.16l32.62 90.06c4.51 13.19 8.73 26.73 16.34 38.54 3.41 5.29 7.55 9.21 12.03 13.55 4.99 4.83 8.49 11.22 13.05 16.49 8.89 10.27 19.26 19.08 29.08 28.42s17.9 19.32 26.61 29.28c8.36 9.55 16.47 19.84 16.71 33.1.09 5.05 2.14 13.21-1.71 17.33-3.61 3.86-11.44 2.42-16.12 2.08-6.02-.44-11.59-1-17.29-3.21-6.82-2.64-13.12-6.54-19.06-10.75-12-8.52-23.03-18.59-33.05-29.35-9.77-10.49-17.77-22.38-27.63-32.79-9.39-9.91-19.02-19.44-25.81-31.41-6.42-11.33-16.77-19.35-25.44-28.82-4.35-4.75-7.92-10.12-12.21-14.91a112.86 112.86 0 0 0-14.21-13.35c-9.84-7.76-21.05-13.94-33.15-17.33-12.45-3.49-24.94-3.41-37.45-.37-3.38.82-6.76 1.68-10.22 2.07-3.79.42-7.62.21-11.43.48-7.11.51-13.97 2.11-20.81 4.07-7.31 2.09-14.62 4.18-21.79 6.71-6.77 2.38-13.23 5.75-20.19 7.58-6.45 1.69-13.09 2.03-19.72 1.97-5.66-.04-10.85-.38-16.08-2.71-9.93-4.43-17.91-12.89-24.02-21.7-6.18-8.91-11.09-19.06-13.25-29.74-1.19-5.9-.86-11.78-.79-17.76l.13-24.63c-.02-15.92-1.01-32.01.47-47.89 1.47-15.76 4.94-31.27 8.88-46.58l12.27-44.86c4.62-15.12 10.02-29.99 14.9-45.03 4.87-15.01 8.9-30.17 11.91-45.66 3.01-15.48 5.33-31.08 8.25-46.57l6.48-32.68c1.98-10.4 4.04-20.78 6.66-31.04 5.15-20.11 12.46-41.5 27.67-56.35 20.22-19.73 48.98-17.46 75.01-15.73 14.95.99 30.09 1.02 44.87 3.67 14.49 2.6 26.44 10.7 38.28 18.99 11.87 8.31 23.09 17.84 35.53 25.29 12.7 7.61 27 11.82 40.23 18.33 13.11 6.45 25.11 15.27 37.18 23.44 12.13 8.22 24.34 16.38 37.36 23.14 12.92 6.7 26.55 10.67 40.43 14.83 7.49 2.24 14.95 4.67 22.01 8.04l20.07 9.89c13.99 6.49 28.25 12.44 41.8 19.83 12.38 6.75 22.14 16.35 31.84 26.41 4.7 4.88 9.45 9.72 14.58 14.17 4.64 4.02 9.71 7.48 14.74 10.99 10.83 7.54 20.65 15.58 24.71 28.61 3.37 10.82 4.95 24.58 1.52 35.6-2.6 8.35-9.91 12.04-18.18 12.68-16.4 1.27-32.02-5.64-48.28-5.72-1.61 0-1.61 2.49 0 2.5z"/><path d="M886.17 801.72l-6.6-5.84c-16.53-14.11-30.04-27.92-49.1-38.35-19.55-10.7-35.81-26.91-52.93-41.15-20.65-17.17-43.07-32.81-65.08-48.63-18.68-13.42-41.31-21.5-59.71-35.54-16.77-12.79-35.68-22.49-53.08-34.45-11.25-7.73-22.94-16.09-35.14-22.32-20.71-10.58-43.79-16.23-65.34-24.67-17.72-6.94-33.49-14.27-51.94-19.46-26.57-7.47-52.52-14.12-78.31-23.4-25.39-9.13-46.32-34.05-73.52-36.84-19.6-2.01-42.23 1.8-55.97 16.81-8.89 9.72-14.77 28.74-20.86 40.76-4.25 8.4-6.69 18.04-8.47 27.64-5.53 29.96-6.06 59.97-13.88 89.37-4.62 17.34-6.11 34.59-11.14 52.23-5.03 17.63-10.3 34.64-16.46 51.89-8.82 24.71-11.08 48.58-23.59 72.19-8.24 15.56-14.13 32.54-20.84 48.79-4.58 11.08-11.12 22.28-14.5 33.68-2.01 6.76-2.39 13.64-4.62 20.31-5.77 17.28-10.06 35.05-15.08 52.61-8.09 28.33-7.05 57.08-7.05 86.38 0 12.92-2.24 27.9.82 40.4 2.22 9.07 5.56 18.48 6.91 27.59.5 3.4.15 6.9.75 10.33 1.17 6.72 4.16 12.71 9.8 16.76 6 4.3 11.93 3.58 19.29 3.65 4.66.04 8.1-.09 12.17-2.7 4.27-2.74 7.89-3.75 12.29-6.09 8.89-4.73 15.45-13.66 23.16-20.08 8.95-7.44 19.18-12.25 27.4-20.71 7.01-7.21 15.71-12.44 23.36-18.88 8.23-6.93 15.41-15.56 22.17-23.82 6.94-8.49 15.28-16.43 25.08-21.26 12.03-5.92 25.6-10.51 36.59-18.25 9.95-7.01 17.47-16.73 27.67-23.78 6.86-4.74 12.88-9.39 18.16-15.92 13.29-16.44 21.4-35.44 30.75-54.32 4.27-8.61 3.87-15.54 4.78-24.43 1.27-12.34 5.91-25 4.16-37.53-.36-2.58-1.07-4.88-1.25-7.53-.57-8.29-.56-16.61-1.19-24.91-1.22-16.11-3.22-32.14-5.19-48.17-.95-7.69-2.44-14.14-2.42-22.1 0-4.85 2.34-17.92-1.31-21 5.61-5.77 19.53-6.82 27.34-8.3 5.98-1.14 11.76-1.62 16.08 2.53 4.87 4.67 9.21 11.25 12.7 16.99 2.86 4.71 7.51 7.71 10.67 12.15 3.04 4.27 3.37 8.6 5.14 13.27 4.32 11.4 17.67 21.87 26.07 30.42 14.28 14.54 30.64 21.97 48.5 30.85 13.03 6.48 25.42 15.44 39.98 18.61 13.77 3 27.79 4.31 41.94 4.62 12.25.27 22.79 4.28 35.37 4.25h39.78c28.15.02 57.43 4.71 84.91 10.55 9.83 2.09 20.79 4.89 30.78 4.99 13.19.13 21.91 6.57 34.39 8.17 11.28 1.45 24.45 5.3 34.51 10.56 11.52 6.02 24.42 9.08 35.83 12.95 9.67 3.27 18.96 7.28 29.38 4.73 22.64-5.53 24.58-41.54 12.64-59.04-3.09-4.53-7.03-6.44-10.38-10.76-3.92-5.07-4.4-11.47-8.66-16.57-11.43-13.69-24.31-27.95-37.72-40.24z" fill="#ffe443"/><path d="M887.06 800.83c-11.98-10.92-24.17-21.97-37.01-31.86s-28.32-17.38-41.42-27.8c-13.08-10.41-25.26-21.88-38.34-32.3-13.86-11.05-28.22-21.45-42.63-31.77-6.83-4.9-13.56-10.02-20.65-14.55-7.07-4.52-14.49-8.45-21.9-12.38-7.21-3.82-14.44-7.63-21.37-11.95-7.14-4.45-13.67-9.75-20.64-14.44-14.44-9.73-29.74-18.12-44.09-28-14.47-9.96-28.85-19.75-45.09-26.65-15.62-6.63-31.96-11.31-47.88-17.12-16.27-5.94-31.98-13.32-48.42-18.82-17.27-5.78-35.12-9.92-52.6-15.02-16.12-4.7-33.23-8.99-48-17.15-12.48-6.89-23.66-15.89-36.2-22.67-11.94-6.46-24.35-9.42-37.93-8.98-13.17.43-26.77 3.65-37.52 11.56-11.11 8.17-16.39 20.81-21.62 33.13-2.62 6.16-5.64 12.15-8.23 18.32-3.28 7.81-5.22 16.08-6.73 24.39-3.17 17.4-4.69 35.03-7 52.54-2.48 18.81-7.51 36.9-10.96 55.51-3.37 18.14-7.57 35.69-13.01 53.33-5.23 16.99-11.69 33.61-16.31 50.78-4.5 16.77-8.27 33.85-16.03 49.5-7.83 15.8-14.33 31.93-20.94 48.28-3.47 8.58-7.7 16.79-11.42 25.26-3.42 7.79-5.5 15.54-7.1 23.88-1.7 8.84-4.98 17.33-7.46 25.97l-7.26 26.4c-4.73 17.23-8.12 34.07-9.06 51.95-.92 17.47.04 34.96-.74 52.42-.37 8.35-1.01 16.76-.05 25.09.93 8.08 3.73 15.8 5.77 23.63 1.14 4.38 2.21 8.81 2.51 13.33.25 3.7.23 7.21 1.22 10.82 1.56 5.72 4.78 10.97 9.69 14.42 5.95 4.18 12.98 3.83 19.93 3.82 3.02 0 6.06-.02 8.96-1 3.11-1.06 5.78-3.13 8.74-4.52 7.03-3.29 12.98-6.66 18.64-12.05 5.96-5.67 11.45-11.49 18.22-16.24 6.11-4.29 12.56-8.15 18.17-13.12 6.51-5.76 12.81-11.36 19.79-16.6 6.46-4.85 12.41-10.16 17.86-16.13 5.78-6.33 10.86-13.28 16.78-19.48 5.57-5.83 11.87-10.95 19.11-14.58 7.43-3.72 15.21-6.71 22.69-10.31 6.91-3.32 13.45-7.2 19.31-12.15 6.13-5.18 11.57-11.12 17.8-16.2s12.89-9.03 18.52-14.66c5.55-5.55 10.11-12.17 14.25-18.81 4.55-7.31 8.52-14.96 12.32-22.68 3.41-6.91 7.29-13.85 10.11-21.02 2.78-7.06 2.78-14.52 3.57-21.95.92-8.66 3.34-17.09 4.22-25.76.9-8.81-1.29-17.18-1.67-25.93-.39-9.16-.76-18.29-1.61-27.43-1.66-17.92-4.55-35.68-6.42-53.56-.61-5.81-.06-11.33.24-17.12.2-3.89.65-9.28-2.33-12.32v1.77c4.01-3.8 9.91-5.02 15.17-6.03s10.72-2.13 16.04-2.6c14.59-1.29 19.74 17.4 28.36 26.02 2.35 2.36 4.86 4.67 6.43 7.65 1.72 3.26 2.35 6.9 3.59 10.35 1.81 5.06 4.92 9.45 8.39 13.5 3.98 4.64 8.48 8.8 12.91 12.99 4.61 4.36 8.97 8.96 13.92 12.93 9.7 7.78 20.68 13.62 31.78 19.13 11.99 5.97 23.5 13.2 35.76 18.56 12.42 5.43 26.3 7.12 39.71 8.21 7.13.58 14.34.41 21.45 1.19s13.47 2.37 20.26 3.22c14.38 1.79 29.44.59 43.92.61s29.67.82 44.45 2.68 30.18 4.65 45.1 7.83c7.17 1.53 14.31 3.27 21.58 4.27 6.57.9 13.21.53 19.69 2.15 6.01 1.51 11.72 4 17.72 5.53 6.21 1.59 12.64 2.08 18.86 3.66 13.45 3.42 25.25 10.5 38.32 14.9 6.41 2.16 12.93 3.99 19.33 6.15 6.27 2.12 12.5 4.62 19.12 5.35 9.2 1.02 18.2-1.81 24.03-9.17 9.93-12.56 9.69-32.46 3.44-46.57a32.28 32.28 0 0 0-7.96-11.04c-2.46-2.24-4.91-4.32-6.72-7.16s-2.73-6.03-4.07-9.05c-2.55-5.72-7.11-10.27-11.18-14.95-4.86-5.59-9.83-11.08-14.95-16.43s-9.99-10.13-15.23-14.95c-1.18-1.09-2.95.67-1.77 1.77 10.49 9.67 20.3 20.04 29.67 30.79 4.92 5.65 9.6 10.79 12.43 17.81 2.14 5.3 4.82 9.26 9.07 13.08 13.48 12.11 16.56 35.72 7.72 51.53-5.74 10.26-16.53 13.63-27.8 11.28-6.6-1.38-12.89-4.02-19.3-6.06s-13.11-3.96-19.55-6.32-12.24-5.64-18.49-8.24c-5.92-2.47-12.07-4.4-18.33-5.82-6.18-1.41-12.51-1.88-18.59-3.7-5.71-1.7-11.24-4.04-17.09-5.27-6.59-1.39-13.39-1.01-20.05-2.04-6.99-1.08-13.88-2.79-20.8-4.25-13.84-2.92-27.76-5.44-41.78-7.28s-28.43-2.96-42.73-2.99-29.71.96-44.33-.22c-6.98-.56-13.81-2.21-20.73-3.19s-13.22-.86-19.84-1.26c-14.77-.9-30.34-2.45-43.99-8.51-11.81-5.24-22.88-12.2-34.46-17.95-11.53-5.73-23.03-11.73-33.01-19.95-4.7-3.87-8.88-8.31-13.3-12.49-4.44-4.19-8.94-8.37-12.87-13.06-4.48-5.34-6.95-10.7-8.96-17.31-1.73-5.68-4.89-9.54-9.01-13.68-4.74-4.75-7.72-10.66-11.72-15.99-2.83-3.77-5.98-8.17-10.54-9.91-4.79-1.82-9.93-.63-14.79.2s-10.03 1.47-14.93 2.78c-4.05 1.08-8.04 2.6-11.13 5.52-.49.47-.46 1.3 0 1.77 3.39 3.46 1.53 11.86 1.18 16.18-.51 6.39.24 12.67 1.18 18.99 2.65 17.74 4.66 35.67 6.07 53.55.69 8.84.53 17.74 1.32 26.57.37 4.11 1.52 8.08 1.63 12.23.12 4.63-.49 9.24-1.28 13.8-1.35 7.79-3 15.43-3.63 23.32-.7 8.75-2.41 15.73-6.27 23.65-7.11 14.58-13.9 29.44-23.2 42.8-4.73 6.79-10.01 12.85-16.53 17.97-6.16 4.83-12.5 9.1-18.24 14.47-5.94 5.56-11.66 11.36-18.53 15.8s-13.76 7.45-20.91 10.6-14.3 6-20.66 10.4c-6.03 4.18-11.34 9.33-16.12 14.89-5.35 6.23-10.38 12.7-16.11 18.61-5.98 6.16-12.74 11.22-19.58 16.38-6.06 4.57-11.2 10.04-17.06 14.8-6.2 5.03-13.19 8.98-19.52 13.84-5.71 4.38-10.45 9.75-15.7 14.63-5.95 5.53-12.51 8.14-19.52 11.88-3.65 1.95-6.48 3.71-10.74 3.95-3.79.21-7.75.22-11.53-.03-8.86-.58-15.55-6.22-18.42-14.53-1.26-3.66-1.48-7.37-1.64-11.21-.17-3.96-.94-7.81-1.85-11.66-1.93-8.07-4.97-15.98-6.22-24.19s-.66-16.99-.26-25.43c.38-8.06.3-16.11.28-24.18-.04-17.52.08-35.15 2.77-52.51 2.67-17.25 8.15-34.16 12.86-50.95 2.37-8.45 5.49-16.77 7.59-25.27 2.06-8.34 3.15-16.55 6.42-24.58 3.3-8.13 7.49-15.87 10.93-23.94 3.27-7.68 6.21-15.51 9.31-23.26 6.34-15.8 15.05-30.61 20.56-46.72 5.31-15.53 8.38-31.71 13.44-47.32l16.18-49.99c5.02-17.17 7.54-34.68 11.43-52.09 1.93-8.63 4.28-17.11 5.84-25.83 1.47-8.18 2.58-16.42 3.59-24.66 2.16-17.69 3.69-35.59 7.62-53 3.25-14.37 10.09-27.75 16.06-41.17 5.85-13.16 12.94-24.31 26.42-30.64 12.85-6.03 28.41-7.53 42.38-5.41 13.82 2.1 25.93 9.81 37.37 17.39 11.27 7.47 22.38 15.1 35.21 19.68 16.39 5.85 33.11 10.7 49.86 15.37 16.64 4.64 33.37 8.89 49.51 15.12 15.63 6.03 30.95 12.72 46.83 18.11s32.4 10.48 47.55 18.24c15.22 7.8 28.71 18.36 43.06 27.57 14.2 9.12 29.02 17.29 42.63 27.31 12.91 9.51 26.74 16.84 40.81 24.43s27.84 17.56 41.3 27.24c14.42 10.37 28.74 20.88 42.48 32.15 12.09 9.92 23.48 20.69 35.88 30.23 12.94 9.96 27.71 16.96 40.53 27.1 11.96 9.46 23.44 19.8 34.71 30.07 1.19 1.08 2.96-.68 1.77-1.77zM270.7 822.16c1.05-5.99 1.05-12.06 1.62-18.1s2.68-11.36 3.31-17.13c.42-3.81-1.1-7.23-1-10.98.15-5.47 3.65-10.21 4.19-15.64.44-4.47.76-11.44 0-15.93-.98-5.76-2.63-10.33-8.97-8.39-4.72 1.44-8.58 5.49-11.07 9.5-4.69 7.52-6.86 17.19-10.43 25.45-2.78 6.42-6.53 12.59-8.95 19.12-1.77 4.78-1.83 9.93-2.7 14.88-.58 3.25-1.9 6.41-2.69 9.62-2.44 9.9-3.22 20.27-4.97 30.35-1.95 11.21-6.29 22.66-7.36 33.94-.96 10.13.23 21.1.21 31.26-.02 8.5-2.53 20.43 3.79 27.23 10.05 10.8 17.84-2.24 22.91-10.55 13.05-21.39 14.48-44.42 14.16-68.69-.18-13.94 5.64-22.75 7.96-35.94z"/><path d="M271.9 822.49c.74-4.31 1-8.68 1.27-13.04.27-4.34.76-8.52 1.77-12.76.92-3.87 2.22-7.99 1.99-12.01-.23-3.99-1.59-7.68-.63-11.68.88-3.66 2.73-7.01 3.47-10.7.66-3.29.71-6.79.75-10.14.04-3.27-.13-6.52-.8-9.72-.5-2.37-1.25-5.04-3.15-6.69-2.04-1.76-4.8-1.68-7.24-.89-3.34 1.08-6.23 3.29-8.55 5.89-4.95 5.55-7.44 12.81-9.85 19.71-1.28 3.67-2.53 7.35-4.13 10.9-1.7 3.78-3.67 7.43-5.48 11.16-1.78 3.66-3.5 7.42-4.31 11.43-.81 4.04-.9 8.2-1.87 12.21-.98 4.05-2.41 7.95-3.25 12.04-.87 4.24-1.49 8.52-2.09 12.81l-1.88 12.86c-.71 4.17-1.7 8.27-2.76 12.37-2.08 8.05-4.34 16.1-4.92 24.44-.59 8.43.11 16.88.31 25.3.15 6.6-.81 13.23-.36 19.81.42 6.28 2.8 12.6 8.67 15.72 5.2 2.76 10.22-.04 13.79-4.02 1.97-2.2 3.64-4.66 5.21-7.15 1.87-2.97 3.67-6 5.25-9.14 6.88-13.71 9.73-28.85 10.57-44.06.21-3.79.3-7.6.33-11.4.03-3.94-.2-7.91.1-11.84.53-7.18 2.98-13.93 5.1-20.76 1.09-3.5 2.04-7.04 2.69-10.65.28-1.57-2.13-2.25-2.41-.66-1.23 6.82-3.68 13.27-5.58 19.91-.95 3.3-1.69 6.64-2.09 10.05-.44 3.7-.3 7.4-.29 11.12.03 14.66-.84 29.49-5.19 43.58-2.19 7.1-5.28 13.84-9.15 20.18-2.7 4.43-5.62 9.76-10.25 12.44-5.2 3.01-10.66-1.48-12.72-6.29-2.37-5.56-1.62-12.07-1.28-17.93.43-7.44-.13-14.88-.33-22.32-.22-8.12.25-16.01 2.03-23.95 1.78-7.9 4.25-15.64 5.63-23.62 1.41-8.14 2.18-16.38 3.72-24.5.76-4 1.89-7.82 3.04-11.72 1.11-3.75 1.39-7.62 1.94-11.47 1.14-7.99 5.26-14.84 8.73-22 3.26-6.74 5.33-13.91 8.08-20.86 2.51-6.34 6.03-13.18 12.36-16.43 2.03-1.04 5.15-2.1 7.01-.2 1.68 1.72 2.09 4.63 2.47 6.89.54 3.22.48 6.57.35 9.82-.13 3.28-.29 6.56-1.3 9.7-1.1 3.41-2.71 6.66-3.16 10.25-.47 3.77.96 7.33.95 11.08 0 3.96-1.37 7.97-2.24 11.8-.89 3.92-1.28 7.83-1.53 11.84-.26 4.22-.48 8.45-1.19 12.62-.27 1.57 2.14 2.25 2.41.66zm338.36-93.77c9.22 9.26 20.02 16.81 29.24 26.01 5.35 5.34 16.61 8.7 17.77 16.86.5 3.53-1.25 11.55-5.35 12.55-6.44 1.57-15.76-8.46-21.26-11.19-3.95-1.96-8.42-2.6-12.28-4.55-3.49-1.76-6.25-4.68-9.27-7.1-10.5-8.42-22.3-15.22-31.96-24.67-10.24-10.02-21.34-14.03-32.34-23.23-15.68-13.11-34.2-22.41-51.54-33.06-4.63-2.85-5.73-5.98-9.43-9.68-1.54-1.55-4.41-2.51-5.72-4.17s-4.65-8.34-4.91-10.51c-.51-4.25 2.05-6.02 5.61-6.79 9.12-1.97 13.71 4.45 21.09 7.88 4.02 1.87 6.45 3.23 10.04 6.39 2.51 2.21 6.13 3.15 9.14 4.46 6.45 2.82 12.03 7.12 18.26 10.45 13.48 7.19 24.44 17.16 37.5 25.28 12.73 7.92 24.71 14.32 35.42 25.07z"/><path d="M609.38 729.61c6.13 6.13 12.91 11.52 19.5 17.14 3.29 2.81 6.5 5.69 9.58 8.72 2.05 2.01 4.46 3.58 6.87 5.12 4.26 2.71 10.51 6.1 10.76 11.85.11 2.56-.48 5.36-1.64 7.64s-2.82 3.4-5.41 2.83c-2.84-.63-5.4-2.36-7.75-4.01-2.5-1.76-4.88-3.7-7.4-5.43-2.84-1.95-6.01-3.04-9.29-4.06-1.97-.61-3.95-1.22-5.79-2.18s-3.45-2.22-5.02-3.55c-6.33-5.4-13.06-10.17-19.82-15.01-3.4-2.44-6.77-4.92-10-7.59s-6.29-5.84-9.58-8.61c-6.3-5.3-13.51-9.28-20.36-13.8-7.15-4.72-13.51-10.5-20.57-15.35s-14.33-9.18-21.68-13.47l-11.02-6.44c-3.45-2.04-7.36-3.89-10.19-6.77-2.4-2.44-4.11-5.66-6.9-7.71-1.36-1-3.04-1.65-4.26-2.84-.8-.77-1.32-1.87-1.84-2.84-1.21-2.22-2.68-4.76-3.13-7.28-.55-3.07 1.48-4.77 4.22-5.45 3.32-.83 6.64-.37 9.69 1.15 2.89 1.44 5.45 3.44 8.22 5.08 3.03 1.78 6.32 3.01 9.22 5.03 1.55 1.08 2.88 2.41 4.42 3.5s3.32 1.82 5.07 2.5a69.93 69.93 0 0 1 11.04 5.46c3.55 2.16 7.23 4.52 10.98 6.56 7.4 4.02 14.22 8.98 21.01 13.94s13.89 9.83 21.19 14.28c6.98 4.24 14 8.45 20.49 13.42a96.14 96.14 0 0 1 9.37 8.2c1.14 1.14 2.91-.63 1.77-1.77-6.08-6.08-13.02-11.16-20.25-15.77-7.32-4.67-14.9-8.92-22.04-13.86s-14.24-10.52-21.63-15.38c-3.7-2.44-7.57-4.53-11.41-6.74s-7.46-4.69-11.3-6.84c-1.88-1.05-3.81-2.01-5.8-2.83-1.85-.76-3.77-1.38-5.55-2.31s-3.25-2.38-4.87-3.62c-1.4-1.07-2.88-2.02-4.43-2.86-1.67-.9-3.43-1.63-5.09-2.54-1.48-.81-2.89-1.74-4.29-2.67-2.75-1.81-5.58-3.66-8.82-4.43-5.7-1.35-14.56.51-13.7 7.98.3 2.64 1.79 5.28 2.99 7.6.56 1.09 1.14 2.2 1.85 3.21.93 1.33 2.25 2.18 3.62 3.01a16.04 16.04 0 0 1 4.19 3.55c1.16 1.36 2.2 2.81 3.37 4.15 2.75 3.12 6.47 5.05 10 7.15l22.77 13.43c7.6 4.65 15.06 9.57 21.96 15.21 3.43 2.8 6.92 5.47 10.63 7.9l10.71 6.79c3.74 2.44 7.36 5.06 10.66 8.08s6.44 6 9.92 8.74c6.84 5.38 14.13 10.13 21.04 15.4 3.37 2.57 6.4 5.64 9.91 8.01s7.72 3.28 11.69 4.69c6.13 2.18 10.62 7.2 16.21 10.37 2.34 1.33 5.08 2.55 7.84 2.23s4.51-2.43 5.59-4.82c1.13-2.53 1.8-5.47 1.68-8.25-.12-2.8-1.4-5.31-3.24-7.37-4.09-4.59-10.14-6.68-14.58-10.83-3.18-2.98-6.31-5.98-9.62-8.81l-10.27-8.67c-3.35-2.86-6.63-5.8-9.75-8.91-1.14-1.14-2.91.63-1.77 1.77zm44.6-813.24c.03 24.88-3.45 50.7-9 75.11-10.72 47.15-26.34 93.8-45.12 138.18-13.39 31.65-27.78 63.07-50.76 89.24-26.07 29.7-56.96 59.19-89.56 81.67-14.37 9.91-30.01 17.47-44.44 27.49-14.46 10.05-30.12 18.01-44.63 28.29-31.83 22.54-65.96 41.11-88.66 74.05-8.72 12.65-18.46 21.77-28.38 33.39-8.48 9.92-13.3 21.56-19.91 32.36-9.12 14.89-46.08 55.06-31.46 75.79 6.71-.23 13.25-7.37 18.69-10.95 7.04-4.63 12-8.9 17.45-15.32 7.01-8.26 15.06-15.12 20.52-24.37 4.52-7.66 8.1-15.56 12.97-23.08 8.1-12.5 14.93-26 25.2-36.99 8.3-8.89 25.49-32.09 39.35-30.12 7.08 7.95-9.97 22.09-14.13 29.37-7.77 13.61-10.52 26.8-15.35 41.44-8.35 25.31-19.45 49.19-23.59 75.44-1.49 9.47-2.03 19.8-.11 29.27 1.41 6.98 10.68 25.83 20.22 14.97 1.98-2.26 3.38-6.56 5.14-9.18 3.73-5.57 7.22-11.09 10.6-16.93 7.47-12.91 14.41-26.47 24.07-37.83 2.88-3.39 6.28-6.17 9.05-9.65 5.65-7.1 13.29-12.98 17.76-20.44 6.28-10.5 13.26-21.08 19.1-31.64 7.62-13.76 13.75-26.85 23.82-38.57 3.56-4.14 7.35-7.58 11.33-11.3 6.36-5.93 9.28-6.48 17.43-8.8 5.32-1.52 9.15-6.48 11.12 1.68 1.4 5.8-.18 14.04-.14 20.06.1 17.02-5.6 32.87-13.44 47.85-4.41 8.43-5.98 17.86-8.39 26.94-2.2 8.31-5.65 15.99-5.78 24.8-.2 13.88-6.57 27.92-.76 41.67 1.99 4.71 5.15 7.98 9.95 9.82 18.43 7.1 31.8-11.46 41.11-24.69 8.88-12.62 17.12-22.32 22.47-36.86 13.97-37.92 20.07-79.54 38.7-116.53 10.34-20.54 31.32-27.9 47.1-42.79 9.55-9.02 19.85-11.19 29.71-19.33 3.07-2.53 5.86-5.66 8.98-8.25a69.98 69.98 0 0 0 11.33-8.4c3.44-2.56 7.29-4.12 11.56-4.69 6.71-5.5 10.97-16.07 16.14-23.71 5.56-8.22 10.07-18.82 12.24-28.37 6.07-26.75 13.19-53.06 20.34-79.86 3.28-12.3 7.99-24.13 9.17-36.73 1.26-13.46 3.16-27.12 4.89-40.67 1.95-15.29 7.65-28.66 7.37-44.04-.24-13.02 2.97-24.6 3.97-37.38 2.21-28.41 6.57-55.92 8.19-84.19.61-10.62 2.21-22.49 3.97-32.84.97-5.69 7.31-23.04 12.47-24.43"/><path d="M652.73-83.63c-.04 31.35-5.52 62.13-13.2 92.43-7.63 30.09-17.12 59.71-28.12 88.73s-21.79 55.49-36.18 81.39c-6.9 12.42-14.69 24.38-23.79 35.31-9.54 11.47-19.92 22.32-30.48 32.84-21.23 21.17-44.23 41.46-69.7 57.41-12.76 7.99-25.97 15.13-38.43 23.6-12.56 8.55-26 15.69-38.61 24.15l-33.95 23.18c-10.63 7.26-21.12 14.76-30.91 23.13-9.86 8.44-18.94 17.8-26.58 28.3-4.35 5.98-8.67 11.88-13.56 17.44l-14.55 16.14c-9.3 10.62-14.86 23.18-22.23 35.07-4.08 6.59-9.02 12.66-13.53 18.95-5.63 7.85-11.09 15.91-15.36 24.59-3.6 7.33-6.85 15.71-5.98 24.04.36 3.42 1.49 6.62 3.42 9.47.24.35.63.66 1.08.62 5.76-.47 10.29-4.16 14.66-7.62 4.94-3.91 10.33-7.17 15.02-11.4 4.99-4.49 9.15-9.81 13.74-14.69 4.63-4.93 9.34-9.85 13.05-15.53 4.16-6.37 7.31-13.38 11.11-19.97 3.61-6.27 7.61-12.34 11.39-18.52 3.94-6.45 7.98-12.88 12.75-18.76 3.17-3.92 6.68-7.59 9.99-11.39 6.86-7.86 14.35-16.97 24.05-21.41 1.84-.84 4.64-2 6.72-1.66 2.3.38 2.36 3.06 1.92 5.13-1 4.69-4.67 8.89-7.62 12.48-2.67 3.25-5.64 6.37-7.82 9.99-3.54 5.88-6.11 12.45-8.33 18.93-4.84 14.14-8.95 28.46-14.11 42.5-5.2 14.16-10.54 28.32-14.07 43.01-3.3 13.72-5.8 28.93-2.62 42.91 1.5 6.6 5.97 16.4 13.02 18.58 3.71 1.15 7.17-.77 9.49-3.63 1.61-1.98 2.55-4.4 3.69-6.66 1.63-3.2 3.82-6.1 5.75-9.13 8.07-12.68 14.66-26.28 23.17-38.68 8.28-12.06 19.35-21.82 28.94-32.79 4.7-5.38 8.07-11.77 11.82-17.81 4.2-6.78 8.42-13.55 12.29-20.52 7.17-12.94 13.58-26.48 23.22-37.84 4.5-5.31 9.77-10.74 15.39-14.87 4.47-3.29 9.66-3.94 14.7-5.89 1.49-.58 3.8-2.34 5.42-2.27 3.32.15 3.21 6.73 3.22 9.13.02 6.76-.42 13.79-.95 20.53-.61 7.78-2.43 15.42-5.02 22.78-2.56 7.27-6.23 13.9-9.36 20.9-2.81 6.3-4.35 13.02-5.97 19.69-1.73 7.09-4.34 13.95-5.92 21.06-1.58 7.13-1.37 14.56-2.54 21.78-1.13 7-2.38 14.1-1.4 21.19 1.58 11.47 9.26 20.13 21.32 20.16 10.62.03 19.17-7.77 25.58-15.43 7.74-9.26 14.85-19.52 21.44-29.62 7.77-11.89 12.16-25.11 16.28-38.61 4.38-14.34 8.12-28.86 12.28-43.26 4.2-14.55 8.81-29.03 14.87-42.93 2.89-6.61 5.87-13.32 10.35-19.02 3.7-4.72 8.19-8.76 12.91-12.43 9.43-7.32 19.68-13.42 28.52-21.5 5.39-4.92 11.64-8.22 17.99-11.68 5.99-3.26 11.27-7.03 16.19-11.75 3.01-2.89 6.26-5.04 9.62-7.48 2.99-2.18 5.63-4.95 8.88-6.74 1.57-.86 3.23-1.53 4.95-2.01 1.19-.32 2.76-.34 3.82-.91 2.17-1.15 4-4 5.42-5.94 3.77-5.17 6.51-10.98 9.91-16.38 3.67-5.81 7.03-11.58 9.59-17.98 2.75-6.89 4.26-14.06 5.96-21.25l5.82-23.66 12.65-48c2.01-7.38 4.5-14.62 6.4-22.02 1.91-7.44 2.64-14.9 3.47-22.51 1.74-15.84 3.33-31.91 6.96-47.44 1.65-7.08 3.42-14.16 4.14-21.41.78-7.73.36-15.45 1.39-23.19.98-7.32 2.29-14.57 2.91-21.93l2.35-24.56 4.98-47.36c1.25-15.17 1.79-30.52 4.92-45.47.89-4.27 2.47-8.47 4.23-12.44 1.4-3.16 3.62-9.18 7.23-10.42 1.51-.52.86-2.94-.66-2.41-4.95 1.7-7.54 8.71-9.37 13.05-3.13 7.44-4.49 14.82-5.62 22.79-1.55 10.93-2.2 21.87-3.07 32.86-.94 11.98-2.28 23.92-3.63 35.86l-3.64 35.35c-.94 11.43-3.44 22.71-4.07 34.16-.33 5.97-.08 11.85-.97 17.79-.82 5.41-2.14 10.73-3.39 16.06-2.62 11.16-3.96 22.45-5.41 33.81-1.5 11.8-1.99 23.94-4.85 35.5-2.83 11.46-6.57 22.71-9.62 34.12l-17.88 70.77c-2.56 10.45-7.29 19.68-12.99 28.71-2.54 4.03-4.71 8.28-7.22 12.33-1.34 2.17-2.77 4.3-4.43 6.24-1.87 2.17-3.28 2.76-6.01 3.5-5.06 1.38-8.5 4.38-12.52 7.54-4.24 3.33-8.56 5.99-12.48 9.76-7.79 7.48-17.29 11.34-26.2 17.13-4.16 2.7-7.61 6.12-11.39 9.28-3.57 2.99-7.35 5.71-11.16 8.38-6.95 4.87-14.08 9.6-20.27 15.45-7.06 6.67-11.62 14.53-15.6 23.31-4.43 9.76-8.13 19.83-11.43 30.02-6.82 21.11-11.9 42.73-18.57 63.89-3.26 10.35-6.69 20.63-12.31 29.98-5.13 8.53-11.29 16.45-17.07 24.55-4.95 6.93-10.32 14.11-17.5 18.88-7.63 5.07-18.37 6.14-25.55-.5-8.76-8.11-6.43-22.45-4.75-32.85a144.2 144.2 0 0 0 1.66-15.5c.31-5.78 2.07-11.3 3.79-16.78 3.25-10.39 4.69-21.51 9.34-31.41 4.62-9.83 9.36-19.3 11.96-29.94 2.44-9.98 2.46-20.14 3.06-30.33.24-4.08 1.01-17.11-6.34-15.62-3.19.65-6.23 2.61-9.39 3.51-3.28.94-6.57 1.93-9.5 3.73-3.71 2.28-6.82 5.49-9.96 8.47-3.78 3.58-7.31 7.35-10.5 11.47-6.5 8.41-11.56 17.77-16.58 27.11-5.5 10.23-11.46 20.14-17.58 30.02-3.17 5.11-6.02 10.53-9.96 15.11-3.37 3.92-7.17 7.43-10.62 11.27-6.89 7.64-14.02 14.94-19.79 23.51-6.19 9.19-11.32 19.02-16.91 28.57-2.91 4.98-6.01 9.84-9.18 14.65-2.36 3.58-3.6 8.51-6.96 11.32-6.85 5.72-12.97-5.31-15.18-10.56-3.69-8.76-3.28-19.17-2.27-28.43 2.49-22.88 11.33-44.5 19.12-65.95 3.76-10.35 7.01-20.82 10.28-31.34 2.91-9.36 6.07-19.64 12.12-27.51 4.18-5.44 9.36-10.35 12.37-16.6 1.67-3.46 3.2-11.7-2.68-11.86-6.43-.18-12.36 3.9-17.12 7.79-6.23 5.09-11.57 11.2-16.84 17.26-5.57 6.4-11.16 12.6-15.89 19.68-6.01 8.99-11.78 18.33-17.21 27.67-5.69 9.79-10.17 20.05-17.7 28.64-3.38 3.85-7.01 7.48-10.43 11.29-3.29 3.66-6.41 7.41-10.1 10.68-3.76 3.34-8 5.93-11.99 8.97-3.93 3-7.76 6.74-12.53 8.36-.77.26-1.89.76-2.46.42-.42-.25-.87-1.54-1.06-1.95-.61-1.33-1.03-2.76-1.29-4.2-.56-3.08-.36-6.28.22-9.34 2.69-14.21 11.87-27.08 20.11-38.61l11.28-15.52c4.8-6.86 8.45-14.42 12.59-21.68 5.7-10 13.08-18.3 20.8-26.76 7.1-7.78 13.5-15.82 19.69-24.32 12.2-16.76 28.12-30.27 44.85-42.32 8.24-5.94 16.69-11.57 25.11-17.25 8.73-5.89 17.25-12.12 26.15-17.77l29.21-17.97c9.72-6.34 19.38-12.6 29.41-18.46 39-22.77 72.83-53.21 103.13-86.53 14.47-15.91 26.78-32.95 36.94-51.94 10.06-18.81 18.45-38.53 26.47-58.28 17.67-43.54 32.57-88.75 41.93-134.85 4.43-21.84 7.07-44.09 7.1-66.39 0-1.61-2.5-1.61-2.5 0h0zm515.97 551.49c-9.01 1.64-14.22 14.08-20.12 19.53-5.74 5.31-16.24 9.34-22.77 14.09-9.47 6.88-17.01 16.3-26.52 22.86-18.88 13.02-40.24 22.95-60.79 33.58-23.75 12.29-45.86 20.94-71.64 28.31-19.45 5.56-38.98 10.97-58.65 15.72-12.5 3.02-24.52 3.5-37.11 5.59l-45.68 7.49c-9.37 1.34-17.07 5.38-26.31 7.15-27.78 5.34-56.17 7.88-84.04 13.15-12.98 2.46-26.46 2.42-39.29 5.01-8.14 1.64-15.47 5.18-23.69 6.65-52.16 9.36-105.39 23.14-153.52 44.71-6.53 2.93-14.1 2.87-20.36 5.72-4.28 1.94-8.93 5.96-13.04 8.3-6.75 3.84-18.35 8.13-16 18.78 1.59 7.19 8.88 8.58 15.79 9.17 7.52.64 13.98-1.79 20.9-4.17 10.86-3.73 23.11-5.26 33.63-9.3 17.17-6.59 31.11-18.49 49.59-22.56 15.94-3.51 31.06-10.66 47.02-13.41 12-2.06 32.7-1.08 41.25-11.52-8.86-3.44-16.99 3.15-24.83 6.56-11.58 5.04-22.98 9.07-33.94 15.45-17.12 9.97-34.75 17.4-50.92 29.37-14.23 10.53-27.96 20.98-40.43 33.49-11.65 11.69-35.64 28.64-28.47 48.8 25.38 5.87 41.78-11.98 61.58-23.99 13.51-8.19 28.8-12.47 42.5-20.42 10.59-6.15 19.69-13.08 30.3-18.77 4.38-2.35 7.68-6.99 12.06-9.05 3.46-1.63 8.54-.92 12.26-2.48 11.43-4.78 20.93-11.35 32.86-15.65 16.17-5.83 32.69-9.58 47.79-17.98-10.23 10.17-21.78 12.92-33.02 20.88-15.26 10.82-29.2 22.3-43.35 34.49-11.58 9.98-23.57 22.15-36.54 29.88-5.61 3.34-12.18 6.43-16.79 11.16-6.11 6.29-8.97 13.26-16.16 18.74-7.18 5.48-9.36 7.26-13.1 14.84-2.63 5.33-9.97 14.58-10.85 20.11-2.4 15.1 16.85 5.73 24.99 2.66 5.75-2.17 10.1-4.57 15.34-7.24 5.93-3.02 11.93-3.33 17.88-6.21s10.38-8.58 16.33-11.72c7.6-4.02 14.36-6.75 20.94-12.52 10.96-9.62 21.84-22.56 34.6-29.8l16.6-9.3c7.11-4.09 13.75-3.66 21.85-6.26 30.92-9.89 61.88-22.51 93.28-31.21 14.23-3.94 28.01-9.66 42.28-13.54 6.26-1.7 11.82-1.35 18.43-2.13 12.45-1.47 23.9-7.73 36.44-9.97 17.53-3.14 33.54-10.6 51.15-13.79 9.02-1.63 14.93-5.59 23.21-8 9.79-2.84 20.88-.32 31.01-2.53 23.81-5.19 43.54-16.29 65.26-25.95 16.27-7.24 30.94-15.09 44.15-27.52 16.14-15.18 33.96-30.2 48.7-46.71 7.58-8.48 25.79-24.8 26.55-36.87"/><path d="M1168.37 466.65c-5.65 1.26-9.51 5.66-12.88 10.08-4.16 5.45-7.59 10.3-13.56 13.95-6.35 3.89-13.19 6.85-19.08 11.48-6.49 5.1-12.1 11.19-18.36 16.55-13.44 11.51-30.26 19.58-45.93 27.58-15.62 7.98-31.15 16.23-47.31 23.08-16.4 6.95-33.3 12.4-50.43 17.26-18.47 5.24-37.04 10.75-55.83 14.75-9.28 1.98-18.74 2.76-28.12 4.03s-18.34 2.99-27.5 4.54-18.03 2.55-26.92 4.31-16.54 5.33-25.12 6.97c-18.73 3.58-37.68 5.83-56.54 8.59-9.18 1.34-18.31 2.94-27.45 4.54-9.44 1.65-19.04 2.07-28.54 3.27-8.72 1.1-16.7 3.56-25.06 6.12s-17.5 3.73-26.23 5.47c-17.68 3.53-35.26 7.57-52.66 12.29s-34.15 9.95-50.85 16.08c-8.27 3.04-16.46 6.28-24.56 9.74-3.95 1.68-7.81 3.67-11.96 4.81s-8.19 1.58-12.18 2.8c-7.03 2.16-12.38 7.38-18.77 10.79-4.34 2.32-9.07 4.57-12.19 8.52-3.21 4.07-3.71 9.99-.77 14.38 2.93 4.37 8.53 5.52 13.4 6.08 8.47.97 15.92-1.6 23.84-4.23 8.34-2.77 17.03-4.26 25.48-6.64 15.25-4.29 28.05-13.49 42.34-19.96 7.96-3.6 16.32-5.16 24.64-7.64s16.79-5.64 25.31-8.05c6.96-1.97 13.91-3.16 21.09-3.85 6.34-.61 12.78-1.18 18.94-2.9 5.14-1.44 10.07-3.75 13.61-7.85.63-.73.37-1.77-.55-2.09-7.4-2.53-14.11.77-20.64 4.15-8.04 4.16-16.6 7.2-24.87 10.86-8.65 3.82-16.7 8.67-25.03 13.12-8.39 4.49-16.9 8.76-25.11 13.57-15.86 9.29-30.75 20.99-44.56 33.09-6 5.25-11.57 10.95-17.44 16.35-4.88 4.49-9.78 9-14.04 14.1-3.99 4.79-7.61 10.21-9.09 16.35-.83 3.45-2.04 13.08 2.12 14.61 6.23 2.29 14.68 1.21 20.92-.48 6.88-1.86 13.22-5.31 19.19-9.13s11.98-8.31 18.1-12.28c7.67-4.99 15.9-8.79 24.29-12.39 8.54-3.66 17-7.35 24.95-12.18 7.98-4.84 15.58-10.29 23.67-14.96 4.19-2.42 7.53-4.92 11.23-8.02 4.28-3.57 7.9-3.67 13.11-4.55 4.59-.77 8.91-3.33 13.01-5.43l12.54-6.49c18.89-9.31 40.11-12.54 58.68-22.7l-1.51-1.96c-6.39 6.18-14.06 10.09-21.85 14.18-7.91 4.16-15.03 9.35-22.14 14.74-13.86 10.51-27.24 21.71-40.16 33.35-6.82 6.15-13.61 12.4-21.04 17.81-6.3 4.59-13.43 7.8-19.75 12.33-6.31 4.52-10.04 10.96-14.88 16.84-4.44 5.38-10.88 8.59-15.17 14.07-3.66 4.68-6.19 10.48-9.37 15.52-2.86 4.53-6.4 9.68-5.98 15.31.72 9.59 12.63 6.01 18.37 3.95 4.99-1.79 10.02-3.74 14.82-5.99 4.25-1.99 8.3-4.53 12.72-6.13s8.65-2.27 12.79-4.01c7.02-2.96 11.81-9.18 18.47-12.73s13.7-6.66 19.64-11.57c13-10.76 23.35-23.75 38.29-32.11 7.5-4.19 14.85-9.26 23.34-11.09 8.73-1.88 17.04-4.32 25.51-7.2l53.41-18.62 54.82-17.4c8.77-2.93 17.09-5.21 26.34-5.83 8.57-.58 16.47-2.67 24.59-5.42 8.48-2.87 16.97-4.64 25.63-6.79 8.55-2.12 16.89-5.02 25.31-7.57 8.31-2.52 17.09-3.64 25.27-6.49 8.31-2.89 15.7-6.88 24.69-7.34s16.95.12 25.45-1.96 16.62-4.93 24.63-8.22c15.59-6.4 30.97-13.72 46.15-21.04 14.91-7.2 27.71-16.25 39.83-27.47 13.18-12.2 26.77-23.99 39.18-36.99 8.97-9.41 18.8-18.75 26.28-29.41 3.01-4.29 5.7-9.04 6.18-14.35.15-1.6-2.35-1.59-2.5 0-.56 6.18-4.66 11.78-8.38 16.49-3.97 5.01-8.42 9.62-12.84 14.23-10.94 11.38-21.74 22.68-33.38 33.36-12.47 11.43-24.46 23.84-38.87 32.85-13.7 8.56-28.82 14.63-43.41 21.47-15.35 7.2-31.36 14.76-48.19 17.71-8.52 1.49-17.25 0-25.79 1.4-7.74 1.27-14.57 5.39-22.02 7.63-8.18 2.45-16.67 3.79-24.87 6.32s-15.91 5.16-24.03 7.14-16.29 3.68-24.35 6.42c-8.33 2.83-16.38 5.01-25.2 5.58-17.46 1.13-33.55 8.78-50.14 13.81-17.32 5.26-34.54 10.53-51.62 16.55l-25.99 9.18c-8.34 2.9-16.78 6.27-25.41 8.18-3.41.76-6.89 1.22-10.25 2.19-3.78 1.09-7.07 2.97-10.48 4.89-7.16 4.03-14.57 7.69-21.11 12.7-12.4 9.51-21.96 22.94-35.62 30.73-6.45 3.68-13.16 6.42-18.93 11.19-2.95 2.44-5.83 5.01-9.29 6.72-4.35 2.14-9.23 2.83-13.76 4.46-7.12 2.56-13.67 6.69-20.73 9.47-4.21 1.66-8.4 3.47-12.83 4.48s-9.44.99-9.19-4.85c.27-6.3 5.54-12.26 8.71-17.41 3.16-5.12 5.29-10.33 9.97-14.34 2.59-2.22 5.46-4.09 7.92-6.45 2.46-2.35 4.51-5.07 6.51-7.81 2.37-3.24 4.7-6.55 7.64-9.32 2.97-2.8 6.53-4.9 10.06-6.92 6.71-3.83 13.07-7.94 19.08-12.81 26.45-21.42 50.12-47.12 80.64-62.99 6.9-3.59 13.47-7.44 19.09-12.88 1.04-1-.28-2.64-1.51-1.96-15.8 8.65-33.39 12.22-50.01 18.81-7.34 2.91-14.2 6.8-21.21 10.38-3.71 1.9-7.73 4.28-11.84 5.07-3.5.68-7.09.43-10.33 2.11-3.05 1.57-5.4 4.15-8.02 6.31-3.56 2.94-7.92 4.88-11.84 7.31-7.38 4.57-14.48 9.6-22 13.94-14.93 8.62-31.71 13.34-46.23 22.77-11.47 7.46-22.34 16.92-35.69 20.88-3.45 1.02-7.01 1.63-10.61 1.73-1.68.04-3.36-.01-5.03-.17-.98-.09-2.75-.13-3.75-.54-1.29-.53-1.11-.56-1.63-1.89-2.35-6.07.89-13.91 4.04-19.01 6.7-10.84 17.3-18.83 26.29-27.66 12.85-12.63 27.31-23.99 42.1-34.26 8.23-5.72 17.04-10.54 25.89-15.22l25.3-13.75c8.93-4.77 18.41-8.34 27.7-12.3 8.25-3.51 17.08-10.74 26.44-7.54l-.55-2.09c-8.31 9.62-23.81 9.2-35.39 10.48-15.39 1.7-29.65 7.88-44.42 12.11-7.51 2.15-14.98 3.66-22.17 6.82-7 3.08-13.59 6.95-20.31 10.58-7.24 3.92-14.6 7.38-22.54 9.62-8.02 2.26-16.26 3.7-24.21 6.22-8.15 2.59-15.71 5.58-24.44 4.55-7-.82-15.47-4.87-12.34-13.53 1.99-5.5 8.36-8.24 13.15-10.8 6.38-3.4 11.7-8.68 18.77-10.71 3.81-1.09 7.77-1.59 11.59-2.64s7.15-2.73 10.68-4.25c8.09-3.5 16.29-6.76 24.55-9.82 16.46-6.09 33.21-11.37 50.13-16.01 16.5-4.52 33.17-8.44 49.93-11.88 8.53-1.75 17.21-3 25.69-4.97 8.5-1.98 16.47-5.44 25.13-6.84 9.22-1.49 18.56-1.9 27.81-3.11 8.51-1.12 16.93-2.92 25.41-4.23l54.43-8c8.65-1.45 16.9-3.29 25.24-6s16.38-3.72 24.79-5.07l54.57-8.39c18.07-2.37 35.75-7.7 53.28-12.53 16.61-4.58 33.23-9.17 49.43-15.08s30.46-12.46 45.11-20c14.97-7.71 30.18-15.01 44.71-23.54 6.97-4.09 14-8.34 20.23-13.51 6.34-5.27 11.92-11.38 18.33-16.58 6-4.87 13.04-7.9 19.59-11.9 4.93-3.02 8.43-6.67 11.83-11.29 3.67-4.99 7.56-11.05 14.01-12.49 1.57-.35.91-2.76-.66-2.41h0z"/><path d="M-110.64 23.59c13.49-2.63 33.52 14.81 44.92 20.53 28.36 14.21 55.56 32.49 85.51 42.93 19.79 6.9 46.48 5.21 63.65 18.62 5.3 4.15 7.05 13.2 9.13 19.28 3.54 10.39 5.24 22.66 6.82 33.47 3.57 24.39 6.8 48.97 12.1 73.06 1.18 5.37 2.61 10.93 2.88 16.45.15 3.01-1.86 10.54.24 12.76 1.71 1.81 5.07.75 7.2.69 6.45-.18 12.57.51 18.93-1.19 8.58-2.3 11.13-4.43 11.11-12.54-.03-17.32-2.26-34.5-2.19-51.93v-31.44c0-8.57 2.09-20.44.11-28.83-1.28-5.43-3.43-9.49-1.99-15.4 7.13 1.63 13.01 5.18 19.67 8.55 13.71 6.94 27.5 11.28 41.61 17.29 17.69 7.53 34.35 16.49 52.68 22.21 12.3 3.84 26.15 6.1 36.74 13.61 5.6 3.98 11.72 6.27 17.49 10.04 6.14 4.01 11.68 10.15 15.45 16.22 18.97 30.5 45.66 56.38 66.7 85.39 10.19 14.05 26.11 22.54 38.93 33.8 5.71 5.02 12.53 16.43 21.08 15.42 4.66-.55 10.9-8.43 13.25-12.35.89-1.49.24-3.93 1.19-5.45 1.07-1.7 3.15-2.57 4.31-4.29-9.13-13.24-23.56-21.02-34.9-32.4-4.03-4.05-8.6-8.02-11.55-12.98-1.88-3.17-2.57-6.24-5.18-9.15-5.61-6.26-11.55-10.75-15.48-18.18-4.09-7.74-6.56-14.88-11.49-22.42-4.03-6.17-5.79-13.64-10.26-19.38-9.67-12.41-21.4-24.06-31.06-36.54-7.92-10.24-14.5-22.9-20.51-34.36-6.16-11.76-18.25-31.69-32.22-32.69 21.32 1.53 43.15.29 64.53.3 13.77 0 27.17-.82 40.7 2.09 6.84 1.47 13.27 4.56 19.84 6.01-2.34-6.7-6.44-12.71-9.11-19.3-4.48-11.04-5.23-9-15.83-9.84-9.65-.77-17.91-4.5-27.88-4.61-10.74-.11-21.48 1.05-32.14-.85-31.08-5.53-64.28-2.69-95.81-5.03l-28.13-2.05c-6.78-.62-13.53-1.56-20.31-2.23-13.26-1.31-25.94-1.49-38.65-6.17-15.98-5.89-29.89-16.15-45.07-23.68-16.13-8-30.75-18.1-45.15-29C65.54 3.73 59.4.25 53.7-3.72c-10.97-7.64-17.26-19.22-27.43-27.41-3.12-2.51-6.69-4.23-10.2-6.11-2.34-1.26-4.66-2.54-6.94-3.9-9.26-5.49-18.57-16.25-29.7-17.12-14.16-1.1-17.73 6.33-25.6 16.52-7.8 10.09-16.18 19.01-23.51 29.58C-76.55-2.25-85.12 6.47-92.8 15.5c-6.11 7.18-8.3 8.12-17.84 8.1" fill="#007857"/><path d="M-110.31 24.79c6.98-1.2 14.22 2.49 20.13 5.78 6.6 3.67 12.74 8.06 19.18 11.99 7.39 4.51 15.37 8.15 22.96 12.32l26.67 14.71c16.2 8.7 33.26 17.62 51.36 21.53 16.08 3.47 33.78 3.96 48.27 12.54 3.81 2.26 6.78 4.81 8.72 8.86 1.73 3.62 2.7 7.55 3.92 11.36 2.9 9.13 4.8 18.35 6.24 27.82l9.67 62.8 3.1 15.64c1.15 5.34 2.61 10.67 3.08 16.13.38 4.37-3.26 14.37 2.48 16.4 1.45.51 3.05.29 4.54.13 2.36-.26 4.72-.21 7.1-.19 4.69.03 9.38-.03 13.95-1.22 5-1.3 10.25-3.22 11.56-8.76.95-4 .46-8.42.33-12.48-.18-5.38-.51-10.75-.85-16.12-.69-10.8-1.21-21.56-1.19-32.39s-.45-21.2.12-31.74c.46-8.52 1.84-17.34-.3-25.73-1.19-4.68-2.8-8.89-1.76-13.79l-1.54.87c7.67 1.86 14.35 5.99 21.37 9.42 6.67 3.25 13.56 6.03 20.47 8.71 14.83 5.76 29.27 12.14 43.76 18.7a273.11 273.11 0 0 0 40.36 14.61c6.99 1.93 14.06 4 20.41 7.57 2.93 1.65 5.6 3.7 8.52 5.37 3.36 1.92 6.87 3.56 10.22 5.5 13.42 7.77 19.99 21.69 28.85 33.76s18.02 22.89 27.42 34.02c9.68 11.47 19.27 22.99 28.19 35.07 7.86 10.64 18.67 18.18 29.13 26.05 5.58 4.19 10.73 8.5 15.39 13.68 3.63 4.03 7.89 8.94 13.51 9.98s9.74-3.08 13.05-6.95c1.58-1.85 3.5-3.99 4.47-6.24.6-1.38.38-2.85.84-4.26.69-2.13 2.96-3.15 4.33-4.87.33-.41.54-1.03.2-1.51-5.31-7.55-12.26-13.51-19.42-19.25s-14.55-12.03-21.18-18.85c-3.52-3.63-5.97-7.43-8.17-11.95-2-4.11-5.28-7.15-8.46-10.36-3.49-3.51-6.92-7.09-9.39-11.42-2.48-4.36-4.39-9.03-6.57-13.55-2.18-4.53-5-8.64-7.32-13.08-2.21-4.24-3.79-8.8-6.23-12.92-2.42-4.1-5.74-7.72-8.82-11.33l-10.48-11.94c-7.11-8.02-14.18-16.09-19.99-25.13-5.43-8.43-10-17.35-14.69-26.2-3.86-7.29-8.2-14.43-13.61-20.69-5.03-5.83-11.43-11.31-19.39-12.06v2.5c21.3 1.48 42.64.33 63.96.3 10.37-.01 20.8-.49 31.14.53 5.39.53 10.7 1.52 15.86 3.18 4.59 1.48 9.08 3.24 13.78 4.33.86.2 1.88-.59 1.54-1.54-1.78-4.9-4.32-9.42-6.67-14.06-1.91-3.78-3.15-8.03-5.44-11.61-2.84-4.44-7.43-3.98-12.16-4.26-10.68-.63-20.72-4.75-31.48-4.74l-17.82.24c-6.37-.1-12.51-1.19-18.79-2.08-23.25-3.28-46.78-2.55-70.19-3.14-11.94-.3-23.84-1.19-35.74-2.02s-23.6-2.42-35.42-3.47c-11.83-1.04-23.76-1.71-35.02-5.82-10.66-3.9-20.42-9.87-30.19-15.55s-19.66-10.31-29.19-16.01c-9.68-5.8-18.92-12.28-27.95-19.04-8.91-6.67-19.23-11.83-27.17-19.7-7.15-7.09-12.83-15.7-20.91-21.83-4.04-3.07-8.75-5.14-13.16-7.61C8.85-42.7 4.9-45.48.97-48.5c-6.98-5.39-14.22-10.93-23.41-11.16-7.48-.19-13.35 2.78-18.11 8.44-2.77 3.3-5.22 6.87-7.89 10.25-3.55 4.51-7.27 8.88-10.93 13.3-7.19 8.7-13.41 18.13-20.75 26.7l-11.21 12.73c-2.6 2.98-5.12 6.66-8.59 8.71-3.22 1.9-7.15 1.79-10.76 1.8-1.61 0-1.61 2.5 0 2.5 3.43 0 7.07.03 10.3-1.29 2.83-1.15 5.02-3.33 7.02-5.56 7.1-7.91 14.33-15.85 20.84-24.25 3.49-4.51 6.64-9.26 10.18-13.74 3.55-4.49 7.26-8.85 10.9-13.26 3.1-3.75 6.11-7.56 9.02-11.45 2.21-2.96 4.43-6.05 7.29-8.44 7.01-5.86 17.14-4.64 24.6-.35 4.01 2.31 7.64 5.22 11.3 8.04 4.03 3.1 8.18 5.8 12.63 8.24 4.77 2.62 9.64 4.9 13.77 8.53 3.66 3.22 6.88 6.9 10.06 10.59 3.19 3.69 6.37 7.42 9.95 10.74 3.66 3.38 7.78 6.1 11.96 8.79C68.6 7.45 77.42 14.4 86.69 20.77S105.62 33 115.7 38.07c19.3 9.7 36.88 23.48 58.62 27.29 10.91 1.91 22.07 2.26 33.06 3.53 11.81 1.37 23.62 2.27 35.48 3.08 23.32 1.59 46.64 1.13 69.98 2.2 11.58.53 22.84 2.19 34.32 3.67 12 1.54 24.23-.87 36.16 1.02 5.09.81 10.05 2.28 15.13 3.2 3.88.7 7.76.88 11.69 1.1 2.37.14 4.34.4 5.8 2.44 2.26 3.15 3.32 7.17 5.02 10.64 2.41 4.93 5.22 9.65 7.1 14.83l1.54-1.54c-4.71-1.09-9.19-2.85-13.78-4.33-4.66-1.5-9.41-2.44-14.27-3.03-10.7-1.29-21.5-.8-32.25-.78-21.7.04-43.43 1.21-65.1-.3-1.62-.11-1.58 2.35 0 2.5 7.51.7 13.53 6.46 18.15 11.95 4.87 5.78 8.83 12.33 12.38 18.98 4.58 8.58 8.98 17.24 14.16 25.47 5.24 8.32 11.48 15.86 17.95 23.24 6.93 7.91 14.48 15.54 20.63 24.09 2.61 3.63 4.26 7.8 6.1 11.84 2.05 4.49 4.84 8.49 7.13 12.84 4.37 8.3 7.36 17.29 13.67 24.42 2.96 3.34 6.3 6.31 9.28 9.63 3.3 3.68 4.6 8.5 7.55 12.43 12.48 16.59 32.61 25.62 44.55 42.59l.2-1.51c-1.54 1.94-4.09 3.09-4.95 5.54-.54 1.53-.18 3.17-.89 4.68-.5 1.06-1.34 2.04-2.04 2.97-3.14 4.18-7.8 10.02-13.68 8.16-5.26-1.67-9.08-6.79-12.64-10.73-3.84-4.25-8.31-7.76-12.86-11.22-10.88-8.28-22.16-15.97-30.34-27.13-8.49-11.57-17.7-22.58-26.96-33.54-9.59-11.37-19.24-22.71-28.04-34.71-8.03-10.94-14.17-23.76-25.41-31.88-5.98-4.32-12.98-6.98-19.08-11.13-5.41-3.67-11.35-6.19-17.56-8.16-6.44-2.05-13.03-3.57-19.47-5.57-7.45-2.32-14.71-5.22-21.86-8.34-15.23-6.65-30.16-13.83-45.68-19.81-8.24-3.18-16.5-6.35-24.44-10.23-7.22-3.52-14.09-7.76-21.97-9.67-.63-.15-1.39.2-1.54.87-.85 4-.35 7.65.75 11.55 1.24 4.4 2.05 8.57 2.04 13.16 0 9.15-.97 18.25-.96 27.42l.14 32.57c.35 10.58 1.28 21.13 1.76 31.71.21 4.71.73 9.69.17 14.38-.35 2.98-1.63 5.11-4.33 6.49-8.3 4.26-17.63 2.43-26.5 3.35-2.17.23-4.33.18-4.69-2.36-.26-1.84.08-3.83.3-5.67.43-3.7.25-7.12-.37-10.81-1.75-10.4-4.41-20.65-6.26-31.04-3.63-20.42-6.17-41.01-9.38-61.49-1.46-9.32-3.63-18.23-6.38-27.24-2.03-6.66-3.93-13.62-9.8-17.92-13.17-9.65-30.4-11.06-45.97-13.85-18.32-3.29-35.11-10.97-51.53-19.53-17.27-9.01-34.18-18.7-51.41-27.8-12.21-6.44-22.99-16.85-36.78-19.95-2.76-.62-5.54-.79-8.33-.31-1.58.27-.91 2.68.66 2.41h0z"/><path d="M1038.29 426.43c-3.51 1.95-7.11 3.54-10.77 4.65-7.18 2.18-14.43 1.34-21.79 1.88-4.98.36-9.82 1.31-14.63 2.62-25.67 7.01-49.74 17.06-76.84 17.05-24.04 0-47.78 6.09-70.93 12.35-6.8 1.84-36.35 9.05-37.87 14.54-.54-7.73-6.38-11.9-8.7-18.72-3.11-9.11 2.42-10.11 10.63-14.35 8.94-4.62 18.23-7.03 27.46-10.98 7.82-3.34 14.72-8.78 22.58-11.76 6.87-2.6 14.62-2.53 21.63-4.67 16.38-4.99 31.16-12.37 47.65-16.34 8.5-2.05 18.52-7.01 27.37-7.4 8.96-.39 10.97-1.77 6.29-10.08l-10.34-18.83c-3.64-7-8.72-15.91-10.71-23.47-.86-3.25-2.16-5.26 1.29-7.5.82-.54 7.08-2.59 7.96-2.53 3.56.25 2.85 1.02 4.8 4.09 6.25 9.8 10.76 20.48 18.39 29.64 3.41 4.09 5.66 7.45 10.86 8.26 19.86 3.1 34.26 1.41 44.46-16.77 5.62-10.01 10.83-20.51 15.32-31.19 3.27-7.78 7.24-14.61 11.13-22.02 3.25-6.2 3.52-12.86 6.46-19.06 15.58-32.83 29.11-66.76 46.36-98.94 3.82-7.13 6.18-14.95 9.13-22.46.85-2.18 2.88-10.11 5.58-11.62 7.73-4.32 27.33 15.61 32.7 18.42 7.86 4.12 15.06 3 13.33 13.82-1.25 7.81-7.93 16.81-11.04 23.83-5.53 12.46-10.47 25.09-16.3 37.43-6.49 13.75-12.09 27.89-17.91 41.92-5.17 12.46-12.69 25.17-15.45 38.45-1.93 9.29-.35 18.53-3.43 27.69-3.51 10.45-12.7 20.81-19.74 29.27-11.81 14.2-27.35 33.04-44.9 42.78z" fill="#007857"/><path d="M1037.66 425.35c-4.24 2.32-8.74 4.34-13.5 5.28s-9.53.78-14.3.9c-9.28.23-18.02 2.46-26.88 5.07-17.39 5.13-34.64 11.22-52.69 13.67-9.36 1.27-18.75.86-28.15 1.6s-18.92 2.28-28.23 4.24c-14.03 2.95-27.92 6.72-41.73 10.56-6.01 1.67-12.03 3.44-17.84 5.75-3.17 1.26-8.92 3.06-10.1 6.77l2.46.33c-.3-3.45-1.53-6.53-3.31-9.47-1.81-2.98-4-5.78-5.25-9.08-.93-2.46-1.76-5.59.11-7.82 1.7-2.03 4.61-3.1 6.93-4.22 3.97-1.93 7.88-3.87 12-5.47s8.58-3.1 12.84-4.72c3.99-1.52 7.87-3.19 11.61-5.26 3.82-2.12 7.51-4.46 11.41-6.44 3.91-1.99 7.94-3.31 12.25-4.1s8.64-1.21 12.85-2.34c8.75-2.34 17.2-5.94 25.66-9.15 4.22-1.6 8.45-3.16 12.74-4.56 4.21-1.37 8.49-2.38 12.74-3.59 7.99-2.28 15.81-6.15 24.21-6.73 3.41-.23 10.5.09 10.56-4.93.03-2.48-1.45-4.97-2.62-7.06l-6.97-12.5c-4.15-7.62-8.54-15.3-11.84-23.34-.75-1.84-1.43-3.71-1.97-5.62-.37-1.32-1.13-2.95-1.07-4.34.11-2.53 4-3.26 5.89-3.84 1.66-.52 4.23-1.61 5.44.21 2.03 3.08 3.83 6.43 5.65 9.65 4.13 7.32 8.03 14.79 13.26 21.41 2.1 2.66 4.23 5.59 6.99 7.6s6.15 2.41 9.52 2.84c6.21.79 12.57 1.12 18.75-.06 5.56-1.06 10.71-3.54 14.92-7.33 5.63-5.07 9.06-11.99 12.53-18.6 4.36-8.3 8.1-16.82 11.91-25.37 1.81-4.05 3.86-7.99 5.95-11.9 2.07-3.87 4.42-7.68 5.93-11.82s2.19-8.32 3.63-12.38c1.57-4.43 3.91-8.66 5.88-12.93l11.59-25.68c7.62-17.07 15.25-34.14 23.66-50.84 4.04-8.03 8.43-15.8 11.6-24.24l4.25-11.45c.93-2.67 1.66-5.43 3.01-7.93 1.04-1.93 2.22-2.88 4.45-2.64s4.21 1.24 6.09 2.26c4.87 2.65 9.26 6.16 13.56 9.63 3.08 2.49 6.14 5.48 9.72 7.25 2.45 1.21 5.06 1.99 7.57 3.04 2.14.9 4.04 2.11 4.57 4.51.75 3.39-.47 7.18-1.74 10.3-1.54 3.79-3.64 7.34-5.63 10.9-4.3 7.67-7.5 15.9-10.92 23.99l-22.52 51.67c-3.49 8.49-7.12 16.86-11 25.17-3.71 7.97-7.41 16.16-9.06 24.84-1.74 9.12-.33 18.68-3.48 27.55-2.87 8.06-8.4 15.08-13.77 21.62-9.9 12.07-19.82 24.34-31.27 35-5.76 5.36-11.96 10.28-18.84 14.14-1.4.79-.14 2.95 1.26 2.16 14.24-7.99 25.75-20.2 36.3-32.45a815.99 815.99 0 0 0 15.12-18.06c5.25-6.47 10.47-13.31 13.41-21.19 3.29-8.83 2-18.28 3.56-27.4 1.57-9.18 5.59-17.8 9.51-26.17 8.02-17.13 14.56-34.89 22.48-52.07 4.05-8.78 7.95-17.61 11.72-26.51l5.79-13.49c1.55-3.5 3.48-6.81 5.34-10.15 3.27-5.88 7.76-13.46 6.16-20.5-1.17-5.13-6.64-6.31-10.87-7.98s-7.51-4.59-11.02-7.43c-4.33-3.5-8.7-7.04-13.51-9.86-3.28-1.92-7.88-4.38-11.77-2.85-2.28.9-3.41 3.37-4.3 5.48-1.09 2.56-1.81 5.25-2.81 7.84l-4.72 12.64c-1.72 4.37-3.84 8.49-6.02 12.64-4.49 8.54-8.73 17.2-12.84 25.93-8.11 17.22-15.68 34.69-23.55 52.02-3.75 8.26-8.39 16.41-10.73 25.21-1.21 4.54-2.47 8.77-4.68 12.94l-6.38 12.05c-4.33 8.6-7.8 17.6-12.12 26.2-3.64 7.24-7.17 15.24-12.77 21.21-9.15 9.76-22.31 10.17-34.75 8.47-1.77-.24-3.62-.42-5.28-1.14s-3.11-2.02-4.36-3.39c-2.79-3.06-5.36-6.39-7.66-9.83-4.84-7.24-8.58-15.14-13.2-22.52-1.18-1.89-2-4.62-4.39-5.26s-4.38.17-6.55.88-4.79 1.41-6.16 3.5c-1.61 2.45-.19 5.54.55 8.06 2.31 7.82 6.51 15 10.27 22.18l7.1 13.09c1.87 3.35 4.37 6.78 5.5 10.48.61 1.99.06 2.89-1.94 3.39-3.25.82-6.7.53-10 1.14-8.31 1.52-16.11 5.14-24.29 7.2-9 2.28-17.67 5.6-26.33 8.91-8.35 3.19-16.85 6.83-25.68 8.42-4.39.79-8.86 1.23-13.17 2.44-4.17 1.17-8.06 3.17-11.82 5.3-3.8 2.16-7.52 4.49-11.45 6.4-4.2 2.05-8.64 3.58-13.03 5.16-7.87 2.84-15.55 6.02-22.94 9.96-2.03 1.08-4.14 2.42-5.22 4.54-1.26 2.47-.76 5.39.06 7.91 2.17 6.61 8.11 11.5 8.74 18.66.12 1.38 2.01 1.73 2.46.33.33-1.03 1.9-1.89 2.84-2.44 1.98-1.15 4.1-2.04 6.23-2.87 5.21-2.02 10.58-3.63 15.96-5.15 13.15-3.71 26.4-7.26 39.74-10.21 9.43-2.08 18.97-3.77 28.59-4.65s18.55-.4 27.79-1.47c17.6-2.03 34.45-7.62 51.33-12.73 10.1-3.05 20.1-6.07 30.72-6.33 4.89-.12 9.8-.02 14.63-.92 5.08-.95 9.93-3.12 14.44-5.59 1.41-.77.15-2.93-1.26-2.16zm-236.92 766.83c-4.24-.24-5.65-5.03-7.18-8.25-2.63-5.52-5.99-10.74-9.08-16.01-4.92-8.4-9.76-17.06-12.41-26.49-1.36-4.87-2.22-10.19-.76-15.13l-1.54.87c3.6 1.12 5.68 5.61 7.27 8.7 2.16 4.22 4.38 8.3 6.92 12.32 3.09 4.89 6.27 9.74 8.68 15.01 1.81 3.98 3.58 7.99 4.95 12.14 1.48 4.49 2.94 9.76 1.49 14.43l1.84-.75c-1.63-.94-2.54-3.03-3.36-4.63-.99-1.92-1.85-3.97-3.11-5.74-1.64-2.31-3.3-4.54-4.69-7.01-1.43-2.54-2.7-5.17-3.95-7.81-1.94-4.13-3.88-8.24-6.17-12.19-2.16-3.73-4.34-7.45-6.14-11.37-1.63-3.56-3.65-8.19-2.46-12.16l-2.28.3c6.02 8.7 13.13 16.73 17.91 26.23 2.35 4.67 4.31 9.54 7 14.03 2.39 3.99 4.67 7.99 6.24 12.38 1.73 4.84 2.79 10.16 1.5 15.24l1.21-.92c-2.97.29-5.53-3.21-7.08-5.35-2.63-3.62-4.73-7.62-6.74-11.61-1.45-2.89-2.72-5.88-4.32-8.69-3.53-6.19-7.56-12.09-10.59-18.56-1.46-3.11-2.68-6.38-3.74-9.65-.99-3.05-2.03-6.57-1.19-9.78l-1.21.92c1.54.05 2.95 1.24 4.03 2.23 1.54 1.4 2.89 3 4.17 4.63 2.52 3.2 4.84 6.56 7.36 9.76 3.61 4.59 7.04 9.38 9.88 14.49s4.95 10.75 7.04 16.27c.9 2.36 1.59 4.79 1.85 7.31.24 2.37.29 5.08-1.1 7.13l1.41-.57c-1.67-.62-3.03-2.08-4.21-3.36-1.46-1.59-2.76-3.32-3.99-5.08-2.7-3.86-5.09-7.87-7.11-12.13-2.48-5.21-4.71-10.54-7.2-15.75-1.18-2.48-2.36-4.96-3.38-7.51-.85-2.14-1.44-4.4-2.41-6.5s-2.22-4.11-3.3-6.17c-.93-1.77-2.06-3.83-1.92-5.9l-.92 1.21c.76-.18 1.81.2 2.77.8 1.34.84 2.48 1.97 3.56 3.12 2.87 3.08 5.27 6.6 7.54 10.13 3.94 6.13 7.59 12.55 10.87 19.06 1.57 3.12 2.95 6.35 3.87 9.72.89 3.22 1.42 6.68.52 9.96l2.28-.3c-4.59-7.2-8.95-14.55-12.67-22.24-1.4-2.89-2.59-5.89-4.18-8.69-1.44-2.55-2.97-5.04-4.31-7.64-.7-1.36-1.37-2.74-1.84-4.2-.31-.97-.65-2.08-.35-3.09l-1.84.75c5.5 2.91 8.56 9.29 10.84 14.79 1.16 2.79 2.17 5.65 3.18 8.5 1.06 3.01 1.67 6.1 2.45 9.18.91 3.58 2.26 7.16 5.11 9.66.72.63 2.27.29 2.13-.88-.48-4.12-2.2-7.92-4.04-11.58l-2.98-5.77c-.91-1.79-1.65-3.65-2.51-5.46-3.45-7.22-10.09-12.55-12.16-20.47l-2.28.96c1.54 3.17 3.08 6.36 4.8 9.44s3.7 5.99 5.78 8.87c3.57 4.94 5.68 11.04 10.97 14.53.79.52 1.9-.16 1.88-1.08-.18-7.89-5.52-14.81-8.96-21.59-3.61-7.11-6.99-14.81-12.63-20.59-1.01-1.04-2.62.28-1.96 1.51 3.08 5.79 4.68 12.28 8.18 17.86 3.39 5.41 7.41 10.36 8.97 16.69l2.41-.66c-1.41-5.61-3.74-10.87-5.82-16.24-.85-2.2-1.29-4.51-2.03-6.74s-1.98-4.35-3.78-6.02c-1.18-1.1-2.95.67-1.77 1.77 3.53 3.28 3.81 8.24 5.5 12.52 2.01 5.07 4.15 10.08 5.49 15.38.39 1.56 2.8.9 2.41-.66-1.58-6.38-5.48-11.5-8.98-16.91s-5.27-12.32-8.42-18.24l-1.96 1.51c5.4 5.53 8.64 12.96 12.09 19.77 1.69 3.35 3.65 6.55 5.35 9.9s3.34 6.95 3.42 10.74l1.88-1.08c-5.02-3.31-7.05-9.58-10.52-14.23-4.09-5.5-7.14-11.56-10.13-17.7-.63-1.3-2.63-.38-2.28.96 2.04 7.8 8.23 13.1 11.9 20.04.93 1.77 1.63 3.65 2.51 5.44s1.83 3.56 2.75 5.34c1.91 3.69 3.96 7.61 4.45 11.79l2.13-.88c-2.59-2.26-3.7-5.48-4.51-8.72-.77-3.08-1.4-6.15-2.46-9.15-2.13-6.02-4.27-12.2-7.83-17.55-1.89-2.84-4.24-5.48-7.29-7.09a1.27 1.27 0 0 0-1.84.75c-.68 2.23.38 4.74 1.26 6.76 1.23 2.81 2.81 5.45 4.34 8.1 1.56 2.69 2.85 5.41 4.16 8.23 1.86 4 3.88 7.91 6.03 11.76 2.46 4.4 5.1 8.69 7.81 12.94.57.89 1.99.77 2.28-.3 1.69-6.13-.65-12.79-3.12-18.38-1.59-3.6-3.54-7.04-5.44-10.49-4.25-7.72-8.72-15.74-14.73-22.26-2.15-2.33-5.4-5.58-8.92-4.74-.56.13-.88.67-.92 1.21-.13 1.91.64 3.79 1.43 5.49.96 2.07 2.14 4.03 3.22 6.05 1.08 2.03 1.72 4.14 2.52 6.29.96 2.56 2.07 5.07 3.23 7.54 4.71 10.02 8.72 20.46 15.07 29.59 2.52 3.62 5.56 8.23 9.87 9.84.54.2 1.12-.14 1.41-.57 2.66-3.9 1.6-9.79.34-14.01-.82-2.72-1.96-5.37-3.01-8.01-1.17-2.94-2.39-5.88-3.8-8.72-2.81-5.67-6.51-10.9-10.35-15.91l-8.11-10.72c-2.47-3.19-5.99-8.08-10.47-8.23-.54-.02-1.07.4-1.21.92-.76 2.91-.23 6 .53 8.85.81 3.02 1.93 5.99 3.09 8.9 2.81 7.02 6.91 13.38 10.78 19.84 4.41 7.35 7.32 15.52 12.36 22.51 2.06 2.86 5.29 7.09 9.32 6.69.55-.05 1.06-.35 1.21-.92 2.34-9.22-1.8-19.07-6.39-26.92-1.29-2.21-2.64-4.36-3.8-6.64-1.2-2.36-2.29-4.78-3.42-7.17-2.35-4.96-5.13-9.6-8.31-14.07l-10.99-15.01c-.6-.87-1.96-.78-2.28.3-1.13 3.74.15 7.88 1.54 11.37 1.71 4.28 3.97 8.32 6.27 12.3 2.27 3.92 4.35 7.88 6.27 11.99 2.6 5.55 5.21 11.15 8.97 16.03 1.54 2 2.56 4.28 3.71 6.52 1.04 2.02 2.22 4.34 4.26 5.53.72.42 1.6.02 1.84-.75 1.35-4.35.43-9.18-.78-13.45-1.32-4.64-3.22-9.09-5.2-13.48-2.37-5.27-5.31-10.15-8.4-15.03-2.78-4.39-5.34-8.81-7.69-13.44-1.97-3.9-4.49-8.88-8.98-10.28-.65-.2-1.35.24-1.54.87-1.38 4.66-.88 9.66.21 14.32 1.18 5.05 3.13 9.91 5.32 14.6 2.21 4.73 4.77 9.29 7.4 13.8 3.24 5.55 6.8 11.03 9.56 16.84 2.02 4.26 3.91 9.18 9.34 9.49 1.61.09 1.6-2.41 0-2.5h0zm-220.19 60.64l-.38 1.46 1.84-.75c-3.81-2.4-6.75-5.95-10.46-8.51-3.82-2.63-8.05-4.59-11.88-7.2-4.24-2.89-8.31-6.51-11.53-10.51-1.22-1.51-3.33-4.11-2.49-6.17l-1.54.87c8.76 2.7 15.84 8.49 22.87 14.14 6.5 5.22 13.63 9.79 17.49 17.45l.75-1.84c-3.64.78-7.22-1.14-10.16-3.1-3.31-2.21-6.25-4.9-9.39-7.34-3.4-2.65-7.22-4.67-10.79-7.08-2.88-1.94-5.32-4.18-7.53-6.85-1.1-1.33-2.17-2.67-3.18-4.07-.41-.57-.82-1.16-1.19-1.76-.15-.25-.29-.51-.43-.78-.05-.1-.05-.16-.05-.1l-1.58 1.21c10.6 3.19 20.18 8.63 28.82 15.49 2.84 2.25 5.58 4.63 8.34 6.98 2.55 2.17 5.05 4.41 7.3 6.9 1.05 1.16 2.06 2.38 2.84 3.75.47.82.96 1.97.81 2.69-.25 1.19-2.1 1.55-3.37 1.34-2.44-.4-4.7-2.03-6.81-3.22-5.36-3.03-10.69-6.21-15.53-10.03-2.15-1.7-4.37-3.3-6.53-4.98-3.34-2.59-6.65-5.31-9.51-8.42-1.63-1.78-4.56-4.9-3.52-7.47l-.87.87c3.26-.92 6.71 2.31 9.08 4.12 3.42 2.61 7.26 4.62 10.97 6.76 3.8 2.2 7.39 4.61 10.72 7.48 3.18 2.75 6.33 5.77 8.6 9.33l.75-1.84c-3.2.92-6.44-.99-9-2.72-2.88-1.95-5.44-4.32-8.18-6.47-6.88-5.38-14.28-10.01-20.28-16.44l-.25 1.96c1.93-.96 4.4.03 6.17.9 2.44 1.19 4.69 2.78 6.85 4.43 1.65 1.26 3.21 2.64 4.9 3.84 2.17 1.52 4.46 2.86 6.63 4.37 1.98 1.37 4.99 3.23 5.7 5.7l.57-1.41c-.22.15-.42.18-.87.08-.67-.15-1.29-.44-1.9-.76-1.84-.98-3.53-2.26-5.15-3.57-3.72-3.01-7.19-6.34-10.57-9.72l-3.41-3.45-1.77 1.77c4.85 3.8 9.81 7.46 14.94 10.88a67.92 67.92 0 0 1 6.58 5.01c2.05 1.76 4.12 3.53 6.51 4.82.91.49 2.19-.33 1.84-1.41-2.07-6.39-8.39-7.87-13.69-10.72-2.42-1.31-4.75-2.87-6.8-4.71-1.71-1.54-4.28-4-3.93-6.57l-1.54.87c5.12 1.62 9.93 4.21 14.33 7.28 4.44 3.09 8.63 6.83 11.62 11.37l1.08-1.88c-5.63.55-10.79-4.38-14.5-7.98-4.23-4.11-7.87-8.79-12.12-12.87-1.18-1.13-2.78.55-1.77 1.77 2.21 2.67 5.27 4.52 8.25 6.22s5.64 3.23 8.39 4.99c4.5 2.86 11.72 5.39 12.86 11.3l1.21-1.58c-.42.03-.14.04-.46-.03s-.65-.17-.97-.28c-.85-.29-1.67-.66-2.48-1.05-2.16-1.04-4.25-2.22-6.3-3.46-2.08-1.26-4.14-2.59-6.09-4.06-1.17-.88-2.74-2-3.35-3.17l-1.08 1.88c1.31.01 2.58.64 3.71 1.25 1.67.91 3.24 2.01 4.7 3.24 2.26 1.89 5.35 4.53 5.98 7.58l1.21-1.58c-5.62.35-9.48-4.71-13.5-7.85-4.34-3.39-9.55-6.25-12.43-11.12l-1.41 1.84c6.42 2.25 10.83 8.23 16.2 12.14 2.94 2.14 6.24 3.66 9.1 5.93s5.7 5.01 8.56 7.51l1.77-1.77c-4.85-3.89-10.52-6.6-15.28-10.61s-8.7-8.8-13.08-13.16c-1.14-1.14-2.91.63-1.77 1.77 4.38 4.36 8.35 9.16 13.08 13.16s10.43 6.73 15.28 10.61c1.23.99 3-.69 1.77-1.77-2.9-2.55-5.68-5.24-8.71-7.64-1.49-1.17-3.03-2.28-4.65-3.27s-3.28-1.82-4.81-2.93c-5.61-4.08-10.06-10.03-16.8-12.39-1.05-.37-1.94.94-1.41 1.84 3.15 5.33 8.7 8.31 13.39 12.08 4.37 3.52 8.53 8.52 14.7 8.13.85-.05 1.38-.75 1.21-1.58-.74-3.58-4.18-6.67-6.86-8.88s-6.28-4.99-9.94-5.02c-.98 0-1.51 1.06-1.08 1.88.82 1.56 2.5 2.74 3.87 3.78 2.07 1.58 4.25 3 6.47 4.35s4.41 2.58 6.72 3.65c1.38.64 3.17 1.63 4.76 1.51.85-.06 1.37-.74 1.21-1.58-1.21-6.28-8.1-9.24-13.01-12.18-2.81-1.68-5.53-3.44-8.4-5.04-3.14-1.75-6.41-3.57-8.74-6.38l-1.77 1.77c4.49 4.32 8.31 9.28 12.85 13.56 4.04 3.81 9.56 8.6 15.55 8.02.87-.09 1.65-1.02 1.08-1.88-3.16-4.81-7.52-8.73-12.19-12.04s-9.8-6.04-15.26-7.76c-.58-.18-1.45.22-1.54.87-.8 5.88 5.77 10.43 10.12 13.09 4.83 2.96 12.33 4.2 14.29 10.24l1.84-1.41c-2.33-1.26-4.33-2.99-6.33-4.71s-4.12-3.37-6.36-4.86c-5.09-3.38-10.02-6.99-14.83-10.75-1.23-.96-2.94.59-1.77 1.77l8.46 8.33c3.49 3.25 7.21 6.82 11.51 8.97 1.44.72 3.45 1.53 4.96.51.46-.31.73-.86.57-1.41-.72-2.5-2.99-4.32-4.97-5.83-2.42-1.85-5.03-3.41-7.56-5.09-4.45-2.95-8.2-6.83-13.11-9.1-2.6-1.2-5.58-2.05-8.29-.71-.75.37-.77 1.41-.25 1.96 5.06 5.42 11.14 9.83 17.13 14.15 2.37 1.71 4.64 3.5 6.9 5.36 2.29 1.89 4.64 3.78 7.25 5.2s5.65 2.41 8.62 1.55c.75-.22 1.19-1.14.75-1.84-2.02-3.18-4.69-5.95-7.46-8.48-2.78-2.55-5.75-4.91-8.94-6.93-3.64-2.32-7.49-4.29-11.15-6.57-2.75-1.71-5.17-3.93-7.98-5.54-1.77-1.01-6.84-3.13-7.69-.02-.5 1.82.22 3.74 1.13 5.31 2.54 4.39 6.79 7.85 10.68 10.98a282.64 282.64 0 0 0 11.34 8.7c3.54 2.58 7.28 4.88 11.07 7.07l5.18 2.93c1.54.85 3.17 1.63 4.93 1.87 2.21.3 5.02-.51 5.82-2.84.58-1.71-.16-3.55-1.02-5.03-2.37-4.07-6.2-7.37-9.73-10.41-4.3-3.72-8.63-7.43-13.23-10.78-6.19-4.51-12.87-8.28-20.03-11.02-1.89-.72-3.81-1.37-5.76-1.95-.78-.24-1.58.41-1.58 1.21 0 1.04.74 2.05 1.29 2.87.93 1.4 1.97 2.73 3.02 4.04 2.1 2.64 4.24 5.05 6.94 7.11 3.86 2.95 8.26 5.1 12.15 8 3.38 2.52 6.45 5.42 9.94 7.8 3.66 2.51 8 4.63 12.54 3.65.83-.18 1.09-1.16.75-1.84-3.08-6.1-8.14-10.43-13.46-14.53-5.72-4.4-11.16-9.23-17.29-13.06-3.47-2.17-7.18-3.94-11.1-5.15-.7-.22-1.29.26-1.54.87-.89 2.17.36 4.65 1.53 6.44 1.71 2.6 3.92 4.88 6.19 6.99a74.21 74.21 0 0 0 6.41 5.33c3.35 2.47 7.11 4.29 10.64 6.46 2.33 1.43 4.47 3.05 6.5 4.88 1.99 1.8 3.95 3.66 6.23 5.1.68.43 1.64.02 1.84-.75l.38-1.46c.4-1.56-2.01-2.22-2.41-.66h0zM327.89 120.16h2.02c1.61 0 1.61-2.49 0-2.5-8.83-.07-17.53-1.38-26.13-3.33l-13.05-2.97-13.12-2.47c-4.98-.97-9.92-2.08-14.76-3.59l-.33 2.46c17.99.11 35.23 5.65 52.92 8.13 4.97.7 9.96 1.16 14.98 1.2v-2.5c-9.6.32-18.9-2.03-28.12-4.43-4.62-1.2-9.19-2.37-13.94-2.93s-9.81-.71-14.68-1.42-9.66-3.3-14.77-3.52v2.5c17.91.1 35.13 6.76 53.08 6.17v-2.5c-9.36.44-18.61-1.05-27.78-2.72-4.39-.8-8.64-1.98-12.99-2.92-2.02-.43-4.07-.77-6.14-.65s-4.39.65-6.39-.32l-.3 2.28c4.46-1.7 9.1-2.41 13.86-2.26 4.5.14 8.95.92 13.39 1.65s9.28 1.4 14 1.51 9.89-.14 14.83-.18v-2.5c-18.29.57-36.23-3.44-54.34-5.26-5.22-.52-10.45-.85-15.69-.86-1.61 0-1.61 2.48 0 2.5 9.1.09 18.2.65 27.22 1.87 4.68.63 9.33 1.47 13.97 2.34s8.91 1.79 13.41 2.06c4.1.24 8.68-1.1 12.09 1.88l.55-2.09c-7.4 2.74-15.37 2.17-22.99.72-7.98-1.52-15.76-3.96-23.76-5.41-4.23-.76-8.53-1.25-12.83-1.02-1.15.06-1.81 1.74-.63 2.33 9.31 4.68 19.49 6.84 29.64 8.81 10.24 1.99 20.35 4.81 30.73 6 5.86.67 11.75.9 17.64.9v-2.5c-5.2.01-10.41.29-15.61.26-2.54-.01-5.1-.05-7.61-.42-2.22-.33-4.4-.85-6.58-1.36s-4.45-1.02-6.72-1.33-4.69-.35-7.04-.54c-4.84-.39-9.62-1.16-14.42-1.89-2.21-.34-4.41-.41-6.63-.62s-4.21-.75-5.71-2.41l-.88 2.13c4.1-.33 8.09 1.61 12.07 2.31 4.79.84 9.82.24 14.65.23 1.61 0 1.61-2.5 0-2.5-4.84.01-9.98.69-14.75-.29-3.92-.81-7.89-2.57-11.97-2.25-1.09.09-1.64 1.3-.88 2.13 2.77 3.09 6.89 3.09 10.72 3.36 4.75.33 9.46 1.41 14.2 1.94 4.97.56 9.91.6 14.81 1.69s9.4 2.14 14.3 2.26c6.01.16 12.03-.21 18.04-.23 1.61 0 1.61-2.5 0-2.5-10.31 0-20.53-.85-30.6-3.13l-15.12-3.3c-5.07-.99-9.83-1.88-14.69-3.1-5.63-1.41-11.15-3.23-16.34-5.84l-.63 2.33c7.96-.44 15.82 1.57 23.49 3.47s15.75 4.05 23.86 4.19c4.38.07 8.78-.51 12.9-2.03.81-.3 1.32-1.42.55-2.09-3.03-2.65-6.62-2.8-10.47-2.64-4.55.19-9.02-.64-13.49-1.45-9.42-1.71-18.81-3.34-28.37-4.1-5.37-.43-10.75-.64-16.14-.69v2.5c18.28.02 36.19 4.16 54.35 5.66 5.22.43 10.45.62 15.68.46 1.6-.05 1.61-2.51 0-2.5-4.94.04-9.89.3-14.83.18s-9.79-.84-14.66-1.64c-9.19-1.51-18.32-2.57-27.25.83-.91.35-1.36 1.77-.3 2.28 1.91.93 3.85.98 5.93.81 2.34-.2 4.44-.14 6.75.33s4.49 1.11 6.74 1.67 4.46.93 6.7 1.34c9.38 1.71 18.87 3.26 28.44 2.81 1.6-.08 1.62-2.55 0-2.5-17.95.59-35.17-6.07-53.08-6.17-1.62 0-1.6 2.43 0 2.5 4.55.2 8.69 2.56 13.16 3.29 4.76.78 9.58.98 14.37 1.45 9.58.94 18.69 4.29 28.11 6.12 5.23 1.02 10.53 1.62 15.86 1.44 1.6-.05 1.61-2.49 0-2.5-17.9-.14-35.08-5.73-52.69-8.16-5.04-.7-10.12-1.14-15.21-1.17-1.43 0-1.66 2.04-.33 2.46 8.64 2.71 17.61 4.07 26.48 5.79s17.34 4.17 26.18 5.46c4.99.73 10.02 1.16 15.07 1.2v-2.5h-2.02c-1.61 0-1.61 2.5 0 2.5h0z"/><path d="m995.81-31.21l2.61-2.02c2.22,5.73-7.05,17.86-8.74,23.31-4.42,14.23-11.6,25.78-18.72,39.04-6.75,12.58-17.78,22.19-24.35,34.6-6.74,12.71-13.5,25.32-21.25,37.56-6.65,10.5-11.84,21.16-16.5,32.69-3.5,8.69-12.4,14.41-13.66,24.09-1.62,12.42,11.63,9.73,20.96,9.9,5.52.1,7.94,1.29,11.37-3.31,3.52-4.72,6.96-12.19,9.46-17.55,13.92-29.87,36.32-55.5,52.15-84.5,9.99-18.3,19.08-37.25,27.26-56.27,3.83-8.91,7.91-17.91,13.11-26.1,2.77-4.37,13.73-18.34,12.61-23.9-1.42-7.06-16.81-1.34-21.2.9-4.12,2.1-5.97,4.67-10.46,5.68-4.22.95-10.21-.27-14.65-.23" fill="#007857"/><path d="M996.44-30.13l2.61-2.02-1.84-.75c1.02 2.82-.62 6.26-1.79 8.78-1.54 3.32-3.42 6.46-5.1 9.7-1.87 3.6-2.88 7.52-4.36 11.28-1.95 4.94-4.27 9.73-6.73 14.44s-5.11 9.41-7.68 14.11c-2.46 4.51-5.02 8.85-8.08 12.98-5.9 7.94-12.75 15.24-17.54 23.96-5.44 9.9-10.61 19.94-16.37 29.67l-8.64 14.15c-2.79 4.77-5.29 9.57-7.62 14.52a239.15 239.15 0 0 0-3.29 7.3c-.99 2.31-1.83 4.71-2.95 6.96-1.87 3.78-4.64 6.99-7.16 10.34s-4.77 6.89-5.65 10.99c-.68 3.16-.76 6.82 1.39 9.46 1.77 2.18 4.6 2.99 7.28 3.34 3.2.42 6.43.25 9.64.16 1.68-.04 3.36-.07 5.05.01s3.43.29 5.13.05c3.75-.54 5.92-3.83 7.78-6.82 2.61-4.17 4.71-8.64 6.79-13.1 2.12-4.54 4.34-9.02 6.76-13.4 5.04-9.15 10.71-17.94 16.52-26.61l17.55-26.12c5.85-9 11.21-18.24 16.21-27.73a656.54 656.54 0 0 0 15.26-30.92c4.71-10.2 8.88-20.67 13.81-30.77 2.23-4.58 4.63-9.12 7.42-13.38 1.63-2.49 3.4-4.88 5.06-7.34 1.98-2.95 3.92-5.95 5.48-9.15 1.14-2.34 2.48-5.22 1.96-7.9-1.25-6.4-10.44-4.34-14.69-3.13-2.71.77-5.41 1.76-7.95 3-3.8 1.85-6.81 5.1-11.1 5.86-4.53.8-9.24-.38-13.79-.38-1.61 0-1.61 2.5 0 2.5 4.64 0 9.29 1.05 13.92.37s7.47-3.62 11.26-5.69c2.33-1.27 4.87-2.19 7.4-2.97 2.87-.88 6.01-1.71 9.04-1.43 2.09.19 3.71 1.24 3.5 3.51-.27 2.86-1.97 5.69-3.37 8.13-3.3 5.71-7.45 10.86-10.82 16.52-5.54 9.34-9.64 19.39-14.01 29.31-4.53 10.28-9.29 20.46-14.32 30.5-4.84 9.67-9.82 19.31-15.39 28.59-5.23 8.73-10.92 17.19-16.64 25.61l-16.99 25.65c-5.33 8.55-10.14 17.34-14.41 26.46-2 4.28-4.04 8.56-6.53 12.58-1.05 1.69-2.16 3.61-3.78 4.83-1.12.85-2.41 1.04-3.78 1.03-3.35-.03-6.66-.22-10.01-.13-3.01.08-6.13.23-9.1-.42-2.45-.54-4.62-1.74-5.26-4.33-.9-3.62.61-7.71 2.38-10.82 2.02-3.54 4.74-6.61 7.13-9.91 1.21-1.67 2.35-3.4 3.25-5.26 1.11-2.28 1.96-4.69 2.96-7.01 4.18-9.7 9.07-19.01 14.7-27.95 5.87-9.34 11.24-18.99 16.46-28.71 2.48-4.63 4.79-9.36 7.71-13.74 2.69-4.04 5.73-7.82 8.75-11.6 3-3.75 6.01-7.51 8.68-11.51 2.88-4.31 5.21-8.95 7.71-13.49 4.95-8.98 9.86-18.02 13.32-27.7.64-1.79 1.11-3.67 1.88-5.41.65-1.46 1.43-2.87 2.2-4.28 1.75-3.21 3.56-6.4 4.92-9.8 1.03-2.56 2.03-5.69 1.05-8.42-.24-.67-1.14-1.28-1.84-.75l-2.61 2.02c-1.26.97-.01 3.14 1.26 2.16h0z"/><path d="m-216.71,696.65c10.93-6.65,21.07-11.02,33.16-15.15,16.04-5.48,31.7-12.67,46.56-21.02,30.61-17.21,58.81-38.37,90.84-52.63,16.2-7.21,34.42-13.44,49.66-22.42,11.72-6.9,24.03-10.99,36.12-17.16,7.12-3.63,15.17-10.81,22.74-12.91,10.19-2.82,12.01,11.68,15.33,19.56,1.55,3.69,7.18,10.07,7.92,13.5,1.59,7.34-9.6,8.9-14.81,11.42-13.85,6.68-26.31,15.12-39.74,22.29-10.93,5.84-20.74,13.32-31.71,19.11-8.44,4.45-17.55,7.7-25.85,12.25-15.25,8.35-31.16,16.37-45.66,25.77-10.61,6.88-21.75,11.64-32.24,18.78-9.39,6.39-18.3,14.66-28.22,19.9-12.63,6.67-26.42,11.31-39.81,16.01-5.69,2-10.87,5.57-16.35,8.01-4.78,2.13-11.57,6.73-16.75,6.98-1.45-4.77,3.46-11.92,4.47-16.79.9-4.33,2.1-9.56,2.44-13.93.56-7.11-.7-14.18-.23-21.26.35-5.27,1.16-10.43,1.46-15.66" fill="#007857"/><path d="M-216.08 697.73c9.89-5.99 20.39-10.68 31.3-14.48 11.55-4.02 22.85-8.59 33.83-13.99 21.68-10.67 41.75-24.21 62.29-36.85 10.13-6.23 20.39-12.27 31-17.67s21.54-9.8 32.5-14.33c5.39-2.23 10.77-4.5 16.06-6.98 5.31-2.49 10.37-5.34 15.49-8.19 10.67-5.94 22.23-10.02 33.12-15.5 4.81-2.42 9.13-5.66 13.68-8.52 2.3-1.45 4.67-2.85 7.2-3.86 1.72-.69 3.65-1.36 5.53-1.01 3.2.6 4.99 3.89 6.2 6.61 1.53 3.43 2.45 7.09 3.74 10.6 1.36 3.72 3.7 6.78 5.87 10.05 1.77 2.67 4.32 6.24 1.54 9.14-2.34 2.44-6.11 3.4-9.2 4.48-4.69 1.65-9.07 4.09-13.42 6.49-10.66 5.87-21.02 12.26-31.67 18.14-10.65 5.87-20.4 13.25-31.22 18.82-5.42 2.79-11.06 5.11-16.59 7.64s-10.88 5.53-16.27 8.42c-10.9 5.86-21.85 11.64-32.39 18.12-5.24 3.22-10.37 6.55-15.75 9.52-5.33 2.94-10.75 5.75-15.97 8.89-10.07 6.06-18.74 14.05-28.6 20.41-10.09 6.5-21.61 10.77-32.85 14.82-5.6 2.01-11.42 3.67-16.79 6.25-2.59 1.25-5.08 2.67-7.62 4.02-2.27 1.2-4.63 2.22-6.91 3.4-4.19 2.17-8.68 5.21-13.52 5.53l1.21.92c-.91-3.34 1.05-7.13 2.32-10.13.69-1.63 1.41-3.27 1.9-4.97.57-2 .91-4.09 1.32-6.12.91-4.5 1.6-9 1.57-13.61-.03-5.12-.63-10.23-.45-15.35.2-5.73 1.18-11.41 1.54-17.14.1-1.61-2.4-1.6-2.5 0-.32 5.14-1.09 10.23-1.44 15.37s.18 10.23.32 15.35c.14 5.01-.46 9.82-1.45 14.72-.41 2.03-.75 4.12-1.32 6.12-.49 1.7-1.21 3.34-1.9 4.97-1.48 3.52-3.37 7.57-2.32 11.46.14.5.66.95 1.21.92 4.96-.33 9.49-3.09 13.78-5.35 2.29-1.21 4.66-2.23 6.95-3.42l7.85-4.16c5.54-2.76 11.63-4.45 17.44-6.54 5.71-2.06 11.39-4.22 16.96-6.65s10.92-4.98 15.96-8.23c5.02-3.24 9.72-6.96 14.46-10.59 4.79-3.67 9.68-7.17 14.87-10.25s10.99-6.08 16.47-9.14c5.45-3.04 10.64-6.49 15.97-9.72 5.37-3.25 10.83-6.34 16.34-9.35 11.09-6.07 22.14-12.42 33.69-17.58 5.65-2.52 11.33-4.97 16.76-7.96s10.58-6.35 15.78-9.67c10.49-6.7 21.5-12.51 32.21-18.84 5.41-3.19 10.84-6.36 16.41-9.27 2.2-1.15 4.4-2.36 6.72-3.24 1.69-.64 3.41-1.19 5.09-1.83 3.02-1.15 6.58-2.63 8.14-5.68 1.77-3.47-.23-6.95-2.12-9.86-2.22-3.4-4.74-6.55-6.11-10.41-1.28-3.59-2.27-7.27-3.83-10.75-1.3-2.91-3.17-5.96-6.22-7.28-3.8-1.64-7.98.18-11.41 1.92-4.99 2.54-9.45 5.98-14.21 8.91-5.04 3.1-10.58 5.42-15.99 7.79-5.73 2.51-11.49 4.95-17.07 7.78-5.36 2.72-10.47 5.91-15.86 8.58-10.87 5.39-22.23 9.7-33.4 14.41-11.1 4.67-21.85 10.01-32.33 15.94-21.24 12.02-41.35 25.91-62.53 38.03-10.9 6.25-22.15 11.91-33.76 16.72-11.11 4.6-22.69 7.97-33.63 12.99a150.4 150.4 0 0 0-15.2 8.09c-1.37.83-.12 3 1.26 2.16h0zm547.17-218.62l-2.07-.64c-12.55-4.16-24.42-17.89-37.86-17.01-11.26.74-22.15 10.18-18.56 22.2 2.32 7.76 7.87 6.12 13.16 3.67 7.05-3.28 12.47-4.32 20.77-3.88h.1c20.1 1.21 42.59 27.69 29.79 47.11-3.86 5.86-10.87 8.82-15.94 13.43-6.78 6.16-27.05 38.54-15.22 46.27 6.87 4.49 14.69-4.67 19.29-8.04 2.6-1.9 5.62-3.21 8.4-5.28 4.64-3.47 10.23-5.01 15.12-8 1.19-.73 2.78-1.38 3.86-2.24.78-.61 1.17-1.49 2.07-2.04 1.63-1 3.4-1.84 5.07-2.8 2.06-1.2 4.34-2.1 6.37-3.31.78-.46 1.4-1.24 2.13-1.78.97-.72 1.95-1.04 3.07-1.47 2.4-.93 4.4-2.52 6.83-3.37 3.61-1.26 7.15-2.64 10.64-4.15 1.4-.61 2.67-1.51 4.13-2.03 1.08-.39 2.16-.65 3.21-1.08 2.02-.83 4.04-1.51 6.06-2.34s4.77-1.73 6.83-2.06c.93-.15 1.28-.17 1.98-.47s1.39-.85 2.15-1.06c.6-.16 1.26.09 1.81-.06.43-.12.54-.47.97-.57.66-.15 1.37.08 2.06-.09s1.21-.26 1.94-.38c.84-.15 1.51-.64 2.26-1.02.99-.49 1.85-.59 2.94-.7 1.45-.14 2.86-.59 4.31-.61 4.02-.07 7.02 2.06 9.52 5.02 5.26 6.22 9.75 13.37 11.58 21.39.98 4.32 1.85 10.18-.09 14.39-.61 1.32-1.07 2.37-1.31 3.83-.3 1.87-1.13 3.59-1.43 5.45-.27 1.66-.59 3.46-.64 5.13-.03 1.04.03 3.5.74 4.35.66.79 2.5.54 3.39.48 1.85-.12 3.11-1.31 4.6-2.34.83-.57 2-1.12 2.65-1.92.21-.26.28-.69.51-.91.67-.64 1.58-.45 2.44-.55 1.9-.24 3.72-1.05 5.61-1.37 1.11-.19 2.23-.25 3.34-.46 3.31-.63 6.54-1.39 9.52-2.96 5.33-2.82 10.07-5.85 15.46-8.61a70.45 70.45 0 0 1 4.41-2.07c.67-.29 1.38-.31 2.07-.56.94-.35 1.63-1.1 2.53-1.48 2.49-1.06 5.08-2 7.44-3.33s5.09-2.01 7.6-3.08l2.53-1.08c.56-.24 1.2-.2 1.76-.43.48-.2.81-.58 1.27-.79 1.27-.59 3.01-.75 4.39-.76.41 0 1.69.24 1.98-.09.57-.66-.47-1.15-.93-1.33-.93-.35-2.11-.6-3.09-.65-.57-.03-1.35.16-1.94.07-.96-.15-1.39-.66-2.28-.96-1.68-.58-3.38-.43-4.97-1.25l-4.09-2.04c-3.68-1.82-6.33-5.28-10.02-6.96-.97-.44-1.61-1.07-2.53-1.59s-1.75-.98-2.61-1.65c-2.86-2.21-5.9-4.19-9.08-5.91-2.65-1.44-5.38-1.65-8.06-2.88-6.62-3.03-13.39-5.75-20.36-7.85-19.91-6.01-37.35-17.33-56.98-23.83-15.62-5.17-29.18-14.97-44.73-20.26-9.08-3.09-18.69-3.68-27.84-6.35z"/><path d="M331.42 477.91c-12.2-3.6-21.18-14.01-33.57-17.05-10.72-2.63-24.62 3.36-26.89 15.01-.92 4.74.1 12.35 5.32 14.31 2.16.81 4.57.36 6.68-.36 2.91-1 5.61-2.5 8.55-3.46 5.76-1.88 12.41-2.42 18.38-1.22 5.18 1.05 10.01 3.53 14.2 6.72 8.34 6.36 15.38 16.63 14.79 27.52-.31 5.67-2.95 10.87-7.18 14.61s-9.39 6.12-13.2 10.22c-2.44 2.62-4.52 5.61-6.47 8.61-2.54 3.89-4.83 7.96-6.79 12.17s-3.64 8.44-4.43 12.92c-.61 3.41-.79 7.21.94 10.35 2.16 3.93 6.87 5.31 10.98 3.84 5.23-1.86 8.71-6.26 13.18-9.29 1.35-.92 2.78-1.7 4.19-2.52 1.71-1 3.28-2.19 4.94-3.26 3.08-1.99 6.5-3.34 9.79-4.92 1.56-.75 3.04-1.62 4.56-2.46s3.04-1.51 4.19-2.81 2.53-1.93 4-2.72l5.53-2.91c1.6-.78 3.11-1.55 4.44-2.75 1.46-1.32 3.22-1.76 4.96-2.6s3.17-1.86 4.87-2.54c1.98-.8 4.03-1.45 6.02-2.23 1.64-.64 3.27-1.31 4.89-2.01 1.92-.84 3.65-1.91 5.67-2.55 3.75-1.19 7.31-2.93 11.07-4.12 1.57-.49 3.14-.72 4.73-1.09.68-.16 1.3-.46 1.91-.79.36-.19.74-.49 1.14-.57.48-.09.98.07 1.47 0 .69-.11 1.13-.55 1.79-.62.74-.07 1.42-.06 2.16-.21s1.45-.23 2.15-.5c.93-.36 1.72-.97 2.7-1.22.87-.22 1.79-.24 2.67-.38 1.01-.16 1.99-.41 3.02-.43 1.65-.04 3.26.39 4.7 1.2 2.93 1.67 5.05 4.66 7 7.32 4.23 5.78 7.37 12.16 8.66 19.24.61 3.36.99 7.08-.13 10.37-.52 1.52-1.33 2.9-1.66 4.49-.38 1.83-1.04 3.59-1.43 5.42-.63 3-1.28 6.61-.42 9.64.8 2.82 4.19 2.85 6.56 2.08 1.51-.49 2.68-1.56 3.99-2.41.52-.34 1.07-.64 1.57-1.01.28-.2.57-.42.81-.66.29-.3.47-.91.75-1.15.39-.32 1.37-.19 1.88-.25.88-.12 1.74-.35 2.6-.59 1.96-.56 3.87-.83 5.88-1.16 3.72-.59 7.39-1.63 10.73-3.41s6.81-3.86 10.22-5.78c1.72-.97 3.46-1.92 5.22-2.81.88-.44 1.76-.86 2.66-1.27 1.02-.46 2.05-.65 3.09-1.02.7-.25 1.27-.66 1.88-1.06.76-.5 1.59-.81 2.42-1.16 1.88-.77 3.76-1.54 5.55-2.49 1.68-.89 3.38-1.57 5.17-2.21 1.68-.6 3.29-1.37 4.96-2 .84-.32 1.72-.33 2.52-.79.74-.43 1.3-.79 2.17-.97.82-.17 1.69-.25 2.53-.23.65.02 1.29.16 1.94.02 1.17-.27 1.83-1.58 1.19-2.65-.69-1.16-2.47-1.54-3.68-1.75a9.47 9.47 0 0 0-2.25-.15c-.89.05-1.37-.07-2.16-.46-1.62-.81-3.38-.74-5.06-1.31s-3.44-1.61-5.03-2.47-2.99-2-4.39-3.15c-2.67-2.19-5.6-3.92-8.57-5.65-1.59-.93-2.99-2.11-4.5-3.16s-3.14-2.09-4.77-3.04-3.26-1.74-5.06-2.3c-2.05-.63-4.01-1.22-5.97-2.1-7.19-3.23-14.52-5.76-22-8.22s-14.46-5.54-21.47-8.81l-20.49-9.45c-6.9-2.94-14.11-5.06-20.96-8.09-13.74-6.08-26.53-14.72-41.25-18.41-7.52-1.89-15.26-2.71-22.71-4.85-1.55-.45-2.21 1.97-.66 2.41 7.61 2.19 15.52 3 23.18 4.97 7.2 1.85 13.99 4.99 20.62 8.32 6.51 3.27 12.9 6.77 19.56 9.72 6.72 2.97 13.78 5.04 20.54 7.91 13.68 5.79 26.73 13.04 40.79 17.94 3.6 1.25 7.26 2.28 10.85 3.55s7.36 2.78 10.97 4.37c1.72.76 3.41 1.62 5.2 2.21s3.77.98 5.53 1.83c3.4 1.65 6.5 3.91 9.52 6.14 2.74 2.03 5.94 3.34 8.63 5.44 1.27.99 2.48 2.06 3.77 3.02 1.38 1.03 2.87 1.79 4.4 2.55 1.63.81 3.16 1.7 4.97 2.04.91.17 1.88.23 2.74.57.78.31 1.44.8 2.28.96.65.12 1.26 0 1.91-.02.81-.02 1.61.14 2.38.36.25.07.6.27.86.3l.18.1c.63-.83.64-1.21.02-1.12-.64-.2-1.58-.08-2.23-.03-1.42.11-2.91.33-4.15 1.07-.82.48-1.52.61-2.41.91-1 .34-1.97.85-2.95 1.25-1.55.63-3.15 1.13-4.71 1.75-1.84.74-3.54 1.75-5.35 2.57-1.6.72-3.28 1.29-4.87 2.05-.67.32-1.22.81-1.87 1.16-.85.46-1.84.52-2.73.89-3.63 1.48-7.08 3.44-10.48 5.38s-6.69 4.04-10.21 5.7-7.21 2.26-10.93 2.77c-1.76.24-3.39.84-5.11 1.25-1.39.32-3.21 0-4.3 1.12-.54.56-.69 1.18-1.36 1.66-.61.43-1.28.79-1.89 1.22-1.45 1.02-2.61 1.88-4.43 1.99-.41.02-1.21.17-1.56-.08s-.39-1.07-.44-1.48c-.2-1.67-.02-3.37.22-5.02s.64-3.36 1.15-5.03c.56-1.83.8-3.67 1.58-5.43 2.64-5.98 1.43-13.11-.55-19.13-2.17-6.62-5.98-12.55-10.4-17.89-1.9-2.3-4.08-4.35-6.93-5.4-3.19-1.17-6.73-.47-9.97.16-1.68.33-3.01 1.37-4.7 1.69-.85.16-1.6.18-2.46.23-.77.04-1.28.58-1.92.68-.68.1-1.27-.07-1.96.18-.75.26-1.36.78-2.1 1.06-1.53.57-3.3.65-4.88 1.12-3.6 1.09-7.02 2.73-10.57 3.95-1.62.56-3.16 1.04-4.68 1.85-1.9 1.02-3.86 1.84-5.86 2.63-3.51 1.4-7.13 2.48-10.44 4.33-1.56.87-3.18 1.49-4.8 2.23s-2.58 2.01-4.02 2.86c-3.3 1.95-6.87 3.47-10.2 5.39-.7.41-1.36.82-1.92 1.41s-.95 1.13-1.61 1.57c-1.37.92-2.93 1.65-4.37 2.45-3.07 1.71-6.36 2.97-9.48 4.58s-6.17 3.95-9.35 5.8c-2.49 1.44-4.69 3.09-6.87 4.95-2.05 1.76-4.12 3.53-6.49 4.86-2.13 1.19-4.68 2.05-7.06 1.09-1.47-.59-2.64-1.72-3.33-3.14-1.44-2.98-.89-6.71-.17-9.81 2.03-8.71 6.65-16.95 11.63-24.3 1.76-2.59 3.62-5.25 5.89-7.43 4.31-4.13 9.92-6.64 14.06-10.99 7.6-8.01 7.65-19.69 3.03-29.2-4.64-9.54-13.41-17.48-23.4-21.05-5.34-1.91-11.19-2.19-16.79-1.52a37.85 37.85 0 0 0-9.01 2.23c-2.61.99-5.07 2.41-7.77 3.14-1.97.53-4.11.61-5.61-.99-1.99-2.12-2.56-5.73-2.41-8.53.3-5.58 4.18-10.18 8.9-12.82 5.08-2.83 10.96-3.45 16.51-1.77 5.88 1.79 11.07 5.38 16.19 8.66 5.08 3.26 10.17 6.28 15.99 8 1.55.46 2.21-1.96.66-2.41zM685.87 685.2l-.7 1.44c-3.85 7.91-8.8 15.98-12.17 24.04-4.47 10.69-1.74 20.52-2.81 31.45-.64 6.57-3.68 14.13-6.13 20.3-4.62 11.62-27.58 21.31-20.94 36.2 4.86-2.13 8.24-1.86 13.3-1.52 11.31.75 21.75-3.27 33.1-4.32 5.03-.46 10.19.59 15.23.27 6.49-.41 11.84-3.13 18.48-3.25 4.49-.08 9.02.68 13.44-.19s7.13-2.66 11.66-2.88c11.84-.6 22.03-6.07 33.86-6.13 11.04-.06 21.09-3.2 32.24-2.98 4.45.09 7.12-.47 11.34-1.53s8.05-.7 12.31-1.36c16.2-2.5-1.95-13.12-8.4-16.18-9.57-4.53-21.13-8.94-26.88-18-5.41-8.52-13.18-12.1-20.04-19.54-3.2-3.47-4.74-7.46-8.06-10.79-4.88-4.89-10.68-6.76-16.32-9.46-10.92-5.22-24.89-15.51-33.36-24.23-1.98-2.04-2.45-4.61-4.64-6.3-4.58-3.55-11.08-3.48-16.6-3.04-8.91.72-13.98 10-17.9 17.98z"/><path d="M684.79 684.57c-2.32 4.74-4.83 9.38-7.3 14.04-2.5 4.71-5.18 9.54-6.75 14.66-3.02 9.79-.54 19.96-1.92 29.92-.69 5.02-2.45 9.87-4.26 14.58-1.24 3.22-2.39 6.26-4.58 8.96-4.08 5.03-9.29 9-13.51 13.91-2.18 2.54-4.18 5.36-5.17 8.59-1.04 3.39-.66 6.82.74 10.04.29.67 1.15.69 1.71.45 3.4-1.45 6.83-1.7 10.47-1.49 4.04.23 7.98.27 12.01-.24 7.89-1 15.58-3.31 23.52-3.95 4.13-.34 8.26.29 12.39.35 3.87.05 7.58-.69 11.31-1.63s7.36-1.73 11.22-1.68c4.12.06 8.25.56 12.33-.24 3.38-.66 6.51-2.24 9.93-2.71 1.97-.27 3.97-.3 5.94-.58s3.74-.63 5.59-1.05c7.36-1.67 14.58-4.25 22.17-4.58 4.1-.18 8.13-.33 12.2-.87l11.81-1.62c3.95-.45 7.99-.41 12.03-.55 3.57-.13 6.9-1.05 10.38-1.78 3.92-.82 7.98-.54 11.93-1.23 2.06-.36 4.53-.94 5.97-2.59 2.62-3-.79-6.63-3.06-8.55-8.11-6.87-18.61-9.71-27.56-15.2-2.77-1.7-5.4-3.64-7.64-6.01-2.31-2.44-3.89-5.43-6.1-7.96-4.57-5.24-10.54-8.97-15.45-13.86-2.67-2.65-4.51-5.74-6.65-8.8-2.11-3.01-4.73-5.48-7.82-7.46s-6.23-3.26-9.43-4.7a91.41 91.41 0 0 1-8.9-4.61c-6.16-3.63-12.03-7.8-17.55-12.35-2.59-2.13-5.11-4.36-7.5-6.71-1.24-1.22-2.27-2.42-3.15-3.93-.8-1.38-1.61-2.74-2.87-3.75-5-4.03-12.75-4.22-18.83-3.24s-10.24 5.7-13.33 10.53c-1.62 2.53-2.98 5.21-4.31 7.9-.71 1.44 1.45 2.71 2.16 1.26 2.55-5.19 5.33-10.86 9.98-14.52 2.29-1.81 4.87-2.71 7.77-2.91 3.28-.23 6.65-.29 9.86.5 1.56.39 3.06.99 4.4 1.88 1.45.96 2.24 2.3 3.1 3.77 1.56 2.69 3.88 4.76 6.16 6.84 5.11 4.67 10.63 8.92 16.36 12.79 5.54 3.74 11.31 6.9 17.41 9.62 3.16 1.41 6.32 2.9 9.12 4.98 3.03 2.26 5.11 5.18 7.15 8.31 1.97 3.02 4.24 5.66 6.91 8.09 2.48 2.27 5.15 4.32 7.72 6.48 2.56 2.15 5.03 4.42 7.09 7.06 1.97 2.52 3.51 5.21 5.82 7.45 8.16 7.92 19.43 10.8 28.95 16.57 1.86 1.13 3.7 2.34 5.36 3.75 1.19 1.01 2.6 2.22 3.15 3.72.18.49.18.82-.02 1.17-.34.58-1.08.95-1.7 1.21-3.06 1.28-6.6 1.23-9.84 1.44-1.86.12-3.73.3-5.55.7s-3.55.89-5.35 1.21c-3.67.65-7.38.33-11.08.53-7.74.43-15.34 2.16-23.08 2.71-3.8.27-7.58.19-11.36.77s-7.21 1.49-10.76 2.42-7.14 1.9-10.79 2.51-7.24.52-10.76 1.58-6.83 2.26-10.59 2.32c-4.01.07-8.01-.51-12.02-.02-3.55.44-6.95 1.47-10.43 2.25-3.87.86-7.66.93-11.61.68s-7.8-.35-11.75.18-7.67 1.3-11.48 2.06-7.67 1.5-11.56 1.83-7.53-.06-11.33-.13c-3.41-.06-6.58.58-9.71 1.91l1.71.45c-2.5-5.75.25-11.19 4.04-15.6 4.13-4.81 9.21-8.72 13.26-13.61 2.04-2.46 3.36-5 4.53-7.96 1.78-4.51 3.53-9.08 4.61-13.82 2.19-9.68-.19-19.62 1.59-29.32 1.06-5.75 3.84-11 6.53-16.13l8.2-15.73c.71-1.44-1.45-2.71-2.16-1.26z"/></g></svg>