<?xml version="1.0" encoding="UTF-8"?>
<svg id="Layer_1" data-name="Layer 1" xmlns="http://www.w3.org/2000/svg" xmlns:xlink="http://www.w3.org/1999/xlink" viewBox="0 0 595.28 841.89">
  <defs>
    <style>
      .cls-1 {
        clip-path: url(#clippath-45);
      }

      .cls-2 {
        clip-path: url(#clippath-20);
      }

      .cls-3 {
        clip-path: url(#clippath-11);
      }

      .cls-4 {
        clip-path: url(#clippath-16);
      }

      .cls-5 {
        fill: #fff;
      }

      .cls-6 {
        clip-path: url(#clippath-33);
      }

      .cls-7 {
        clip-path: url(#clippath-47);
      }

      .cls-8 {
        clip-path: url(#clippath-41);
      }

      .cls-9 {
        clip-path: url(#clippath-32);
      }

      .cls-10 {
        stroke: #d9bf7a;
      }

      .cls-10, .cls-11, .cls-12 {
        stroke-linecap: round;
        stroke-linejoin: round;
      }

      .cls-10, .cls-11, .cls-12, .cls-13 {
        stroke-width: .75px;
      }

      .cls-10, .cls-11, .cls-12, .cls-13, .cls-14 {
        fill: none;
      }

      .cls-15 {
        clip-path: url(#clippath-2);
      }

      .cls-16 {
        fill: #726658;
      }

      .cls-17 {
        clip-path: url(#clippath-13);
      }

      .cls-18 {
        clip-path: url(#clippath-37);
      }

      .cls-19 {
        clip-path: url(#clippath-46);
      }

      .cls-20 {
        clip-path: url(#clippath-25);
      }

      .cls-21 {
        clip-path: url(#clippath-15);
      }

      .cls-22 {
        clip-path: url(#clippath-6);
      }

      .cls-23 {
        clip-path: url(#clippath-40);
      }

      .cls-24 {
        clip-path: url(#clippath-26);
      }

      .cls-25 {
        clip-path: url(#clippath-7);
      }

      .cls-26 {
        clip-path: url(#clippath-21);
      }

      .cls-27 {
        clip-path: url(#clippath-34);
      }

      .cls-28 {
        clip-path: url(#clippath-1);
      }

      .cls-29 {
        clip-path: url(#clippath-4);
      }

      .cls-30 {
        clip-path: url(#clippath-38);
      }

      .cls-31 {
        clip-path: url(#clippath-36);
      }

      .cls-32 {
        clip-path: url(#clippath-27);
      }

      .cls-33 {
        clip-path: url(#clippath-44);
      }

      .cls-34 {
        clip-path: url(#clippath-12);
      }

      .cls-11, .cls-13 {
        stroke: #726658;
      }

      .cls-12 {
        stroke: #d49355;
      }

      .cls-35 {
        clip-path: url(#clippath-24);
      }

      .cls-36 {
        clip-path: url(#clippath-30);
      }

      .cls-37 {
        clip-path: url(#clippath-22);
      }

      .cls-38 {
        clip-path: url(#clippath-9);
      }

      .cls-39 {
        clip-path: url(#clippath);
      }

      .cls-40 {
        clip-path: url(#clippath-48);
      }

      .cls-41 {
        clip-path: url(#clippath-39);
      }

      .cls-42 {
        clip-path: url(#clippath-19);
      }

      .cls-43 {
        clip-path: url(#clippath-31);
      }

      .cls-44 {
        clip-path: url(#clippath-3);
      }

      .cls-45 {
        clip-path: url(#clippath-43);
      }

      .cls-46 {
        clip-path: url(#clippath-8);
      }

      .cls-47 {
        clip-path: url(#clippath-29);
      }

      .cls-48 {
        clip-path: url(#clippath-18);
      }

      .cls-49 {
        clip-path: url(#clippath-14);
      }

      .cls-50 {
        clip-path: url(#clippath-17);
      }

      .cls-51 {
        clip-path: url(#clippath-5);
      }

      .cls-52 {
        clip-path: url(#clippath-42);
      }

      .cls-53 {
        clip-path: url(#clippath-10);
      }

      .cls-54 {
        clip-path: url(#clippath-23);
      }

      .cls-55 {
        clip-path: url(#clippath-49);
      }

      .cls-56 {
        clip-path: url(#clippath-28);
      }

      .cls-57 {
        clip-path: url(#clippath-35);
      }
    </style>
    <clipPath id="clippath">
      <rect class="cls-14" width="595.28" height="841.89"/>
    </clipPath>
    <clipPath id="clippath-1">
      <rect class="cls-14" width="595.28" height="841.89"/>
    </clipPath>
    <clipPath id="clippath-2">
      <rect class="cls-14" x="105.14" y="199.95" width="384.99" height="578.06"/>
    </clipPath>
    <clipPath id="clippath-3">
      <rect class="cls-14" x="105.14" y="199.95" width="384.99" height="578.06"/>
    </clipPath>
    <clipPath id="clippath-4">
      <rect class="cls-14" x="105.14" y="199.95" width="384.99" height="578.06"/>
    </clipPath>
    <clipPath id="clippath-5">
      <rect class="cls-14" x="105.14" y="199.95" width="384.99" height="578.06"/>
    </clipPath>
    <clipPath id="clippath-6">
      <rect class="cls-14" x="105.14" y="199.95" width="384.99" height="578.06"/>
    </clipPath>
    <clipPath id="clippath-7">
      <rect class="cls-14" x="105.14" y="199.95" width="384.99" height="578.06"/>
    </clipPath>
    <clipPath id="clippath-8">
      <rect class="cls-14" x="105.14" y="199.95" width="384.99" height="578.06"/>
    </clipPath>
    <clipPath id="clippath-9">
      <rect class="cls-14" x="105.14" y="199.95" width="384.99" height="578.06"/>
    </clipPath>
    <clipPath id="clippath-10">
      <rect class="cls-14" x="105.14" y="199.95" width="384.99" height="578.06"/>
    </clipPath>
    <clipPath id="clippath-11">
      <rect class="cls-14" x="105.14" y="199.95" width="384.99" height="578.06"/>
    </clipPath>
    <clipPath id="clippath-12">
      <rect class="cls-14" x="105.14" y="199.95" width="384.99" height="578.06"/>
    </clipPath>
    <clipPath id="clippath-13">
      <rect class="cls-14" x="105.14" y="199.95" width="384.99" height="578.06"/>
    </clipPath>
    <clipPath id="clippath-14">
      <rect class="cls-14" x="105.14" y="199.95" width="384.99" height="578.06"/>
    </clipPath>
    <clipPath id="clippath-15">
      <rect class="cls-14" x="105.14" y="199.95" width="384.99" height="578.06"/>
    </clipPath>
    <clipPath id="clippath-16">
      <rect class="cls-14" x="105.14" y="199.95" width="384.99" height="578.06"/>
    </clipPath>
    <clipPath id="clippath-17">
      <rect class="cls-14" x="105.14" y="199.95" width="384.99" height="578.06"/>
    </clipPath>
    <clipPath id="clippath-18">
      <rect class="cls-14" x="105.14" y="199.95" width="384.99" height="578.06"/>
    </clipPath>
    <clipPath id="clippath-19">
      <rect class="cls-14" x="105.14" y="199.95" width="384.99" height="578.06"/>
    </clipPath>
    <clipPath id="clippath-20">
      <rect class="cls-14" x="105.14" y="199.95" width="384.99" height="578.06"/>
    </clipPath>
    <clipPath id="clippath-21">
      <rect class="cls-14" x="105.14" y="199.95" width="384.99" height="578.06"/>
    </clipPath>
    <clipPath id="clippath-22">
      <rect class="cls-14" x="105.14" y="199.95" width="384.99" height="578.06"/>
    </clipPath>
    <clipPath id="clippath-23">
      <rect class="cls-14" x="105.14" y="199.95" width="384.99" height="578.06"/>
    </clipPath>
    <clipPath id="clippath-24">
      <rect class="cls-14" x="105.14" y="199.95" width="384.99" height="578.06"/>
    </clipPath>
    <clipPath id="clippath-25">
      <rect class="cls-14" x="105.14" y="199.95" width="384.99" height="578.06"/>
    </clipPath>
    <clipPath id="clippath-26">
      <rect class="cls-14" x="105.14" y="199.95" width="384.99" height="578.06"/>
    </clipPath>
    <clipPath id="clippath-27">
      <rect class="cls-14" x="105.14" y="199.95" width="384.99" height="578.06"/>
    </clipPath>
    <clipPath id="clippath-28">
      <rect class="cls-14" x="105.14" y="199.95" width="384.99" height="578.06"/>
    </clipPath>
    <clipPath id="clippath-29">
      <rect class="cls-14" x="105.14" y="199.95" width="384.99" height="578.06"/>
    </clipPath>
    <clipPath id="clippath-30">
      <rect class="cls-14" x="105.14" y="199.95" width="384.99" height="578.06"/>
    </clipPath>
    <clipPath id="clippath-31">
      <rect class="cls-14" x="105.14" y="199.95" width="384.99" height="578.06"/>
    </clipPath>
    <clipPath id="clippath-32">
      <rect class="cls-14" x="105.14" y="199.95" width="384.99" height="578.06"/>
    </clipPath>
    <clipPath id="clippath-33">
      <rect class="cls-14" x="105.14" y="199.95" width="384.99" height="578.06"/>
    </clipPath>
    <clipPath id="clippath-34">
      <rect class="cls-14" x="105.14" y="199.95" width="384.99" height="578.06"/>
    </clipPath>
    <clipPath id="clippath-35">
      <rect class="cls-14" x="105.14" y="199.95" width="384.99" height="578.06"/>
    </clipPath>
    <clipPath id="clippath-36">
      <rect class="cls-14" x="105.14" y="199.95" width="384.99" height="578.06"/>
    </clipPath>
    <clipPath id="clippath-37">
      <rect class="cls-14" x="105.14" y="199.95" width="384.99" height="578.06"/>
    </clipPath>
    <clipPath id="clippath-38">
      <rect class="cls-14" x="105.14" y="199.95" width="384.99" height="578.06"/>
    </clipPath>
    <clipPath id="clippath-39">
      <rect class="cls-14" x="105.14" y="199.95" width="384.99" height="578.06"/>
    </clipPath>
    <clipPath id="clippath-40">
      <rect class="cls-14" x="105.14" y="199.95" width="384.99" height="578.06"/>
    </clipPath>
    <clipPath id="clippath-41">
      <rect class="cls-14" x="105.14" y="199.95" width="384.99" height="578.06"/>
    </clipPath>
    <clipPath id="clippath-42">
      <rect class="cls-14" x="105.14" y="199.95" width="384.99" height="578.06"/>
    </clipPath>
    <clipPath id="clippath-43">
      <rect class="cls-14" x="105.14" y="199.95" width="384.99" height="578.06"/>
    </clipPath>
    <clipPath id="clippath-44">
      <rect class="cls-14" x="105.14" y="199.95" width="384.99" height="578.06"/>
    </clipPath>
    <clipPath id="clippath-45">
      <rect class="cls-14" x="105.14" y="199.95" width="384.99" height="578.06"/>
    </clipPath>
    <clipPath id="clippath-46">
      <rect class="cls-14" x="105.14" y="199.95" width="384.99" height="578.06"/>
    </clipPath>
    <clipPath id="clippath-47">
      <rect class="cls-14" x="105.14" y="199.95" width="384.99" height="578.06"/>
    </clipPath>
    <clipPath id="clippath-48">
      <rect class="cls-14" x="105.14" y="199.95" width="384.99" height="578.06"/>
    </clipPath>
    <clipPath id="clippath-49">
      <rect class="cls-14" x="105.14" y="199.95" width="384.99" height="578.06"/>
    </clipPath>
  </defs>
  <rect class="cls-5" width="595.28" height="841.89"/>
  <g class="cls-39">
    <g class="cls-28">
      <line class="cls-13" x1="535.85" y1="808.72" x2="535.85" y2="777.15"/>
      <line class="cls-13" x1="535.35" y1="777.15" x2="566.93" y2="777.15"/>
    </g>
    <path class="cls-16" d="m544.35,792.28h1.8v-6.35h-1.37v-.36c.63-.1,1.11-.28,1.47-.48h.43v7.2h1.67v.47h-4v-.47Zm5.32-3.39c0-2.55.83-3.95,2.29-3.95s2.29,1.41,2.29,3.95-.83,4-2.29,4-2.29-1.45-2.29-4Zm4.04,0c0-2.34-.69-3.49-1.75-3.49s-1.75,1.15-1.75,3.49.69,3.54,1.75,3.54,1.75-1.2,1.75-3.54Z"/>
    <rect class="cls-13" x="28.78" y="169.5" width="537.77" height="638.85"/>
    <polyline class="cls-12" points="307.57 664.3 311.18 663.04 311.18 650.04"/>
    <line class="cls-12" x1="285.93" y1="532.13" x2="288.01" y2="534.54"/>
    <line class="cls-12" x1="288.01" y1="531.41" x2="288.01" y2="535.09"/>
    <line class="cls-12" x1="379.14" y1="638.81" x2="386.66" y2="647.51"/>
    <line class="cls-12" x1="386.66" y1="726.01" x2="320.46" y2="649.48"/>
    <line class="cls-12" x1="386.66" y1="719.73" x2="325.53" y2="649.05"/>
    <line class="cls-12" x1="386.66" y1="708.99" x2="334.02" y2="648.13"/>
    <line class="cls-12" x1="300.44" y1="650.33" x2="300.44" y2="673.43"/>
    <line class="cls-12" x1="307.57" y1="650.18" x2="307.57" y2="670.94"/>
    <line class="cls-12" x1="296.52" y1="650.34" x2="296.52" y2="668.9"/>
    <line class="cls-12" x1="288.01" y1="650.19" x2="288.01" y2="671.13"/>
    <line class="cls-12" x1="284.09" y1="650.04" x2="284.09" y2="666.6"/>
    <line class="cls-12" x1="295.14" y1="650.33" x2="295.14" y2="668.64"/>
    <line class="cls-12" x1="295.14" y1="668.64" x2="288.01" y2="671.13"/>
    <line class="cls-12" x1="288.01" y1="671.13" x2="284.09" y2="666.6"/>
    <line class="cls-12" x1="296.52" y1="668.9" x2="300.44" y2="673.43"/>
    <line class="cls-12" x1="300.44" y1="673.43" x2="307.57" y2="670.94"/>
    <line class="cls-12" x1="131.19" y1="666.65" x2="213.32" y2="637.95"/>
    <line class="cls-12" x1="131.19" y1="672.55" x2="222.54" y2="640.63"/>
    <line class="cls-12" x1="131.19" y1="678.83" x2="233.05" y2="643.24"/>
    <line class="cls-12" x1="139.38" y1="597.47" x2="131.19" y2="600.33"/>
    <g class="cls-15">
      <path class="cls-10" d="m131.28,586.17c15.24,16.77,35.13,29.51,55.5,38.65,20.62,9.26,42.96,15.42,65.22,18.89,22.36,3.48,45.37,4.35,67.93,2.67,22.51-1.67,45.21-5.93,66.68-13.06"/>
      <path class="cls-10" d="m131.28,589.31c15.24,16.77,35.13,29.51,55.5,38.65,20.62,9.26,42.96,15.42,65.22,18.89,22.36,3.48,45.37,4.35,67.93,2.67,22.51-1.67,45.21-5.93,66.68-13.06"/>
    </g>
    <line class="cls-12" x1="131.19" y1="579.92" x2="131.19" y2="725.93"/>
    <line class="cls-12" x1="124.06" y1="582.41" x2="124.06" y2="728.42"/>
    <line class="cls-12" x1="120.14" y1="577.88" x2="120.14" y2="723.89"/>
    <line class="cls-12" x1="300.44" y1="527.42" x2="300.44" y2="533.7"/>
    <line class="cls-12" x1="288.01" y1="525.12" x2="288.01" y2="531.4"/>
    <line class="cls-12" x1="300.44" y1="533.7" x2="300.44" y2="536.52"/>
    <line class="cls-12" x1="295.14" y1="522.63" x2="295.14" y2="536.98"/>
    <line class="cls-12" x1="296.52" y1="522.89" x2="296.52" y2="537"/>
    <g class="cls-44">
      <path class="cls-10" d="m302.4,535.96c-2.98,1.04-6.38,1.28-9.48.8-1.57-.24-3.15-.68-4.6-1.34-1.43-.65-2.83-1.57-3.87-2.78"/>
    </g>
    <line class="cls-12" x1="386.66" y1="633.38" x2="300.44" y2="533.7"/>
    <line class="cls-12" x1="131.19" y1="586.2" x2="288.01" y2="531.4"/>
    <line class="cls-12" x1="386.66" y1="627.1" x2="386.66" y2="719.73"/>
    <g class="cls-29">
      <line class="cls-12" x1="390.58" y1="631.63" x2="390.58" y2="777.64"/>
    </g>
    <line class="cls-12" x1="131.19" y1="725.93" x2="124.06" y2="728.42"/>
    <line class="cls-12" x1="124.06" y1="728.42" x2="120.14" y2="723.89"/>
    <line class="cls-12" x1="386.66" y1="726.01" x2="386.66" y2="773.11"/>
    <line class="cls-12" x1="386.66" y1="719.73" x2="386.66" y2="726.01"/>
    <g class="cls-51">
      <line class="cls-12" x1="386.66" y1="773.11" x2="390.58" y2="777.64"/>
      <line class="cls-12" x1="390.58" y1="777.64" x2="397.7" y2="775.15"/>
    </g>
    <line class="cls-12" x1="397.7" y1="629.14" x2="397.7" y2="775.15"/>
    <g class="cls-22">
      <path class="cls-10" d="m314.75,525.2c.62.72,1.12,1.55,1.4,2.48"/>
      <path class="cls-10" d="m314.75,522.06c.97,1.13,1.63,2.51,1.63,4.05"/>
      <path class="cls-10" d="m316.38,526.11c0,.76-.16,1.5-.46,2.19"/>
      <line class="cls-12" x1="197.57" y1="202.81" x2="204.7" y2="200.32"/>
    </g>
    <line class="cls-12" x1="311.18" y1="340.44" x2="311.18" y2="517.03"/>
    <line class="cls-12" x1="307.57" y1="336.27" x2="307.57" y2="518.65"/>
    <line class="cls-12" x1="393.79" y1="418.93" x2="307.57" y2="319.26"/>
    <line class="cls-12" x1="300.44" y1="328.03" x2="386.66" y2="427.7"/>
    <line class="cls-12" x1="300.44" y1="321.75" x2="386.66" y2="421.42"/>
    <line class="cls-12" x1="386.66" y1="627.1" x2="300.44" y2="527.42"/>
    <line class="cls-12" x1="386.66" y1="620.82" x2="300.44" y2="521.14"/>
    <line class="cls-12" x1="386.66" y1="610.08" x2="307.57" y2="518.65"/>
    <line class="cls-12" x1="300.44" y1="521.14" x2="307.57" y2="518.65"/>
    <line class="cls-12" x1="208.62" y1="404.24" x2="201.49" y2="406.74"/>
    <line class="cls-12" x1="201.49" y1="406.74" x2="201.49" y2="413.02"/>
    <line class="cls-12" x1="468.01" y1="468.51" x2="468.01" y2="462.23"/>
    <line class="cls-12" x1="197.57" y1="408.49" x2="197.57" y2="420.85"/>
    <line class="cls-12" x1="197.57" y1="202.81" x2="197.57" y2="345.15"/>
    <g class="cls-25">
      <line class="cls-12" x1="204.7" y1="200.32" x2="208.62" y2="204.85"/>
    </g>
    <line class="cls-12" x1="201.49" y1="207.34" x2="197.57" y2="202.81"/>
    <line class="cls-12" x1="201.49" y1="413.02" x2="197.57" y2="408.49"/>
    <line class="cls-12" x1="201.49" y1="213.62" x2="201.49" y2="207.34"/>
    <line class="cls-12" x1="294.83" y1="304.53" x2="208.62" y2="204.85"/>
    <line class="cls-12" x1="208.62" y1="204.85" x2="201.49" y2="207.34"/>
    <line class="cls-12" x1="300.13" y1="309.32" x2="307.26" y2="306.83"/>
    <line class="cls-12" x1="300.13" y1="309.32" x2="300.13" y2="315.95"/>
    <line class="cls-12" x1="307.26" y1="306.83" x2="311.18" y2="311.36"/>
    <line class="cls-12" x1="304.05" y1="313.85" x2="300.13" y2="309.32"/>
    <line class="cls-12" x1="304.05" y1="313.85" x2="304.05" y2="315.19"/>
    <line class="cls-12" x1="208.62" y1="221.86" x2="208.62" y2="341.29"/>
    <line class="cls-12" x1="201.49" y1="213.62" x2="201.49" y2="343.78"/>
    <line class="cls-12" x1="386.66" y1="490.66" x2="311.18" y2="517.03"/>
    <line class="cls-12" x1="201.49" y1="207.34" x2="287.71" y2="307.02"/>
    <g class="cls-46">
      <line class="cls-10" x1="105.52" y1="528.23" x2="105.52" y2="525.09"/>
      <path class="cls-10" d="m105.52,528.23c0,16.92,5.52,32.76,14.62,46.73"/>
      <path class="cls-10" d="m105.53,526.66c-.01.52-.02,1.05-.02,1.57"/>
    </g>
    <line class="cls-12" x1="471.22" y1="249.54" x2="475.13" y2="254.07"/>
    <line class="cls-12" x1="475.13" y1="254.07" x2="475.13" y2="459.74"/>
    <line class="cls-12" x1="464.09" y1="252.03" x2="471.22" y2="249.54"/>
    <line class="cls-12" x1="475.13" y1="254.07" x2="468.01" y2="256.56"/>
    <line class="cls-12" x1="464.09" y1="252.03" x2="307.26" y2="306.83"/>
    <line class="cls-12" x1="468.01" y1="262.84" x2="468.01" y2="256.56"/>
    <line class="cls-12" x1="468.01" y1="256.56" x2="464.09" y2="252.03"/>
    <line class="cls-12" x1="468.01" y1="262.84" x2="468.01" y2="455.95"/>
    <line class="cls-12" x1="311.18" y1="311.36" x2="468.01" y2="256.56"/>
    <g class="cls-38">
      <line class="cls-10" x1="489.76" y1="525.09" x2="489.76" y2="528.23"/>
      <path class="cls-10" d="m489.76,528.23c0-.52,0-1.05-.02-1.57"/>
    </g>
    <line class="cls-12" x1="464.09" y1="264.21" x2="464.09" y2="451.42"/>
    <line class="cls-12" x1="197.57" y1="357.33" x2="197.57" y2="408.49"/>
    <polyline class="cls-12" points="208.62 353.47 208.62 404.24 208.62 404.25"/>
    <line class="cls-12" x1="201.49" y1="355.97" x2="201.49" y2="406.74"/>
    <line class="cls-12" x1="295.14" y1="662.01" x2="296.52" y2="661.52"/>
    <g class="cls-53">
      <path class="cls-10" d="m312.66,522.79c.69.8,1.39,1.61,2.09,2.41"/>
    </g>
    <line class="cls-12" x1="311.18" y1="311.36" x2="304.05" y2="313.85"/>
    <line class="cls-12" x1="475.13" y1="459.74" x2="475.13" y2="478.36"/>
    <line class="cls-12" x1="475.13" y1="605.75" x2="468.01" y2="608.24"/>
    <line class="cls-12" x1="468.01" y1="608.24" x2="464.09" y2="603.71"/>
    <line class="cls-12" x1="468.01" y1="462.23" x2="468.01" y2="455.95"/>
    <line class="cls-12" x1="468.01" y1="455.95" x2="464.09" y2="451.42"/>
    <line class="cls-12" x1="291.62" y1="311.55" x2="287.71" y2="307.02"/>
    <line class="cls-12" x1="294.83" y1="304.53" x2="298.75" y2="309.06"/>
    <g class="cls-3">
      <path class="cls-10" d="m373.96,413.03c-20.4-5.61-41.67-8.8-62.78-9.75"/>
      <path class="cls-10" d="m454.65,454.72c-17.32-15.61-38.69-27.14-60.31-35.14"/>
    </g>
    <line class="cls-12" x1="291.62" y1="311.55" x2="291.62" y2="312.89"/>
    <line class="cls-12" x1="298.75" y1="309.06" x2="298.75" y2="316.44"/>
    <line class="cls-12" x1="311.18" y1="517.03" x2="307.57" y2="518.29"/>
    <g class="cls-34">
      <path class="cls-10" d="m120.14,478.36c-9.11,13.97-14.62,29.81-14.62,46.73"/>
    </g>
    <line class="cls-12" x1="475.13" y1="574.96" x2="475.13" y2="605.75"/>
    <line class="cls-12" x1="468.01" y1="584.67" x2="468.01" y2="608.24"/>
    <line class="cls-12" x1="468.01" y1="468.51" x2="468.01" y2="468.65"/>
    <line class="cls-12" x1="464.09" y1="589.21" x2="464.09" y2="603.71"/>
    <g class="cls-17">
      <path class="cls-10" d="m284.09,403.28c-22.5,1.01-45.22,4.57-66.87,10.91"/>
    </g>
    <line class="cls-12" x1="386.66" y1="484.38" x2="311.18" y2="510.75"/>
    <line class="cls-12" x1="386.66" y1="478.48" x2="311.18" y2="504.85"/>
    <line class="cls-12" x1="201.49" y1="413.02" x2="284.09" y2="508.52"/>
    <line class="cls-12" x1="208.62" y1="404.24" x2="284.09" y2="491.51"/>
    <line class="cls-12" x1="201.49" y1="406.74" x2="284.09" y2="502.24"/>
    <line class="cls-12" x1="468.01" y1="468.51" x2="397.7" y2="493.08"/>
    <line class="cls-12" x1="386.66" y1="496.94" x2="311.5" y2="523.2"/>
    <line class="cls-12" x1="311.18" y1="522.82" x2="311.18" y2="517.03"/>
    <line class="cls-12" x1="201.49" y1="413.02" x2="201.49" y2="419.37"/>
    <line class="cls-12" x1="201.49" y1="213.62" x2="287.71" y2="313.3"/>
    <line class="cls-12" x1="287.71" y1="307.02" x2="294.83" y2="304.53"/>
    <line class="cls-12" x1="311.18" y1="311.36" x2="311.18" y2="323.43"/>
    <g class="cls-49">
      <path class="cls-10" d="m201.54,419.35c-13.12,4.82-25.96,10.85-37.87,18.21-11.86,7.34-23.07,16.16-32.48,26.54"/>
      <path class="cls-10" d="m105.52,525.09c0,16.92,5.52,32.76,14.62,46.73"/>
    </g>
    <line class="cls-12" x1="475.13" y1="459.74" x2="468.01" y2="462.23"/>
    <line class="cls-12" x1="311.18" y1="317.64" x2="468.01" y2="262.84"/>
    <g class="cls-21">
      <path class="cls-10" d="m397.7,632.47c11.44-4.43,22.62-9.82,33.1-16.22,10.46-6.39,20.39-13.91,29.07-22.61,8.67-8.69,16.18-18.65,21.53-29.79,5.36-11.17,8.36-23.16,8.36-35.62"/>
      <path class="cls-10" d="m397.7,629.33c11.44-4.44,22.62-9.82,33.1-16.22,10.46-6.39,20.39-13.91,29.07-22.61,8.67-8.69,16.18-18.65,21.53-29.79,5.36-11.17,8.36-23.16,8.36-35.62"/>
      <path class="cls-10" d="m489.76,525.09c0-10.4-2.09-20.53-5.95-30.16-3.85-9.61-9.35-18.43-15.89-26.39"/>
    </g>
    <line class="cls-12" x1="468.01" y1="462.23" x2="397.7" y2="486.8"/>
    <line class="cls-12" x1="468.01" y1="455.95" x2="397.7" y2="480.52"/>
    <line class="cls-12" x1="464.09" y1="451.42" x2="397.7" y2="474.62"/>
    <line class="cls-12" x1="298.75" y1="309.06" x2="291.62" y2="311.55"/>
    <line class="cls-12" x1="287.71" y1="307.02" x2="287.71" y2="313.66"/>
    <line class="cls-12" x1="201.49" y1="419.3" x2="283.77" y2="514.43"/>
    <line class="cls-12" x1="131.19" y1="579.92" x2="288.01" y2="525.12"/>
    <line class="cls-12" x1="131.19" y1="374.25" x2="124.06" y2="376.74"/>
    <line class="cls-12" x1="131.19" y1="374.25" x2="131.19" y2="579.92"/>
    <line class="cls-12" x1="295.14" y1="522.63" x2="288.01" y2="525.12"/>
    <line class="cls-12" x1="131.19" y1="380.53" x2="288.01" y2="325.73"/>
    <line class="cls-12" x1="390.58" y1="425.95" x2="390.58" y2="631.63"/>
    <line class="cls-12" x1="131.19" y1="567.74" x2="284.09" y2="514.31"/>
    <line class="cls-12" x1="124.06" y1="376.74" x2="124.06" y2="582.41"/>
    <line class="cls-12" x1="127.27" y1="369.72" x2="131.19" y2="374.25"/>
    <line class="cls-12" x1="120.14" y1="372.21" x2="127.27" y2="369.72"/>
    <polyline class="cls-12" points="120.14 577.88 124.06 582.41 131.19 579.92"/>
    <line class="cls-12" x1="120.14" y1="372.21" x2="120.14" y2="577.88"/>
    <line class="cls-12" x1="124.06" y1="376.74" x2="120.14" y2="372.21"/>
    <line class="cls-12" x1="300.44" y1="527.42" x2="300.44" y2="521.14"/>
    <line class="cls-12" x1="131.19" y1="374.25" x2="288.01" y2="319.45"/>
    <line class="cls-12" x1="288.01" y1="325.73" x2="288.01" y2="518.84"/>
    <line class="cls-12" x1="284.09" y1="327.1" x2="284.09" y2="514.31"/>
    <line class="cls-12" x1="131.19" y1="573.64" x2="288.01" y2="518.84"/>
    <line class="cls-12" x1="295.14" y1="316.96" x2="288.01" y2="319.45"/>
    <line class="cls-12" x1="291.22" y1="312.43" x2="295.14" y2="316.96"/>
    <line class="cls-12" x1="284.09" y1="314.92" x2="291.22" y2="312.43"/>
    <line class="cls-12" x1="295.14" y1="316.96" x2="295.14" y2="522.63"/>
    <line class="cls-12" x1="284.09" y1="514.31" x2="288.01" y2="518.84"/>
    <line class="cls-12" x1="288.01" y1="518.84" x2="288.01" y2="525.12"/>
    <line class="cls-12" x1="397.7" y1="423.46" x2="390.58" y2="425.95"/>
    <line class="cls-12" x1="386.66" y1="421.42" x2="393.78" y2="418.93"/>
    <line class="cls-12" x1="284.09" y1="314.92" x2="127.27" y2="369.72"/>
    <line class="cls-12" x1="288.01" y1="319.45" x2="284.09" y2="314.92"/>
    <line class="cls-12" x1="288.01" y1="325.73" x2="288.01" y2="319.45"/>
    <line class="cls-12" x1="393.78" y1="418.93" x2="397.7" y2="423.46"/>
    <line class="cls-12" x1="390.58" y1="425.95" x2="386.66" y2="421.42"/>
    <line class="cls-12" x1="300.44" y1="328.03" x2="300.44" y2="521.14"/>
    <line class="cls-12" x1="296.52" y1="317.22" x2="303.65" y2="314.72"/>
    <line class="cls-12" x1="300.44" y1="527.42" x2="296.52" y2="522.89"/>
    <line class="cls-12" x1="296.52" y1="317.22" x2="296.52" y2="522.89"/>
    <line class="cls-12" x1="300.44" y1="321.75" x2="296.52" y2="317.22"/>
    <line class="cls-12" x1="303.65" y1="314.72" x2="307.57" y2="319.26"/>
    <line class="cls-12" x1="307.57" y1="319.26" x2="300.44" y2="321.75"/>
    <line class="cls-12" x1="300.44" y1="328.03" x2="300.44" y2="321.75"/>
    <g class="cls-4">
      <path class="cls-11" d="m146.93,564.52c0,.35.29.61.57.75.29.15.64.21.96.21s.67-.07.96-.21c.28-.14.57-.4.57-.75"/>
    </g>
    <line class="cls-11" x1="149.47" y1="562.95" x2="149.47" y2="563.89"/>
    <line class="cls-11" x1="147.44" y1="563.89" x2="147.44" y2="562.95"/>
    <g class="cls-50">
      <path class="cls-11" d="m147.44,563.89c0,.24.19.41.38.5.19.1.43.14.64.14s.45-.04.64-.14c.18-.09.38-.27.38-.5"/>
      <path class="cls-11" d="m147.33,563.87c-.21.15-.4.37-.4.65"/>
      <path class="cls-11" d="m149.98,564.68s0-.05,0-.08"/>
      <path class="cls-11" d="m149.98,564.52c0-.18-.08-.34-.19-.47"/>
      <path class="cls-11" d="m146.93,564.68c0,.35.29.61.57.75.29.15.64.22.96.22s.67-.07.96-.21c.28-.14.57-.4.57-.75"/>
    </g>
    <line class="cls-11" x1="149.98" y1="564.52" x2="149.98" y2="564.68"/>
    <g class="cls-48">
      <path class="cls-11" d="m149.79,564.05c-.06-.07-.12-.12-.19-.17"/>
      <path class="cls-11" d="m147.44,562.95c0-.15.03-.29.09-.42.01-.02.02-.04.03-.06.07-.13.16-.23.27-.32.07-.05.14-.09.21-.12.02-.01.05-.02.07-.03.17-.06.35-.07.52-.04.08.01.15.04.22.07.02,0,.04.02.07.03.11.06.21.14.3.23"/>
      <path class="cls-11" d="m149.22,562.28c.05.06.09.12.12.18.05.09.08.19.1.29.01.07.02.13.02.2"/>
      <path class="cls-11" d="m186.14,550.84c0,.35.29.61.57.75.29.15.64.21.96.21s.67-.07.96-.21c.28-.14.57-.4.57-.75"/>
    </g>
    <line class="cls-11" x1="188.68" y1="549.27" x2="188.68" y2="550.21"/>
    <line class="cls-11" x1="186.64" y1="550.21" x2="186.64" y2="549.27"/>
    <g class="cls-42">
      <path class="cls-11" d="m186.64,550.21c0,.24.19.41.38.5.19.1.43.14.64.14s.44-.04.64-.14c.18-.09.38-.27.38-.5"/>
      <path class="cls-11" d="m186.53,550.18c-.21.15-.4.37-.4.65"/>
      <path class="cls-11" d="m189.19,550.99s0-.05,0-.08"/>
      <path class="cls-11" d="m189.19,550.84c0-.18-.08-.34-.19-.47"/>
      <path class="cls-11" d="m186.14,550.99c0,.35.29.61.57.75.29.15.64.22.96.22s.67-.07.96-.21c.28-.14.57-.4.57-.75"/>
    </g>
    <line class="cls-11" x1="189.19" y1="550.84" x2="189.19" y2="550.99"/>
    <g class="cls-2">
      <path class="cls-11" d="m189,550.37c-.06-.07-.12-.12-.19-.17"/>
      <path class="cls-11" d="m186.64,549.27c0-.15.03-.29.09-.42.01-.02.02-.04.03-.06.07-.12.16-.23.27-.32.07-.05.14-.09.21-.13.02-.01.05-.02.07-.03.17-.06.35-.07.52-.04.08.02.15.04.22.07.02,0,.04.02.07.03.11.06.21.14.3.23"/>
      <path class="cls-11" d="m188.43,548.6c.05.06.09.12.12.18.05.09.08.19.1.29.01.07.02.13.02.2"/>
      <path class="cls-11" d="m225.34,537.14c0,.35.29.61.57.75.29.15.64.21.96.21s.67-.07.96-.21c.28-.14.57-.4.57-.75"/>
    </g>
    <line class="cls-11" x1="227.88" y1="535.57" x2="227.88" y2="536.51"/>
    <line class="cls-11" x1="225.85" y1="536.51" x2="225.85" y2="535.57"/>
    <g class="cls-26">
      <path class="cls-11" d="m225.85,536.51c0,.24.19.41.38.5.19.1.42.14.64.14s.44-.04.64-.14c.18-.09.38-.27.38-.5"/>
      <path class="cls-11" d="m225.74,536.48c-.21.15-.4.37-.4.65"/>
      <path class="cls-11" d="m228.39,537.29s0-.05,0-.08"/>
      <path class="cls-11" d="m228.39,537.14c0-.18-.08-.34-.19-.47"/>
      <path class="cls-11" d="m225.34,537.29c0,.35.29.61.57.75.29.15.64.22.96.22s.67-.07.96-.21c.28-.14.57-.4.57-.75"/>
    </g>
    <line class="cls-11" x1="228.39" y1="537.14" x2="228.39" y2="537.29"/>
    <g class="cls-37">
      <path class="cls-11" d="m228.2,536.67c-.06-.07-.12-.12-.19-.17"/>
      <path class="cls-11" d="m225.85,535.57c0-.15.03-.29.09-.42,0-.02.02-.04.03-.06.07-.12.16-.23.27-.32.07-.05.14-.09.21-.13.03-.01.05-.02.07-.03.17-.06.35-.07.52-.04.08.02.15.04.22.07.02,0,.04.02.06.03.11.06.21.14.3.23"/>
      <path class="cls-11" d="m227.64,534.9c.05.06.09.12.12.18.05.09.08.19.1.29.01.07.02.13.02.2"/>
      <path class="cls-11" d="m264.55,523.44c0,.35.29.61.56.75.29.15.64.21.96.21s.67-.07.96-.21c.28-.14.57-.4.57-.75"/>
    </g>
    <line class="cls-11" x1="267.09" y1="521.87" x2="267.09" y2="522.81"/>
    <line class="cls-11" x1="265.06" y1="522.81" x2="265.06" y2="521.87"/>
    <g class="cls-54">
      <path class="cls-11" d="m265.06,522.81c0,.24.19.41.38.5.19.1.42.14.64.14s.44-.04.64-.14c.18-.09.38-.27.38-.5"/>
      <path class="cls-11" d="m264.94,522.78c-.21.15-.4.37-.4.65"/>
      <path class="cls-11" d="m267.6,523.59s0-.05,0-.08"/>
      <path class="cls-11" d="m267.6,523.44c0-.18-.08-.34-.19-.47"/>
      <path class="cls-11" d="m264.55,523.59c0,.35.29.61.56.75.29.15.64.22.96.22s.67-.07.96-.21c.28-.14.57-.4.57-.75"/>
    </g>
    <line class="cls-11" x1="267.6" y1="523.44" x2="267.6" y2="523.59"/>
    <g class="cls-35">
      <path class="cls-11" d="m267.41,522.97c-.06-.07-.12-.12-.19-.17"/>
      <path class="cls-11" d="m265.06,521.87c0-.15.03-.29.09-.42,0-.02.02-.04.03-.06.07-.13.16-.23.27-.32.07-.05.14-.09.21-.12.02-.01.05-.02.07-.03.17-.06.35-.07.52-.04.08.01.15.04.22.07.02,0,.04.02.07.03.11.06.21.14.3.23"/>
      <path class="cls-11" d="m266.84,521.2c.05.06.09.12.12.18.05.09.08.19.1.29.01.07.02.13.02.2"/>
    </g>
    <polyline class="cls-12" points="386.66 421.42 386.66 620.82 386.66 627.1"/>
    <polyline class="cls-12" points="397.7 423.46 397.7 629.14 390.58 631.63 386.66 627.1"/>
    <g class="cls-20">
      <path class="cls-11" d="m313.22,532.35c0,.35.29.61.56.75.29.15.64.22.96.22s.67-.07.96-.22c.28-.14.57-.4.57-.75"/>
    </g>
    <line class="cls-11" x1="315.76" y1="530.78" x2="315.76" y2="531.73"/>
    <line class="cls-11" x1="313.73" y1="531.72" x2="313.73" y2="530.78"/>
    <g class="cls-24">
      <path class="cls-11" d="m313.73,531.72c0,.24.19.41.38.5.19.1.42.14.64.14s.44-.04.64-.14c.18-.09.38-.27.38-.5"/>
      <path class="cls-11" d="m313.62,531.7c-.21.15-.4.37-.4.65"/>
      <path class="cls-11" d="m316.27,532.51s0-.05,0-.08"/>
      <path class="cls-11" d="m316.27,532.35c0-.18-.08-.34-.19-.47"/>
      <path class="cls-11" d="m313.22,532.51c0,.35.29.61.56.75.29.15.64.22.96.22s.67-.07.96-.21c.28-.14.57-.4.57-.75"/>
    </g>
    <line class="cls-11" x1="316.27" y1="532.35" x2="316.27" y2="532.51"/>
    <g class="cls-32">
      <path class="cls-11" d="m316.08,531.89c-.06-.07-.12-.12-.19-.17"/>
      <path class="cls-11" d="m313.73,530.78c0-.15.03-.29.09-.42,0-.02.02-.04.03-.06.07-.13.16-.23.27-.32.07-.05.14-.09.21-.12.02-.01.05-.02.07-.03.17-.06.35-.07.52-.04.08.01.15.04.22.07.02,0,.04.02.07.03.11.06.21.14.3.23"/>
      <path class="cls-11" d="m315.51,530.12c.05.06.09.12.12.18.05.09.08.19.1.29.01.07.02.13.02.2"/>
      <path class="cls-11" d="m334.81,557.27c0,.35.29.61.56.75.29.15.64.21.96.21s.67-.07.96-.21c.28-.14.57-.4.57-.75"/>
    </g>
    <line class="cls-11" x1="337.35" y1="555.7" x2="337.35" y2="556.64"/>
    <line class="cls-11" x1="335.32" y1="556.64" x2="335.32" y2="555.7"/>
    <g class="cls-56">
      <path class="cls-11" d="m335.32,556.64c0,.24.19.41.38.5.19.1.42.14.64.14s.44-.04.64-.14c.18-.09.38-.27.38-.5"/>
      <path class="cls-11" d="m335.21,556.62c-.21.15-.4.37-.4.65"/>
      <path class="cls-11" d="m337.86,557.43s0-.05,0-.08"/>
      <path class="cls-11" d="m337.86,557.27c0-.18-.08-.34-.19-.47"/>
      <path class="cls-11" d="m334.81,557.43c0,.35.29.61.56.75.29.15.64.22.96.22s.67-.07.96-.21c.28-.14.57-.4.57-.75"/>
    </g>
    <line class="cls-11" x1="337.86" y1="557.27" x2="337.86" y2="557.43"/>
    <g class="cls-47">
      <path class="cls-11" d="m337.67,556.8c-.06-.07-.12-.12-.19-.17"/>
      <path class="cls-11" d="m335.32,555.7c0-.15.03-.29.09-.42.01-.02.02-.04.03-.06.07-.12.16-.23.27-.32.07-.05.14-.09.21-.13.03-.01.05-.02.07-.03.17-.06.35-.07.52-.04.08.01.15.04.22.07.02,0,.04.02.07.03.11.06.21.14.3.23"/>
      <path class="cls-11" d="m337.11,555.04c.05.06.09.12.12.18.05.09.08.19.1.29.01.07.02.13.02.2"/>
      <path class="cls-11" d="m356.37,582.19c0,.35.29.61.56.75.29.15.64.21.96.21s.67-.07.96-.21c.28-.14.57-.4.57-.75"/>
    </g>
    <line class="cls-11" x1="358.91" y1="580.62" x2="358.91" y2="581.56"/>
    <line class="cls-11" x1="356.87" y1="581.56" x2="356.87" y2="580.62"/>
    <g class="cls-36">
      <path class="cls-11" d="m356.87,581.56c0,.24.19.41.38.5.19.1.42.14.64.14s.44-.04.64-.14c.18-.09.38-.27.38-.5"/>
      <path class="cls-11" d="m356.76,581.54c-.21.15-.4.37-.4.65"/>
      <path class="cls-11" d="m359.42,582.35s0-.05,0-.08"/>
      <path class="cls-11" d="m359.42,582.19c0-.18-.08-.34-.19-.47"/>
      <path class="cls-11" d="m356.37,582.35c0,.35.29.61.56.75.29.15.64.22.96.22s.67-.07.96-.21c.28-.14.57-.4.57-.75"/>
    </g>
    <line class="cls-11" x1="359.42" y1="582.19" x2="359.42" y2="582.35"/>
    <g class="cls-43">
      <path class="cls-11" d="m359.23,581.72c-.06-.07-.12-.12-.19-.17"/>
      <path class="cls-11" d="m356.87,580.62c0-.15.03-.29.09-.42.01-.02.02-.04.03-.06.07-.12.16-.23.27-.32.07-.05.14-.09.21-.12.03-.01.05-.02.07-.03.17-.06.35-.07.52-.04.08.01.15.04.22.07.02,0,.04.02.07.03.11.06.21.14.3.23"/>
      <path class="cls-11" d="m358.66,579.96c.05.06.09.12.12.18.05.09.08.19.1.29.01.07.02.13.02.2"/>
      <path class="cls-11" d="m377.92,607.11c0,.35.29.61.56.75.29.15.64.21.96.21s.67-.07.96-.21c.28-.14.57-.4.57-.75"/>
    </g>
    <line class="cls-11" x1="380.46" y1="605.54" x2="380.46" y2="606.48"/>
    <line class="cls-11" x1="378.43" y1="606.48" x2="378.43" y2="605.54"/>
    <g class="cls-9">
      <path class="cls-11" d="m378.43,606.48c0,.24.19.41.38.5.19.1.42.14.64.14s.44-.04.64-.14c.18-.09.38-.27.38-.5"/>
      <path class="cls-11" d="m378.31,606.46c-.21.15-.4.37-.4.65"/>
      <path class="cls-11" d="m380.97,607.27s0-.05,0-.08"/>
      <path class="cls-11" d="m380.97,607.11c0-.18-.08-.34-.19-.47"/>
      <path class="cls-11" d="m377.92,607.27c0,.35.29.61.56.75.29.15.64.22.96.22s.67-.07.96-.21c.28-.14.57-.4.57-.75"/>
    </g>
    <line class="cls-11" x1="380.97" y1="607.11" x2="380.97" y2="607.27"/>
    <g class="cls-6">
      <path class="cls-11" d="m380.78,606.64c-.06-.07-.12-.12-.19-.17"/>
      <path class="cls-11" d="m378.43,605.54c0-.15.03-.29.09-.42.01-.02.02-.04.03-.06.07-.12.16-.23.27-.32.07-.05.14-.09.21-.13.03,0,.05-.02.07-.03.17-.06.35-.07.52-.04.08.02.15.04.22.07.02,0,.04.02.07.03.11.06.21.14.3.23"/>
      <path class="cls-11" d="m380.21,604.88c.05.06.09.12.12.18.05.09.08.19.1.29.01.07.02.13.02.2"/>
      <path class="cls-11" d="m214.31,417.95c0,.35.29.61.56.75.29.15.64.21.96.21s.67-.07.96-.21c.28-.14.57-.4.57-.75"/>
    </g>
    <line class="cls-11" x1="216.85" y1="416.38" x2="216.85" y2="417.32"/>
    <line class="cls-11" x1="214.81" y1="417.32" x2="214.81" y2="416.38"/>
    <g class="cls-27">
      <path class="cls-11" d="m214.81,417.32c0,.24.19.41.38.5.19.1.42.14.64.14s.44-.04.64-.14c.18-.09.38-.27.38-.5"/>
      <path class="cls-11" d="m214.7,417.3c-.21.15-.4.37-.4.65"/>
      <path class="cls-11" d="m217.36,418.11s0-.05,0-.08"/>
      <path class="cls-11" d="m217.36,417.95c0-.18-.08-.34-.19-.47"/>
      <path class="cls-11" d="m214.31,418.11c0,.35.29.61.56.75.29.15.64.22.96.22s.67-.07.96-.21c.28-.14.57-.4.57-.75"/>
    </g>
    <line class="cls-11" x1="217.36" y1="417.95" x2="217.36" y2="418.11"/>
    <g class="cls-57">
      <path class="cls-11" d="m217.17,417.48c-.06-.07-.12-.12-.19-.17"/>
      <path class="cls-11" d="m214.81,416.38c0-.15.03-.29.09-.42,0-.02.02-.04.03-.06.07-.12.16-.23.27-.32.07-.05.14-.09.21-.13.02-.01.05-.02.07-.03.17-.06.35-.07.52-.04.08.02.15.04.22.07.02,0,.04.02.07.03.11.06.21.14.3.23"/>
      <path class="cls-11" d="m216.6,415.71c.05.06.09.12.12.18.05.09.08.19.1.29.01.07.02.13.02.2"/>
      <path class="cls-11" d="m235.9,442.87c0,.35.29.61.56.75.29.15.64.21.96.21s.67-.07.96-.21c.28-.14.57-.4.57-.75"/>
    </g>
    <line class="cls-11" x1="238.44" y1="441.3" x2="238.44" y2="442.24"/>
    <line class="cls-11" x1="236.41" y1="442.24" x2="236.41" y2="441.3"/>
    <g class="cls-31">
      <path class="cls-11" d="m236.41,442.24c0,.24.19.41.38.5.19.1.42.14.64.14s.44-.04.64-.14c.18-.09.38-.27.38-.5"/>
      <path class="cls-11" d="m236.29,442.22c-.21.15-.4.37-.4.65"/>
      <path class="cls-11" d="m238.95,443.03s0-.05,0-.08"/>
      <path class="cls-11" d="m238.95,442.87c0-.18-.08-.34-.19-.47"/>
      <path class="cls-11" d="m235.9,443.03c0,.35.29.61.56.75.29.15.64.22.96.22s.67-.07.96-.21c.28-.14.57-.4.57-.75"/>
    </g>
    <line class="cls-11" x1="238.95" y1="442.87" x2="238.95" y2="443.03"/>
    <g class="cls-18">
      <path class="cls-11" d="m238.76,442.4c-.06-.07-.12-.12-.19-.17"/>
      <path class="cls-11" d="m236.41,441.3c0-.15.03-.29.09-.42,0-.02.02-.04.03-.06.07-.13.16-.23.27-.32.07-.05.14-.09.21-.12.02-.01.05-.02.07-.03.17-.06.35-.07.52-.04.08.01.15.04.22.07.02,0,.04.02.07.03.11.06.21.14.3.23"/>
      <path class="cls-11" d="m238.19,440.63c.05.06.09.12.12.18.05.09.08.19.1.29.01.07.02.13.02.2"/>
      <path class="cls-11" d="m257.45,467.79c0,.35.29.61.56.75.29.15.64.21.96.21s.67-.07.96-.21c.28-.14.57-.4.57-.75"/>
    </g>
    <line class="cls-11" x1="259.99" y1="466.22" x2="259.99" y2="467.16"/>
    <line class="cls-11" x1="257.96" y1="467.16" x2="257.96" y2="466.22"/>
    <g class="cls-30">
      <path class="cls-11" d="m257.96,467.16c0,.24.19.41.38.5.19.1.42.14.64.14s.44-.04.64-.14c.18-.09.38-.27.38-.5"/>
      <path class="cls-11" d="m257.85,467.14c-.21.15-.4.37-.4.65"/>
      <path class="cls-11" d="m260.5,467.95s0-.05,0-.08"/>
      <path class="cls-11" d="m260.5,467.79c0-.18-.08-.34-.19-.47"/>
      <path class="cls-11" d="m257.45,467.95c0,.35.29.61.56.75.29.15.64.22.96.22s.67-.07.96-.21c.28-.14.57-.4.57-.75"/>
    </g>
    <line class="cls-11" x1="260.5" y1="467.79" x2="260.5" y2="467.95"/>
    <g class="cls-41">
      <path class="cls-11" d="m260.31,467.32c-.06-.07-.12-.12-.19-.17"/>
      <path class="cls-11" d="m257.96,466.22c0-.15.03-.29.09-.42,0-.02.02-.04.03-.06.07-.13.16-.23.27-.32.07-.05.14-.09.21-.12.02-.01.05-.02.07-.03.17-.06.35-.07.52-.04.08.01.15.04.22.07.02,0,.04.02.07.03.11.06.21.14.3.23"/>
      <path class="cls-11" d="m259.75,465.55c.05.06.09.12.12.18.05.09.08.19.1.29.01.07.02.13.02.2"/>
      <path class="cls-11" d="m279.01,492.71c0,.35.29.61.56.75.29.15.64.21.96.21s.67-.07.96-.21c.28-.14.57-.4.57-.75"/>
    </g>
    <line class="cls-11" x1="281.55" y1="491.14" x2="281.55" y2="492.08"/>
    <line class="cls-11" x1="279.51" y1="492.08" x2="279.51" y2="491.14"/>
    <g class="cls-23">
      <path class="cls-11" d="m279.51,492.08c0,.24.19.41.38.5.19.1.42.14.64.14s.44-.04.64-.14c.18-.09.38-.27.38-.5"/>
      <path class="cls-11" d="m279.4,492.06c-.21.15-.4.37-.4.65"/>
      <path class="cls-11" d="m282.06,492.87s0-.05,0-.08"/>
      <path class="cls-11" d="m282.06,492.71c0-.18-.08-.34-.19-.47"/>
      <path class="cls-11" d="m279.01,492.87c0,.35.29.61.56.75.29.15.64.22.96.22s.67-.07.96-.21c.28-.14.57-.4.57-.75"/>
    </g>
    <line class="cls-11" x1="282.06" y1="492.71" x2="282.06" y2="492.87"/>
    <g class="cls-8">
      <path class="cls-11" d="m281.87,492.24c-.06-.07-.12-.12-.19-.17"/>
      <path class="cls-11" d="m279.51,491.14c0-.15.03-.29.09-.42,0-.02.02-.04.03-.06.07-.12.16-.23.27-.32.07-.05.14-.09.21-.13.03-.01.05-.02.07-.03.17-.06.35-.07.52-.04.08.01.15.04.22.07.02,0,.04.02.07.03.11.06.21.14.3.23"/>
      <path class="cls-11" d="m281.3,490.47c.05.06.09.12.12.18.05.09.08.19.1.29.01.07.02.13.02.2"/>
      <path class="cls-11" d="m327.3,501.46c0,.35.29.61.57.75.29.15.64.21.96.21s.67-.07.96-.21c.28-.14.57-.4.57-.75"/>
    </g>
    <line class="cls-11" x1="329.84" y1="499.89" x2="329.84" y2="500.83"/>
    <line class="cls-11" x1="327.81" y1="500.83" x2="327.81" y2="499.89"/>
    <g class="cls-52">
      <path class="cls-11" d="m327.81,500.83c0,.24.19.41.38.5.19.1.42.14.64.14s.44-.04.64-.14c.18-.09.38-.27.38-.5"/>
      <path class="cls-11" d="m327.7,500.81c-.21.15-.4.37-.4.65"/>
      <path class="cls-11" d="m330.35,501.62s0-.05,0-.08"/>
      <path class="cls-11" d="m330.35,501.46c0-.18-.08-.34-.19-.47"/>
      <path class="cls-11" d="m327.3,501.62c0,.35.29.61.57.75.29.15.64.22.96.22s.67-.07.96-.21c.28-.14.57-.4.57-.75"/>
    </g>
    <line class="cls-11" x1="330.35" y1="501.46" x2="330.35" y2="501.62"/>
    <g class="cls-45">
      <path class="cls-11" d="m330.16,500.99c-.06-.07-.12-.12-.19-.17"/>
      <path class="cls-11" d="m327.81,499.89c0-.15.03-.29.09-.42.01-.02.02-.04.03-.06.07-.12.16-.23.27-.32.07-.05.14-.09.21-.13.02-.01.05-.02.07-.03.17-.06.35-.07.52-.04.08.01.15.04.22.07.02,0,.04.02.07.03.11.06.21.14.3.23"/>
      <path class="cls-11" d="m329.59,499.22c.05.06.09.12.12.18.05.09.08.19.1.29.01.07.02.13.02.2"/>
      <path class="cls-11" d="m366.51,487.78c0,.35.29.61.57.75.29.15.64.21.96.21s.67-.07.96-.21c.28-.14.57-.4.57-.75"/>
    </g>
    <line class="cls-11" x1="369.05" y1="486.21" x2="369.05" y2="487.15"/>
    <line class="cls-11" x1="367.01" y1="487.15" x2="367.01" y2="486.21"/>
    <g class="cls-33">
      <path class="cls-11" d="m367.01,487.15c0,.24.19.41.38.5.19.1.42.14.64.14s.44-.04.64-.14c.18-.09.38-.27.38-.5"/>
      <path class="cls-11" d="m366.9,487.13c-.21.15-.4.37-.4.65"/>
      <path class="cls-11" d="m369.56,487.93s0-.05,0-.08"/>
      <path class="cls-11" d="m369.56,487.78c0-.18-.08-.34-.19-.47"/>
      <path class="cls-11" d="m366.51,487.93c0,.35.29.61.57.75.29.15.64.22.96.22s.67-.07.96-.21c.28-.14.57-.4.57-.75"/>
    </g>
    <line class="cls-11" x1="369.56" y1="487.78" x2="369.56" y2="487.93"/>
    <g class="cls-1">
      <path class="cls-11" d="m369.37,487.31c-.06-.07-.12-.12-.19-.17"/>
      <path class="cls-11" d="m367.01,486.21c0-.15.03-.29.09-.42,0-.02.02-.04.03-.06.07-.13.16-.23.27-.32.07-.05.14-.09.21-.12.02-.01.05-.02.07-.03.17-.06.35-.07.52-.04.08.01.15.04.22.07.02,0,.04.02.07.03.11.06.21.14.3.23"/>
      <path class="cls-11" d="m368.8,485.54c.05.06.09.12.12.18.05.09.08.19.1.29.01.07.02.13.02.2"/>
      <path class="cls-11" d="m405.71,474.08c0,.35.29.61.57.75.29.15.64.21.96.21s.67-.07.96-.21c.28-.14.57-.4.57-.75"/>
    </g>
    <line class="cls-11" x1="408.25" y1="472.51" x2="408.25" y2="473.45"/>
    <line class="cls-11" x1="406.22" y1="473.45" x2="406.22" y2="472.51"/>
    <g class="cls-19">
      <path class="cls-11" d="m406.22,473.45c0,.24.19.41.38.5.19.1.42.14.64.14s.45-.04.64-.14c.18-.09.38-.27.38-.5"/>
      <path class="cls-11" d="m406.11,473.43c-.21.15-.4.37-.4.65"/>
      <path class="cls-11" d="m408.76,474.23s0-.05,0-.08"/>
      <path class="cls-11" d="m408.76,474.08c0-.18-.08-.34-.19-.47"/>
      <path class="cls-11" d="m405.71,474.23c0,.35.29.61.57.75.29.15.64.22.96.22s.67-.07.96-.21c.28-.14.57-.4.57-.75"/>
    </g>
    <line class="cls-11" x1="408.76" y1="474.08" x2="408.76" y2="474.23"/>
    <g class="cls-7">
      <path class="cls-11" d="m408.57,473.61c-.06-.07-.12-.12-.19-.17"/>
      <path class="cls-11" d="m406.22,472.51c0-.15.03-.29.09-.42.01-.02.02-.04.03-.06.07-.13.16-.23.27-.32.07-.05.14-.09.21-.12.02-.01.05-.02.07-.03.17-.06.35-.07.52-.04.08.01.15.04.22.07.02,0,.04.02.07.03.11.06.21.14.3.23"/>
      <path class="cls-11" d="m408.01,471.84c.05.06.09.12.12.18.05.09.08.19.1.29.01.07.02.13.02.2"/>
      <path class="cls-11" d="m444.92,460.38c0,.35.29.61.56.75.29.15.64.21.96.21s.67-.07.96-.21c.28-.14.57-.4.57-.75"/>
    </g>
    <line class="cls-11" x1="447.46" y1="458.81" x2="447.46" y2="459.75"/>
    <line class="cls-11" x1="445.43" y1="459.75" x2="445.43" y2="458.81"/>
    <g class="cls-40">
      <path class="cls-11" d="m445.43,459.75c0,.24.19.41.38.5.19.1.42.14.64.14s.44-.04.64-.14c.18-.09.38-.27.38-.5"/>
      <path class="cls-11" d="m445.31,459.73c-.21.15-.4.37-.4.65"/>
      <path class="cls-11" d="m447.97,460.53s0-.05,0-.08"/>
      <path class="cls-11" d="m447.97,460.38c0-.18-.08-.34-.19-.47"/>
      <path class="cls-11" d="m444.92,460.53c0,.35.29.61.56.75.29.15.64.22.96.22s.67-.07.96-.21c.28-.14.57-.4.57-.75"/>
    </g>
    <line class="cls-11" x1="447.97" y1="460.38" x2="447.97" y2="460.54"/>
    <g class="cls-55">
      <path class="cls-11" d="m447.78,459.91c-.06-.07-.12-.12-.19-.17"/>
      <path class="cls-11" d="m445.43,458.81c0-.15.03-.29.09-.42,0-.02.02-.04.03-.06.07-.13.16-.23.27-.32.07-.05.14-.09.21-.12.02-.01.05-.02.07-.03.17-.06.35-.07.52-.04.08.01.15.04.22.07.02,0,.04.02.07.03.11.06.21.14.3.23"/>
      <path class="cls-11" d="m447.21,458.14c.05.06.09.12.12.18.05.09.08.19.1.29.01.07.02.13.02.2"/>
    </g>
    <path class="cls-16" d="m28.44,51.64h.59l1.2,2.47c.28.58.53,1.13.84,1.71h.05c.3-.58.6-1.13.86-1.71l1.2-2.47h.56l-2.37,4.7v3.2h-.55v-3.2l-2.37-4.7Zm6.46,0h4.32v.47h-3.77v2.99h3.17v.47h-3.17v3.49h3.89v.47h-4.44v-7.9Zm6.18,0h.55v7.43h3.64v.47h-4.19v-7.9Zm5.6,0h.55v7.43h3.64v.47h-4.19v-7.9Zm4.86,3.93c0-2.5,1.36-4.07,3.26-4.07s3.25,1.57,3.25,4.07-1.36,4.12-3.25,4.12-3.26-1.62-3.26-4.12Zm5.93,0c0-2.19-1.07-3.57-2.68-3.57s-2.68,1.38-2.68,3.57,1.07,3.62,2.68,3.62,2.68-1.43,2.68-3.62Zm1.46-3.93h.58l.99,4.66c.18.86.36,1.72.54,2.58h.05c.19-.86.4-1.72.6-2.58l1.24-4.66h.56l1.24,4.66c.21.86.42,1.72.63,2.58h.05c.18-.86.34-1.72.52-2.58l.99-4.66h.54l-1.77,7.9h-.61l-1.44-5.43c-.14-.62-.28-1.16-.42-1.78h-.05c-.14.62-.3,1.16-.44,1.78l-1.42,5.43h-.6l-1.8-7.9Zm10.07,0h2.14c1.59,0,2.6.6,2.6,1.92,0,.82-.43,1.48-1.22,1.72v.05c1.02.17,1.71.81,1.71,1.91,0,1.52-1.15,2.3-2.94,2.3h-2.29v-7.9Zm1.92,3.48c1.62,0,2.28-.57,2.28-1.5,0-1.11-.77-1.51-2.21-1.51h-1.43v3.02h1.36Zm.23,3.97c1.57,0,2.54-.57,2.54-1.84,0-1.14-.92-1.68-2.54-1.68h-1.6v3.51h1.6Zm4.79-7.44h4.32v.47h-3.77v2.99h3.17v.47h-3.17v3.49h3.89v.47h-4.44v-7.9Zm6.18,0h.55v7.43h3.64v.47h-4.19v-7.9Zm5.6,0h.55v7.43h3.64v.47h-4.19v-7.9Zm3.63,0h.59l1.2,2.47c.28.58.53,1.13.84,1.71h.05c.3-.58.6-1.13.86-1.71l1.2-2.47h.56l-2.37,4.7v3.2h-.55v-3.2l-2.37-4.7Zm6.23,1.9c.53-.42.8-.81.81-1.49-.02.02-.06.02-.1.02-.23,0-.47-.15-.47-.44s.19-.48.47-.48c.32,0,.54.28.54.8,0,.85-.38,1.44-1.03,1.87l-.22-.28Zm1.64,5.35l.31-.39c.49.41,1.01.73,1.83.73.91,0,1.38-.53,1.38-1.14,0-.72-.75-1.04-1.41-1.28-.87-.31-1.79-.66-1.79-1.65,0-.83.66-1.53,1.86-1.53.62,0,1.23.26,1.65.6l-.29.38c-.39-.29-.8-.53-1.37-.53-.9,0-1.3.52-1.3,1.05,0,.66.63.91,1.32,1.17.89.34,1.88.63,1.88,1.76,0,.87-.69,1.62-1.94,1.62-.85,0-1.6-.36-2.11-.8Zm7.93-5.11h.45l.06.89h.03c.52-.59,1.18-1.04,1.82-1.04.92,0,1.39.47,1.59,1.18.65-.72,1.29-1.18,1.95-1.18,1.15,0,1.72.72,1.72,2.21v3.69h-.53v-3.62c0-1.22-.41-1.8-1.29-1.8-.54,0-1.09.36-1.72,1.08v4.34h-.53v-3.62c0-1.22-.41-1.8-1.29-1.8-.52,0-1.09.36-1.72,1.08v4.34h-.53v-5.76Zm9.26,2.89c0-1.93,1.2-3.03,2.59-3.03s2.59,1.11,2.59,3.03-1.2,3.01-2.59,3.01-2.59-1.11-2.59-3.01Zm4.62,0c0-1.52-.87-2.57-2.03-2.57s-2.03,1.05-2.03,2.57.87,2.55,2.03,2.55,2.03-1.03,2.03-2.55Zm1.8,0c0-1.86,1.18-3.03,2.55-3.03.69,0,1.16.26,1.74.71l-.03-1.06v-2.37h.53v8.63h-.45l-.06-.75h-.03c-.47.47-1.11.89-1.88.89-1.44,0-2.38-1.07-2.38-3.01Zm4.26,1.59v-3.42c-.61-.54-1.11-.74-1.68-.74-1.14,0-2.03,1.12-2.03,2.56,0,1.53.68,2.55,1.9,2.55.64,0,1.2-.33,1.8-.95Zm2.65-.79v-3.69h.53v3.62c0,1.22.39,1.8,1.31,1.8.69,0,1.18-.36,1.86-1.18v-4.25h.53v5.76h-.45l-.06-.96h-.03c-.57.66-1.16,1.11-1.95,1.11-1.19,0-1.74-.72-1.74-2.21Zm6.44,1.29v-7.86h.53v7.93c0,.26.11.38.25.38.05,0,.1,0,.22-.02l.09.43c-.11.03-.21.06-.38.06-.46,0-.7-.29-.7-.92Zm2.43-.66c0-1.28,1.15-1.89,3.72-2.17.02-.89-.23-1.83-1.36-1.83-.78,0-1.45.38-1.84.68l-.24-.39c.41-.29,1.21-.75,2.14-.75,1.36,0,1.83.99,1.83,2.22v3.68h-.45l-.06-.75h-.03c-.59.47-1.29.89-2.04.89-.91,0-1.67-.5-1.67-1.58Zm3.72.19v-1.96c-2.37.27-3.17.82-3.17,1.74,0,.83.56,1.14,1.22,1.14s1.24-.32,1.95-.93Zm2.59-4.52h.45l.06,1.07h.03c.39-.71.95-1.22,1.64-1.22.21,0,.38.03.57.12l-.12.48c-.19-.07-.3-.1-.52-.1-.52,0-1.13.39-1.57,1.48v3.92h-.53v-5.76Zm3.53-1.88c0-.28.2-.47.46-.47s.46.19.46.47c0,.3-.2.49-.46.49s-.46-.19-.46-.49Zm.18,1.88h.53v5.76h-.53v-5.76Zm2.88,4.17v-3.71h-.9v-.41l.91-.05.07-1.67h.45v1.67h1.67v.46h-1.67v3.75c0,.74.18,1.23.98,1.23.21,0,.51-.09.72-.18l.14.43c-.33.12-.7.22-.94.22-1.11,0-1.43-.7-1.43-1.73Zm2.79,4.09l.12-.46c.12.05.31.09.47.09.7,0,1.18-.65,1.48-1.53l.16-.5-2.37-5.87h.57l1.39,3.62c.19.49.42,1.1.63,1.62h.05c.18-.51.37-1.13.53-1.62l1.23-3.62h.54l-2.27,6.48c-.32.96-.9,1.9-1.94,1.9-.21,0-.43-.05-.59-.12Zm7.97-3.93c0-1.28,1.15-1.89,3.72-2.17.02-.89-.23-1.83-1.36-1.83-.78,0-1.45.38-1.84.68l-.24-.39c.41-.29,1.21-.75,2.14-.75,1.36,0,1.83.99,1.83,2.22v3.68h-.45l-.06-.75h-.03c-.59.47-1.29.89-2.04.89-.91,0-1.67-.5-1.67-1.58Zm3.72.19v-1.96c-2.37.27-3.17.82-3.17,1.74,0,.83.56,1.14,1.22,1.14s1.24-.32,1.95-.93Zm2.56.47v-7.86h.53v7.93c0,.26.11.38.25.38.05,0,.1,0,.22-.02l.09.43c-.11.03-.21.06-.38.06-.46,0-.7-.29-.7-.92Zm2.84,0v-7.86h.53v7.93c0,.26.11.38.25.38.05,0,.1,0,.22-.02l.09.43c-.11.03-.21.06-.38.06-.46,0-.7-.29-.7-.92Zm2.36-2.1c0-1.93,1.2-3.03,2.59-3.03s2.59,1.11,2.59,3.03-1.2,3.01-2.59,3.01-2.59-1.11-2.59-3.01Zm4.62,0c0-1.52-.87-2.57-2.03-2.57s-2.03,1.05-2.03,2.57.87,2.55,2.03,2.55,2.03-1.03,2.03-2.55Zm1.47-2.89h.57l1.04,3.73c.14.53.27,1.03.39,1.54h.05c.14-.52.28-1.01.42-1.54l1.05-3.73h.63l1.05,3.73c.14.53.28,1.03.42,1.54h.05c.14-.52.27-1.01.41-1.54l1.02-3.73h.53l-1.65,5.76h-.69l-1.01-3.58c-.16-.55-.28-1.08-.44-1.64h-.05c-.14.56-.28,1.11-.46,1.67l-.99,3.55h-.65l-1.7-5.76Zm8.32,5.11l.31-.39c.49.41,1.01.73,1.83.73.91,0,1.38-.53,1.38-1.14,0-.72-.75-1.04-1.41-1.28-.87-.31-1.79-.66-1.79-1.65,0-.83.66-1.53,1.86-1.53.62,0,1.23.26,1.65.6l-.29.38c-.39-.29-.8-.53-1.37-.53-.9,0-1.3.52-1.3,1.05,0,.66.63.91,1.32,1.17.89.34,1.88.63,1.88,1.76,0,.87-.69,1.62-1.94,1.62-.85,0-1.6-.36-2.11-.8Zm8.06-.94v-3.71h-.9v-.41l.91-.05.07-1.67h.45v1.67h1.67v.46h-1.67v3.75c0,.74.18,1.23.98,1.23.21,0,.51-.09.72-.18l.14.43c-.33.12-.7.22-.94.22-1.11,0-1.43-.7-1.43-1.73Zm2.99-1.28c0-1.93,1.2-3.03,2.59-3.03s2.59,1.11,2.59,3.03-1.2,3.01-2.59,3.01-2.59-1.11-2.59-3.01Zm4.62,0c0-1.52-.87-2.57-2.03-2.57s-2.03,1.05-2.03,2.57.87,2.55,2.03,2.55,2.03-1.03,2.03-2.55Z"/>
    <path class="cls-16" d="m29.03,72.28c0-1.93,1.23-3.03,2.63-3.03.78,0,1.3.35,1.69.71l-.31.37c-.37-.35-.8-.61-1.36-.61-1.18,0-2.09,1.05-2.09,2.57s.83,2.55,2.08,2.55c.62,0,1.15-.3,1.54-.66l.27.37c-.49.44-1.11.76-1.84.76-1.49,0-2.61-1.11-2.61-3.01Zm5.18,0c0-1.93,1.2-3.03,2.59-3.03s2.59,1.11,2.59,3.03-1.2,3.01-2.59,3.01-2.59-1.11-2.59-3.01Zm4.62,0c0-1.52-.87-2.57-2.03-2.57s-2.03,1.05-2.03,2.57.87,2.55,2.03,2.55,2.03-1.03,2.03-2.55Zm2.29-2.89h.45l.06.89h.03c.52-.59,1.18-1.04,1.82-1.04.92,0,1.39.47,1.59,1.18.65-.72,1.29-1.18,1.95-1.18,1.15,0,1.72.72,1.72,2.21v3.69h-.53v-3.62c0-1.22-.41-1.8-1.29-1.8-.54,0-1.09.36-1.72,1.08v4.34h-.53v-3.62c0-1.22-.41-1.8-1.29-1.8-.52,0-1.09.36-1.72,1.08v4.34h-.53v-5.76Zm10.25,5.18h-.03l-.06.58h-.44v-8.63h.53v2.5l-.03,1.12c.58-.49,1.28-.9,1.98-.9,1.54,0,2.31,1.16,2.31,2.94,0,1.96-1.18,3.11-2.54,3.11-.55,0-1.18-.29-1.73-.73Zm3.71-2.38c0-1.42-.5-2.47-1.83-2.47-.57,0-1.2.34-1.87.95v3.42c.63.54,1.26.74,1.7.74,1.17,0,2.01-1.07,2.01-2.64Zm2.09-4.68c0-.28.2-.47.46-.47s.46.19.46.47c0,.3-.2.49-.46.49s-.46-.19-.46-.49Zm.18,1.88h.53v5.76h-.53v-5.76Zm2.75,0h.45l.06.89h.03c.59-.59,1.19-1.04,1.98-1.04,1.19,0,1.74.72,1.74,2.21v3.69h-.53v-3.62c0-1.22-.39-1.8-1.31-1.8-.69,0-1.18.36-1.88,1.08v4.34h-.53v-5.76Zm8.41-.14c1.36,0,2.2.97,2.2,2.66,0,.14,0,.29-.03.43h-4.14c.02,1.45.87,2.49,2.17,2.49.62,0,1.12-.21,1.55-.51l.22.4c-.45.28-.97.57-1.82.57-1.47,0-2.66-1.13-2.66-3.01s1.22-3.03,2.51-3.03Zm1.71,2.66c0-1.47-.67-2.2-1.7-2.2-.97,0-1.85.83-1.97,2.2h3.67Zm4.26-4.4c0-.28.2-.47.46-.47s.46.19.46.47c0,.3-.2.49-.46.49s-.46-.19-.46-.49Zm.18,1.88h.53v5.76h-.53v-5.76Zm2.88,4.17v-3.71h-.9v-.41l.91-.05.07-1.67h.45v1.67h1.67v.46h-1.67v3.75c0,.74.18,1.23.98,1.23.21,0,.51-.09.72-.18l.14.43c-.33.12-.7.22-.94.22-1.11,0-1.43-.7-1.43-1.73Zm6.12,0v-3.71h-.9v-.41l.91-.05.07-1.67h.45v1.67h1.67v.46h-1.67v3.75c0,.74.18,1.23.98,1.23.21,0,.51-.09.72-.18l.14.43c-.33.12-.7.22-.94.22-1.11,0-1.43-.7-1.43-1.73Zm2.99-1.28c0-1.93,1.2-3.03,2.59-3.03s2.59,1.11,2.59,3.03-1.2,3.01-2.59,3.01-2.59-1.11-2.59-3.01Zm4.62,0c0-1.52-.87-2.57-2.03-2.57s-2.03,1.05-2.03,2.57.87,2.55,2.03,2.55,2.03-1.03,2.03-2.55Zm4.2,0c0-1.93,1.23-3.03,2.63-3.03.78,0,1.3.35,1.69.71l-.31.37c-.37-.35-.8-.61-1.36-.61-1.18,0-2.09,1.05-2.09,2.57s.83,2.55,2.08,2.55c.62,0,1.15-.3,1.54-.66l.27.37c-.49.44-1.11.76-1.84.76-1.49,0-2.61-1.11-2.61-3.01Zm5.87-2.89h.45l.06,1.07h.03c.39-.71.95-1.22,1.64-1.22.21,0,.38.03.57.12l-.12.48c-.19-.07-.3-.1-.52-.1-.52,0-1.13.39-1.57,1.48v3.92h-.53v-5.76Zm5.71-.14c1.36,0,2.2.97,2.2,2.66,0,.14,0,.29-.03.43h-4.14c.02,1.45.87,2.49,2.17,2.49.62,0,1.12-.21,1.55-.51l.22.4c-.45.28-.97.57-1.82.57-1.47,0-2.66-1.13-2.66-3.01s1.22-3.03,2.51-3.03Zm1.71,2.66c0-1.47-.67-2.2-1.7-2.2-.97,0-1.85.83-1.97,2.2h3.67Zm1.47,1.81c0-1.28,1.15-1.89,3.72-2.17.02-.89-.23-1.83-1.36-1.83-.78,0-1.45.38-1.84.68l-.24-.39c.41-.29,1.21-.75,2.14-.75,1.36,0,1.83.99,1.83,2.22v3.68h-.45l-.06-.75h-.03c-.59.47-1.29.89-2.04.89-.91,0-1.67-.5-1.67-1.58Zm3.72.19v-1.96c-2.37.27-3.17.82-3.17,1.74,0,.83.56,1.14,1.22,1.14s1.24-.32,1.95-.93Zm2.59-.35v-3.71h-.9v-.41l.91-.05.07-1.67h.45v1.67h1.67v.46h-1.67v3.75c0,.74.18,1.23.98,1.23.21,0,.51-.09.72-.18l.14.43c-.33.12-.7.22-.94.22-1.11,0-1.43-.7-1.43-1.73Zm5.5-4.31c1.36,0,2.2.97,2.2,2.66,0,.14,0,.29-.03.43h-4.14c.02,1.45.87,2.49,2.17,2.49.62,0,1.12-.21,1.55-.51l.22.4c-.45.28-.97.57-1.82.57-1.47,0-2.66-1.13-2.66-3.01s1.22-3.03,2.51-3.03Zm1.71,2.66c0-1.47-.67-2.2-1.7-2.2-.97,0-1.85.83-1.97,2.2h3.67Zm4.03,1.81c0-1.28,1.15-1.89,3.72-2.17.02-.89-.23-1.83-1.36-1.83-.78,0-1.45.38-1.84.68l-.24-.39c.41-.29,1.21-.75,2.14-.75,1.36,0,1.83.99,1.83,2.22v3.68h-.45l-.06-.75h-.03c-.59.47-1.29.89-2.04.89-.91,0-1.67-.5-1.67-1.58Zm3.72.19v-1.96c-2.37.27-3.17.82-3.17,1.74,0,.83.56,1.14,1.22,1.14s1.24-.32,1.95-.93Zm4.21.31l.31-.37c.46.5,1.07.98,2.12.98s1.79-.67,1.79-1.69-.76-1.78-2.67-1.78v-.47c1.77,0,2.39-.75,2.39-1.66,0-.87-.61-1.43-1.55-1.43-.7,0-1.32.37-1.75.84l-.32-.36c.53-.52,1.19-.94,2.08-.94,1.18,0,2.09.68,2.09,1.86,0,1-.62,1.61-1.46,1.89v.05c.95.2,1.74.91,1.74,2,0,1.33-1.02,2.17-2.35,2.17-1.22,0-1.94-.56-2.43-1.08Zm6.03-2.54c0-3.21,1.34-4.34,2.82-4.34.71,0,1.22.3,1.62.74l-.32.36c-.34-.41-.81-.64-1.3-.64-1.21,0-2.26.97-2.28,3.78.53-.65,1.22-1.06,1.94-1.06,1.34,0,2.13.83,2.13,2.37,0,1.39-.96,2.4-2.1,2.4-1.53,0-2.5-1.29-2.5-3.62Zm2.52,3.16c.89,0,1.55-.85,1.55-1.94s-.49-1.93-1.66-1.93c-.54,0-1.24.32-1.86,1.16.1,1.62.72,2.7,1.97,2.7Zm3.18-3.55c0-2.55.83-3.95,2.29-3.95s2.29,1.41,2.29,3.95-.83,4-2.29,4-2.29-1.45-2.29-4Zm4.04,0c0-2.34-.69-3.49-1.75-3.49s-1.75,1.15-1.75,3.49.69,3.54,1.75,3.54,1.75-1.2,1.75-3.54Zm3.91,3.21l.31-.39c.49.41,1.01.73,1.83.73.91,0,1.38-.53,1.38-1.14,0-.72-.75-1.04-1.41-1.28-.87-.31-1.79-.66-1.79-1.65,0-.83.66-1.53,1.86-1.53.62,0,1.23.26,1.65.6l-.29.38c-.39-.29-.8-.53-1.37-.53-.9,0-1.3.52-1.3,1.05,0,.66.63.91,1.32,1.17.89.34,1.88.63,1.88,1.76,0,.87-.69,1.62-1.94,1.62-.85,0-1.6-.36-2.11-.8Zm5.09-2.22c0-1.93,1.2-3.03,2.59-3.03s2.59,1.11,2.59,3.03-1.2,3.01-2.59,3.01-2.59-1.11-2.59-3.01Zm4.62,0c0-1.52-.87-2.57-2.03-2.57s-2.03,1.05-2.03,2.57.87,2.55,2.03,2.55,2.03-1.03,2.03-2.55Zm2.29,2.1v-7.86h.53v7.93c0,.26.11.38.25.38.05,0,.1,0,.22-.02l.09.43c-.11.03-.21.06-.38.06-.46,0-.7-.29-.7-.92Zm2.75-1.29v-3.69h.53v3.62c0,1.22.39,1.8,1.31,1.8.69,0,1.18-.36,1.86-1.18v-4.25h.53v5.76h-.45l-.06-.96h-.03c-.57.66-1.16,1.11-1.95,1.11-1.19,0-1.74-.72-1.74-2.21Zm6.57.47v-3.71h-.9v-.41l.91-.05.07-1.67h.45v1.67h1.67v.46h-1.67v3.75c0,.74.18,1.23.98,1.23.21,0,.51-.09.72-.18l.14.43c-.33.12-.7.22-.94.22-1.11,0-1.43-.7-1.43-1.73Zm3.43-6.05c0-.28.2-.47.46-.47s.46.19.46.47c0,.3-.2.49-.46.49s-.46-.19-.46-.49Zm.18,1.88h.53v5.76h-.53v-5.76Zm2.26,2.89c0-1.93,1.2-3.03,2.59-3.03s2.59,1.11,2.59,3.03-1.2,3.01-2.59,3.01-2.59-1.11-2.59-3.01Zm4.62,0c0-1.52-.87-2.57-2.03-2.57s-2.03,1.05-2.03,2.57.87,2.55,2.03,2.55,2.03-1.03,2.03-2.55Zm2.29-2.89h.45l.06.89h.03c.59-.59,1.19-1.04,1.98-1.04,1.19,0,1.74.72,1.74,2.21v3.69h-.53v-3.62c0-1.22-.39-1.8-1.31-1.8-.69,0-1.18.36-1.88,1.08v4.34h-.53v-5.76Zm7.94,0h.57l1.04,3.73c.14.53.27,1.03.39,1.54h.05c.14-.52.28-1.01.42-1.54l1.05-3.73h.63l1.05,3.73c.14.53.28,1.03.42,1.54h.05c.14-.52.27-1.01.41-1.54l1.02-3.73h.53l-1.65,5.76h-.69l-1.01-3.58c-.16-.55-.28-1.08-.44-1.64h-.05c-.14.56-.28,1.11-.46,1.67l-.99,3.55h-.65l-1.7-5.76Zm8.86-1.88c0-.28.2-.47.46-.47s.46.19.46.47c0,.3-.2.49-.46.49s-.46-.19-.46-.49Zm.18,1.88h.53v5.76h-.53v-5.76Zm2.88,4.17v-3.71h-.9v-.41l.91-.05.07-1.67h.45v1.67h1.67v.46h-1.67v3.75c0,.74.18,1.23.98,1.23.21,0,.51-.09.72-.18l.14.43c-.33.12-.7.22-.94.22-1.11,0-1.43-.7-1.43-1.73Zm3.59-7.04h.53v3.77c.59-.6,1.19-1.05,1.98-1.05,1.19,0,1.74.72,1.74,2.21v3.69h-.53v-3.62c0-1.22-.39-1.8-1.31-1.8-.69,0-1.18.36-1.88,1.08v4.34h-.53v-8.63Z"/>
    <path class="cls-16" d="m29.65,89.16v-3.71h-.9v-.41l.91-.05.07-1.67h.45v1.67h1.67v.46h-1.67v3.75c0,.74.18,1.23.98,1.23.21,0,.51-.09.72-.18l.14.43c-.33.12-.7.22-.94.22-1.11,0-1.43-.7-1.43-1.73Zm2.79-4.17h.57l1.04,3.73c.14.53.27,1.03.39,1.54h.05c.14-.52.28-1.01.42-1.54l1.05-3.73h.63l1.05,3.73c.14.53.28,1.03.42,1.54h.05c.14-.52.27-1.01.41-1.54l1.02-3.73h.53l-1.65,5.76h-.69l-1.01-3.58c-.16-.55-.28-1.08-.44-1.64h-.05c-.14.56-.28,1.11-.46,1.67l-.99,3.55h-.65l-1.7-5.76Zm8.54,2.89c0-1.93,1.2-3.03,2.59-3.03s2.59,1.11,2.59,3.03-1.2,3.01-2.59,3.01-2.59-1.11-2.59-3.01Zm4.62,0c0-1.52-.87-2.57-2.03-2.57s-2.03,1.05-2.03,2.57.87,2.55,2.03,2.55,2.03-1.03,2.03-2.55Zm3.97,2.22l.31-.39c.49.41,1.01.73,1.83.73.91,0,1.38-.53,1.38-1.14,0-.72-.75-1.04-1.41-1.28-.87-.31-1.79-.66-1.79-1.65,0-.83.66-1.53,1.86-1.53.62,0,1.23.26,1.65.6l-.29.38c-.39-.29-.8-.53-1.37-.53-.9,0-1.3.52-1.3,1.05,0,.66.63.91,1.32,1.17.89.34,1.88.63,1.88,1.76,0,.87-.69,1.62-1.94,1.62-.85,0-1.6-.36-2.11-.8Zm5.47-.94v-3.71h-.9v-.41l.91-.05.07-1.67h.45v1.67h1.67v.46h-1.67v3.75c0,.74.18,1.23.98,1.23.21,0,.51-.09.72-.18l.14.43c-.33.12-.7.22-.94.22-1.11,0-1.43-.7-1.43-1.73Zm3.61-4.17h.45l.06,1.07h.03c.39-.71.95-1.22,1.64-1.22.21,0,.38.03.57.12l-.12.48c-.19-.07-.3-.1-.52-.1-.52,0-1.13.39-1.57,1.48v3.92h-.53v-5.76Zm3.71,3.69v-3.69h.53v3.62c0,1.22.39,1.8,1.31,1.8.69,0,1.18-.36,1.86-1.18v-4.25h.53v5.76h-.45l-.06-.96h-.03c-.57.66-1.16,1.11-1.95,1.11-1.19,0-1.74-.72-1.74-2.21Zm5.94-.8c0-1.93,1.23-3.03,2.63-3.03.78,0,1.3.35,1.69.71l-.31.37c-.37-.35-.8-.61-1.36-.61-1.18,0-2.09,1.05-2.09,2.57s.83,2.55,2.08,2.55c.62,0,1.15-.3,1.54-.66l.27.37c-.49.44-1.11.76-1.84.76-1.49,0-2.61-1.11-2.61-3.01Zm5.89,1.28v-3.71h-.9v-.41l.91-.05.07-1.67h.45v1.67h1.67v.46h-1.67v3.75c0,.74.18,1.23.98,1.23.21,0,.51-.09.72-.18l.14.43c-.33.12-.7.22-.94.22-1.11,0-1.43-.7-1.43-1.73Zm3.52-.47v-3.69h.53v3.62c0,1.22.39,1.8,1.31,1.8.69,0,1.18-.36,1.86-1.18v-4.25h.53v5.76h-.45l-.06-.96h-.03c-.57.66-1.16,1.11-1.95,1.11-1.19,0-1.74-.72-1.74-2.21Zm6.44-3.69h.45l.06,1.07h.03c.39-.71.95-1.22,1.64-1.22.21,0,.38.03.57.12l-.12.48c-.19-.07-.3-.1-.52-.1-.52,0-1.13.39-1.57,1.48v3.92h-.53v-5.76Zm5.71-.14c1.36,0,2.2.97,2.2,2.66,0,.14,0,.29-.03.43h-4.14c.02,1.45.87,2.49,2.17,2.49.62,0,1.12-.21,1.55-.51l.22.4c-.45.28-.97.57-1.82.57-1.47,0-2.66-1.13-2.66-3.01s1.22-3.03,2.51-3.03Zm1.71,2.66c0-1.47-.67-2.2-1.7-2.2-.97,0-1.85.83-1.97,2.2h3.67Zm1.35,2.59l.31-.39c.49.41,1.01.73,1.83.73.91,0,1.38-.53,1.38-1.14,0-.72-.75-1.04-1.41-1.28-.87-.31-1.79-.66-1.79-1.65,0-.83.66-1.53,1.86-1.53.62,0,1.23.26,1.65.6l-.29.38c-.39-.29-.8-.53-1.37-.53-.9,0-1.3.52-1.3,1.05,0,.66.63.91,1.32,1.17.89.34,1.88.63,1.88,1.76,0,.87-.69,1.62-1.94,1.62-.85,0-1.6-.36-2.11-.8Zm7.52-.78c0-1.28,1.15-1.89,3.72-2.17.02-.89-.23-1.83-1.36-1.83-.78,0-1.45.38-1.84.68l-.24-.39c.41-.29,1.21-.75,2.14-.75,1.36,0,1.83.99,1.83,2.22v3.68h-.45l-.06-.75h-.03c-.59.47-1.29.89-2.04.89-.91,0-1.67-.5-1.67-1.58Zm3.72.19v-1.96c-2.37.27-3.17.82-3.17,1.74,0,.83.56,1.14,1.22,1.14s1.24-.32,1.95-.93Zm2.59-4.52h.45l.06.89h.03c.59-.59,1.19-1.04,1.98-1.04,1.19,0,1.74.72,1.74,2.21v3.69h-.53v-3.62c0-1.22-.39-1.8-1.31-1.8-.69,0-1.18.36-1.88,1.08v4.34h-.53v-5.76Zm5.9,2.89c0-1.86,1.18-3.03,2.55-3.03.69,0,1.16.26,1.74.71l-.03-1.06v-2.37h.53v8.63h-.45l-.06-.75h-.03c-.47.47-1.11.89-1.88.89-1.44,0-2.38-1.07-2.38-3.01Zm4.26,1.59v-3.42c-.61-.54-1.11-.74-1.68-.74-1.14,0-2.03,1.12-2.03,2.56,0,1.53.68,2.55,1.9,2.55.64,0,1.2-.33,1.8-.95Zm4.71-.16c0-1.28,1.15-1.89,3.72-2.17.02-.89-.23-1.83-1.36-1.83-.78,0-1.45.38-1.84.68l-.24-.39c.41-.29,1.21-.75,2.14-.75,1.36,0,1.83.99,1.83,2.22v3.68h-.45l-.06-.75h-.03c-.59.47-1.29.89-2.04.89-.91,0-1.67-.5-1.67-1.58Zm3.72.19v-1.96c-2.37.27-3.17.82-3.17,1.74,0,.83.56,1.14,1.22,1.14s1.24-.32,1.95-.93Zm3.47,3.85l.12-.43c.15.05.37.12.6.12.65,0,.77-.52.77-1.25v-6.79h.53v6.83c0,1.13-.4,1.68-1.29,1.68-.27,0-.56-.07-.74-.15Zm1.3-10.25c0-.28.2-.47.46-.47s.46.19.46.47c0,.3-.2.49-.46.49s-.46-.19-.46-.49Zm2.54,6.21c0-1.28,1.15-1.89,3.72-2.17.02-.89-.23-1.83-1.36-1.83-.78,0-1.45.38-1.84.68l-.24-.39c.41-.29,1.21-.75,2.14-.75,1.36,0,1.83.99,1.83,2.22v3.68h-.45l-.06-.75h-.03c-.59.47-1.29.89-2.04.89-.91,0-1.67-.5-1.67-1.58Zm3.72.19v-1.96c-2.37.27-3.17.82-3.17,1.74,0,.83.56,1.14,1.22,1.14s1.24-.32,1.95-.93Zm2.1,2.42c0-.5.33-1.01.86-1.39v-.05c-.29-.17-.51-.48-.51-.92,0-.52.37-.88.63-1.06v-.05c-.37-.31-.73-.88-.73-1.58,0-1.18.9-2.03,2.03-2.03.31,0,.59.07.77.14h1.95v.45h-1.34c.37.32.64.84.64,1.44,0,1.18-.89,2.03-2.01,2.03-.32,0-.69-.09-.95-.25-.25.21-.47.45-.47.83,0,.41.24.75,1.1.75h1.23c1.29,0,1.9.41,1.9,1.32,0,.99-1.06,1.95-2.72,1.95-1.45,0-2.37-.62-2.37-1.6Zm4.55-.29c0-.64-.46-.88-1.33-.88h-1.23c-.11,0-.41-.02-.71-.09-.53.36-.76.8-.76,1.21,0,.73.7,1.22,1.91,1.22,1.3,0,2.13-.73,2.13-1.46Zm-.78-4.76c0-.97-.67-1.59-1.49-1.59s-1.49.61-1.49,1.59.7,1.62,1.49,1.62,1.49-.65,1.49-1.62Zm2.08,5.05c0-.5.33-1.01.86-1.39v-.05c-.29-.17-.51-.48-.51-.92,0-.52.37-.88.63-1.06v-.05c-.37-.31-.73-.88-.73-1.58,0-1.18.9-2.03,2.03-2.03.31,0,.59.07.77.14h1.95v.45h-1.34c.37.32.64.84.64,1.44,0,1.18-.89,2.03-2.01,2.03-.32,0-.69-.09-.95-.25-.25.21-.47.45-.47.83,0,.41.24.75,1.1.75h1.23c1.29,0,1.9.41,1.9,1.32,0,.99-1.06,1.95-2.72,1.95-1.45,0-2.37-.62-2.37-1.6Zm4.55-.29c0-.64-.46-.88-1.33-.88h-1.23c-.11,0-.41-.02-.71-.09-.53.36-.76.8-.76,1.21,0,.73.7,1.22,1.91,1.22,1.3,0,2.13-.73,2.13-1.46Zm-.78-4.76c0-.97-.67-1.59-1.49-1.59s-1.49.61-1.49,1.59.7,1.62,1.49,1.62,1.49-.65,1.49-1.62Zm4.46-2.03c1.36,0,2.2.97,2.2,2.66,0,.14,0,.29-.03.43h-4.14c.02,1.45.87,2.49,2.17,2.49.62,0,1.12-.21,1.55-.51l.22.4c-.45.28-.97.57-1.82.57-1.47,0-2.66-1.13-2.66-3.01s1.22-3.03,2.51-3.03Zm1.71,2.66c0-1.47-.67-2.2-1.7-2.2-.97,0-1.85.83-1.97,2.2h3.67Zm1.58.37c0-1.86,1.18-3.03,2.55-3.03.69,0,1.16.26,1.74.71l-.03-1.06v-2.37h.53v8.63h-.45l-.06-.75h-.03c-.47.47-1.11.89-1.88.89-1.44,0-2.38-1.07-2.38-3.01Zm4.26,1.59v-3.42c-.61-.54-1.11-.74-1.68-.74-1.14,0-2.03,1.12-2.03,2.56,0,1.53.68,2.55,1.9,2.55.64,0,1.2-.33,1.8-.95Zm4.41-4.43l.79-.05v-1.28c0-1.14.51-1.73,1.42-1.73.27,0,.58.08.84.19l-.14.43c-.24-.12-.47-.16-.69-.16-.62,0-.9.47-.9,1.3v1.24h1.33v.46h-1.33v5.3h-.53v-5.3h-.79v-.41Zm3.26,2.84c0-1.93,1.2-3.03,2.59-3.03s2.59,1.11,2.59,3.03-1.2,3.01-2.59,3.01-2.59-1.11-2.59-3.01Zm4.62,0c0-1.52-.87-2.57-2.03-2.57s-2.03,1.05-2.03,2.57.87,2.55,2.03,2.55,2.03-1.03,2.03-2.55Zm2.29-2.89h.45l.06,1.07h.03c.39-.71.95-1.22,1.64-1.22.21,0,.38.03.57.12l-.12.48c-.19-.07-.3-.1-.52-.1-.52,0-1.13.39-1.57,1.48v3.92h-.53v-5.76Zm3.8,0h.45l.06.89h.03c.52-.59,1.18-1.04,1.82-1.04.92,0,1.39.47,1.59,1.18.65-.72,1.29-1.18,1.95-1.18,1.15,0,1.72.72,1.72,2.21v3.69h-.53v-3.62c0-1.22-.41-1.8-1.29-1.8-.54,0-1.09.36-1.72,1.08v4.34h-.53v-3.62c0-1.22-.41-1.8-1.29-1.8-.52,0-1.09.36-1.72,1.08v4.34h-.53v-5.76Zm9.33,4.33c0-1.28,1.15-1.89,3.72-2.17.02-.89-.23-1.83-1.36-1.83-.78,0-1.45.38-1.84.68l-.24-.39c.41-.29,1.21-.75,2.14-.75,1.36,0,1.83.99,1.83,2.22v3.68h-.45l-.06-.75h-.03c-.59.47-1.29.89-2.04.89-.91,0-1.67-.5-1.67-1.58Zm3.72.19v-1.96c-2.37.27-3.17.82-3.17,1.74,0,.83.56,1.14,1.22,1.14s1.24-.32,1.95-.93Zm2.59-.35v-3.71h-.9v-.41l.91-.05.07-1.67h.45v1.67h1.67v.46h-1.67v3.75c0,.74.18,1.23.98,1.23.21,0,.51-.09.72-.18l.14.43c-.33.12-.7.22-.94.22-1.11,0-1.43-.7-1.43-1.73Zm3.43-6.05c0-.28.2-.47.46-.47s.46.19.46.47c0,.3-.2.49-.46.49s-.46-.19-.46-.49Zm.18,1.88h.53v5.76h-.53v-5.76Zm2.26,2.89c0-1.93,1.2-3.03,2.59-3.03s2.59,1.11,2.59,3.03-1.2,3.01-2.59,3.01-2.59-1.11-2.59-3.01Zm4.62,0c0-1.52-.87-2.57-2.03-2.57s-2.03,1.05-2.03,2.57.87,2.55,2.03,2.55,2.03-1.03,2.03-2.55Zm2.29-2.89h.45l.06.89h.03c.59-.59,1.19-1.04,1.98-1.04,1.19,0,1.74.72,1.74,2.21v3.69h-.53v-3.62c0-1.22-.39-1.8-1.31-1.8-.69,0-1.18.36-1.88,1.08v4.34h-.53v-5.76Z"/>
    <path class="cls-16" d="m28.7,100.59h.57l1.04,3.73c.14.53.27,1.03.39,1.54h.05c.14-.52.28-1.01.42-1.54l1.05-3.73h.63l1.05,3.73c.14.53.28,1.03.42,1.54h.05c.14-.52.27-1.01.41-1.54l1.02-3.73h.53l-1.65,5.76h-.69l-1.01-3.58c-.16-.55-.28-1.08-.44-1.64h-.05c-.14.56-.28,1.11-.46,1.67l-.99,3.55h-.65l-1.7-5.76Zm8.86-1.88c0-.28.2-.47.46-.47s.46.19.46.47c0,.3-.2.49-.46.49s-.46-.19-.46-.49Zm.18,1.88h.53v5.76h-.53v-5.76Zm2.88,4.17v-3.71h-.9v-.41l.91-.05.07-1.67h.45v1.67h1.67v.46h-1.67v3.75c0,.74.18,1.23.98,1.23.21,0,.51-.09.72-.18l.14.43c-.33.12-.7.22-.94.22-1.11,0-1.43-.7-1.43-1.73Zm3.59-7.04h.53v3.77c.59-.6,1.19-1.05,1.98-1.05,1.19,0,1.74.72,1.74,2.21v3.69h-.53v-3.62c0-1.22-.39-1.8-1.31-1.8-.69,0-1.18.36-1.88,1.08v4.34h-.53v-8.63Zm8.71,0h.53v3.77c.59-.6,1.19-1.05,1.98-1.05,1.19,0,1.74.72,1.74,2.21v3.69h-.53v-3.62c0-1.22-.39-1.8-1.31-1.8-.69,0-1.18.36-1.88,1.08v4.34h-.53v-8.63Zm5.85,5.76c0-1.93,1.2-3.03,2.59-3.03s2.59,1.11,2.59,3.03-1.2,3.01-2.59,3.01-2.59-1.11-2.59-3.01Zm4.62,0c0-1.52-.87-2.57-2.03-2.57s-2.03,1.05-2.03,2.57.87,2.55,2.03,2.55,2.03-1.03,2.03-2.55Zm1.47-2.89h.57l1.04,3.73c.14.53.27,1.03.39,1.54h.05c.14-.52.28-1.01.42-1.54l1.05-3.73h.63l1.05,3.73c.14.53.28,1.03.42,1.54h.05c.14-.52.27-1.01.41-1.54l1.02-3.73h.53l-1.65,5.76h-.69l-1.01-3.58c-.16-.55-.28-1.08-.44-1.64h-.05c-.14.56-.28,1.11-.46,1.67l-.99,3.55h-.65l-1.7-5.76Zm11.37,0h.45l.06.89h.03c.52-.59,1.18-1.04,1.82-1.04.92,0,1.39.47,1.59,1.18.65-.72,1.29-1.18,1.95-1.18,1.15,0,1.72.72,1.72,2.21v3.69h-.53v-3.62c0-1.22-.41-1.8-1.29-1.8-.54,0-1.09.36-1.72,1.08v4.34h-.53v-3.62c0-1.22-.41-1.8-1.29-1.8-.52,0-1.09.36-1.72,1.08v4.34h-.53v-5.76Zm9.33,4.33c0-1.28,1.15-1.89,3.72-2.17.02-.89-.23-1.83-1.36-1.83-.78,0-1.45.38-1.84.68l-.24-.39c.41-.29,1.21-.75,2.14-.75,1.36,0,1.83.99,1.83,2.22v3.68h-.45l-.06-.75h-.03c-.59.47-1.29.89-2.04.89-.91,0-1.67-.5-1.67-1.58Zm3.72.19v-1.96c-2.37.27-3.17.82-3.17,1.74,0,.83.56,1.14,1.22,1.14s1.24-.32,1.95-.93Zm2.59-4.52h.45l.06.89h.03c.59-.59,1.19-1.04,1.98-1.04,1.19,0,1.74.72,1.74,2.21v3.69h-.53v-3.62c0-1.22-.39-1.8-1.31-1.8-.69,0-1.18.36-1.88,1.08v4.34h-.53v-5.76Zm5.56,8.26l.12-.46c.12.05.31.09.47.09.7,0,1.18-.65,1.48-1.53l.16-.5-2.37-5.87h.57l1.39,3.62c.19.49.42,1.1.63,1.62h.05c.18-.51.37-1.13.53-1.62l1.23-3.62h.54l-2.27,6.48c-.32.96-.9,1.9-1.94,1.9-.21,0-.43-.05-.59-.12Zm8.38-8.26h.45l.06.89h.03c.52-.59,1.18-1.04,1.82-1.04.92,0,1.39.47,1.59,1.18.65-.72,1.29-1.18,1.95-1.18,1.15,0,1.72.72,1.72,2.21v3.69h-.53v-3.62c0-1.22-.41-1.8-1.29-1.8-.54,0-1.09.36-1.72,1.08v4.34h-.53v-3.62c0-1.22-.41-1.8-1.29-1.8-.52,0-1.09.36-1.72,1.08v4.34h-.53v-5.76Zm9.26,2.89c0-1.93,1.2-3.03,2.59-3.03s2.59,1.11,2.59,3.03-1.2,3.01-2.59,3.01-2.59-1.11-2.59-3.01Zm4.62,0c0-1.52-.87-2.57-2.03-2.57s-2.03,1.05-2.03,2.57.87,2.55,2.03,2.55,2.03-1.03,2.03-2.55Zm1.8,0c0-1.86,1.18-3.03,2.55-3.03.69,0,1.16.26,1.74.71l-.03-1.06v-2.37h.53v8.63h-.45l-.06-.75h-.03c-.47.47-1.11.89-1.88.89-1.44,0-2.38-1.07-2.38-3.01Zm4.26,1.59v-3.42c-.61-.54-1.11-.74-1.68-.74-1.14,0-2.03,1.12-2.03,2.56,0,1.53.68,2.55,1.9,2.55.64,0,1.2-.33,1.8-.95Zm2.65-.79v-3.69h.53v3.62c0,1.22.39,1.8,1.31,1.8.69,0,1.18-.36,1.86-1.18v-4.25h.53v5.76h-.45l-.06-.96h-.03c-.57.66-1.16,1.11-1.95,1.11-1.19,0-1.74-.72-1.74-2.21Zm6.44,1.29v-7.86h.53v7.93c0,.26.11.38.25.38.05,0,.1,0,.22-.02l.09.43c-.11.03-.21.06-.38.06-.46,0-.7-.29-.7-.92Zm4.87-5.13c1.36,0,2.2.97,2.2,2.66,0,.14,0,.29-.03.43h-4.14c.02,1.45.87,2.49,2.17,2.49.62,0,1.12-.21,1.55-.51l.22.4c-.45.28-.97.57-1.82.57-1.47,0-2.66-1.13-2.66-3.01s1.22-3.03,2.51-3.03Zm1.71,2.66c0-1.47-.67-2.2-1.7-2.2-.97,0-1.85.83-1.97,2.2h3.67Zm1.35,2.59l.31-.39c.49.41,1.01.73,1.83.73.91,0,1.38-.53,1.38-1.14,0-.72-.75-1.04-1.41-1.28-.87-.31-1.79-.66-1.79-1.65,0-.83.66-1.53,1.86-1.53.62,0,1.23.26,1.65.6l-.29.38c-.39-.29-.8-.53-1.37-.53-.9,0-1.3.52-1.3,1.05,0,.66.63.91,1.32,1.17.89.34,1.88.63,1.88,1.76,0,.87-.69,1.62-1.94,1.62-.85,0-1.6-.36-2.11-.8Zm7.52-.78c0-1.28,1.15-1.89,3.72-2.17.02-.89-.23-1.83-1.36-1.83-.78,0-1.45.38-1.84.68l-.24-.39c.41-.29,1.21-.75,2.14-.75,1.36,0,1.83.99,1.83,2.22v3.68h-.45l-.06-.75h-.03c-.59.47-1.29.89-2.04.89-.91,0-1.67-.5-1.67-1.58Zm3.72.19v-1.96c-2.37.27-3.17.82-3.17,1.74,0,.83.56,1.14,1.22,1.14s1.24-.32,1.95-.93Zm2.59-4.52h.45l.06,1.07h.03c.39-.71.95-1.22,1.64-1.22.21,0,.38.03.57.12l-.12.48c-.19-.07-.3-.1-.52-.1-.52,0-1.13.39-1.57,1.48v3.92h-.53v-5.76Zm5.71-.14c1.36,0,2.2.97,2.2,2.66,0,.14,0,.29-.03.43h-4.14c.02,1.45.87,2.49,2.17,2.49.62,0,1.12-.21,1.55-.51l.22.4c-.45.28-.97.57-1.82.57-1.47,0-2.66-1.13-2.66-3.01s1.22-3.03,2.51-3.03Zm1.71,2.66c0-1.47-.67-2.2-1.7-2.2-.97,0-1.85.83-1.97,2.2h3.67Zm4.44-2.52h.45l.06.89h.03c.59-.59,1.19-1.04,1.98-1.04,1.19,0,1.74.72,1.74,2.21v3.69h-.53v-3.62c0-1.22-.39-1.8-1.31-1.8-.69,0-1.18.36-1.88,1.08v4.34h-.53v-5.76Zm8.41-.14c1.36,0,2.2.97,2.2,2.66,0,.14,0,.29-.03.43h-4.14c.02,1.45.87,2.49,2.17,2.49.62,0,1.12-.21,1.55-.51l.22.4c-.45.28-.97.57-1.82.57-1.47,0-2.66-1.13-2.66-3.01s1.22-3.03,2.51-3.03Zm1.71,2.66c0-1.47-.67-2.2-1.7-2.2-.97,0-1.85.83-1.97,2.2h3.67Zm4.09-2.66c1.36,0,2.2.97,2.2,2.66,0,.14,0,.29-.03.43h-4.14c.02,1.45.87,2.49,2.17,2.49.62,0,1.12-.21,1.55-.51l.22.4c-.45.28-.97.57-1.82.57-1.47,0-2.66-1.13-2.66-3.01s1.22-3.03,2.51-3.03Zm1.71,2.66c0-1.47-.67-2.2-1.7-2.2-.97,0-1.85.83-1.97,2.2h3.67Zm1.58.37c0-1.86,1.18-3.03,2.55-3.03.69,0,1.16.26,1.74.71l-.03-1.06v-2.37h.53v8.63h-.45l-.06-.75h-.03c-.47.47-1.11.89-1.88.89-1.44,0-2.38-1.07-2.38-3.01Zm4.26,1.59v-3.42c-.61-.54-1.11-.74-1.68-.74-1.14,0-2.03,1.12-2.03,2.56,0,1.53.68,2.55,1.9,2.55.64,0,1.2-.33,1.8-.95Zm4.77-4.63c1.36,0,2.2.97,2.2,2.66,0,.14,0,.29-.03.43h-4.14c.02,1.45.87,2.49,2.17,2.49.62,0,1.12-.21,1.55-.51l.22.4c-.45.28-.97.57-1.82.57-1.47,0-2.66-1.13-2.66-3.01s1.22-3.03,2.51-3.03Zm1.71,2.66c0-1.47-.67-2.2-1.7-2.2-.97,0-1.85.83-1.97,2.2h3.67Zm1.58.37c0-1.86,1.18-3.03,2.55-3.03.69,0,1.16.26,1.74.71l-.03-1.06v-2.37h.53v8.63h-.45l-.06-.75h-.03c-.47.47-1.11.89-1.88.89-1.44,0-2.38-1.07-2.38-3.01Zm4.26,1.59v-3.42c-.61-.54-1.11-.74-1.68-.74-1.14,0-2.03,1.12-2.03,2.56,0,1.53.68,2.55,1.9,2.55.64,0,1.2-.33,1.8-.95Zm2.45.89c0-.35.24-.56.51-.56s.51.21.51.56c0,.33-.24.53-.51.53s-.51-.21-.51-.53Z"/>
    <path class="cls-16" d="m31.29,114.04h.55l2.78,7.9h-.59l-.92-2.71h-3.13l-.93,2.71h-.56l2.78-7.9Zm1.67,4.73l-.5-1.48c-.32-.94-.6-1.77-.88-2.73h-.05c-.28.96-.55,1.79-.88,2.73l-.51,1.48h2.81Zm2.85,2.4v-7.86h.53v7.93c0,.26.11.38.25.38.05,0,.1,0,.22-.02l.09.43c-.11.03-.21.06-.38.06-.46,0-.7-.29-.7-.92Zm2.84,0v-7.86h.53v7.93c0,.26.11.38.25.38.05,0,.1,0,.22-.02l.09.43c-.11.03-.21.06-.38.06-.46,0-.7-.29-.7-.92Zm5.38-.82v-3.71h-.9v-.41l.91-.05.07-1.67h.45v1.67h1.67v.46h-1.67v3.75c0,.74.18,1.23.98,1.23.21,0,.51-.09.72-.18l.14.43c-.33.12-.7.22-.94.22-1.11,0-1.43-.7-1.43-1.73Zm3.59-7.04h.53v3.77c.59-.6,1.19-1.05,1.98-1.05,1.19,0,1.74.72,1.74,2.21v3.69h-.53v-3.62c0-1.22-.39-1.8-1.31-1.8-.69,0-1.18.36-1.88,1.08v4.34h-.53v-8.63Zm8.36,2.72c1.36,0,2.2.97,2.2,2.66,0,.14,0,.29-.03.43h-4.14c.02,1.45.87,2.49,2.17,2.49.62,0,1.12-.21,1.55-.51l.22.4c-.45.28-.97.57-1.82.57-1.47,0-2.66-1.13-2.66-3.01s1.22-3.03,2.51-3.03Zm1.71,2.66c0-1.47-.67-2.2-1.7-2.2-.97,0-1.85.83-1.97,2.2h3.67Zm3.72,2.59l.31-.39c.49.41,1.01.73,1.83.73.91,0,1.38-.53,1.38-1.14,0-.72-.75-1.04-1.41-1.28-.87-.31-1.79-.66-1.79-1.65,0-.83.66-1.53,1.86-1.53.62,0,1.23.26,1.65.6l-.29.38c-.39-.29-.8-.53-1.37-.53-.9,0-1.3.52-1.3,1.05,0,.66.63.91,1.32,1.17.89.34,1.88.63,1.88,1.76,0,.87-.69,1.62-1.94,1.62-.85,0-1.6-.36-2.11-.8Zm5.09-2.22c0-1.93,1.2-3.03,2.59-3.03s2.59,1.11,2.59,3.03-1.2,3.01-2.59,3.01-2.59-1.11-2.59-3.01Zm4.62,0c0-1.52-.87-2.57-2.03-2.57s-2.03,1.05-2.03,2.57.87,2.55,2.03,2.55,2.03-1.03,2.03-2.55Zm2.29,2.1v-7.86h.53v7.93c0,.26.11.38.25.38.05,0,.1,0,.22-.02l.09.43c-.11.03-.21.06-.38.06-.46,0-.7-.29-.7-.92Zm2.75-1.29v-3.69h.53v3.62c0,1.22.39,1.8,1.31,1.8.69,0,1.18-.36,1.86-1.18v-4.25h.53v5.76h-.45l-.06-.96h-.03c-.57.66-1.16,1.11-1.95,1.11-1.19,0-1.74-.72-1.74-2.21Zm6.57.47v-3.71h-.9v-.41l.91-.05.07-1.67h.45v1.67h1.67v.46h-1.67v3.75c0,.74.18,1.23.98,1.23.21,0,.51-.09.72-.18l.14.43c-.33.12-.7.22-.94.22-1.11,0-1.43-.7-1.43-1.73Zm3.43-6.05c0-.28.2-.47.46-.47s.46.19.46.47c0,.3-.2.49-.46.49s-.46-.19-.46-.49Zm.18,1.88h.53v5.76h-.53v-5.76Zm2.26,2.89c0-1.93,1.2-3.03,2.59-3.03s2.59,1.11,2.59,3.03-1.2,3.01-2.59,3.01-2.59-1.11-2.59-3.01Zm4.62,0c0-1.52-.87-2.57-2.03-2.57s-2.03,1.05-2.03,2.57.87,2.55,2.03,2.55,2.03-1.03,2.03-2.55Zm2.29-2.89h.45l.06.89h.03c.59-.59,1.19-1.04,1.98-1.04,1.19,0,1.74.72,1.74,2.21v3.69h-.53v-3.62c0-1.22-.39-1.8-1.31-1.8-.69,0-1.18.36-1.88,1.08v4.34h-.53v-5.76Zm5.67,5.11l.31-.39c.49.41,1.01.73,1.83.73.91,0,1.38-.53,1.38-1.14,0-.72-.75-1.04-1.41-1.28-.87-.31-1.79-.66-1.79-1.65,0-.83.66-1.53,1.86-1.53.62,0,1.23.26,1.65.6l-.29.38c-.39-.29-.8-.53-1.37-.53-.9,0-1.3.52-1.3,1.05,0,.66.63.91,1.32,1.17.89.34,1.88.63,1.88,1.76,0,.87-.69,1.62-1.94,1.62-.85,0-1.6-.36-2.11-.8Zm7.52-.78c0-1.28,1.15-1.89,3.72-2.17.02-.89-.23-1.83-1.36-1.83-.78,0-1.45.38-1.84.68l-.24-.39c.41-.29,1.21-.75,2.14-.75,1.36,0,1.83.99,1.83,2.22v3.68h-.45l-.06-.75h-.03c-.59.47-1.29.89-2.04.89-.91,0-1.67-.5-1.67-1.58Zm3.72.19v-1.96c-2.37.27-3.17.82-3.17,1.74,0,.83.56,1.14,1.22,1.14s1.24-.32,1.95-.93Zm2.56.47v-7.86h.53v7.93c0,.26.11.38.25.38.05,0,.1,0,.22-.02l.09.43c-.11.03-.21.06-.38.06-.46,0-.7-.29-.7-.92Zm2.84,0v-7.86h.53v7.93c0,.26.11.38.25.38.05,0,.1,0,.22-.02l.09.43c-.11.03-.21.06-.38.06-.46,0-.7-.29-.7-.92Zm2.36-2.1c0-1.93,1.2-3.03,2.59-3.03s2.59,1.11,2.59,3.03-1.2,3.01-2.59,3.01-2.59-1.11-2.59-3.01Zm4.62,0c0-1.52-.87-2.57-2.03-2.57s-2.03,1.05-2.03,2.57.87,2.55,2.03,2.55,2.03-1.03,2.03-2.55Zm1.47-2.89h.57l1.04,3.73c.14.53.27,1.03.39,1.54h.05c.14-.52.28-1.01.42-1.54l1.05-3.73h.63l1.05,3.73c.14.53.28,1.03.42,1.54h.05c.14-.52.27-1.01.41-1.54l1.02-3.73h.53l-1.65,5.76h-.69l-1.01-3.58c-.16-.55-.28-1.08-.44-1.64h-.05c-.14.56-.28,1.11-.46,1.67l-.99,3.55h-.65l-1.7-5.76Zm11.5,4.17v-3.71h-.9v-.41l.91-.05.07-1.67h.45v1.67h1.67v.46h-1.67v3.75c0,.74.18,1.23.98,1.23.21,0,.51-.09.72-.18l.14.43c-.33.12-.7.22-.94.22-1.11,0-1.43-.7-1.43-1.73Zm3.59-7.04h.53v3.77c.59-.6,1.19-1.05,1.98-1.05,1.19,0,1.74.72,1.74,2.21v3.69h-.53v-3.62c0-1.22-.39-1.8-1.31-1.8-.69,0-1.18.36-1.88,1.08v4.34h-.53v-8.63Zm8.36,2.72c1.36,0,2.2.97,2.2,2.66,0,.14,0,.29-.03.43h-4.14c.02,1.45.87,2.49,2.17,2.49.62,0,1.12-.21,1.55-.51l.22.4c-.45.28-.97.57-1.82.57-1.47,0-2.66-1.13-2.66-3.01s1.22-3.03,2.51-3.03Zm1.71,2.66c0-1.47-.67-2.2-1.7-2.2-.97,0-1.85.83-1.97,2.2h3.67Zm4.35,1.18v-3.69h.53v3.62c0,1.22.39,1.8,1.31,1.8.69,0,1.18-.36,1.86-1.18v-4.25h.53v5.76h-.45l-.06-.96h-.03c-.57.66-1.16,1.11-1.95,1.11-1.19,0-1.74-.72-1.74-2.21Zm5.72,1.41l.31-.39c.49.41,1.01.73,1.83.73.91,0,1.38-.53,1.38-1.14,0-.72-.75-1.04-1.41-1.28-.87-.31-1.79-.66-1.79-1.65,0-.83.66-1.53,1.86-1.53.62,0,1.23.26,1.65.6l-.29.38c-.39-.29-.8-.53-1.37-.53-.9,0-1.3.52-1.3,1.05,0,.66.63.91,1.32,1.17.89.34,1.88.63,1.88,1.76,0,.87-.69,1.62-1.94,1.62-.85,0-1.6-.36-2.11-.8Zm7.6-5.25c1.36,0,2.2.97,2.2,2.66,0,.14,0,.29-.03.43h-4.14c.02,1.45.87,2.49,2.17,2.49.62,0,1.12-.21,1.55-.51l.22.4c-.45.28-.97.57-1.82.57-1.47,0-2.66-1.13-2.66-3.01s1.22-3.03,2.51-3.03Zm1.71,2.66c0-1.47-.67-2.2-1.7-2.2-.97,0-1.85.83-1.97,2.2h3.67Zm3.96.37c0-1.93,1.2-3.03,2.59-3.03s2.59,1.11,2.59,3.03-1.2,3.01-2.59,3.01-2.59-1.11-2.59-3.01Zm4.62,0c0-1.52-.87-2.57-2.03-2.57s-2.03,1.05-2.03,2.57.87,2.55,2.03,2.55,2.03-1.03,2.03-2.55Zm1.58-2.84l.79-.05v-1.28c0-1.14.51-1.73,1.42-1.73.27,0,.58.08.84.19l-.14.43c-.24-.12-.47-.16-.69-.16-.62,0-.9.47-.9,1.3v1.24h1.33v.46h-1.33v5.3h-.53v-5.3h-.79v-.41Zm6.72,5.13h-.03l-.06.58h-.44v-8.63h.53v2.5l-.03,1.12c.58-.49,1.28-.9,1.98-.9,1.54,0,2.31,1.16,2.31,2.94,0,1.96-1.18,3.11-2.54,3.11-.55,0-1.18-.29-1.73-.73Zm3.71-2.38c0-1.42-.5-2.47-1.83-2.47-.57,0-1.2.34-1.87.95v3.42c.63.54,1.26.74,1.7.74,1.17,0,2.01-1.07,2.01-2.64Zm1.77.09c0-1.93,1.2-3.03,2.59-3.03s2.59,1.11,2.59,3.03-1.2,3.01-2.59,3.01-2.59-1.11-2.59-3.01Zm4.62,0c0-1.52-.87-2.57-2.03-2.57s-2.03,1.05-2.03,2.57.87,2.55,2.03,2.55,2.03-1.03,2.03-2.55Zm2.42,1.28v-3.71h-.9v-.41l.91-.05.07-1.67h.45v1.67h1.67v.46h-1.67v3.75c0,.74.18,1.23.98,1.23.21,0,.51-.09.72-.18l.14.43c-.33.12-.7.22-.94.22-1.11,0-1.43-.7-1.43-1.73Zm3.59-7.04h.53v3.77c.59-.6,1.19-1.05,1.98-1.05,1.19,0,1.74.72,1.74,2.21v3.69h-.53v-3.62c0-1.22-.39-1.8-1.31-1.8-.69,0-1.18.36-1.88,1.08v4.34h-.53v-8.63Z"/>
    <path class="cls-16" d="m32.05,135.96v-3.71h-.9v-.41l.91-.05.07-1.67h.45v1.67h1.67v.46h-1.67v3.75c0,.74.18,1.23.98,1.23.21,0,.51-.09.72-.18l.14.43c-.33.12-.7.22-.94.22-1.11,0-1.43-.7-1.43-1.73Zm3.59-7.04h.53v3.77c.59-.6,1.19-1.05,1.98-1.05,1.19,0,1.74.72,1.74,2.21v3.69h-.53v-3.62c0-1.22-.39-1.8-1.31-1.8-.69,0-1.18.36-1.88,1.08v4.34h-.53v-8.63Zm8.36,2.72c1.36,0,2.2.97,2.2,2.66,0,.14,0,.29-.03.43h-4.14c.02,1.45.87,2.49,2.17,2.49.62,0,1.12-.21,1.55-.51l.22.4c-.45.28-.97.57-1.82.57-1.47,0-2.66-1.13-2.66-3.01s1.22-3.03,2.51-3.03Zm1.71,2.66c0-1.47-.67-2.2-1.7-2.2-.97,0-1.85.83-1.97,2.2h3.67Zm4.44-2.52h.45l.06,1.07h.03c.39-.71.95-1.22,1.64-1.22.21,0,.38.03.57.12l-.12.48c-.19-.07-.3-.1-.52-.1-.52,0-1.13.39-1.57,1.48v3.92h-.53v-5.76Zm3.2,2.89c0-1.93,1.2-3.03,2.59-3.03s2.59,1.11,2.59,3.03-1.2,3.01-2.59,3.01-2.59-1.11-2.59-3.01Zm4.62,0c0-1.52-.87-2.57-2.03-2.57s-2.03,1.05-2.03,2.57.87,2.55,2.03,2.55,2.03-1.03,2.03-2.55Zm2.2.8v-3.69h.53v3.62c0,1.22.39,1.8,1.31,1.8.69,0,1.18-.36,1.86-1.18v-4.25h.53v5.76h-.45l-.06-.96h-.03c-.57.66-1.16,1.11-1.95,1.11-1.19,0-1.74-.72-1.74-2.21Zm6.44-3.69h.45l.06.89h.03c.59-.59,1.19-1.04,1.98-1.04,1.19,0,1.74.72,1.74,2.21v3.69h-.53v-3.62c0-1.22-.39-1.8-1.31-1.8-.69,0-1.18.36-1.88,1.08v4.34h-.53v-5.76Zm5.9,2.89c0-1.86,1.18-3.03,2.55-3.03.69,0,1.16.26,1.74.71l-.03-1.06v-2.37h.53v8.63h-.45l-.06-.75h-.03c-.47.47-1.11.89-1.88.89-1.44,0-2.38-1.07-2.38-3.01Zm4.26,1.59v-3.42c-.61-.54-1.11-.74-1.68-.74-1.14,0-2.03,1.12-2.03,2.56,0,1.53.68,2.55,1.9,2.55.64,0,1.2-.33,1.8-.95Zm4.77-4.63c1.36,0,2.2.97,2.2,2.66,0,.14,0,.29-.03.43h-4.14c.02,1.45.87,2.49,2.17,2.49.62,0,1.12-.21,1.55-.51l.22.4c-.45.28-.97.57-1.82.57-1.47,0-2.66-1.13-2.66-3.01s1.22-3.03,2.51-3.03Zm1.71,2.66c0-1.47-.67-2.2-1.7-2.2-.97,0-1.85.83-1.97,2.2h3.67Zm1.58.37c0-1.86,1.18-3.03,2.55-3.03.69,0,1.16.26,1.74.71l-.03-1.06v-2.37h.53v8.63h-.45l-.06-.75h-.03c-.47.47-1.11.89-1.88.89-1.44,0-2.38-1.07-2.38-3.01Zm4.26,1.59v-3.42c-.61-.54-1.11-.74-1.68-.74-1.14,0-2.03,1.12-2.03,2.56,0,1.53.68,2.55,1.9,2.55.64,0,1.2-.33,1.8-.95Zm4.64-1.59c0-1.93,1.2-3.03,2.59-3.03s2.59,1.11,2.59,3.03-1.2,3.01-2.59,3.01-2.59-1.11-2.59-3.01Zm4.62,0c0-1.52-.87-2.57-2.03-2.57s-2.03,1.05-2.03,2.57.87,2.55,2.03,2.55,2.03-1.03,2.03-2.55Zm2.29-2.89h.45l.06,1.07h.03c.39-.71.95-1.22,1.64-1.22.21,0,.38.03.57.12l-.12.48c-.19-.07-.3-.1-.52-.1-.52,0-1.13.39-1.57,1.48v3.92h-.53v-5.76Zm5.39,5.11l.31-.39c.49.41,1.01.73,1.83.73.91,0,1.38-.53,1.38-1.14,0-.72-.75-1.04-1.41-1.28-.87-.31-1.79-.66-1.79-1.65,0-.83.66-1.53,1.86-1.53.62,0,1.23.26,1.65.6l-.29.38c-.39-.29-.8-.53-1.37-.53-.9,0-1.3.52-1.3,1.05,0,.66.63.91,1.32,1.17.89.34,1.88.63,1.88,1.76,0,.87-.69,1.62-1.94,1.62-.85,0-1.6-.36-2.11-.8Zm9.36,1.04l.03-1.14c-.51.49-1.15.9-1.91.9-1.44,0-2.38-1.07-2.38-3.01s1.18-3.03,2.55-3.03c.69,0,1.17.26,1.71.68h.03l.06-.53h.44v8.37h-.53v-2.22Zm0-1.66v-3.42c-.61-.54-1.11-.74-1.68-.74-1.14,0-2.03,1.12-2.03,2.56,0,1.53.68,2.55,1.9,2.55.64,0,1.2-.33,1.8-.95Zm2.65-.79v-3.69h.53v3.62c0,1.22.39,1.8,1.31,1.8.69,0,1.18-.36,1.86-1.18v-4.25h.53v5.76h-.45l-.06-.96h-.03c-.57.66-1.16,1.11-1.95,1.11-1.19,0-1.74-.72-1.74-2.21Zm5.79.63c0-1.28,1.15-1.89,3.72-2.17.02-.89-.23-1.83-1.36-1.83-.78,0-1.45.38-1.84.68l-.24-.39c.41-.29,1.21-.75,2.14-.75,1.36,0,1.83.99,1.83,2.22v3.68h-.45l-.06-.75h-.03c-.59.47-1.29.89-2.04.89-.91,0-1.67-.5-1.67-1.58Zm3.72.19v-1.96c-2.37.27-3.17.82-3.17,1.74,0,.83.56,1.14,1.22,1.14s1.24-.32,1.95-.93Zm2.59-4.52h.45l.06,1.07h.03c.39-.71.95-1.22,1.64-1.22.21,0,.38.03.57.12l-.12.48c-.19-.07-.3-.1-.52-.1-.52,0-1.13.39-1.57,1.48v3.92h-.53v-5.76Zm5.71-.14c1.36,0,2.2.97,2.2,2.66,0,.14,0,.29-.03.43h-4.14c.02,1.45.87,2.49,2.17,2.49.62,0,1.12-.21,1.55-.51l.22.4c-.45.28-.97.57-1.82.57-1.47,0-2.66-1.13-2.66-3.01s1.22-3.03,2.51-3.03Zm1.71,2.66c0-1.47-.67-2.2-1.7-2.2-.97,0-1.85.83-1.97,2.2h3.67Zm1.58.37c0-1.86,1.18-3.03,2.55-3.03.69,0,1.16.26,1.74.71l-.03-1.06v-2.37h.53v8.63h-.45l-.06-.75h-.03c-.47.47-1.11.89-1.88.89-1.44,0-2.38-1.07-2.38-3.01Zm4.26,1.59v-3.42c-.61-.54-1.11-.74-1.68-.74-1.14,0-2.03,1.12-2.03,2.56,0,1.53.68,2.55,1.9,2.55.64,0,1.2-.33,1.8-.95Zm4.4.62l.31-.39c.49.41,1.01.73,1.83.73.91,0,1.38-.53,1.38-1.14,0-.72-.75-1.04-1.41-1.28-.87-.31-1.79-.66-1.79-1.65,0-.83.66-1.53,1.86-1.53.62,0,1.23.26,1.65.6l-.29.38c-.39-.29-.8-.53-1.37-.53-.9,0-1.3.52-1.3,1.05,0,.66.63.91,1.32,1.17.89.34,1.88.63,1.88,1.76,0,.87-.69,1.62-1.94,1.62-.85,0-1.6-.36-2.11-.8Zm5.53-7.98h.53v3.77c.59-.6,1.19-1.05,1.98-1.05,1.19,0,1.74.72,1.74,2.21v3.69h-.53v-3.62c0-1.22-.39-1.8-1.31-1.8-.69,0-1.18.36-1.88,1.08v4.34h-.53v-8.63Zm8.36,2.72c1.36,0,2.2.97,2.2,2.66,0,.14,0,.29-.03.43h-4.14c.02,1.45.87,2.49,2.17,2.49.62,0,1.12-.21,1.55-.51l.22.4c-.45.28-.97.57-1.82.57-1.47,0-2.66-1.13-2.66-3.01s1.22-3.03,2.51-3.03Zm1.71,2.66c0-1.47-.67-2.2-1.7-2.2-.97,0-1.85.83-1.97,2.2h3.67Zm2.04,2.47v-7.86h.53v7.93c0,.26.11.38.25.38.05,0,.1,0,.22-.02l.09.43c-.11.03-.21.06-.38.06-.46,0-.7-.29-.7-.92Zm2.13-4.94l.79-.05v-1.28c0-1.14.51-1.73,1.42-1.73.27,0,.58.08.84.19l-.14.43c-.24-.12-.47-.16-.69-.16-.62,0-.9.47-.9,1.3v1.24h1.33v.46h-1.33v5.3h-.53v-5.3h-.79v-.41Z"/>
    <line class="cls-13" x1="234.42" y1="43.95" x2="234.42" y2="168.75"/>
  </g>
</svg>