<?xml version="1.0" encoding="UTF-8"?>
<svg id="Layer_1" data-name="Layer 1" xmlns="http://www.w3.org/2000/svg" xmlns:xlink="http://www.w3.org/1999/xlink" viewBox="0 0 595.28 841.89">
  <defs>
    <style>
      .cls-1 {
        clip-path: url(#clippath-45);
      }

      .cls-2 {
        clip-path: url(#clippath-20);
      }

      .cls-3 {
        clip-path: url(#clippath-11);
      }

      .cls-4 {
        clip-path: url(#clippath-16);
      }

      .cls-5 {
        fill: #fff;
      }

      .cls-6 {
        clip-path: url(#clippath-33);
      }

      .cls-7 {
        clip-path: url(#clippath-47);
      }

      .cls-8 {
        clip-path: url(#clippath-41);
      }

      .cls-9 {
        clip-path: url(#clippath-32);
      }

      .cls-10 {
        stroke: #d9bf7a;
      }

      .cls-10, .cls-11, .cls-12, .cls-13, .cls-14, .cls-15 {
        fill: none;
      }

      .cls-10, .cls-11, .cls-12, .cls-13, .cls-15 {
        stroke-width: .75px;
      }

      .cls-10, .cls-11, .cls-12, .cls-15 {
        stroke-linecap: round;
        stroke-linejoin: round;
      }

      .cls-16 {
        clip-path: url(#clippath-2);
      }

      .cls-17 {
        fill: #726658;
      }

      .cls-18 {
        clip-path: url(#clippath-13);
      }

      .cls-19 {
        clip-path: url(#clippath-37);
      }

      .cls-20 {
        clip-path: url(#clippath-46);
      }

      .cls-21 {
        clip-path: url(#clippath-25);
      }

      .cls-22 {
        clip-path: url(#clippath-15);
      }

      .cls-23 {
        clip-path: url(#clippath-6);
      }

      .cls-24 {
        clip-path: url(#clippath-40);
      }

      .cls-25 {
        clip-path: url(#clippath-26);
      }

      .cls-26 {
        clip-path: url(#clippath-7);
      }

      .cls-27 {
        clip-path: url(#clippath-21);
      }

      .cls-28 {
        clip-path: url(#clippath-34);
      }

      .cls-29 {
        clip-path: url(#clippath-1);
      }

      .cls-30 {
        clip-path: url(#clippath-4);
      }

      .cls-31 {
        clip-path: url(#clippath-38);
      }

      .cls-32 {
        clip-path: url(#clippath-36);
      }

      .cls-33 {
        clip-path: url(#clippath-27);
      }

      .cls-34 {
        clip-path: url(#clippath-44);
      }

      .cls-35 {
        clip-path: url(#clippath-12);
      }

      .cls-11, .cls-13 {
        stroke: #726658;
      }

      .cls-12 {
        stroke: #d49355;
      }

      .cls-36 {
        clip-path: url(#clippath-24);
      }

      .cls-37 {
        clip-path: url(#clippath-30);
      }

      .cls-38 {
        clip-path: url(#clippath-22);
      }

      .cls-39 {
        clip-path: url(#clippath-9);
      }

      .cls-40 {
        clip-path: url(#clippath);
      }

      .cls-41 {
        clip-path: url(#clippath-39);
      }

      .cls-42 {
        clip-path: url(#clippath-19);
      }

      .cls-43 {
        clip-path: url(#clippath-31);
      }

      .cls-44 {
        clip-path: url(#clippath-3);
      }

      .cls-45 {
        clip-path: url(#clippath-43);
      }

      .cls-46 {
        clip-path: url(#clippath-8);
      }

      .cls-47 {
        clip-path: url(#clippath-29);
      }

      .cls-48 {
        clip-path: url(#clippath-18);
      }

      .cls-49 {
        clip-path: url(#clippath-14);
      }

      .cls-50 {
        clip-path: url(#clippath-17);
      }

      .cls-51 {
        clip-path: url(#clippath-5);
      }

      .cls-15 {
        stroke: #7accc7;
      }

      .cls-52 {
        clip-path: url(#clippath-42);
      }

      .cls-53 {
        clip-path: url(#clippath-10);
      }

      .cls-54 {
        clip-path: url(#clippath-23);
      }

      .cls-55 {
        clip-path: url(#clippath-28);
      }

      .cls-56 {
        clip-path: url(#clippath-35);
      }
    </style>
    <clipPath id="clippath">
      <rect class="cls-14" width="595.28" height="841.89"/>
    </clipPath>
    <clipPath id="clippath-1">
      <rect class="cls-14" x="158.48" y="287.59" width="278.31" height="465.96"/>
    </clipPath>
    <clipPath id="clippath-2">
      <rect class="cls-14" x="158.48" y="287.59" width="278.31" height="465.96"/>
    </clipPath>
    <clipPath id="clippath-3">
      <rect class="cls-14" x="158.48" y="287.59" width="278.31" height="465.96"/>
    </clipPath>
    <clipPath id="clippath-4">
      <rect class="cls-14" x="158.48" y="287.59" width="278.31" height="465.96"/>
    </clipPath>
    <clipPath id="clippath-5">
      <rect class="cls-14" x="158.48" y="287.59" width="278.31" height="465.96"/>
    </clipPath>
    <clipPath id="clippath-6">
      <rect class="cls-14" x="158.48" y="287.59" width="278.31" height="465.96"/>
    </clipPath>
    <clipPath id="clippath-7">
      <rect class="cls-14" x="158.48" y="287.59" width="278.31" height="465.96"/>
    </clipPath>
    <clipPath id="clippath-8">
      <rect class="cls-14" x="158.48" y="287.59" width="278.31" height="465.96"/>
    </clipPath>
    <clipPath id="clippath-9">
      <rect class="cls-14" x="158.48" y="287.59" width="278.31" height="465.96"/>
    </clipPath>
    <clipPath id="clippath-10">
      <rect class="cls-14" x="158.48" y="287.59" width="278.31" height="465.96"/>
    </clipPath>
    <clipPath id="clippath-11">
      <rect class="cls-14" x="158.48" y="287.59" width="278.31" height="465.96"/>
    </clipPath>
    <clipPath id="clippath-12">
      <rect class="cls-14" x="158.48" y="287.59" width="278.31" height="465.96"/>
    </clipPath>
    <clipPath id="clippath-13">
      <rect class="cls-14" x="158.48" y="287.59" width="278.31" height="465.96"/>
    </clipPath>
    <clipPath id="clippath-14">
      <rect class="cls-14" x="158.48" y="287.59" width="278.31" height="465.96"/>
    </clipPath>
    <clipPath id="clippath-15">
      <rect class="cls-14" x="158.48" y="287.59" width="278.31" height="465.96"/>
    </clipPath>
    <clipPath id="clippath-16">
      <rect class="cls-14" x="158.48" y="287.59" width="278.31" height="465.96"/>
    </clipPath>
    <clipPath id="clippath-17">
      <rect class="cls-14" x="158.48" y="287.59" width="278.31" height="465.96"/>
    </clipPath>
    <clipPath id="clippath-18">
      <rect class="cls-14" x="158.48" y="287.59" width="278.31" height="465.96"/>
    </clipPath>
    <clipPath id="clippath-19">
      <rect class="cls-14" x="158.48" y="287.59" width="278.31" height="465.96"/>
    </clipPath>
    <clipPath id="clippath-20">
      <rect class="cls-14" x="158.48" y="287.59" width="278.31" height="465.96"/>
    </clipPath>
    <clipPath id="clippath-21">
      <rect class="cls-14" x="158.48" y="287.59" width="278.31" height="465.96"/>
    </clipPath>
    <clipPath id="clippath-22">
      <rect class="cls-14" x="158.48" y="287.59" width="278.31" height="465.96"/>
    </clipPath>
    <clipPath id="clippath-23">
      <rect class="cls-14" x="158.48" y="287.59" width="278.31" height="465.96"/>
    </clipPath>
    <clipPath id="clippath-24">
      <rect class="cls-14" x="158.48" y="287.59" width="278.31" height="465.96"/>
    </clipPath>
    <clipPath id="clippath-25">
      <rect class="cls-14" x="158.48" y="287.59" width="278.31" height="465.96"/>
    </clipPath>
    <clipPath id="clippath-26">
      <rect class="cls-14" x="158.48" y="287.59" width="278.31" height="465.96"/>
    </clipPath>
    <clipPath id="clippath-27">
      <rect class="cls-14" x="158.48" y="287.59" width="278.31" height="465.96"/>
    </clipPath>
    <clipPath id="clippath-28">
      <rect class="cls-14" x="158.48" y="287.59" width="278.31" height="465.96"/>
    </clipPath>
    <clipPath id="clippath-29">
      <rect class="cls-14" x="158.48" y="287.59" width="278.31" height="465.96"/>
    </clipPath>
    <clipPath id="clippath-30">
      <rect class="cls-14" x="158.48" y="287.59" width="278.31" height="465.96"/>
    </clipPath>
    <clipPath id="clippath-31">
      <rect class="cls-14" x="158.48" y="287.59" width="278.31" height="465.96"/>
    </clipPath>
    <clipPath id="clippath-32">
      <rect class="cls-14" x="158.48" y="287.59" width="278.31" height="465.96"/>
    </clipPath>
    <clipPath id="clippath-33">
      <rect class="cls-14" x="158.48" y="287.59" width="278.31" height="465.96"/>
    </clipPath>
    <clipPath id="clippath-34">
      <rect class="cls-14" x="158.48" y="287.59" width="278.31" height="465.96"/>
    </clipPath>
    <clipPath id="clippath-35">
      <rect class="cls-14" x="158.48" y="287.59" width="278.31" height="465.96"/>
    </clipPath>
    <clipPath id="clippath-36">
      <rect class="cls-14" x="519.31" y="493.98" width="47.62" height="314.36"/>
    </clipPath>
    <clipPath id="clippath-37">
      <rect class="cls-14" x="519.31" y="493.98" width="47.62" height="314.36"/>
    </clipPath>
    <clipPath id="clippath-38">
      <rect class="cls-14" x="519.31" y="493.98" width="47.62" height="314.36"/>
    </clipPath>
    <clipPath id="clippath-39">
      <rect class="cls-14" x="519.31" y="493.98" width="47.62" height="314.36"/>
    </clipPath>
    <clipPath id="clippath-40">
      <rect class="cls-14" x="519.31" y="493.98" width="47.62" height="314.36"/>
    </clipPath>
    <clipPath id="clippath-41">
      <rect class="cls-14" x="28.35" y="231.15" width="47.62" height="325.56"/>
    </clipPath>
    <clipPath id="clippath-42">
      <rect class="cls-14" x="28.35" y="231.15" width="47.62" height="325.56"/>
    </clipPath>
    <clipPath id="clippath-43">
      <rect class="cls-14" x="28.35" y="231.15" width="47.62" height="325.56"/>
    </clipPath>
    <clipPath id="clippath-44">
      <rect class="cls-14" x="28.35" y="231.15" width="47.62" height="325.56"/>
    </clipPath>
    <clipPath id="clippath-45">
      <rect class="cls-14" x="28.35" y="231.15" width="47.62" height="325.56"/>
    </clipPath>
    <clipPath id="clippath-46">
      <rect class="cls-14" x="28.35" y="231.15" width="47.62" height="325.56"/>
    </clipPath>
    <clipPath id="clippath-47">
      <rect class="cls-14" x="28.35" y="231.15" width="47.62" height="325.56"/>
    </clipPath>
  </defs>
  <rect class="cls-5" width="595.28" height="841.89"/>
  <g class="cls-40">
    <line class="cls-13" x1="28.35" y1="106.72" x2="566.93" y2="106.72"/>
    <path class="cls-17" d="m368.26,89.7l.35-.38c.57.65,1.4,1.07,2.32,1.07,1.21,0,1.97-.65,1.97-1.59s-.64-1.3-1.42-1.65l-1.2-.54c-.69-.3-1.6-.8-1.6-1.97s.98-1.95,2.3-1.95c.95,0,1.72.43,2.2.95l-.32.37c-.46-.49-1.09-.81-1.88-.81-1.04,0-1.74.56-1.74,1.41,0,.92.79,1.27,1.37,1.52l1.2.53c.89.39,1.66.88,1.66,2.09s-1,2.13-2.53,2.13c-1.16,0-2.05-.49-2.67-1.19Zm6.68-.54v-3.71h-.9v-.41l.91-.05.07-1.67h.45v1.67h1.67v.46h-1.67v3.75c0,.74.18,1.23.98,1.23.21,0,.51-.09.72-.18l.14.43c-.33.12-.7.22-.94.22-1.11,0-1.43-.7-1.43-1.73Zm2.99-1.28c0-1.93,1.2-3.03,2.59-3.03s2.59,1.11,2.59,3.03-1.2,3.01-2.59,3.01-2.59-1.11-2.59-3.01Zm4.62,0c0-1.52-.87-2.57-2.03-2.57s-2.03,1.05-2.03,2.57.87,2.55,2.03,2.55,2.03-1.03,2.03-2.55Zm1.79,0c0-1.93,1.23-3.03,2.63-3.03.78,0,1.3.35,1.69.71l-.31.37c-.37-.35-.8-.61-1.36-.61-1.18,0-2.09,1.05-2.09,2.57s.83,2.55,2.08,2.55c.62,0,1.15-.3,1.54-.66l.27.37c-.49.44-1.11.76-1.84.76-1.49,0-2.61-1.11-2.61-3.01Zm5.85-5.76h.53v6.36h.03l2.84-3.49h.61l-1.88,2.28,2.19,3.48h-.59l-1.91-3.08-1.29,1.52v1.57h-.53v-8.63Zm5.04,7.19c0-1.28,1.15-1.89,3.72-2.17.02-.89-.23-1.83-1.36-1.83-.78,0-1.45.38-1.83.68l-.24-.39c.41-.29,1.21-.75,2.14-.75,1.36,0,1.83.99,1.83,2.22v3.68h-.45l-.06-.75h-.03c-.59.47-1.29.89-2.04.89-.91,0-1.67-.5-1.67-1.58Zm3.72.19v-1.96c-2.37.27-3.17.82-3.17,1.74,0,.83.56,1.14,1.22,1.14s1.24-.32,1.95-.93Zm3.09.66h-.03l-.06.58h-.44v-8.63h.53v2.5l-.03,1.12c.58-.49,1.28-.9,1.98-.9,1.54,0,2.31,1.16,2.31,2.94,0,1.96-1.18,3.11-2.54,3.11-.55,0-1.18-.29-1.73-.73Zm3.71-2.38c0-1.42-.5-2.47-1.83-2.47-.57,0-1.2.34-1.87.95v3.42c.63.54,1.26.74,1.7.74,1.17,0,2.01-1.07,2.01-2.64Zm2.27,2.19v-7.86h.53v7.93c0,.26.11.38.25.38.05,0,.1,0,.22-.02l.09.43c-.11.03-.21.06-.38.06-.46,0-.7-.29-.7-.92Zm4.87-5.13c1.36,0,2.2.97,2.2,2.66,0,.14,0,.29-.03.43h-4.14c.02,1.45.87,2.49,2.17,2.49.62,0,1.12-.21,1.55-.51l.22.4c-.45.28-.97.57-1.82.57-1.47,0-2.66-1.13-2.66-3.01s1.22-3.03,2.51-3.03Zm1.71,2.66c0-1.47-.67-2.2-1.7-2.2-.97,0-1.85.83-1.97,2.2h3.67Zm4.03,1.81c0-1.28,1.15-1.89,3.72-2.17.02-.89-.23-1.83-1.36-1.83-.78,0-1.45.38-1.84.68l-.24-.39c.41-.29,1.21-.75,2.14-.75,1.36,0,1.83.99,1.83,2.22v3.68h-.45l-.06-.75h-.03c-.59.47-1.29.89-2.04.89-.91,0-1.67-.5-1.67-1.58Zm3.72.19v-1.96c-2.37.27-3.17.82-3.17,1.74,0,.83.56,1.14,1.22,1.14s1.24-.32,1.95-.93Zm2.59-4.52h.45l.06.89h.03c.59-.59,1.19-1.04,1.98-1.04,1.19,0,1.74.72,1.74,2.21v3.69h-.53v-3.62c0-1.22-.39-1.8-1.31-1.8-.69,0-1.18.36-1.88,1.08v4.34h-.53v-5.76Zm5.9,2.89c0-1.86,1.18-3.03,2.55-3.03.69,0,1.16.26,1.74.71l-.03-1.06v-2.37h.53v8.63h-.45l-.06-.75h-.03c-.47.47-1.11.89-1.88.89-1.44,0-2.38-1.07-2.38-3.01Zm4.26,1.59v-3.42c-.61-.54-1.11-.74-1.68-.74-1.14,0-2.03,1.12-2.03,2.56,0,1.53.68,2.55,1.9,2.55.64,0,1.2-.33,1.8-.95Zm5.12-4.48h.45l.06.89h.03c.52-.59,1.18-1.04,1.82-1.04.92,0,1.39.47,1.59,1.18.65-.72,1.29-1.18,1.95-1.18,1.15,0,1.72.72,1.72,2.21v3.69h-.53v-3.62c0-1.22-.41-1.8-1.29-1.8-.54,0-1.09.36-1.72,1.08v4.34h-.53v-3.62c0-1.22-.41-1.8-1.29-1.8-.52,0-1.09.36-1.72,1.08v4.34h-.53v-5.76Zm9.26,2.89c0-1.93,1.2-3.03,2.59-3.03s2.59,1.11,2.59,3.03-1.2,3.01-2.59,3.01-2.59-1.11-2.59-3.01Zm4.62,0c0-1.52-.87-2.57-2.03-2.57s-2.03,1.05-2.03,2.57.87,2.55,2.03,2.55,2.03-1.03,2.03-2.55Zm1.8,0c0-1.86,1.18-3.03,2.55-3.03.69,0,1.16.26,1.74.71l-.03-1.06v-2.37h.53v8.63h-.45l-.06-.75h-.03c-.47.47-1.11.89-1.88.89-1.44,0-2.38-1.07-2.38-3.01Zm4.26,1.59v-3.42c-.61-.54-1.11-.74-1.68-.74-1.14,0-2.03,1.12-2.03,2.56,0,1.53.68,2.55,1.9,2.55.64,0,1.2-.33,1.8-.95Zm2.65-.79v-3.69h.53v3.62c0,1.22.39,1.8,1.31,1.8.69,0,1.18-.36,1.86-1.18v-4.25h.53v5.76h-.45l-.06-.96h-.03c-.57.66-1.16,1.11-1.95,1.11-1.19,0-1.74-.72-1.74-2.21Zm6.44,1.29v-7.86h.53v7.93c0,.26.11.38.25.38.05,0,.1,0,.22-.02l.09.43c-.11.03-.21.06-.38.06-.46,0-.7-.29-.7-.92Zm2.43-.66c0-1.28,1.15-1.89,3.72-2.17.02-.89-.23-1.83-1.36-1.83-.78,0-1.45.38-1.84.68l-.24-.39c.41-.29,1.21-.75,2.14-.75,1.36,0,1.83.99,1.83,2.22v3.68h-.45l-.06-.75h-.03c-.59.47-1.29.89-2.04.89-.91,0-1.67-.5-1.67-1.58Zm3.72.19v-1.96c-2.37.27-3.17.82-3.17,1.74,0,.83.56,1.14,1.22,1.14s1.24-.32,1.95-.93Zm2.59-4.52h.45l.06,1.07h.03c.39-.71.95-1.22,1.64-1.22.21,0,.38.03.57.12l-.12.48c-.19-.07-.3-.1-.52-.1-.52,0-1.13.39-1.57,1.48v3.92h-.53v-5.76Zm8.13-.14c1.36,0,2.2.97,2.2,2.66,0,.14,0,.29-.03.43h-4.14c.02,1.45.87,2.49,2.17,2.49.62,0,1.12-.21,1.55-.51l.22.4c-.45.28-.97.57-1.82.57-1.47,0-2.66-1.13-2.66-3.01s1.22-3.03,2.51-3.03Zm1.71,2.66c0-1.47-.67-2.2-1.7-2.2-.97,0-1.85.83-1.97,2.2h3.67Zm3.05.23l-1.79-2.75h.59l.93,1.47c.19.31.4.63.61.95h.05c.21-.31.39-.63.6-.95l.89-1.47h.56l-1.79,2.79,1.95,2.96h-.59l-1.02-1.57c-.21-.36-.44-.72-.68-1.05h-.05c-.23.34-.44.69-.67,1.05l-.98,1.57h-.56l1.95-3.01Zm3.9-5.62h.53v3.77c.59-.6,1.19-1.05,1.98-1.05,1.19,0,1.74.72,1.74,2.21v3.69h-.53v-3.62c0-1.22-.39-1.8-1.31-1.8-.69,0-1.18.36-1.88,1.08v4.34h-.53v-8.63Zm6.13.99c0-.28.2-.47.46-.47s.46.19.46.47c0,.3-.2.49-.46.49s-.46-.19-.46-.49Zm.18,1.88h.53v5.76h-.53v-5.76Zm3.25,5.18h-.03l-.06.58h-.44v-8.63h.53v2.5l-.03,1.12c.58-.49,1.28-.9,1.98-.9,1.54,0,2.31,1.16,2.31,2.94,0,1.96-1.18,3.11-2.54,3.11-.55,0-1.18-.29-1.73-.73Zm3.71-2.38c0-1.42-.5-2.47-1.83-2.47-.57,0-1.2.34-1.87.95v3.42c.63.54,1.26.74,1.7.74,1.17,0,2.01-1.07,2.01-2.64Zm2.09-4.68c0-.28.2-.47.46-.47s.46.19.46.47c0,.3-.2.49-.46.49s-.46-.19-.46-.49Zm.18,1.88h.53v5.76h-.53v-5.76Zm2.88,4.17v-3.71h-.9v-.41l.91-.05.07-1.67h.45v1.67h1.67v.46h-1.67v3.75c0,.74.18,1.23.98,1.23.21,0,.51-.09.72-.18l.14.43c-.33.12-.7.22-.94.22-1.11,0-1.43-.7-1.43-1.73Zm3.43-6.05c0-.28.2-.47.46-.47s.46.19.46.47c0,.3-.2.49-.46.49s-.46-.19-.46-.49Zm.18,1.88h.53v5.76h-.53v-5.76Zm2.75,0h.45l.06.89h.03c.59-.59,1.19-1.04,1.98-1.04,1.19,0,1.74.72,1.74,2.21v3.69h-.53v-3.62c0-1.22-.39-1.8-1.31-1.8-.69,0-1.18.36-1.88,1.08v4.34h-.53v-5.76Zm5.9,6.94c0-.5.33-1.01.86-1.39v-.05c-.29-.17-.51-.48-.51-.92,0-.52.37-.88.63-1.06v-.05c-.37-.31-.73-.88-.73-1.58,0-1.18.9-2.03,2.03-2.03.31,0,.59.07.77.14h1.95v.45h-1.34c.37.32.64.84.64,1.44,0,1.18-.89,2.03-2.01,2.03-.32,0-.69-.09-.95-.25-.25.21-.47.45-.47.83,0,.41.24.75,1.1.75h1.23c1.29,0,1.9.41,1.9,1.32,0,.99-1.06,1.95-2.72,1.95-1.45,0-2.37-.62-2.37-1.6Zm4.55-.29c0-.64-.46-.88-1.33-.88h-1.23c-.11,0-.41-.02-.71-.09-.53.36-.76.8-.76,1.21,0,.73.7,1.22,1.91,1.22,1.3,0,2.13-.73,2.13-1.46Zm-.78-4.76c0-.97-.67-1.59-1.49-1.59s-1.49.61-1.49,1.59.7,1.62,1.49,1.62,1.49-.65,1.49-1.62Zm4.27,3.22l.31-.39c.49.41,1.01.73,1.83.73.91,0,1.38-.53,1.38-1.14,0-.72-.75-1.04-1.41-1.28-.87-.31-1.79-.66-1.79-1.65,0-.83.66-1.53,1.86-1.53.62,0,1.23.26,1.65.6l-.29.38c-.39-.29-.8-.53-1.37-.53-.9,0-1.3.52-1.3,1.05,0,.66.63.91,1.32,1.17.89.34,1.88.63,1.88,1.76,0,.87-.69,1.62-1.94,1.62-.85,0-1.6-.36-2.11-.8Zm4.75,3.15l.12-.46c.12.05.31.09.47.09.7,0,1.18-.65,1.48-1.53l.16-.5-2.37-5.87h.57l1.39,3.62c.19.49.42,1.1.63,1.62h.05c.18-.51.37-1.13.53-1.62l1.23-3.62h.54l-2.27,6.48c-.32.96-.9,1.9-1.94,1.9-.21,0-.43-.05-.59-.12Zm5.34-3.15l.31-.39c.49.41,1.01.73,1.83.73.91,0,1.38-.53,1.38-1.14,0-.72-.75-1.04-1.41-1.28-.87-.31-1.79-.66-1.79-1.65,0-.83.66-1.53,1.86-1.53.62,0,1.23.26,1.65.6l-.29.38c-.39-.29-.8-.53-1.37-.53-.9,0-1.3.52-1.3,1.05,0,.66.63.91,1.32,1.17.89.34,1.88.63,1.88,1.76,0,.87-.69,1.62-1.94,1.62-.85,0-1.6-.36-2.11-.8Zm5.47-.94v-3.71h-.9v-.41l.91-.05.07-1.67h.45v1.67h1.67v.46h-1.67v3.75c0,.74.18,1.23.98,1.23.21,0,.51-.09.72-.18l.14.43c-.33.12-.7.22-.94.22-1.11,0-1.43-.7-1.43-1.73Zm5.5-4.31c1.36,0,2.2.97,2.2,2.66,0,.14,0,.29-.03.43h-4.14c.02,1.45.87,2.49,2.17,2.49.62,0,1.12-.21,1.55-.51l.22.4c-.45.28-.97.57-1.82.57-1.47,0-2.66-1.13-2.66-3.01s1.22-3.03,2.51-3.03Zm1.71,2.66c0-1.47-.67-2.2-1.7-2.2-.97,0-1.85.83-1.97,2.2h3.67Zm2.06-2.52h.45l.06.89h.03c.52-.59,1.18-1.04,1.82-1.04.92,0,1.39.47,1.59,1.18.65-.72,1.29-1.18,1.95-1.18,1.15,0,1.72.72,1.72,2.21v3.69h-.53v-3.62c0-1.22-.41-1.8-1.29-1.8-.54,0-1.09.36-1.72,1.08v4.34h-.53v-3.62c0-1.22-.41-1.8-1.29-1.8-.52,0-1.09.36-1.72,1.08v4.34h-.53v-5.76Z"/>
    <path class="cls-17" d="m37.41,79.59l-9.43-20.13h7.57l2.79,7.19c.84,2.34,1.65,4.51,2.55,6.94h.19c.89-2.42,1.78-4.59,2.64-6.94l2.79-7.19h7.39l-9.43,20.13v11.16h-7.07v-11.16Zm18.63-20.13h19.6v5.93h-12.53v6.28h10.67v5.93h-10.67v7.21h13.01v5.93h-20.08v-31.29Zm26.3,0h7.07v25.35h12.35v5.93h-19.42v-31.29Zm24.86,0h7.07v25.35h12.35v5.93h-19.42v-31.29Zm21.66,15.51c0-10.22,5.77-16.08,14.21-16.08s14.21,5.9,14.21,16.08-5.77,16.36-14.21,16.36-14.21-6.13-14.21-16.36Zm21.17,0c0-6.27-2.69-9.98-6.96-9.98s-6.96,3.7-6.96,9.98,2.69,10.25,6.96,10.25,6.96-3.97,6.96-10.25Zm10-15.51h7.25l2.17,14.61c.41,3.3.86,6.6,1.28,9.89h.19c.61-3.3,1.24-6.64,1.86-9.89l3.37-14.61h6l3.37,14.61c.63,3.18,1.25,6.56,1.88,9.89h.19c.41-3.34.85-6.68,1.26-9.89l2.17-14.61h6.76l-5.56,31.29h-8.89l-3.06-14.21c-.5-2.42-.91-4.92-1.25-7.26h-.19c-.38,2.34-.77,4.85-1.27,7.26l-2.96,14.21h-8.73l-5.81-31.29Zm42.07,0h10.71c6.49,0,11.54,1.78,11.54,7.76,0,2.81-1.57,5.79-4.12,6.75v.19c3.2.83,5.66,3.19,5.66,7.36,0,6.36-5.38,9.22-12.19,9.22h-11.6v-31.29Zm10.38,12.53c3.43,0,4.95-1.45,4.95-3.73,0-2.41-1.6-3.35-4.9-3.35h-3.36v7.07h3.31Zm.64,13.3c3.86,0,5.85-1.37,5.85-4.22s-1.96-3.86-5.85-3.86h-3.95v8.08h3.95Zm18.01-25.83h19.6v5.93h-12.53v6.28h10.67v5.93h-10.67v7.21h13.01v5.93h-20.08v-31.29Zm26.3,0h7.07v25.35h12.35v5.93h-19.42v-31.29Zm24.86,0h7.07v25.35h12.35v5.93h-19.42v-31.29Zm26.11,20.13l-9.43-20.13h7.57l2.79,7.19c.84,2.34,1.65,4.51,2.55,6.94h.19c.89-2.42,1.78-4.59,2.64-6.94l2.79-7.19h7.39l-9.43,20.13v11.16h-7.07v-11.16Z"/>
    <line class="cls-12" x1="324.64" y1="507.67" x2="326.73" y2="510.08"/>
    <line class="cls-12" x1="326.73" y1="506.94" x2="326.73" y2="510.62"/>
    <line class="cls-12" x1="417.85" y1="614.35" x2="425.37" y2="623.04"/>
    <line class="cls-12" x1="425.37" y1="701.54" x2="359.18" y2="625.01"/>
    <line class="cls-12" x1="425.37" y1="695.26" x2="364.24" y2="624.58"/>
    <line class="cls-12" x1="425.37" y1="684.53" x2="372.73" y2="623.67"/>
    <line class="cls-12" x1="339.16" y1="625.86" x2="339.16" y2="648.96"/>
    <line class="cls-12" x1="346.29" y1="625.71" x2="346.29" y2="646.47"/>
    <line class="cls-12" x1="335.24" y1="625.88" x2="335.24" y2="644.43"/>
    <line class="cls-12" x1="326.73" y1="625.72" x2="326.73" y2="646.67"/>
    <line class="cls-12" x1="322.81" y1="625.57" x2="322.81" y2="642.14"/>
    <line class="cls-12" x1="333.86" y1="625.87" x2="333.86" y2="644.18"/>
    <line class="cls-12" x1="333.86" y1="644.18" x2="326.73" y2="646.67"/>
    <line class="cls-12" x1="326.73" y1="646.67" x2="322.81" y2="642.14"/>
    <line class="cls-12" x1="335.24" y1="644.43" x2="339.16" y2="648.96"/>
    <line class="cls-12" x1="339.16" y1="648.96" x2="346.29" y2="646.47"/>
    <line class="cls-12" x1="169.9" y1="642.19" x2="252.03" y2="613.49"/>
    <line class="cls-12" x1="169.9" y1="648.09" x2="261.26" y2="616.16"/>
    <line class="cls-12" x1="169.9" y1="654.37" x2="271.77" y2="618.77"/>
    <line class="cls-12" x1="178.1" y1="573" x2="169.9" y2="575.87"/>
    <g class="cls-29">
      <path class="cls-10" d="m169.99,561.71c15.24,16.77,35.13,29.51,55.5,38.65,20.62,9.26,42.95,15.43,65.22,18.89,22.36,3.48,45.37,4.35,67.93,2.67,22.51-1.67,45.21-5.93,66.68-13.06"/>
      <path class="cls-10" d="m169.99,564.85c15.24,16.77,35.13,29.51,55.5,38.65,20.62,9.26,42.95,15.43,65.22,18.89,22.36,3.48,45.37,4.35,67.93,2.67,22.51-1.67,45.21-5.93,66.68-13.06"/>
    </g>
    <line class="cls-12" x1="169.9" y1="555.46" x2="169.9" y2="701.47"/>
    <line class="cls-12" x1="162.78" y1="557.95" x2="162.78" y2="703.96"/>
    <g class="cls-16">
      <line class="cls-12" x1="158.86" y1="553.42" x2="158.86" y2="699.43"/>
    </g>
    <line class="cls-12" x1="339.16" y1="502.95" x2="339.16" y2="509.23"/>
    <line class="cls-12" x1="326.73" y1="500.66" x2="326.73" y2="506.94"/>
    <line class="cls-12" x1="339.16" y1="509.23" x2="339.16" y2="512.06"/>
    <line class="cls-12" x1="333.86" y1="498.17" x2="333.86" y2="512.52"/>
    <line class="cls-12" x1="335.24" y1="498.42" x2="335.24" y2="512.53"/>
    <g class="cls-44">
      <path class="cls-10" d="m341.12,511.5c-2.98,1.04-6.38,1.28-9.48.8-1.57-.24-3.15-.68-4.6-1.34-1.43-.65-2.83-1.57-3.87-2.78"/>
    </g>
    <line class="cls-12" x1="425.37" y1="608.91" x2="339.16" y2="509.23"/>
    <line class="cls-12" x1="169.9" y1="561.74" x2="326.73" y2="506.94"/>
    <line class="cls-12" x1="425.37" y1="602.63" x2="425.37" y2="695.26"/>
    <g class="cls-30">
      <line class="cls-12" x1="429.29" y1="607.16" x2="429.29" y2="753.17"/>
    </g>
    <line class="cls-12" x1="169.9" y1="701.47" x2="162.78" y2="703.96"/>
    <g class="cls-51">
      <line class="cls-12" x1="162.78" y1="703.96" x2="158.86" y2="699.43"/>
    </g>
    <line class="cls-12" x1="425.37" y1="701.54" x2="425.37" y2="748.64"/>
    <line class="cls-12" x1="425.37" y1="695.26" x2="425.37" y2="701.54"/>
    <g class="cls-23">
      <line class="cls-12" x1="425.37" y1="748.64" x2="429.29" y2="753.17"/>
      <line class="cls-12" x1="429.29" y1="753.17" x2="436.42" y2="750.68"/>
      <line class="cls-12" x1="436.42" y1="604.67" x2="436.42" y2="750.68"/>
    </g>
    <line class="cls-11" x1="353.21" y1="322.11" x2="354.1" y2="321.03"/>
    <line class="cls-11" x1="417.88" y1="396.84" x2="418.76" y2="395.76"/>
    <line class="cls-12" x1="412.46" y1="587.7" x2="351.89" y2="517.68"/>
    <line class="cls-12" x1="412.46" y1="581.42" x2="351.89" y2="511.4"/>
    <line class="cls-12" x1="425.37" y1="596.35" x2="416.55" y2="586.16"/>
    <line class="cls-11" x1="395.59" y1="557.1" x2="395.59" y2="556.16"/>
    <g class="cls-26">
      <path class="cls-11" d="m395.59,557.1c0,.3.31.49.55.57.26.09.57.1.83.03"/>
    </g>
    <line class="cls-12" x1="169.9" y1="555.46" x2="326.73" y2="500.66"/>
    <line class="cls-12" x1="169.9" y1="349.78" x2="162.78" y2="352.27"/>
    <line class="cls-12" x1="169.9" y1="349.78" x2="169.9" y2="555.46"/>
    <line class="cls-12" x1="347.8" y1="506.66" x2="339.16" y2="496.67"/>
    <line class="cls-12" x1="347.8" y1="512.94" x2="339.16" y2="502.95"/>
    <line class="cls-12" x1="333.86" y1="498.17" x2="326.73" y2="500.66"/>
    <g class="cls-46">
      <path class="cls-11" d="m373.53,532.81c0,.27.17.49.37.63.2.15.45.24.69.29.47.1,1.04.05,1.48-.2"/>
    </g>
    <line class="cls-11" x1="374.03" y1="532.18" x2="374.03" y2="531.24"/>
    <g class="cls-39">
      <path class="cls-11" d="m374.03,532.18c0,.3.31.49.55.57.26.09.57.1.83.03"/>
    </g>
    <line class="cls-12" x1="169.9" y1="356.06" x2="326.73" y2="301.27"/>
    <line class="cls-12" x1="429.29" y1="401.49" x2="429.29" y2="607.16"/>
    <line class="cls-12" x1="351.89" y1="312.01" x2="412.46" y2="382.03"/>
    <line class="cls-12" x1="416.55" y1="393.04" x2="425.37" y2="403.24"/>
    <line class="cls-12" x1="351.89" y1="318.29" x2="412.46" y2="388.31"/>
    <g class="cls-53">
      <path class="cls-11" d="m395.08,557.8c.03.26.21.46.41.59.21.14.43.22.68.27.46.08,1.02.03,1.44-.21"/>
    </g>
    <line class="cls-12" x1="169.9" y1="543.28" x2="322.81" y2="489.85"/>
    <g class="cls-3">
      <path class="cls-11" d="m395.48,557.07c-.21.15-.4.37-.4.65"/>
    </g>
    <line class="cls-12" x1="425.37" y1="602.63" x2="416.55" y2="592.44"/>
    <line class="cls-15" x1="342.76" y1="308.2" x2="342.76" y2="495.03"/>
    <g class="cls-35">
      <path class="cls-11" d="m395.59,556.16s0-.03,0-.05"/>
    </g>
    <line class="cls-12" x1="162.78" y1="352.27" x2="162.78" y2="557.95"/>
    <line class="cls-12" x1="165.98" y1="345.25" x2="169.9" y2="349.78"/>
    <g class="cls-18">
      <line class="cls-12" x1="158.86" y1="347.74" x2="165.98" y2="345.25"/>
      <polyline class="cls-12" points="158.86 553.42 162.77 557.95 169.9 555.46"/>
      <line class="cls-12" x1="158.86" y1="347.74" x2="158.86" y2="553.42"/>
      <line class="cls-12" x1="162.78" y1="352.27" x2="158.86" y2="347.74"/>
    </g>
    <line class="cls-12" x1="339.16" y1="502.95" x2="339.16" y2="496.67"/>
    <line class="cls-12" x1="339.16" y1="496.67" x2="343.02" y2="495.32"/>
    <g class="cls-49">
      <path class="cls-11" d="m416.61,582.82c.03.26.21.46.41.59.21.14.44.22.68.27.46.08,1.02.03,1.44-.21"/>
    </g>
    <line class="cls-11" x1="417.88" y1="582.41" x2="418.73" y2="582.86"/>
    <line class="cls-11" x1="416.38" y1="582.93" x2="417.88" y2="582.41"/>
    <line class="cls-11" x1="416.38" y1="582.93" x2="412.46" y2="578.4"/>
    <line class="cls-11" x1="413.96" y1="577.87" x2="414.81" y2="578.33"/>
    <line class="cls-11" x1="412.46" y1="578.4" x2="413.96" y2="577.87"/>
    <line class="cls-11" x1="412.46" y1="589.03" x2="412.46" y2="578.4"/>
    <path class="cls-11" d="m416.38,594.59v-11.66,11.66Z"/>
    <g class="cls-22">
      <path class="cls-11" d="m412.51,590.12s-.01-.01-.02-.02c-.01-.02-.02-.05-.02-.07,0-.01,0-.03,0-.04,0-.03,0-.06,0-.09,0-.04,0-.08,0-.12v-.74"/>
    </g>
    <path class="cls-11" d="m416.38,594.59l-3.86-4.47,3.86,4.47Z"/>
    <line class="cls-12" x1="169.9" y1="349.78" x2="326.73" y2="294.99"/>
    <line class="cls-12" x1="326.73" y1="301.27" x2="326.73" y2="494.38"/>
    <line class="cls-12" x1="322.81" y1="302.63" x2="322.81" y2="489.85"/>
    <g class="cls-4">
      <path class="cls-11" d="m373.92,532.15c-.21.15-.4.37-.4.65"/>
    </g>
    <line class="cls-12" x1="169.9" y1="549.18" x2="326.73" y2="494.38"/>
    <line class="cls-12" x1="333.86" y1="292.49" x2="326.73" y2="294.98"/>
    <g class="cls-50">
      <line class="cls-12" x1="329.94" y1="287.96" x2="333.86" y2="292.49"/>
      <line class="cls-12" x1="322.81" y1="290.45" x2="329.94" y2="287.96"/>
    </g>
    <line class="cls-12" x1="333.86" y1="292.49" x2="333.86" y2="498.17"/>
    <line class="cls-12" x1="322.81" y1="489.85" x2="326.73" y2="494.38"/>
    <line class="cls-12" x1="326.73" y1="494.38" x2="326.73" y2="500.66"/>
    <g class="cls-48">
      <line class="cls-12" x1="436.42" y1="399" x2="429.29" y2="401.49"/>
    </g>
    <line class="cls-12" x1="425.37" y1="396.96" x2="432.5" y2="394.47"/>
    <g class="cls-42">
      <path class="cls-11" d="m374.03,531.24s0-.03,0-.05"/>
    </g>
    <line class="cls-12" x1="322.81" y1="290.45" x2="165.98" y2="345.25"/>
    <line class="cls-12" x1="326.73" y1="294.98" x2="322.81" y2="290.45"/>
    <line class="cls-12" x1="326.73" y1="301.27" x2="326.73" y2="294.99"/>
    <g class="cls-2">
      <line class="cls-12" x1="432.5" y1="394.47" x2="436.42" y2="399"/>
    </g>
    <line class="cls-12" x1="429.29" y1="401.49" x2="425.37" y2="396.96"/>
    <line class="cls-12" x1="416.55" y1="386.76" x2="425.37" y2="396.96"/>
    <line class="cls-12" x1="339.16" y1="297.28" x2="347.8" y2="307.27"/>
    <line class="cls-12" x1="339.16" y1="303.56" x2="339.16" y2="496.67"/>
    <line class="cls-12" x1="335.24" y1="292.75" x2="342.37" y2="290.26"/>
    <line class="cls-12" x1="339.16" y1="502.95" x2="335.24" y2="498.42"/>
    <line class="cls-12" x1="335.24" y1="292.75" x2="335.24" y2="498.42"/>
    <line class="cls-12" x1="339.16" y1="297.28" x2="335.24" y2="292.75"/>
    <line class="cls-12" x1="342.37" y1="290.26" x2="346.28" y2="294.79"/>
    <line class="cls-12" x1="346.29" y1="294.79" x2="339.16" y2="297.28"/>
    <line class="cls-12" x1="339.16" y1="303.56" x2="339.16" y2="297.28"/>
    <g class="cls-27">
      <path class="cls-11" d="m352.06,508.22c.03.25.21.46.41.59.21.14.43.22.68.27.46.08,1.02.03,1.44-.21"/>
    </g>
    <line class="cls-11" x1="353.33" y1="507.8" x2="354.18" y2="508.25"/>
    <line class="cls-11" x1="351.83" y1="508.32" x2="353.33" y2="507.8"/>
    <line class="cls-11" x1="351.83" y1="508.32" x2="347.91" y2="503.79"/>
    <line class="cls-11" x1="349.41" y1="503.27" x2="350.26" y2="503.72"/>
    <line class="cls-11" x1="347.91" y1="503.79" x2="349.41" y2="503.27"/>
    <line class="cls-11" x1="347.91" y1="514.43" x2="347.91" y2="503.79"/>
    <line class="cls-11" x1="351.83" y1="518.96" x2="351.83" y2="508.32"/>
    <g class="cls-38">
      <path class="cls-11" d="m347.97,515.52s-.01-.01-.02-.02c-.01-.02-.02-.05-.02-.07,0-.01,0-.03,0-.04,0-.03,0-.06,0-.09,0-.04,0-.08,0-.12v-.74"/>
      <path class="cls-11" d="m351.89,520.05s-.01-.02-.02-.02c-.01-.02-.02-.05-.03-.07,0-.01,0-.03,0-.04,0-.03,0-.06,0-.09,0-.04,0-.08,0-.12v-.22c0-.17,0-.35,0-.52"/>
    </g>
    <line class="cls-11" x1="351.89" y1="520.05" x2="347.97" y2="515.52"/>
    <line class="cls-15" x1="342.76" y1="495.03" x2="425.37" y2="590.54"/>
    <g class="cls-54">
      <path class="cls-11" d="m186.02,539.9c0,.35.29.61.57.75.29.15.64.21.96.21s.67-.07.96-.21c.27-.14.57-.4.57-.75"/>
    </g>
    <line class="cls-11" x1="188.56" y1="538.33" x2="188.56" y2="539.28"/>
    <line class="cls-11" x1="186.53" y1="539.28" x2="186.53" y2="538.33"/>
    <g class="cls-36">
      <path class="cls-11" d="m186.53,539.28c0,.24.19.41.38.5.19.1.42.14.64.14s.44-.04.64-.14c.18-.09.38-.27.38-.5"/>
      <path class="cls-11" d="m186.42,539.25c-.21.15-.4.37-.4.65"/>
      <path class="cls-11" d="m189.07,540.06s0-.05,0-.08"/>
      <path class="cls-11" d="m189.07,539.9c0-.18-.08-.34-.19-.47"/>
      <path class="cls-11" d="m186.02,540.06c0,.35.29.61.57.75.29.15.64.22.96.22s.67-.07.96-.21c.27-.14.57-.4.57-.75"/>
    </g>
    <line class="cls-11" x1="189.07" y1="539.9" x2="189.07" y2="540.06"/>
    <g class="cls-21">
      <path class="cls-11" d="m188.88,539.44c-.06-.07-.12-.12-.19-.17"/>
      <path class="cls-11" d="m186.53,538.33c0-.15.03-.29.09-.42,0-.02.02-.04.03-.06.07-.12.16-.23.27-.32.07-.05.14-.09.21-.13.02-.01.05-.02.07-.03.17-.06.35-.07.52-.04.08.02.15.04.22.07.02,0,.04.02.07.03.11.06.21.14.3.23"/>
      <path class="cls-11" d="m188.32,537.67c.05.06.09.12.12.18.05.09.08.19.1.29.01.07.02.13.02.2"/>
      <path class="cls-11" d="m225.23,526.22c0,.35.29.61.57.75.29.15.64.21.96.21s.67-.07.96-.21c.27-.14.57-.4.57-.75"/>
    </g>
    <line class="cls-11" x1="227.77" y1="524.65" x2="227.77" y2="525.59"/>
    <line class="cls-11" x1="225.74" y1="525.59" x2="225.74" y2="524.65"/>
    <g class="cls-25">
      <path class="cls-11" d="m225.74,525.59c0,.24.19.41.38.5.19.1.42.14.64.14s.44-.04.64-.14c.18-.09.38-.27.38-.5"/>
      <path class="cls-11" d="m225.62,525.57c-.21.15-.4.37-.4.65"/>
      <path class="cls-11" d="m228.28,526.38s0-.05,0-.08"/>
      <path class="cls-11" d="m228.28,526.22c0-.18-.08-.34-.19-.47"/>
      <path class="cls-11" d="m225.23,526.38c0,.35.29.61.57.75.29.15.64.22.96.22s.67-.07.96-.21c.27-.14.57-.4.57-.75"/>
    </g>
    <line class="cls-11" x1="228.28" y1="526.22" x2="228.28" y2="526.38"/>
    <g class="cls-33">
      <path class="cls-11" d="m228.09,525.75c-.06-.07-.12-.12-.19-.17"/>
      <path class="cls-11" d="m225.74,524.65c0-.15.03-.29.09-.42,0-.02.02-.04.03-.06.07-.12.16-.23.27-.32.07-.05.14-.09.21-.12.02-.01.05-.02.07-.03.17-.06.35-.07.52-.04.08.01.15.04.22.07.02,0,.04.02.07.03.11.06.21.14.3.23"/>
      <path class="cls-11" d="m227.52,523.99c.05.06.09.12.12.18.05.09.08.19.1.29.01.07.02.13.02.2"/>
      <path class="cls-11" d="m264.43,512.52c0,.35.29.61.57.75.29.15.64.21.96.21s.67-.07.96-.21c.27-.14.57-.4.57-.75"/>
    </g>
    <line class="cls-11" x1="266.98" y1="510.95" x2="266.98" y2="511.89"/>
    <line class="cls-11" x1="264.94" y1="511.89" x2="264.94" y2="510.95"/>
    <g class="cls-55">
      <path class="cls-11" d="m264.94,511.89c0,.24.19.41.38.5.2.1.42.14.64.14s.44-.04.64-.14c.18-.09.38-.27.38-.5"/>
      <path class="cls-11" d="m264.83,511.87c-.21.15-.4.37-.4.65"/>
      <path class="cls-11" d="m267.48,512.68s0-.05,0-.08"/>
      <path class="cls-11" d="m267.48,512.52c0-.18-.08-.34-.19-.47"/>
      <path class="cls-11" d="m264.43,512.68c0,.35.29.61.57.75.29.15.64.22.96.22s.67-.07.96-.21c.27-.14.57-.4.57-.75"/>
    </g>
    <line class="cls-11" x1="267.48" y1="512.52" x2="267.48" y2="512.68"/>
    <g class="cls-47">
      <path class="cls-11" d="m267.3,512.05c-.06-.07-.12-.12-.19-.17"/>
      <path class="cls-11" d="m264.94,510.95c0-.15.03-.29.09-.42,0-.02.02-.04.03-.06.07-.12.16-.23.27-.32.07-.05.14-.09.21-.13.02-.01.05-.02.07-.03.17-.06.35-.07.52-.04.08.01.15.04.22.07.02,0,.04.02.07.03.11.06.21.14.3.23"/>
      <path class="cls-11" d="m266.73,510.29c.05.06.09.12.12.18.05.09.08.19.1.29.01.07.02.13.02.2"/>
      <path class="cls-11" d="m303.64,498.82c0,.35.29.61.57.75.29.15.64.21.96.21s.67-.07.96-.21c.28-.14.57-.4.57-.75"/>
    </g>
    <line class="cls-11" x1="306.18" y1="497.25" x2="306.18" y2="498.19"/>
    <line class="cls-11" x1="304.15" y1="498.19" x2="304.15" y2="497.25"/>
    <g class="cls-37">
      <path class="cls-11" d="m304.15,498.19c0,.24.19.41.38.5.2.1.42.14.64.14s.44-.04.64-.14c.18-.09.38-.27.38-.5"/>
      <path class="cls-11" d="m304.04,498.17c-.21.15-.4.37-.4.65"/>
      <path class="cls-11" d="m306.69,498.98s0-.05,0-.08"/>
      <path class="cls-11" d="m306.69,498.82c0-.18-.08-.34-.19-.47"/>
      <path class="cls-11" d="m303.64,498.98c0,.35.29.61.57.75.29.15.64.22.96.22s.67-.07.96-.21c.28-.14.57-.4.57-.75"/>
    </g>
    <line class="cls-11" x1="306.69" y1="498.82" x2="306.69" y2="498.98"/>
    <g class="cls-43">
      <path class="cls-11" d="m306.5,498.36c-.06-.07-.12-.12-.19-.17"/>
      <path class="cls-11" d="m304.15,497.25c0-.15.03-.29.09-.42.01-.02.02-.04.03-.06.07-.12.16-.23.27-.32.07-.05.14-.09.21-.13.02-.01.05-.02.07-.03.17-.06.35-.07.52-.04.08.01.15.04.22.07.02,0,.04.02.07.03.11.06.21.14.3.23"/>
      <path class="cls-11" d="m305.93,496.59c.05.06.09.12.12.18.05.09.08.19.1.29.01.07.02.13.02.2"/>
    </g>
    <polyline class="cls-12" points="425.37 396.96 425.37 596.35 425.37 602.63"/>
    <g class="cls-9">
      <polyline class="cls-12" points="436.42 399 436.42 604.67 429.29 607.16 425.37 602.63"/>
    </g>
    <line class="cls-12" x1="339.16" y1="303.56" x2="347.8" y2="313.55"/>
    <g class="cls-6">
      <path class="cls-11" d="m357.95,306.35s-.02-.01-.03-.02c-.01,0-.03,0-.04-.01-.01,0-.02,0-.04,0-.02,0-.04,0-.06,0-.01,0-.03,0-.04,0-.02,0-.05.01-.07.02-.03,0-.05.01-.08.02-.06.02-.12.04-.18.05-.09.03-.18.06-.27.09-.12.04-.23.08-.35.11"/>
      <path class="cls-11" d="m360.64,311.38c.75-.28,1.05-.39,1.08-.35"/>
      <path class="cls-11" d="m360.82,311.59s.05-.02.08-.03c.16-.06.32-.12.48-.18.05-.02.09-.03.14-.05.04-.02.07-.03.1-.05.02,0,.03-.01.05-.02.03-.02.06-.04.09-.06.02-.02.04-.03.06-.05.01-.01.02-.02.03-.04.01-.01.02-.03.03-.04,0-.02.01-.03.02-.05,0,0,0-.02,0-.02,0-.02,0-.03,0-.05,0-.02-.01-.04-.03-.06"/>
      <path class="cls-11" d="m361.72,311.02s0,.01,0,.02c-.01.06-.18.12-.42.21-.16.06-.35.13-.58.22"/>
      <path class="cls-11" d="m361.87,310.89s-.02-.02-.03-.02c-.01,0-.03-.01-.05-.02-.01,0-.03,0-.04,0-.02,0-.05,0-.07,0-.02,0-.03,0-.05.01-.03,0-.05.01-.08.02-.03,0-.06.02-.1.03-.07.02-.14.05-.21.07-.11.04-.21.08-.32.12-.13.05-.26.1-.4.15"/>
    </g>
    <line class="cls-11" x1="351.89" y1="320.54" x2="353.14" y2="321.98"/>
    <line class="cls-11" x1="357.95" y1="306.36" x2="361.87" y2="310.89"/>
    <polyline class="cls-11" points="347.8 318.11 351.71 322.64 353.21 322.11"/>
    <g class="cls-28">
      <path class="cls-11" d="m352.21,311.83v-.36c0-.09,0-.19,0-.28,0-.06,0-.12,0-.18,0-.03,0-.05,0-.08,0-.02,0-.05,0-.07,0-.01,0-.03,0-.04,0-.02-.01-.04-.02-.05,0,0,0-.02-.02-.02"/>
      <path class="cls-11" d="m351.71,322.64v-11.38s0-.08,0-.12c0-.03,0-.06,0-.09,0-.02,0-.03,0-.05,0-.03.01-.06.03-.09,0-.02.02-.04.03-.06,0-.01.02-.03.03-.04.01-.01.02-.03.04-.04.02-.02.05-.04.07-.05.02,0,.03-.02.05-.02.04-.01.09-.01.12,0,.01,0,.03.02.04.03,0,0,0,0,0,0"/>
      <path class="cls-11" d="m352.14,310.74l-3.92-4.53s0,0,0,0c-.01-.01-.02-.02-.04-.03-.03-.01-.08-.02-.12,0-.02,0-.03.01-.05.02-.02.01-.05.03-.07.05-.01.01-.03.03-.04.04-.01.01-.02.02-.03.04-.01.02-.02.04-.03.06-.01.03-.02.06-.03.09,0,.02,0,.03,0,.05,0,.03,0,.06,0,.1,0,.04,0,.08,0,.12v11.38"/>
      <path class="cls-11" d="m422.61,381.07s-.02-.01-.03-.02c-.01,0-.03,0-.04-.01-.01,0-.02,0-.04,0-.02,0-.04,0-.06,0-.01,0-.03,0-.04,0-.02,0-.05.01-.07.02-.03,0-.05.01-.08.02-.06.02-.12.04-.18.06-.09.03-.18.06-.27.09-.12.04-.23.08-.35.12"/>
      <path class="cls-11" d="m425.3,386.11c.75-.28,1.05-.39,1.08-.35"/>
      <path class="cls-11" d="m425.48,386.32s.05-.02.08-.03c.16-.06.32-.12.48-.18.05-.02.09-.03.14-.05.04-.01.07-.03.1-.05.02,0,.03-.02.05-.02.03-.02.06-.04.09-.06.02-.02.04-.03.06-.05.01-.01.02-.02.03-.04.01-.01.02-.03.03-.04,0-.02.01-.03.02-.05,0,0,0-.02,0-.02,0-.02,0-.03,0-.05,0-.02-.01-.04-.03-.06"/>
      <path class="cls-11" d="m426.38,385.75s0,.01,0,.02c-.01.06-.18.12-.42.21-.16.06-.35.13-.58.22"/>
      <path class="cls-11" d="m426.53,385.62s-.02-.02-.03-.02c-.01,0-.03-.01-.05-.02-.01,0-.03,0-.04,0-.02,0-.05,0-.07,0-.02,0-.03,0-.05.01-.03,0-.05.02-.08.02-.03,0-.06.02-.1.03-.07.02-.14.05-.21.07-.1.04-.21.08-.32.12-.13.05-.26.1-.4.15"/>
    </g>
    <line class="cls-11" x1="416.55" y1="395.27" x2="417.8" y2="396.71"/>
    <line class="cls-11" x1="422.61" y1="381.09" x2="426.53" y2="385.62"/>
    <polyline class="cls-11" points="412.46 392.83 416.38 397.36 417.88 396.84"/>
    <g class="cls-56">
      <path class="cls-11" d="m416.87,386.56v-.36c0-.09,0-.19,0-.28,0-.06,0-.12,0-.18,0-.03,0-.05,0-.08,0-.02,0-.04,0-.07,0-.01,0-.03,0-.04,0-.02-.01-.04-.02-.05,0,0-.01-.02-.02-.02"/>
      <path class="cls-11" d="m416.38,397.36v-10.63c0-.18,0-.35,0-.52v-.22s0-.08,0-.12c0-.03,0-.06,0-.09,0-.02,0-.03,0-.05,0-.03.01-.06.02-.09,0-.02.02-.04.03-.06,0-.01.02-.02.03-.04.01-.01.02-.03.04-.04.02-.02.05-.04.07-.05.02,0,.03-.02.05-.02.05-.01.09-.01.12,0,.01,0,.03.02.04.03,0,0,0,0,0,0"/>
      <path class="cls-11" d="m416.8,385.46l-3.92-4.53s0,0,0,0c-.01-.01-.02-.02-.04-.03-.03-.02-.08-.02-.12,0-.02,0-.03.01-.05.02-.02.01-.05.03-.07.05-.01.01-.03.03-.04.04-.01.01-.02.02-.03.04-.01.02-.02.04-.03.06-.01.03-.02.06-.03.09,0,.01,0,.03,0,.04,0,.03,0,.06,0,.1,0,.04,0,.08,0,.12v11.38"/>
    </g>
    <line class="cls-12" x1="432.5" y1="394.47" x2="346.29" y2="294.79"/>
    <line class="cls-12" x1="538.93" y1="779.4" x2="530.73" y2="782.26"/>
    <g class="cls-32">
      <path class="cls-10" d="m530.82,768.1c15.24,16.77,35.13,29.51,55.5,38.65,20.62,9.26,42.96,15.42,65.22,18.89,22.36,3.48,45.37,4.35,67.93,2.67,22.52-1.67,45.21-5.93,66.68-13.06"/>
      <path class="cls-10" d="m530.82,771.24c15.24,16.77,35.13,29.51,55.5,38.65,20.62,9.26,42.96,15.42,65.22,18.89,22.36,3.48,45.37,4.35,67.93,2.67,22.52-1.67,45.21-5.93,66.68-13.06"/>
      <line class="cls-12" x1="530.73" y1="761.85" x2="530.73" y2="907.86"/>
      <line class="cls-12" x1="523.61" y1="764.34" x2="523.61" y2="910.35"/>
      <line class="cls-12" x1="519.69" y1="759.81" x2="519.69" y2="905.82"/>
      <line class="cls-12" x1="530.73" y1="768.13" x2="687.56" y2="713.33"/>
      <line class="cls-12" x1="530.73" y1="761.85" x2="687.56" y2="707.05"/>
    </g>
    <line class="cls-12" x1="530.73" y1="556.18" x2="523.61" y2="558.67"/>
    <line class="cls-12" x1="530.73" y1="556.18" x2="530.73" y2="761.85"/>
    <g class="cls-19">
      <line class="cls-12" x1="530.73" y1="562.46" x2="687.56" y2="507.66"/>
      <line class="cls-12" x1="530.73" y1="749.67" x2="683.64" y2="696.24"/>
    </g>
    <line class="cls-12" x1="523.61" y1="558.67" x2="523.61" y2="764.34"/>
    <line class="cls-12" x1="526.81" y1="551.65" x2="530.73" y2="556.18"/>
    <g class="cls-31">
      <line class="cls-12" x1="519.69" y1="554.14" x2="526.81" y2="551.65"/>
      <polyline class="cls-12" points="519.69 759.81 523.6 764.34 530.73 761.85"/>
      <line class="cls-12" x1="519.69" y1="554.14" x2="519.69" y2="759.81"/>
      <line class="cls-12" x1="523.61" y1="558.67" x2="519.69" y2="554.14"/>
      <line class="cls-12" x1="530.73" y1="556.18" x2="687.56" y2="501.38"/>
      <line class="cls-12" x1="530.73" y1="755.57" x2="687.56" y2="700.77"/>
      <line class="cls-12" x1="683.64" y1="496.85" x2="526.81" y2="551.65"/>
      <path class="cls-11" d="m546.85,746.3c0,.35.29.61.57.75.29.15.64.21.96.21s.67-.07.96-.21c.28-.14.57-.4.57-.75"/>
    </g>
    <line class="cls-11" x1="549.39" y1="744.73" x2="549.39" y2="745.67"/>
    <line class="cls-11" x1="547.36" y1="745.67" x2="547.36" y2="744.73"/>
    <g class="cls-41">
      <path class="cls-11" d="m547.36,745.67c0,.24.19.41.38.5.2.1.42.14.64.14s.45-.04.64-.14c.18-.09.38-.27.38-.5"/>
      <path class="cls-11" d="m547.25,745.65c-.21.15-.4.37-.4.65"/>
      <path class="cls-11" d="m549.9,746.46s0-.05,0-.08"/>
      <path class="cls-11" d="m549.9,746.3c0-.18-.08-.34-.19-.47"/>
      <path class="cls-11" d="m546.85,746.46c0,.35.29.61.57.75.29.15.64.22.96.22s.67-.07.96-.21c.28-.14.57-.4.57-.75"/>
    </g>
    <line class="cls-11" x1="549.9" y1="746.3" x2="549.9" y2="746.46"/>
    <g class="cls-24">
      <path class="cls-11" d="m549.71,745.83c-.06-.07-.12-.12-.19-.17"/>
      <path class="cls-11" d="m547.36,744.73c0-.15.03-.29.09-.42.01-.02.02-.04.03-.06.07-.12.16-.23.27-.32.07-.05.14-.09.21-.13.02,0,.05-.02.07-.03.17-.06.35-.07.52-.04.08.02.15.04.22.07.02.01.04.02.07.03.11.06.21.14.3.23"/>
      <path class="cls-11" d="m549.15,744.06c.05.06.09.12.12.18.05.09.08.19.1.29.01.07.02.13.02.2"/>
      <path class="cls-11" d="m586.06,732.62c0,.35.29.61.57.75.29.15.64.21.96.21s.67-.07.96-.21c.28-.14.57-.4.57-.75"/>
      <path class="cls-11" d="m586.57,731.99c0,.24.19.41.38.5.2.1.42.14.64.14s.45-.04.64-.14c.18-.09.38-.27.38-.5"/>
      <path class="cls-11" d="m586.45,731.96c-.21.15-.4.37-.4.65"/>
      <path class="cls-11" d="m589.11,732.77s0-.05,0-.08"/>
      <path class="cls-11" d="m589.11,732.62c0-.18-.08-.34-.19-.47"/>
      <path class="cls-11" d="m586.06,732.77c0,.35.29.61.57.75.29.15.64.22.96.22s.67-.07.96-.21c.28-.14.57-.4.57-.75"/>
      <path class="cls-11" d="m588.92,732.15c-.06-.07-.12-.12-.19-.17"/>
      <path class="cls-11" d="m586.57,731.05c0-.15.03-.29.09-.42.01-.02.02-.04.03-.06.07-.12.16-.24.27-.32.07-.05.14-.09.21-.12.02,0,.05-.02.07-.03.17-.06.35-.07.52-.04.08.01.15.04.22.07.02.01.04.02.07.03.11.06.21.14.3.23"/>
      <path class="cls-11" d="m588.35,730.38c.05.06.09.12.12.18.05.09.08.19.1.29.01.07.02.13.02.2"/>
    </g>
    <line class="cls-12" x1="57.02" y1="417.5" x2="64.54" y2="426.2"/>
    <g class="cls-8">
      <line class="cls-12" x1="64.54" y1="504.7" x2="-1.65" y2="428.17"/>
      <line class="cls-12" x1="64.54" y1="498.42" x2="3.41" y2="427.74"/>
      <line class="cls-12" x1="64.54" y1="487.69" x2="11.9" y2="426.83"/>
      <path class="cls-10" d="m-190.84,364.86c15.24,16.77,35.13,29.51,55.5,38.65,20.63,9.26,42.96,15.43,65.22,18.89,22.36,3.48,45.37,4.35,67.93,2.67,22.51-1.67,45.21-5.93,66.68-13.06"/>
      <path class="cls-10" d="m-190.84,368c15.24,16.77,35.13,29.51,55.5,38.65,20.63,9.26,42.96,15.43,65.22,18.89,22.36,3.48,45.37,4.35,67.93,2.67,22.51-1.67,45.21-5.93,66.68-13.06"/>
      <line class="cls-12" x1="64.54" y1="412.07" x2="-21.67" y2="312.39"/>
    </g>
    <line class="cls-12" x1="64.54" y1="405.79" x2="64.54" y2="498.42"/>
    <g class="cls-52">
      <line class="cls-12" x1="68.46" y1="410.32" x2="68.46" y2="556.33"/>
    </g>
    <line class="cls-12" x1="64.54" y1="504.7" x2="64.54" y2="551.8"/>
    <line class="cls-12" x1="64.54" y1="498.42" x2="64.54" y2="504.7"/>
    <g class="cls-45">
      <line class="cls-12" x1="64.54" y1="551.8" x2="68.46" y2="556.33"/>
      <line class="cls-12" x1="68.46" y1="556.33" x2="75.59" y2="553.84"/>
      <line class="cls-12" x1="75.59" y1="407.83" x2="75.59" y2="553.84"/>
      <line class="cls-12" x1="51.63" y1="390.86" x2="-8.94" y2="320.84"/>
      <line class="cls-12" x1="51.63" y1="384.58" x2="-8.94" y2="314.56"/>
    </g>
    <line class="cls-12" x1="64.54" y1="399.51" x2="55.72" y2="389.31"/>
    <line class="cls-11" x1="34.76" y1="360.26" x2="34.76" y2="359.31"/>
    <g class="cls-34">
      <path class="cls-11" d="m34.76,360.26c0,.3.31.49.55.57.26.09.57.1.83.03"/>
      <path class="cls-11" d="m12.7,335.96c0,.27.17.49.37.63.2.15.45.24.69.29.47.1,1.04.05,1.48-.2"/>
      <path class="cls-11" d="m13.2,335.34c0,.3.31.49.55.57.26.09.57.1.83.03"/>
      <line class="cls-12" x1="68.46" y1="204.65" x2="68.46" y2="410.32"/>
      <path class="cls-11" d="m34.25,360.96c.03.26.21.46.41.59.21.14.43.22.68.27.46.08,1.02.03,1.44-.21"/>
      <path class="cls-11" d="m34.65,360.23c-.21.15-.4.37-.4.65"/>
    </g>
    <line class="cls-12" x1="64.54" y1="405.79" x2="55.72" y2="395.59"/>
    <g class="cls-1">
      <path class="cls-11" d="m34.76,359.31s0-.03,0-.05"/>
      <path class="cls-11" d="m55.78,385.98c.03.26.21.46.41.59.21.14.44.22.68.27.46.08,1.02.03,1.44-.21"/>
    </g>
    <line class="cls-11" x1="57.05" y1="385.56" x2="57.9" y2="386.02"/>
    <line class="cls-11" x1="55.55" y1="386.09" x2="57.05" y2="385.56"/>
    <line class="cls-11" x1="55.55" y1="386.09" x2="51.63" y2="381.56"/>
    <line class="cls-11" x1="53.13" y1="381.03" x2="53.98" y2="381.49"/>
    <line class="cls-11" x1="51.63" y1="381.56" x2="53.13" y2="381.03"/>
    <line class="cls-11" x1="51.63" y1="392.19" x2="51.63" y2="381.56"/>
    <path class="cls-11" d="m55.55,397.75v-11.66,11.66Z"/>
    <g class="cls-20">
      <path class="cls-11" d="m51.68,393.28s-.01-.01-.02-.02c-.01-.02-.02-.05-.03-.07,0-.01,0-.03,0-.04,0-.03,0-.06,0-.09,0-.04,0-.08,0-.12v-.74"/>
    </g>
    <path class="cls-11" d="m55.55,397.75l-3.86-4.47,3.86,4.47Z"/>
    <g class="cls-7">
      <path class="cls-11" d="m13.09,335.31c-.21.15-.4.37-.4.65"/>
      <path class="cls-11" d="m13.2,334.39s0-.03,0-.05"/>
      <line class="cls-15" x1="-18.07" y1="298.19" x2="64.54" y2="393.7"/>
      <polyline class="cls-12" points="64.54 200.12 64.54 399.51 64.54 405.79"/>
      <polyline class="cls-12" points="75.59 202.16 75.59 407.83 68.46 410.32 64.54 405.79"/>
      <path class="cls-11" d="m-.19,114.54c.75-.28,1.05-.39,1.08-.35"/>
      <path class="cls-11" d="m-.01,114.75s.05-.02.08-.03c.16-.06.32-.12.48-.18.05-.02.09-.03.14-.05.03-.02.07-.03.1-.05.02,0,.03-.01.05-.02.03-.02.06-.04.09-.06.02-.02.04-.03.06-.05.01-.01.02-.02.03-.04,0-.01.02-.03.03-.04,0-.02.01-.03.02-.05,0,0,0-.02,0-.02,0-.02,0-.03,0-.05,0-.02-.01-.04-.03-.06"/>
      <path class="cls-11" d="m.89,114.18s0,.01,0,.02c-.01.06-.18.12-.42.21-.16.06-.35.13-.58.22"/>
      <path class="cls-11" d="m1.04,114.05s-.02-.02-.03-.02c-.01,0-.03-.01-.05-.02-.01,0-.03,0-.04,0-.02,0-.05,0-.07,0-.02,0-.03,0-.05.01-.03,0-.05.01-.08.02-.03,0-.06.02-.1.03-.07.02-.14.05-.21.07-.11.04-.21.08-.32.12-.13.05-.26.1-.4.15"/>
      <path class="cls-11" d="m61.78,184.23s-.02-.01-.03-.02c-.01,0-.03,0-.04-.01-.01,0-.02,0-.04,0-.02,0-.04,0-.06,0-.01,0-.03,0-.04,0-.02,0-.04.01-.07.02-.03,0-.05.01-.08.02-.06.02-.12.04-.18.05-.09.03-.18.06-.27.09-.12.04-.23.08-.35.12"/>
      <path class="cls-11" d="m64.47,189.26c.75-.28,1.05-.39,1.08-.35"/>
      <path class="cls-11" d="m64.65,189.48s.05-.02.08-.03c.16-.06.32-.12.48-.18.05-.02.09-.03.14-.05.04-.01.07-.03.1-.04.02,0,.03-.02.05-.02.03-.02.06-.04.09-.06.02-.02.04-.03.06-.05.01-.01.02-.02.03-.04.01-.01.02-.03.03-.04,0-.02.01-.03.02-.05,0,0,0-.02,0-.02,0-.02,0-.03,0-.05,0-.02-.01-.04-.03-.06"/>
      <path class="cls-11" d="m65.55,188.91s0,.01,0,.02c-.01.06-.18.12-.43.21-.16.06-.35.13-.58.22"/>
      <path class="cls-11" d="m65.7,188.77s-.02-.02-.03-.02c-.01,0-.03-.01-.05-.02-.01,0-.03,0-.04,0-.02,0-.05,0-.07,0-.02,0-.03,0-.05.01-.03,0-.05.02-.08.02-.03,0-.06.02-.1.03-.07.02-.14.05-.21.07-.11.04-.21.08-.32.12-.13.05-.26.1-.4.15"/>
      <path class="cls-11" d="m56.04,189.71v-.36c0-.09,0-.19,0-.28,0-.06,0-.12,0-.18,0-.03,0-.05,0-.08,0-.02,0-.04,0-.07,0-.01,0-.03,0-.04,0-.02-.01-.04-.02-.05,0,0-.01-.02-.02-.02"/>
      <path class="cls-11" d="m55.55,200.52v-10.63c0-.18,0-.35,0-.53v-.22s0-.08,0-.12c0-.03,0-.06,0-.09,0-.02,0-.03,0-.05,0-.03.01-.06.02-.09,0-.02.02-.04.03-.06,0-.01.02-.03.03-.04.01-.01.03-.03.04-.04.02-.02.05-.03.07-.05.02,0,.03-.02.05-.02.05-.01.09-.01.12,0,.01,0,.03.02.04.03,0,0,0,0,0,0"/>
      <path class="cls-11" d="m55.97,188.62l-3.92-4.53s0,0,0,0c-.01-.01-.02-.02-.04-.03-.03-.02-.08-.02-.12,0-.02,0-.03.01-.05.02-.02.01-.05.03-.07.05-.01.01-.03.03-.04.04-.01.01-.02.02-.03.04-.01.02-.03.04-.03.06-.01.03-.02.06-.03.09,0,.02,0,.03,0,.04,0,.03,0,.06,0,.1,0,.04,0,.08,0,.12v11.38"/>
    </g>
    <rect class="cls-13" x="28.85" y="231.52" width="537.71" height="576.83"/>
  </g>
</svg>