<?xml version="1.0" encoding="UTF-8"?>
<svg id="Layer_1" data-name="Layer 1" xmlns="http://www.w3.org/2000/svg" xmlns:xlink="http://www.w3.org/1999/xlink" viewBox="0 0 595.28 841.89">
  <defs>
    <style>
      .cls-1 {
        clip-path: url(#clippath-20);
      }

      .cls-2 {
        clip-path: url(#clippath-11);
      }

      .cls-3 {
        clip-path: url(#clippath-16);
      }

      .cls-4 {
        fill: #fff;
      }

      .cls-5 {
        clip-path: url(#clippath-33);
      }

      .cls-6 {
        clip-path: url(#clippath-32);
      }

      .cls-7 {
        clip-path: url(#clippath-2);
      }

      .cls-8 {
        fill: #726658;
      }

      .cls-9 {
        clip-path: url(#clippath-13);
      }

      .cls-10 {
        clip-path: url(#clippath-37);
      }

      .cls-11 {
        clip-path: url(#clippath-25);
      }

      .cls-12 {
        clip-path: url(#clippath-15);
      }

      .cls-13 {
        clip-path: url(#clippath-6);
      }

      .cls-14 {
        clip-path: url(#clippath-26);
      }

      .cls-15 {
        clip-path: url(#clippath-7);
      }

      .cls-16 {
        clip-path: url(#clippath-21);
      }

      .cls-17 {
        clip-path: url(#clippath-34);
      }

      .cls-18 {
        clip-path: url(#clippath-1);
      }

      .cls-19 {
        clip-path: url(#clippath-4);
      }

      .cls-20 {
        clip-path: url(#clippath-36);
      }

      .cls-21 {
        clip-path: url(#clippath-27);
      }

      .cls-22 {
        clip-path: url(#clippath-12);
      }

      .cls-23 {
        stroke: #d49355;
        stroke-linecap: round;
        stroke-linejoin: round;
      }

      .cls-23, .cls-24 {
        stroke-width: .75px;
      }

      .cls-23, .cls-24, .cls-25 {
        fill: none;
      }

      .cls-26 {
        clip-path: url(#clippath-24);
      }

      .cls-27 {
        clip-path: url(#clippath-30);
      }

      .cls-24 {
        stroke: #726658;
      }

      .cls-28 {
        clip-path: url(#clippath-22);
      }

      .cls-29 {
        clip-path: url(#clippath-9);
      }

      .cls-30 {
        clip-path: url(#clippath);
      }

      .cls-31 {
        clip-path: url(#clippath-19);
      }

      .cls-32 {
        clip-path: url(#clippath-31);
      }

      .cls-33 {
        clip-path: url(#clippath-3);
      }

      .cls-34 {
        clip-path: url(#clippath-8);
      }

      .cls-35 {
        clip-path: url(#clippath-29);
      }

      .cls-36 {
        clip-path: url(#clippath-18);
      }

      .cls-37 {
        clip-path: url(#clippath-14);
      }

      .cls-38 {
        clip-path: url(#clippath-17);
      }

      .cls-39 {
        clip-path: url(#clippath-5);
      }

      .cls-40 {
        clip-path: url(#clippath-10);
      }

      .cls-41 {
        clip-path: url(#clippath-23);
      }

      .cls-42 {
        clip-path: url(#clippath-28);
      }

      .cls-43 {
        clip-path: url(#clippath-35);
      }
    </style>
    <clipPath id="clippath">
      <rect class="cls-25" width="595.28" height="841.89"/>
    </clipPath>
    <clipPath id="clippath-1">
      <rect class="cls-25" width="595.28" height="841.89"/>
    </clipPath>
    <clipPath id="clippath-2">
      <rect class="cls-25" x="335.14" y="267.87" width="184.17" height="509.28"/>
    </clipPath>
    <clipPath id="clippath-3">
      <rect class="cls-25" x="335.14" y="267.87" width="184.17" height="509.28"/>
    </clipPath>
    <clipPath id="clippath-4">
      <rect class="cls-25" x="335.14" y="267.87" width="184.17" height="509.28"/>
    </clipPath>
    <clipPath id="clippath-5">
      <rect class="cls-25" x="335.14" y="267.87" width="184.17" height="509.28"/>
    </clipPath>
    <clipPath id="clippath-6">
      <rect class="cls-25" x="335.14" y="267.87" width="184.17" height="509.28"/>
    </clipPath>
    <clipPath id="clippath-7">
      <rect class="cls-25" x="335.14" y="267.87" width="184.17" height="509.28"/>
    </clipPath>
    <clipPath id="clippath-8">
      <rect class="cls-25" x="335.14" y="267.87" width="184.17" height="509.28"/>
    </clipPath>
    <clipPath id="clippath-9">
      <rect class="cls-25" x="335.14" y="267.87" width="184.17" height="509.28"/>
    </clipPath>
    <clipPath id="clippath-10">
      <rect class="cls-25" x="335.14" y="267.87" width="184.17" height="509.28"/>
    </clipPath>
    <clipPath id="clippath-11">
      <rect class="cls-25" x="335.14" y="267.87" width="184.17" height="509.28"/>
    </clipPath>
    <clipPath id="clippath-12">
      <rect class="cls-25" x="335.14" y="267.87" width="184.17" height="509.28"/>
    </clipPath>
    <clipPath id="clippath-13">
      <rect class="cls-25" x="335.14" y="267.87" width="184.17" height="509.28"/>
    </clipPath>
    <clipPath id="clippath-14">
      <rect class="cls-25" x="335.14" y="267.87" width="184.17" height="509.28"/>
    </clipPath>
    <clipPath id="clippath-15">
      <rect class="cls-25" x="335.14" y="267.87" width="184.17" height="509.28"/>
    </clipPath>
    <clipPath id="clippath-16">
      <rect class="cls-25" x="335.14" y="267.87" width="184.17" height="509.28"/>
    </clipPath>
    <clipPath id="clippath-17">
      <rect class="cls-25" x="335.14" y="267.87" width="184.17" height="509.28"/>
    </clipPath>
    <clipPath id="clippath-18">
      <rect class="cls-25" x="335.14" y="267.87" width="184.17" height="509.28"/>
    </clipPath>
    <clipPath id="clippath-19">
      <rect class="cls-25" x="335.14" y="267.87" width="184.17" height="509.28"/>
    </clipPath>
    <clipPath id="clippath-20">
      <rect class="cls-25" x="335.14" y="267.87" width="184.17" height="509.28"/>
    </clipPath>
    <clipPath id="clippath-21">
      <rect class="cls-25" x="75.96" y="267.87" width="179.67" height="452.68"/>
    </clipPath>
    <clipPath id="clippath-22">
      <rect class="cls-25" x="75.96" y="267.87" width="179.67" height="452.68"/>
    </clipPath>
    <clipPath id="clippath-23">
      <rect class="cls-25" x="75.96" y="267.87" width="179.67" height="452.68"/>
    </clipPath>
    <clipPath id="clippath-24">
      <rect class="cls-25" x="75.96" y="267.87" width="179.67" height="452.68"/>
    </clipPath>
    <clipPath id="clippath-25">
      <rect class="cls-25" x="75.96" y="267.87" width="179.67" height="452.68"/>
    </clipPath>
    <clipPath id="clippath-26">
      <rect class="cls-25" x="75.96" y="267.87" width="179.67" height="452.68"/>
    </clipPath>
    <clipPath id="clippath-27">
      <rect class="cls-25" x="75.96" y="267.87" width="179.67" height="452.68"/>
    </clipPath>
    <clipPath id="clippath-28">
      <rect class="cls-25" x="75.96" y="267.87" width="179.67" height="452.68"/>
    </clipPath>
    <clipPath id="clippath-29">
      <rect class="cls-25" x="75.96" y="267.87" width="179.67" height="452.68"/>
    </clipPath>
    <clipPath id="clippath-30">
      <rect class="cls-25" x="75.96" y="267.87" width="179.67" height="452.68"/>
    </clipPath>
    <clipPath id="clippath-31">
      <rect class="cls-25" x="75.96" y="267.87" width="179.67" height="452.68"/>
    </clipPath>
    <clipPath id="clippath-32">
      <rect class="cls-25" x="75.96" y="267.87" width="179.67" height="452.68"/>
    </clipPath>
    <clipPath id="clippath-33">
      <rect class="cls-25" x="75.96" y="267.87" width="179.67" height="452.68"/>
    </clipPath>
    <clipPath id="clippath-34">
      <rect class="cls-25" x="75.96" y="267.87" width="179.67" height="452.68"/>
    </clipPath>
    <clipPath id="clippath-35">
      <rect class="cls-25" x="75.96" y="267.87" width="179.67" height="452.68"/>
    </clipPath>
    <clipPath id="clippath-36">
      <rect class="cls-25" x="75.96" y="267.87" width="179.67" height="452.68"/>
    </clipPath>
    <clipPath id="clippath-37">
      <rect class="cls-25" x="75.96" y="267.87" width="179.67" height="452.68"/>
    </clipPath>
  </defs>
  <rect class="cls-4" width="595.28" height="841.89"/>
  <g class="cls-30">
    <g class="cls-18">
      <line class="cls-24" x1="535.85" y1="808.72" x2="535.85" y2="777.15"/>
      <line class="cls-24" x1="535.35" y1="777.15" x2="566.93" y2="777.15"/>
    </g>
    <path class="cls-8" d="m547.06,790.46h-3.52v-.32l3.56-5.07h.47v4.92h1.14v.46h-1.14v2.29h-.52v-2.29Zm0-3.26c0-.35.03-.97.05-1.32h-.05c-.19.33-.41.61-.62.96l-2.25,3.17h2.87v-2.81Z"/>
    <rect class="cls-24" x="28.78" y="231.9" width="537.77" height="576.45"/>
    <line class="cls-23" x1="500.31" y1="533.83" x2="493.31" y2="536.27"/>
    <line class="cls-23" x1="503.39" y1="521.76" x2="499.28" y2="523.19"/>
    <line class="cls-23" x1="346.56" y1="529.46" x2="346.56" y2="535.74"/>
    <line class="cls-23" x1="466.74" y1="487.47" x2="503.39" y2="474.66"/>
    <line class="cls-23" x1="466.74" y1="588.12" x2="516.67" y2="478.89"/>
    <line class="cls-23" x1="478.79" y1="619.84" x2="503.39" y2="611.25"/>
    <line class="cls-23" x1="346.56" y1="567.14" x2="346.56" y2="713.15"/>
    <line class="cls-23" x1="346.56" y1="330.06" x2="346.56" y2="529.46"/>
    <line class="cls-23" x1="458.93" y1="624.35" x2="456.66" y2="629.32"/>
    <line class="cls-23" x1="466.74" y1="632.08" x2="466.74" y2="718.43"/>
    <line class="cls-23" x1="508.85" y1="278.05" x2="458.93" y2="387.28"/>
    <line class="cls-23" x1="466.74" y1="395" x2="516.67" y2="285.77"/>
    <line class="cls-23" x1="346.56" y1="336.34" x2="503.39" y2="281.55"/>
    <line class="cls-23" x1="511.12" y1="510.16" x2="508.85" y2="515.12"/>
    <line class="cls-23" x1="508.85" y1="632.56" x2="508.85" y2="661.13"/>
    <line class="cls-23" x1="466.74" y1="699.89" x2="508.85" y2="607.75"/>
    <line class="cls-23" x1="466.74" y1="724.71" x2="516.67" y2="615.48"/>
    <line class="cls-23" x1="508.85" y1="278.05" x2="511.12" y2="273.08"/>
    <polyline class="cls-23" points="466.74 388.72 466.74 588.12 466.74 594.4"/>
    <line class="cls-23" x1="464.47" y1="393.69" x2="464.47" y2="599.36"/>
    <line class="cls-23" x1="456.66" y1="392.25" x2="456.66" y2="597.92"/>
    <line class="cls-23" x1="466.74" y1="646.21" x2="516.67" y2="536.98"/>
    <line class="cls-23" x1="458.93" y1="624.35" x2="508.85" y2="515.12"/>
    <line class="cls-23" x1="466.74" y1="632.08" x2="516.67" y2="522.85"/>
    <line class="cls-23" x1="500.99" y1="519.46" x2="503.39" y2="518.62"/>
    <line class="cls-23" x1="466.74" y1="531.43" x2="487.49" y2="524.17"/>
    <line class="cls-23" x1="346.56" y1="573.42" x2="456.66" y2="534.95"/>
    <line class="cls-23" x1="456.66" y1="538.09" x2="436.05" y2="545.29"/>
    <line class="cls-23" x1="456.66" y1="549.08" x2="346.56" y2="587.55"/>
    <line class="cls-23" x1="501.3" y1="519.35" x2="503.39" y2="521.76"/>
    <g class="cls-7">
      <path class="cls-23" d="m363.41,567.53c.02.06.05.11.09.16"/>
      <path class="cls-23" d="m441.82,540.13c.02.06.05.11.09.16"/>
      <path class="cls-23" d="m481.02,526.43c.02.06.05.11.09.16"/>
      <path class="cls-23" d="m402.61,553.83c.02.06.05.11.09.16"/>
    </g>
    <line class="cls-23" x1="414.23" y1="549.77" x2="417.6" y2="552.24"/>
    <line class="cls-23" x1="466.74" y1="493.75" x2="503.39" y2="480.94"/>
    <line class="cls-23" x1="346.56" y1="523.56" x2="456.66" y2="485.09"/>
    <line class="cls-23" x1="466.74" y1="481.57" x2="499.47" y2="470.13"/>
    <line class="cls-23" x1="499.47" y1="534.12" x2="499.47" y2="535.66"/>
    <line class="cls-23" x1="507.99" y1="479.33" x2="503.39" y2="480.94"/>
    <line class="cls-23" x1="507.16" y1="505.97" x2="510.52" y2="509.85"/>
    <line class="cls-23" x1="503.39" y1="514.21" x2="503.39" y2="518.62"/>
    <g class="cls-33">
      <path class="cls-23" d="m493.22,519.12c0-.19.15-.33.3-.4.17-.08.33-.12.51-.12s.35.03.51.12c.15.08.3.21.3.4"/>
      <path class="cls-23" d="m493.81,519.62c-.14-.03-.27-.07-.38-.15-.11-.08-.2-.2-.2-.34"/>
    </g>
    <line class="cls-23" x1="485.79" y1="527.91" x2="466.74" y2="534.57"/>
    <line class="cls-23" x1="479.81" y1="540.99" x2="466.74" y2="545.56"/>
    <line class="cls-23" x1="413.9" y1="553.03" x2="346.56" y2="576.56"/>
    <line class="cls-23" x1="416.66" y1="553.22" x2="421.52" y2="556.77"/>
    <line class="cls-23" x1="428.43" y1="554.36" x2="433.29" y2="547.41"/>
    <g class="cls-19">
      <path class="cls-23" d="m365.02,567.44c0-.17-.13-.3-.27-.38"/>
      <path class="cls-23" d="m443.43,540.04c0-.17-.13-.3-.27-.38"/>
      <path class="cls-23" d="m482.64,526.34c0-.17-.13-.3-.27-.38"/>
      <path class="cls-23" d="m404.23,553.74c0-.17-.13-.3-.27-.38"/>
      <path class="cls-23" d="m363.49,567.69c.2.23.58.29.85.26.16-.02.3-.06.43-.14.12-.08.24-.2.24-.37"/>
      <path class="cls-23" d="m441.91,540.29c.2.23.58.29.85.26.16-.02.3-.05.43-.14.12-.08.24-.2.24-.37"/>
      <path class="cls-23" d="m481.11,526.59c.2.23.58.29.85.26.16-.02.3-.06.43-.14.12-.08.24-.21.24-.37"/>
      <path class="cls-23" d="m402.7,553.99c.2.23.58.29.85.26.16-.02.3-.06.43-.14.12-.08.24-.21.24-.37"/>
      <path class="cls-23" d="m436.05,545.29c-1.1.38-2.1,1.18-2.76,2.12"/>
      <path class="cls-23" d="m416.66,553.22c-.81-.59-1.92-.49-2.76-.19"/>
    </g>
    <line class="cls-23" x1="503.39" y1="521.76" x2="503.39" y2="527.08"/>
    <line class="cls-23" x1="424.51" y1="549.83" x2="427.88" y2="545"/>
    <g class="cls-39">
      <path class="cls-23" d="m417.6,552.24c.55.4,1.23.55,1.9.53.67-.01,1.33-.19,1.94-.45,1.21-.52,2.32-1.43,3.07-2.5"/>
      <path class="cls-23" d="m421.52,556.77c.55.4,1.23.55,1.89.53.67-.01,1.33-.19,1.94-.45,1.21-.52,2.32-1.43,3.07-2.5"/>
    </g>
    <line class="cls-23" x1="346.56" y1="529.46" x2="456.66" y2="490.99"/>
    <g class="cls-13">
      <path class="cls-23" d="m404.23,506.64c0,.16-.12.29-.24.37-.14.09-.28.12-.43.14-.27.03-.65-.03-.85-.26"/>
      <path class="cls-23" d="m402.6,506.64c0-.19.15-.33.3-.4.17-.08.33-.12.51-.12s.35.03.51.12c.15.07.3.21.3.4"/>
      <path class="cls-23" d="m482.64,479.24c0,.16-.12.29-.24.37-.14.09-.28.12-.43.14-.27.03-.65-.03-.85-.26"/>
      <path class="cls-23" d="m481.01,479.24c0-.19.15-.33.3-.4.17-.08.33-.12.51-.12s.35.03.51.12c.15.07.3.21.3.4"/>
      <path class="cls-23" d="m443.43,492.94c0,.16-.12.29-.24.37-.14.09-.28.12-.43.14-.27.03-.65-.03-.85-.26"/>
      <path class="cls-23" d="m441.81,492.94c0-.19.16-.33.3-.4.17-.09.33-.12.51-.12s.35.03.51.12c.15.07.3.21.3.4"/>
      <path class="cls-23" d="m365.02,520.34c0,.16-.12.29-.24.37-.14.09-.28.12-.43.14-.27.03-.65-.03-.85-.26"/>
      <path class="cls-23" d="m363.39,520.34c0-.19.15-.33.3-.4.17-.08.33-.12.51-.12s.35.03.51.12c.15.08.3.21.3.4"/>
    </g>
    <line class="cls-23" x1="499.47" y1="470.13" x2="503.39" y2="474.66"/>
    <line class="cls-23" x1="503.39" y1="474.66" x2="503.39" y2="480.94"/>
    <line class="cls-23" x1="346.56" y1="535.74" x2="456.66" y2="497.27"/>
    <g class="cls-15">
      <path class="cls-23" d="m402.7,506.89c-.06-.07-.1-.15-.1-.25"/>
      <path class="cls-23" d="m481.11,479.49c-.06-.07-.1-.15-.1-.25"/>
      <path class="cls-23" d="m441.91,493.19c-.06-.07-.1-.15-.1-.25"/>
      <path class="cls-23" d="m363.49,520.59c-.06-.07-.1-.15-.1-.25"/>
      <path class="cls-23" d="m468.85,574.24c-.17-.03-.35-.1-.47-.23-.13-.14-.16-.32-.05-.48.2-.29.67-.34.97-.28.17.03.35.1.47.23.13.14.16.32.05.48-.2.29-.67.34-.97.28Z"/>
      <path class="cls-23" d="m482.37,546.43c0,.23-.22.38-.41.45-.2.07-.43.09-.63.05"/>
      <path class="cls-23" d="m480.74,546.43c0-.19.15-.33.3-.4.17-.09.33-.12.51-.12s.35.03.51.12c.15.07.3.21.3.4"/>
      <path class="cls-23" d="m494.85,519.12c0,.23-.23.38-.41.45-.2.07-.43.09-.63.05"/>
      <path class="cls-23" d="m507.33,491.82c0,.23-.22.38-.41.45-.2.07-.43.09-.63.05"/>
      <path class="cls-23" d="m505.71,491.82c0-.19.15-.33.3-.4.17-.08.33-.12.51-.12s.35.03.51.12c.15.08.3.21.3.4"/>
      <path class="cls-23" d="m481.33,546.93c-.14-.03-.26-.07-.38-.15-.11-.08-.2-.2-.2-.34"/>
      <path class="cls-23" d="m506.29,492.31c-.14-.02-.26-.07-.38-.15-.11-.08-.2-.2-.2-.34"/>
    </g>
    <line class="cls-23" x1="516.67" y1="478.88" x2="516.67" y2="485.16"/>
    <line class="cls-23" x1="508.85" y1="477.44" x2="516.67" y2="478.88"/>
    <line class="cls-23" x1="346.56" y1="567.14" x2="339.43" y2="569.63"/>
    <g class="cls-34">
      <line class="cls-23" x1="464.47" y1="630.76" x2="464.47" y2="776.77"/>
    </g>
    <line class="cls-23" x1="456.66" y1="629.32" x2="464.47" y2="630.76"/>
    <line class="cls-23" x1="508.85" y1="302.86" x2="508.85" y2="477.44"/>
    <g class="cls-29">
      <path class="cls-23" d="m507.33,529.5c0-.27-.29-.42-.5-.48-.23-.06-.5-.05-.72.03-.12.04-.22.1-.31.2-.08.1-.12.21-.09.34.07.24.36.37.57.4"/>
      <path class="cls-23" d="m494.85,556.81c0-.19-.16-.33-.3-.4-.17-.08-.33-.11-.51-.11s-.35.03-.51.11c-.15.08-.3.21-.3.4"/>
      <path class="cls-23" d="m469.89,611.42c0-.19-.16-.33-.3-.4-.17-.09-.33-.12-.51-.12s-.35.03-.51.12c-.15.07-.3.21-.3.4"/>
      <path class="cls-23" d="m506.29,529.99c.21.04.44.02.63-.05.18-.07.41-.22.41-.45"/>
      <path class="cls-23" d="m493.81,557.3c.21.04.44.02.63-.05.18-.07.41-.22.41-.45"/>
      <path class="cls-23" d="m468.85,611.92c.21.04.44.02.63-.05.18-.07.41-.22.41-.45"/>
    </g>
    <line class="cls-23" x1="466.74" y1="625.8" x2="458.93" y2="624.35"/>
    <line class="cls-23" x1="466.74" y1="625.8" x2="516.67" y2="516.57"/>
    <line class="cls-23" x1="466.74" y1="525.15" x2="490.91" y2="516.7"/>
    <line class="cls-23" x1="487.27" y1="587.15" x2="488.91" y2="587.46"/>
    <line class="cls-23" x1="503.39" y1="518.62" x2="503.39" y2="521.76"/>
    <line class="cls-23" x1="516.67" y1="522.84" x2="516.67" y2="525.99"/>
    <line class="cls-23" x1="466.74" y1="519.25" x2="494.12" y2="509.68"/>
    <line class="cls-23" x1="516.67" y1="279.49" x2="508.85" y2="278.05"/>
    <line class="cls-23" x1="466.74" y1="388.72" x2="516.67" y2="279.49"/>
    <line class="cls-23" x1="516.67" y1="609.2" x2="508.85" y2="607.75"/>
    <line class="cls-23" x1="466.74" y1="718.43" x2="516.67" y2="609.2"/>
    <line class="cls-23" x1="464.47" y1="393.69" x2="456.66" y2="392.25"/>
    <line class="cls-23" x1="495.23" y1="572.89" x2="516.67" y2="525.99"/>
    <line class="cls-23" x1="516.67" y1="525.99" x2="515.34" y2="525.74"/>
    <line class="cls-23" x1="466.74" y1="635.22" x2="488.18" y2="588.31"/>
    <line class="cls-23" x1="485.41" y1="605.35" x2="499.47" y2="600.44"/>
    <line class="cls-23" x1="482.2" y1="612.37" x2="503.39" y2="604.97"/>
    <line class="cls-23" x1="503.39" y1="644.52" x2="503.39" y2="658.35"/>
    <line class="cls-23" x1="499.47" y1="653.1" x2="499.47" y2="653.82"/>
    <line class="cls-23" x1="508.85" y1="656.44" x2="503.39" y2="658.35"/>
    <line class="cls-23" x1="503.39" y1="566.02" x2="503.39" y2="604.97"/>
    <line class="cls-23" x1="499.47" y1="574.6" x2="499.47" y2="600.44"/>
    <line class="cls-23" x1="466.74" y1="724.71" x2="466.74" y2="771.81"/>
    <line class="cls-23" x1="516.67" y1="285.77" x2="516.67" y2="478.88"/>
    <line class="cls-23" x1="346.56" y1="330.06" x2="339.43" y2="332.56"/>
    <line class="cls-23" x1="346.56" y1="666.05" x2="457.6" y2="627.25"/>
    <line class="cls-23" x1="346.56" y1="653.87" x2="464.23" y2="612.75"/>
    <line class="cls-23" x1="346.56" y1="659.77" x2="461.02" y2="619.77"/>
    <line class="cls-23" x1="503.39" y1="611.25" x2="503.39" y2="619.71"/>
    <line class="cls-23" x1="499.47" y1="612.62" x2="499.47" y2="628.29"/>
    <line class="cls-23" x1="510.52" y1="509.85" x2="504.41" y2="511.98"/>
    <line class="cls-23" x1="510.52" y1="509.85" x2="510.52" y2="511.49"/>
    <line class="cls-23" x1="503.39" y1="658.35" x2="499.47" y2="653.82"/>
    <line class="cls-23" x1="503.39" y1="604.97" x2="503.39" y2="611.25"/>
    <line class="cls-23" x1="499.47" y1="600.44" x2="503.39" y2="604.97"/>
    <line class="cls-23" x1="339.43" y1="569.63" x2="339.43" y2="715.64"/>
    <line class="cls-23" x1="346.56" y1="713.15" x2="339.43" y2="715.64"/>
    <line class="cls-23" x1="342.64" y1="562.61" x2="346.56" y2="567.14"/>
    <g class="cls-40">
      <line class="cls-23" x1="335.52" y1="565.1" x2="342.64" y2="562.61"/>
      <line class="cls-23" x1="339.43" y1="715.64" x2="335.52" y2="711.11"/>
      <line class="cls-23" x1="335.52" y1="565.1" x2="335.52" y2="711.11"/>
      <line class="cls-23" x1="339.43" y1="569.63" x2="335.52" y2="565.1"/>
    </g>
    <line class="cls-23" x1="339.43" y1="332.56" x2="339.43" y2="538.23"/>
    <line class="cls-23" x1="346.56" y1="535.74" x2="339.43" y2="538.23"/>
    <g class="cls-2">
      <line class="cls-23" x1="335.52" y1="328.02" x2="342.64" y2="325.53"/>
      <line class="cls-23" x1="339.43" y1="538.23" x2="335.52" y2="533.7"/>
      <line class="cls-23" x1="335.52" y1="328.02" x2="335.52" y2="533.7"/>
      <line class="cls-23" x1="339.43" y1="332.56" x2="335.52" y2="328.02"/>
    </g>
    <line class="cls-23" x1="503.39" y1="314.82" x2="503.39" y2="474.66"/>
    <line class="cls-23" x1="499.47" y1="323.39" x2="499.47" y2="470.13"/>
    <g class="cls-22">
      <line class="cls-23" x1="464.47" y1="776.77" x2="466.74" y2="771.81"/>
    </g>
    <line class="cls-23" x1="464.47" y1="630.76" x2="466.74" y2="625.8"/>
    <line class="cls-23" x1="456.66" y1="629.32" x2="456.66" y2="775.33"/>
    <g class="cls-9">
      <line class="cls-23" x1="456.66" y1="775.33" x2="464.47" y2="776.77"/>
    </g>
    <line class="cls-23" x1="516.67" y1="285.77" x2="516.67" y2="279.49"/>
    <line class="cls-23" x1="346.56" y1="330.06" x2="503.39" y2="275.27"/>
    <line class="cls-23" x1="503.39" y1="281.55" x2="503.39" y2="290.01"/>
    <line class="cls-23" x1="499.47" y1="282.91" x2="499.47" y2="298.58"/>
    <line class="cls-23" x1="510.52" y1="272.78" x2="503.39" y2="275.27"/>
    <g class="cls-37">
      <line class="cls-23" x1="506.6" y1="268.24" x2="510.52" y2="272.78"/>
      <line class="cls-23" x1="499.47" y1="270.74" x2="506.6" y2="268.24"/>
    </g>
    <line class="cls-23" x1="510.52" y1="272.78" x2="510.52" y2="274.41"/>
    <line class="cls-23" x1="342.64" y1="325.53" x2="346.56" y2="330.06"/>
    <line class="cls-23" x1="499.47" y1="270.74" x2="342.64" y2="325.53"/>
    <line class="cls-23" x1="503.39" y1="275.27" x2="499.47" y2="270.74"/>
    <line class="cls-23" x1="503.39" y1="281.55" x2="503.39" y2="275.27"/>
    <line class="cls-23" x1="516.67" y1="536.98" x2="516.67" y2="609.2"/>
    <line class="cls-23" x1="508.85" y1="554.07" x2="508.85" y2="607.75"/>
    <line class="cls-23" x1="516.67" y1="615.48" x2="516.67" y2="662.58"/>
    <g class="cls-12">
      <line class="cls-23" x1="518.94" y1="511.6" x2="511.12" y2="510.16"/>
      <line class="cls-23" x1="516.67" y1="662.58" x2="518.94" y2="657.61"/>
      <line class="cls-23" x1="518.94" y1="511.6" x2="518.94" y2="657.61"/>
      <line class="cls-23" x1="516.67" y1="516.57" x2="518.94" y2="511.6"/>
    </g>
    <line class="cls-23" x1="508.85" y1="661.13" x2="516.67" y2="662.57"/>
    <line class="cls-23" x1="516.67" y1="615.47" x2="516.67" y2="609.2"/>
    <line class="cls-23" x1="466.74" y1="724.71" x2="466.74" y2="718.43"/>
    <g class="cls-3">
      <line class="cls-23" x1="511.12" y1="273.08" x2="518.94" y2="274.53"/>
      <line class="cls-23" x1="518.94" y1="274.53" x2="518.94" y2="480.2"/>
      <line class="cls-23" x1="518.94" y1="480.2" x2="516.67" y2="485.17"/>
      <line class="cls-23" x1="518.94" y1="274.53" x2="516.67" y2="279.49"/>
    </g>
    <line class="cls-23" x1="466.74" y1="594.4" x2="464.47" y2="599.36"/>
    <line class="cls-23" x1="466.74" y1="388.72" x2="464.47" y2="393.69"/>
    <line class="cls-23" x1="458.93" y1="387.28" x2="466.74" y2="388.72"/>
    <line class="cls-23" x1="456.66" y1="392.25" x2="458.93" y2="387.28"/>
    <line class="cls-23" x1="464.47" y1="599.36" x2="456.66" y2="597.92"/>
    <g class="cls-38">
      <path class="cls-23" d="m488.91,587.46c.06.01.1.05.14.09"/>
      <path class="cls-23" d="m490.78,589.53c.09.02.18-.02.25-.07.12-.08.2-.19.28-.3.13-.19.24-.39.34-.6.2-.42.35-.84.49-1.28.28-.88.49-1.76.65-2.67"/>
      <path class="cls-23" d="m494.35,575.97c.17-.95.47-2.19.88-3.08"/>
      <path class="cls-23" d="m488.18,588.31c.08-.18.17-.36.28-.52.08-.11.26-.37.45-.34"/>
    </g>
    <line class="cls-23" x1="489.06" y1="587.55" x2="490.6" y2="589.41"/>
    <line class="cls-23" x1="516.67" y1="525.99" x2="516.67" y2="536.98"/>
    <line class="cls-23" x1="492.8" y1="584.6" x2="494.35" y2="575.97"/>
    <g class="cls-36">
      <path class="cls-23" d="m490.6,589.41c.05.06.1.1.18.11"/>
      <path class="cls-23" d="m493.22,556.81c0,.15.1.26.2.34.12.08.24.13.38.15"/>
      <path class="cls-23" d="m482.37,584.11c0-.19-.16-.33-.3-.4-.17-.09-.33-.12-.51-.12s-.35.03-.51.12c-.15.07-.3.21-.3.4"/>
      <path class="cls-23" d="m480.74,584.11c0,.15.09.27.2.34.12.08.24.13.38.15"/>
      <path class="cls-23" d="m468.26,611.42c0,.15.1.27.2.34.12.09.24.13.38.15"/>
      <path class="cls-23" d="m481.33,584.61c.21.04.44.02.63-.05.18-.07.41-.22.41-.45"/>
    </g>
    <line class="cls-23" x1="516.67" y1="516.57" x2="508.85" y2="515.12"/>
    <line class="cls-23" x1="516.67" y1="522.85" x2="516.67" y2="516.57"/>
    <line class="cls-23" x1="466.74" y1="632.08" x2="466.74" y2="625.8"/>
    <g class="cls-31">
      <path class="cls-23" d="m363.49,558.27c-.13-.15-.14-.33-.01-.48.11-.14.29-.22.45-.25.3-.07.76-.02.99.24.13.15.14.33.01.48-.11.14-.29.22-.45.25-.3.07-.76.02-.98-.24Z"/>
    </g>
    <line class="cls-23" x1="346.56" y1="567.14" x2="456.66" y2="528.67"/>
    <g class="cls-1">
      <path class="cls-23" d="m443.43,530.62c0,.16-.12.29-.24.37-.14.08-.28.12-.43.14-.27.03-.65-.03-.85-.26"/>
      <path class="cls-23" d="m441.81,530.62c0-.19.16-.33.3-.4.17-.09.33-.12.51-.12s.35.03.51.12c.15.07.3.21.3.4"/>
      <path class="cls-23" d="m482.64,516.92c0,.16-.12.29-.24.37-.14.09-.28.12-.43.14-.27.03-.65-.03-.85-.26"/>
      <path class="cls-23" d="m481.01,516.92c0-.19.15-.33.3-.4.17-.09.33-.12.51-.12s.35.03.51.12c.15.08.3.21.3.4"/>
      <path class="cls-23" d="m404.23,544.32c0,.16-.12.29-.24.37-.14.08-.28.12-.43.14-.27.03-.65-.03-.85-.26"/>
      <path class="cls-23" d="m402.6,544.32c0-.19.15-.33.3-.4.17-.09.33-.12.51-.12s.35.03.51.12c.15.07.3.21.3.4"/>
      <path class="cls-23" d="m441.91,530.87c-.06-.07-.1-.15-.1-.25"/>
      <path class="cls-23" d="m481.11,517.17c-.06-.07-.1-.15-.1-.25"/>
      <path class="cls-23" d="m402.7,544.57c-.06-.07-.1-.15-.1-.25"/>
    </g>
    <line class="cls-23" x1="342.64" y1="562.61" x2="456.66" y2="522.77"/>
    <line class="cls-23" x1="466.74" y1="569.58" x2="508.85" y2="477.44"/>
    <line class="cls-23" x1="466.74" y1="594.4" x2="516.67" y2="485.17"/>
    <line class="cls-23" x1="91.31" y1="533.99" x2="91.31" y2="540.27"/>
    <line class="cls-23" x1="91.31" y1="533.99" x2="248.13" y2="479.19"/>
    <line class="cls-23" x1="180.79" y1="549.82" x2="248.13" y2="526.29"/>
    <line class="cls-23" x1="91.31" y1="592.08" x2="248.13" y2="537.28"/>
    <line class="cls-23" x1="91.31" y1="577.95" x2="248.13" y2="523.15"/>
    <line class="cls-23" x1="91.31" y1="670.58" x2="248.13" y2="615.78"/>
    <line class="cls-23" x1="91.31" y1="571.67" x2="91.31" y2="717.68"/>
    <line class="cls-23" x1="91.31" y1="340.88" x2="248.13" y2="286.08"/>
    <line class="cls-23" x1="91.31" y1="340.88" x2="91.31" y2="533.99"/>
    <line class="cls-23" x1="91.31" y1="528.09" x2="244.21" y2="474.66"/>
    <g class="cls-16">
      <path class="cls-23" d="m227.12,530.49c.13.08.26.21.26.38"/>
      <path class="cls-23" d="m187.91,544.19c.13.08.26.21.26.38"/>
      <path class="cls-23" d="m148.7,557.89c.13.08.26.21.26.38"/>
      <path class="cls-23" d="m109.5,571.59c.13.08.27.21.27.38"/>
    </g>
    <line class="cls-23" x1="158.97" y1="554.3" x2="162.35" y2="556.77"/>
    <line class="cls-23" x1="240.29" y1="540.02" x2="240.29" y2="600.44"/>
    <line class="cls-23" x1="244.21" y1="538.65" x2="244.21" y2="604.97"/>
    <line class="cls-23" x1="248.13" y1="537.28" x2="248.13" y2="609.5"/>
    <g class="cls-28">
      <path class="cls-23" d="m108.24,525.12c-.13-.15-.14-.33-.01-.48.11-.14.29-.22.45-.25.3-.07.76-.02.99.24.13.15.14.33.01.48-.11.14-.29.22-.45.25-.3.07-.76.02-.99-.24Z"/>
      <path class="cls-23" d="m148.97,511.17c0,.16-.12.29-.24.37-.14.08-.28.12-.43.14-.27.03-.65-.03-.85-.26"/>
      <path class="cls-23" d="m147.34,511.17c0-.19.15-.33.3-.4.16-.09.33-.12.51-.12s.35.03.51.12c.15.08.3.21.3.4"/>
      <path class="cls-23" d="m188.17,497.47c0,.16-.12.29-.24.37-.14.09-.28.12-.43.14-.27.03-.65-.03-.85-.26"/>
      <path class="cls-23" d="m186.55,497.47c0-.19.15-.33.3-.4.17-.09.33-.12.51-.12s.35.03.51.12c.15.07.3.21.3.4"/>
      <path class="cls-23" d="m227.38,483.77c0,.16-.12.29-.24.37-.14.08-.28.12-.43.14-.27.03-.65-.03-.85-.26"/>
      <path class="cls-23" d="m225.75,483.77c0-.19.15-.33.3-.4.17-.09.33-.12.51-.12s.35.03.51.12c.15.08.3.21.3.4"/>
      <path class="cls-23" d="m147.44,511.42c-.07-.07-.1-.15-.1-.25"/>
      <path class="cls-23" d="m186.65,497.72c-.06-.07-.1-.15-.1-.25"/>
      <path class="cls-23" d="m225.86,484.02c-.06-.07-.1-.15-.1-.25"/>
    </g>
    <line class="cls-23" x1="248.13" y1="479.19" x2="248.13" y2="485.47"/>
    <line class="cls-23" x1="244.21" y1="474.66" x2="248.13" y2="479.19"/>
    <line class="cls-23" x1="91.31" y1="540.27" x2="248.13" y2="485.47"/>
    <line class="cls-23" x1="91.31" y1="581.09" x2="158.64" y2="557.56"/>
    <g class="cls-41">
      <path class="cls-23" d="m227.38,530.87c0,.16-.12.29-.24.37-.14.08-.28.12-.43.14-.27.03-.65-.03-.85-.26"/>
      <path class="cls-23" d="m188.17,544.57c0,.16-.12.29-.24.37-.14.08-.28.12-.43.14-.27.03-.65-.03-.85-.26"/>
      <path class="cls-23" d="m148.97,558.27c0,.16-.12.29-.24.37-.14.08-.28.12-.43.14-.27.03-.65-.03-.85-.26"/>
      <path class="cls-23" d="m109.76,571.97c0,.16-.12.29-.24.37-.14.09-.28.12-.43.14-.27.03-.65-.03-.85-.26"/>
      <path class="cls-23" d="m225.86,531.12s-.07-.1-.09-.16"/>
      <path class="cls-23" d="m108.24,572.22s-.07-.1-.09-.16"/>
      <path class="cls-23" d="m147.44,558.52s-.07-.1-.09-.16"/>
      <path class="cls-23" d="m186.65,544.82s-.07-.1-.09-.16"/>
      <path class="cls-23" d="m178.03,551.94c.66-.94,1.67-1.74,2.76-2.12"/>
      <path class="cls-23" d="m158.64,557.56c.85-.3,1.96-.4,2.76.19"/>
    </g>
    <line class="cls-23" x1="161.41" y1="557.75" x2="166.27" y2="561.3"/>
    <line class="cls-23" x1="248.13" y1="526.29" x2="246.04" y2="523.88"/>
    <line class="cls-23" x1="248.13" y1="526.29" x2="248.13" y2="537.28"/>
    <line class="cls-23" x1="173.17" y1="558.89" x2="178.03" y2="551.94"/>
    <g class="cls-26">
      <path class="cls-23" d="m166.27,561.3c.55.4,1.23.55,1.89.53.67-.01,1.33-.19,1.94-.45,1.21-.52,2.32-1.43,3.07-2.5"/>
    </g>
    <line class="cls-23" x1="87.39" y1="567.14" x2="244.21" y2="512.34"/>
    <line class="cls-23" x1="91.31" y1="571.67" x2="248.13" y2="516.87"/>
    <line class="cls-23" x1="91.31" y1="571.67" x2="87.39" y2="567.14"/>
    <line class="cls-23" x1="84.18" y1="337.09" x2="84.18" y2="542.76"/>
    <line class="cls-23" x1="91.31" y1="522.19" x2="240.29" y2="470.13"/>
    <line class="cls-23" x1="248.13" y1="523.15" x2="248.13" y2="526.29"/>
    <g class="cls-11">
      <path class="cls-23" d="m145.05,506.64c0,.16-.12.29-.24.37-.14.09-.28.12-.43.14-.27.03-.65-.03-.85-.26"/>
      <path class="cls-23" d="m143.42,506.64c0-.19.15-.33.3-.4.17-.08.33-.12.51-.12s.35.03.51.12c.15.08.3.21.3.4"/>
      <path class="cls-23" d="m223.46,479.24c0,.16-.12.29-.24.37-.14.08-.28.12-.43.14-.27.03-.65-.03-.85-.26"/>
      <path class="cls-23" d="m221.84,479.24c0-.19.15-.33.3-.4.16-.09.33-.12.51-.12s.35.03.51.12c.15.07.3.21.3.4"/>
      <path class="cls-23" d="m184.26,492.94c0,.16-.12.29-.24.37-.14.08-.28.12-.43.14-.27.03-.65-.03-.85-.26"/>
      <path class="cls-23" d="m182.63,492.94c0-.19.15-.33.3-.4.17-.09.33-.12.51-.12s.35.03.51.12c.15.08.3.21.3.4"/>
      <path class="cls-23" d="m105.84,520.34c0,.16-.12.29-.24.37-.14.08-.28.12-.43.14-.27.03-.65-.03-.85-.26"/>
      <path class="cls-23" d="m104.22,520.34c0-.19.15-.33.3-.4.17-.09.33-.12.51-.12s.35.03.51.12c.15.07.3.21.3.4"/>
    </g>
    <line class="cls-23" x1="240.29" y1="470.13" x2="244.21" y2="474.66"/>
    <g class="cls-14">
      <path class="cls-23" d="m143.52,506.89c-.07-.08-.1-.15-.1-.25"/>
      <path class="cls-23" d="m221.94,479.49c-.06-.07-.1-.15-.1-.25"/>
      <path class="cls-23" d="m182.73,493.19c-.07-.07-.1-.15-.1-.25"/>
      <path class="cls-23" d="m104.32,520.59c-.07-.07-.1-.15-.1-.25"/>
      <path class="cls-23" d="m227.38,521.45c0-.21-.2-.36-.36-.43-.18-.08-.39-.1-.59-.08-.19.02-.4.09-.54.22-.16.16-.18.36-.03.53"/>
      <path class="cls-23" d="m188.17,535.15c0-.19-.15-.33-.3-.4-.17-.09-.33-.12-.51-.12s-.35.03-.51.12c-.15.08-.3.21-.3.4"/>
      <path class="cls-23" d="m186.55,535.15c0,.1.04.18.1.25"/>
      <path class="cls-23" d="m148.97,548.85c0-.19-.15-.33-.3-.4-.17-.09-.33-.12-.51-.12s-.35.03-.51.12c-.15.07-.3.21-.3.4"/>
      <path class="cls-23" d="m147.34,548.85c0,.1.04.18.1.25"/>
      <path class="cls-23" d="m109.76,562.55c0-.19-.16-.33-.3-.4-.17-.09-.33-.12-.51-.12s-.35.03-.51.12c-.15.08-.3.21-.3.4"/>
      <path class="cls-23" d="m108.14,562.55c0,.1.04.18.1.25"/>
      <path class="cls-23" d="m225.86,521.7c.2.23.58.29.85.26.16-.02.3-.06.43-.14.12-.08.24-.21.24-.37"/>
      <path class="cls-23" d="m186.65,535.4c.2.23.58.29.85.26.16-.02.3-.06.43-.14.12-.08.24-.2.24-.37"/>
      <path class="cls-23" d="m147.44,549.1c.2.23.58.29.85.26.16-.02.3-.06.43-.14.12-.08.24-.21.24-.37"/>
      <path class="cls-23" d="m108.24,562.8c.2.23.58.29.85.26.16-.02.3-.06.43-.14.12-.08.24-.21.24-.37"/>
    </g>
    <line class="cls-23" x1="248.13" y1="516.87" x2="244.21" y2="512.34"/>
    <line class="cls-23" x1="248.13" y1="523.15" x2="248.13" y2="516.87"/>
    <line class="cls-23" x1="87.39" y1="567.14" x2="80.26" y2="569.63"/>
    <line class="cls-23" x1="91.31" y1="664.3" x2="248.13" y2="609.5"/>
    <line class="cls-23" x1="84.18" y1="574.16" x2="91.31" y2="571.67"/>
    <g class="cls-21">
      <line class="cls-23" x1="84.18" y1="574.16" x2="84.18" y2="720.17"/>
    </g>
    <line class="cls-23" x1="91.31" y1="658.4" x2="244.21" y2="604.97"/>
    <line class="cls-23" x1="91.31" y1="340.88" x2="91.31" y2="334.6"/>
    <line class="cls-23" x1="91.31" y1="334.6" x2="248.13" y2="279.8"/>
    <line class="cls-23" x1="91.31" y1="334.6" x2="84.18" y2="337.09"/>
    <line class="cls-23" x1="80.26" y1="332.56" x2="87.39" y2="330.06"/>
    <line class="cls-23" x1="248.13" y1="286.08" x2="248.13" y2="479.19"/>
    <g class="cls-42">
      <line class="cls-23" x1="255.26" y1="277.31" x2="248.13" y2="279.8"/>
    </g>
    <line class="cls-23" x1="240.29" y1="288.82" x2="240.29" y2="470.13"/>
    <line class="cls-23" x1="240.29" y1="618.52" x2="240.29" y2="653.82"/>
    <line class="cls-23" x1="244.21" y1="617.15" x2="244.21" y2="658.35"/>
    <line class="cls-23" x1="248.13" y1="615.78" x2="248.13" y2="662.88"/>
    <line class="cls-23" x1="91.31" y1="652.5" x2="240.29" y2="600.44"/>
    <line class="cls-23" x1="169.25" y1="554.36" x2="172.63" y2="549.53"/>
    <g class="cls-35">
      <path class="cls-23" d="m162.35,556.77c.55.4,1.23.55,1.9.53.67-.01,1.33-.19,1.94-.45,1.21-.52,2.32-1.43,3.07-2.5"/>
      <line class="cls-23" x1="247.42" y1="268.24" x2="251.34" y2="272.78"/>
      <line class="cls-23" x1="240.29" y1="270.74" x2="247.42" y2="268.25"/>
    </g>
    <line class="cls-23" x1="240.29" y1="270.74" x2="83.47" y2="325.53"/>
    <line class="cls-23" x1="244.21" y1="275.27" x2="240.29" y2="270.74"/>
    <line class="cls-23" x1="248.13" y1="609.5" x2="244.21" y2="604.97"/>
    <line class="cls-23" x1="248.13" y1="615.78" x2="248.13" y2="609.5"/>
    <g class="cls-27">
      <line class="cls-23" x1="84.18" y1="720.17" x2="91.31" y2="717.68"/>
    </g>
    <line class="cls-23" x1="80.26" y1="569.63" x2="80.26" y2="715.64"/>
    <g class="cls-32">
      <line class="cls-23" x1="80.26" y1="715.64" x2="84.18" y2="720.17"/>
    </g>
    <line class="cls-23" x1="80.26" y1="569.63" x2="84.18" y2="574.16"/>
    <g class="cls-6">
      <line class="cls-23" x1="248.13" y1="516.87" x2="255.26" y2="514.38"/>
    </g>
    <line class="cls-23" x1="240.29" y1="600.44" x2="244.21" y2="604.97"/>
    <line class="cls-23" x1="247.42" y1="505.32" x2="251.34" y2="509.85"/>
    <line class="cls-23" x1="240.29" y1="507.81" x2="247.42" y2="505.32"/>
    <line class="cls-23" x1="244.21" y1="658.35" x2="240.29" y2="653.82"/>
    <line class="cls-23" x1="83.47" y1="562.61" x2="87.39" y2="567.14"/>
    <g class="cls-5">
      <line class="cls-23" x1="76.34" y1="565.1" x2="83.47" y2="562.61"/>
      <line class="cls-23" x1="80.26" y1="715.64" x2="76.34" y2="711.11"/>
      <line class="cls-23" x1="76.34" y1="565.1" x2="76.34" y2="711.11"/>
      <line class="cls-23" x1="80.26" y1="569.63" x2="76.34" y2="565.1"/>
    </g>
    <line class="cls-23" x1="83.47" y1="325.53" x2="87.39" y2="330.06"/>
    <g class="cls-17">
      <line class="cls-23" x1="76.34" y1="328.03" x2="83.47" y2="325.53"/>
      <line class="cls-23" x1="80.26" y1="538.23" x2="76.34" y2="533.7"/>
      <line class="cls-23" x1="76.34" y1="328.03" x2="76.34" y2="533.7"/>
      <line class="cls-23" x1="80.26" y1="332.56" x2="76.34" y2="328.03"/>
    </g>
    <line class="cls-23" x1="244.21" y1="287.45" x2="244.21" y2="474.66"/>
    <line class="cls-23" x1="251.34" y1="509.85" x2="244.21" y2="512.34"/>
    <g class="cls-43">
      <line class="cls-23" x1="255.26" y1="514.38" x2="251.34" y2="509.85"/>
      <line class="cls-23" x1="248.13" y1="662.88" x2="255.26" y2="660.39"/>
      <line class="cls-23" x1="255.26" y1="514.38" x2="255.26" y2="660.39"/>
    </g>
    <line class="cls-23" x1="244.21" y1="658.35" x2="248.13" y2="662.88"/>
    <line class="cls-23" x1="87.39" y1="330.06" x2="91.31" y2="334.6"/>
    <line class="cls-23" x1="244.21" y1="275.27" x2="87.39" y2="330.06"/>
    <line class="cls-23" x1="248.13" y1="279.8" x2="244.21" y2="275.27"/>
    <line class="cls-23" x1="248.13" y1="286.08" x2="248.13" y2="279.8"/>
    <line class="cls-23" x1="91.31" y1="540.27" x2="84.18" y2="542.76"/>
    <line class="cls-23" x1="84.18" y1="542.76" x2="80.26" y2="538.23"/>
    <line class="cls-23" x1="80.26" y1="332.56" x2="80.26" y2="538.23"/>
    <line class="cls-23" x1="84.18" y1="337.09" x2="80.26" y2="332.56"/>
    <g class="cls-20">
      <line class="cls-23" x1="251.34" y1="272.78" x2="255.26" y2="277.31"/>
    </g>
    <line class="cls-23" x1="244.21" y1="275.27" x2="251.34" y2="272.78"/>
    <g class="cls-10">
      <line class="cls-23" x1="255.26" y1="277.31" x2="255.26" y2="482.98"/>
      <line class="cls-23" x1="255.26" y1="482.98" x2="248.13" y2="485.47"/>
      <path class="cls-23" d="m104.32,558.27c-.13-.15-.14-.33-.01-.48.11-.14.29-.22.45-.25.3-.07.76-.02.99.24.13.15.14.33.01.48-.11.14-.29.22-.45.25-.3.07-.76.03-.98-.24Z"/>
      <path class="cls-23" d="m184.26,530.62c0,.16-.12.29-.24.37-.14.08-.28.12-.43.14-.27.03-.65-.03-.85-.26"/>
      <path class="cls-23" d="m182.63,530.62c0-.19.15-.33.3-.4.17-.09.33-.12.51-.12s.35.03.51.12c.15.07.3.21.3.4"/>
      <path class="cls-23" d="m223.46,516.92c0,.16-.12.29-.24.37-.14.09-.28.12-.43.14-.27.03-.65-.03-.85-.26"/>
      <path class="cls-23" d="m221.84,516.92c0-.19.15-.33.3-.4.16-.09.33-.12.51-.12s.35.03.51.12c.15.07.3.21.3.4"/>
      <path class="cls-23" d="m145.05,544.32c0,.16-.12.29-.24.37-.14.08-.28.12-.43.14-.27.03-.65-.03-.85-.26"/>
      <path class="cls-23" d="m143.42,544.32c0-.19.15-.33.3-.4.17-.09.33-.12.51-.12s.35.03.51.12c.15.07.3.21.3.4"/>
      <path class="cls-23" d="m182.73,530.87c-.07-.07-.1-.15-.1-.25"/>
      <path class="cls-23" d="m221.94,517.17c-.06-.07-.1-.15-.1-.25"/>
      <path class="cls-23" d="m143.52,544.57c-.07-.07-.1-.15-.1-.25"/>
    </g>
    <line class="cls-23" x1="240.29" y1="507.81" x2="244.21" y2="512.34"/>
    <line class="cls-23" x1="83.47" y1="562.61" x2="240.29" y2="507.81"/>
    <path class="cls-8" d="m44.67,55.57c0-2.5,1.36-4.07,3.26-4.07s3.25,1.57,3.25,4.07-1.36,4.12-3.25,4.12-3.26-1.62-3.26-4.12Zm5.93,0c0-2.19-1.07-3.57-2.68-3.57s-2.68,1.38-2.68,3.57,1.07,3.62,2.68,3.62,2.68-1.43,2.68-3.62Zm2.34-1.78h.45l.06.72h.03c.56-.45,1.25-.87,1.95-.87,1.54,0,2.31,1.16,2.31,2.94,0,1.95-1.18,3.11-2.54,3.11-.55,0-1.13-.26-1.73-.71v1.06s0,2.11,0,2.11h-.53v-8.37Zm4.24,2.8c0-1.42-.5-2.47-1.83-2.47-.57,0-1.18.34-1.87.95v3.42c.65.54,1.26.74,1.7.74,1.17,0,2.01-1.07,2.01-2.64Zm4.31-2.94c1.36,0,2.2.97,2.2,2.66,0,.14,0,.29-.03.43h-4.14c.02,1.45.87,2.49,2.17,2.49.62,0,1.12-.21,1.55-.51l.22.4c-.45.28-.97.57-1.82.57-1.47,0-2.66-1.13-2.66-3.01s1.22-3.03,2.51-3.03Zm1.71,2.66c0-1.47-.67-2.2-1.7-2.2-.97,0-1.85.83-1.97,2.2h3.67Zm2.06-2.52h.45l.06.89h.03c.59-.59,1.19-1.04,1.98-1.04,1.19,0,1.74.72,1.74,2.21v3.69h-.53v-3.62c0-1.22-.39-1.8-1.31-1.8-.69,0-1.18.36-1.88,1.08v4.34h-.53v-5.76Zm8.67,3.69v-3.69h.53v3.62c0,1.22.39,1.8,1.31,1.8.69,0,1.18-.36,1.86-1.18v-4.25h.53v5.76h-.45l-.06-.96h-.03c-.57.66-1.16,1.11-1.95,1.11-1.19,0-1.74-.72-1.74-2.21Zm6.44-3.69h.45l.06.72h.03c.56-.45,1.25-.87,1.95-.87,1.54,0,2.31,1.16,2.31,2.94,0,1.95-1.18,3.11-2.54,3.11-.55,0-1.13-.26-1.73-.71v1.06s0,2.11,0,2.11h-.53v-8.37Zm4.24,2.8c0-1.42-.5-2.47-1.83-2.47-.57,0-1.18.34-1.87.95v3.42c.65.54,1.26.74,1.7.74,1.17,0,2.01-1.07,2.01-2.64Zm5.22,2.38h-.03l-.06.58h-.44v-8.63h.53v2.5l-.03,1.12c.58-.49,1.28-.9,1.98-.9,1.54,0,2.31,1.16,2.31,2.94,0,1.96-1.18,3.11-2.54,3.11-.55,0-1.18-.29-1.73-.73Zm3.71-2.38c0-1.42-.5-2.47-1.83-2.47-.57,0-1.2.34-1.87.95v3.42c.63.54,1.26.74,1.7.74,1.17,0,2.01-1.07,2.01-2.64Zm1.77.09c0-1.93,1.2-3.03,2.59-3.03s2.59,1.11,2.59,3.03-1.2,3.01-2.59,3.01-2.59-1.11-2.59-3.01Zm4.62,0c0-1.52-.87-2.57-2.03-2.57s-2.03,1.05-2.03,2.57.87,2.55,2.03,2.55,2.03-1.03,2.03-2.55Zm2.42,1.28v-3.71h-.9v-.41l.91-.05.07-1.67h.45v1.67h1.67v.46h-1.67v3.75c0,.74.18,1.23.98,1.23.21,0,.51-.09.72-.18l.14.43c-.33.12-.7.22-.94.22-1.11,0-1.43-.7-1.43-1.73Zm3.59-7.04h.53v3.77c.59-.6,1.19-1.05,1.98-1.05,1.19,0,1.74.72,1.74,2.21v3.69h-.53v-3.62c0-1.22-.39-1.8-1.31-1.8-.69,0-1.18.36-1.88,1.08v4.34h-.53v-8.63Zm8.85,7.04v-3.71h-.9v-.41l.91-.05.07-1.67h.45v1.67h1.67v.46h-1.67v3.75c0,.74.18,1.23.98,1.23.21,0,.51-.09.72-.18l.14.43c-.33.12-.7.22-.94.22-1.11,0-1.43-.7-1.43-1.73Zm3.59-7.04h.53v3.77c.59-.6,1.19-1.05,1.98-1.05,1.19,0,1.74.72,1.74,2.21v3.69h-.53v-3.62c0-1.22-.39-1.8-1.31-1.8-.69,0-1.18.36-1.88,1.08v4.34h-.53v-8.63Zm8.36,2.72c1.36,0,2.2.97,2.2,2.66,0,.14,0,.29-.03.43h-4.14c.02,1.45.87,2.49,2.17,2.49.62,0,1.12-.21,1.55-.51l.22.4c-.45.28-.97.57-1.82.57-1.47,0-2.66-1.13-2.66-3.01s1.22-3.03,2.51-3.03Zm1.71,2.66c0-1.47-.67-2.2-1.7-2.2-.97,0-1.85.83-1.97,2.2h3.67Zm4.35,1.18v-3.69h.53v3.62c0,1.22.39,1.8,1.31,1.8.69,0,1.18-.36,1.86-1.18v-4.25h.53v5.76h-.45l-.06-.96h-.03c-.57.66-1.16,1.11-1.95,1.11-1.19,0-1.74-.72-1.74-2.21Zm6.44-3.69h.45l.06.72h.03c.56-.45,1.25-.87,1.95-.87,1.54,0,2.31,1.16,2.31,2.94,0,1.95-1.18,3.11-2.54,3.11-.55,0-1.13-.26-1.73-.71v1.06s0,2.11,0,2.11h-.53v-8.37Zm4.24,2.8c0-1.42-.5-2.47-1.83-2.47-.57,0-1.18.34-1.87.95v3.42c.65.54,1.26.74,1.7.74,1.17,0,2.01-1.07,2.01-2.64Zm2.29-2.8h.45l.06.72h.03c.56-.45,1.25-.87,1.95-.87,1.54,0,2.31,1.16,2.31,2.94,0,1.95-1.18,3.11-2.54,3.11-.55,0-1.13-.26-1.73-.71v1.06s0,2.11,0,2.11h-.53v-8.37Zm4.24,2.8c0-1.42-.5-2.47-1.83-2.47-.57,0-1.18.34-1.87.95v3.42c.65.54,1.26.74,1.7.74,1.17,0,2.01-1.07,2.01-2.64Zm4.31-2.94c1.36,0,2.2.97,2.2,2.66,0,.14,0,.29-.03.43h-4.14c.02,1.45.87,2.49,2.17,2.49.62,0,1.12-.21,1.55-.51l.22.4c-.45.28-.97.57-1.82.57-1.47,0-2.66-1.13-2.66-3.01s1.22-3.03,2.51-3.03Zm1.71,2.66c0-1.47-.67-2.2-1.7-2.2-.97,0-1.85.83-1.97,2.2h3.67Zm2.06-2.52h.45l.06,1.07h.03c.39-.71.95-1.22,1.64-1.22.21,0,.38.03.57.12l-.12.48c-.19-.07-.3-.1-.52-.1-.52,0-1.13.39-1.57,1.48v3.92h-.53v-5.76Zm5.4.05l.79-.05v-1.28c0-1.14.51-1.73,1.42-1.73.27,0,.58.08.84.19l-.14.43c-.24-.12-.47-.16-.69-.16-.62,0-.9.47-.9,1.3v1.24h1.33v.46h-1.33v5.3h-.53v-5.3h-.79v-.41Zm3.87-.05h.45l.06,1.07h.03c.39-.71.95-1.22,1.64-1.22.21,0,.38.03.57.12l-.12.48c-.19-.07-.3-.1-.52-.1-.52,0-1.13.39-1.57,1.48v3.92h-.53v-5.76Zm3.14,4.33c0-1.28,1.15-1.89,3.72-2.17.02-.89-.23-1.83-1.36-1.83-.78,0-1.45.38-1.84.68l-.24-.39c.41-.29,1.21-.75,2.14-.75,1.36,0,1.83.99,1.83,2.22v3.68h-.45l-.06-.75h-.03c-.59.47-1.29.89-2.04.89-.91,0-1.67-.5-1.67-1.58Zm3.72.19v-1.96c-2.37.27-3.17.82-3.17,1.74,0,.83.56,1.14,1.22,1.14s1.24-.32,1.95-.93Zm2.59-4.52h.45l.06.89h.03c.52-.59,1.18-1.04,1.82-1.04.92,0,1.39.47,1.59,1.18.65-.72,1.29-1.18,1.95-1.18,1.15,0,1.72.72,1.72,2.21v3.69h-.53v-3.62c0-1.22-.41-1.8-1.29-1.8-.54,0-1.09.36-1.72,1.08v4.34h-.53v-3.62c0-1.22-.41-1.8-1.29-1.8-.52,0-1.09.36-1.72,1.08v4.34h-.53v-5.76Zm11.77-.14c1.36,0,2.2.97,2.2,2.66,0,.14,0,.29-.03.43h-4.14c.02,1.45.87,2.49,2.17,2.49.62,0,1.12-.21,1.55-.51l.22.4c-.45.28-.97.57-1.82.57-1.47,0-2.66-1.13-2.66-3.01s1.22-3.03,2.51-3.03Zm1.71,2.66c0-1.47-.67-2.2-1.7-2.2-.97,0-1.85.83-1.97,2.2h3.67Zm4.03,1.81c0-1.28,1.15-1.89,3.72-2.17.02-.89-.23-1.83-1.36-1.83-.78,0-1.45.38-1.84.68l-.24-.39c.41-.29,1.21-.75,2.14-.75,1.36,0,1.83.99,1.83,2.22v3.68h-.45l-.06-.75h-.03c-.59.47-1.29.89-2.04.89-.91,0-1.67-.5-1.67-1.58Zm3.72.19v-1.96c-2.37.27-3.17.82-3.17,1.74,0,.83.56,1.14,1.22,1.14s1.24-.32,1.95-.93Zm2.59-4.52h.45l.06.89h.03c.59-.59,1.19-1.04,1.98-1.04,1.19,0,1.74.72,1.74,2.21v3.69h-.53v-3.62c0-1.22-.39-1.8-1.31-1.8-.69,0-1.18.36-1.88,1.08v4.34h-.53v-5.76Zm5.9,2.89c0-1.86,1.18-3.03,2.55-3.03.69,0,1.16.26,1.74.71l-.03-1.06v-2.37h.53v8.63h-.45l-.06-.75h-.03c-.47.47-1.11.89-1.88.89-1.44,0-2.38-1.07-2.38-3.01Zm4.26,1.59v-3.42c-.61-.54-1.11-.74-1.68-.74-1.14,0-2.03,1.12-2.03,2.56,0,1.53.68,2.55,1.9,2.55.64,0,1.2-.33,1.8-.95Z"/>
    <path class="cls-8" d="m45.25,73.56v-3.71h-.9v-.41l.91-.05.07-1.67h.45v1.67h1.67v.46h-1.67v3.75c0,.74.18,1.23.98,1.23.21,0,.51-.09.72-.18l.14.43c-.33.12-.7.22-.94.22-1.11,0-1.43-.7-1.43-1.73Zm3.59-7.04h.53v3.77c.59-.6,1.19-1.05,1.98-1.05,1.19,0,1.74.72,1.74,2.21v3.69h-.53v-3.62c0-1.22-.39-1.8-1.31-1.8-.69,0-1.18.36-1.88,1.08v4.34h-.53v-8.63Zm8.36,2.72c1.36,0,2.2.97,2.2,2.66,0,.14,0,.29-.03.43h-4.14c.02,1.45.87,2.49,2.17,2.49.62,0,1.12-.21,1.55-.51l.22.4c-.45.28-.97.57-1.82.57-1.47,0-2.66-1.13-2.66-3.01s1.22-3.03,2.51-3.03Zm1.71,2.66c0-1.47-.67-2.2-1.7-2.2-.97,0-1.85.83-1.97,2.2h3.67Zm4.44,2.47v-7.86h.53v7.93c0,.26.11.38.25.38.05,0,.1,0,.22-.02l.09.43c-.11.03-.21.06-.38.06-.46,0-.7-.29-.7-.92Zm4.87-5.13c1.36,0,2.2.97,2.2,2.66,0,.14,0,.29-.03.43h-4.14c.02,1.45.87,2.49,2.17,2.49.62,0,1.12-.21,1.55-.51l.22.4c-.45.28-.97.57-1.82.57-1.47,0-2.66-1.13-2.66-3.01s1.22-3.03,2.51-3.03Zm1.71,2.66c0-1.47-.67-2.2-1.7-2.2-.97,0-1.85.83-1.97,2.2h3.67Zm1.46,4.42c0-.5.33-1.01.86-1.39v-.05c-.29-.17-.51-.48-.51-.92,0-.52.37-.88.63-1.06v-.05c-.37-.31-.73-.88-.73-1.58,0-1.18.9-2.03,2.03-2.03.31,0,.59.07.77.14h1.95v.45h-1.34c.37.32.64.84.64,1.44,0,1.18-.89,2.03-2.01,2.03-.32,0-.69-.09-.95-.25-.25.21-.47.45-.47.83,0,.41.24.75,1.1.75h1.23c1.29,0,1.9.41,1.9,1.32,0,.99-1.06,1.95-2.72,1.95-1.45,0-2.37-.62-2.37-1.6Zm4.55-.29c0-.64-.46-.88-1.33-.88h-1.23c-.11,0-.41-.02-.71-.09-.53.36-.76.8-.76,1.21,0,.73.7,1.22,1.91,1.22,1.3,0,2.13-.73,2.13-1.46Zm-.78-4.76c0-.97-.67-1.59-1.49-1.59s-1.49.61-1.49,1.59.7,1.62,1.49,1.62,1.49-.65,1.49-1.62Zm1.85,3.22l.31-.39c.49.41,1.01.73,1.83.73.91,0,1.38-.53,1.38-1.14,0-.72-.75-1.04-1.41-1.28-.87-.31-1.79-.66-1.79-1.65,0-.83.66-1.53,1.86-1.53.62,0,1.23.26,1.65.6l-.29.38c-.39-.29-.8-.53-1.37-.53-.9,0-1.3.52-1.3,1.05,0,.66.63.91,1.32,1.17.89.34,1.88.63,1.88,1.76,0,.87-.69,1.62-1.94,1.62-.85,0-1.6-.36-2.11-.8Zm7.44-2.22c0-1.93,1.2-3.03,2.59-3.03s2.59,1.11,2.59,3.03-1.2,3.01-2.59,3.01-2.59-1.11-2.59-3.01Zm4.62,0c0-1.52-.87-2.57-2.03-2.57s-2.03,1.05-2.03,2.57.87,2.55,2.03,2.55,2.03-1.03,2.03-2.55Zm1.58-2.84l.79-.05v-1.28c0-1.14.51-1.73,1.42-1.73.27,0,.58.08.84.19l-.14.43c-.24-.12-.47-.16-.69-.16-.62,0-.9.47-.9,1.3v1.24h1.33v.46h-1.33v5.3h-.53v-5.3h-.79v-.41Zm5.12-2.19h.59l1.2,2.47c.28.58.53,1.13.84,1.71h.05c.3-.58.6-1.13.86-1.71l1.2-2.47h.56l-2.37,4.7v3.2h-.55v-3.2l-2.37-4.7Zm6.46,0h4.32v.47h-3.77v2.99h3.17v.47h-3.17v3.49h3.89v.47h-4.44v-7.9Zm6.18,0h.55v7.43h3.64v.47h-4.19v-7.9Zm5.6,0h.55v7.43h3.64v.47h-4.19v-7.9Zm4.86,3.93c0-2.5,1.36-4.07,3.26-4.07s3.25,1.57,3.25,4.07-1.36,4.12-3.25,4.12-3.26-1.62-3.26-4.12Zm5.93,0c0-2.19-1.07-3.57-2.68-3.57s-2.68,1.38-2.68,3.57,1.07,3.62,2.68,3.62,2.68-1.43,2.68-3.62Zm1.46-3.93h.58l.99,4.66c.18.86.36,1.72.54,2.58h.05c.19-.86.4-1.72.6-2.58l1.24-4.66h.56l1.24,4.66c.21.86.42,1.72.63,2.58h.05c.18-.86.34-1.72.52-2.58l.99-4.66h.54l-1.77,7.9h-.61l-1.44-5.43c-.14-.62-.28-1.16-.42-1.78h-.05c-.14.62-.3,1.16-.44,1.78l-1.42,5.43h-.6l-1.8-7.9Zm10.07,0h2.14c1.59,0,2.6.6,2.6,1.92,0,.82-.43,1.48-1.22,1.72v.05c1.02.17,1.71.81,1.71,1.91,0,1.52-1.15,2.3-2.94,2.3h-2.29v-7.9Zm1.92,3.48c1.62,0,2.28-.57,2.28-1.5,0-1.11-.77-1.51-2.21-1.51h-1.43v3.02h1.36Zm.23,3.97c1.57,0,2.54-.57,2.54-1.84,0-1.14-.92-1.68-2.54-1.68h-1.6v3.51h1.6Zm4.79-7.44h4.32v.47h-3.77v2.99h3.17v.47h-3.17v3.49h3.89v.47h-4.44v-7.9Zm6.18,0h.55v7.43h3.64v.47h-4.19v-7.9Zm5.6,0h.55v7.43h3.64v.47h-4.19v-7.9Zm3.63,0h.59l1.2,2.47c.28.58.53,1.13.84,1.71h.05c.3-.58.6-1.13.86-1.71l1.2-2.47h.56l-2.37,4.7v3.2h-.55v-3.2l-2.37-4.7Zm8.94,6.31v-3.71h-.9v-.41l.91-.05.07-1.67h.45v1.67h1.67v.46h-1.67v3.75c0,.74.18,1.23.98,1.23.21,0,.51-.09.72-.18l.14.43c-.33.12-.7.22-.94.22-1.11,0-1.43-.7-1.43-1.73Zm2.99-1.28c0-1.93,1.2-3.03,2.59-3.03s2.59,1.11,2.59,3.03-1.2,3.01-2.59,3.01-2.59-1.11-2.59-3.01Zm4.62,0c0-1.52-.87-2.57-2.03-2.57s-2.03,1.05-2.03,2.57.87,2.55,2.03,2.55,2.03-1.03,2.03-2.55Zm4.26,2.27l.32-.36c.34.41.81.64,1.3.64,1.21,0,2.26-.97,2.28-3.78-.53.65-1.22,1.06-1.94,1.06-1.34,0-2.13-.83-2.13-2.37,0-1.39.96-2.4,2.1-2.4,1.53,0,2.5,1.29,2.5,3.62,0,3.21-1.34,4.34-2.82,4.34-.71,0-1.23-.3-1.62-.74Zm1.92-6.76c-.89,0-1.55.85-1.55,1.94s.49,1.93,1.66,1.93c.54,0,1.24-.32,1.86-1.16-.1-1.62-.72-2.7-1.97-2.7Zm3.73,3.5c0-2.55.83-3.95,2.29-3.95s2.29,1.41,2.29,3.95-.83,4-2.29,4-2.29-1.45-2.29-4Zm4.04,0c0-2.34-.69-3.49-1.75-3.49s-1.75,1.15-1.75,3.49.69,3.54,1.75,3.54,1.75-1.2,1.75-3.54Zm1.62-2.91c0-.9.66-1.43,1.37-1.43s1.37.53,1.37,1.43-.66,1.41-1.37,1.41-1.37-.53-1.37-1.41Zm2.33,0c0-.61-.4-1.06-.96-1.06s-.96.44-.96,1.06.4,1.03.96,1.03.96-.44.96-1.03Z"/>
    <path class="cls-8" d="m29.42,59.08h1.8v-6.35h-1.37v-.36c.63-.1,1.11-.28,1.47-.48h.43v7.2h1.67v.47h-4v-.47Z"/>
    <line class="cls-24" x1="234.79" y1="43.94" x2="234.79" y2="231.15"/>
  </g>
</svg>