<?xml version="1.0" encoding="UTF-8"?>
<svg id="Layer_1" data-name="Layer 1" xmlns="http://www.w3.org/2000/svg" xmlns:xlink="http://www.w3.org/1999/xlink" viewBox="0 0 595.28 841.89">
  <defs>
    <style>
      .cls-1 {
        clip-path: url(#clippath-11);
      }

      .cls-2 {
        fill: #fff;
      }

      .cls-3 {
        stroke: #d59354;
      }

      .cls-3, .cls-4, .cls-5, .cls-6 {
        stroke-linecap: round;
        stroke-linejoin: round;
      }

      .cls-3, .cls-4, .cls-5, .cls-6, .cls-7 {
        stroke-width: .75px;
      }

      .cls-3, .cls-4, .cls-5, .cls-6, .cls-7, .cls-8 {
        fill: none;
      }

      .cls-9 {
        clip-path: url(#clippath-2);
      }

      .cls-10 {
        fill: #726658;
      }

      .cls-11 {
        clip-path: url(#clippath-13);
      }

      .cls-12 {
        clip-path: url(#clippath-15);
      }

      .cls-13 {
        clip-path: url(#clippath-6);
      }

      .cls-14 {
        clip-path: url(#clippath-7);
      }

      .cls-15 {
        clip-path: url(#clippath-1);
      }

      .cls-16 {
        clip-path: url(#clippath-4);
      }

      .cls-4 {
        stroke: #726758;
      }

      .cls-17 {
        clip-path: url(#clippath-12);
      }

      .cls-5, .cls-7 {
        stroke: #726658;
      }

      .cls-6 {
        stroke: #d49355;
      }

      .cls-18 {
        clip-path: url(#clippath-9);
      }

      .cls-19 {
        clip-path: url(#clippath);
      }

      .cls-20 {
        clip-path: url(#clippath-3);
      }

      .cls-21 {
        clip-path: url(#clippath-8);
      }

      .cls-22 {
        clip-path: url(#clippath-14);
      }

      .cls-23 {
        clip-path: url(#clippath-5);
      }

      .cls-24 {
        clip-path: url(#clippath-10);
      }
    </style>
    <clipPath id="clippath">
      <rect class="cls-8" width="595.28" height="841.89"/>
    </clipPath>
    <clipPath id="clippath-1">
      <rect class="cls-8" width="595.28" height="841.89"/>
    </clipPath>
    <clipPath id="clippath-2">
      <rect class="cls-8" x="320.87" y="256.4" width="198.44" height="463.69"/>
    </clipPath>
    <clipPath id="clippath-3">
      <rect class="cls-8" x="320.87" y="256.4" width="198.44" height="463.69"/>
    </clipPath>
    <clipPath id="clippath-4">
      <rect class="cls-8" x="320.87" y="256.4" width="198.44" height="463.69"/>
    </clipPath>
    <clipPath id="clippath-5">
      <rect class="cls-8" x="320.87" y="256.4" width="198.44" height="463.69"/>
    </clipPath>
    <clipPath id="clippath-6">
      <rect class="cls-8" x="320.87" y="256.4" width="198.44" height="463.69"/>
    </clipPath>
    <clipPath id="clippath-7">
      <rect class="cls-8" x="320.87" y="256.4" width="198.44" height="463.69"/>
    </clipPath>
    <clipPath id="clippath-8">
      <rect class="cls-8" x="320.87" y="256.4" width="198.44" height="463.69"/>
    </clipPath>
    <clipPath id="clippath-9">
      <rect class="cls-8" x="75.96" y="256.4" width="198.44" height="463.69"/>
    </clipPath>
    <clipPath id="clippath-10">
      <rect class="cls-8" x="75.96" y="256.4" width="198.44" height="463.69"/>
    </clipPath>
    <clipPath id="clippath-11">
      <rect class="cls-8" x="75.96" y="256.4" width="198.44" height="463.69"/>
    </clipPath>
    <clipPath id="clippath-12">
      <rect class="cls-8" x="75.96" y="256.4" width="198.44" height="463.69"/>
    </clipPath>
    <clipPath id="clippath-13">
      <rect class="cls-8" x="75.96" y="256.4" width="198.44" height="463.69"/>
    </clipPath>
    <clipPath id="clippath-14">
      <rect class="cls-8" x="75.96" y="256.4" width="198.44" height="463.69"/>
    </clipPath>
    <clipPath id="clippath-15">
      <rect class="cls-8" x="75.96" y="256.4" width="198.44" height="463.69"/>
    </clipPath>
  </defs>
  <rect class="cls-2" width="595.28" height="841.89"/>
  <g class="cls-19">
    <g class="cls-15">
      <line class="cls-7" x1="535.85" y1="808.72" x2="535.85" y2="777.15"/>
      <line class="cls-7" x1="535.35" y1="777.15" x2="566.93" y2="777.15"/>
    </g>
    <path class="cls-10" d="m544.01,792.15l.32-.36c.34.41.81.64,1.3.64,1.21,0,2.26-.97,2.28-3.78-.53.65-1.22,1.06-1.94,1.06-1.34,0-2.13-.83-2.13-2.37,0-1.39.96-2.4,2.1-2.4,1.53,0,2.5,1.29,2.5,3.62,0,3.21-1.34,4.34-2.82,4.34-.71,0-1.23-.3-1.62-.74Zm1.92-6.76c-.89,0-1.55.85-1.55,1.94s.49,1.93,1.66,1.93c.54,0,1.24-.32,1.86-1.16-.1-1.62-.72-2.7-1.97-2.7Z"/>
    <rect class="cls-7" x="28.78" y="169.5" width="537.77" height="638.85"/>
    <rect class="cls-5" x="333.5" y="271.57" width="173.18" height="244.84"/>
    <line class="cls-5" x1="333.5" y1="393.27" x2="506.68" y2="393.27"/>
    <line class="cls-5" x1="420.09" y1="516.4" x2="420.09" y2="393.27"/>
    <line class="cls-5" x1="506.68" y1="455.25" x2="420.09" y2="455.25"/>
    <line class="cls-5" x1="463.39" y1="516.4" x2="463.39" y2="455.25"/>
    <line class="cls-5" x1="463.39" y1="485.42" x2="506.68" y2="485.42"/>
    <g class="cls-9">
      <line class="cls-6" x1="329.49" y1="528.2" x2="329.49" y2="719.71"/>
      <line class="cls-6" x1="510.7" y1="528.2" x2="510.7" y2="719.71"/>
      <line class="cls-6" x1="321.25" y1="528.2" x2="321.25" y2="719.71"/>
      <line class="cls-6" x1="518.94" y1="528.2" x2="518.94" y2="719.71"/>
    </g>
    <line class="cls-5" x1="396.62" y1="540.56" x2="396.62" y2="536.44"/>
    <line class="cls-5" x1="443.57" y1="536.44" x2="443.57" y2="540.56"/>
    <line class="cls-5" x1="488.87" y1="536.44" x2="488.87" y2="540.56"/>
    <line class="cls-5" x1="352.96" y1="536.44" x2="352.96" y2="540.56"/>
    <line class="cls-5" x1="398.26" y1="536.44" x2="398.26" y2="540.56"/>
    <line class="cls-5" x1="351.31" y1="540.56" x2="351.31" y2="536.44"/>
    <line class="cls-5" x1="441.92" y1="540.56" x2="441.92" y2="536.44"/>
    <line class="cls-5" x1="487.22" y1="540.56" x2="487.22" y2="536.44"/>
    <line class="cls-5" x1="396.3" y1="519.14" x2="397.44" y2="519.14"/>
    <line class="cls-5" x1="397.44" y1="519.14" x2="398.58" y2="519.14"/>
    <line class="cls-5" x1="441.6" y1="519.14" x2="442.74" y2="519.14"/>
    <line class="cls-5" x1="442.74" y1="519.14" x2="443.89" y2="519.14"/>
    <line class="cls-5" x1="441.71" y1="519.14" x2="441.71" y2="517.91"/>
    <g class="cls-20">
      <path class="cls-5" d="m443.77,517.91c0-.57-.46-1.03-1.03-1.03"/>
      <path class="cls-5" d="m441.71,517.91c0-.57.46-1.03,1.03-1.03"/>
    </g>
    <line class="cls-5" x1="443.77" y1="517.91" x2="443.77" y2="519.14"/>
    <line class="cls-5" x1="441.6" y1="519.97" x2="441.6" y2="519.14"/>
    <line class="cls-5" x1="442.74" y1="519.97" x2="442.74" y2="519.14"/>
    <line class="cls-5" x1="443.89" y1="519.97" x2="443.89" y2="519.14"/>
    <line class="cls-5" x1="396.41" y1="519.14" x2="396.41" y2="517.91"/>
    <g class="cls-16">
      <path class="cls-5" d="m398.47,517.91c0-.57-.46-1.03-1.03-1.03"/>
      <path class="cls-5" d="m396.41,517.91c0-.57.46-1.03,1.03-1.03"/>
    </g>
    <line class="cls-5" x1="398.47" y1="517.91" x2="398.47" y2="519.14"/>
    <line class="cls-5" x1="396.3" y1="519.97" x2="396.3" y2="519.14"/>
    <line class="cls-5" x1="397.44" y1="519.97" x2="397.44" y2="519.14"/>
    <line class="cls-5" x1="398.59" y1="519.97" x2="398.59" y2="519.14"/>
    <line class="cls-6" x1="483.93" y1="528.2" x2="356.26" y2="528.2"/>
    <line class="cls-6" x1="510.7" y1="536.44" x2="329.49" y2="536.44"/>
    <line class="cls-6" x1="483.93" y1="519.97" x2="356.26" y2="519.97"/>
    <line class="cls-6" x1="432.89" y1="540.56" x2="510.7" y2="540.56"/>
    <line class="cls-6" x1="329.49" y1="540.56" x2="407.3" y2="540.56"/>
    <polyline class="cls-6" points="510.7 258.44 510.7 519.97 510.7 528.2"/>
    <line class="cls-6" x1="356.26" y1="258.44" x2="483.93" y2="258.44"/>
    <line class="cls-6" x1="492.17" y1="258.44" x2="510.7" y2="258.44"/>
    <line class="cls-6" x1="356.26" y1="266.68" x2="483.93" y2="266.68"/>
    <line class="cls-6" x1="492.17" y1="266.68" x2="510.7" y2="266.68"/>
    <line class="cls-6" x1="329.49" y1="266.68" x2="329.49" y2="519.97"/>
    <line class="cls-6" x1="348.02" y1="528.2" x2="329.49" y2="528.2"/>
    <line class="cls-6" x1="510.7" y1="519.97" x2="492.17" y2="519.97"/>
    <line class="cls-6" x1="510.7" y1="528.2" x2="492.17" y2="528.2"/>
    <line class="cls-6" x1="348.02" y1="519.97" x2="329.49" y2="519.97"/>
    <line class="cls-6" x1="329.49" y1="258.44" x2="348.02" y2="258.44"/>
    <line class="cls-6" x1="329.49" y1="266.68" x2="348.02" y2="266.68"/>
    <line class="cls-6" x1="329.49" y1="266.68" x2="329.49" y2="258.44"/>
    <line class="cls-6" x1="329.49" y1="528.2" x2="329.49" y2="519.97"/>
    <line class="cls-6" x1="329.49" y1="554.97" x2="510.7" y2="554.97"/>
    <g class="cls-23">
      <path class="cls-6" d="m407.3,540.56c1.24,0,2.41.56,3.19,1.52"/>
      <path class="cls-6" d="m429.7,542.07c.78-.96,1.95-1.52,3.19-1.52"/>
    </g>
    <line class="cls-6" x1="429.7" y1="542.07" x2="424.08" y2="548.96"/>
    <line class="cls-6" x1="416.1" y1="548.96" x2="410.49" y2="542.07"/>
    <g class="cls-13">
      <path class="cls-6" d="m424.08,548.96c-.98,1.2-2.44,1.9-3.99,1.9s-3.01-.7-3.99-1.9"/>
      <line class="cls-6" x1="329.49" y1="528.2" x2="321.25" y2="528.2"/>
      <line class="cls-6" x1="321.25" y1="258.44" x2="321.25" y2="528.2"/>
      <line class="cls-6" x1="329.49" y1="258.44" x2="321.25" y2="258.44"/>
      <line class="cls-6" x1="518.94" y1="528.2" x2="510.7" y2="528.2"/>
      <line class="cls-6" x1="518.94" y1="258.44" x2="510.7" y2="258.44"/>
      <line class="cls-6" x1="518.94" y1="258.44" x2="518.94" y2="528.2"/>
    </g>
    <line class="cls-6" x1="510.7" y1="649.7" x2="329.49" y2="649.7"/>
    <line class="cls-6" x1="510.7" y1="657.93" x2="329.49" y2="657.93"/>
    <g class="cls-14">
      <line class="cls-6" x1="321.25" y1="719.71" x2="329.49" y2="719.71"/>
      <line class="cls-6" x1="510.7" y1="719.71" x2="518.94" y2="719.71"/>
    </g>
    <polygon class="cls-2" points="483.93 256.77 483.93 256.78 483.93 256.8 483.93 256.84 483.93 256.87 483.93 256.94 483.93 257.05 483.93 257.11 483.93 257.23 483.93 257.39 483.93 257.67 483.93 258.36 483.93 272.31 492.17 272.31 492.17 258.36 492.17 257.67 492.17 257.39 492.17 257.23 492.17 257.11 492.17 257.05 492.17 256.94 492.17 256.87 492.17 256.84 492.17 256.8 492.17 256.78 492.17 256.77 483.93 256.77"/>
    <g class="cls-21">
      <polygon class="cls-5" points="483.93 256.77 483.93 256.77 483.93 256.8 483.93 256.84 483.93 256.87 483.93 256.94 483.93 257.05 483.93 257.11 483.93 257.23 483.93 257.38 483.93 257.67 483.93 258.36 483.93 272.31 492.17 272.31 492.17 258.36 492.17 257.67 492.17 257.38 492.17 257.23 492.17 257.11 492.17 257.05 492.17 256.94 492.17 256.87 492.17 256.84 492.17 256.8 492.17 256.77 492.17 256.77 483.93 256.77"/>
      <polyline class="cls-2" points="356.26 531.19 348.02 531.19 348.02 531.18 348.02 531.15 348.02 531.12 348.02 531.09 348.02 531.02 348.02 530.91 348.02 530.85 348.02 530.73 348.02 530.57 348.02 530.29 348.02 529.6 348.02 515.65 356.26 515.65 356.26 529.6 356.26 530.29 356.26 530.57 356.26 530.73 356.26 530.85 356.26 530.91 356.26 531.02 356.26 531.09 356.26 531.12 356.26 531.15 356.26 531.18 356.26 531.19"/>
      <polygon class="cls-5" points="356.26 531.19 348.02 531.19 348.02 531.18 348.02 531.15 348.02 531.12 348.02 531.09 348.02 531.02 348.02 530.91 348.02 530.85 348.02 530.73 348.02 530.57 348.02 530.29 348.02 529.6 348.02 515.65 356.26 515.65 356.26 529.6 356.26 530.29 356.26 530.57 356.26 530.73 356.26 530.85 356.26 530.91 356.26 531.02 356.26 531.09 356.26 531.12 356.26 531.15 356.26 531.18 356.26 531.19"/>
      <polygon class="cls-2" points="492.17 531.19 483.93 531.19 483.93 531.18 483.93 531.15 483.93 531.12 483.93 531.09 483.93 531.02 483.93 530.91 483.93 530.85 483.93 530.73 483.93 530.57 483.93 530.29 483.93 529.6 483.93 515.65 492.17 515.65 492.17 529.6 492.17 530.29 492.17 530.57 492.17 530.73 492.17 530.85 492.17 530.91 492.17 531.02 492.17 531.09 492.17 531.12 492.17 531.15 492.17 531.18 492.17 531.19"/>
      <polygon class="cls-5" points="492.17 531.19 483.93 531.19 483.93 531.18 483.93 531.15 483.93 531.12 483.93 531.09 483.93 531.02 483.93 530.91 483.93 530.85 483.93 530.73 483.93 530.57 483.93 530.29 483.93 529.6 483.93 515.65 492.17 515.65 492.17 529.6 492.17 530.29 492.17 530.57 492.17 530.73 492.17 530.85 492.17 530.91 492.17 531.02 492.17 531.09 492.17 531.12 492.17 531.15 492.17 531.18 492.17 531.19"/>
      <line class="cls-5" x1="483.93" y1="258.36" x2="492.17" y2="258.36"/>
      <polygon class="cls-2" points="356.26 256.77 356.26 256.77 356.26 256.8 356.26 256.84 356.26 256.87 356.26 256.94 356.26 257.05 356.26 257.11 356.26 257.23 356.26 257.38 356.26 257.67 356.26 258.36 356.26 272.31 348.02 272.31 348.02 258.36 348.02 257.67 348.02 257.38 348.02 257.23 348.02 257.11 348.02 257.05 348.02 256.94 348.02 256.87 348.02 256.84 348.02 256.8 348.02 256.77 348.02 256.77 356.26 256.77"/>
      <polygon class="cls-5" points="356.26 256.77 356.26 256.77 356.26 256.8 356.26 256.84 356.26 256.87 356.26 256.94 356.26 257.05 356.26 257.11 356.26 257.23 356.26 257.38 356.26 257.67 356.26 258.36 356.26 272.31 348.02 272.31 348.02 258.36 348.02 257.67 348.02 257.38 348.02 257.23 348.02 257.11 348.02 257.05 348.02 256.94 348.02 256.87 348.02 256.84 348.02 256.8 348.02 256.77 348.02 256.77 356.26 256.77"/>
      <line class="cls-5" x1="348.02" y1="258.36" x2="356.26" y2="258.36"/>
    </g>
    <path class="cls-10" d="m407.54,319.11h6.35l7.37,23.46h-5.61l-1.44-5.59h-7.15l-1.45,5.59h-5.42l7.37-23.46Zm5.59,13.75l-.56-2.17c-.65-2.35-1.28-5.12-1.91-7.57h-.14c-.57,2.48-1.19,5.22-1.85,7.57l-.56,2.17h5.02Zm10.12,5.44h5v-13.23h-4.28v-3.28c2.45-.47,4.07-1.09,5.67-2.08h3.9v18.59h4.28v4.27h-14.57v-4.27Z"/>
    <path class="cls-10" d="m366.96,445.64h5.29l6.14,19.55h-4.68l-1.2-4.66h-5.96l-1.21,4.66h-4.52l6.14-19.55Zm4.66,11.46l-.47-1.81c-.54-1.95-1.07-4.27-1.59-6.31h-.12c-.47,2.06-1,4.35-1.54,6.31l-.47,1.81h4.18Zm7.45,5.56c4.85-4.58,8.26-7.84,8.26-10.57,0-1.84-1.02-2.86-2.7-2.86-1.35,0-2.43.93-3.38,1.94l-2.39-2.38c1.87-2,3.65-3.02,6.38-3.02,3.76,0,6.32,2.4,6.32,6.07,0,3.21-3,6.63-6.11,9.85.98-.11,2.31-.22,3.19-.22h3.83v3.71h-13.4v-2.53Z"/>
    <path class="cls-10" d="m454.9,416.46h4.23l4.91,15.64h-3.74l-.96-3.73h-4.77l-.97,3.73h-3.62l4.91-15.64Zm3.73,9.17l-.37-1.45c-.43-1.56-.85-3.41-1.27-5.05h-.1c-.38,1.65-.8,3.48-1.23,5.05l-.38,1.45h3.35Zm5.6,4.6l1.63-2.23c.93.89,2.06,1.54,3.34,1.54,1.49,0,2.48-.65,2.48-1.82,0-1.34-.78-2.16-4.1-2.16v-2.5c2.74,0,3.6-.83,3.6-2.04,0-1.07-.68-1.68-1.88-1.68-1.08,0-1.91.49-2.85,1.33l-1.79-2.15c1.4-1.21,2.94-1.95,4.79-1.95,3.17,0,5.26,1.5,5.26,4.18,0,1.57-.9,2.69-2.54,3.39v.1c1.76.5,3.04,1.75,3.04,3.72,0,2.84-2.6,4.44-5.67,4.44-2.47,0-4.2-.88-5.31-2.16Z"/>
    <path class="cls-10" d="m435.21,479.17h3.17l3.69,11.74h-2.81l-.72-2.8h-3.58l-.73,2.8h-2.71l3.69-11.74Zm2.8,6.88l-.28-1.09c-.33-1.17-.64-2.56-.95-3.79h-.07c-.28,1.24-.6,2.61-.92,3.79l-.28,1.09h2.51Zm9.09,2.13h-4.94v-1.83l4.17-6.88h3.24v6.69h1.32v2.02h-1.32v2.73h-2.47v-2.73Zm0-3.88c0-.73.07-1.83.1-2.56h-.07c-.29.65-.61,1.28-.94,1.93l-1.5,2.5h2.41v-1.87Z"/>
    <path class="cls-10" d="m479.26,466.73h2.47l2.87,9.13h-2.18l-.56-2.17h-2.78l-.56,2.17h-2.11l2.87-9.13Zm2.18,5.35l-.22-.84c-.25-.91-.5-1.99-.74-2.94h-.06c-.22.96-.46,2.03-.72,2.94l-.22.84h1.95Zm3.28,2.7l.93-1.3c.53.49,1.16.89,1.92.89.91,0,1.49-.48,1.49-1.4s-.57-1.38-1.4-1.38c-.52,0-.78.11-1.32.45l-.92-.59.24-4.49h5.04v1.73h-3.27l-.15,1.67c.34-.14.62-.2.99-.2,1.54,0,2.83.87,2.83,2.76s-1.53,3.11-3.26,3.11c-1.45,0-2.44-.55-3.14-1.25Z"/>
    <rect class="cls-4" x="88.59" y="271.57" width="173.18" height="244.84"/>
    <g class="cls-18">
      <line class="cls-3" x1="84.58" y1="528.2" x2="84.58" y2="719.71"/>
      <line class="cls-3" x1="265.79" y1="528.2" x2="265.79" y2="719.71"/>
      <line class="cls-3" x1="76.34" y1="528.2" x2="76.34" y2="719.71"/>
      <line class="cls-3" x1="274.03" y1="528.2" x2="274.03" y2="719.71"/>
    </g>
    <line class="cls-4" x1="151.71" y1="540.56" x2="151.71" y2="536.44"/>
    <line class="cls-4" x1="198.66" y1="536.44" x2="198.66" y2="540.56"/>
    <line class="cls-4" x1="243.96" y1="536.44" x2="243.96" y2="540.56"/>
    <line class="cls-4" x1="108.05" y1="536.44" x2="108.05" y2="540.56"/>
    <line class="cls-4" x1="153.36" y1="536.44" x2="153.36" y2="540.56"/>
    <line class="cls-4" x1="106.4" y1="540.56" x2="106.4" y2="536.44"/>
    <line class="cls-4" x1="197.01" y1="540.56" x2="197.01" y2="536.44"/>
    <line class="cls-4" x1="242.31" y1="540.56" x2="242.31" y2="536.44"/>
    <line class="cls-4" x1="151.39" y1="519.14" x2="152.53" y2="519.14"/>
    <line class="cls-4" x1="152.53" y1="519.14" x2="153.68" y2="519.14"/>
    <line class="cls-4" x1="196.69" y1="519.14" x2="197.84" y2="519.14"/>
    <line class="cls-4" x1="197.83" y1="519.14" x2="198.98" y2="519.14"/>
    <line class="cls-4" x1="196.81" y1="519.14" x2="196.81" y2="517.91"/>
    <g class="cls-24">
      <path class="cls-4" d="m198.86,517.91c0-.57-.46-1.03-1.03-1.03"/>
      <path class="cls-4" d="m196.81,517.91c0-.57.46-1.03,1.03-1.03"/>
    </g>
    <line class="cls-4" x1="198.86" y1="517.91" x2="198.86" y2="519.14"/>
    <line class="cls-4" x1="196.69" y1="519.97" x2="196.69" y2="519.14"/>
    <line class="cls-4" x1="197.83" y1="519.97" x2="197.83" y2="519.14"/>
    <line class="cls-4" x1="198.98" y1="519.97" x2="198.98" y2="519.14"/>
    <line class="cls-4" x1="151.5" y1="519.14" x2="151.5" y2="517.91"/>
    <g class="cls-1">
      <path class="cls-4" d="m153.56,517.91c0-.57-.46-1.03-1.03-1.03"/>
      <path class="cls-4" d="m151.5,517.91c0-.57.46-1.03,1.03-1.03"/>
    </g>
    <line class="cls-4" x1="153.56" y1="517.91" x2="153.56" y2="519.14"/>
    <line class="cls-4" x1="151.39" y1="519.97" x2="151.39" y2="519.14"/>
    <line class="cls-4" x1="152.53" y1="519.97" x2="152.53" y2="519.14"/>
    <line class="cls-4" x1="153.68" y1="519.97" x2="153.68" y2="519.14"/>
    <line class="cls-3" x1="239.02" y1="528.2" x2="111.35" y2="528.2"/>
    <line class="cls-3" x1="265.79" y1="536.44" x2="84.58" y2="536.44"/>
    <line class="cls-3" x1="239.02" y1="519.97" x2="111.35" y2="519.97"/>
    <line class="cls-3" x1="187.98" y1="540.56" x2="265.79" y2="540.56"/>
    <line class="cls-3" x1="84.58" y1="540.56" x2="162.39" y2="540.56"/>
    <polyline class="cls-3" points="265.79 258.44 265.79 519.97 265.79 528.2"/>
    <line class="cls-3" x1="111.35" y1="258.44" x2="239.02" y2="258.44"/>
    <line class="cls-3" x1="247.26" y1="258.44" x2="265.79" y2="258.44"/>
    <line class="cls-3" x1="111.35" y1="266.68" x2="239.02" y2="266.68"/>
    <line class="cls-3" x1="247.26" y1="266.68" x2="265.79" y2="266.68"/>
    <line class="cls-3" x1="84.58" y1="266.68" x2="84.58" y2="519.97"/>
    <line class="cls-3" x1="103.11" y1="528.2" x2="84.58" y2="528.2"/>
    <line class="cls-3" x1="265.79" y1="519.97" x2="247.26" y2="519.97"/>
    <line class="cls-3" x1="265.79" y1="528.2" x2="247.26" y2="528.2"/>
    <line class="cls-3" x1="103.11" y1="519.97" x2="84.58" y2="519.97"/>
    <line class="cls-3" x1="84.58" y1="258.44" x2="103.11" y2="258.44"/>
    <line class="cls-3" x1="84.58" y1="266.68" x2="103.11" y2="266.68"/>
    <line class="cls-3" x1="84.58" y1="266.68" x2="84.58" y2="258.44"/>
    <line class="cls-3" x1="84.58" y1="528.2" x2="84.58" y2="519.97"/>
    <line class="cls-3" x1="84.58" y1="554.97" x2="265.79" y2="554.97"/>
    <g class="cls-17">
      <path class="cls-3" d="m162.39,540.56c1.24,0,2.41.56,3.19,1.52"/>
      <path class="cls-3" d="m184.79,542.07c.78-.96,1.95-1.52,3.19-1.52"/>
    </g>
    <line class="cls-3" x1="184.79" y1="542.07" x2="179.17" y2="548.96"/>
    <line class="cls-3" x1="171.19" y1="548.96" x2="165.58" y2="542.07"/>
    <g class="cls-11">
      <path class="cls-3" d="m179.17,548.96c-.98,1.2-2.44,1.9-3.99,1.9s-3.01-.7-3.99-1.9"/>
      <line class="cls-3" x1="84.58" y1="528.2" x2="76.34" y2="528.2"/>
      <line class="cls-3" x1="76.34" y1="258.44" x2="76.34" y2="528.2"/>
      <line class="cls-3" x1="84.58" y1="258.44" x2="76.34" y2="258.44"/>
      <line class="cls-3" x1="274.03" y1="528.2" x2="265.79" y2="528.2"/>
      <line class="cls-3" x1="274.03" y1="258.44" x2="265.79" y2="258.44"/>
      <line class="cls-3" x1="274.03" y1="258.44" x2="274.03" y2="528.2"/>
    </g>
    <line class="cls-3" x1="265.79" y1="649.7" x2="84.58" y2="649.7"/>
    <line class="cls-3" x1="265.79" y1="657.93" x2="84.58" y2="657.93"/>
    <g class="cls-22">
      <line class="cls-3" x1="76.34" y1="719.71" x2="84.58" y2="719.71"/>
      <line class="cls-3" x1="265.79" y1="719.71" x2="274.03" y2="719.71"/>
    </g>
    <polygon class="cls-2" points="239.02 256.77 239.02 256.78 239.02 256.8 239.02 256.84 239.02 256.87 239.02 256.94 239.02 257.05 239.02 257.11 239.02 257.23 239.02 257.39 239.02 257.67 239.02 258.36 239.02 272.31 247.26 272.31 247.26 258.36 247.26 257.67 247.26 257.39 247.26 257.23 247.26 257.11 247.26 257.05 247.26 256.94 247.26 256.87 247.26 256.84 247.26 256.8 247.26 256.78 247.26 256.77 239.02 256.77"/>
    <g class="cls-12">
      <polygon class="cls-4" points="239.02 256.77 239.02 256.77 239.02 256.8 239.02 256.84 239.02 256.87 239.02 256.94 239.02 257.05 239.02 257.11 239.02 257.23 239.02 257.38 239.02 257.67 239.02 258.36 239.02 272.31 247.26 272.31 247.26 258.36 247.26 257.67 247.26 257.38 247.26 257.23 247.26 257.11 247.26 257.05 247.26 256.94 247.26 256.87 247.26 256.84 247.26 256.8 247.26 256.77 247.26 256.77 239.02 256.77"/>
      <polyline class="cls-2" points="111.35 531.19 103.11 531.19 103.11 531.18 103.11 531.15 103.11 531.12 103.11 531.09 103.11 531.02 103.11 530.91 103.11 530.85 103.11 530.73 103.11 530.57 103.11 530.29 103.11 529.6 103.11 515.65 111.35 515.65 111.35 529.6 111.35 530.29 111.35 530.57 111.35 530.73 111.35 530.85 111.35 530.91 111.35 531.02 111.35 531.09 111.35 531.12 111.35 531.15 111.35 531.18 111.35 531.19"/>
      <polygon class="cls-4" points="111.35 531.19 103.11 531.19 103.11 531.18 103.11 531.15 103.11 531.12 103.11 531.09 103.11 531.02 103.11 530.91 103.11 530.85 103.11 530.73 103.11 530.57 103.11 530.29 103.11 529.6 103.11 515.65 111.35 515.65 111.35 529.6 111.35 530.29 111.35 530.57 111.35 530.73 111.35 530.85 111.35 530.91 111.35 531.02 111.35 531.09 111.35 531.12 111.35 531.15 111.35 531.18 111.35 531.19"/>
      <polygon class="cls-2" points="247.26 531.19 239.02 531.19 239.02 531.18 239.02 531.15 239.02 531.12 239.02 531.09 239.02 531.02 239.02 530.91 239.02 530.85 239.02 530.73 239.02 530.57 239.02 530.29 239.02 529.6 239.02 515.65 247.26 515.65 247.26 529.6 247.26 530.29 247.26 530.57 247.26 530.73 247.26 530.85 247.26 530.91 247.26 531.02 247.26 531.09 247.26 531.12 247.26 531.15 247.26 531.18 247.26 531.19"/>
      <polygon class="cls-4" points="247.26 531.19 239.02 531.19 239.02 531.18 239.02 531.15 239.02 531.12 239.02 531.09 239.02 531.02 239.02 530.91 239.02 530.85 239.02 530.73 239.02 530.57 239.02 530.29 239.02 529.6 239.02 515.65 247.26 515.65 247.26 529.6 247.26 530.29 247.26 530.57 247.26 530.73 247.26 530.85 247.26 530.91 247.26 531.02 247.26 531.09 247.26 531.12 247.26 531.15 247.26 531.18 247.26 531.19"/>
      <line class="cls-4" x1="239.02" y1="258.36" x2="247.26" y2="258.36"/>
      <polygon class="cls-2" points="111.35 256.77 111.35 256.77 111.35 256.8 111.35 256.84 111.35 256.87 111.35 256.94 111.35 257.05 111.35 257.11 111.35 257.23 111.35 257.38 111.35 257.67 111.35 258.36 111.35 272.31 103.11 272.31 103.11 258.36 103.11 257.67 103.11 257.38 103.11 257.23 103.11 257.11 103.11 257.05 103.11 256.94 103.11 256.87 103.11 256.84 103.11 256.8 103.11 256.77 103.11 256.77 111.35 256.77"/>
      <polygon class="cls-4" points="111.35 256.77 111.35 256.77 111.35 256.8 111.35 256.84 111.35 256.87 111.35 256.94 111.35 257.05 111.35 257.11 111.35 257.23 111.35 257.38 111.35 257.67 111.35 258.36 111.35 272.31 103.11 272.31 103.11 258.36 103.11 257.67 103.11 257.38 103.11 257.23 103.11 257.11 103.11 257.05 103.11 256.94 103.11 256.87 103.11 256.84 103.11 256.8 103.11 256.77 103.11 256.77 111.35 256.77"/>
      <line class="cls-4" x1="103.11" y1="258.36" x2="111.35" y2="258.36"/>
    </g>
    <path class="cls-10" d="m162.64,378h6.35l7.37,23.46h-5.61l-1.44-5.59h-7.15l-1.45,5.59h-5.42l7.37-23.46Zm5.59,13.75l-.56-2.17c-.65-2.35-1.28-5.12-1.91-7.57h-.14c-.57,2.48-1.19,5.22-1.85,7.57l-.56,2.17h5.02Zm8.94-1.82c0-7.78,3.27-11.76,8.18-11.76s8.18,4.01,8.18,11.76-3.27,11.96-8.18,11.96-8.18-4.18-8.18-11.96Zm11.35,0c0-6.24-1.39-7.67-3.17-7.67s-3.17,1.43-3.17,7.67,1.39,7.87,3.17,7.87,3.17-1.63,3.17-7.87Z"/>
  </g>
</svg>