<svg xmlns="http://www.w3.org/2000/svg" viewBox="0 0 1080 1350" xmlns:v="https://vecta.io/nano"><style><![CDATA[.F{stroke-linejoin:round}.G{stroke-width:3}.H{fill:none}.I{stroke-linecap:round}]]></style><defs><clipPath id="A"><path d="M265.15 298.21l-8.28 10.88c-4.29 5.48-9.55 11.28-15.44 14.85-6.62 4.01-13.54 7.42-20.51 10.63-5.51 2.54-12.14 4.83-18.39 3.21-4.18-1.09-8.75-.69-12.81-2.51-3.82-1.72-8.13-2.85-11.63-5.3-3.1-2.18-6.6-4.08-9.82-6.33-3.89-2.72-6.31-5.99-9.28-9.66-2.27-2.81-4.45-4.35-6.02-7.5-1.38-2.77-2.72-5.52-4.51-8.06-1.12-1.59-2.78-2.4-3.93-4.14-.92-1.39-1.63-3.17-2.79-4.35-1.75-1.78-2.6-1.91-3.93-4.13-.77-1.29-1.31-2.69-2.12-3.97-1.63-2.57-2.61-6.11-4.21-8.52-1.46-2.19-3.09-3.12-4.28-5.59-1.18-2.44-2.97-4.62-4.28-7.11-1.05-1.99-2.45-3.58-3.7-5.43-1.68-2.48-2.02-5.74-3.7-8.38-3.03-4.77-4.16-9.79-6.37-14.73-3.88-8.67-6.14-18.72-7.83-28-.38-2.08-.93-4.06-1.8-5.99-1.38-3.05-3.38-5.69-4.22-8.99-2.88-11.21 2.43-24.28 5.72-34.89 3.19-10.29 9.13-21.59 18.35-27.94 10.31-7.09 20.21-15.02 31.34-20.33 4.83-2.31 11.14-6.41 16.41-6.93 3.19-.32 6.04-1.36 9.23-1.39 3.58-.04 6.41-1.34 9.9-1.41 3.88-.08 6.96-.11 10.61-1.09 3.94-1.05 6.92.75 10.61 1.82 8.51 2.47 15.89-.81 22.83 6.12 6.35 6.34 14.91 8.77 21.62 14.61 5.98 5.21 10.83 12.18 15.49 18.67 4.96 6.91 8.88 14.02 13.08 21.15 2.14 3.62 3.4 7.37 4.21 11.32 1.04 5.12 3.5 10.09 4.01 15.31.48 4.95 1.37 9.3 1.34 14.46-.03 4.97 1.44 9.11 1.41 14.15-.05 9.77 2.66 19.09.53 28.96-2.68 12.4-6 26.63-13.21 37.28-4.38 6.47-8.95 12.93-13.65 19.27z" class="H"/></clipPath></defs><path d="M.5.5h1080v1349H.5z" fill="#fff"/><path d="M160.1 323.54c-.31 1.51-2.16 2.99-3.14 4.18-1.47 1.79-2.7 3.78-3.92 5.73-3.69 5.88-9.03 11.03-12.49 17.01-1.78 3.07-3.09 6.07-5.23 9.04-2.37 3.28-4.89 6.59-6.43 10.38-3.26 8.02-5.39 17.95-6.96 26.39-.65 3.52-1.3 7.03-1.46 10.59-.26 5.98-.95 11.59-1.45 17.52-.72 8.64.07 17.73.07 26.4l-.03 52.05c.13 5.22 1.41 10.07 1.45 15.28.03 3.55 1.28 6.67 1.49 10.2.31 5.15-.03 10.54-.07 15.7-.03 4.66 1.13 8.86 1.48 13.42.57 7.33.26 14.59 1.65 21.84 1.45 7.59 1.22 15.43 1.14 23.25-.07 6.49-1.36 14.68-4.24 20.59-3.92 8.03-7.37 16.01-11.07 24.08-7.42 16.17-12.07 33.9-16.42 51.09-1.27 5.01-2.55 10.64-3.38 15.78-.68 4.21.24 8.46-.6 12.66-1.44 7.25-2.33 16.58-.99 24.01.54 3.02 1.98 6.91 3 9.86 0 .01 0 .03.01.04 4.18 12.01 14.87 10.57 24.88 9.14 8.41-1.2 15.78-1.55 23.24-6.25 10.46-6.59 19.83-16.44 25.5-27.26 2.38-4.54 4.88-9.85 8.07-13.83 2.76-3.44 6.28-6.11 8.83-9.76 2.42-3.47 4.63-7.32 6.8-10.88 3.04-4.98 6.81-9.65 9.62-14.81 6.92-12.67 13.24-25.47 20.04-38.11l13.37-24.02c6.45-11.99 8.67-26 12.1-38.98 1.96-7.42 2-15.45 5.93-22.17 3.02-5.16 4.93-10.61 7.67-15.87 6.79-13.03 16.64-25.16 21.59-39.07 1.85-5.18 1.81-10 1.51-15.4-.46-8.35-.85-16.27-4.07-24.04-5.62-13.57-13.21-26.56-24.15-36.64-3.37-3.1-7.18-5.94-10.22-9.36-1.71-1.93-3.05-4.47-4.97-6.26-2.66-2.48-5.2-3.57-7.74-6.44-1.61-1.82-2.86-3.87-4.63-5.57-2.37-2.28-5.26-3.54-7.85-5.49-3.88-2.93-7.45-6.17-11.42-9.02-6.73-4.84-14.05-8.07-20.92-12.5-4.33-2.8-8.83-4.73-14.06-5.12-7.98-.59-9.44 5.6-10.11 12.84"/><g stroke="#000" class="F G I"><path d="M325.6 614.94c-2.36-3.09-7.01-1.29-9.59.36-1.4.9-2.71 2.05-4.24 2.86-.69.37-2.29.9-2.82 1.35-4.47 3.71-.41 12.36-1.67 17.41-.85 3.41-5.23 3.95-8.48 5.25-4.87 1.95-9.98 3.38-14.89 5.31-7.26 2.85-14.95 4.17-22.21 7.15-3.55 1.46-6.88 3.36-9.65 6.06-1.32 1.28-2.28 3.16-3.64 4.32-3.28 2.8-9.25 3.55-13.29 5.03-8.09 2.96-15.66 6.99-23.85 9.67-5.44 1.78-9.35 4.84-14.45 7.46a312.88 312.88 0 0 0-15.74 8.66c-11.35 6.67-21.36 16.17-30.91 25.21-5.09 4.82-12.52 9.13-15.93 15.36-2.78 5.07-6.27 10.12-7.76 15.8-1.1 4.19-4.14 8.2-4.66 12.38-.47 3.81.1 8.11.1 11.96 0 8.85-.57 17.91-.07 26.75.49 8.66 4.66 17.25 7.5 25.3 1.42 4.05 2.03 6.92 2.59 11.11.87 6.52 4.71 7.44 9.83 10.07 13.55 6.99 32.26 4.24 47.33 4.25 5.61 0 10.93.14 16.23-1.57 2.89-.94 5.44-1.3 8.5-1.47 8.1-.46 16.14-1.49 24.06-3.29 6.16-1.4 12.09-3.65 18.46-3.57 4.2.05 8.55.35 12.73.03s8.45-2.12 12.65-2.82c3.99-.66 7.78-2.24 11.68-3.22 4.18-1.05 8.61-1.41 12.74-2.76 5.48-1.79 10.77-4.92 16.38-6.51 8.78-2.49 17.33-5.54 25.74-8.77 4.24-1.63 5.81-1.38 9.91-.31 3.73.97 7.76-.06 11.59.24 4.86.38 8.95 2.37 13.91 1.17 4.53-1.09 9.51-2.87 14.25-3.65 1.78-.29 3.88.19 5.59-.21 1.21-.29 1.5-1.28 2.68-1.56 1.37-.33 4.31-.18 5.73 0 6.17.83 8.34 7.32 10.77 11.92 2.5 4.74 3.51 9.66 5.18 14.77 2.01 6.16 5.05 11.73 6.55 17.92 1.51 6.22 2.84 14.74 1.43 21.23-.67 3.09-1.35 5.16-1.3 8.49.07 4.59-1.18 7.1-4.28 10.68-3.97 4.59-5.71 10.08-9.16 14.78-1.92 2.62-3.31 5.45-5.48 7.79-1.53 1.65-6.19 4.11-6.49 6.53-.42 3.34 5.23 3.79 7.72 3.42 3.13-.46 8.98-3.28 10.05-6.64-1.32 3.16-7.05 8.13-1.44 10.71 2.45 1.13 6.41-.26 8.12-1.93 1.11-1.09 1.62-2.67 2.64-3.92 1.37-1.68 3.34-2.8 4.21-4.89-2.49 2.11-10.54 9.78-5.26 12.2 7.14 3.27 9.73-6 13.61-9.31.31 2.5-3.02 4.96-2.79 7.74 1.53.37 3.62.67 5.13 0 1.26-.56 4.85-3.3 5.84-4.38.52-.57 1.29-3.01 1.63-3.82.77-1.84 1.49-3.02 2.51-4.67 1.6-2.6 2.93-5.49 4.84-8.06 1.79-2.41 4.33-3.58 6.23-5.77 1.15-1.33 2.02-3.78 3.08-5.31s1.85-2.98 2.59-4.63c.79-1.77 2.64-4.3 3.09-5.92 1.05-3.77.17-8.54.29-12.46.14-4.8 2.39-9.03 3.85-13.66 2.27-7.19 4.72-14.14 6.36-21.49l2.68-11.9c1.12-4.85 4.15-9.17 5.6-13.87 1.08-3.52 1.34-7.34 1.31-11.19-.05-7.78.97-14.35-5.7-19.46-1.8-1.38-3.27-3.05-5.23-4.28s-4.23-1.25-6.36-1.98c-5.04-1.72-10.52-4.95-14.97-7.86-6.35-4.16-12.86-8.03-18.81-12.8-2.16-1.73-6.61-6.84-9.76-5.94" fill="#fff"/><g class="H"><path d="M209.61 831.36c1.59.41 6.94-1.77 8.49-2.45 4.57-1.98 9.39-3.57 14.15-5.33 4.52-1.67 8.86-3.49 13.5-4.9 6.53-1.98 11.93-5.2 18.67-6.78l35.06-8.13c5.1-1.11 10.01-1.57 15.14-2.05 2.94-.27 5.26-1.83 8.02-2.59 3.23-.89 6.76-.97 10.06-1.73 4.95-1.15 9.78-2.24 14.78-2.79 2.2-.24 4.15-1.17 6.33-1.49 3.8-.56 7.48-.59 11.25-1.77 5.11-1.59 10.45-2.56 15.62-4.1 6.78-2.01 13.35-6.4 19.99-9.07 5.48-2.21 9.89-5.89 15.58-7.66 6.01-1.86 10.74-4.58 15.74-8.45 4.46-3.46 9.17-8.35 14.11-11.03 2.59-1.41 4.96-1.77 7.38-3.84 2.55-2.18 5.22-4.2 7.78-6.38 5.33-4.52 10.68-9.56 15.87-14.3 3.61-3.29 8.01-8.17 10.13-12.57 1.41-2.94 1.86-6.6 3-9.78.89-2.48 1.85-5.97 2.31-8.61.45-2.57-.08-5.78-.07-8.41.01-4.14-1-7.08-1.49-11.04-.38-3.11.54-6.43.13-9.54-.4-2.97-1.07-6.32-1.78-9.23-.68-2.78-1.33-5.95-2.88-8.49-1.66-2.72-3.43-3.62-5.9-5.66-4.5-3.71-5.78-8.48-6.54-14.18-1-7.43 4.41-25.54-2.99-30.58-2.71-1.84-6.58-.47-9.44.22-12.53 3.03-25.59 5.12-38.46 4.98-6.17-.07-11.87 1.42-18.09 1.41-12.06-.02-23.81 2.63-35.55 4.56-3.47.57-6.36 1.01-9.96 1.07-3.17.05-5.75 1.13-8.81 1.53-3.07.4-6.53-.04-9.63-.07-3.47-.03-6.28.55-9.62 1.09-10.02 1.63-19.94 1.73-30.27 1.73-7.58 0-14.92-.26-22.38 1.1-7.51 1.37-16.12-.77-23.73-1.11-1.45-.06-2.87-.26-4.31-.37-2.41-.19-4.47-.38-6.46 1.23-5.95 4.82-8.75 15.24-12.1 21.86-2.18 4.29-4.02 8.48-6.77 12.35-.78 1.1-1.69 2.57-2.39 3.72-1.5 2.45-2.54 3.9-4.12 5.93-4.64 5.94-10.17 10.94-15.07 16.7-.91 1.08-1.97 2.2-2.81 3.31-.68.9-1.03 1.98-1.69 2.87-.57.78-1.76 1.19-2.24 2.01-1.01 1.71.32 3.39-1.38 4.95-.49-1.31-.34-2.37-.31-3.82m-31.12 172.56c-.14 6.47 4.37 12.43 6.38 18.43 2.74 8.14 9.39 14.77 13.49 22.28 3.8 6.94 2.73 16.82 11.22 20.77 2.22 1.03 4.07.45 6.41.84 2.37.4 3.65 2.12 5.76 2.68 4.52 1.19 10.67.07 15.39.07h14.63c4.48.05 8.72-1.02 13.12-1.55 7.1-.85 11.05-4.39 17.08-7.73 5.25-2.91 10.66-5.51 16.4-7.31 12.33-3.86 21.74-13.6 31.5-21.54 3.63-2.95 7.51-4.19 11.67-6.05 4.33-1.93 7.99-5.22 12.22-7.39 3.42-1.76 7.7-3.44 11.39-4.7 5.23-1.78 7.67-2.53 12.43-5.66 5.55-3.65 11.95-7.31 18.66-7.38 2.58-.03 5.42.43 7.94-.06 3.42-.67 7.29-3.08 10.41-4.75 4.49-2.4 6.89-5.88 10.33-9.03 2-1.83 3.84-2.72 5.42-5.15.87-1.34 1.66-2.63 2.41-4 1.43-2.6 1.19-2.51 4.59-2.48m-24.03-11.31l.24 1.17c3.39 1.25 8.84.25 12.49.24 4.53 0 9.03-.53 13.32-1.54 7.4-1.74 12.35-11.98 15.29-18.27 1.56-3.35 3.35-6.84 5.34-9.9s5.1-7.56 5.73-11.32c.8-4.77-.48-9.36-2.86-13.44-1.28-2.2-3.41-3.77-5.01-5.72-1.64-2-2.55-4.88-4.96-1.78-2.33 2.99-3.94 6.68-4.97 10.31-1.06 3.73-.15 7.22-.59 10.98-.38 3.27-2.13 6.33-2.9 9.55-.85 3.54-1.39 5.79-4.38 7.99.1-3.63 2.31-5.76 1.34-9.64-1.11-4.45-4.79-7.79-5.45-12.49"/><path d="M482.61 883.7c.1 3.21 4.73.85 6 .1 3.41-2.02 3.7-3.31 4.06-6.9 4.29-.2 4.95-3.92 5.57-7.66.62-3.77.58-7.12 1.65-10.96 2.12-7.62 8.72-12.56 11.31-19.85 1.33-3.75 2.56-5.71 2.51-9.93-.04-3.33.43-6.88.08-10.18-.24-2.22-1.27-4.16-1.56-6.37-.3-2.31.07-4.87.07-7.22v-10.99c0-3.66-.42-7.65.12-11.18.58-3.77 1.81-7.61 2.57-11.37 1.4-6.85 4.56-13.56 1.61-20.47-1.78-4.18-5.76-7.28-9.31-9.92-1.76-1.31-2.78-2.63-4.31-4.26-1.92-2.05-3.34-1.86-5.54-2.91-3.59-1.72-6.58-4.52-10.61-5.35-4.38-.9-6.55-3.81-10.04-6.72l.14.89m-4.22 28.29c3.26-.57 14.82 3.13 15.56 7.07"/></g></g><path d="M482.61 637.57l-25.24 7.06c-4.78 1.39-9.32 2.43-14.23 2.81-6.38.49-12.72 2.57-19.03 2.92-10.78.6-21.83 0-32.63-.05-11.44-.06-22.83 2.16-33.94 4.95-9.21 2.3-19.99 3.66-29.56 2.2-4.23-.65-8.4-1.9-12.7-2.58-5.94-.95-12.33-.3-18.35-.32-4.16-.01-7.57.25-11.56 1.1-2.93.63-5.64.09-8.56.24-3.22.17-6.28 1.05-9.38 1.88-8.66 2.32-18.13 6.48-27.05 6.71-7.92.2-16.09 1-23.23-2.79-4.22-2.24-8.39-3.77-11.84-7.14-4.23-4.14-9.29-7.34-12.43-12.38-11.11-17.9-17.43-38.44-27.09-57.25-2.66-5.18-5.39-8.99-7.21-14.68a246.17 246.17 0 0 1-3.75-12.9c-1.03-3.94-3.08-7.36-4.31-11.21-2.02-6.28-2.14-13.22-4.91-19.28-4.12-8.99-6.02-19.12-9.27-28.64-3.68-10.79-5.68-22-9.15-32.86-1.52-4.76-2.27-9.55-3.9-14.19-1.8-5.12-2.9-11.42-2.93-17.11-.02-3.68 1.18-6.85 1.56-10.41.23-2.16-.12-4.31.27-6.49 1.05-5.81 3.14-12.06 5.38-17.45 4.11-9.86 7.33-20.14 11.59-29.87 4.91-11.22 10.97-21.29 16.73-31.98 1.86-3.46 2.75-7.35 4.83-10.6 2.29-3.59 4.23-7.29 6.35-11.02 2.44-4.3 5.12-8.15 7.97-12.15 3.86-5.4 6.28-11.11 10.71-16.12 4.48-5.07 8.95-10.08 14.55-13.89 4.78-3.25 8.67-7.84 13.4-11.03 8.75-5.92 18.95-8.35 29-11.29 8.78-2.56 17.86-1.77 26.92-1.77 9.94 0 21.55-1.54 31.19 1.03 8.24 2.19 16.72 3.24 25.07 4.56 2.83.45 4.19 1.59 6.69 2.59 2.7 1.09 5.61 1.2 8.36 2.08 4.83 1.53 9.05 4.33 13.27 7.03 9.95 6.38 18.67 13.58 25.99 22.87 5.27 6.69 12.26 11.52 18.07 17.63 4.69 4.95 9.09 10.59 14.42 14.86 8.72 6.98 16.72 17.03 22.95 26.37 3.13 4.7 5.64 10.16 8.37 15.11 3.8 6.88 7.63 12.53 10.4 20.16 2.08 5.71 4.89 11.18 7.14 16.77 2.79 6.94 7.87 12.83 10.36 19.84 3.23 9.08 8.17 17.22 11.81 26.05 1.93 4.68 2.75 9.94 4.5 14.72 2.38 6.52 4.76 13.32 6.57 20.01 2.13 7.84 3.1 16.27 5.87 23.94 1.45 4 1.43 6.98 2.02 11.19.5 3.58 1.73 7.13 2.27 10.63.48 3.12.03 6.22.56 9.38.47 2.79 1.68 5.3 2.23 8.05.67 3.34.64 6.76 1.34 10.12.46 2.22 1.39 3.91 1.88 6.02.72 3.11-.07 7.17-.07 10.41v14.87c.01 2.54.39 5.26-.2 7.77-.8 3.41-3.32 6.56-4.42 9.95-.52 1.59-.96 3.29-1.39 4.91-.99 3.76-2.12 5.77-3.93 8.88-2.7 4.62-4.53 9.76-6.99 14.53-1.72 3.33-4.1 7.29-7.12 9.59-3.11 2.37-7.46 3.84-9.9 7"/><path d="M375.11 278.28c-2.55-.33-4.39-1.31-7.04-1.4-3.55-.13-5.58.53-8.87 1.76-3.37 1.26-5.71 2.7-8.81 4.62-4.47 2.76-9.57 4.26-13.6 7.79-14.16 12.38-23.23 27.85-31.64 44.44-7.63 15.04-13.29 31.06-16 47.58-.5 3.04-.1 6.1-.44 9.19-.46 4.23-1.32 8.05-1.29 12.34v26.8c0 16.51 1.41 32.64 1.41 49.18v23.24c0 3.58-.39 7.45-.07 11 .31 3.46 1.83 6.59 2.58 9.9.73 3.21-.03 6.31.25 9.54.46 5.33 1.46 9.96 1.48 15.48.03 7.71-3.15 15.37-4.16 22.97-1.14 8.59-5.58 17.84-8.57 25.89l-6.28 16.82c-1.99 4.92-3.8 10.53-4.76 15.79-1.51 8.29-2.08 17.19-1.74 25.66.35 8.82 3.16 17.49 4.33 26.24.61 4.56.61 8.71 2.09 13.22l3.18 9.52c1.32 3.68 1.46 7.62 3.16 11.07 1.87 3.81 5 5.04 8.55 6.95 4.18 2.25 9.23 1.29 14.08 1.38 1.42.03 2.87.26 4.27-.06 1.84-.43 2.8-1.88 4.53-2.49 1.58-.56 3.45-.01 5.04-.51 2.87-.9 6.05-3.14 8.65-4.66 3.84-2.25 6.83-5.76 10.7-7.87 3.06-1.66 5.3-2.28 7.94-4.53 1.29-1.1 2.51-2.76 3.78-3.92 3.25-2.97 5.75-5.62 8.41-9.12 3.58-4.7 8.44-8.07 11.55-13.2 2.66-4.4 5.76-8.29 8.41-12.66 2.76-4.56 4.42-9.14 6.69-13.91 1.82-3.81 3.59-7.42 4.95-11.44 1.49-4.45 4.22-8.28 5.34-12.87 2.58-10.63 5.72-20.56 9.91-30.7 4.36-10.54 6.44-21.85 10.19-32.61 7.22-20.74 18-40.04 24.04-61.15 2.37-8.26 6.22-15.32 9.66-23.09s5.57-16.91 8.81-25.03c4.22-10.61 5.68-22.68 5.62-34.19-.06-9.84-.12-18.54-3.18-28.01-1.43-4.42-3.22-8.59-4.61-13-.51-1.6-1.06-3.16-1.72-4.71-.74-1.75-2.46-3.71-2.98-5.32-.39-1.2.09-1.95-.12-3.07-.56-2.97-2.34-4.97-3.69-7.55-1.7-3.25-2.81-7.1-4.77-10.2-2.43-3.85-6.9-6.97-10.05-10.26-3.16-3.31-5.7-7.2-8.18-11.04-3.34-5.19-6.18-11.33-10.21-15.97-2.82-3.24-6.1-5.79-8.52-9.42-3.34-4.99-5.14-9.12-10.22-12.43-3.61-2.35-7.1-3.69-11.07-5.32-3.92-1.6-6.59-2.73-10.88-2.47-3.37.2-5.57 2.52-8.81 2.86"/><g stroke="#000" class="F G"><path d="M97.86 767.71c.08 4.25 1.45 6.78 1.41 11.01-.04 5.03-.65 9.13-1.45 14.06-1.78 10.91-5.25 22.07-5.65 33.28-.19 5.45-.65 11.22 1.77 16.26 1.13 2.35 5.49 14.67 8.35 7.48.95-2.41.17-9.13-.11-11.68s-1.36-4.51-1.52-7.07c-.13-2.08.03-4.24.03-6.33 0 7.83-1.33 21.35 6.86 26.12.76-2.57 1.21-19.39-.96-19.94-.68 4.12 1.56 9.47 2.59 13.45.95 3.68 1.29 7.68 3.92 10.69 1.17-4.14 1.72-7.94 1.75-12.25.01-1.8.28-3.7-.27-5.45-.56-1.78-2.28-3.03-2.77-4.93.98 2.44 2.02 5.15 2.66 7.71.76 3.07.49 6.92 2.9 9.3 1.58-4.85.34-12.7.29-17.79-.03-3.03.69-5.33 1.29-8.23.87-4.19-.96-5.91 2.95-9.02m151.36-121.64c-2.03.6-5.12 5.33-6.76 7.07l-4.56 4.53c-6.23 6.88-12.46 15.21-20.11 20.97-2.68 2.02-6.37 4.23-9.55 5.32-2.39.81-4.11.84-6.26 2.43-2.41 1.78-3.58 1.28-6.19 2.36-7.47 3.11-11.45 13.33-10.08 20.75 2.67.74 5.01.77 6.65-1.4.78-1.03.85-2.91 1.66-4.11.86-1.29 2.07-2.16 2.87-3.57 1.5-2.65 2.48-4.96 4.9-7.04 2.06-1.76 4.88-1.36 6.66-2.95-2.61 3.63-4.23 8.05-5.86 12.18s-5.85 9.24-4.13 13.84c8.76-4.02 12.43-15.77 20.95-20.43-.65 3.48-18.9 20.73-12.77 23.21 3.23-1.42 7.16-4.81 10.09-6.95 2.9-2.11 3.91-6.25 6.97-7.85-.65 3.64-6.59 7.63-8.43 11.27-.82 1.62-2.6 3.84-.92 5.61 2.31 2.45 5-1.41 6.6-2.73 7.41-6.09 14.4-12.52 22.05-18.07 3.44-2.49 6.96-1.8 10.8-3.14 4.33-1.51 7.78-3.93 11.83-5.99 2.94-1.5 4.93-3.84 7.7-5.48 2.13-1.26 3.96-1.66 6.01-3.42 2.91-2.49 7.55-6.77 10.93-8.13" class="H I"/><path d="M260.31 295.53c-3.54 6.39-7.78 12.39-12.31 18.12-2.51 3.17-5.26 6.16-7.69 9.38-4.54 6.02-12.66 8.43-19.38 11.53-5.51 2.54-12.14 4.83-18.39 3.21-4.18-1.09-8.75-.69-12.81-2.51-3.82-1.72-8.13-2.85-11.63-5.3-3.1-2.18-6.6-4.08-9.82-6.33-3.89-2.72-6.31-5.99-9.28-9.66-2.27-2.81-4.45-4.35-6.02-7.5-1.38-2.77-2.72-5.52-4.51-8.06-1.12-1.59-2.78-2.4-3.93-4.14-.92-1.39-1.63-3.17-2.79-4.35-1.75-1.78-2.6-1.91-3.93-4.13-.77-1.29-1.31-2.69-2.12-3.97-1.63-2.57-2.61-6.11-4.21-8.52-1.46-2.19-3.09-3.12-4.28-5.59-1.18-2.44-2.97-4.62-4.28-7.11-1.05-1.99-2.45-3.58-3.7-5.43-1.68-2.48-2.02-5.74-3.7-8.38-3.03-4.77-4.16-9.79-6.37-14.73-2.06-4.61-4.51-10.12-5.51-15.11-.96-4.79-.22-9.84-1.1-14.74-.9-5.07.08-10.11-1.07-15.16-2.13-9.43 1.54-17.37 4.27-26.35 3.27-10.76 6.15-22.3 12.81-31.56 6.6-9.18 16.61-15.19 26.45-20.35 7.49-3.92 14.97-8.51 23.35-9.97 4.6-.8 9.21-1.27 13.8-2.1 4.87-.89 9.86-.34 14.68-1.63 3.94-1.05 6.92.75 10.61 1.82 8.51 2.47 15.89-.81 22.83 6.12 6.35 6.34 14.91 8.77 21.62 14.61 4.56 3.97 8.3 8.76 11.85 13.62 9.41 12.83 20.48 27.22 18.63 43.97-.84 7.64-2.04 15.09-2.09 22.81v17.34c0 4.94 1.02 10.46-.31 15.27-1.19 4.27-.76 8.15-1.07 12.65-.24 3.53-1.53 6.16-1.45 9.9.07 3.36-1.42 5.48-2.12 8.49-2.35 10.12-8.3 20.43-13.09 30.06a97.48 97.48 0 0 1-1.99 3.78z" fill="#fff"/><g class="I"><path d="M166.62 238.46c.04 4.09.54 6.91 1.54 10.58 1.42 5.23 5.89 9.51 6.84 14.87.45 2.54-.26 5.14.23 7.67.45 2.31 1.14 3.98 1.26 6.42.07 1.42-.1 6.45 1.77 7.07 3.15 1.05 2.52-4.53 2.44-5.94.74 2.7 2.01 5.56 3.21 8.1 3.65-.75 2.5-6.09 2.52-8.75.01 2.96-1.01 8.16 2.9 9.14 2.54-1.22 1.45-6.7 1.24-9.11.48 1.52 2.2 4.66 4.16 3.42 1.57-4.61-4.51-12.46-6.53-16.62-2.58-5.3-3.9-10.76-6.54-16.06-1.56-3.14-3.09-5.23-5.22-7.99-1.67-2.17-2.53-4.75-4.86-6.46-6.16-4.52-4.97 6.94-4.97 10.74m24.21-30.97c-.51-3.35-2.4-4.08-.09-7.46 2.16-3.15 5.26-4.15 8.65-5.3 4.97-1.69 10.82-3.6 16.22-2.86 10.28 1.42-5.25 10.54-8.33 12.02-2.68 1.28-5.81.74-8.68 1.48-1.91.5-5.7 1.77-7.34.18.91-3.04 3.31-5.7 6.65-5.13m-59.42 19.8c-4.65.84-7.82 2.88-12.73 2.83-4.38-.05-9.61 2.59-13.72 1.2 4.28-6.39 10.9-6.21 17.65-7.93 2.77-.7 5.01-2.12 7.7-2.89 4.55-1.31 5.73 1.11 9.51 2.79 1.13 5.2-6.23 6.83-9.82 6.82-1.15 0-3.22-.34-4.32-.07-1.75.43-1.98 2.11-4.17 1.49m57.84 77.64l-.85.08c1.81-2.77 6.54-1.31 9.33-1.44 5.01-.24 8.94-2.98 14.16-2.88m48.47-78.1c1.7-3.69 1.41-7.1 1.41-11.32 0-2.24-.14-4.52-.03-6.76.15-2.96 1.99-5.78 1.45-8.8m-125.89 77.81v15.56" class="H"/><path d="m275.01,244.46c-12.54,7.71-12.72-21.53-12.72-30.78,0-7.77-1.09-16.69-.05-24.32.7-5.15,2.76-8.16,5.79-11.41,2.54-2.72,3.65-6.76,7.21-7.41,5.75-1.05,12.38,4.91,13.46,12.13.63,4.18.12,9.2.09,13.47-.03,4.1.99,7.71,1.08,11.76.18,8.05-.53,17.19-3.18,24.47-1.23,3.38-2.12,6.69-4.22,9.4-2.84,3.67-4.68,3.94-8.53,4.03" fill="#fff"/><path d="M205.87 319.98c.23-2.25 3.38-9.14 5.66-9.9m14.88 7.29v-7.07m8.49-35.36c-.31-2.61-.52-8.03-2.83-9.9m29.71 5.65c1.25-3.35 3.77-7.84 4.24-11.32m-77.8 69.32c2.47 1.05 5.67 3.29 8.49 2.83M167 320.2c1.41 1.66 3.61 3.52 5.66 4.24m82.04-19.8c-.11-3.73 3.41-6.13 2.83-9.9m-98.8 4.82c2.16-2.8 3.63-3.12 7.06-3.3 3.11-.16 11.16-1.43 13.54 1.53 3.81 4.73-5.81 3.73-8.25 3.35-3.12-.48-7.2 3.51-11.25-.69m46.4-8.24c-1.08.14-1.51-.22-1.31-1.09 1.78-.59 3.68-.36 5.55-.32 2.39.04 3.41-.51 5.59-1.09 2.54-.68 9.25-1.59 9.83 2.16-4.91 3.34-13.61 4.64-19.42 2.94l-.24-1.17" class="H"/></g></g><g clip-path="url(#A)"><path d="m251.87,229.67c.04-1.71-.35-2.85-.71-4.24-.33-1.29-.3-2.92-.63-4.32-.27-1.15-1.29-1.51-1.57-2.65-.55-2.23-.54-5.1-1.02-7.46-1.03-5.02.55-10.31-.6-15.28-1.09-4.74-3.3-8.54-3.93-13.4-.47-3.61-1.94-7.22-3.18-10.65-.63-1.75-1.8-3.35-2.53-5.07-1.05-2.48-.93-4.55-1.52-6.96-1.14-4.66-3.36-5.04-7.64-4.94-2.02.05-5.17,1.16-6.39-1-.42-.75-.11-1.97-.32-2.82-.32-1.24-.94-2.21-2.05-2.87-2.44-1.46-6.01-.63-8.57-.01-8.56,2.07-17.08,3.68-25.57,6.14-6.53,1.89-12.67,4-19.14,6.03-5.09,1.6-10.62,2.71-16,2.72-5.86,0-11.46-.26-17.19,1.11-2.67.64-5.12.44-7.73.95-2.81.55-5.79,1.83-8.38,3.12-4.72,2.36-9.07,5.22-11.57,9.84-1.33,2.45-2.9,4.88-3.28,7.72-.32,2.38-.43,4.94-1.02,7.26-.41,1.61-1.78,4.21-3.39,2.61-1.81-1.8-1.34-5.69-1.95-7.94-.87-3.19-.69-7.03-.53-10.35.08-1.73.62-3.27,1.14-4.91,1.21-3.77.78-7.57.65-11.44-.38-11.34-.97-22.97,1.63-34.11,3.2-13.71,9.25-29.88,20.23-39.24,7.21-6.14,18.45-9.88,27.9-9.35,9.43.53,17.24,6.47,26.04,9.16,14.02,4.28,27.75-4.25,41.99-3.9,11.02.27,23.32,2.72,33.69,6.52,2.88,1.05,5.54,3.2,8.23,4.67,5.85,3.21,11.06,7.2,16.8,10.53,5.38,3.12,10.99,9.57,14.06,14.85,1.92,3.3,4.84,5.83,6.51,9.26,1.16,2.38,2.13,4.95,3.12,7.4,2.19,5.48,2.99,11,4.2,16.61,1.21,5.57.6,8.88-2.05,14.19-6.45,12.95-15.83,23.35-24.43,34.82-1.86,2.48-3.44,4.77-5.68,6.9-2.52,2.4-2.8,3.99-4.19,6.95-1.09,2.33-3.11,4.24-5.14,5.83-1.83,1.42-5.64,2.07-5.5,4.9"/></g><g stroke="#000" class="F G H I"><path d="M239.31 289.59c-.26 1.54-1.15 2.7-1.41 4.24m-20.19-57.69c-2.81.36-6.42 1.6-8.8 2.49-1.53.57-2.39 1.03-3.86 1.72-1.63.77-4.61 1.44-5.9 2.79-3.33 3.47-1.04 7.03 2.93 7.17 3.55.13 7.13-.07 10.68-.03 6.29.06 17.73-2.47 19.93-9.33 1.61-5.03-3.87-5.66-7.91-6.3s-7.48 1.03-11.32 1.49"/><path d="M213.47 240.38c.27 1.09.89 2.01 1.8 2.72 1.68-.38 1.5-4.11.71-5.23-1.05 1.41-1.72 3.62-.9 5.32 1.66.15 2.74-1.16 2.41-2.78-1.27.26-1.67 1.19-1.2 2.8m-63.31 10.98c-3.68 0-8.44-.82-12.03-.12-3.74.72-4.29 3.22-1.18 4.82 2.43 1.25 5.71 1.14 8.26 1.67 2.7.56 11.26 2.39 13.25-.99 2.57-4.36-7.22-5.43-9.72-5.38"/></g><path d="M951.87 1233.97l8.82-.07v1.06l-1.52.01c-.63 0-1.06.08-1.29.24-.23.15-.34.36-.33.61 0 .2.09.48.26.86l.12.3 5.63 13.99 4.77-13.44a2.79 2.79 0 0 0 .13-.96c0-.53-.16-.94-.47-1.23s-.73-.43-1.27-.43h-1.43v-1.05l7.73-.07v1.06h-.61c-.47 0-.94.23-1.41.68-.46.45-.88 1.18-1.25 2.21l-6.33 17.57h-1.03l-7.56-18.65c-.26-.62-.56-1.05-.9-1.29s-.79-.35-1.37-.35h-.68v-1.06zm25.67 7.07c1.79-.01 3.29.62 4.51 1.89s1.84 2.97 1.86 5.08c.01 1.45-.25 2.69-.78 3.72a6.09 6.09 0 0 1-2.3 2.45 6.3 6.3 0 0 1-3.24.92c-1.72.01-3.18-.62-4.38-1.92s-1.82-2.98-1.83-5.05c-.02-2.09.57-3.79 1.76-5.1a5.78 5.78 0 0 1 4.42-1.99zm0 1c-1.06 0-1.92.5-2.59 1.46s-1 2.48-.98 4.55c.02 2.1.37 3.64 1.05 4.61s1.56 1.45 2.62 1.44c1.11 0 2-.5 2.67-1.48.68-.98 1.01-2.57.99-4.78-.02-2.05-.37-3.53-1.05-4.44s-1.58-1.36-2.71-1.35zm13.2-8.63l.16 19.23c0 .26.08.47.25.61.24.19.53.28.87.28h1.4v1.05l-7.52.06v-1.06l1.32-.01c.43 0 .76-.11.97-.32s.31-.5.31-.88l-.14-16.14c0-.47-.13-.82-.39-1.03-.35-.3-.78-.45-1.29-.44h-1.19v-1.05l5.25-.28zm7.35 18.03c.47 0 .88.16 1.21.5s.5.74.51 1.21c0 .49-.16.91-.49 1.25s-.73.52-1.21.52a1.66 1.66 0 0 1-1.22-.5c-.34-.34-.51-.75-.51-1.23s.16-.89.49-1.24a1.61 1.61 0 0 1 1.22-.52zm13.74-16.67l.15 17.67c0 .26.1.47.29.61.27.2.61.29 1.01.29l2.75-.02v1.06l-10.19.08v-1.06l2.34-.02c.49 0 .85-.12 1.09-.36.23-.23.35-.54.35-.93l-.11-13.35a.88.88 0 0 0-.33-.69c-.22-.19-.5-.28-.84-.28l-3.14.03v-.98c1.47-.2 2.66-.46 3.57-.79.92-.32 1.72-.74 2.42-1.26h.66z"/></svg>