<svg xmlns="http://www.w3.org/2000/svg" xmlns:xlink="http://www.w3.org/1999/xlink" viewBox="0 0 1080 1350" xmlns:v="https://vecta.io/nano"><style><![CDATA[.G{fill:none}.H{stroke:#000}.I{stroke-linejoin:round}.J{stroke-width:3}.K{stroke-linecap:round}]]></style><defs><clipPath id="A"><path d="M.5 0h1080v1359.5H.5z" class="G"/></clipPath><clipPath id="B"><path d="M531.1 471c-7.92-.03-14.81.39-22.19-2.99-4.57-2.09-8.76-4.87-13.16-7.24-4.99-2.7-7.39-7.62-10.97-11.74-3.6-4.15-6.61-6.46-8.64-11.6-.92-2.33-2.08-3.25-3.7-5.05-1.87-2.08-2.57-4.71-3.56-7.31-1.62-4.26-3.24-8.71-5.94-12.41-1.52-2.08-2.91-3.52-3.78-6.01-.98-2.8-1.21-5.89-2.64-8.52-1.13-2.08-2.94-3.4-3.41-5.78-.42-2.12-.68-3.95-1.18-6.08-.51-2.2-1.14-4.26-1.72-6.44-.47-1.75-.45-3.27-1.1-4.94-1.44-3.69-1.72-7.77-2.02-11.69-.14-1.74-.83-3.22-.95-4.94-.08-1.22.12-2.46.06-3.68-.08-1.53-.76-2.66-.96-4.15-.23-1.71.28-3.37-.15-5.06-1.33-5.17-.67-11.12-.65-16.57l.03-8.28c0-2.92.75-5.54 1.65-8.28 1-3.05 1.57-6.15 2.31-9.2.66-2.74 2.35-4.87 3.68-7.31 3.25-5.95 7.66-11.06 12.73-15.26 2.94-2.44 5.31-4.7 8.59-6.82 2.68-1.73 5.23-3.78 8.03-5.24 2.59-1.35 4.3-2.79 6.94-3.88 2.85-1.18 6.22-2.8 9.16-3.44 6.11-1.33 12.33-2.16 18.27-3.61 2.74-.67 6.12-.18 8.97-.17l10.49.04c7.31 0 12.38 4.18 18.01 8.37 2.27 1.69 4.49 1.91 6.9 3.2 2.75 1.47 5.52 3.06 8.02 5.12 2.88 2.36 5.7 5.45 8.05 8.33 2.03 2.5 3.93 4.86 5.17 7.77 2.59 6.06 6.52 11.99 9.98 17.58 1.89 3.04 3.02 5.88 3.78 9.42.82 3.83 2.1 7.77 2.04 11.7l-.05 10.65c-.01 3.46.57 7.48-.25 10.84-.48 1.96-.42 3.51-.69 5.5s-1 3.64-.99 5.77c.01 1.79.23 3.74.02 5.5-.14 1.23-.59 1.73-.77 2.78-.22 1.24.04 2.49-.17 3.69-.37 2.1-1.36 4.35-1.91 6.43-.52 1.97-.8 4-1.37 5.89-1.34 4.42-2.23 9.01-3.54 13.45-1.9 6.47-3.99 13.08-6.49 19.27-1.09 2.69-3.18 4.77-4.58 7.28-1.2 2.15-2.03 4.5-3.2 6.67-.85 1.58-1.87 3.03-2.95 4.46-6.9 9.08-14.33 18.07-23.13 25.37-5.91 4.9-15.66 8.78-23.32 8.59" class="G"/></clipPath><path id="C" d="M627.53 1117.67l5.28-.08-.17 11.41c0 .31.07.53.22.67.21.19.49.29.82.3l1.5.02-.02 1.06-7.55-.11.02-1.06 1.4.02c.42 0 .72-.09.92-.29s.3-.49.3-.88l.12-8.35c0-.53-.14-.93-.44-1.2s-.74-.41-1.34-.42l-1.09-.02.02-1.06zm3.8-7.86c.43 0 .79.17 1.11.5s.47.7.46 1.14c0 .42-.17.79-.48 1.1a1.5 1.5 0 0 1-1.12.45c-.43 0-.81-.17-1.12-.49s-.46-.69-.46-1.12c0-.42.17-.79.5-1.11a1.48 1.48 0 0 1 1.11-.46z"/><path id="D" d="M623.24 1144.74l5.03-.17-.15 10.22c.71-.9 1.47-1.56 2.28-2s1.66-.65 2.56-.63c.85.01 1.61.23 2.29.64.52.33.97.9 1.33 1.71s.53 1.76.52 2.85l-.09 6.3c0 .4.09.7.3.89s.53.28.97.29l1.13.02-.02 1.06-7.16-.11.02-1.06h.79c.6.02 1.02-.07 1.26-.26.23-.19.35-.48.36-.86l.09-6.3c.02-1.1-.24-1.97-.76-2.59-.52-.63-1.2-.95-2.03-.96-.65 0-1.26.16-1.82.5s-1.04.86-1.44 1.57-.6 1.46-.61 2.25l-.08 5.29c0 .47.09.81.28 1.01s.52.3.97.31l1.13.02-.02 1.06-7.01-.1.02-1.06h.79c.54.02.92-.08 1.15-.29s.35-.53.35-.98l.23-15.83c0-.57-.13-.99-.43-1.27-.29-.28-.72-.43-1.29-.44h-.96l.02-1.08z"/><path id="E" d="M961.79 1149.48l-.28 19.23c0 .26.07.47.23.61.23.19.52.29.86.3l1.4.02-.02 1.06-7.52-.11.02-1.06 1.33.02c.43 0 .76-.09.97-.3s.33-.5.33-.87l.24-16.14c0-.47-.12-.82-.37-1.04-.34-.31-.77-.46-1.28-.47l-1.19-.02.02-1.06 5.26-.16z"/><path id="F" d="M891.09 1255.36h.95l-.08 5.42 4.29.06-.02 1.3-4.29-.06-.12 8.51c-.01.74.16 1.3.5 1.7a1.69 1.69 0 0 0 1.32.61c.64 0 1.19-.28 1.66-.87.46-.59.74-1.57.84-2.93h.95c-.08 1.78-.5 3.08-1.26 3.93-.76.84-1.73 1.26-2.92 1.24-1.09-.02-1.95-.33-2.56-.94s-.91-1.4-.89-2.37l.13-8.91-2.31-.03v-.99c1.07-.16 1.88-.59 2.43-1.28.83-1.04 1.29-2.5 1.39-4.38z"/></defs><g clip-path="url(#A)"><path d="M-98.5-38.5h1256v1463h-1256z" fill="#fff"/><path d="M425.27 598.87c20.16 3.08 41.21 4.58 61.77 3.79 9.72-.38 20.45-2.86 29.98-4.72 4.86-.95 9.89-.09 14.82-.71 7.09-.89 13.88-3.05 21.03-3.02 5.53.02 10.68-1.44 16.12-1.76 7.4-.44 15.08.11 22.49.09 9.25-.03 17.38 2.76 26.44 3.36 9.23.61 19.45 1.72 28.2 5.03 3.48 1.31 8.55.76 11.61 2.51 3.95 2.26 6.03 9.2 9.35 12.63 1.94 2.01 5.42 4.05 6.46 6.68.86 2.19.38 6.22.33 8.53-.15 7.24-5.51 14.56-12.02 17.84-4.75 2.39-10.1 4.33-15.06 6.29-5.3 2.1-9.77 5.12-14.89 7.55-5.25 2.5-8.86 6.18-13.64 9.31-6.06 3.96-11.89 5.86-18.45 8.55-4.59 1.88-8.45 5.14-12.88 7.42-3.82 1.97-7.89 2.78-11.96 4.11-10.37 3.4-21.75 4.59-31.62 9.23-4.68 2.2-8.53 2.55-13.63 3.5-4.66.86-9.04 2.97-13.56 4.47-5.78 1.92-11.82 2.29-17.73 3.73-6.84 1.67-13.42 4.15-20.18 5.91-4.68 1.22-9.36 1.89-14.05 2.86-5.96 1.23-11.46 4.18-17.21 6.08-9.29 3.07-18.87 7.03-28.44 9.09-5.09 1.09-10.68 2.76-15.84 3-4.64.21-9.35-.18-14-.1-5.24.09-10.17 1.42-15.35 1.8-5.14.38-10.51-.18-15.67-.1-3.79.06-6.49 1.36-10.16 1.78-3.41.39-7.18-.83-10.53-.21-3.41.63-8.6 3.23-11.83 4.69a77.01 77.01 0 0 0-10.4 5.8c-8.85 5.98-11.45 18.17-14.77 27.64-.93 2.66-2.18 5.07-3.26 7.68-2.24 5.41-2.12 10.34-2.09 16.19.04 7.66-1.27 16.6.33 24.05 1.01 4.72 2.87 9.38 3.92 14.12 1.33 5.98 1.8 12.96 2.5 19.11 1.28 11.3 3.33 21.42 3.3 32.93-.02 9.55-.9 18.71-1.63 28.07-.44 5.69-1.8 10.94-1.74 16.7l.02 18.23c0 9.62-.4 19.33-.06 28.94.31 8.67 4.39 21.17 9.35 28.34 2.36 3.41 2.74 6.68 4.09 10.64 1.68 4.95 3.35 9.7 3.44 14.99.09 4.97-.07 9.95-.02 14.91.04 3.9-1.02 6.28-1.69 9.93-1.63 8.81-1.59 16.67-7.53 23.73-2.68 3.19-4.34 6.81-7.94 9.14-2.92 1.89-6.52 2.42-9.6 3.99-8.25 4.23-13.51 12.26-22.23 15.64-3.12 1.21-6.79 1.16-9.74 2.39-2.14.9-3.62 2.96-5.99 3.81-2.6.94-5.29.47-7.89 1.25-1.86.56-3.34 2.19-5.25 2.75-2.42.71-5.13.36-7.61.32-6.45-.1-12.89.04-19.34 0-11.95-.07-24.44-3.51-35.81-7.13-13.18-4.2-23.59-11.99-35.24-19s-23.26-12.48-33.84-20.04c-4.42-3.16-8.65-4.72-13.5-7.03-7.49-3.57-13.67-10.99-19.68-16.79-12.45-12.01-21.22-27.93-30.38-42.42-3.58-5.66-6.76-11.26-10.11-17.13-1.84-3.23-4.13-6.29-5.59-9.72-2.72-6.37-3.85-13.27-6.01-19.81-2.87-8.67-4.51-18.25-6.24-27.33-2.47-12.97-5.47-25.75-9.63-38.33-2.08-6.3-5.07-12.28-6.8-18.75-1.51-5.66-2.3-11.15-4.48-16.58-5.54-13.76-5.02-28.15-5.04-42.75-.02-28.55-5.52-57.31-.46-85.55 2.4-13.41 1.46-26.67 2.06-40.11.38-8.65 2.32-17.59 3.39-26.21 1.16-9.3 3.34-17.31 5.89-26.09 5.26-18.09 11.66-35.69 17.78-53.54 1.45-4.24 3.76-9.04 4.56-13.45 1.24-6.85 1.07-13.92 2.47-20.84.68-3.37.68-6.61 1.09-9.91.7-5.67 2.87-11.03 3.81-16.67 1-5.95 3.12-11.68 4.33-17.52 1.36-6.5 2.17-12.91 4.1-19.33 3.14-10.46 3.33-21.38 5.84-31.95 1.81-7.63 5.24-14.89 7.34-22.5 1.57-5.67 2.93-10.68 5.82-15.75 4.86-8.53 6.73-17.11 10.55-25.94 5.6-12.93 12.78-25.92 20.4-37.75 3.09-4.79 5-10.13 8.06-14.95 5.7-8.99 13.03-17.06 18.5-26.08 7.99-13.2 17.54-25.01 27.05-37.16 5.44-6.94 14.82-17.91 24.62-18.32 6.09-.25 6.84 3.44 8.99 8.18 2.42 5.34 4.96 7.11 5.14 13.49.33 11.83-3.19 21.57-8.61 31.79-2.05 3.86-2.36 8.78-3.06 13.15l-1.93 12.7c-.56 3.36-.45 8.01 0 11.39.89 6.71 1.9 12.73 1.82 19.68-.08 6.89-1.57 13.61-1.78 20.46-.26 8.64 1.77 16.76 1.72 25.23-.02 3.07-1.72 13.2 1.6 14.97 2.89 1.54 7.86-3.25 10.18-4.49 4.32-2.31 9.37-4.79 14.22-6.21 12.66-3.72 26.1-6.98 38.68-9.27 10.26-1.87 23.94.95 32.49 6.69 11.69 7.85 23.31 14.11 29.99 26.98 1.36 2.62 1.79 5.47 2.99 8.13 1.34 2.99 3.29 5.52 4.51 8.59 3.32 8.39 4.99 17.35 9.24 25.33 7.15 13.45 12.41 28.42 21.11 40.98 4.04 5.83 8.82 10.91 12.8 16.79 1.45 2.14 3.44 3.79 4.67 6.1 1.86 3.5 2.49 7.21 4.77 10.65 5.22 7.88 11.84 12.59 19.09 17.58 5.77 3.97 14.04 11.56 21.17 10.96 8.86-.75 18.4.74 27.23 2.09z"/><g class="G H I J K"><path d="M188.99 198.3c-.07-10.75 4.75-19.75 8.38-29.73 2.28 4.56 1.65 9.34 1.68 14.26 0 1.4.38 4 .09 5.4-.46 2.22-1.97 3.85-1.8 6.21-.45-3.57 1.42-6.86 1.71-10.45.28-3.41 2.24-6.91 1.67-10.35v8.21c.04 4.53-1.27 8.12-1.73 12.41-.66 6.18.06 12.91.06 19.13 0 5.29.98 11.59.09 16.78-1.05 6.1-4.46 12.08-6.8 17.76-3.41 8.31-7.14 16.54-9.87 25.1-1.81 5.68-3.18 11.38-6.4 16.28-2.01 3.05-10.17 10.84-13.59 9.34-5.69-2.5-5.7-11.07-5.68-16.26.01-3.19.25-6.15 1.14-9.2 2.97-10.25 11.43-19.2 10.86-30.37-.21-3.99-2.62-6.38-5.02-9.34s-5.41-6.28-6.33-10.05c-1.34-5.46-3.61-12.33-1.63-18.29 5.83 1.67 4.55 17.91 12.62 17.22 3.94-.34 4.79-6.73 5.51-9.74 1.28-5.32-.83-11.49.31-16.93.17-.82 1.24-1.41 1.39-2.38.22-1.39-.34-2.86-.15-4.24.34-2.49 1.13-5.13 1.7-7.55.68-2.91 3.06-11.14 6.42-11.57 1.21 3.99.29 9.54.33 13.71.04 4.37-2.25 8.3-1.7 12.45-.14-1.85.73-2.56 1.26-4.24 1.26-3.97 1.14-8.44 2.91-12.25 1.18-2.54 4.07-11.81 7.31-11.38 2.59 9.62-6.06 17.53-4.74 26.7M650.6 631.11c0-4.13-.78-8.16 1.48-11.65 3.6-5.56 12.45-9.64 18.65-11.46 5.96-1.75 11.27-4.66 17.21-6.66 3.43-1.16 7.84-1.07 10.98-2.39 2.55-1.06 5.35-3.34 7.75-4.75 2.65-1.56 2.78-3.09 4.69-5.12 1.57-1.67 3.32-2.2 4.73-4.04 2.94-3.83 6.12-9.88 7.48-14.48 1.11-3.75 2.14-5.2 4.24-8.22 1.7-2.46 2.21-4.74 3.27-7.54 1.21-3.22 4.17-14.13 8.14-14.23 1.64 4.48-1.12 10.72-3.06 14.73-1.91 3.95-2.72 8.16-4.56 12.06-2.87 6.08-1.07 4.44 3.78 6.84 5.21 2.58 2.34 6.53 5.68 10.07 2.95 3.13 8.11 3.95 7.04 9.89-.75 4.14-5.27 9.07-8.59 11.42-6.94 4.9-12.05 12.59-19.22 17.17-5.63 3.59-12.75 7.43-19.27 8.38-2.75.4-4.2.47-6.88 1.68-1.57.71-2.9 1.42-4.58 2.08-3.36 1.31-7.36 1.93-11.33 2.74-5.9 1.21-17.33 6.65-21.77 1.63-2.13-2.41-3.89-8.31-4.3-11.49-.47-3.71 2.52-5.36 3.48-8.39M72.62-26.49c4.73.65 8.78 5.71 12.54 8.32 6.36 4.41 11.93 9.67 17.52 15.09 17.92 17.37 39.1 30.16 59.19 44.72 6.15 4.46 12.83 8.06 19.07 12.36 4.36 3.01 7.44 6.85 11.53 10.05 8.69 6.81 15.58 15.53 24.34 22.14 7.94 5.98 14.08 14.27 22.35 19.98 3.62 2.5 7.62 4.28 11.2 6.92 4.25 3.13 8.29 7.22 13.13 9.44 3.85 1.77 7.46 3.13 11.23 5.24 3.6 2.01 6.62 4.78 10.09 6.86 3.27 1.96 6.87 2.81 9.8 5.38 3.88 3.41 6.55 5.14 11.07 7.84 14.52 8.68 26.68 20.24 40.02 30.36 4.56 3.46 9.13 6.56 13.71 9.99 6.3 4.72 11.12 9.92 16.49 15.55l16.44 17.27c5.31 5.79 8.1 10.55 15.44 14.28 6.98 3.54 15.2 5.62 21.8 9.9 2.93 1.9 5.55 4.67 8.35 6.8 3.23 2.44 6.76 4.81 9.7 7.55 5.47 5.1 9.32 11.05 15.04 15.93 2.96 2.53 5.59 3.68 8.85 5.41 2.81 1.49 5.42 6.41 8.77 6.34"/></g><path d="M861.2-29.85l-.19-1.61c-3.23.09-7.39 5.66-9.87 7.48-2.95 2.17-5.38 4.77-8.25 7.05-4.17 3.31-7.71 7.45-11.83 10.69-3.43 2.7-7.86 3.82-11.38 6.46-3.79 2.84-6.53 6.69-10.54 9.27-3.43 2.21-6.31 3.98-9.2 6.87-6.47 6.48-13.87 12.94-21.73 17.4-4.5 2.55-7.36 7.14-11.41 10.29-2.81 2.19-5.3 4.14-7.89 6.66-3.45 3.36-7.02 4.37-11 6.83-2.75 1.69-5.06 4-7.65 5.94-5.65 4.23-12.37 6.58-17.51 11.53-3.66 3.52-7.83 6.34-12.06 9.22-11.58 7.88-20.78 20.49-29.02 31.87l-31 41.95c-9.33 12.42-17.02 25.95-25.98 38.56-4.5 6.34-7.07 12.91-9.65 20.18-2.17 6.1-4.96 11.09-7.83 16.8l-5.17 9.92c-1.96 3.71-2.74 7.91-4.57 11.54-1.26 2.5-3.35 4.43-4.7 6.91-1.75 3.22-2.55 6.96-4.35 10.07-4.89 8.44-10.98 16.42-10.7 26.92l11.74 5.03c-.11-4.77 1.61-7.28 4.14-11.18 4.85-7.49 9.22-14.46 15.11-21.35 5.84-6.83 12.58-12.55 18.16-19.65 4.88-6.21 12.19-10.98 17.88-16.49 14.65-14.18 28.06-29.65 44.23-42.13 6.26-4.83 12.59-9.57 18.12-15.23 5.77-5.9 12.94-9.66 18.45-15.67 2.46-2.68 4.76-5.83 7.44-8.28 3.46-3.16 7.93-4.86 11.36-8.18 2.51-2.43 5.06-4.27 7.76-6.45 4.68-3.79 7.98-9.15 12.57-13.13 6.75-5.86 11.51-12.65 19.14-17.84 6.88-4.68 12.39-11.22 18.31-17.1 10.5-10.43 20.7-21.79 30.35-33.02 5.25-6.11 10.7-11.35 16.38-17.04 4.7-4.71 8.28-10.46 13.14-14.91 2.77-2.54 5.69-4.86 8.45-7.37 2.66-2.41 5.67-3.52 7.64-6.82 2.23-3.75 4.67-5.57 7.51-8.81 2.17-2.48 3.7-5.56 5.95-8.03 4.5-4.94 11.02-9.6 16.52-13.4 3.15-2.18 6.94-4.45 10.24-6.38 2.21-1.29 5.85-3.34 8.35-3.69M664.8 423.09c0-17.76 1.8-34.89 1.68-52.7-.03-4.75.41-8.46 1.3-13.05.93-4.8.11-9.64.33-14.48.37-7.93 2.25-15.94 3.44-23.81 1.23-8.12 2.18-12.76 8.38-18.45 2.43-2.23 3.79-4.43 5.7-7.01 2.67-3.61 6.37-6.17 9.03-9.77 5.54-7.52 12.24-15.1 18.86-21.88 2.3-2.36 4.89-4.51 7.1-6.96 1.86-2.07 2.98-6.01 5.87-6.32 4.37 7.26 2.26 20.22 2.1 28.46-.2 10.52-3.11 21.42-4.87 31.83-.68 4.02-2.41 7.54-3.23 11.46-.89 4.27-.73 8.56-2.01 12.85-1.26 4.24-1.37 7.33-1.58 11.74-.21 4.37-1.76 8.25-1.77 12.63-.02 6.86-1.49 14.62-5 20.59-3.78 6.44-8.22 9.87-13.46 14.69-5.22 4.8-10.68 8.96-15.8 14.12-2.71 2.73-5.98 4.97-8.62 7.7-2.74 2.83-4.19 7-7.17 9.58l-.29-1.2m145.95-144.29c0-7.44-.23-14.41 1.3-21.49 2.83-13.08-.94-27.29-1.39-40.36-.33-9.55.09-19.21.09-28.77 0-7.07-.1-13.72 1.68-20.64 1.43-5.58 1.33-10.1 5-14.51 4.68-5.62 9.36-11.22 13.46-17.28 1.74-2.57 3.15-4.28 5.41-6.26 4.09-3.58 7.23-7.2 10.98-11.36 3.37-3.73 6.03-7.49 8.76-11.68 1.78-2.73 3.53-6.76 6.46-8.43 1.83 5.99.25 14.32.25 20.69 0 9.27.46 18.36-1.27 27.44-2.04 10.73-1.58 21.55-3.77 32.21-1.96 9.55-2.56 19.41-3.31 29.01-.25 3.25-1.44 6.25-1.72 9.54-.4 4.54-.93 9.32-1.63 13.79-.92 5.92-2.92 13.35-5.97 18.54-2.25 3.84-6.94 6.42-10.13 9.49s-5.87 5.81-9.53 8.33c-4.05 2.79-14.48 9.77-14.68 15.1M37.39 82.55c7.93 0 16.7-.43 22.73 5.79 6.79 7.01 12.04 17.6 15.52 26.59s4.06 20.01 5.78 29.82c1.64 9.28-.06 19.09 2.1 28.25 1.97 8.34.84 17.63.84 26.23v26.29c.03 8-1.75 15.36-1.68 23.52.07 7.89-2.81 15.26-3.47 22.95-4.57.88-10.1-4.92-13.39-7.5-4.86-3.8-8.67-8.42-13.23-12.5-6.9-6.17-15.43-10.17-21.9-16.78m137 72.74c-.87-6.29 2.9-15.67 6.06-20.92 4.33-7.19 7.4-14.49 15.75-18.11 15.5-6.72 23.58 16.21 23.48 28.13v26.9c0 4.54-.24 7.78-1.27 12.14-1.21 5.1-1.4 6.18-6.71 3.8-3.92-1.76-7.39-3.71-10.47-6.74-1.69-1.66-3.23-3.51-4.97-5.13-1.99-1.85-4.71-2.24-6.53-3.7-2.93-2.36-4.74-6-7.8-8.62s-6.79-4.72-9.22-7.74m133.08 71.52v-41.47c0-9.45-.21-18.61 1.3-27.8 1.01-6.17 1.94-11.86 3.36-18.05 2.05-8.93 12.92-30.02 23.47-16.86 8.31 10.37 13.9 26.07 13.79 39.17v41.18c0 6.16-1.07 11.2-1.76 17.16-.76 6.49.09 13.58.09 20.12 0 3.18 1.45 11.27-.25 13.59-3.1 4.22-9.83-.44-13.08-2.22-2.52-1.38-4.47-3.25-6.84-4.79-2.79-1.81-5.81-2.73-8.43-4.9-2.92-2.42-11.75-9.54-11.66-13.46m808.75 164.82c-6.38-2.5-11.06-8.79-11.06-15.91V405.8c0-3.12.9-6.06 2.43-8.6-2.44-3.09-4.9-6.43-7.59-9.31-4.16-4.45-7.63-9.26-11.95-13.53-6.89-6.81-14.11-12.9-21.13-19.51-3.47-3.27-7.7-5.58-10.95-9.09-2.54-2.74-4.18-6.11-7.04-8.56l-18.97-15.9c-11.16-9.17-21.87-19.03-35.98-23.49-14.04-4.44-27.75-7.08-42.44-7.08h-19.17c-3.92 0-7.97-.28-11.89-.06-3.33.18-6.35 1.58-9.67 1.83-6.36.48-11.37.94-17.61 2.85-6.15 1.88-11.89 4.65-17.95 6.71-15.23 5.18-29.76 14.98-40.16 27.31-1.11 1.31-2.06 2.73-3.09 4.08l-.43-1.06c-3.38 3.05-6.88 5.98-10.41 8.73-2.98 2.32-5.48 4.83-7.79 7.48-1.88 1.42-3.72 2.87-5.47 4.42l-31.61 28.26c-5.47 4.85-10.1 11.11-14.65 16.83-5.39 6.78-11.14 14.06-17.24 20.12-6.21 6.16-11.75 9.01-19.6 12.71-12.01 5.65-23.93 12.23-35.2 19.03-10.7 6.45-20.61 13.29-30.74 20.68-5.65 4.12-10.87 8.16-15.93 13.01-4.71 4.5-11.16 7.99-15.24 13.01-10.05 12.34-22.42 26.33-27.76 41.42-1.63 4.59-3.14 10.39 1.49 14.48 4.12 3.64 9.84 5.03 15.59 4.9 8.06-.19 9.06-4.8 13.46-9.11 2.83-2.78 8.37-4.44 12-6.06 5.51-2.46 11.38-1.44 17.29-1.55 5.27-.1 10.36-2.09 15.44-3.4 6-1.55 12.51-2.52 18.23-5.03 2.84-1.25 4.9-3.27 7.63-4.61 3.23-1.59 6.28-1.8 9.48-3.77l14.98-9.19c11.1-7.03 21.03-13.93 33.13-19.34 4.45-1.99 8.08-2.62 12.62-3.29 4.76-.7 9.72-2.86 14.77-1.8 1.85.39 3.43 1.53 5.23 2.22 2.44.93 4.79 1.01 7.19 1.14.17 1.29.5 2.56 1.2 3.81 5.39 9.5 16.95 16.78 26.91 20.13 5.5 1.85 8.52 6.08 11 11.29 1.65 3.48 2.18 6.63 2.47 10.34.3 3.8 1.58 7.36 1.77 11.18.69 14.1.04 28.54-.13 42.66-.08 7.01 1.58 13.76 1.76 20.76.13 5.05.58 9.59 1.22 14.6 1.73 13.47 5.72 26.29 8.15 39.58.4 2.21.39 4.52 1.18 6.65 2.63 7.07 9.21 12.36 12.11 19.54 2.63 6.49 4.93 13.16 7.49 19.64 3.59 9.08 4.66 18.83 7.61 28 3.45 10.72 10.43 21.32 15.92 31.18 4.76 8.55 6.66 18.47 10.87 27.29 4.59 9.63 10.2 20.17 17.48 28.05 12.48 13.51 28.3 21.82 42.96 32.75 5.04 3.76 8.18 8.46 11.26 13.82 3.44 5.98 4.06 12.46 6.93 18.67 1.24 2.68 2.89 5.21 4.31 7.79 1.71 3.09 3.79 4.29 6.05 6.74 4.28 4.65 8.89 9.74 14.16 13.38 2.67 1.84 4.19 4.66 6.71 6.47 1.72 1.24 4.37 1.7 6.34 2.38 4.12 1.42 7.78 1.16 12.12 1.22 7.94.1 13.16-4.63 18.91-9.64 2.9-2.52 3.95-5.86 7.05-7.97 3.86-2.63 6.12-6.1 9.68-9.22 2.34-2.05 4.81-4.01 6.67-6.55 3.3-4.53 1.99-9.78 4.26-14.53 2.65-5.54 4.95-10.87 7.11-16.7 2.47-6.69 4.86-13.63 5.08-20.81.12-3.88-.76-8.25.1-12.07.57-2.54 1.45-4.39 1.57-7.06.76-17 .13-34.33-.08-51.34-.07-5.52 1.38-10.74 1.72-16.25.37-6.05.88-12.08 1.68-18.09 1.67-12.6 3.69-25.11 4.66-37.86.83-10.94 2.16-21.73 3.36-32.63 1.15-10.49.41-21.61.38-32.17-.07-21.08 4.75-41.48 4.99-62.64.11-10.13 1.3-20.11 2.81-30.05zm-213.84-36.42c1.66 1.75 2.76 4.1 3.06 7.65l-3.06-7.65z"/><path d="M789.67 371.13c2.43.47 3.19 1.65 4.66 3.48l3.78 4.31c3.27 4.25 1.97 10.1 4.86 14.21 2.93 4.17 7.38 6.68 12.01 8.24 6.57 2.22 9.74 5.81 13.26 11.39 1.62 2.57 2.91 3.58 3.45 6.67a217.14 217.14 0 0 1 1.45 9.46c.84 6.33.1 13.17.14 19.56.08 11.67-5.01 22.43-12.15 31.5-.71.9-1.9 1.41-2.57 2.34-.56.78-.23 2.16-.7 2.98-1.21 2.09-3.14 4.84-5.07 6.38-9.42 7.5-18.39-2.82-24.79-8.85-8.94-8.42-14-17.98-19.01-28.99-4-8.77-7.65-18.25-5.91-28.04 1.4-7.85 4.86-15.09 5.96-23.05 1.38-10 .72-21.82 9.78-28.57 3.11-2.32 6.94-3.8 10.85-3.03z" fill="#fff" class="H I J"/><path d="M793.03 433.32c-.67 3.42-5.34 4.02-8.01 5.5-4.66 2.58-7.81 2.91-13.56 2.88-4.59-.02-9.58.65-14.06-.33-7.15-1.57-5.13-5.62.03-8.55-3.06-2.34-9.22.09-10.87-4.59 2.8-2.07 1.83-5.02 5.72-6.41 2.93-1.05 7.37-.36 10.51-.29 3.39.08 6.17 1.45 9.44 1.78 3.75.38 7.66-.48 11.42-.12 4.68.45 15.22 3.56 14.66 10.16-.5 5.96-12.81 5-17.01 4.99M616.07 868.97c-10.2-19.05-20.39-38.07-27.13-58.61-2.38-7.26-2.55-13.68-1.06-21.18 2.04-10.2 3.6-20.13 2.24-30.62-.42-3.21-1.77-4.88-1.71-8.35.06-3.98-.43-7.05-1.32-10.72-.77-3.18.03-6.4-.73-9.58-.5-2.08-.96-3.7-1.26-5.99-.78-5.94-1.48-12.09-2.56-17.93-1.84-9.87-.84-20.6-.84-30.75s.8-19.49 1.59-29.36c.44-5.55 1.78-10.39 1.76-16.02-.02-8.24-.12-16.43-.42-24.66-.27-7.44-.29-15.41 5.09-21.12 10.8-11.44 30.63-24.21 46.82-16.83 9.09 4.15 12.63 13.02 16.51 21.55 5.65 12.45 9.73 23.96 12.53 37.37 4.96 23.76 11.28 46.66 15.1 70.34.8 4.95 2.5 9.77 3.21 14.97.66 4.8.14 10 .14 14.85 0 5.53.44 11.09-.82 16.38-1 4.22-3.62 8.32-4.29 12.59-.48 3.09-.71 8.76 0 11.78.6 2.55 2.59 5.16 3.28 7.62 1.94 6.93 3.16 14.36 5.03 21.67 3.22 12.55 3.54 26.18 5.57 39.19 1.6 10.26 4.76 19.9 4.67 30.27-.08 9.18-.36 16.89 3.41 25.6 5.15 11.88 4.07 26.7 4.88 39.34.82 12.86 2.91 23.93-.08 36.72-.76 3.25-2.26 5.71-4.22 8.31-.79 1.04-1.63 3.3-2.66 3.96-1.61 1.03-4.11.8-5.96 1.83-4.02 2.24-5.43 4.98-10.5 5.19-2.96.12-4.37.22-6.3-2.08-2.93-3.5-4.62-10.21-5.83-14.64-2.26-8.31-3.61-16.99-6.3-25.16-2.62-7.96-4.9-15.23-10.06-21.81-5.38-6.85-8.68-15.12-14.64-21.85-8.74-9.88-16.87-20.58-23.12-32.27z"/><g class="H I J K"><path d="M531.1 471c-7.92-.03-14.81.39-22.19-2.99-4.34-1.98-8.19-5.06-12.59-6.8-1.68-.66-3.31-1.27-4.77-2.39-1.55-1.18-2.92-2.25-4.57-3.36-2.45-1.65-4.5-4.07-6.67-6.04-4.38-3.98-8.87-8.68-11.16-14.09l-4.06-9.65c-1.63-4.06-2.46-8.12-4.1-12.14-2.42-5.94-4.59-12.28-6.52-18.43-1.11-3.52-1.27-7.41-1.85-11-.59-3.64-1.23-8.24-2.75-11.61-2.13-4.75-3.37-8.79-3.74-14.25-.08-1.22.12-2.46.06-3.68-.08-1.53-.76-2.66-.96-4.15-.23-1.71.28-3.37-.15-5.06-1.33-5.17-.67-11.12-.65-16.57l.03-8.28c0-2.92.75-5.54 1.65-8.28 1-3.05 1.57-6.15 2.31-9.2.66-2.74 2.35-4.87 3.68-7.31 3.25-5.95 7.66-11.06 12.73-15.26 2.94-2.44 5.31-4.7 8.59-6.82 2.68-1.73 5.23-3.78 8.03-5.24 2.59-1.35 4.3-2.79 6.94-3.88 2.85-1.18 6.22-2.8 9.16-3.44 6.11-1.33 12.33-2.16 18.27-3.61 2.74-.67 6.12-.18 8.97-.17l10.49.04c7.31 0 12.38 4.18 18.01 8.37 2.27 1.69 4.49 1.91 6.9 3.2 2.75 1.47 5.52 3.06 8.02 5.12 2.88 2.36 5.7 5.45 8.05 8.33 2.03 2.5 3.93 4.86 5.17 7.77 2.59 6.06 6.52 11.99 9.98 17.58 1.89 3.04 3.02 5.88 3.78 9.42.82 3.83 2.1 7.77 2.04 11.7l-.05 10.65c-.01 3.46.57 7.48-.25 10.84-.48 1.96-.42 3.51-.69 5.5s-1 3.64-.99 5.77c.01 1.79.23 3.74.02 5.5-.14 1.23-.59 1.73-.77 2.78-.22 1.24.04 2.49-.17 3.69-.37 2.1-1.36 4.35-1.91 6.43-.52 1.97-.8 4-1.37 5.89-1.34 4.42-2.23 9.01-3.54 13.45-1.9 6.47-3.99 13.08-6.49 19.27-1.09 2.69-3.18 4.77-4.58 7.28-1.2 2.15-2.03 4.5-3.2 6.67-.85 1.58-1.87 3.03-2.95 4.46-6.9 9.08-14.33 18.07-23.13 25.37-5.91 4.9-15.66 8.78-23.32 8.59" class="G"/><g fill="#fff"><path d="M455.1 412.93l-4.58.03c-2.67-.12-3.26-1.55-5.24-3.63l-6.71-7.13c-2.39-2.91-2.73-6.06-4.11-9.74-1.77-4.73-2.78-11.62-3.32-17.12-.42-4.29-1.22-13.71.65-17.65 5.15-10.87 17.12 14.81 18.74 20.54 1.53 5.39 2.81 10.76 4.26 16.16 1.32 4.92 3.79 10.03 2.41 15.39l-.95.25m128.93 0c.04-6.45 1.82-12.69 3.77-18.8 2.23-6.99 4.09-13.99 5.99-21.1.82-3.05 2.31-5.87 3.14-8.84.9-3.24 1.29-6.68 2.3-9.87.98-3.11 7.59-17.43 12.15-11.15 1.19 1.64 1.58 5.96 1.72 7.93.24 3.39-.58 6.12-1.18 9.32-1.27 6.7-2.52 12.63-5.23 19.01-3 7.06-4.82 13.73-9.19 20.16-1.46 2.14-13.54 13.65-12 4.64"/></g><g class="G"><path d="M491.63 374.28c-4.98 0-12.29-1.29-16.06 2.83-6.31 6.91 5.41 6.47 9.41 5.75 2.88-.52 5.06-1.38 8.18-1.32 2.52.04 4.47.55 6.14-1.35 3.64-4.14-.79-3.91-3.36-4.41-2.65-.52-4.36-1.56-7.21-1.5m65.28 0c-2.42 0-6.53-.8-8.73.19-3 1.34-4.72 7.76-1.6 9.75 1.34.85 4.49.13 6.06.54 1.86.49 2.21 1.03 4.2 1.17 2.12.15 3.84-.29 5.95.28 1.88.51 2.2 1.32 4.31 1.2 2.78-.17 4.96-1.79 6.23-4.38 1.86-3.79-.95-4.02-3.68-5.44-2.59-1.35-4.73-2.98-7.66-3.35-2.98-.38-6.42.05-9.43.05"/><path d="M554.01 378.63c.45 3.05 4.46.83 2.12-.71.45-.48.6-1.03.46-1.66-.88.48-1.18 1.22-.9 2.21 1.33-.13 1.6-.98 1-2.22l-1.24.93m-34-14.57c-1.06 2.14-2.57 3.91-2.67 6.32v5.6 6.84c.02 2.28-.76 4.08-1.18 6.31-.62 3.36-.26 7.37-.17 10.8.06 2.34.9 4.69 1.81 6.86 1.59 3.74 3.83.3 3.53-2.37-.08 2.3-.79 6.44 1.64 7.83 1.29.74 1.98.01 2.61-1.26.47-.93 1.48-3.94.92-4.74-.74 1.12-.92 3.19.67 3.68.23-1.04 1.17-3.41.65-4.35-.86 1.08-.04 2.98.28 4.2 2.16-1.01 2.07-6.25 1.71-8.17-.45-2.42-1.12-4.62-1.84-6.96-1.36-4.42-1.33-8.85-1.33-13.46v-14.33c.02-1.51 0-4.84-1.96-5.4-2.63-.75-2.84 2.64-4.02 3.92m19.29-12.62c.23-1.38 3.82-2.95 5.04-3.27 1.07-.27 2.32 0 3.43-.04 1.44-.05 2.7-.61 4.13-.7 1.99-.12 14.88.8 12.54 4.7-1.19 1.99-5.75 2.73-7.74 3.28-.55.15-1.21.51-1.78.61-.73.13-1.48-.09-2.2.02-1.2.19-2.04 1.06-3.2 1.31-2.3.5-5.25.03-7.6.05-3 .03-4.72-.68-4.64-3.99"/></g></g><g clip-path="url(#B)"><path d="M454.73 348.36c1.78-8.14 3.56-16.34 4-24.68.12-2.38-.03-4.75.4-7.11.63-3.48 1.96-7.45 4.02-10.34.98-1.37 1.95-2.59 2.74-4.08.59-1.12 1.09-2.72 2.34-3.29 1.94-.9 2.51 1.93 4.47 1.59.06-2.1 1.19-3.34 2.9-3.58 1.76-.24 4.64 1.8 5.96.9.85-.58.27-1.35 1.33-1.87.7-.35 2.85.06 3.57.07 2.71.02 4.91-.84 7.57-.94 2.46-.1 4.93.27 7.37-.18 3.13-.58 6.11-1.01 9.38-.76 1.54.12 2.93.85 4.45 1.02 1.36.15 2.8-.12 4.17-.07 1.74.06 2.62.68 4.28.99 1.42.27 3-.26 4.44-.1 1.45.17 2.48.79 3.88 1.02 1.37.22 3.03-.05 4.43-.05 4.33 0 8.46.15 12.69-.72 1.57-.32 3.01-.09 4.58-.18 1.52-.09 2.4-.76 3.84-1 .94-.16 1.78.1 2.76-.15s1.66-1.12 2.81-.8c1.08.3 2.9 3.62 3.64 4.69 1.28 1.85 2.44 1.95 4.39 3.02 1.08.59 3.3 1.3 4.16 2.23 1.43 1.54.32 3.84 1.82 5.69.38.05.61-.1.69-.45-.14 1.25.69 2.54 1.11 3.68.58 1.59.85 3.67 1.89 5.07 1.09 1.47 2.73 1.67 3.71 2.94.82 1.07.96 4.32 1.31 5.75.57 2.3.7 4.66 1.17 6.96.67 3.23 1.5 6.54 2.3 9.75.72 2.87 1.4 4.78 1.38 7.85-.03 5.01.76 10.25-1 15.03-.61 1.65-.95 2.74-.33 4.52 1.78 5.11 6.02 1.8 8.88-.2 1.81-1.27 3.22-2.85 4.89-4.25 1.32-1.11 2.83-1.8 4.16-2.94 3.12-2.66 5.8-5.19 7.77-8.87 2.41-4.49 4.42-9.35 5.81-14.25 1.18-4.15 1.68-8.41 2.98-12.56 1.3-4.16 1.73-7.94 1.79-12.28s.89-8.55.99-12.86c.14-5.89-.25-11.63-.74-17.48l-3.22-41.64c-.52-4.97-1.08-9.96-2.39-14.79-1.91-7.05-7.68-11.39-13.26-15.68-7.36-5.65-16.29-9.41-25.24-11.71-12.5-3.21-25.95-5.83-38.87-5.58-10.84.21-21.69 1.76-32.43 3.07-10.07 1.22-20.22 2.12-30.16 4.23-19.4 4.13-37.02 15.91-50.44 30.22-25.92 27.65-47.05 62.6-48.22 101.44-.39 12.83 2.21 26.87 9.16 37.88 3.42 5.41 9.95 10.58 15.2 14.06 4.04 2.69 8.5 5.37 12.95 7.29 4.59 1.98 10.38 2.58 15.37 2.28 3.27-.2 8.5-.85 11.5-2.22 4.41-2.01 4.58-6.53 5.87-10.6 1.1-3.47.91-6.47.7-10.02-.14-2.28.57-3.86 1.27-5.95 1.98-5.94-.26-12.79 1.1-18.99z"/></g><g class="G H I J K"><path d="M500.45 445.06c1.34 1.34 5.15 6.5 7.36 6.44m24.85 4.6c1.51-1.51 5.12-6.58 7.36-6.44m-4.6-8.29c1.84-1.69 3.27-2.65 5.52-3.68m26.69-25.77c1.05 2.37 3.41 5.71 3.68 8.28m-13.82-5.24v5.52m21.19-26.05c1.35 1.35 2.65 2.89 4.16 4.07.93.73 2.46.78 2.29 2.37m-30.38 36.82c2.44 1.23 3.94 1.6 5.52 3.68m-43.26 27.62c-.19 1.46-1.79 4.54 0 5.52m-36.81-34.98c.32 2.94 2.31 5.28 2.76 8.28m-15.65-19.32c4.69.09 9.11 1.96 13.81 1.84m4.58-12.61c1.05 1.17 2.27 2.09 3.68 2.76m18.41 5.52h3.68c1.67-.02 2.31.48 3.76.84 2.72.67 6.27.08 9.07.08 3.34 0 6.06-.15 9.25-1.15 1.72-.54 7.99-1.81 8.29-3.45m-56.14-44.18c-.12-1.16.57-2.49 1.73-2.65.16.6-.06.82-.66.66.07-1.56 2.06-.71 1.68.6v1.03l.02-1.15c.15.75-.05 1.31-.72 1.43l-.23-.84m23.03 40.5c-3.06 0-17.87 2.14-16.47-3.71.68-2.85 6.08-2.99 8.21-2.76 2.85.31 6.78 2.82 8.9 4.9-1.26 1.16-3.64.65-5.24.65m-28.54-67.19c2.38-1.19 5.17-1.63 7.81-2.3 1.69-.43 3.37-.25 5.09-.66 1.36-.32 3.19-1.63 4.08.25l-2.72-.05c2.88.04 4.88.55 7.64 1.08.18 2.28 4.31 3.15 3.79 5.2-1.44.22-2.64.95-4.07 1.12-1.32.15-2.8-.04-4.14-.03-3.34.02-6.27-.93-9.65-.92-2.76.01-7.83.97-10.09-.99-3.41-2.95 3.61-2.69 5.02-2.69m18.57 114.24c.39 2.46 1.36 5.47 2.52 7.55m37.21-60.55c1.81.49 4.94-2.65 6.78-3.25 1.66-.54 3.68-1.42 5.39-1.72.72-.13 4.85-.61 5.34.06 1.07 1.46-1.98 4.07-3.04 4.6-.94.47-1.73.25-2.73.39s-1.64.64-2.51.99c-2.9 1.16-7.71 2.4-10.84 1.3.03-1.25 1.21-1.31 1.61-2.37m-79.71-2.92c0 6.59 2.29 12.74 3.32 19.23.64 4.03 1.64 8.06 2.54 12.05 1 4.43 1 9.02 2.1 13.52.99 4.04 2.76 8.4 3.27 12.5.24 1.91-.16 3.39.46 5.33.58 1.81 1.41 3.22 1.72 5.07 1.14 7.02 2.62 14.29 5.29 20.92 1.63 4.05 3.4 7.24 6.46 10.35 1.42 1.44 2.11 2.42 4.13 2.84 1.99.42 4.38.83 6.43 1.13 2.4.35 4.75-.07 7.18.5 1.61.37 2.63.58 4.28.56h13.79c5.01 0 8.88-1.2 13.79-2.02 1.95-.32 3.84-.12 5.75-.82 2.52-.91 4.23-2.93 6.68-3.92 4.01-1.62 7.72-2.8 10.7-6.2 3.26-3.72 4.28-6.92 5.13-11.65.76-4.23.98-7.97.98-12.29 0-2.15.31-4.6.06-6.72-.23-1.93-1.36-3.57-1.26-5.56.22-4.36 3.3-8.86 4.27-13.14 1.11-4.89 1.66-9.1 3.63-13.73"/></g><path d="M628.25 792.67l2.19-9.13c2.34-8.98 3.59-17.81 6.33-26.78 3.4-11.14 5.24-22.02 7.13-33.52 2.49-15.17 6.92-30.43 8.1-45.71.55-7.12-.24-14.2.49-21.29 1.09-10.56 3.72-21.14 5.28-31.67 1.56-10.48 2.09-21.07-.04-31.5-2.07-10.17-1.64-21.31-5.36-31.03-6.28-16.4-23.19-26.03-33.65-39.21-4.96-6.24-10.88-10.78-18.07-14.28-8.11-3.95-16.94-6.7-23.47-13.23-3.1-3.1-5.88-6.54-8.43-10.02-1.4-1.91-1.44-3.23-3.31-5.07-1.44-1.41-2.87-2.84-4.19-4.36-3.24.74-5.01 4.74-7.51 6.87-2.41 2.04-6.32 4.96-9.22 5.92-3.63 1.2-7.39 2.77-11.38 1.68-6.25-1.72-13.17-1.67-19.75-2.61-8.39-1.21-18.11-2.21-25.59-5.35-3.32-1.4-6.77-2.99-10.11-4.61-3.59-1.74-5.25-4.53-9.6-3.44-3.17.79-4.89 3.98-7.41 5.91-2.99 2.28-6.3 3.95-9.32 5.83-7.06 4.38-13.33 10.04-20.5 14.26-8.76 5.15-17.05 10.73-25.26 16.82-4.07 3.02-9.5 5.1-13 8.76a4.71 4.71 0 0 1-1.87 2.94c-1.85.81-3.5 1.94-4.93 3.39-1.71 1.77-2.37 3.6-3.48 5.63-2.99 5.47-7.25 10.34-10.32 15.89-3.38 6.1-7.43 11.92-10.68 18.08-4.15 7.89-6.29 16.41-11.21 23.85-2.19 3.3-3.8 6.28-4.52 10.24-2.22 12.15-3.07 24.47-3.65 36.8-.31 6.64-1.75 12.68-1.72 19.49.04 10.45-.83 21.06 1.3 31.29 2.58 12.39-2.41 26.21.67 38.49.98 3.91 3.66 8.42 5.11 12.32 3.36 9.06 2.23 16.7 2.91 26.03.5 6.9 3.19 13.49 3.52 20.43.31 6.65-.76 13.01 1.1 19.54 1.59 5.57 3.76 10.11 3.89 15.95.08 3.36-.17 6.72-.15 10.08.04 8.99 2.54 16.02 5.24 24.37 5.29 16.29 6.56 34.27 8.3 51.21.59 5.76 1.56 11.57 1.77 17.37.23 6.47-.64 12.9.29 19.35 1.16 8.12 3.02 16.22 3.01 24.52 0 12.22 1.69 24.08 4.5 35.94 1.73 7.32 5.14 8.9 10.15 13.77 4.49 4.36 7.99 9.75 10.84 15.16 5.06 9.6 13.25 8.72 23.26 8.06 9.54-.63 18.83-6.73 26.71-11.58 2.57-1.58 4.41-3.52 6.85-5.19 3.99-2.73 8.36-4.1 12.14-7.22 2.97-2.45 6.4-4.71 9.15-7.39 3.58-3.5 5.79-8.22 8.62-12.28 3.37-4.83 8.35-8.61 11.31-13.67 1.02-1.74 1.15-3.5 2.41-5.12 3.49-4.5 7.89-8.21 11.35-12.89 2.37-3.22 4.92-6.3 7.23-9.56 6.92-9.75 11.6-20.83 18.1-30.86 4.94-7.63 11.65-13.8 15.92-21.75 4.96-9.24 12.23-18.44 18.74-26.69 13.84-17.53 28.08-35.34 38.95-54.79 2.55-4.56 5.47-8.91 7.92-13.53 3.49-6.59 5.28-13.69 6.95-20.86z"/><g class="G H I J K"><path d="m693.02,928.04c4.84,1.03,6.17,3.53,5.9,8.19-.33,5.66-.77,9.71,1.32,15.16,5.2,13.56,7.36,27.78,11.04,41.77,2,7.61,2.95,14.91,2.94,22.95,0,3.92.36,7.3-1.22,10.9-1.43,3.24-3.73,5.6-5.48,8.4-2.97,4.74-3.53,26.78-9.78,26.73-2.28-6.01,3.58-18.66-2.06-22.91.22,5.38.31,10.25-1.13,15.41-1,3.58-1.68,12.34-5.58,7.68.4.48-1.47-4.56-1.45-4.41-.32-1.85-.16-3.82-.14-5.73.02-3.94.16-7.11-1.27-10.48-1.22-2.88-2.97-4.67-4.18-7.56-.57-1.35-.83-2.23-1.27-3.77-.34-1.2-1.35-3.27-1.53-4.34-.63-3.54.05-5.98-1.83-9.08-1.57-2.59-3.95-5.28-6.36-1.34-2.03,3.31,2.91,21.79-3.7,21.67-2.47-.05-4.69-4.21-5.09-6.01-.35-1.56-.16-4.38.02-5.97.18-1.62,1.12-2.58,1.34-3.69,1.49-7.3,2.24-15,6.67-21.52,2.04-2.99,5-5.4,7.17-8.31,1.3-1.75,1.82-3.15,2.85-5.03,2.49-4.56,3.59-6.49,4.51-11.74.54-3.07-.09-6.92-.09-10.07"/><path d="m696.66,1052.82c3.1-1.79,5.55-4.95,7.92-7.57,3.68-4.08,8.22-6.89,12-10.87s7.38-7.57,11.2-11.26c1.5-1.45,6.48-10.05,8.47-5.64,1.42,3.13-5.29,9.33-6.94,11.28-2.96,3.52-5.36,7.51-8.39,10.88-3.47,3.86-7.58,7.19-11.89,10.09-2.48,1.67-8,5.48-10.99,5.01"/></g><path d="M732.23 1021.72l1.83-11.47c.95-6.3 3.64-10.76 6.01-16.49 3.64-8.8 12.55-18.32 11-28.58-.33-2.22-1.78-4.03-1.93-6.31-.16-2.45.71-4.88.66-7.35-.12-5.53-1.89-11.08-1.92-16.62-.07-11.2 3.62-23.69 5.39-34.83l4.48-28.16c.67-4.22-.3-10.18 5.53-8.47 6.38 1.87 6.58 10.24 6.69 15.87.11 5.99.86 11.79.98 17.75.14 7.27-.18 14.62.09 21.8.21 5.5 1.19 10.11.48 15.68-.79 6.15-.17 12.13-1.19 18.42-1.94 12.04-4.25 22.87-11.19 33.09l-11.28 16.1c-3.58 5.08-9.61 9.03-11.54 15.13M447.48-6.02c0 4.41-.89 9.97.13 14.26 1.56 6.61 6.2 13.54 10.71 18.45 11.13 12.09 25.73 18.79 41.55 22.23 7.33 1.6 15.13 3 22.41 3.83 7.49.85 19.03-1.26 25.57-5.01 3.3-1.89 6.15-4.81 9.52-6.79 3.45-2.02 6.42-4.33 9.63-6.71 5.37-3.98 8.42-8.41 10.75-14.84-5.46-1.65-9.77 2.24-14.84 3.18-5.25.97-11.79-.08-17.19-.08-3.11 0-6.54.38-9.65.09-2.81-.27-5.26-1.56-8.1-1.85-6.33-.64-12.01-.36-18.04-3.14-6.19-2.86-11.6-9.08-17.11-13.09-5.71-4.16-10.78-7.84-15.09-13.43-4.68-6.06-9.52-12.95-12.26-20.12-2.21-5.78-5.69-10.55-6.54-16.73-5.22-3.86-9.53 22.48-9.94 24.69-.85 4.6-2.22 9.52-3.4 14.09-1.22 4.73-1.8 5.05.21 9.35m93.96 1106.35l10.33.15c2.33.03 4.11.59 5.32 1.66 1.21 1.08 1.81 2.47 1.78 4.18s-.61 3-1.75 3.88c-1.57 1.21-3.5 1.8-5.78 1.77l-3.73-.05-.11 7.15c0 .42.09.71.29.9.26.23.61.35 1.06.36l2.38.04-.02 1.06-10.07-.15.02-1.06 2.1.03c.42 0 .72-.07.92-.23s.3-.38.3-.67l.25-16.69c0-.42-.11-.73-.36-.93s-.71-.29-1.39-.3l-1.55-.02.02-1.06zm6.17 10.56l2.84.04c1.8.03 3.1-.33 3.91-1.07s1.22-1.97 1.25-3.7c.02-1.21-.15-2.14-.5-2.79s-.87-1.14-1.55-1.46c-.69-.32-1.82-.49-3.41-.52-1.05-.02-1.71.07-1.99.27-.28.19-.42.54-.43 1.03l-.12 8.2zm26.59 9.4l.5.8c-.7.7-1.47 1.04-2.31 1.03-.64 0-1.18-.19-1.61-.55s-.81-.97-1.13-1.86c-.91.93-1.71 1.55-2.39 1.86s-1.5.45-2.46.44c-1.36-.02-2.39-.33-3.09-.92a2.79 2.79 0 0 1-1.03-2.27c.02-1.38.85-2.51 2.48-3.4s3.8-1.46 6.49-1.72l.03-2.01c.01-.72-.27-1.33-.84-1.85s-1.3-.78-2.18-.8c-.82-.01-1.53.15-2.13.48-.43.25-.64.5-.65.74 0 .14.11.36.33.67.27.38.4.72.4 1.01 0 .43-.15.77-.43 1.04s-.64.39-1.08.39c-.47 0-.86-.17-1.18-.5-.31-.33-.46-.74-.46-1.24.01-.93.55-1.78 1.62-2.54 1.06-.76 2.45-1.12 4.16-1.1 1.58.02 2.77.38 3.6 1.07.82.7 1.22 1.54 1.21 2.52l-.11 7.25c0 .64.09 1.12.29 1.42.2.31.47.47.8.48.37 0 .76-.14 1.17-.44zm-4.56-5.66c-2.4.29-4.11.81-5.12 1.54-.75.55-1.14 1.35-1.15 2.39-.01.73.17 1.3.56 1.71s.88.63 1.5.64c1.11.02 2.09-.39 2.92-1.22s1.25-1.89 1.27-3.16l.03-1.9zm6.49-6.12l4.77-.17-.08 5.37c.54-1.76 1.17-3.08 1.9-3.98s1.62-1.33 2.68-1.32c.72.01 1.29.24 1.71.68.42.45.63 1.04.62 1.77 0 .6-.16 1.06-.45 1.38-.29.33-.66.49-1.09.48-.43 0-.76-.15-1.02-.44s-.38-.67-.37-1.15a1.74 1.74 0 0 1 .24-.88c.14-.24.22-.39.22-.43 0-.14-.09-.21-.27-.22-.39 0-.83.21-1.33.66-.69.62-1.23 1.48-1.61 2.58-.59 1.71-.89 3.08-.91 4.11l-.04 2.85c0 .32.1.57.33.74.22.17.61.26 1.16.27l1.69.02-.02 1.06-8.24-.12.02-1.06 1.32.02c.44 0 .78-.08 1.01-.25s.35-.38.35-.62l.12-8.45c0-.64-.12-1.11-.39-1.41s-.66-.46-1.17-.46l-1.16-.02v-1zm18.06-7.65l-.28 19.23c0 .26.07.47.23.61.23.19.52.29.86.3l1.4.02-.02 1.06-7.52-.11.02-1.06 1.33.02c.43 0 .76-.09.97-.3s.33-.5.33-.87l.24-16.14c0-.47-.12-.82-.37-1.04-.34-.31-.77-.46-1.28-.47l-1.19-.02.02-1.06 5.26-.16zm17.7 19.99l.5.8c-.7.7-1.47 1.04-2.31 1.03-.64 0-1.18-.19-1.61-.55s-.81-.97-1.13-1.86c-.91.93-1.71 1.55-2.39 1.86s-1.5.45-2.46.44c-1.36-.02-2.39-.33-3.09-.92a2.79 2.79 0 0 1-1.03-2.27c.02-1.38.85-2.51 2.48-3.4s3.8-1.46 6.49-1.72l.03-2.01c.01-.72-.27-1.33-.84-1.85s-1.3-.78-2.18-.8c-.82-.01-1.53.15-2.13.48-.43.25-.65.5-.65.74 0 .14.11.36.33.67.27.38.4.72.4 1.01 0 .43-.15.77-.43 1.04s-.64.39-1.08.39c-.47 0-.86-.17-1.18-.5-.31-.33-.46-.74-.46-1.24.01-.93.55-1.78 1.62-2.54 1.06-.76 2.45-1.12 4.16-1.1 1.58.02 2.77.38 3.59 1.07.82.7 1.22 1.54 1.21 2.52l-.11 7.25c0 .64.09 1.11.29 1.42s.47.47.8.48c.37 0 .76-.14 1.17-.44zm-4.56-5.66c-2.4.29-4.11.81-5.12 1.54-.75.56-1.14 1.35-1.15 2.39-.01.73.17 1.3.56 1.71.38.42.88.63 1.5.64 1.11.02 2.09-.39 2.92-1.22s1.25-1.89 1.27-3.16l.03-1.9zm6.12-6.13l6.53.1v.96c-.88 0-1.44.08-1.68.21s-.37.33-.37.58a1.5 1.5 0 0 0 .13.62l3.4 7.88 3.31-7.55c.05-.13.08-.26.08-.39 0-.69-.66-1.13-2.01-1.31v-.96l5.51.08v.96c-.57.05-1.02.19-1.35.43s-.59.57-.78.98l-5.03 11.19h-.76l-5.05-11.66c-.18-.42-.41-.71-.67-.88s-.69-.26-1.26-.28v-.96z"/><use xlink:href="#C"/><path d="M652.31 1110.36l5.19-.16-.27 18.15c0 .71.12 1.21.38 1.52s.67.46 1.2.47h.92l-.02 1.08-4.53-.07-.3-2.71c-.55.95-1.19 1.67-1.92 2.14-.73.48-1.54.71-2.44.69-1.51-.02-2.79-.67-3.83-1.95s-1.55-2.96-1.52-5.04c.03-2.25.74-4.03 2.12-5.35 1.08-1.03 2.32-1.54 3.71-1.52.85.01 1.61.24 2.28.67.67.44 1.25 1.08 1.74 1.95l.11-7.49a1.12 1.12 0 0 0-.45-.95c-.3-.24-.78-.36-1.43-.37h-.95l.02-1.08zm-.95 8.44c-1.02-.02-1.83.39-2.45 1.22s-.93 2.24-.96 4.24c-.03 2.16.25 3.69.85 4.58s1.38 1.35 2.34 1.36c1.03.02 1.92-.47 2.66-1.44.75-.97 1.13-2.41 1.16-4.31.03-1.79-.34-3.21-1.11-4.25-.67-.92-1.5-1.38-2.5-1.4zm9.57-.63l5.28-.08-.17 11.41c0 .31.07.53.22.67.21.19.49.29.82.29l1.5.02-.02 1.06-7.55-.11.02-1.06 1.4.02c.42 0 .72-.09.92-.29s.3-.49.3-.88l.12-8.35c0-.53-.14-.93-.44-1.2s-.74-.41-1.34-.42l-1.09-.02.02-1.06zm3.8-7.86c.43 0 .79.17 1.11.5s.47.7.46 1.14c0 .42-.17.79-.48 1.1a1.5 1.5 0 0 1-1.12.45c-.43 0-.81-.17-1.12-.49s-.46-.69-.46-1.12c0-.42.17-.79.5-1.11a1.48 1.48 0 0 1 1.11-.46zm13.14 8.11l4.77-.17-.08 5.37c.54-1.76 1.17-3.08 1.9-3.98s1.62-1.33 2.68-1.32c.72 0 1.29.24 1.71.68.42.45.63 1.04.62 1.77 0 .6-.16 1.06-.45 1.38-.29.33-.66.49-1.09.48-.43 0-.76-.15-1.02-.44s-.38-.67-.37-1.15a1.74 1.74 0 0 1 .24-.88c.14-.24.22-.39.22-.43 0-.14-.09-.21-.27-.22-.39 0-.83.21-1.33.66-.69.62-1.23 1.48-1.61 2.58-.59 1.71-.9 3.08-.91 4.11l-.04 2.85c0 .32.1.57.33.74.22.17.61.26 1.16.27l1.69.02-.02 1.06-8.24-.12.02-1.06 1.32.02c.44 0 .78-.08 1.01-.25s.35-.38.35-.62l.12-8.45c0-.64-.12-1.11-.39-1.41s-.66-.46-1.17-.46l-1.16-.02v-1zm26.78 12.2l.5.8c-.7.7-1.47 1.04-2.31 1.03-.64 0-1.18-.19-1.61-.55s-.81-.98-1.13-1.86c-.91.93-1.71 1.55-2.39 1.86s-1.5.45-2.46.44c-1.36-.02-2.39-.33-3.09-.92a2.79 2.79 0 0 1-1.03-2.27c.02-1.38.85-2.51 2.48-3.4s3.8-1.46 6.49-1.72l.03-2.01c.01-.72-.27-1.33-.84-1.85s-1.3-.78-2.18-.8c-.82-.01-1.53.15-2.13.48-.43.25-.65.5-.65.74 0 .14.11.37.33.67.27.38.4.72.4 1.01a1.34 1.34 0 0 1-.43 1.03c-.28.27-.64.4-1.08.39-.47 0-.86-.17-1.18-.5-.31-.32-.46-.74-.46-1.24.01-.93.55-1.78 1.62-2.54 1.06-.76 2.45-1.12 4.16-1.1 1.58.02 2.77.38 3.6 1.07.82.7 1.22 1.54 1.21 2.52l-.11 7.25c0 .64.09 1.11.29 1.42s.47.47.8.48c.37 0 .76-.14 1.17-.44zm-4.56-5.66c-2.4.29-4.11.81-5.12 1.54-.75.56-1.14 1.35-1.15 2.39-.01.73.17 1.3.56 1.71.38.42.88.63 1.5.64 1.11.02 2.09-.39 2.92-1.23.83-.83 1.25-1.88 1.27-3.16l.03-1.9zm16.85-5.22c.96-.94 1.83-1.4 2.63-1.39a1.59 1.59 0 0 1 1.17.47c.31.31.46.68.45 1.11 0 .35-.11.64-.33.87-.21.23-.46.34-.75.34-.54 0-.9-.34-1.08-1.01-.07-.28-.2-.43-.38-.43-.32 0-.67.2-1.06.62.4.56.67 1.05.81 1.46a4.12 4.12 0 0 1 .21 1.33c-.01.82-.22 1.54-.63 2.17-.41.62-1.07 1.17-2 1.63-.93.47-1.81.7-2.65.68l-1.54-.02c-1.09-.02-1.82.09-2.19.31-.36.23-.55.57-.55 1.03a.99.99 0 0 0 .43.86c.29.2.84.31 1.65.32l3.5-.02c1.77.03 3.03.34 3.8.94s1.15 1.42 1.13 2.44c-.02 1.13-.47 2.08-1.37 2.84-1.25 1.08-3.11 1.6-5.56 1.56-2.03-.03-3.53-.42-4.5-1.19-.77-.6-1.14-1.26-1.13-1.99 0-.56.26-1.06.77-1.52.5-.46 1.34-.79 2.51-1-.93-.24-1.63-.58-2.09-1.03-.47-.45-.69-.99-.69-1.65 0-.6.21-1.13.6-1.57s1.06-.82 2.01-1.12c-.8-.46-1.39-1-1.79-1.63s-.59-1.36-.58-2.17c.02-1.28.54-2.35 1.56-3.21 1.02-.85 2.34-1.27 3.96-1.25.66 0 1.3.11 1.91.31s1.2.49 1.77.89zm-3.07 12.49c-1.74-.03-2.98.2-3.73.67s-1.13 1.05-1.14 1.73c0 .64.26 1.15.81 1.53.73.5 1.77.76 3.13.78 1.62.02 2.85-.23 3.68-.75.83-.53 1.25-1.12 1.26-1.78 0-.39-.12-.75-.37-1.09s-.65-.6-1.21-.78c-.55-.18-1.37-.28-2.45-.3zm-.65-12.78c-.84-.01-1.54.29-2.09.9-.56.61-.84 1.47-.86 2.59-.02 1.19.24 2.12.78 2.78s1.23 1 2.08 1.01a2.64 2.64 0 0 0 2.1-.92c.55-.63.84-1.54.85-2.73.02-1.1-.25-1.98-.79-2.63s-1.23-.98-2.07-.99zm22.84 11.63l.5.8c-.7.7-1.47 1.04-2.31 1.03-.64 0-1.18-.19-1.61-.55s-.81-.98-1.13-1.86c-.91.93-1.71 1.55-2.39 1.86s-1.5.45-2.46.44c-1.36-.02-2.39-.33-3.09-.92a2.79 2.79 0 0 1-1.03-2.27c.02-1.38.85-2.51 2.48-3.4s3.8-1.46 6.49-1.72l.03-2.01c.01-.72-.27-1.33-.83-1.85-.57-.52-1.3-.78-2.18-.8-.82-.01-1.53.15-2.13.48-.43.25-.65.5-.65.74 0 .14.11.37.33.67.27.38.4.72.4 1.01 0 .43-.15.77-.43 1.04s-.64.39-1.08.39c-.47 0-.86-.17-1.18-.5s-.46-.74-.46-1.24c.01-.93.55-1.78 1.62-2.54 1.06-.76 2.45-1.12 4.16-1.1 1.58.02 2.77.38 3.59 1.07.82.7 1.22 1.54 1.21 2.52l-.11 7.25c0 .64.09 1.11.29 1.42.2.32.47.47.8.48.37 0 .76-.14 1.17-.44zm-4.56-5.66c-2.4.29-4.11.81-5.12 1.54-.75.56-1.14 1.35-1.15 2.39-.01.73.17 1.3.56 1.71.38.42.88.63 1.5.64 1.11.02 2.09-.39 2.92-1.22s1.25-1.89 1.27-3.16l.03-1.9zm7.89-6.1l10.52.15v.85l-8.52 11.23 4.07.06c.94.01 1.69-.27 2.25-.85.57-.58 1.01-1.66 1.34-3.25h.95l-.39 5.22-11.16-.16v-.98l8.51-11.16-3.53-.05c-.74-.01-1.29.08-1.66.28s-.68.53-.96.99c-.27.46-.53 1.26-.77 2.4h-1.05l.4-4.74zm13.8.2l10.52.16v.85l-8.52 11.23 4.06.06c.94.01 1.69-.27 2.25-.85.57-.58 1.01-1.66 1.34-3.25h.95l-.39 5.22-11.16-.16v-.98l8.51-11.16-3.53-.05c-.74-.01-1.29.08-1.66.28s-.68.53-.96.99c-.27.46-.53 1.27-.77 2.4h-1.05l.4-4.74zm26.46 12.2l.5.8c-.7.7-1.47 1.04-2.31 1.03-.64 0-1.18-.19-1.61-.55s-.81-.97-1.13-1.86c-.91.93-1.71 1.55-2.39 1.86s-1.5.45-2.46.44c-1.36-.02-2.39-.33-3.09-.92-.7-.6-1.04-1.35-1.03-2.27.02-1.38.85-2.51 2.48-3.4s3.8-1.46 6.49-1.72l.03-2.01c.01-.72-.27-1.34-.84-1.85-.57-.52-1.3-.78-2.18-.8-.82-.01-1.53.15-2.13.48-.43.25-.65.5-.65.74 0 .14.11.37.33.67.27.38.4.72.4 1.01 0 .43-.15.77-.43 1.04s-.64.4-1.08.39c-.47 0-.86-.17-1.18-.5-.31-.33-.46-.74-.46-1.24.01-.93.55-1.78 1.62-2.54 1.06-.76 2.45-1.12 4.16-1.1 1.58.02 2.77.38 3.59 1.07.82.7 1.22 1.54 1.21 2.52l-.11 7.25c0 .64.09 1.12.29 1.42.2.31.47.47.8.48.37 0 .76-.14 1.17-.44zm-4.56-5.66c-2.4.29-4.11.81-5.12 1.54-.75.56-1.14 1.35-1.15 2.39-.01.73.17 1.3.56 1.71.38.42.88.63 1.5.64 1.11.02 2.09-.39 2.92-1.23.83-.83 1.25-1.88 1.27-3.16l.03-1.9zm10.27-11.47h.95l-.08 5.42 4.29.06-.02 1.3-4.29-.06-.12 8.51c-.01.74.16 1.3.5 1.7s.79.6 1.32.61c.64 0 1.19-.28 1.66-.87.46-.59.74-1.56.84-2.93h.95c-.08 1.78-.5 3.08-1.26 3.92s-1.73 1.26-2.92 1.24c-1.09-.02-1.95-.33-2.56-.94s-.91-1.4-.89-2.37l.13-8.91-2.31-.03v-.99c1.07-.16 1.88-.59 2.44-1.28.83-1.04 1.29-2.5 1.39-4.38zm19.91 12.43l-9.5-.14c.02 2.02.37 3.45 1.07 4.29.8.95 1.82 1.43 3.08 1.45 1.85.03 3.35-1 4.5-3.09l.92.41c-1.42 2.66-3.43 3.97-6.03 3.93-1.77-.03-3.26-.69-4.45-1.99s-1.78-2.95-1.75-4.95c.03-2.15.65-3.88 1.87-5.19 1.21-1.31 2.69-1.95 4.44-1.92 1.28.02 2.39.37 3.31 1.04s1.61 1.63 2.07 2.88c.32.87.48 1.97.48 3.29zm-9.49-1.15l5.75.08c.34 0 .61-.11.8-.34s.29-.62.3-1.18c.01-1.04-.3-1.93-.93-2.66-.64-.74-1.39-1.11-2.27-1.12-.98-.01-1.82.41-2.52 1.28s-1.07 2.18-1.13 3.93zm29.41 4.05l.92.28c-.78 2.7-2.42 4.03-4.93 3.99-1.84-.03-3.34-.66-4.49-1.89-1.15-1.24-1.71-2.86-1.68-4.88.04-2.34.7-4.15 2.01-5.42 1.3-1.27 2.82-1.89 4.56-1.87 1.3.02 2.37.39 3.21 1.12s1.25 1.53 1.24 2.41c0 .53-.17.96-.49 1.3s-.7.51-1.13.5c-.42 0-.78-.16-1.07-.45-.29-.3-.43-.65-.42-1.07 0-.41.17-.81.5-1.18.15-.18.23-.32.23-.42 0-.27-.18-.54-.54-.8s-.86-.4-1.5-.41c-1.15-.02-2.03.39-2.64 1.22-.87 1.2-1.32 2.8-1.35 4.79-.03 1.9.33 3.34 1.07 4.32.74.99 1.7 1.49 2.87 1.51 1.62.02 2.83-1 3.64-3.06zm8.99-9.6c1.79.03 3.27.69 4.47 2 1.19 1.3 1.78 3.01 1.75 5.12-.02 1.45-.31 2.69-.87 3.7-.56 1.02-1.34 1.81-2.36 2.39-1.01.58-2.1.86-3.26.84-1.72-.03-3.16-.7-4.34-2.02-1.17-1.32-1.75-3.02-1.72-5.09.03-2.09.66-3.77 1.87-5.06 1.22-1.29 2.71-1.91 4.46-1.89zm-.02 1c-1.06-.01-1.93.45-2.63 1.4-.69.95-1.06 2.46-1.09 4.52-.03 2.11.29 3.65.95 4.63s1.52 1.48 2.59 1.5c1.11.02 2.01-.46 2.71-1.42s1.06-2.55 1.1-4.76c.03-2.05-.29-3.54-.95-4.46s-1.55-1.4-2.68-1.41zm8.11-.49l4.41-.2a20.16 20.16 0 0 1 .35 2.92c.61-.95 1.32-1.67 2.13-2.14.82-.47 1.73-.7 2.75-.68.88.01 1.61.2 2.2.55s1.06.91 1.41 1.66.52 1.59.5 2.52l-.09 6.46c0 .48.1.82.31 1.03s.58.31 1.09.32h.93l-.02 1.08-6.99-.1.02-1.06h.67c.62.02 1.06-.07 1.31-.27.25-.19.38-.49.38-.89l.08-5.68c.02-1.24-.16-2.16-.53-2.76-.52-.86-1.31-1.29-2.39-1.31-1.07-.02-1.96.4-2.69 1.25s-1.1 1.96-1.12 3.34l-.07 4.91c0 .48.1.82.32 1.03s.58.31 1.09.32h.92l-.02 1.08-7.02-.1.02-1.06h.92c.46.02.82-.07 1.06-.25s.37-.42.37-.7l.13-8.57c0-.57-.14-1-.44-1.29-.3-.3-.74-.45-1.32-.46h-.68l.01-.93zm35.63 1.28c.96-.94 1.83-1.4 2.63-1.39a1.59 1.59 0 0 1 1.17.47c.31.31.46.68.45 1.11 0 .35-.11.64-.33.87-.21.23-.46.34-.75.33-.54 0-.9-.34-1.08-1.01-.07-.28-.2-.43-.38-.43-.32 0-.67.2-1.06.62.4.56.67 1.05.81 1.46a4.12 4.12 0 0 1 .21 1.33c-.01.82-.22 1.54-.63 2.17-.41.62-1.07 1.17-2 1.64s-1.81.7-2.65.68l-1.54-.02c-1.09-.02-1.82.09-2.19.31-.36.23-.55.57-.55 1.03 0 .37.14.65.43.85s.84.31 1.65.32l3.5-.02c1.77.03 3.03.34 3.8.94s1.15 1.42 1.13 2.45c-.02 1.13-.47 2.08-1.37 2.84-1.25 1.08-3.11 1.6-5.56 1.56-2.03-.03-3.53-.43-4.5-1.19-.77-.6-1.14-1.26-1.13-1.99 0-.56.26-1.06.77-1.52.5-.45 1.34-.79 2.51-1-.93-.24-1.63-.58-2.09-1.03-.47-.45-.69-1-.69-1.65 0-.6.21-1.13.6-1.57s1.06-.82 2.01-1.12c-.8-.46-1.39-1-1.79-1.63s-.59-1.36-.58-2.17c.02-1.28.54-2.35 1.56-3.21 1.02-.85 2.34-1.27 3.96-1.24.66 0 1.3.11 1.91.31s1.2.5 1.77.89zm-3.07 12.49c-1.74-.03-2.98.2-3.73.67s-1.13 1.05-1.14 1.73c0 .64.26 1.15.81 1.53.73.5 1.77.76 3.13.78 1.62.02 2.85-.23 3.68-.75s1.25-1.12 1.26-1.78c0-.39-.12-.75-.37-1.09s-.65-.6-1.21-.78c-.55-.18-1.37-.28-2.45-.3zm-.65-12.78c-.84-.01-1.54.29-2.09.9-.56.61-.84 1.47-.86 2.59-.02 1.19.24 2.12.78 2.78s1.23 1 2.08 1.01a2.61 2.61 0 0 0 2.1-.92c.55-.63.84-1.54.85-2.73.02-1.1-.25-1.98-.79-2.63s-1.23-.98-2.07-.99zm14.12-8.23l-.28 19.23c0 .26.07.47.23.61.23.19.52.29.86.3l1.4.02-.02 1.06-7.52-.11.02-1.06 1.33.02c.43 0 .76-.09.97-.3s.33-.5.33-.87l.24-16.14c0-.47-.12-.82-.37-1.04-.34-.31-.77-.46-1.28-.47l-1.19-.02.02-1.06 5.26-.16zm3.61 7.97l5.28-.08-.17 11.41c0 .31.07.53.22.67.21.19.49.29.82.3l1.5.02-.02 1.06-7.55-.11.02-1.06 1.4.02c.42 0 .72-.09.92-.29s.3-.49.3-.88l.12-8.35c0-.53-.14-.93-.44-1.2s-.74-.41-1.34-.42l-1.09-.02.02-1.06zm3.8-7.86c.43 0 .79.17 1.11.5a1.53 1.53 0 0 1 .46 1.14c0 .42-.17.79-.48 1.1a1.5 1.5 0 0 1-1.12.45c-.43 0-.81-.17-1.12-.49s-.46-.69-.46-1.12c0-.42.17-.79.5-1.11a1.48 1.48 0 0 1 1.11-.46zm27.19 20.13l.5.8c-.7.7-1.47 1.04-2.31 1.03-.64 0-1.18-.19-1.61-.55s-.81-.97-1.13-1.86c-.91.93-1.71 1.55-2.39 1.86s-1.5.45-2.46.44c-1.36-.02-2.39-.33-3.09-.92a2.79 2.79 0 0 1-1.03-2.27c.02-1.38.85-2.51 2.48-3.4s3.8-1.46 6.49-1.72l.03-2.01c.01-.72-.27-1.34-.84-1.85-.57-.52-1.29-.78-2.18-.8-.82-.01-1.53.15-2.13.48-.43.25-.65.5-.65.74 0 .14.11.37.33.67.27.38.4.72.4 1.01 0 .43-.15.77-.43 1.04s-.64.4-1.08.39c-.47 0-.86-.17-1.18-.5-.31-.33-.46-.74-.46-1.24.01-.93.55-1.78 1.62-2.54 1.06-.76 2.45-1.12 4.16-1.1 1.58.02 2.77.38 3.59 1.07.82.7 1.22 1.54 1.21 2.52l-.11 7.25c0 .64.09 1.12.29 1.42.2.31.47.47.8.48.37 0 .76-.14 1.17-.44zm-4.56-5.66c-2.4.29-4.11.81-5.12 1.54-.75.56-1.14 1.35-1.15 2.39-.01.73.17 1.3.56 1.71.38.42.88.63 1.5.64 1.11.02 2.09-.39 2.92-1.23.83-.83 1.25-1.88 1.27-3.16l.03-1.9zm11.83-13.96l-.28 19.23c0 .26.07.47.23.61.23.19.52.29.86.3l1.4.02-.02 1.06-7.52-.11.02-1.06 1.33.02c.43 0 .76-.09.97-.3.22-.21.33-.5.33-.87l.24-16.14c0-.47-.12-.82-.37-1.04-.34-.31-.77-.46-1.28-.47l-1.19-.02.02-1.06 5.26-.16zm7.43 2.62h.95l-.08 5.42 4.29.06-.02 1.3-4.29-.06-.12 8.51c-.01.74.16 1.3.5 1.7a1.69 1.69 0 0 0 1.32.61c.64 0 1.19-.28 1.66-.87.46-.59.74-1.56.84-2.93h.95c-.08 1.78-.5 3.08-1.26 3.93-.76.84-1.73 1.26-2.92 1.24-1.09-.02-1.95-.33-2.56-.94s-.91-1.4-.89-2.37l.13-8.91-2.31-.03v-.99c1.07-.16 1.88-.59 2.43-1.28.83-1.04 1.29-2.5 1.39-4.39zm7.35 5.51l4.77-.17-.08 5.37c.54-1.76 1.17-3.08 1.9-3.98s1.62-1.34 2.68-1.32c.72.01 1.29.24 1.71.68.42.45.63 1.04.62 1.77 0 .6-.16 1.06-.45 1.38s-.66.49-1.09.48c-.43 0-.76-.15-1.02-.44s-.38-.67-.37-1.15a1.74 1.74 0 0 1 .24-.88c.14-.24.22-.39.22-.44 0-.14-.09-.21-.27-.22-.39 0-.83.21-1.33.66-.69.62-1.23 1.48-1.61 2.58-.59 1.71-.9 3.08-.91 4.11l-.04 2.85c0 .32.1.57.33.74.22.17.61.26 1.16.27l1.68.03-.02 1.06-8.24-.12.02-1.06 1.32.02c.44 0 .78-.08 1.01-.25s.35-.38.35-.62l.12-8.45c0-.64-.12-1.11-.39-1.41s-.66-.46-1.17-.46l-1.16-.02v-1zm12.69.19l5.28-.08-.17 11.41c0 .31.07.53.22.67.21.19.49.29.82.3l1.5.02-.02 1.06-7.55-.11.02-1.06 1.4.02c.42 0 .72-.09.92-.29s.3-.49.3-.88l.12-8.35c0-.53-.14-.93-.44-1.2s-.74-.41-1.34-.42l-1.09-.02.02-1.06zm3.8-7.86c.43 0 .79.17 1.11.5s.47.7.46 1.14c0 .42-.17.79-.48 1.1a1.5 1.5 0 0 1-1.12.45c-.43 0-.81-.17-1.12-.49s-.46-.69-.46-1.12c0-.42.17-.79.5-1.11a1.48 1.48 0 0 1 1.11-.46zm-421.65 36.52l3.8-.18c.19.99.32 1.93.37 2.82.73-1.02 1.46-1.74 2.19-2.15s1.52-.61 2.38-.6c.92.01 1.67.26 2.26.75s1.04 1.28 1.34 2.36c.65-1.02 1.36-1.77 2.14-2.27s1.63-.74 2.54-.72c1.21.02 2.11.39 2.7 1.12.76.96 1.13 2.18 1.11 3.67l-.1 6.58c0 .4.09.67.28.81.26.22.65.33 1.17.34h.67l-.02 1.07-6.67-.1.02-1.06h.67c.57.02.96-.07 1.19-.26s.35-.47.35-.84l.1-6.59c.01-.98-.22-1.75-.69-2.29-.47-.55-1.1-.83-1.88-.84-.59 0-1.13.14-1.62.45-.48.31-.87.75-1.15 1.34-.42.84-.63 1.55-.64 2.13l-.08 5.71c0 .39.09.67.3.86.2.19.52.28.96.29h.91l-.02 1.08-6.77-.1.02-1.06h.76c.48.02.84-.07 1.08-.26s.36-.42.36-.72l.09-6.12c.02-1.29-.2-2.24-.65-2.83s-1.06-.9-1.83-.91c-1-.01-1.78.31-2.32.99-.78.95-1.18 2.07-1.2 3.35l-.08 5.29c0 .41.08.68.26.84.25.2.65.31 1.19.31h.68l-.02 1.07-6.68-.1.02-1.06h1.01c.38.02.67-.07.88-.25s.31-.42.32-.72l.13-8.69c0-.48-.11-.84-.35-1.08s-.73-.4-1.47-.48v-.98zm38.95 12.38l.5.8c-.7.7-1.47 1.04-2.31 1.03-.64 0-1.18-.19-1.62-.55-.43-.36-.81-.97-1.13-1.86-.91.93-1.71 1.55-2.39 1.85-.68.31-1.5.45-2.46.44-1.36-.02-2.39-.33-3.09-.92a2.79 2.79 0 0 1-1.03-2.27c.02-1.38.85-2.51 2.48-3.4s3.8-1.46 6.49-1.72l.03-2.01c.01-.72-.27-1.33-.84-1.85s-1.3-.78-2.18-.8c-.82-.01-1.53.15-2.13.48-.43.25-.65.5-.65.74 0 .14.11.37.33.67.27.38.4.72.4 1.01 0 .43-.15.77-.43 1.04s-.64.4-1.08.39c-.47 0-.86-.17-1.18-.5-.31-.33-.46-.74-.46-1.24.01-.93.55-1.78 1.62-2.54 1.06-.76 2.45-1.12 4.16-1.1 1.58.02 2.78.38 3.6 1.07.82.7 1.22 1.54 1.21 2.52l-.11 7.25c0 .64.09 1.12.29 1.42.2.31.47.47.8.48.37 0 .76-.14 1.17-.44zm-4.56-5.66c-2.4.29-4.11.81-5.12 1.54-.75.56-1.14 1.35-1.15 2.39-.01.73.17 1.3.56 1.71.38.42.88.63 1.5.64 1.11.02 2.08-.39 2.91-1.22s1.25-1.89 1.27-3.16l.03-1.9zm16.99 3.37l.92.28c-.78 2.7-2.42 4.03-4.93 3.99-1.84-.03-3.34-.66-4.49-1.89-1.15-1.24-1.71-2.86-1.68-4.88.04-2.34.7-4.15 2.01-5.42 1.3-1.27 2.82-1.89 4.56-1.87 1.3.02 2.37.39 3.21 1.12s1.25 1.53 1.24 2.41c0 .53-.17.96-.49 1.3s-.7.51-1.13.5c-.42 0-.78-.16-1.07-.45-.29-.3-.43-.65-.42-1.07 0-.41.17-.81.5-1.18.15-.18.23-.32.23-.42 0-.27-.17-.54-.54-.81-.36-.26-.86-.4-1.49-.41-1.15-.02-2.03.39-2.64 1.22-.87 1.2-1.32 2.8-1.35 4.79-.03 1.9.33 3.34 1.07 4.32.74.99 1.7 1.49 2.87 1.5 1.61.02 2.83-1 3.64-3.06zm16.86 2.72l.5.8c-.7.7-1.47 1.04-2.31 1.03-.64 0-1.18-.19-1.61-.55s-.81-.98-1.13-1.86c-.91.93-1.71 1.55-2.39 1.86s-1.5.45-2.46.44c-1.36-.02-2.39-.33-3.09-.92a2.79 2.79 0 0 1-1.03-2.27c.02-1.38.85-2.51 2.48-3.4s3.8-1.46 6.49-1.72l.03-2.01c.01-.72-.27-1.33-.84-1.85s-1.3-.78-2.18-.8c-.82-.01-1.53.15-2.13.48-.43.25-.65.5-.65.74 0 .14.11.37.33.67.27.38.4.72.4 1.01a1.34 1.34 0 0 1-.43 1.03c-.28.27-.64.4-1.08.39-.47 0-.86-.17-1.18-.5-.31-.32-.46-.74-.46-1.24.01-.93.55-1.78 1.62-2.54 1.06-.76 2.45-1.12 4.16-1.1 1.58.02 2.78.38 3.6 1.07.82.7 1.22 1.54 1.21 2.52l-.11 7.25c0 .64.09 1.11.29 1.42s.47.47.8.48c.37 0 .76-.14 1.17-.44zm-4.56-5.66c-2.4.29-4.11.81-5.12 1.54-.75.56-1.14 1.35-1.15 2.39-.01.73.17 1.3.56 1.71.38.42.88.63 1.5.64 1.11.02 2.09-.39 2.91-1.22.83-.83 1.25-1.89 1.27-3.16l.03-1.9zm16.99 3.37l.92.28c-.78 2.7-2.42 4.03-4.93 3.99-1.84-.03-3.34-.66-4.49-1.89s-1.71-2.86-1.68-4.88c.04-2.34.7-4.15 2.01-5.42 1.3-1.27 2.82-1.89 4.56-1.87 1.3.02 2.37.39 3.21 1.12s1.25 1.53 1.24 2.41c0 .53-.17.96-.49 1.3s-.7.51-1.13.5c-.42 0-.78-.16-1.07-.45-.29-.3-.43-.65-.42-1.07 0-.41.17-.81.5-1.18.15-.18.23-.32.23-.42 0-.27-.17-.54-.54-.81-.36-.26-.86-.4-1.5-.41-1.15-.02-2.03.39-2.64 1.22-.87 1.2-1.32 2.8-1.35 4.79-.03 1.9.33 3.34 1.07 4.32.74.99 1.7 1.49 2.87 1.5 1.62.02 2.83-1 3.64-3.06z"/><use xlink:href="#D"/><path d="M641.07 1152.68l5.28-.08-.17 11.41c0 .31.07.53.22.67.21.19.49.29.82.3l1.5.02-.02 1.06-7.55-.11.02-1.06 1.4.02c.42 0 .72-.09.92-.29s.3-.49.3-.88l.12-8.35c0-.53-.14-.93-.44-1.2s-.74-.41-1.34-.42l-1.09-.02.02-1.06zm3.8-7.86c.43 0 .79.17 1.11.5a1.53 1.53 0 0 1 .46 1.14c0 .42-.17.79-.48 1.1a1.5 1.5 0 0 1-1.12.45c-.43 0-.81-.17-1.12-.49s-.46-.69-.46-1.12c0-.42.17-.79.5-1.11s.7-.47 1.11-.46zm8.67 18.22c.47 0 .87.18 1.2.53a1.68 1.68 0 0 1 .48 1.22 1.72 1.72 0 0 1-.51 1.24c-.33.34-.74.5-1.22.49-.47 0-.87-.18-1.2-.53s-.49-.76-.48-1.24c0-.48.18-.89.52-1.22s.75-.5 1.23-.49zm26.02-15.89l1.3-1.81h1.03l-.03 7.65h-.93c-.55-2.36-1.39-4.09-2.52-5.18s-2.44-1.65-3.93-1.67c-1.25-.02-2.27.34-3.08 1.07-.8.74-1.21 1.64-1.23 2.72 0 .67.13 1.26.43 1.77.29.51.74.93 1.33 1.25.59.33 1.72.68 3.38 1.06 2.32.54 3.95 1.08 4.88 1.61s1.62 1.2 2.07 1.99.67 1.72.65 2.78c-.03 1.89-.69 3.44-1.97 4.67-1.29 1.22-2.94 1.82-4.95 1.79-2.16-.03-4.03-.76-5.61-2.18l-1.63 1.93h-1.02l.12-8.13h1.02c.36 2.26 1.23 4.04 2.58 5.35 1.36 1.31 2.9 1.98 4.63 2.01 1.4.02 2.54-.38 3.44-1.19a3.99 3.99 0 0 0 1.37-2.99c0-.67-.15-1.26-.47-1.77s-.84-.94-1.55-1.3-2.12-.79-4.21-1.32c-2.3-.58-3.87-1.22-4.7-1.91-1.17-.98-1.74-2.35-1.71-4.12.03-1.84.64-3.34 1.83-4.5s2.71-1.72 4.54-1.7c.88.01 1.71.18 2.5.5s1.6.85 2.44 1.59zm18.2 13.09l-9.5-.14c.02 2.02.37 3.45 1.07 4.29.8.95 1.82 1.43 3.08 1.45 1.85.03 3.35-1 4.5-3.09l.92.41c-1.42 2.66-3.43 3.97-6.03 3.93-1.77-.03-3.26-.69-4.45-1.99s-1.78-2.95-1.75-4.95c.03-2.15.65-3.88 1.87-5.19 1.21-1.31 2.69-1.95 4.44-1.92 1.28.02 2.39.37 3.31 1.04.93.67 1.61 1.63 2.07 2.88.32.87.48 1.97.48 3.29zm-9.49-1.14l5.75.08c.34 0 .61-.11.8-.34s.29-.62.3-1.18c.02-1.04-.29-1.92-.93-2.66s-1.39-1.11-2.27-1.12c-.98-.01-1.82.41-2.52 1.28s-1.07 2.18-1.13 3.93zm12.61-5.54l3.8-.19c.19.99.32 1.93.37 2.83.73-1.02 1.46-1.74 2.19-2.15s1.52-.61 2.38-.6c.92.01 1.67.26 2.26.75s1.04 1.28 1.34 2.36c.65-1.02 1.36-1.77 2.14-2.27s1.63-.74 2.54-.72c1.21.02 2.11.39 2.7 1.12.76.96 1.13 2.18 1.1 3.67l-.1 6.58c0 .4.09.67.29.81.26.22.65.33 1.17.34h.67l-.02 1.07-6.67-.1.02-1.06h.67c.57.02.96-.07 1.19-.26.23-.18.35-.47.35-.84l.1-6.59c.01-.98-.22-1.75-.69-2.29-.47-.55-1.1-.83-1.88-.84-.59 0-1.13.14-1.62.45-.48.31-.87.75-1.15 1.34-.42.84-.63 1.55-.64 2.13l-.08 5.71c0 .39.09.67.3.86s.52.28.96.29h.91l-.02 1.08-6.77-.1.02-1.06h.76c.48.02.84-.07 1.08-.26a.85.85 0 0 0 .36-.71l.09-6.12c.02-1.29-.2-2.24-.65-2.83s-1.06-.89-1.83-.91c-1-.02-1.78.31-2.32.99-.78.95-1.18 2.07-1.2 3.35l-.08 5.29c0 .41.08.68.26.84.25.2.65.31 1.19.31h.68l-.02 1.07-6.68-.1.02-1.06h1.01c.38.02.67-.07.88-.26s.31-.42.32-.72l.13-8.69c0-.48-.11-.84-.35-1.08s-.73-.4-1.47-.47v-.98zm29.33-7.49l-.15 9.87c.57-.78 1.2-1.36 1.88-1.74s1.43-.56 2.23-.55c1.56.02 2.87.65 3.92 1.88 1.06 1.23 1.57 2.85 1.54 4.84-.03 2.16-.63 3.9-1.81 5.21s-2.62 1.95-4.33 1.93c-.81-.01-1.55-.18-2.2-.51-.66-.33-1.33-.88-2.01-1.66-.55.85-1.08 1.55-1.59 2.08l-.56-.21c.28-1.08.43-2.21.45-3.39l.22-15c0-.46-.15-.83-.47-1.1s-.78-.41-1.38-.42h-.59l.02-1.07 4.83-.17zm3.44 8.83c-1.07-.02-1.94.44-2.63 1.36-.68.92-1.04 2.45-1.07 4.59-.03 2.04.28 3.5.93 4.38.65.89 1.5 1.34 2.57 1.35.96.01 1.74-.41 2.34-1.27.75-1.08 1.14-2.64 1.17-4.67.03-2-.27-3.45-.91-4.36-.63-.91-1.44-1.37-2.41-1.39zm8.4-.74l4.78-.17-.08 5.37c.54-1.76 1.17-3.08 1.9-3.98s1.62-1.34 2.68-1.32c.72.01 1.29.24 1.71.68.42.45.63 1.04.62 1.77 0 .59-.16 1.05-.45 1.38s-.66.49-1.09.48c-.43 0-.77-.15-1.02-.44-.26-.29-.38-.67-.37-1.15a1.74 1.74 0 0 1 .24-.88c.14-.24.22-.39.22-.44 0-.14-.09-.21-.27-.22-.39 0-.83.21-1.33.66-.69.62-1.23 1.48-1.61 2.58-.59 1.71-.89 3.08-.91 4.11l-.04 2.85c0 .32.1.57.33.74.22.17.61.26 1.16.27l1.69.03-.02 1.06-8.24-.12.02-1.06 1.32.02c.44 0 .78-.08 1.01-.25s.34-.38.35-.62l.12-8.45c0-.64-.12-1.11-.39-1.41s-.66-.46-1.17-.46l-1.16-.02v-1zm27.07 12.21l.5.8c-.7.7-1.47 1.04-2.31 1.03-.64 0-1.18-.19-1.61-.55s-.81-.97-1.13-1.86c-.91.93-1.71 1.55-2.39 1.85-.68.31-1.5.45-2.46.44-1.36-.02-2.39-.33-3.09-.92-.7-.6-1.04-1.35-1.03-2.27.02-1.38.85-2.51 2.48-3.4s3.8-1.46 6.49-1.72l.03-2.01c.01-.72-.27-1.33-.84-1.85s-1.3-.78-2.18-.8c-.82-.01-1.53.15-2.13.48-.43.25-.65.5-.65.74 0 .14.11.37.33.67.27.38.4.72.4 1.01 0 .43-.15.77-.43 1.04s-.64.4-1.08.39a1.54 1.54 0 0 1-1.17-.5c-.31-.33-.46-.74-.46-1.24.01-.93.55-1.78 1.62-2.54 1.06-.76 2.45-1.12 4.16-1.1 1.58.02 2.78.38 3.6 1.07.82.7 1.22 1.54 1.21 2.52l-.11 7.25c0 .64.09 1.12.29 1.42.2.31.47.47.8.48.37 0 .76-.14 1.17-.44zm-4.56-5.66c-2.4.29-4.11.81-5.12 1.54-.75.56-1.14 1.35-1.15 2.39-.01.73.17 1.3.56 1.71.38.42.88.63 1.5.64 1.11.02 2.09-.39 2.91-1.22.83-.83 1.25-1.89 1.27-3.16l.03-1.9zm6.41-6.12l6.53.1v.96c-.88 0-1.44.08-1.68.21s-.37.33-.37.58a1.5 1.5 0 0 0 .13.62l3.4 7.88 3.31-7.55c.05-.13.08-.26.08-.39 0-.69-.66-1.13-2.01-1.32v-.96l5.51.08v.96c-.57.05-1.02.19-1.35.43s-.59.57-.78.98l-5.03 11.18h-.76l-5.05-11.66c-.18-.42-.41-.71-.67-.88-.27-.17-.69-.26-1.26-.28v-.96zm16.04.24l5.29-.08-.17 11.41c0 .31.07.53.22.67.21.19.49.29.82.29l1.5.02-.02 1.06-7.55-.11.02-1.06 1.4.02c.42 0 .72-.09.92-.29s.3-.49.3-.88l.12-8.35c0-.53-.14-.93-.44-1.2s-.74-.41-1.34-.42l-1.09-.02.02-1.06zm3.8-7.86c.43 0 .79.17 1.11.5a1.53 1.53 0 0 1 .46 1.14c0 .42-.17.79-.48 1.1a1.5 1.5 0 0 1-1.12.45c-.43 0-.81-.17-1.12-.49s-.46-.69-.46-1.12c0-.42.17-.79.5-1.11s.7-.47 1.11-.47zm18.48 7.94l-.13 8.79c-.02 1.08.24 1.91.78 2.5.53.59 1.23.89 2.08.91 1.05.02 1.96-.4 2.71-1.24s1.14-1.91 1.16-3.19l.07-4.97c0-.45-.15-.81-.47-1.06s-.95-.4-1.87-.45v-.99l4.68-.17-.16 10.89c0 .5.13.89.41 1.16s.67.41 1.18.42h.83l-.01.96-4.46.03-.25-2.61c-.81.92-1.61 1.61-2.42 2.07s-1.62.68-2.44.67c-1.2-.02-2.19-.43-2.99-1.25-.81-.8-1.2-2.15-1.17-4.05l.08-5.76c0-.51-.19-.9-.59-1.17-.28-.19-.86-.31-1.74-.34v-.99l4.72-.17zm13.31.44l4.41-.21c.17.83.28 1.81.35 2.92.61-.95 1.32-1.66 2.13-2.13s1.73-.7 2.75-.68c.88.01 1.61.2 2.2.55s1.06.91 1.41 1.66.52 1.59.5 2.51l-.09 6.46c0 .48.1.82.31 1.03s.58.31 1.09.32h.93l-.02 1.08-6.99-.1.02-1.06h.67c.62.02 1.06-.07 1.31-.27s.38-.49.38-.89l.08-5.68c.02-1.24-.16-2.16-.53-2.75-.52-.86-1.31-1.29-2.39-1.31-1.07-.02-1.96.4-2.69 1.25-.72.85-1.1 1.96-1.12 3.34l-.07 4.91c0 .48.1.82.32 1.03s.58.31 1.09.32h.92l-.02 1.08-7.02-.1.02-1.06h.92c.46.02.82-.07 1.06-.25.24-.19.37-.42.37-.7l.13-8.57c0-.57-.14-1-.44-1.29-.3-.3-.74-.45-1.32-.46h-.68l.01-.93zm29.64-4.98h.95l-.08 5.42 4.29.06-.02 1.3-4.29-.06-.12 8.51c-.01.74.16 1.3.5 1.7a1.69 1.69 0 0 0 1.32.61c.64 0 1.19-.28 1.66-.87.46-.59.74-1.57.84-2.93h.95c-.08 1.78-.5 3.08-1.26 3.92s-1.73 1.26-2.92 1.24c-1.09-.02-1.95-.33-2.56-.94s-.91-1.4-.89-2.37l.13-8.91-2.31-.03v-.99c1.07-.16 1.88-.59 2.44-1.28.83-1.04 1.29-2.5 1.39-4.38zm14.11 5.23c1.79.03 3.27.69 4.47 2 1.19 1.3 1.78 3.01 1.75 5.12-.02 1.45-.31 2.69-.87 3.71s-1.34 1.81-2.36 2.39c-1.01.58-2.1.86-3.26.84-1.72-.03-3.16-.7-4.34-2.02-1.17-1.32-1.75-3.02-1.72-5.09.03-2.09.66-3.77 1.87-5.06 1.22-1.29 2.7-1.91 4.46-1.89zm-.01 1c-1.06-.02-1.93.45-2.63 1.4-.69.95-1.06 2.45-1.09 4.52-.03 2.11.28 3.65.94 4.63s1.52 1.48 2.59 1.5c1.11.02 2.01-.46 2.71-1.42s1.06-2.55 1.1-4.76c.03-2.05-.29-3.54-.95-4.46-.66-.93-1.55-1.4-2.68-1.41zm9.87 7.81c.56 1.64 1.22 2.78 1.97 3.42s1.68.97 2.8.98c1.03.02 1.82-.2 2.38-.64s.84-1 .85-1.69c0-.4-.09-.74-.29-1.04s-.48-.53-.83-.68-1.29-.38-2.78-.68c-1.43-.3-2.43-.62-2.99-.94s-1-.76-1.31-1.31a3.48 3.48 0 0 1-.45-1.79c.01-.97.35-1.85 1.02-2.63.86-1 2.04-1.49 3.55-1.46 1.15.02 2.22.4 3.19 1.14l.95-.98h.58l.3 4.74h-.95c-.4-1.36-.95-2.33-1.65-2.93s-1.57-.91-2.61-.92c-.9-.01-1.61.2-2.12.63-.52.43-.78.96-.79 1.59 0 .56.22 1.02.69 1.4.46.38 1.36.7 2.71.93l3.05.71c.77.29 1.36.74 1.78 1.33.42.6.62 1.32.61 2.17-.02 1.17-.49 2.15-1.43 2.95s-2.11 1.19-3.53 1.17c-1.31-.02-2.53-.47-3.64-1.36l-1.05 1.17h-.75l-.21-5.3h.95zm13.57.2c.56 1.64 1.22 2.78 1.97 3.42s1.68.97 2.8.98c1.03.02 1.82-.2 2.38-.64s.84-1 .85-1.69c0-.4-.09-.75-.29-1.04-.2-.3-.48-.53-.83-.68-.36-.15-1.29-.38-2.79-.68-1.43-.3-2.43-.62-2.99-.94a3.34 3.34 0 0 1-1.3-1.31 3.48 3.48 0 0 1-.45-1.79c.01-.97.35-1.85 1.02-2.63.86-1 2.04-1.49 3.55-1.46 1.15.02 2.22.4 3.19 1.14l.95-.98h.58l.3 4.74h-.95c-.4-1.36-.95-2.33-1.65-2.93s-1.57-.91-2.61-.92c-.9-.01-1.61.2-2.12.63-.52.43-.78.96-.79 1.6 0 .56.22 1.02.69 1.4.46.38 1.36.7 2.71.93l3.05.71c.77.29 1.36.74 1.78 1.33s.62 1.32.61 2.17c-.02 1.17-.49 2.15-1.43 2.95-.93.8-2.11 1.19-3.53 1.17-1.31-.02-2.53-.47-3.64-1.36l-1.05 1.17h-.75l-.21-5.3h.95zm11.83-8.1l5.29-.08-.17 11.41c0 .31.07.53.22.67.21.19.49.29.82.29l1.5.02-.02 1.06-7.55-.11.02-1.06 1.4.02c.42 0 .72-.09.92-.29s.3-.49.3-.88l.12-8.35c0-.53-.14-.93-.44-1.2s-.74-.41-1.34-.42l-1.09-.02.02-1.06zm3.8-7.86c.43 0 .79.17 1.11.5a1.53 1.53 0 0 1 .46 1.14c0 .42-.17.79-.48 1.1a1.5 1.5 0 0 1-1.12.45c-.43 0-.81-.17-1.12-.49s-.46-.69-.46-1.12c0-.42.17-.79.5-1.11s.7-.47 1.11-.46zm15.73 17.48l.92.28c-.78 2.7-2.42 4.03-4.93 3.99-1.84-.03-3.34-.66-4.49-1.89-1.15-1.24-1.71-2.86-1.68-4.88.04-2.34.7-4.15 2.01-5.42 1.3-1.27 2.82-1.89 4.56-1.87 1.3.02 2.37.39 3.21 1.12s1.25 1.53 1.24 2.41c0 .53-.17.96-.49 1.3s-.7.51-1.13.5c-.42 0-.78-.16-1.07-.45-.29-.3-.43-.65-.42-1.07 0-.41.17-.81.5-1.18.15-.18.23-.32.23-.42 0-.27-.17-.54-.54-.81-.36-.26-.86-.4-1.5-.41-1.15-.02-2.03.39-2.64 1.22-.87 1.2-1.32 2.8-1.35 4.79-.03 1.9.33 3.34 1.07 4.32.74.99 1.7 1.49 2.87 1.5 1.62.02 2.83-1 3.64-3.06zm2.79-16.97l5.03-.17-.15 10.22c.71-.9 1.47-1.56 2.28-2s1.66-.65 2.56-.63c.85.01 1.61.23 2.29.64.52.33.97.9 1.33 1.71s.53 1.76.52 2.85l-.09 6.3c0 .4.09.7.3.89s.53.28.97.29l1.13.02-.02 1.06-7.16-.11.02-1.06h.79c.6.02 1.02-.07 1.26-.26.23-.19.35-.48.36-.86l.09-6.3c.02-1.1-.24-1.97-.76-2.59-.52-.63-1.2-.95-2.03-.96-.65 0-1.26.16-1.82.5s-1.04.86-1.44 1.57-.6 1.46-.61 2.25l-.08 5.29c0 .47.09.81.28 1.01s.52.3.97.31l1.13.02-.02 1.06-7.01-.1.02-1.06h.79c.54.02.92-.08 1.15-.29s.35-.53.35-.98l.23-15.83c0-.57-.13-.99-.43-1.27-.29-.28-.72-.43-1.29-.44h-.96l.02-1.08zm30.43 14.85l-9.5-.14c.02 2.02.37 3.45 1.07 4.29.8.95 1.82 1.43 3.08 1.45 1.85.03 3.35-1 4.5-3.09l.92.41c-1.42 2.66-3.43 3.97-6.03 3.93-1.77-.03-3.26-.69-4.45-1.99s-1.78-2.95-1.75-4.95c.03-2.15.65-3.88 1.87-5.19 1.21-1.31 2.69-1.95 4.44-1.92 1.28.02 2.39.37 3.31 1.04s1.61 1.63 2.07 2.88c.32.87.48 1.97.48 3.29zm-9.49-1.14l5.75.08c.34 0 .61-.11.8-.34s.29-.62.3-1.18c.02-1.04-.29-1.93-.93-2.66-.64-.74-1.39-1.11-2.27-1.12-.98-.01-1.82.41-2.52 1.28s-1.07 2.18-1.13 3.93z"/><use xlink:href="#E"/><path d="M971.06 1149.62l-.28 19.23c0 .26.07.47.23.61.23.19.52.29.86.3l1.4.02-.02 1.06-7.52-.11.02-1.06 1.33.02c.43 0 .76-.09.97-.3s.33-.5.33-.87l.24-16.14c0-.47-.12-.82-.37-1.04-.34-.31-.77-.46-1.28-.47l-1.19-.02.02-1.06 5.26-.16zm10.42 7.67c1.79.03 3.27.69 4.47 2 1.19 1.3 1.78 3.01 1.75 5.12-.02 1.45-.31 2.69-.87 3.71s-1.34 1.81-2.36 2.39c-1.01.58-2.1.86-3.26.84-1.72-.03-3.16-.7-4.34-2.02-1.17-1.32-1.75-3.02-1.72-5.09.03-2.09.66-3.77 1.87-5.06s2.7-1.91 4.46-1.89zm-.01 1c-1.06-.02-1.93.45-2.62 1.4s-1.06 2.46-1.09 4.52c-.03 2.11.28 3.65.95 4.63.66.98 1.52 1.48 2.59 1.5 1.11.02 2.01-.46 2.71-1.42s1.06-2.55 1.1-4.76c.03-2.05-.29-3.54-.95-4.46-.66-.93-1.55-1.4-2.68-1.41zm-438.46 27.51l-.13 8.79c-.02 1.08.24 1.91.78 2.5.53.59 1.23.89 2.09.91 1.05.02 1.96-.4 2.71-1.24s1.14-1.91 1.16-3.19l.07-4.97c0-.45-.15-.81-.47-1.06s-.95-.4-1.87-.45v-.99l4.68-.17-.16 10.89c0 .5.13.89.41 1.16s.67.41 1.18.42h.83l-.01.96-4.46.03-.25-2.61c-.81.92-1.61 1.61-2.42 2.07s-1.62.68-2.44.67c-1.2-.02-2.19-.43-2.99-1.25-.81-.8-1.2-2.16-1.17-4.05l.08-5.76c0-.51-.19-.9-.59-1.17-.28-.19-.86-.31-1.74-.34v-.99l4.72-.17zm13.16.43l4.41-.21a20.16 20.16 0 0 1 .35 2.92c.61-.95 1.32-1.67 2.13-2.14s1.73-.7 2.75-.68c.88.01 1.61.2 2.2.55s1.06.91 1.41 1.66.52 1.59.5 2.51l-.1 6.46c0 .48.1.83.31 1.03.21.21.58.31 1.09.32h.93l-.02 1.08-6.99-.1.02-1.06h.67c.62.02 1.06-.07 1.31-.27s.38-.49.38-.89l.08-5.68c.02-1.24-.16-2.15-.53-2.75-.52-.86-1.31-1.29-2.39-1.31-1.07-.02-1.96.4-2.69 1.25s-1.1 1.96-1.12 3.34l-.07 4.91c0 .48.1.83.32 1.03.22.21.58.31 1.09.32h.92l-.02 1.08-7.02-.1.02-1.06h.92c.46.02.82-.07 1.06-.25.24-.19.37-.42.37-.7l.13-8.57c0-.57-.14-1-.44-1.29-.3-.3-.74-.45-1.32-.46h-.68l.01-.93zm29.98.2c.19 1 .3 1.95.33 2.87.67-1.03 1.36-1.75 2.08-2.18.72-.42 1.51-.63 2.36-.62.91.01 1.77.3 2.58.87.82.57 1.47 1.4 1.97 2.48s.74 2.3.72 3.65c-.03 2.16-.69 3.91-1.97 5.25-1.06 1.12-2.32 1.66-3.78 1.64a4.15 4.15 0 0 1-2.24-.67c-.66-.44-1.24-1.08-1.75-1.92l-.08 5.37c0 .42.09.71.29.88.25.23.6.35 1.05.36h.98l-.01 1.02-7.09-.1v-1l.99.01c.45 0 .79-.08 1.02-.25.23-.18.35-.41.35-.7l.21-13.96c0-.65-.14-1.11-.45-1.39-.31-.27-.93-.43-1.86-.47v-.95l4.31-.18zm4.09 1.35c-1.03-.01-1.9.47-2.63 1.45s-1.1 2.41-1.13 4.29c-.03 1.9.3 3.3.97 4.22s1.54 1.38 2.61 1.4c1 .01 1.77-.36 2.32-1.13.7-1.01 1.07-2.5 1.1-4.46.03-2.06-.26-3.53-.87-4.42s-1.4-1.34-2.37-1.35zm14.61-1.23c1.78.03 3.27.69 4.47 2 1.19 1.31 1.78 3.01 1.75 5.12-.02 1.45-.31 2.69-.87 3.71s-1.34 1.81-2.36 2.39c-1.01.58-2.1.86-3.26.84-1.72-.03-3.16-.7-4.34-2.02s-1.75-3.02-1.72-5.1c.03-2.09.66-3.77 1.87-5.06 1.22-1.29 2.7-1.91 4.46-1.89zm-.01 1c-1.06-.02-1.93.45-2.63 1.4-.69.95-1.06 2.46-1.09 4.52-.03 2.11.28 3.65.95 4.63.66.98 1.52 1.48 2.59 1.5 1.1.02 2-.46 2.7-1.42s1.06-2.55 1.1-4.76c.03-2.05-.29-3.53-.95-4.46s-1.55-1.4-2.68-1.41zm8.65-.56l-.44-.64c.94-.66 1.64-1.31 2.09-1.96s.68-1.21.68-1.68c0-.16-.02-.28-.07-.36s-.13-.12-.25-.12l-.14.03a2.84 2.84 0 0 1-.58.08c-.41 0-.77-.17-1.06-.48a1.53 1.53 0 0 1-.43-1.12 1.76 1.76 0 0 1 .49-1.24c.32-.34.69-.51 1.1-.51.6 0 1.13.27 1.59.79s.68 1.18.67 1.98c-.01.95-.3 1.86-.85 2.71-.56.86-1.49 1.7-2.79 2.53zm13.45 8.55c.56 1.64 1.22 2.78 1.97 3.42s1.68.97 2.8.98c1.03.01 1.82-.2 2.38-.64s.84-1 .85-1.69c0-.4-.09-.75-.29-1.04-.2-.3-.48-.53-.83-.68-.36-.15-1.29-.38-2.78-.68-1.43-.3-2.43-.62-2.99-.94s-1-.76-1.31-1.31a3.48 3.48 0 0 1-.45-1.79c.01-.97.35-1.85 1.02-2.63.86-1 2.04-1.49 3.55-1.46 1.15.02 2.22.4 3.19 1.14l.95-.98h.58l.3 4.74h-.95c-.4-1.36-.95-2.33-1.65-2.93s-1.57-.91-2.61-.92c-.9-.01-1.61.2-2.12.63-.52.43-.78.96-.79 1.6 0 .56.22 1.02.69 1.4.46.38 1.36.69 2.71.93l3.05.71c.77.29 1.36.74 1.78 1.33.42.6.62 1.32.61 2.17-.02 1.17-.49 2.15-1.43 2.95-.93.8-2.11 1.19-3.53 1.17-1.31-.02-2.53-.47-3.64-1.36l-1.05 1.17h-.75l-.21-5.29h.95zm15.52-13.45h.95l-.08 5.42 4.29.06-.02 1.3-4.29-.06-.13 8.51c-.01.74.16 1.3.5 1.7a1.69 1.69 0 0 0 1.32.61c.64 0 1.19-.28 1.66-.87.46-.59.74-1.57.84-2.93h.95c-.08 1.78-.5 3.08-1.26 3.92s-1.73 1.26-2.92 1.24c-1.09-.02-1.95-.33-2.56-.94s-.91-1.4-.89-2.37l.13-8.91-2.31-.03v-.99c1.07-.16 1.88-.59 2.43-1.28.83-1.04 1.29-2.5 1.39-4.38zm7.5 5.52l4.77-.17-.08 5.37c.54-1.76 1.17-3.08 1.9-3.98s1.62-1.33 2.68-1.32c.72.01 1.29.24 1.71.68.42.45.63 1.04.62 1.77 0 .6-.16 1.05-.45 1.38s-.66.49-1.09.48c-.43 0-.77-.15-1.02-.44s-.38-.67-.37-1.15a1.74 1.74 0 0 1 .24-.88c.14-.24.22-.39.22-.43 0-.14-.09-.21-.26-.22-.39 0-.83.21-1.33.66-.69.62-1.23 1.48-1.61 2.58-.59 1.71-.89 3.08-.91 4.11l-.04 2.85c0 .32.11.57.33.74s.61.26 1.16.27l1.69.02-.02 1.06-8.24-.12.02-1.06 1.32.02c.44 0 .78-.08 1.01-.25s.35-.38.35-.62l.12-8.45c0-.64-.12-1.11-.39-1.41s-.66-.46-1.17-.46l-1.16-.02v-1zm19.34-.11c1.79.03 3.27.69 4.47 2 1.19 1.31 1.78 3.01 1.75 5.12-.02 1.45-.31 2.69-.87 3.71s-1.34 1.81-2.36 2.39c-1.01.58-2.1.86-3.26.84-1.72-.03-3.16-.7-4.34-2.02s-1.75-3.02-1.72-5.1c.03-2.09.66-3.77 1.87-5.06 1.22-1.29 2.7-1.91 4.46-1.89zm-.01 1c-1.06-.02-1.93.45-2.63 1.4-.69.95-1.06 2.45-1.09 4.52-.03 2.11.28 3.65.95 4.63.66.98 1.52 1.48 2.59 1.5 1.11.02 2.01-.46 2.71-1.42s1.06-2.55 1.1-4.76c.03-2.05-.29-3.53-.95-4.46s-1.55-1.4-2.68-1.41zm8.25-.48l4.41-.2a20.16 20.16 0 0 1 .35 2.92c.61-.96 1.32-1.67 2.13-2.14s1.73-.7 2.75-.68c.88.01 1.61.2 2.2.55s1.06.91 1.41 1.66.52 1.59.5 2.51l-.1 6.46c0 .48.1.83.31 1.03s.58.31 1.09.32h.93l-.02 1.08-6.99-.1.02-1.06h.67c.62.02 1.06-.07 1.31-.27.25-.19.38-.49.38-.89l.08-5.68c.02-1.24-.16-2.15-.53-2.75-.52-.86-1.31-1.29-2.39-1.31-1.07-.02-1.96.4-2.69 1.25s-1.1 1.96-1.12 3.34l-.07 4.91c0 .48.1.82.32 1.03s.58.31 1.09.32h.92l-.02 1.08-7.02-.1.02-1.06h.92c.46.02.82-.07 1.06-.25s.37-.42.37-.7l.13-8.57c0-.57-.14-1-.44-1.29-.3-.3-.74-.45-1.32-.46h-.68l.01-.93zm18.9.28l10.52.15v.85l-8.52 11.23 4.07.06c.93.01 1.69-.27 2.25-.85.57-.58 1.01-1.66 1.34-3.25h.95l-.39 5.22-11.16-.16v-.98l8.51-11.16-3.53-.05c-.74-.01-1.29.08-1.65.28-.37.2-.69.53-.96.99s-.53 1.26-.77 2.4l-1.05-.02.4-4.72zm19.02-.12c1.79.03 3.27.69 4.47 2 1.19 1.31 1.78 3.01 1.74 5.12-.02 1.45-.31 2.69-.87 3.7a6.09 6.09 0 0 1-2.36 2.39c-1.01.58-2.1.86-3.26.84-1.72-.03-3.16-.7-4.34-2.02s-1.75-3.02-1.72-5.1c.03-2.09.66-3.77 1.87-5.06 1.22-1.29 2.7-1.91 4.46-1.89zm-.01 1c-1.06-.01-1.93.45-2.63 1.4-.69.95-1.05 2.46-1.08 4.52-.03 2.11.28 3.65.94 4.63s1.52 1.48 2.59 1.5c1.11.02 2.01-.46 2.71-1.42s1.06-2.55 1.1-4.76c.03-2.05-.29-3.53-.95-4.46s-1.55-1.4-2.68-1.41zm9.41 17.73l-.5-.69c1.84-1.36 2.77-2.56 2.79-3.61 0-.15-.02-.26-.07-.33s-.13-.11-.23-.11l-.31.05c-.18.03-.33.04-.44.04-.42 0-.79-.18-1.1-.51-.31-.34-.46-.74-.46-1.21a1.57 1.57 0 0 1 .5-1.17c.33-.32.74-.47 1.24-.46.62 0 1.14.26 1.55.75s.61 1.16.59 2c-.03 1.84-1.21 3.59-3.55 5.26zm22.58-25.54l5.18-.16-.27 18.15c-.01.71.12 1.21.38 1.52.27.31.67.46 1.2.47h.92l-.02 1.08-4.53-.07-.3-2.71c-.55.96-1.19 1.67-1.92 2.15s-1.54.71-2.44.69c-1.51-.02-2.79-.67-3.83-1.95s-1.55-2.96-1.52-5.04c.03-2.25.74-4.03 2.12-5.35 1.08-1.03 2.32-1.54 3.7-1.52.85.01 1.61.24 2.28.67s1.25 1.08 1.74 1.95l.11-7.49a1.12 1.12 0 0 0-.45-.95c-.3-.24-.78-.36-1.43-.37h-.95l.02-1.08zm-.95 8.44c-1.02-.01-1.84.39-2.45 1.23-.61.83-.93 2.24-.96 4.23-.03 2.16.25 3.69.85 4.58s1.38 1.34 2.34 1.36c1.03.01 1.92-.47 2.66-1.44s1.13-2.41 1.16-4.31c.03-1.79-.34-3.21-1.11-4.25-.67-.92-1.5-1.38-2.5-1.4zm9.71-.64l5.28-.08-.17 11.41c0 .31.07.53.22.67.21.19.49.29.82.29l1.5.02-.02 1.06-7.55-.11.02-1.06 1.4.02c.42 0 .72-.09.92-.29s.3-.49.3-.88l.12-8.35c0-.53-.14-.93-.44-1.2s-.74-.41-1.34-.42l-1.09-.02.02-1.06zm3.8-7.86c.43 0 .8.17 1.11.5a1.53 1.53 0 0 1 .46 1.14c0 .42-.17.79-.48 1.1-.32.31-.69.46-1.13.45-.43 0-.81-.17-1.12-.49s-.46-.69-.46-1.12c0-.42.17-.79.5-1.11s.7-.47 1.11-.46zm24.56 10.19c.49-.79 1.04-1.5 1.63-2.13l.49.25c-.28 1.11-.43 2.31-.45 3.59l-.19 12.76c0 .5.09.84.28 1.01.26.24.67.36 1.24.37h.57l-.01 1.01-6.95-.1v-1l.95.01c.57 0 .97-.09 1.21-.31.24-.21.36-.56.37-1.03l.07-5.04c-.57.77-1.19 1.35-1.88 1.73s-1.43.57-2.23.56c-1.54-.02-2.86-.69-3.95-2s-1.63-2.96-1.6-4.93c.02-1.32.32-2.53.9-3.63s1.34-1.93 2.28-2.5 1.93-.85 2.98-.83a5.03 5.03 0 0 1 2.15.51c.67.33 1.39.9 2.14 1.7zm-4.12-1.26c-.99-.01-1.82.45-2.49 1.38-.67.94-1.02 2.4-1.05 4.4-.03 2.04.28 3.52.92 4.45s1.45 1.4 2.42 1.41c.63 0 1.23-.18 1.79-.57s1-.98 1.32-1.77.49-1.86.51-3.21c.02-1.58-.1-2.77-.37-3.58s-.69-1.43-1.25-1.85-1.16-.64-1.8-.65zm13.88-.75l-.13 8.79c-.02 1.08.24 1.91.78 2.5.53.59 1.23.89 2.09.91 1.05.02 1.96-.4 2.71-1.24s1.14-1.91 1.16-3.19l.07-4.97c0-.45-.15-.81-.47-1.06s-.95-.4-1.87-.45v-.99l4.68-.17-.16 10.89c0 .5.13.89.41 1.16s.67.41 1.18.42h.83l-.01.96-4.46.03-.25-2.61c-.8.92-1.61 1.61-2.42 2.07s-1.62.68-2.44.67c-1.2-.02-2.19-.43-2.99-1.25-.81-.8-1.2-2.16-1.17-4.05l.08-5.76c0-.51-.19-.9-.59-1.17-.28-.19-.86-.31-1.74-.34v-.99l4.72-.17zm25.51 7.35l-9.5-.14c.02 2.02.37 3.45 1.07 4.29.8.95 1.82 1.43 3.08 1.45 1.85.03 3.35-1 4.51-3.09l.92.41c-1.42 2.66-3.43 3.97-6.03 3.93-1.77-.03-3.26-.69-4.45-1.99s-1.78-2.95-1.75-4.96c.03-2.15.65-3.88 1.87-5.19 1.21-1.31 2.69-1.95 4.44-1.92 1.28.02 2.39.37 3.31 1.04s1.61 1.63 2.07 2.88c.32.87.48 1.97.48 3.29zm-9.49-1.14l5.75.08c.34 0 .61-.11.8-.34s.29-.62.3-1.18c.02-1.04-.29-1.93-.93-2.66-.64-.74-1.39-1.11-2.27-1.12-.98-.01-1.82.41-2.52 1.28s-1.07 2.18-1.13 3.93zm16.77-13.4l-.28 19.23c0 .26.07.47.23.61.23.19.52.29.86.29l1.4.02-.02 1.06-7.52-.11.02-1.06 1.33.02c.43 0 .76-.09.98-.29.21-.21.33-.5.33-.87l.24-16.14c0-.47-.11-.82-.37-1.04-.34-.31-.77-.46-1.28-.47l-1.19-.02.02-1.06 5.26-.16zm9.13.14l-.28 19.23c0 .26.07.47.23.61.23.19.52.29.86.29l1.4.02-.02 1.06-7.52-.11.02-1.06 1.33.02c.43 0 .76-.09.98-.29.21-.21.33-.5.33-.88l.24-16.14c0-.47-.11-.82-.37-1.04-.34-.31-.77-.46-1.28-.47l-1.19-.02.02-1.06 5.26-.16zm3.75 7.97l5.29-.08-.17 11.41c0 .31.07.53.22.67.21.19.49.29.82.29l1.5.02-.02 1.06-7.55-.11.02-1.06 1.4.02c.42 0 .72-.09.92-.29s.3-.49.3-.88l.12-8.35c0-.53-.14-.93-.44-1.2s-.74-.41-1.34-.42l-1.09-.02.02-1.06zm3.8-7.86c.43 0 .8.17 1.11.5s.47.71.46 1.14c0 .42-.17.79-.48 1.1a1.5 1.5 0 0 1-1.12.45c-.44 0-.81-.17-1.12-.49s-.46-.69-.46-1.12c0-.42.17-.79.5-1.11s.7-.47 1.11-.46zm21.28.55l5.19-.16-.27 18.15c-.01.71.12 1.21.38 1.52.27.31.67.46 1.2.47h.92l-.02 1.08-4.53-.07-.3-2.71c-.55.96-1.19 1.67-1.92 2.15s-1.54.71-2.44.69c-1.51-.02-2.79-.67-3.83-1.95s-1.55-2.96-1.52-5.04c.03-2.25.74-4.03 2.12-5.35 1.08-1.03 2.32-1.54 3.7-1.52.85.01 1.61.24 2.28.67s1.25 1.08 1.74 1.95l.11-7.49a1.12 1.12 0 0 0-.45-.95c-.3-.24-.78-.36-1.43-.37h-.95l.02-1.08zm-.95 8.44a2.84 2.84 0 0 0-2.45 1.23c-.61.83-.93 2.24-.96 4.23-.03 2.16.25 3.69.85 4.58s1.38 1.34 2.34 1.36c1.03.01 1.92-.47 2.66-1.44s1.13-2.41 1.16-4.31c.03-1.79-.34-3.21-1.11-4.25-.67-.92-1.5-1.38-2.5-1.4zm9.71-.63l5.29-.08-.17 11.41c0 .31.07.53.22.67.21.19.49.29.82.29l1.5.02-.02 1.06-7.55-.11.02-1.06 1.4.02c.42 0 .72-.09.92-.29s.3-.49.3-.88l.12-8.35c0-.53-.14-.93-.44-1.2s-.74-.41-1.34-.42l-1.09-.02.02-1.06zm3.8-7.86c.43 0 .8.17 1.11.5a1.53 1.53 0 0 1 .46 1.14c0 .42-.17.79-.48 1.1a1.5 1.5 0 0 1-1.12.45c-.44 0-.81-.17-1.12-.49s-.46-.69-.46-1.12c0-.42.17-.79.5-1.11s.7-.47 1.11-.46zm17.85 7.93c.19 1 .3 1.95.33 2.87.67-1.03 1.36-1.75 2.08-2.18s1.51-.63 2.36-.62c.91.01 1.77.3 2.58.87.82.57 1.47 1.4 1.97 2.48s.74 2.3.72 3.65c-.03 2.16-.69 3.91-1.97 5.25-1.06 1.12-2.32 1.66-3.78 1.64a4.09 4.09 0 0 1-2.23-.67c-.66-.44-1.25-1.08-1.75-1.92l-.08 5.37c0 .42.09.71.29.88.25.23.6.35 1.06.36h.98l-.01 1.02-7.09-.1v-1l.99.01c.45 0 .79-.08 1.02-.25.23-.18.35-.41.35-.7l.21-13.96c0-.65-.14-1.11-.45-1.39-.31-.27-.93-.43-1.86-.47v-.95l4.31-.18zm4.09 1.35c-1.03-.01-1.9.47-2.63 1.45s-1.1 2.41-1.13 4.29c-.03 1.9.3 3.3.97 4.22s1.54 1.38 2.61 1.4c1 .01 1.77-.36 2.32-1.13.7-1.01 1.07-2.5 1.1-4.46.03-2.06-.26-3.53-.87-4.42s-1.4-1.34-2.37-1.35zm22.2 11.09l.5.8c-.7.7-1.47 1.04-2.31 1.03-.64 0-1.18-.19-1.61-.55s-.81-.98-1.13-1.86c-.91.93-1.71 1.55-2.39 1.86s-1.5.45-2.46.44c-1.36-.02-2.39-.33-3.09-.92a2.79 2.79 0 0 1-1.03-2.27c.02-1.38.85-2.51 2.48-3.4s3.8-1.46 6.49-1.72l.03-2.01c.01-.72-.27-1.33-.84-1.85s-1.3-.78-2.18-.8c-.82-.01-1.53.15-2.13.48-.43.25-.65.5-.65.74 0 .14.11.37.33.67.27.38.4.72.4 1.01 0 .43-.15.77-.43 1.04s-.64.39-1.08.39a1.54 1.54 0 0 1-1.17-.5c-.31-.33-.46-.74-.46-1.24.01-.93.55-1.78 1.62-2.54 1.06-.76 2.45-1.12 4.16-1.1 1.58.02 2.77.38 3.6 1.07.82.7 1.22 1.54 1.21 2.52l-.11 7.25c0 .64.09 1.12.29 1.42.2.31.47.47.8.48.37 0 .76-.14 1.17-.44zm-4.56-5.66c-2.4.29-4.11.81-5.12 1.54-.75.56-1.14 1.35-1.15 2.39-.01.73.17 1.3.56 1.71s.88.63 1.51.64c1.11.02 2.08-.39 2.91-1.22s1.25-1.89 1.27-3.16l.03-1.9zm19.19.79l-9.5-.14c.02 2.02.37 3.45 1.07 4.29.8.95 1.82 1.43 3.08 1.45 1.85.03 3.35-1 4.51-3.09l.92.41c-1.42 2.66-3.43 3.97-6.03 3.93-1.77-.03-3.26-.69-4.45-1.99s-1.77-2.95-1.75-4.96c.03-2.15.65-3.88 1.87-5.19 1.21-1.31 2.69-1.95 4.44-1.92 1.28.02 2.39.37 3.31 1.04s1.61 1.63 2.07 2.88c.32.87.48 1.97.48 3.29zm-9.49-1.14l5.75.08c.34 0 .61-.11.8-.34s.29-.62.3-1.18c.02-1.04-.29-1.93-.93-2.66-.64-.74-1.39-1.11-2.27-1.12-.98-.01-1.82.41-2.52 1.28s-1.07 2.18-1.13 3.93zm13.12 2.74c.56 1.64 1.22 2.78 1.97 3.42s1.68.96 2.79.98c1.03.02 1.82-.2 2.38-.64s.84-1.01.85-1.7c0-.4-.09-.74-.29-1.04s-.48-.53-.83-.68-1.29-.38-2.79-.68c-1.43-.3-2.43-.62-2.99-.94s-1-.76-1.31-1.31a3.48 3.48 0 0 1-.45-1.79c.01-.97.35-1.85 1.02-2.63.86-1 2.04-1.49 3.55-1.46 1.15.02 2.22.4 3.19 1.14l.95-.98h.58l.3 4.74H948c-.4-1.36-.95-2.33-1.65-2.93s-1.57-.91-2.61-.92c-.9-.01-1.61.2-2.12.63-.52.43-.78.96-.79 1.6 0 .56.22 1.02.69 1.4.46.38 1.36.7 2.71.93l3.05.71c.77.29 1.36.74 1.78 1.33.42.6.62 1.32.61 2.17-.02 1.17-.49 2.15-1.43 2.95-.93.8-2.11 1.19-3.53 1.17-1.31-.02-2.53-.47-3.64-1.36l-1.05 1.17h-.75l-.21-5.3h.95zm24.29-1.19l-9.5-.14c.02 2.02.37 3.45 1.07 4.29.8.95 1.82 1.43 3.08 1.45 1.85.03 3.35-1 4.51-3.09l.92.41c-1.42 2.66-3.43 3.97-6.03 3.93-1.77-.03-3.26-.69-4.45-1.99s-1.78-2.95-1.75-4.95c.03-2.15.65-3.88 1.87-5.19s2.69-1.95 4.44-1.92c1.28.02 2.39.37 3.31 1.04s1.61 1.63 2.07 2.88c.32.87.48 1.97.48 3.29zm-9.49-1.14l5.75.08c.34 0 .61-.11.8-.34s.29-.62.3-1.18c.02-1.04-.29-1.93-.93-2.66-.64-.74-1.39-1.11-2.27-1.12-.98-.01-1.82.41-2.52 1.28s-1.07 2.18-1.13 3.93zm14.58 4.67c.47 0 .87.18 1.2.53a1.68 1.68 0 0 1 .48 1.22 1.72 1.72 0 0 1-.51 1.24 1.62 1.62 0 0 1-1.22.49c-.47 0-.87-.18-1.2-.53s-.49-.76-.48-1.24c0-.48.18-.89.52-1.22s.75-.5 1.23-.49zm-431.74 45.4l9.66.14-.02 1.06-1.66-.02c-.74-.01-1.2.07-1.4.26-.2.18-.3.57-.31 1.16l-.23 15.86c0 .63.07 1.03.24 1.19.22.22.63.33 1.23.34l1.85.03-.02 1.06-9.66-.14.02-1.06 1.83.03c.64 0 1.06-.08 1.25-.26.19-.19.29-.59.3-1.23l.23-15.86c0-.6-.07-.98-.24-1.12-.26-.22-.75-.34-1.46-.35l-1.64-.02.02-1.06zm11.57 7.85l4.41-.21a20.16 20.16 0 0 1 .35 2.92c.61-.95 1.32-1.67 2.13-2.14s1.73-.7 2.75-.68c.88.01 1.61.2 2.2.55s1.06.91 1.41 1.66.52 1.59.5 2.51l-.09 6.46c0 .48.1.83.31 1.03s.58.31 1.09.32h.93l-.02 1.08-6.99-.1.02-1.06h.67c.62.02 1.06-.07 1.31-.27s.38-.49.38-.89l.08-5.68c.02-1.24-.16-2.15-.52-2.75-.52-.86-1.31-1.29-2.39-1.31-1.07-.02-1.96.4-2.69 1.25s-1.1 1.96-1.12 3.34l-.07 4.91c0 .48.1.83.32 1.03.22.21.58.31 1.09.32h.92l-.02 1.08-7.02-.1.02-1.06h.92c.46.02.82-.07 1.06-.25s.37-.42.37-.7l.13-8.57c0-.57-.14-1-.44-1.29-.3-.3-.74-.45-1.32-.46h-.68l.01-.93zm17.13.25l6.53.1v.96c-.88 0-1.44.08-1.68.21s-.37.33-.37.58a1.5 1.5 0 0 0 .13.62l3.4 7.88 3.31-7.54c.05-.13.08-.26.08-.39 0-.69-.66-1.13-2.01-1.32v-.96l5.51.08v.96c-.57.05-1.02.19-1.35.43s-.59.57-.78.98l-5.03 11.18h-.76l-5.05-11.66c-.18-.42-.41-.71-.67-.88s-.69-.26-1.26-.28v-.96zm28.51 7.15l-9.5-.14c.02 2.02.37 3.45 1.07 4.29.8.95 1.82 1.43 3.08 1.45 1.85.03 3.35-1 4.51-3.09l.92.41c-1.42 2.66-3.43 3.97-6.04 3.93-1.77-.03-3.26-.69-4.45-1.99s-1.78-2.95-1.75-4.95c.03-2.15.65-3.88 1.87-5.19s2.69-1.95 4.44-1.92c1.28.02 2.39.37 3.31 1.04s1.61 1.63 2.07 2.88c.32.87.48 1.97.48 3.29zm-9.49-1.14l5.75.08c.34 0 .61-.11.8-.34s.29-.62.3-1.18c.01-1.04-.29-1.93-.93-2.66s-1.39-1.11-2.27-1.12c-.98-.01-1.82.41-2.52 1.28s-1.07 2.18-1.13 3.93zm21.64 3.92l.92.28c-.78 2.7-2.42 4.03-4.93 3.99-1.84-.03-3.34-.66-4.49-1.89-1.15-1.24-1.71-2.86-1.68-4.88.03-2.34.7-4.15 2.01-5.42 1.3-1.27 2.82-1.89 4.56-1.87 1.3.02 2.37.39 3.21 1.12s1.25 1.53 1.24 2.41c0 .53-.17.96-.49 1.3s-.7.51-1.13.5c-.42 0-.78-.16-1.07-.45-.29-.3-.43-.65-.42-1.07 0-.41.17-.81.5-1.18.15-.18.23-.32.23-.42 0-.27-.18-.54-.54-.81-.36-.26-.86-.4-1.49-.41-1.15-.02-2.03.39-2.64 1.22-.87 1.2-1.32 2.8-1.35 4.79-.03 1.9.33 3.34 1.07 4.32.74.99 1.7 1.49 2.87 1.51 1.61.02 2.83-1 3.64-3.06zm15.21-2.38l-9.5-.14c.02 2.02.37 3.45 1.07 4.29.8.95 1.82 1.43 3.08 1.45 1.85.03 3.35-1 4.51-3.09l.91.41c-1.42 2.66-3.43 3.97-6.03 3.93-1.77-.03-3.26-.69-4.45-1.99s-1.78-2.95-1.75-4.95c.03-2.15.65-3.88 1.87-5.19s2.69-1.95 4.44-1.92c1.28.02 2.39.37 3.31 1.04.92.68 1.61 1.63 2.07 2.88.32.87.48 1.97.48 3.29zm-9.49-1.14l5.75.08c.34 0 .61-.11.8-.34s.29-.62.3-1.18c.01-1.04-.29-1.93-.93-2.66s-1.39-1.11-2.27-1.12c-.98-.01-1.82.41-2.52 1.28s-1.07 2.18-1.12 3.93zm23.91-5.62c.19.99.3 1.95.33 2.87.67-1.03 1.36-1.75 2.08-2.18.72-.42 1.51-.63 2.35-.62.91.01 1.77.3 2.58.87.82.57 1.47 1.4 1.97 2.48s.74 2.3.72 3.65c-.03 2.16-.69 3.91-1.97 5.25-1.06 1.12-2.32 1.66-3.78 1.64-.83-.01-1.57-.23-2.23-.67s-1.25-1.08-1.75-1.92l-.08 5.37c0 .42.09.71.29.88.25.23.6.35 1.06.36h.98l-.01 1.02-7.09-.1v-1l.99.01c.45 0 .79-.08 1.02-.25s.35-.41.35-.7l.21-13.96c0-.65-.14-1.11-.45-1.39-.31-.27-.93-.43-1.86-.47v-.95l4.31-.18zm4.09 1.35c-1.03-.02-1.9.47-2.63 1.45s-1.1 2.41-1.13 4.29c-.03 1.9.29 3.31.97 4.22.67.92 1.54 1.38 2.61 1.4 1 .01 1.77-.36 2.32-1.13.7-1.01 1.07-2.5 1.1-4.46.03-2.06-.26-3.53-.87-4.42s-1.4-1.34-2.37-1.35zm14.62-1.23c1.79.03 3.27.69 4.47 2 1.19 1.31 1.78 3.01 1.75 5.12-.02 1.45-.31 2.69-.87 3.7-.56 1.02-1.34 1.82-2.36 2.39-1.01.58-2.1.86-3.26.84-1.72-.02-3.16-.7-4.34-2.02-1.17-1.32-1.75-3.02-1.72-5.1s.66-3.77 1.87-5.06c1.22-1.29 2.71-1.91 4.46-1.89zm-.01 1c-1.06-.02-1.93.45-2.63 1.4-.69.95-1.06 2.46-1.09 4.52-.03 2.11.28 3.65.94 4.63s1.52 1.48 2.59 1.5c1.11.02 2.01-.46 2.7-1.42.7-.96 1.07-2.55 1.1-4.76.03-2.05-.29-3.53-.95-4.46s-1.55-1.4-2.68-1.41zm7.98-.48l5.28-.08-.17 11.41c0 .31.07.54.22.67.21.19.49.29.82.29l1.5.02-.02 1.06-7.55-.11.02-1.06 1.4.02c.42 0 .72-.09.92-.29s.3-.49.3-.88l.12-8.35c0-.53-.14-.93-.44-1.2s-.74-.42-1.34-.42l-1.09-.02.02-1.06zm3.8-7.86c.43 0 .8.17 1.11.5s.47.71.46 1.14c0 .42-.17.79-.48 1.1a1.5 1.5 0 0 1-1.12.45c-.43 0-.81-.17-1.12-.49s-.46-.69-.46-1.12c0-.42.17-.79.5-1.11s.7-.47 1.11-.47zm23.65 17.59l.92.28c-.78 2.7-2.42 4.03-4.93 3.99-1.84-.03-3.34-.66-4.49-1.89-1.15-1.24-1.71-2.86-1.68-4.88.03-2.34.7-4.15 2.01-5.42s2.82-1.89 4.56-1.87c1.3.02 2.37.39 3.21 1.12s1.25 1.53 1.24 2.41c0 .53-.17.96-.49 1.3s-.7.51-1.13.5c-.42 0-.78-.16-1.07-.45-.29-.3-.43-.65-.42-1.07 0-.41.17-.81.5-1.18.15-.18.23-.32.23-.42 0-.27-.18-.54-.54-.81s-.86-.4-1.5-.41c-1.15-.02-2.03.39-2.64 1.22-.87 1.2-1.32 2.8-1.35 4.79-.03 1.9.33 3.34 1.07 4.32.74.99 1.7 1.49 2.87 1.51 1.62.02 2.83-1 3.64-3.06zm2.61-9.29l5.28-.08-.17 11.41c0 .31.07.53.22.67.21.19.49.29.82.29l1.5.02-.02 1.06-7.55-.11.02-1.06 1.4.02c.42 0 .72-.09.92-.29s.3-.49.3-.88l.12-8.35c0-.53-.14-.93-.44-1.2s-.74-.41-1.34-.42l-1.09-.02.02-1.06zm3.8-7.86c.43 0 .8.17 1.11.5s.47.71.46 1.14c0 .42-.17.79-.48 1.1a1.5 1.5 0 0 1-1.12.45c-.43 0-.81-.17-1.12-.49s-.46-.69-.46-1.12c0-.42.17-.79.5-1.11s.7-.47 1.11-.46zm15.12 16.41c.56 1.64 1.22 2.78 1.97 3.42s1.68.97 2.8.98c1.03.02 1.82-.2 2.38-.64s.84-1.01.85-1.7c0-.4-.09-.74-.29-1.04s-.48-.53-.83-.68c-.36-.15-1.29-.38-2.79-.68-1.43-.3-2.43-.62-2.99-.94s-1-.76-1.31-1.31a3.48 3.48 0 0 1-.45-1.79c.01-.97.35-1.85 1.02-2.63.86-1 2.04-1.49 3.55-1.46 1.15.02 2.22.4 3.19 1.14l.95-.98h.58l.3 4.74h-.95c-.4-1.36-.94-2.33-1.64-2.93s-1.57-.91-2.61-.92c-.9-.01-1.61.2-2.12.63-.52.43-.78.96-.79 1.6 0 .56.22 1.02.69 1.4.46.38 1.36.69 2.71.93l3.05.71c.77.29 1.36.74 1.78 1.34s.62 1.32.61 2.17c-.02 1.17-.49 2.15-1.43 2.95-.93.8-2.11 1.19-3.53 1.16-1.31-.02-2.53-.47-3.64-1.36l-1.05 1.17h-.75l-.21-5.3h.95zm11.69-8.1l5.28-.08-.17 11.41c0 .31.07.53.22.67.21.19.49.29.82.29l1.5.02-.02 1.06-7.55-.11.02-1.06 1.4.02c.42 0 .72-.09.92-.29s.3-.49.3-.88l.12-8.35c0-.53-.14-.93-.44-1.2s-.74-.41-1.34-.42l-1.09-.02.02-1.06zm3.8-7.86c.43 0 .8.17 1.11.5a1.53 1.53 0 0 1 .46 1.14c0 .42-.17.79-.48 1.1a1.5 1.5 0 0 1-1.12.45c-.43 0-.81-.17-1.12-.49s-.46-.69-.46-1.12c0-.42.17-.79.5-1.11s.7-.47 1.11-.47zm19.43 20.01l.5.8c-.7.7-1.47 1.04-2.31 1.03-.64 0-1.18-.19-1.61-.55s-.81-.97-1.13-1.86c-.91.93-1.71 1.55-2.39 1.86s-1.5.45-2.46.44c-1.36-.02-2.39-.33-3.09-.92a2.79 2.79 0 0 1-1.03-2.27c.02-1.38.85-2.51 2.48-3.4s3.8-1.46 6.49-1.72l.03-2.01c0-.72-.27-1.33-.84-1.85s-1.3-.78-2.18-.8c-.82-.01-1.53.15-2.13.48-.43.25-.64.5-.65.74 0 .14.11.36.33.67.27.38.4.72.4 1.01a1.34 1.34 0 0 1-.43 1.03c-.28.27-.64.39-1.08.39-.47 0-.86-.17-1.18-.5s-.46-.74-.46-1.24c.01-.93.55-1.78 1.62-2.54 1.06-.76 2.45-1.12 4.16-1.1 1.58.02 2.78.38 3.6 1.07.82.7 1.22 1.54 1.21 2.52l-.11 7.25c0 .64.09 1.12.29 1.42.2.31.47.47.8.48.37 0 .76-.14 1.17-.44zm-4.56-5.66c-2.4.29-4.11.81-5.12 1.54-.75.55-1.14 1.35-1.15 2.39-.01.73.17 1.3.56 1.71.38.42.88.63 1.5.64 1.11.02 2.08-.39 2.91-1.22s1.25-1.89 1.27-3.16l.03-1.9zm7.67-6.1l3.8-.19c.19.99.32 1.93.37 2.83.73-1.02 1.46-1.74 2.19-2.15a4.63 4.63 0 0 1 2.38-.6c.92.01 1.67.26 2.26.75s1.04 1.28 1.34 2.36c.65-1.02 1.36-1.77 2.14-2.27s1.63-.74 2.54-.72c1.21.02 2.11.39 2.7 1.12.76.96 1.13 2.18 1.11 3.67l-.1 6.58c0 .4.09.67.29.81.26.22.65.33 1.17.34h.67l-.02 1.07-6.67-.1.02-1.06h.67c.57.02.96-.07 1.19-.26s.35-.47.35-.85l.1-6.59c.01-.98-.21-1.75-.69-2.29-.47-.55-1.1-.83-1.88-.84-.59 0-1.13.14-1.62.45-.48.31-.87.75-1.15 1.34-.42.84-.63 1.55-.64 2.13l-.08 5.71c0 .39.09.68.3.86.21.19.52.28.96.29h.91l-.02 1.08-6.77-.1.02-1.06h.76c.48.02.84-.07 1.08-.26s.36-.42.36-.72l.09-6.12c.02-1.29-.2-2.23-.64-2.83-.45-.59-1.06-.89-1.83-.91-1-.01-1.78.31-2.32.99-.78.95-1.18 2.07-1.2 3.35l-.08 5.29c0 .41.08.69.26.84.25.2.65.31 1.18.31h.68l-.02 1.07-6.68-.1.02-1.06 1.01.02c.38 0 .67-.08.88-.27s.31-.42.32-.72l.13-8.69c0-.48-.11-.84-.35-1.08s-.73-.4-1.47-.47v-.98zm31.22.06c1.78.03 3.27.69 4.47 2 1.19 1.31 1.78 3.01 1.75 5.12-.02 1.45-.31 2.69-.87 3.71s-1.34 1.81-2.36 2.39c-1.01.58-2.1.86-3.26.84-1.72-.03-3.16-.7-4.34-2.02-1.17-1.32-1.75-3.02-1.72-5.1s.66-3.77 1.87-5.06c1.22-1.29 2.71-1.91 4.46-1.89zm-.01 1c-1.06-.02-1.93.45-2.63 1.4-.69.95-1.06 2.46-1.09 4.52-.03 2.11.28 3.65.94 4.63s1.52 1.48 2.59 1.5c1.1.02 2-.46 2.7-1.42s1.07-2.55 1.1-4.76c.03-2.05-.29-3.53-.95-4.46s-1.55-1.4-2.68-1.41zm20.51-.54c.19.99.3 1.95.33 2.87.67-1.03 1.36-1.75 2.08-2.18.72-.42 1.51-.63 2.36-.62.91.01 1.77.3 2.58.87s1.47 1.4 1.97 2.48.74 2.3.72 3.65c-.03 2.16-.69 3.91-1.97 5.25-1.06 1.12-2.32 1.66-3.78 1.64-.83-.01-1.57-.23-2.24-.67-.66-.44-1.25-1.08-1.75-1.92l-.08 5.37c0 .42.09.71.29.88.25.23.6.35 1.06.36h.98l-.01 1.02-7.09-.1v-1l.99.01c.45 0 .79-.08 1.02-.25.23-.18.34-.41.35-.7l.21-13.96c0-.65-.14-1.11-.45-1.39-.31-.27-.93-.43-1.86-.47v-.95l4.31-.18zm4.1 1.35c-1.03-.02-1.9.47-2.63 1.45s-1.1 2.41-1.13 4.29c-.03 1.9.29 3.3.97 4.22.67.92 1.54 1.38 2.61 1.4 1 .01 1.77-.36 2.32-1.13.7-1.01 1.07-2.5 1.1-4.46.03-2.06-.26-3.53-.87-4.42s-1.4-1.34-2.37-1.35zm8.13-.93l4.77-.17-.08 5.37c.54-1.76 1.17-3.08 1.9-3.98s1.62-1.34 2.68-1.32c.72 0 1.29.24 1.71.68.42.45.63 1.04.62 1.77 0 .6-.16 1.06-.45 1.38-.29.33-.66.49-1.09.48-.43 0-.77-.15-1.02-.44s-.38-.67-.37-1.15a1.74 1.74 0 0 1 .24-.88c.14-.24.22-.39.22-.44 0-.14-.09-.21-.27-.22-.39 0-.83.21-1.33.66-.69.62-1.23 1.48-1.61 2.58-.59 1.71-.9 3.08-.91 4.11l-.04 2.85c0 .32.1.57.33.74.22.17.61.26 1.16.27l1.69.02-.02 1.06-8.24-.12.02-1.06 1.32.02c.44 0 .78-.08 1.01-.25s.35-.38.35-.62l.12-8.45c0-.64-.12-1.11-.39-1.41s-.66-.46-1.17-.46l-1.16-.02v-1zm25.43 7.1l-9.5-.14c.02 2.02.37 3.45 1.07 4.29.8.95 1.82 1.43 3.08 1.45 1.85.03 3.35-1 4.51-3.09l.92.41c-1.42 2.66-3.43 3.97-6.03 3.93-1.77-.03-3.26-.69-4.45-1.99s-1.78-2.95-1.75-4.96c.03-2.15.65-3.88 1.87-5.19s2.69-1.95 4.44-1.92c1.28.02 2.39.37 3.31 1.04s1.61 1.63 2.07 2.88c.32.87.48 1.97.48 3.29zm-9.49-1.15l5.75.08c.34 0 .61-.11.8-.34s.29-.62.3-1.18c.01-1.04-.29-1.93-.93-2.66-.64-.74-1.39-1.11-2.27-1.12-.98-.01-1.82.41-2.52 1.28s-1.07 2.18-1.13 3.93zm13.12 2.75c.56 1.64 1.22 2.78 1.97 3.42s1.68.97 2.8.98c1.03.02 1.82-.2 2.38-.64s.84-1.01.85-1.7c0-.4-.09-.74-.29-1.04s-.48-.53-.83-.68c-.36-.15-1.29-.38-2.79-.68-1.43-.3-2.43-.62-2.99-.94s-1-.76-1.31-1.31a3.48 3.48 0 0 1-.45-1.79c.01-.97.35-1.85 1.02-2.63.85-1 2.04-1.49 3.55-1.46 1.15.02 2.22.4 3.19 1.14l.95-.98h.58l.3 4.74h-.95c-.4-1.36-.95-2.33-1.65-2.93s-1.57-.91-2.61-.92c-.9-.01-1.61.2-2.12.63-.52.43-.78.96-.79 1.6 0 .56.22 1.02.69 1.4.46.38 1.36.69 2.71.93l3.05.71c.77.29 1.37.74 1.78 1.34.42.6.62 1.32.61 2.17-.02 1.17-.49 2.15-1.43 2.95-.93.8-2.11 1.19-3.53 1.17-1.31-.02-2.53-.47-3.64-1.36l-1.05 1.17h-.75l-.21-5.3h.95zm24.29-1.19l-9.5-.14c.02 2.02.37 3.45 1.07 4.29.8.95 1.82 1.43 3.08 1.45 1.85.03 3.35-1 4.51-3.09l.92.41c-1.42 2.66-3.43 3.97-6.03 3.93-1.77-.03-3.26-.69-4.45-1.99s-1.78-2.95-1.75-4.95c.03-2.15.65-3.88 1.87-5.19s2.69-1.95 4.44-1.92c1.28.02 2.39.37 3.31 1.04.92.68 1.61 1.63 2.07 2.88.32.87.48 1.97.48 3.29zm-9.49-1.14l5.75.08c.34 0 .61-.11.8-.34s.29-.62.3-1.18c.01-1.04-.29-1.93-.93-2.66s-1.39-1.11-2.27-1.12c-.98-.01-1.82.41-2.52 1.28s-1.07 2.18-1.13 3.93zm11.64-5.56l4.41-.21a20.16 20.16 0 0 1 .35 2.92c.61-.95 1.32-1.67 2.13-2.14s1.73-.7 2.75-.68c.88.01 1.61.2 2.2.55s1.06.91 1.41 1.66.52 1.59.5 2.51l-.09 6.46c0 .48.1.83.31 1.03s.58.31 1.09.32h.93l-.02 1.08-6.99-.1.02-1.06h.67c.62.02 1.06-.07 1.31-.27.25-.19.38-.49.38-.89l.08-5.68c.02-1.24-.16-2.15-.53-2.75-.52-.86-1.31-1.29-2.39-1.31-1.07-.02-1.96.4-2.69 1.25s-1.1 1.96-1.12 3.34l-.07 4.91c0 .48.1.83.32 1.03.22.21.58.31 1.09.32h.92l-.02 1.08-7.02-.1.02-1.06h.92c.46.02.81-.07 1.06-.25.24-.19.37-.42.37-.7l.13-8.57c0-.57-.14-1-.44-1.29-.3-.3-.74-.45-1.32-.46h-.68l.01-.93z"/><use xlink:href="#F"/><path d="M912.64 1272.89l.5.8c-.7.7-1.47 1.04-2.31 1.03-.64 0-1.18-.19-1.61-.55s-.81-.98-1.13-1.86c-.91.93-1.71 1.55-2.39 1.86s-1.5.45-2.46.44c-1.36-.02-2.39-.33-3.09-.92a2.79 2.79 0 0 1-1.03-2.27c.02-1.38.85-2.51 2.48-3.4s3.8-1.46 6.49-1.72l.03-2.01c0-.72-.27-1.33-.84-1.85s-1.29-.78-2.18-.8c-.82-.01-1.53.15-2.13.48-.43.25-.64.5-.65.74 0 .14.11.37.33.67.27.38.4.72.4 1.01a1.34 1.34 0 0 1-.43 1.03c-.28.26-.64.39-1.08.39-.47 0-.86-.17-1.18-.5-.31-.33-.46-.74-.46-1.24.01-.93.55-1.78 1.62-2.54 1.06-.76 2.45-1.12 4.16-1.1 1.58.02 2.77.38 3.59 1.07.82.7 1.22 1.54 1.21 2.52l-.11 7.25c0 .64.09 1.12.29 1.42.2.32.47.47.8.48.37 0 .76-.14 1.17-.44zm-4.56-5.66c-2.4.29-4.11.81-5.12 1.54-.75.56-1.14 1.35-1.15 2.39-.01.73.17 1.3.56 1.71.38.42.88.63 1.51.64 1.11.02 2.08-.39 2.91-1.22s1.25-1.89 1.27-3.16l.03-1.9zm10.42-11.47h.95l-.08 5.42 4.29.06-.02 1.3-4.29-.06-.12 8.51c-.01.74.16 1.3.5 1.7a1.69 1.69 0 0 0 1.32.61c.64 0 1.19-.28 1.66-.87.46-.59.74-1.57.84-2.93h.95c-.08 1.78-.5 3.08-1.26 3.93-.76.84-1.73 1.26-2.92 1.24-1.09-.02-1.95-.33-2.56-.94s-.91-1.4-.89-2.37l.13-8.91-2.31-.03v-.99c1.07-.16 1.88-.59 2.43-1.28.83-1.04 1.29-2.5 1.39-4.38zm7.45 5.52l5.28-.08-.17 11.41c0 .31.07.53.22.67.21.19.49.29.82.29l1.5.02-.02 1.06-7.55-.11.02-1.06 1.4.02c.42 0 .72-.09.92-.29s.3-.49.3-.88l.12-8.35c0-.53-.14-.93-.44-1.2s-.74-.42-1.34-.42l-1.09-.02.02-1.06zm3.8-7.86c.43 0 .8.17 1.11.5s.47.71.46 1.14c0 .42-.17.79-.48 1.1a1.5 1.5 0 0 1-1.12.45c-.43 0-.81-.17-1.12-.49s-.46-.69-.46-1.12c0-.42.17-.79.5-1.11s.7-.47 1.11-.47zm8.53 18.22c.47 0 .87.18 1.2.53s.48.75.48 1.22a1.72 1.72 0 0 1-.51 1.24 1.59 1.59 0 0 1-1.23.49c-.47 0-.87-.18-1.2-.53s-.49-.76-.48-1.24c0-.48.18-.89.52-1.22s.75-.5 1.23-.49z"/><path d="m650.22,898.88c-2.56,1.85-4.15,3.68-6.76,5.07-1.95,1.05-3.7,1.69-5.93,2.43-7.62,2.54-15.74,4.3-23.79,4.23-6.52-.05-12.21.02-18.5-1.3-3.01-.63-7.08-.86-10.07-.04-3.04.84-5.44,2.83-8.63,3.43.47,2.59,9.01,1.3,11.32,1.27,3.59-.05,6.2.69,9.43,2.04-6.07,2.6-11.67,6.77-17.45,10.07-3.88,2.21-23.49,10.23-22.13,16.52s15.26-2.77,18.01-3.68c5.74-1.9,11.42-4.95,17.04-7.51-9.03,6.48-23.39,7.72-30.56,16.6,5.91,3.54,11.7-.72,17.07-3.15,3.33-1.51,6.09-3.82,9.33-5.39,2.44-1.18,5.07-1.65,7.46-3.06-5.44,6-18.51,6.44-22.54,14.3,4.85-1.47,9.76-2.5,14.39-4.92,3.46-1.81,9.52-6.63,13.57-4.67-1.14,2.02-1.85,4.18-3.61,5.94-3.16,3.17-7.67,5.07-10.65,8.39-1.8,2.01-5.82,6.7-3.28,8.86,3,2.55,9.57-5.36,11.28-7.09,3.33-3.37,7.26-8.13,11.38-10.62s8.61-4.05,13.05-5.78c4.97-1.94,8.75-5.36,13.58-7.41,4.98-2.1,9.75-4.2,14.47-6.85,8.57-4.81,16.79-9.48,26-12.96,4.2-1.59,23.75-12.51,17.54-17.94-4.36-3.81-18.84-2.64-24.2-1.43-7.97,1.78-19.72,4.39-25.21,11.37" fill="#fff" class="H I J K"/><path d="M954.86 536.36c-1.46-3.79-2.36-6.65-6.03-8.99-6.63-4.22-11.82-4.48-19.67-5.2-7.67-.71-13.96-1.02-21.18 2.18-10.51 4.65-20.93 10.65-29.6 18.35-6.53 5.79-11.37 13.16-16.92 19.81-2.66 3.18-4.22 6.63-6.37 10.07-2.81 4.49-6.72 7.68-8.89 12.65-5.83 13.33-10.67 28.32-18.85 40.41-4.19 6.19-9.13 10.95-13.76 16.66-3.22 3.97-6.42 8.13-9.42 12.24-3.11 4.27-4.4 9.14-6.86 13.74-8.16 15.23-19.83 28.54-26.58 44.57-2.48 5.89-2.05 13.64-2.65 20.01l-1.97 21.09c-.66 7.06-1.77 12.65-6.68 18.21-6.45 7.3-15.1 11.42-23.84 15.04-5.54 2.3-12.63 4.29-16.36 8.87-4.11 5.04-7.55 11.02-12.35 15.28-6 5.33-10.74 13.5-15.03 20.29-2.22 3.5-5.24 5.65-7.95 8.91-3.69 4.43-6.3 9.59-9.67 14.23-3.5 4.82-8.58 8-12.12 13-2.54 3.58-5.14 6.81-7.9 10.2-4.6 5.64-5.31 13.43-6.08 20.68-.77 7.29 1.77 14.23 8.98 17.37 2.45 1.07 7.73 3.07 10.29 3.11 3.8.06 8.41-1.23 12.33-1.55 18.68-1.55 35.96-7.72 53.24-14.69 10.1-4.07 20.12-8.36 30.48-11.66 10.5-3.34 21.32-5.08 31.75-8.65 9.59-3.29 19.76-7.6 28.6-12.51 12.68-7.05 22.51-16.87 34.32-25.04 11.7-8.09 22.45-17.19 32.97-26.79 4.69-4.29 9.02-7.03 13.29-11.9 5.56-6.36 11.8-12.09 17.59-18.29 1.97-2.11 4.07-4.06 5.98-6.24 3.85-4.4 5.85-9.67 8.84-14.57 3.08-5.05 7.1-9.06 10.05-14.26 4.41-7.8 9.42-15.09 13.37-23.19 2.66-5.44 4.6-11.18 7.11-16.7 3.08-6.78 6.76-13.61 9.29-20.58 1.77-4.88 1.39-10.18 2.57-15.32 2.73-11.92 3.53-23.83 4.67-36.04l1.35-14.08c.41-3.9-.57-7.27-.61-11.1-.06-6.21-2.97-11.27-4.39-17.21-1.14-4.76-2.89-9.12-4.26-13.77-1.31-4.43-1.78-7.73-4.27-11.65-3.57-5.62-6.36-9.03-12.13-12.67-7.34-4.63-13.27-8.81-18.96-15.55"/></g></svg>