<svg xmlns="http://www.w3.org/2000/svg" xmlns:xlink="http://www.w3.org/1999/xlink" viewBox="0 0 1080 1350" xmlns:v="https://vecta.io/nano"><style><![CDATA[.G{stroke:#000}.H{stroke-linejoin:round}.I{stroke-width:3}.J{stroke-linecap:round}]]></style><defs><clipPath id="A"><path d="M-.5-6.5h1081v1356H-.5z" fill="none"/></clipPath><clipPath id="B"><path d="m317.35,268.17c-3.8-.99-8.85,3.81-12.38,5.11-5.9,2.17-14.37,1.28-20.72,1.05-19.24-.7-34.44-13.06-49.24-24.3-6.45-4.9-13.56-11.17-18.58-17.67-4.85-6.28-7.39-17.53-8.92-25.26-1.19-6.02-1.24-16.43-.28-22.53,1.45-9.3,5.5-16.68,10.41-24.45,2.33-3.7,3.31-8.08,5.85-11.71,2.8-4.03,6.94-7.2,10.39-10.68,6.85-6.91,14.64-11.26,22.83-16.21,7.05-4.26,16.07-9.57,24.5-10.35,4.23-.39,7.54-.6,11.66-1.48,4.28-.91,9.93-1.2,14.31-.55,3.68.54,7.38,2.67,10.71,4.17,3.8,1.73,8.07,2.64,11.76,4.53,7.86,4.03,14.38,8.92,20.32,15.75,5.15,5.92,9.56,13.32,12.78,20.48,3.19,7.1,1.49,16.72,1.49,24.48,0,8.91-.72,17.27-2.44,25.94-.83,4.19-3.22,7.84-4.75,11.74-1.28,3.28-1.38,7.69-2.85,10.73-1.97,4.06-5.83,6.9-8.24,11.09-2.49,4.33-4.84,6.71-8.16,10.09s-4.98,8.31-7.99,11.88c-1.87,2.21-9.41,8.22-12.44,8.15" fill="none"/></clipPath><path id="C" d="M758.18 187.82c1.79 0 3.28.64 4.5 1.93 1.21 1.29 1.82 2.99 1.82 5.09 0 1.45-.27 2.69-.81 3.72s-1.32 1.83-2.32 2.43c-1.01.6-2.09.89-3.25.89-1.72 0-3.17-.65-4.37-1.95s-1.79-2.99-1.79-5.07.6-3.78 1.8-5.08 2.68-1.95 4.43-1.95zm0 1c-1.06 0-1.93.48-2.61 1.44s-1.02 2.47-1.02 4.54.34 3.64 1.01 4.62 1.55 1.46 2.61 1.46 2-.49 2.68-1.46 1.03-2.56 1.03-4.77c0-2.05-.34-3.53-1.01-4.45a3.16 3.16 0 0 0-2.7-1.37z"/><path id="D" d="M768.02 196.48c.58 1.63 1.26 2.76 2.02 3.39s1.7.94 2.81.94c1.03 0 1.82-.22 2.37-.67s.83-1.02.83-1.71a1.75 1.75 0 0 0-.31-1.04c-.2-.3-.48-.52-.84-.67s-1.29-.36-2.79-.64c-1.44-.28-2.44-.58-3.01-.89a3.37 3.37 0 0 1-1.33-1.29 3.47 3.47 0 0 1-.48-1.78c0-.97.33-1.86.98-2.65.84-1.01 2.02-1.52 3.53-1.52 1.15 0 2.22.36 3.21 1.09l.94-.99h.58l.37 4.73h-.95c-.42-1.34-.98-2.31-1.69-2.9s-1.58-.88-2.62-.88c-.9 0-1.6.22-2.11.66s-.77.97-.77 1.61c0 .56.24 1.02.71 1.39.46.38 1.37.67 2.72.89 1.57.26 2.59.49 3.06.67.77.28 1.38.72 1.8 1.31.43.59.64 1.31.64 2.16 0 1.17-.46 2.16-1.38 2.97s-2.09 1.22-3.51 1.22c-1.31 0-2.53-.43-3.66-1.3l-1.04 1.19h-.75l-.28-5.28h.95z"/><path id="E" d="M793.02 188.21l5.28-.16v11.41c0 .31.08.53.23.67.22.19.49.28.82.28h1.5v1.06h-7.55v-1.06h1.4c.42 0 .72-.1.91-.3s.29-.5.29-.89v-8.35c0-.53-.15-.93-.45-1.2s-.75-.4-1.34-.4h-1.09v-1.06zm3.68-7.92c.43 0 .8.16 1.12.48a1.55 1.55 0 0 1 .48 1.13c0 .43-.16.79-.47 1.1s-.68.47-1.12.47-.81-.16-1.13-.47-.47-.69-.47-1.11.16-.8.48-1.12.69-.48 1.1-.48z"/><path id="F" d="M816.42 200.02l.51.79c-.69.71-1.45 1.06-2.29 1.06-.64 0-1.18-.17-1.62-.52s-.82-.96-1.15-1.84c-.9.94-1.69 1.57-2.37 1.89s-1.5.47-2.45.47c-1.36 0-2.39-.29-3.1-.88a2.79 2.79 0 0 1-1.06-2.25c0-1.38.81-2.52 2.43-3.43s3.77-1.52 6.46-1.82v-2.01c0-.72-.29-1.33-.86-1.84s-1.31-.76-2.2-.76c-.82 0-1.53.17-2.12.51-.43.25-.64.5-.64.75 0 .14.11.36.34.67.27.38.41.71.41 1a1.4 1.4 0 0 1-.41 1.04c-.27.27-.63.4-1.08.4-.47 0-.87-.16-1.18-.48-.32-.32-.47-.73-.47-1.23 0-.93.53-1.79 1.58-2.56s2.43-1.16 4.14-1.16c1.58 0 2.78.34 3.61 1.02.83.69 1.25 1.52 1.25 2.51v7.25c0 .64.1 1.11.31 1.42s.48.47.81.47c.37 0 .75-.15 1.16-.45zm-4.64-5.59c-2.4.33-4.1.87-5.1 1.61-.75.57-1.12 1.37-1.12 2.41 0 .73.19 1.3.58 1.71s.89.62 1.51.62c1.11 0 2.08-.42 2.9-1.27s1.22-1.9 1.22-3.18v-1.9z"/><path id="G" d="M732.37 223.01l4.77-.24v5.37c.51-1.76 1.12-3.1 1.84-4.01s1.6-1.36 2.66-1.36c.72 0 1.29.22 1.72.66s.64 1.03.64 1.76c0 .6-.14 1.06-.43 1.39s-.65.5-1.08.5-.77-.14-1.03-.42-.39-.67-.39-1.15c0-.31.08-.6.23-.88.14-.25.21-.39.21-.44 0-.14-.09-.21-.27-.21-.39 0-.83.23-1.32.68-.68.63-1.2 1.5-1.57 2.61-.57 1.72-.85 3.09-.85 4.12v2.85c0 .32.11.57.34.74s.61.25 1.16.25h1.69v1.06h-8.24v-1.06h1.32c.44 0 .78-.09 1-.26s.34-.38.34-.63v-8.45c0-.64-.14-1.11-.41-1.41s-.67-.45-1.17-.45h-1.16v-1z"/><path id="H" d="M132.89 820.35l.95-.02.11 5.41 4.29-.09.03 1.3-4.29.09.18 8.51c.01.74.2 1.3.56 1.68s.8.57 1.34.56c.64-.01 1.18-.32 1.62-.93.44-.6.69-1.59.73-2.96l.95-.02c-.02 1.77-.39 3.08-1.12 3.95s-1.69 1.32-2.88 1.34c-1.09.02-1.96-.26-2.59-.85s-.96-1.37-.98-2.34l-.19-8.9-2.31.05-.02-.99c1.05-.2 1.84-.66 2.37-1.37.79-1.06 1.2-2.54 1.23-4.43z"/><path id="I" d="M88.89 931.1l4.77-.34.11 5.36c.47-1.77 1.06-3.12 1.76-4.04s1.58-1.39 2.63-1.41c.72-.01 1.29.19 1.73.62s.67 1.01.68 1.75c.01.6-.12 1.06-.4 1.4a1.37 1.37 0 0 1-1.07.52c-.42 0-.77-.12-1.04-.4s-.4-.66-.41-1.14c0-.31.06-.61.21-.88.13-.25.2-.4.2-.44 0-.14-.09-.21-.27-.21-.39 0-.82.24-1.3.71-.67.65-1.17 1.53-1.52 2.64-.53 1.73-.78 3.11-.76 4.14l.06 2.85c0 .32.12.56.35.73s.62.24 1.17.23l1.69-.04.02 1.06-8.24.17-.02-1.06 1.32-.03c.44 0 .78-.1 1-.28s.33-.39.33-.64l-.18-8.45c-.01-.64-.16-1.11-.44-1.4s-.67-.43-1.18-.42l-1.16.02-.02-1z"/></defs><g clip-path="url(#A)"><path d="M-63.5-98.5h1210v1551h-1210z" fill="#fff"/><path d="M753.52-18.34c-1.2 6.85-5.13 10.77-5.02 17.74.14 8.82-2.4 15.99-2.45 24.63-.03 4.66-1.52 7.58-2.37 12-1.01 5.25-.21 11.48-.21 16.85v39.06c-.13 23.08 9.61 45.07 13.12 67.61.88 5.64 2.98 10.97 5.02 16.27 2.24 5.83 3.22 11.41 4.79 17.32 2.77 10.42 8.57 20.64 12.25 30.88 2.46 6.83 3.47 14.08 5.53 21.01 2 6.76 6.23 12.08 8.99 18.45 2.72 6.29 4.91 12.92 7.55 19.26 2.78 6.67 7.28 12.64 11.16 18.74 8.03 12.63 16.09 28.12 27.15 38.04 4.25 3.81 6.92 8.76 10.81 12.91 6.29 6.72 13.05 13.06 19.54 19.6 8.81 8.88 17.96 16.87 27.32 25.07 12.85 11.26 28.06 18.77 42.29 27.86 10.61 6.78 20.47 13.32 31.77 18.93 12.53 6.21 25.68 10.54 38.4 16.48 22.02 10.29 45.88 25.43 70.92 25.38 5.87-.01 10.4 1.04 15.26-2.33 3.66-2.54 5.79-6.58 8.05-10.19 6.9-11.05 9.73-22.26 9.53-35.47-.17-11.35 3.78-21.39 4.99-32.54.53-4.86 1.8-10.18 3.08-14.92 2.91-10.81 4.43-21.82 6.42-32.93l7.53-44.47c2.92-19.68-1.98-40.2.78-59.84 2.98-21.19.8-42.72 3.55-64.07 2.01-15.54 1.26-31.24 1.26-46.9l-.06-24.88c.14-6.81 2.04-12.95 2.7-19.65 1.37-13.98-1.9-25.62-4.87-38.9-2.21-9.88-5.28-19.82-5.31-29.89-.03-11.02-2.85-22.33-8.17-31.97-5.88-10.67-12.53-19.5-21.79-27.85-12.38-11.16-29.28-11.1-44.69-13.91-16.75-3.05-35.04-1.26-52.09-1.24-6.54 0-12.58-.33-18.98 1.17-7.17 1.68-12.33 3.68-19.74 3.82-9.48.18-18.53 2.74-28.03 2.63l-22.34-.02c-15.27 0-29.63.27-44.65 2.32-14.06 1.92-28.98-1.96-42.97.78-13.37 2.62-27.03 4.21-40.33 7.67-11.07 2.88-22.45 3.89-32.61 8.89-5.46 2.69-12.98 5.39-17.77 8.78-4.25 3-4.34 8.32-7.92 12.1m396.94 714.3c-8.84.87-18.32-2.91-27.2-4.16-7.48-1.05-14.59-2.86-21.88-5.01-3.64-1.07-7.21-1.75-10.93-2.61-4.83-1.1-9.03-4.19-13.65-5.89-7.1-2.61-13.62-6.45-20.67-9.4-8.06-3.37-16.61-7.73-23.13-13.56-4.53-4.05-9.23-5.15-13.93-8.65-5.11-3.8-15.22-8.29-18.22-14.34 1.74-3.35 6.26-5.77 8.74-8.74 1.67-2.01 4.29-6.76 7.13-6.64 2.31 4.43 11.27 8.37 15.57 10.75 6.93 3.83 14.76 7.06 22.3 9.48 3.29 1.05 6.6 1.04 9.87 1.96 4.42 1.24 8.54 3.21 13.01 4.47 8.27 2.33 16.49 5.3 24.77 7.7 4.18 1.21 8.58 1.7 12.72 2.95 3.99 1.2 7.06 3.58 11.18 4.25 1.1.18 2.17-.36 3.39-.06 1.83.45 3.37 2.17 5.28 2.57 2.96.62 5.92-.39 8.95.01 2.9.39 4.86.92 6.53 2.94 2.42 2.92 1.9 8.42 2.21 11.94.38 4.42-.21 15.28-3.49 18.15a2.75 2.75 0 0 0-2.39-1.41m-196.62-93.03c-10.87-4.36-21.49-10.06-31.61-15.86-6.85-3.93-14.27-7.08-21.44-10.43-8.74-4.07-16.69-9.48-25.2-13.99-11.56-6.12-23.28-12.52-34-19.96-4.19-2.9-8.24-6.67-12.19-9.96-3.3-2.75-8.32-8.87-10.48-12.6 1.03-3.13 7-3.47 9.58-4.65 3.23-1.48 5.48-3.75 8.42-5.67 6.45-4.21 9.44-.69 14.92 2.91 3.47 2.29 6.46 5.12 9.62 7.85 3.66 3.17 7.59 4.95 11.31 7.93 6.49 5.21 13.41 10.08 20.97 13.69 15.17 7.23 29.92 14.36 42.94 24.88 6.51 5.26 13.17 12.22 20.7 16.04 4.84 2.46 11.59 5.33 14.87 9.9-2.08 4-10.64 8.71-14.84 9.62M747.75 479.74c-4.94-4.1-8.58-9.22-13.29-13.54-3.26-2.99-4.84-6.57-7.68-9.99-2.1-2.54-4.92-4.28-7.12-6.79-3.08-3.5-5.19-7.53-8.13-11.15-6.45-7.94-13.68-15.39-20.41-23.1-5.27-6.03-9.37-12.86-14.47-19.07-3.29-4.01-5.63-8.46-8.08-12.99-2.5-4.62-4.68-9.79-7.6-14.06-1.06-1.56-2.05-2.52-2.87-4.19-.68-1.4.36-2.37-1.3-3.53 6.08.06 10.9-5.57 15.75-8.4 6-3.51 7.27 1.57 10.21 6.37 5.22 8.5 10.14 17.17 16.26 25.06 2.73 3.52 5.28 7.18 7.73 10.9 3.18 4.83 7.09 8.91 10.6 13.59 4.79 6.39 9.72 11.97 15.13 17.85 5.28 5.73 8.76 12.07 14.67 17.17 5.81 5.01 10.35 11.31 15.28 17.32 2.58 3.14 5.18 5.97 7.49 9.27 1.58 2.26 5.18 5.43 5.47 8.17-2.53 2.69-6.79 3.21-10.15 4.26-2.88.9-6.86 2.35-9.98 1.82-6.04-1.03-7.38-10.86-13.41-11.67M627.31 290.25c.31-3.15-2.7-10.2-3.83-12.92-3.79-9.1-8.69-17.63-11.91-27.09-5.13-15.1-8.85-30.76-13.37-45.99-1.64-5.51-2.02-11.14-3.75-16.66-1.39-4.44-1.39-9.38-2.55-13.93-1.13-4.41-3.12-8.3-4.69-12.55-2.14-5.8-3.35-11.62-4.95-17.58-.64-2.39-.2-5.18-.88-7.44-.54-1.79-1.73-2.96-2.18-4.76 3.15-2.2 8.56-3.62 12.19-4.48 4.51-1.06 6.18-.27 8.84 4.24 2.26 3.83 2.62 8.24 4.4 12.23 1.83 4.08 3.12 8.17 4.55 12.4 3.76 11.06 7.01 21.82 9.79 33.06l8.21 33.71c1.6 6.25 2.5 12.73 4.33 18.92 1.26 4.26 3.34 8.13 4.6 12.41l3.94 14.05c1.47 5 4.3 9.57 6.14 14.49 1.12 3 3.8 7.5 3 10.8-.76 3.15-4.53 4.44-7.79 5.04-7.44 1.36-16.84-2.58-16.16-11.36M585.46-49.24l-.06-1.26c.68 3.74-1.09 7.49-1.05 11.26.04 3.93.71 8 1.06 11.91.44 4.91-.84 9.15-.84 13.94 0 4.66.83 9.49 1.19 14.15.84 10.89.48 22.9 3.01 33.54 1.74 7.34 2.5 14.17 3.08 21.67l.14 1.78c-7.71.46-15.36-.78-23.03-1.81-3.45-.46-3.42.31-5.61-2.56-1.43-1.89-2.29-4.68-2.79-6.98-1.28-5.9-1.04-13-1.41-19.03-.33-5.34 1.11-9.94.63-15.33-.45-5.14-1.27-8.72-2.71-13.6-1.15-3.89-.85-8.97-1.17-13.06l-.98-12.53m183.51 858.96c9.95 16.66 23.3 32.11 28.89 51.09 2.33 7.92 4.3 15.84 7.53 23.48 3.79 8.96 10.43 15.71 12.51 25.36.59 2.72 2.06 5.18 2.69 7.79 1.2 4.94 1.73 9.21 3.78 14.03 1.3 3.07 2.37 5.77 3.09 9.11 7.1 32.76 18.29 64.95 33.16 94.8 5.39 10.83 15 21.26 22.29 30.86 4.58 6.04 8.6 10.18 8.61 17.98 0 3.75.64 8.44-.38 12.06-1.03 3.68-2.46 7.22-3.39 11.02-1.82 7.44-5 12.47-4.86 20.29.08 4.5 0 9.02 0 13.52 0 6.03 1.07 13.03.08 18.93-1.28 7.67-9.6 5.13-15.57 5.13h-17.21c-5.65 0-13.62-1.54-19.02-.08-3.88 1.04-9.24 5.79-11.53 9.08-4.28 6.17-4.57 14.15-3.96 21.44.5 5.99 2.48 11.62 1.89 17.79-.42 4.4-.98 9.46-1.71 13.76-1.13 6.7-4.24 14.01-12.23 12.11-4.4-1.05-9.54-3.96-12.95-6.93-4.81-4.18-11.07-6.99-16.22-10.75-6.21-4.54-11.85-9.79-18.2-14.18-12.13-8.39-27.76-16.57-36.42-28.77-2.58-3.63-4.23-7.79-6.55-11.58-1.62-2.64-3.49-5.07-5.48-7.44l-35.19-40.81c-3.33-4-7.01-7.31-10.65-10.92-3.39-3.36-5.12-8.11-7.75-12.05-7.93-11.89-17.42-22.22-24.8-34.52-4.76-7.93-10.88-14.06-16.7-21.11-6.16-7.47-11.11-14.6-16.11-22.86-5.18-8.58-11.77-16.43-17-25.07-5.63-9.29-9.93-19.58-15.74-28.65-4.81-7.51-9.18-15.24-13.94-22.87-2.17-3.48-2.73-6.72-5.06-10.18-5.78-8.57-12.13-16.88-17.49-25.74-9.67-16-18.04-34.08-29.72-49.04-10.04-12.87-17.01-28.33-25.12-42.5-5.85-10.22-13.33-20.24-18.26-30.85-3.55-7.65-8.23-13.75-12.67-20.88-6.5-10.46-12.12-20.75-17.82-31.71-2.41-4.63-5.69-8.49-8.21-12.98-2.6-4.64-4.05-9.96-6.64-14.66-4.89-8.85-11.33-16.57-15.77-25.75-6.59-13.62-13.62-26.89-20.84-40.14-3.94-7.23-7.83-14.73-11.14-22.25-4.57-10.37-10.05-19.46-15.44-29.35-6.62-12.16-12.51-25.55-16.75-38.7-3.97-12.33-8.46-23.38-11.17-36.13-1.36-6.43-2-12.77-3-19.18-.58-3.7-1.41-7.65-2.08-11.37-.73-4.03-.85-8.9-1.94-12.78-.67-2.39-2.54-4.18-3.27-6.47-1.15-3.63-.43-8.06-.41-11.82.02-2.58.66-6.18.11-8.7-.7-3.22-2.05-5.03-2.2-8.46-.25-6.03-1.77-11.41-2.03-17.32-.15-3.38.6-7 .15-10.34-.5-3.75-1.98-6.91-2.19-10.69-.11-1.99.2-4.03.09-6.02-.2-3.68-1.71-6.72-2.19-10.34-.59-4.39-.81-11.97.3-16.09 10.34.01 14.83 13.78 21.09 20.27 2.23 2.31 5.24 3.58 7.36 6.06 1.61 1.88 2.35 4.21 4.12 6 5.34 5.38 13.79 8.17 19.99 12.55 6.18 4.37 13.4 6.38 19.49 11.08 5.92 4.57 12.49 8.67 18.01 13.71 2.65 2.41 8.83 11.64 12.64 11.83 5.86.29 6.29-8.03 7.63-12.39 3.39-11.02.57-20.56-4.01-30.95-4.14-9.39-8.47-18.77-12.28-28.48-4.05-10.31-4.75-20.58-6.81-31.17-1.64-8.43-6.08-18.46-3.68-27.3 7.65-.5 14.92 7.67 19.78 12.53 7.79 7.79 14.86 17.86 19.23 27.89 4.36 10.02 7.24 20.41 11.29 30.51 3.98 9.93 6.99 21.16 12.64 30.36 13.43 21.87 32.57 41.27 50.73 59.23 8.26 8.17 13.72 16.97 20.51 26.21 6.71 9.13 15.57 16.41 22.41 25.31 3.75 4.88 7.6 9.67 11.64 14.33 5.06 5.84 11.72 9.83 16.8 15.42 3.69 4.06 5.46 9.01 9.7 12.91 6.69 6.16 12.71 12.87 19.27 19.15 9.78 9.36 19.31 19.81 28.59 29.8 8.08 8.71 16.57 16.91 25.09 25.25 4.29 4.19 9.73 6.43 13.96 10.63 1.1 1.09 3.54 4.99 5.43 6.34 1.62 1.16 4.42 1.5 6.14 2.68 9.24 6.32 15.73 15.3 23.39 23.12 6.76 6.89 14.94 13.86 19.38 22.18 1.97 3.68 4.88 5.74 7.75 8.76 4.18 4.4 4.97 10.54 7.53 15.91 6.58 13.85 9.97 28.81 15.26 42.96 2.07 5.54 3.5 13.38 7.05 17.97 2.04 2.63 4.93 4.39 6.77 7.2 2.27 3.47 3.72 7.94 5.9 11.59z"/><g fill="#fff" class="G H I J"><path d="M247.4 355.1c-.15 7.3 5.16 15.42 7.85 22.52 1.3 3.43 2.94 6.76 4.68 10.01s3.44 6.74 5.59 9.58c.8 1.06 1.93 2.38 3.1 3.03 2.5 1.4 4.71 1.02 4.71-2.21 0-.84-2.53-4.79-2.63-4.55-.84 2.02.42 6.68 3.24 6.4 2.68-.27 2.7-5.06.83-6.44-.39 2.27 1.82 4.19 2.62 6.17-.12-1.73-.8-4.68.2-6.19.95 1.38 1.13 2.86 1.09 4.5-.38-7.7-1.39-15.12-6.82-21.1m78.77-43.45c-.07 3.36 1.24 5.39 1.34 8.83.08 2.61 1.35 8.64 4.12 9.77 2.74-1.18.61-5.16 1.6-7.28.48.61.97 1.21 1.46 1.8.66-.9 1.07-1.92 1.24-3.06.67.64 1.41.75 2.22.33 1.01-3.63-.08-7.06-.83-10.42-.36-1.61-2.11-5.29-1.66-6.76"/></g><path d="M213.61 167.15c-7.79 6.63-15.77 13.15-22.62 20.8-2.86 3.2-4.82 7.03-7.87 10.06-2.53 2.52-3.56 4.09-5.03 7.4-1.67 3.74-4.91 6.27-6.49 10.05-1.04 2.48-1.13 5.36-1.93 7.92s-2.1 4.82-2.79 7.42c-1.63 6.12-4.72 10.92-7.8 16.45-4.43 7.96-11.27 14.66-13.95 23.55-2.05 6.79 0 12.82-.38 19.49-.1 1.85-.56 3.62-.61 5.5-.14 5.48.18 11.17 2.01 16.38 2.57 7.31 7.01 11.83 12.96 16.47 5.33 4.15 12.16 5.28 18.28 7.27 3.2 1.04 7 2.31 10.24 2.95 3.3.65 7.49-.07 10.88-.07 2.81 0 6.06.43 8.8-.12 3.77-.75 7.35-1.99 11.19-2.53 3.86-.54 7.63-3.05 11.27-4.52 3.08-1.24 6.24-2.22 9.48-3.04 8.44-2.14 17.4-2.79 26.06-3.31 4.31-.25 8.93-.89 13.22-1.36 2.27-.25 4.34-1.34 6.64-1.5 2.44-.17 4.52.02 6.97-.55 11.82-2.76 22.88-3.74 33.49-10.31 8.69-5.38 17.39-10.18 25.16-16.92 3.86-3.35 8.18-6.14 11.8-9.81 3.77-3.82 6.66-8.33 10.58-12.08 6.63-6.33 12.81-12.69 16.88-20.99 2.88-5.88 5.78-12.05 8.29-18.19 2.18-5.34 5.14-11.21 5.26-16.98.07-3.46-.03-6.3-1.33-9.5-.77-1.9-1.83-3.33-2.82-5.17-.91-1.68-1.17-3.41-2.04-5-4.46-8.11-10.71-14.87-17.85-20.73-5.35-4.39-12.25-7.95-18.25-11.39l-16.69-9.36c-1.89-1.06-3.22-2.62-5.09-3.74-2.33-1.41-4.9-2.34-7.2-3.88-4.83-3.25-9.38-5.06-14.86-6.75-5-1.55-9.21-3.48-14.55-3.43-5.35.05-10.36-.08-15.67-.93-7.48-1.19-15.15-2.9-22.76-2.61-14.34.54-27.41 12.54-36.91 22.14-4.26 4.3-9.39 7.04-13.95 10.92z"/><path d="M197.14 326.58c.35 1.69 2.89 4.05 4.01 5.4 2.04 2.47 4.67 4.89 6.82 7.13l16.34 17.32c2.63 2.76 5.5 5.88 7.85 8.78 1.33 1.65 1.59 3.32 3.29 4.87 1.56 1.42 3.74 2.78 5.49 4.07 3.73 2.73 5.35 2.22 9.48 2.99 4.01.75 7.67 1.71 11.88.94 7.36-1.34 13.64-1.06 19.85-5.88 4.45-3.46 7.04-8.05 9.56-12.91 1.07-2.06 2.57-3.15 3.96-4.93 1.54-1.98 1.81-4.43 2.83-6.64 1.55-3.37 2.75-6.08 3.86-9.72s3.36-6.19 5.32-9.37c1.99-3.22 3.85-6.41 6.28-9.37 1.1-1.34 2.49-2.48 3.32-4.06s.64-3.17 1.78-4.46l.34.89"/><path d="m318.03,313c5.22,5.11,10.3,8.64,16.3,12.5,4.47,2.87,6.17,6.58,12.22,6.58,4.11,0,9.68-2.3,12.37-5.5,6-7.14,3.77-17.08,3.94-25.88.15-7.79,2.73-15.16,2.71-23.02"/><g fill="#fff" class="G H I J"><path d="m317.35,268.17c-3.8-.99-8.85,3.81-12.38,5.11-5.9,2.17-14.37,1.28-20.72,1.05-19.24-.7-34.44-13.06-49.24-24.3-6.45-4.9-13.56-11.17-18.58-17.67-4.85-6.28-7.39-17.53-8.92-25.26-1.19-6.02-1.24-16.43-.28-22.53,1.45-9.3,5.5-16.68,10.41-24.45,2.33-3.7,3.31-8.08,5.85-11.71,2.8-4.03,6.94-7.2,10.39-10.68,6.85-6.91,14.64-11.26,22.83-16.21,7.05-4.26,16.07-9.57,24.5-10.35,4.23-.39,7.54-.6,11.66-1.48,4.28-.91,9.93-1.2,14.31-.55,3.68.54,7.38,2.67,10.71,4.17,3.8,1.73,8.07,2.64,11.76,4.53,7.86,4.03,14.38,8.92,20.32,15.75,5.15,5.92,9.56,13.32,12.78,20.48,3.19,7.1,1.49,16.72,1.49,24.48,0,8.91-.72,17.27-2.44,25.94-.83,4.19-3.22,7.84-4.75,11.74-1.28,3.28-1.38,7.69-2.85,10.73-1.97,4.06-5.83,6.9-8.24,11.09-2.49,4.33-4.84,6.71-8.16,10.09s-4.98,8.31-7.99,11.88c-1.87,2.21-9.41,8.22-12.44,8.15"/><path d="M227 240.61c-3.2-1.14-5.78-4.08-8.92-5.59-5.46-2.62-9.18-6.11-12.77-10.98-3.61-4.89-5.48-10.12-6.28-16.01s3.93-6.85 8.87-5.8c4.41.95 7.4 6.76 9.82 10.23 1.83 2.62 3.11 5.49 4.67 8.26 1.08 1.92 2.82 3.7 3.26 5.84.71 3.47 3.62 10.72-1.46 11.6s-7.33-3.44-9.95-6.5m147.25-46.35c-2.01-1.54-1.16-3.33-1.32-5.4-.15-1.87-.75-3.37-1.09-5.16-.86-4.53-1.34-9.36-1.66-13.99-.28-4.16-1.89-7.82-1.42-12.12.47-4.32 5.36-11.35 10.08-6.22 2.26 2.46 2.05 7.09 2.15 10.23.1 2.75 1.22 5.18 1.48 7.91.22 2.32-.07 4.81-.07 7.14 0 4.24.4 8.2-1.3 12.18-.72 1.7-7.53 9.42-8.21 4.06"/></g><g fill="none" class="G H I"><path d="m315.31,253.91c0,2.69-.96,7.53.27,9.92,2.06,4.02,4.57,2.91,5.39-.95,1.52-.2,2.97.95,3.87,2.04,1.88-1.4,1.38-3.74,1.3-5.8-.21,1.28.43,2.42,1.46,3.15-.12-2.1.1-4.22-.04-6.31-.18-2.69-1.34-4.72-1.4-7.47-.1-4.13,1.52-18.28-7.29-12.55-5.24,3.41-3.56,12.77-3.56,17.98Z"/><g class="J"><path d="M266.41 246.44c4.74-.07 8.54-1.44 13.28-2.41 2.49-.51 4.73-.03 7.09-1.1 2.04-.92 4.81-3.46 6.75-1.24 2.67 3.05-1.8 5.49-3.67 6.47-2.86 1.49-5.39 2.73-8.54 3.41-5.24 1.12-11.02.29-16.07-1.31l-.2-1.09m69.28-23.11c-.97-4.39 3.66-5.54 6.49-7.12 2.31-1.29 7.66-5.06 7.09.99-.23 2.5-3.43 4.73-5.41 5.46-1.36.5-5.4 2.43-6.81 2.02"/></g></g><g clip-path="url(#B)"><path d="m320.44,178.52c4.09.03,8.03-1.35,12.12-1.39,4.31-.05,8.03.51,12.19-1.02,5.02-1.84,9.37-4.3,11.09-9.6,1.71-5.28,2.46-10.68,4.38-15.94,2.73-7.47.45-13.45-5.86-18.2-4.69-3.53-7.61-8.91-10.2-13.92-3.37-6.5-8.56-12.1-11.99-18.71-4.66-8.98-16.6-16.33-25.64-19.76-15.66-5.93-30.49-2.44-46.15,1.06-10.21,2.28-18.99,8.98-26.56,16.03-7.42,6.91-16.48,14.04-21.58,22.87-8.21,14.23-14.95,30.01-17.89,46.28-1.31,7.25-2.72,14.85-2.72,22.22,0,4.74.86,11.39,3.05,15.71,2.83,5.59,9.13,9.55,13.45,13.87,4.88,4.88,11.15,7.93,17.22,11.15,2.34,1.24,5.08,2.64,7.66,3.71,2,.83.88,1.99,3.51.87,1.57-.67,2.26-3.65,2.75-4.96,1.41-3.77,1.01-7.45,2.32-11.16,2.99-8.49,7.39-15.41,14.02-21.53,4.83-4.46,11.72-5.45,17.89-7.03,3.99-1.02,7.97-1.63,11.92-2.46,2.31-.48,4.13-2.25,6.41-3.04,1.97-.68,3.9-.72,5.88-1.29,7.38-2.1,14.97-3.79,22.71-3.74Z"/></g><path d="M441.13 163.89c.89 4.18 8.69 5.62 12.06 7.31 9.48 4.76 20.08 8.25 30.39 11.02 9.49 2.55 18.97 4.55 28.31 7.54l36.63 11.95c5.56 1.78 11.33 2.87 16.6 5.38 5.65 2.69 9.62 4.32 15.63 6.02 11.12 3.15 22.15 6.66 32.85 11.03 19.1 7.8 37.49 15.43 57.48 20.13 8.95 2.11 17.79 4.43 26.81 5.63 8.77 1.17 16.75 4.29 25.38 5.42 5.42.71 12.17.76 17.38 2.32 3.18.96 5.87 2.06 9.14 2.82 9.73 2.27 19.52 4.93 29.53 4.93 4.17 0 7.69 1.48 11.75 1.86 2.7.25 5.35-.4 8.04.06 8.19 1.39 15.72 1.55 24.18 1.57 8.13.02 16.24-.7 24.11-2.92 8.45-2.39 18.36-5.22 25.76-9.97 14.63-9.39 31.02-15.93 44.08-27.75 3.78-3.42 8.49-6.27 11.81-10.13 2.75-3.2 3.75-6.6 5.44-10.33 2.77-6.13 3.83-13.66.67-19.84-3.52-6.88-8.47-12.32-14.19-17.67-2.62-2.45-5.09-2.66-8.18-3.9-4.41-1.77-7.62-5.57-12.14-7.3-14.69-5.63-29.51-10.66-45.31-10.67h-25.68c-4.28 0-8.56-.12-12.84-.04-5.52.1-10.75 1.52-16.21 1.81-8.91.47-17.64 1-26.48 1.8-12.32 1.11-24.12 5.62-36.47 6.75-19.96 1.83-39.27 6.88-59.44 6.89-7.93 0-15.86-.04-23.79.04-11.1.12-20.96-3.53-31.94-3.48-9.41.04-18.83-.1-28.24 0-4.09.04-7.61-.72-11.58-1.33-5.43-.84-10.6-.53-15.99-1.69-1.41-.3-3.44-.27-4.69-.75-1.79-.69-2.88-2.42-4.65-3.03-2.91-.99-6.44.26-9.51-.47-7.03-1.66-14.11-1.34-21.56-1.34h-21.68c-8.74 0-16.5 1.75-25.14 1.72-8.22-.03-15.61.87-23.56 1.67-2.84.29-4.99 1.63-7.9 1.81-2.68.17-5.78-.67-8.31.25l-.29 1.43" fill="#fff" class="G H I J"/><path d="M732.75 180.54h10.33c2.33 0 4.11.53 5.34 1.59s1.84 2.44 1.84 4.15-.57 3.01-1.7 3.91c-1.56 1.24-3.47 1.85-5.76 1.85h-3.73v7.15c0 .42.1.71.3.89.26.23.62.34 1.06.34h2.38v1.06h-10.07v-1.06h2.1c.42 0 .72-.08.92-.25s.29-.39.29-.67v-16.7c0-.42-.12-.73-.37-.92s-.71-.28-1.39-.28h-1.55v-1.06zm6.33 10.46h2.84c1.8 0 3.1-.38 3.89-1.13.8-.75 1.19-1.99 1.19-3.72 0-1.21-.18-2.14-.54-2.78a3.26 3.26 0 0 0-1.58-1.44c-.7-.31-1.83-.47-3.41-.47-1.05 0-1.71.1-1.99.3s-.42.54-.42 1.03v8.2z"/><use xlink:href="#C"/><use xlink:href="#D"/><path d="M781.45 196.48c.58 1.63 1.26 2.76 2.02 3.39s1.7.94 2.81.94c1.03 0 1.82-.22 2.37-.67s.83-1.02.83-1.71a1.75 1.75 0 0 0-.31-1.04c-.2-.3-.48-.52-.84-.67s-1.29-.36-2.79-.64c-1.44-.28-2.44-.58-3.01-.89a3.37 3.37 0 0 1-1.33-1.29 3.47 3.47 0 0 1-.48-1.78c0-.97.33-1.86.98-2.65.84-1.01 2.02-1.52 3.53-1.52 1.15 0 2.22.36 3.21 1.09l.94-.99h.58l.37 4.73h-.95c-.42-1.34-.98-2.31-1.69-2.9s-1.58-.88-2.62-.88c-.9 0-1.6.22-2.11.66s-.77.97-.77 1.61c0 .56.24 1.02.71 1.39.46.38 1.37.67 2.72.89 1.57.26 2.59.49 3.06.67.77.28 1.38.72 1.8 1.31.43.59.64 1.31.64 2.16 0 1.17-.46 2.16-1.38 2.97s-2.09 1.22-3.51 1.22c-1.31 0-2.53-.43-3.66-1.3l-1.04 1.19h-.75l-.28-5.28h.95z"/><use xlink:href="#E"/><use xlink:href="#F"/><path d="M819.35 188.21l3.79-.24c.21.99.34 1.93.41 2.82.72-1.03 1.44-1.76 2.16-2.18a4.62 4.62 0 0 1 2.37-.63c.92 0 1.67.24 2.27.72s1.05 1.26 1.38 2.34c.63-1.03 1.33-1.79 2.11-2.3a4.5 4.5 0 0 1 2.53-.76c1.21 0 2.11.36 2.71 1.08.77.94 1.16 2.16 1.16 3.65v6.58c0 .4.1.67.3.81.26.22.66.33 1.18.33h.67v1.06h-6.67v-1.06h.67c.57 0 .96-.09 1.19-.28s.34-.47.34-.85v-6.59c0-.98-.24-1.74-.72-2.28s-1.11-.81-1.89-.81c-.59 0-1.13.16-1.61.48s-.86.77-1.13 1.35c-.41.84-.61 1.56-.61 2.14v5.71c0 .39.1.67.31.86.21.18.53.28.96.28h.91v1.06h-6.77v-1.06h.76c.48 0 .84-.09 1.08-.28a.87.87 0 0 0 .35-.72v-6.12c0-1.29-.23-2.23-.69-2.82s-1.07-.88-1.85-.88c-1 0-1.77.34-2.31 1.02-.77.96-1.15 2.09-1.15 3.37v5.29c0 .41.09.68.27.84.26.2.65.3 1.19.3h.68v1.06h-6.68v-1.06h1.01c.38 0 .67-.09.87-.28a.95.95 0 0 0 .3-.72v-8.69c0-.48-.12-.84-.37-1.08s-.74-.39-1.47-.45v-.98zm31.23-.39c1.79 0 3.28.64 4.5 1.93 1.21 1.29 1.82 2.99 1.82 5.09 0 1.45-.27 2.69-.81 3.72s-1.32 1.83-2.32 2.43c-1.01.6-2.09.89-3.25.89-1.72 0-3.17-.65-4.37-1.95s-1.79-2.99-1.79-5.07.6-3.78 1.8-5.08 2.68-1.95 4.43-1.95zm0 1c-1.06 0-1.93.48-2.61 1.44s-1.02 2.47-1.02 4.54.34 3.64 1.01 4.62 1.55 1.46 2.61 1.46 2-.49 2.68-1.46 1.03-2.56 1.03-4.77c0-2.05-.34-3.53-1.01-4.45a3.16 3.16 0 0 0-2.7-1.37z"/><use xlink:href="#G"/><path d="M745.2 223.01l5.28-.16v11.41c0 .31.08.53.23.67.22.19.49.28.82.28h1.5v1.06h-7.55v-1.06h1.4c.42 0 .72-.1.91-.3s.29-.5.29-.89v-8.35c0-.53-.15-.93-.45-1.2s-.75-.4-1.34-.4h-1.09v-1.06zm3.68-7.92c.43 0 .8.16 1.12.48a1.55 1.55 0 0 1 .48 1.13c0 .43-.16.79-.47 1.1s-.68.47-1.12.47-.81-.16-1.13-.47-.47-.69-.47-1.11.16-.8.48-1.12.69-.48 1.1-.48zm9.91 7.68c.21.99.33 1.94.37 2.86.65-1.04 1.33-1.77 2.05-2.21.72-.43 1.5-.65 2.35-.65.91 0 1.77.28 2.59.83.82.56 1.49 1.37 2.01 2.45s.77 2.29.77 3.64c0 2.16-.63 3.92-1.89 5.28-1.04 1.13-2.3 1.7-3.76 1.7-.83 0-1.58-.21-2.25-.64s-1.26-1.06-1.78-1.9v5.37c0 .42.1.71.3.88.25.23.61.34 1.06.34h.98v1h-7.09v-1h.98c.45 0 .79-.09 1.02-.27s.34-.42.34-.71v-13.96c0-.65-.16-1.11-.47-1.38s-.93-.42-1.87-.45V223l4.29-.24zm4.11 1.29c-1.03 0-1.9.5-2.61 1.49s-1.07 2.43-1.07 4.3.34 3.3 1.03 4.21 1.56 1.36 2.63 1.36c1 0 1.77-.39 2.3-1.16.69-1.02 1.03-2.51 1.03-4.47s-.31-3.53-.93-4.4c-.62-.88-1.42-1.32-2.39-1.32zm8.13-1.05l4.77-.24v5.37c.51-1.76 1.12-3.1 1.84-4.01s1.6-1.36 2.66-1.36c.72 0 1.29.22 1.72.66s.64 1.03.64 1.76c0 .6-.14 1.06-.43 1.39s-.65.5-1.08.5-.77-.14-1.03-.42-.39-.67-.39-1.15c0-.31.08-.6.23-.88.14-.25.21-.39.21-.44 0-.14-.09-.21-.27-.21-.39 0-.83.23-1.32.68-.68.63-1.2 1.5-1.57 2.61-.57 1.72-.85 3.09-.85 4.12v2.85c0 .32.11.57.34.74s.61.25 1.16.25h1.69v1.06h-8.24v-1.06h1.32c.44 0 .78-.09 1-.26s.34-.38.34-.63v-8.45c0-.64-.14-1.11-.41-1.41s-.67-.45-1.17-.45h-1.16v-1zm19.34-.39c1.79 0 3.28.64 4.5 1.93 1.21 1.29 1.82 2.99 1.82 5.09 0 1.45-.27 2.69-.81 3.72s-1.32 1.83-2.32 2.43c-1.01.6-2.09.89-3.25.89-1.72 0-3.17-.65-4.37-1.95s-1.79-2.99-1.79-5.07.6-3.78 1.8-5.08 2.68-1.95 4.43-1.95zm0 1c-1.06 0-1.93.48-2.61 1.44s-1.02 2.47-1.02 4.54.34 3.64 1.01 4.62 1.55 1.46 2.61 1.46 2-.49 2.68-1.46 1.03-2.56 1.03-4.77c0-2.05-.34-3.53-1.01-4.45a3.16 3.16 0 0 0-2.7-1.37zm7.66-.61h6.53v.96c-.87.02-1.42.1-1.66.23-.24.14-.36.33-.36.59 0 .21.05.42.14.62l3.52 7.83 3.2-7.59c.05-.13.07-.26.07-.4 0-.69-.68-1.12-2.03-1.29V223h5.49v.96c-.56.06-1 .21-1.33.45-.33.25-.58.58-.76.99l-4.86 11.26h-.76L800 225.09c-.19-.42-.42-.71-.69-.87-.27-.17-.69-.25-1.27-.26V223zm30.17 11.81l.51.79c-.69.71-1.45 1.06-2.29 1.06-.64 0-1.18-.17-1.62-.52s-.82-.96-1.15-1.84c-.9.94-1.69 1.57-2.37 1.89s-1.5.47-2.45.47c-1.36 0-2.39-.29-3.1-.88a2.79 2.79 0 0 1-1.06-2.25c0-1.38.81-2.52 2.43-3.43s3.77-1.52 6.46-1.82v-2.01c0-.72-.29-1.33-.86-1.84s-1.31-.76-2.2-.76c-.82 0-1.53.17-2.12.51-.43.25-.64.5-.64.75 0 .14.11.36.34.67.27.38.41.71.41 1a1.4 1.4 0 0 1-.41 1.04c-.27.27-.63.4-1.08.4-.47 0-.87-.16-1.18-.48-.32-.32-.47-.73-.47-1.23 0-.93.53-1.79 1.58-2.56s2.43-1.16 4.14-1.16c1.58 0 2.78.34 3.61 1.02.83.69 1.25 1.52 1.25 2.51v7.25c0 .64.1 1.11.31 1.42s.48.47.81.47c.37 0 .75-.15 1.16-.45zm-4.64-5.59c-2.4.33-4.1.87-5.1 1.61-.75.57-1.12 1.37-1.12 2.41 0 .73.19 1.3.58 1.71s.89.62 1.51.62c1.11 0 2.08-.42 2.9-1.27s1.22-1.9 1.22-3.18v-1.9zm6.54-6.22l4.77-.24v5.37c.51-1.76 1.12-3.1 1.84-4.01s1.6-1.36 2.66-1.36c.72 0 1.29.22 1.72.66s.64 1.03.64 1.76c0 .6-.14 1.06-.43 1.39s-.65.5-1.08.5-.77-.14-1.03-.42-.39-.67-.39-1.15c0-.31.08-.6.23-.88.14-.25.21-.39.21-.44 0-.14-.09-.21-.27-.21-.39 0-.83.23-1.32.68-.68.63-1.2 1.5-1.57 2.61-.57 1.72-.85 3.09-.85 4.12v2.85c0 .32.11.57.34.74s.61.25 1.16.25h1.69v1.06h-8.24v-1.06h1.32c.44 0 .78-.09 1-.26s.34-.38.34-.63v-8.45c0-.64-.14-1.11-.41-1.41s-.67-.45-1.17-.45h-1.16v-1zm23.22 9.33l.92.27c-.74 2.71-2.36 4.06-4.87 4.06-1.84 0-3.35-.61-4.52-1.83s-1.76-2.84-1.76-4.86c0-2.34.64-4.16 1.93-5.44 1.28-1.29 2.79-1.93 4.53-1.93 1.3 0 2.38.36 3.23 1.08s1.28 1.51 1.28 2.39c0 .53-.16.96-.47 1.31s-.69.52-1.13.52a1.47 1.47 0 0 1-1.08-.44 1.44 1.44 0 0 1-.44-1.06c0-.42.16-.81.48-1.18.15-.18.23-.32.23-.42 0-.27-.18-.54-.55-.8s-.87-.39-1.5-.39c-1.15 0-2.03.42-2.62 1.26-.85 1.22-1.28 2.82-1.28 4.81s.38 3.33 1.13 4.31c.76.98 1.72 1.46 2.89 1.46 1.62 0 2.81-1.04 3.6-3.12zm2.48-9.33l5.28-.16v11.41c0 .31.08.53.23.67.22.19.49.28.82.28h1.5v1.06h-7.55v-1.06h1.4c.42 0 .72-.1.91-.3s.29-.5.29-.89v-8.35c0-.53-.15-.93-.45-1.2s-.75-.4-1.34-.4h-1.09v-1.06zm3.68-7.92c.43 0 .8.16 1.12.48a1.55 1.55 0 0 1 .48 1.13c0 .43-.16.79-.47 1.1s-.68.47-1.12.47-.81-.16-1.13-.47-.47-.69-.47-1.11.16-.8.48-1.12.69-.48 1.1-.48zm7.14 26.12l-.51-.68c1.82-1.39 2.73-2.61 2.73-3.65 0-.15-.03-.26-.08-.33s-.13-.11-.23-.11l-.31.06c-.18.03-.33.04-.44.04-.42 0-.79-.17-1.11-.5a1.65 1.65 0 0 1-.47-1.2c0-.47.16-.85.48-1.17s.73-.48 1.23-.48c.62 0 1.14.24 1.56.73s.62 1.15.62 1.99c0 1.84-1.16 3.61-3.47 5.31z"/><path d="m317.79,1016.03c3.27,15.71-4.02,31.88-1.53,48.15,3.35,21.85,3.05,43.83,3.12,65.99.03,9.98.6,20.28,1.68,30.19.62,5.68.14,11.33.9,16.96.35,2.6.87,4.92.88,7.58.02,5.06,1.01,8.56,2.08,13.35,2.04,9.17,2.46,19.13,5.77,28.3,1.69,4.69,4.75,9.03,6.7,13.68,2.77,6.64,6.59,11.77,11.71,16.65,7.47,7.11,17.49,10.58,26.44,14.9,9.66,4.67,20.42,4.67,30.82,5.17,10.48.5,22.17,1.19,31.58-4.33,9.28-5.45,16.23-13.22,18.95-23.66,1.15-4.42,3.55-9.67,3.44-14.27-.09-3.57-1.24-7.37-1.82-10.84-.4-2.38-.86-4.72-1.42-7.07-.45-1.88-1.05-5.51-1.76-7.24-1.02-2.5-3.43-3.96-4.87-6.19-2.22-3.44-2.91-7.56-4.91-11.12-2.36-4.2-6.37-5.6-9.31-9.36-1.52-1.94-2.38-4.22-3.97-6.11-2.21-2.61-5.21-4.51-7.58-6.98s-4.04-5.44-6.22-8.08c-1.97-2.39-3.72-2.98-6.14-4.71-5.07-3.64-8.97-9.37-13.1-14.05-4.46-5.05-9.09-9.94-13.59-14.84-4.27-4.66-7.64-10.07-11.41-15.19-3.97-5.38-8.75-9.62-12.34-15.47-1.74-2.84-3.39-3.98-5.41-6.28-2.78-3.19-4.57-7.41-6.69-11.06-3.42-5.88-8.43-12.21-10.62-18.66-.57-1.68-.37-3.66-.91-5.35-1.1-3.44-3.56-7.35-5.23-10.58-2.51-4.84-5.12-9.24-7.54-14.04-1.74-3.46-3.29-11.55-6.51-13.47" fill="none" class="G H I J"/><path d="M347.61 1224.6c.67 1.55 1.4 2.6 2.18 3.16s1.71.8 2.79.73c1-.07 1.75-.34 2.26-.81s.74-1.04.69-1.71c-.03-.38-.15-.71-.36-.99-.22-.28-.5-.47-.86-.59s-1.28-.27-2.75-.44c-1.41-.18-2.41-.41-2.98-.67a3.25 3.25 0 0 1-1.37-1.17c-.34-.51-.54-1.08-.58-1.7-.06-.94.2-1.82.78-2.63.75-1.03 1.86-1.6 3.33-1.7 1.12-.08 2.18.21 3.18.85l.84-1.02.56-.04.67 4.57-.92.06c-.49-1.27-1.1-2.17-1.83-2.7-.73-.52-1.6-.75-2.6-.69-.87.06-1.54.32-2.01.78s-.68 1-.64 1.61c.04.54.29.97.78 1.3.47.34 1.38.57 2.7.69l3.02.45c.77.22 1.38.61 1.83 1.15s.71 1.23.76 2.05c.08 1.14-.31 2.13-1.15 2.97-.84.85-1.95 1.32-3.33 1.41-1.28.09-2.49-.26-3.64-1.03l-.93 1.22-.73.05-.62-5.11.92-.06zm23.45-3.08l-9.22.62c.18 1.96.64 3.32 1.38 4.08.85.85 1.88 1.24 3.1 1.16 1.8-.12 3.17-1.24 4.12-3.36l.92.33c-1.16 2.69-3.01 4.12-5.54 4.29-1.72.12-3.21-.41-4.47-1.58s-1.96-2.72-2.09-4.66c-.14-2.09.33-3.82 1.4-5.18 1.07-1.37 2.46-2.11 4.15-2.22 1.25-.08 2.34.16 3.29.75s1.7 1.46 2.23 2.62c.38.82.62 1.87.72 3.15zm-9.29-.36l5.58-.38c.33-.02.58-.15.75-.39s.23-.62.2-1.17c-.07-1.01-.44-1.84-1.11-2.51-.67-.66-1.44-.97-2.29-.91-.95.06-1.73.55-2.34 1.44-.61.9-.87 2.2-.78 3.9zm21.71-12.31l.92-.06.35 5.25 4.16-.28.08 1.26-4.16.28.55 8.26c.05.71.25 1.25.62 1.61a1.64 1.64 0 0 0 1.33.48c.62-.04 1.13-.37 1.54-.97.4-.61.59-1.58.58-2.91l.92-.06c.06 1.72-.24 3.01-.91 3.89s-1.58 1.35-2.73 1.43c-1.06.07-1.91-.16-2.55-.7s-.99-1.28-1.05-2.23l-.58-8.64-2.24.15-.07-.96c1.01-.24 1.76-.72 2.25-1.43.72-1.07 1.05-2.52 1-4.36zm7.66 4.76l5.12-.49.74 11.08c.02.3.11.51.26.63.22.17.49.24.82.22l1.46-.1.07 1.03-7.32.49-.07-1.03 1.36-.09c.4-.03.69-.15.87-.36.17-.21.25-.5.22-.88l-.54-8.11c-.03-.51-.21-.89-.52-1.13s-.75-.34-1.33-.3l-1.06.07-.07-1.03zm3.06-7.92c.41-.03.78.1 1.12.4.33.29.51.65.54 1.07a1.46 1.46 0 0 1-.38 1.1 1.49 1.49 0 0 1-1.05.53 1.46 1.46 0 0 1-1.12-.39c-.32-.29-.51-.64-.53-1.05s.1-.78.39-1.12c.29-.33.64-.51 1.04-.54zm13.31 6.82l6.33-.43.06.93c-.84.08-1.37.19-1.6.33-.22.15-.33.35-.31.59.01.2.07.4.18.6l3.92 7.37 2.61-7.58c.04-.13.05-.26.04-.39-.04-.67-.73-1.04-2.06-1.12l-.06-.93 5.33-.36.06.93c-.54.09-.96.27-1.26.53a2.41 2.41 0 0 0-.68 1.01l-3.98 11.24-.74.05-5.82-10.89c-.21-.39-.45-.66-.72-.8s-.69-.2-1.25-.17l-.06-.93zm30.05 9.49l.55.74c-.62.73-1.34 1.13-2.16 1.18-.62.04-1.16-.09-1.61-.4s-.86-.88-1.24-1.71c-.81.97-1.53 1.64-2.17 1.99s-1.42.56-2.35.62c-1.32.09-2.34-.13-3.07-.65-.72-.52-1.12-1.23-1.18-2.12-.09-1.34.62-2.5 2.13-3.49s3.56-1.72 6.15-2.19l-.13-1.95c-.05-.7-.37-1.27-.96-1.73s-1.32-.66-2.18-.6c-.8.05-1.47.26-2.03.63-.4.28-.59.53-.57.77 0 .14.13.34.37.62.29.35.44.67.46.95.03.41-.08.76-.33 1.04s-.59.43-1.02.46c-.46.03-.85-.1-1.18-.39s-.51-.68-.54-1.17c-.06-.91.39-1.77 1.37-2.59.97-.82 2.28-1.29 3.94-1.4 1.53-.1 2.72.15 3.57.75.85.61 1.31 1.4 1.37 2.35l.47 7.04c.04.62.17 1.07.39 1.35.22.29.49.42.81.4.36-.02.72-.2 1.1-.52zm-4.87-5.12c-2.31.48-3.92 1.11-4.84 1.9-.69.6-1 1.4-.93 2.41.05.71.27 1.24.67 1.62.4.37.91.54 1.51.5 1.08-.07 1.99-.55 2.73-1.42s1.06-1.93.98-3.17l-.12-1.84zm9.81 3.2a1.56 1.56 0 0 1 1.2.42c.34.31.53.69.56 1.15.03.48-.1.89-.4 1.24a1.63 1.63 0 0 1-1.15.58c-.46.03-.86-.11-1.21-.42a1.64 1.64 0 0 1-.57-1.16 1.62 1.62 0 0 1 .41-1.23 1.65 1.65 0 0 1 1.15-.58z"/><path d="m929.42,1240.04c-7.51.79-15.2,1.7-22.47,3.06-3.48.65-7.08.38-10.66.38-3.77,0-8.4.86-12.05-.25-2.4-.73-3.73-2.71-5.81-3.9-1.86-1.07-3.91-1.37-5.86-2.25-3.25-1.47-6.06-3.74-9.03-5.68-6.85-4.49-14.54-6.56-20.18-12.39-11.22-11.6-22.53-25.22-22.38-42.13.07-8.25-.58-16.67-.09-24.9.59-9.93,4.36-19.15,6.97-28.54.84-3.01,1.5-6.31,2.97-9.12.79-1.51,2.23-2.67,2.91-4.15.88-1.89.65-3.61,1.3-5.62,1.16-3.6,4.03-6.48,6.59-9.12,3.08-3.18,5.84-7.11,9.4-9.7,3.13-2.28,6.74-3.53,9.96-5.74,3.83-2.63,7.07-3.91,11.62-4.77,7.06-1.34,17.18,1.48,23.09,5.63,2.72,1.91,5.33,3.99,8.28,5.56,4.38,2.32,6.82,5.17,10.78,8.47,7.81,6.51,14.84,11.72,19.86,20.83,4.09,7.42,7.75,14.76,12.89,21.46,5.68,7.4,7.6,16.58,10.79,25.01,3.45,9.14,3.75,19.71,3.83,29.4.05,6.98-2.47,12.8-5.12,19.22-1.54,3.72-4.9,6.96-7.31,10.33-2.2,3.08-5.16,6-8.23,8.22-3.31,2.39-6.89,4.76-10.42,6.89-3.4,2.06-8.24,9.21-11.95,8.98" fill="#fff" class="G H I J"/><path d="M946.63 1131.6c1.43 4.34 5.7 7.2 7.39 11.67s1.21 8.7 1.22 13.45.26 9.43.04 14.08c-.11 2.41-.81 3.36-1.38 5.45-.76 2.81.47 6-.73 8.6-3.3-1.27-5.22-6.45-6.7-9.35-2.2-4.32-4.46-8.18-7.42-12.02-1.56-2.02-1.95-4.68-3.54-6.79-1.25-1.64-2.86-2.97-4.33-4.4l-12.09-12.09c-3.72-3.77-7.86-7.14-12-10.37-2.47-1.92-4.31-2.36-6.98-3.4-2.12-.83-4.21-2.51-6.41-3.15-3.25-.95-9.57-.99-12.85-.03-2.99.87-4.42 3.5-6.92 5-2.08 1.25-4.54 1.28-6.13 3.17-1.08 1.28-2.97 5.63-3.87 7.15-1.32 2.22-1.17 2.64-2.01 4.99-1.65 4.6-3.39 9.2-4.4 13.95-1.69 8-2.11 15.62-2.11 24.05 0 9.06 1.09 18.37 3.44 27.16 1.2 4.46 1.81 9.5 3.44 13.81.84 2.21 1.52 7.49 3.44 8.91l-10.33-1.72c-5.2-7.08-9.78-14.5-13.81-22.47-5.02-9.92-6.83-19.68-6.85-30.98 0-6.09-.35-11.25-1.34-17.16-1.01-6.03.81-10.98 1.34-16.79.95-10.42 5.69-21.14 11.63-29.72 2.7-3.9 6.79-5.67 10.71-8.47 2.63-1.88 3.58-2.56 6.55-3.53 2.84-.93 5.69-1.33 8.6-2.11 9.13-2.45 20-5.21 29.17-.96 5.25 2.44 10.7 5.11 15.49 8.23 2.46 1.6 5.38 3.02 7.44 5.11 2.86 2.9 3.6 6.18 7.19 8.36 2.69 1.64 4.14 1.46 6.54 4.13 2.21 2.46 3.65 5.7 5.98 8.13 2.4 2.49 8.98 6.1 7.75 10.46l-5.16-10.33zm-64.17-144.03c-13.15.29-13.77-16.16-13.77-25.91 0-4.56.57-9.6-.35-14.06-.48-2.36-1.36-4.43-3-6.13-2.19-2.26-5.86-2.7-5.12-7.18 3.2-1.68 6.55 5.21 9.93 6.22.74-3.18-.82-7.75.55-10.56 2.35 2.88 2.92 4.57 3.15 8.07.29 4.36.3 5.04 3.41 8.22 4.69 4.81 7.09 7.43 8.59 13.78.53 2.24 1.15 6.3 2.07 8.26 1.62 3.43 4.2 3.07 6.67 5.42 4.03 3.84 4.8 12.58 1.28 17.04-3.03 3.84-11.47 2.61-15.52.38-6.8-3.75-9.96-9.7-10.02-17.32-.04-4.99 3.13-11.07 9.11-7.96 6.01 3.12 9.59 12.01 7.92 18.32-2.57-.53-4.8-4.44-4.91-6.93"/><g fill="none" class="G H I J"><path d="M283.74 274.04c-.06 3.14.41 4.32 1.72 6.89m-13.77-12.06c.04 2.82-1.45 5.07-1.79 7.76-.24 1.9.06 4.08.06 6.01m-27.53-30.98c2.51 1.94 3.1 4.68 5.16 6.89"/></g><path d="M73.2 783.92l.47.58c-.92.69-1.59 1.37-2.02 2.04s-.63 1.25-.62 1.73c0 .32.12.48.35.47l.14-.02c.23-.06.41-.09.56-.1.42 0 .78.14 1.08.44s.46.68.47 1.13a1.85 1.85 0 0 1-.45 1.29c-.31.36-.67.55-1.09.55-.6.01-1.14-.23-1.62-.74s-.72-1.17-.74-1.99c-.04-1.97 1.11-3.77 3.46-5.4zm5.8-.12l.48.59c-.92.69-1.59 1.37-2.02 2.04-.42.67-.63 1.25-.62 1.73 0 .32.12.48.34.48l.14-.02c.23-.06.42-.09.57-.1.42 0 .79.14 1.09.43s.46.67.47 1.12c0 .5-.14.93-.46 1.29s-.67.54-1.08.55c-.61.01-1.15-.23-1.62-.74s-.71-1.17-.73-1.99c-.04-1.97 1.11-3.77 3.44-5.4zm1.35.57l6.97-.15 6.6 16.41 5.42-16.66 7.13-.15.02 1.06-1.74.04c-.61.01-1.03.11-1.23.29-.21.18-.31.5-.3.94l.35 16.58c0 .33.14.58.4.76.26.17.7.25 1.32.24l1.6-.03.02 1.06-9.58.2-.02-1.06 1.79-.04c.51-.01.89-.12 1.13-.31.24-.2.36-.45.35-.75l-.37-17.78-6.51 20.02-.95.02-7.87-19.64.32 15.22c.02.91.15 1.58.38 2.02a2.47 2.47 0 0 0 .99 1.01c.42.23 1.12.37 2.1.4l.02 1.06-7.9.16-.02-1.06c1.29-.11 2.16-.41 2.62-.89.45-.48.67-1.32.64-2.52l-.3-14.44c0-.36-.12-.62-.34-.78s-.63-.24-1.22-.22l-1.78.04-.02-1.06zm42.25 18.61l.53.78c-.67.72-1.43 1.09-2.27 1.11-.64.01-1.19-.15-1.63-.49-.45-.34-.84-.95-1.19-1.82-.88.96-1.65 1.61-2.33 1.94-.67.33-1.49.51-2.44.53-1.36.03-2.4-.24-3.12-.81s-1.09-1.31-1.11-2.23c-.03-1.38.76-2.54 2.36-3.48 1.6-.95 3.74-1.6 6.42-1.95l-.04-2.01c-.01-.72-.31-1.33-.9-1.82-.59-.5-1.32-.74-2.21-.72-.82.02-1.52.2-2.11.55-.42.26-.63.52-.62.76 0 .14.12.36.35.66.28.37.43.7.43 1 0 .43-.12.78-.39 1.05-.27.28-.62.42-1.07.43-.47 0-.87-.14-1.19-.46-.32-.31-.49-.72-.5-1.22-.02-.93.49-1.8 1.53-2.59 1.04-.8 2.41-1.21 4.12-1.25 1.58-.03 2.79.28 3.63.94.85.67 1.28 1.5 1.3 2.48l.15 7.25c.01.64.13 1.11.34 1.41.21.31.49.46.82.45.37 0 .75-.17 1.15-.48zm-4.76-5.5c-2.39.38-4.08.95-5.06 1.72-.73.58-1.09 1.39-1.07 2.43.02.73.22 1.29.62 1.69.39.4.9.6 1.53.58 1.11-.02 2.07-.47 2.87-1.33s1.18-1.93 1.16-3.2l-.04-1.9zm16.81-5.81c.92-.97 1.78-1.47 2.57-1.48.47 0 .87.13 1.19.43a1.48 1.48 0 0 1 .49 1.09c0 .35-.09.64-.3.88s-.45.36-.74.36c-.54.01-.91-.31-1.11-.97-.08-.28-.21-.42-.39-.42-.32 0-.66.23-1.03.66.42.55.71 1.03.87 1.43.16.41.24.85.25 1.32.02.82-.17 1.55-.55 2.19s-1.03 1.2-1.94 1.71c-.91.5-1.79.76-2.62.78l-1.54.03c-1.09.02-1.82.15-2.17.39a1.16 1.16 0 0 0-.52 1.04.94.94 0 0 0 .46.84c.3.19.85.28 1.66.26l3.5-.14c1.77-.04 3.04.23 3.83.8s1.2 1.38 1.22 2.4c.02 1.13-.4 2.09-1.27 2.89-1.21 1.12-3.05 1.71-5.5 1.76-2.03.04-3.54-.3-4.54-1.03-.79-.57-1.19-1.22-1.2-1.94-.01-.56.23-1.07.71-1.54.49-.47 1.31-.83 2.48-1.08-.94-.21-1.65-.53-2.13-.95-.48-.43-.73-.97-.74-1.62-.01-.6.17-1.13.54-1.59s1.03-.85 1.96-1.2c-.81-.43-1.43-.95-1.84-1.57-.42-.62-.64-1.33-.65-2.15-.03-1.28.46-2.37 1.45-3.26s2.29-1.35 3.91-1.38c.66-.01 1.3.07 1.92.24.62.18 1.22.45 1.8.83zm-2.63 12.59c-1.74.04-2.97.3-3.7.8s-1.09 1.08-1.07 1.76c.01.64.3 1.14.87 1.5.75.48 1.8.7 3.16.67 1.62-.03 2.84-.33 3.65-.88s1.21-1.16 1.19-1.82c0-.39-.14-.74-.41-1.07-.26-.33-.67-.58-1.23-.74s-1.38-.23-2.46-.21zm-1.1-12.75c-.84.02-1.53.34-2.06.97s-.79 1.5-.77 2.62c.02 1.19.32 2.11.88 2.75a2.62 2.62 0 0 0 2.12.94c.85-.02 1.54-.35 2.07-1s.78-1.57.76-2.76c-.02-1.1-.32-1.97-.88-2.6a2.64 2.64 0 0 0-2.11-.92zm23.38 10.81l.53.78c-.67.72-1.43 1.09-2.27 1.11-.64.01-1.19-.15-1.63-.49-.45-.34-.84-.95-1.19-1.82-.88.96-1.65 1.61-2.33 1.94-.67.33-1.49.51-2.44.53-1.36.03-2.4-.24-3.12-.81s-1.09-1.31-1.11-2.23c-.03-1.38.76-2.54 2.36-3.48s3.74-1.59 6.42-1.95l-.04-2.01c-.01-.72-.31-1.32-.9-1.82s-1.32-.74-2.21-.72c-.82.02-1.53.2-2.11.55-.42.26-.63.52-.62.76 0 .14.12.36.35.66.28.37.43.71.43 1 0 .43-.12.78-.39 1.05-.27.28-.62.42-1.07.43-.47 0-.87-.14-1.19-.46s-.49-.72-.5-1.22c-.02-.93.49-1.8 1.53-2.6 1.04-.79 2.41-1.21 4.12-1.25 1.58-.03 2.79.28 3.63.94.85.67 1.28 1.5 1.3 2.48l.15 7.25c.01.64.13 1.11.34 1.41.21.31.49.46.82.45.37 0 .75-.17 1.15-.48zm-4.76-5.5c-2.39.38-4.08.95-5.06 1.72-.73.58-1.09 1.39-1.07 2.43.02.73.22 1.29.62 1.69.39.4.9.6 1.53.58 1.11-.02 2.07-.47 2.87-1.33s1.18-1.93 1.16-3.2l-.04-1.9zm6.41-6.35l4.77-.34.11 5.37c.47-1.78 1.06-3.12 1.76-4.04s1.58-1.39 2.63-1.42c.72-.01 1.29.19 1.73.62s.66 1.01.68 1.75c.01.6-.12 1.06-.4 1.4a1.37 1.37 0 0 1-1.07.52c-.43 0-.77-.13-1.04-.4-.27-.28-.4-.66-.41-1.14 0-.31.06-.61.21-.88.14-.25.2-.39.2-.44 0-.14-.09-.21-.27-.21-.39 0-.82.24-1.3.71-.67.65-1.17 1.53-1.52 2.64-.53 1.73-.79 3.11-.76 4.14l.06 2.85c0 .32.12.56.36.73.23.17.62.24 1.17.23l1.68-.04.02 1.06-8.24.17-.02-1.06 1.32-.03c.44 0 .78-.1 1-.28s.33-.39.33-.64l-.18-8.45c-.01-.64-.16-1.11-.44-1.4s-.67-.43-1.18-.42l-1.16.02-.02-1zm12.83-.27l5.28-.27.24 11.41c0 .31.09.53.24.66.22.18.5.27.83.27l1.5-.03.02 1.06-7.55.16-.02-1.06 1.4-.03c.42 0 .72-.12.91-.32.19-.21.28-.5.27-.89l-.17-8.35c-.01-.53-.17-.92-.48-1.19-.31-.26-.76-.39-1.35-.37l-1.09.02-.02-1.06zm3.52-7.99c.43 0 .8.14 1.13.46.33.31.5.69.5 1.12 0 .42-.14.8-.44 1.11-.3.32-.67.48-1.11.49s-.81-.14-1.13-.45-.49-.68-.5-1.1a1.56 1.56 0 0 1 .46-1.13c.31-.33.68-.5 1.09-.5zm24.9 9.31c.47-.8.98-1.53 1.55-2.18l.5.23c-.24 1.12-.35 2.32-.32 3.6l.27 12.76c0 .5.12.83.32 1 .27.23.69.34 1.25.33h.57l.02.99-6.95.14-.02-1 .93-.02c.57-.01.96-.13 1.2-.35.23-.22.34-.57.33-1.04l-.11-5.04c-.54.79-1.15 1.4-1.82 1.8-.67.41-1.41.62-2.21.63-1.54.03-2.88-.59-4.02-1.86s-1.73-2.9-1.77-4.87c-.03-1.32.23-2.54.77-3.66s1.27-1.98 2.19-2.58 1.9-.92 2.95-.94c.75-.02 1.47.13 2.16.44s1.42.85 2.2 1.62zm-4.16-1.12c-.99.02-1.8.51-2.44 1.47s-.93 2.44-.89 4.44c.04 2.04.4 3.51 1.08 4.41.67.9 1.5 1.34 2.47 1.32.63-.01 1.22-.22 1.76-.63s.96-1.01 1.26-1.82c.29-.8.43-1.88.4-3.23-.03-1.58-.2-2.76-.5-3.57-.3-.8-.74-1.4-1.31-1.81s-1.18-.6-1.82-.59zm13.84-1.23l.18 8.79c.02 1.08.31 1.9.86 2.47s1.26.85 2.12.83c1.05-.02 1.94-.47 2.66-1.34s1.07-1.95 1.04-3.23l-.1-4.97c0-.45-.18-.8-.51-1.04s-.96-.37-1.88-.38l-.02-.99 4.65-.34.23 10.89c.01.5.16.88.45 1.14s.69.39 1.2.38l.83-.02.02.95-4.46.19-.34-2.6c-.77.95-1.55 1.67-2.34 2.16s-1.6.74-2.42.76c-1.2.03-2.21-.36-3.04-1.14-.84-.78-1.27-2.11-1.31-4.01l-.12-5.76c-.01-.51-.22-.89-.63-1.15-.29-.18-.87-.28-1.75-.28l-.02-.99 4.7-.34zm27.44 11.48l.53.78c-.67.72-1.43 1.09-2.27 1.11-.64.01-1.19-.15-1.63-.49-.45-.34-.84-.95-1.19-1.82-.88.96-1.65 1.61-2.33 1.94-.67.33-1.49.51-2.44.53-1.36.03-2.4-.24-3.12-.81s-1.09-1.31-1.11-2.23c-.03-1.38.76-2.54 2.36-3.48s3.74-1.59 6.42-1.95l-.04-2.01c-.01-.72-.31-1.33-.9-1.82-.59-.5-1.32-.74-2.21-.72-.82.02-1.53.2-2.11.55-.42.26-.63.52-.62.76 0 .14.12.36.35.66.28.37.43.71.43 1 0 .43-.12.78-.39 1.05-.27.28-.62.42-1.07.43-.47.01-.87-.14-1.19-.46s-.49-.72-.5-1.22c-.02-.93.49-1.8 1.53-2.6 1.04-.79 2.41-1.21 4.12-1.25 1.58-.03 2.79.28 3.63.94.85.67 1.28 1.5 1.3 2.48l.15 7.25c.01.64.13 1.11.34 1.41.21.31.49.46.82.45.37 0 .75-.17 1.15-.48zm-4.76-5.49c-2.39.38-4.08.95-5.06 1.72-.73.58-1.09 1.39-1.07 2.43.02.73.22 1.29.62 1.69.39.4.9.6 1.53.58 1.11-.02 2.07-.47 2.87-1.33s1.18-1.93 1.16-3.2l-.04-1.9zm6.62-6.36l4.4-.36c.2.83.35 1.8.46 2.91.58-.98 1.26-1.71 2.06-2.21s1.71-.76 2.73-.78c.88-.02 1.62.14 2.22.47s1.09.87 1.46 1.61c.38.74.57 1.57.59 2.5l.13 6.46c0 .48.12.82.35 1.02.22.2.59.29 1.1.28l.93-.02.02 1.06-6.99.15-.02-1.06h.67c.62-.03 1.05-.13 1.3-.34.24-.2.36-.5.35-.9l-.12-5.68c-.03-1.24-.23-2.15-.62-2.74-.54-.84-1.36-1.25-2.43-1.22-1.07.02-1.95.47-2.64 1.34s-1.03 2-1 3.38l.1 4.91c0 .48.13.82.35 1.02.23.2.59.29 1.1.28l.92-.02.02 1.06-7.02.15-.02-1.06.92-.02c.46 0 .81-.11 1.05-.3s.35-.43.35-.71l-.18-8.57c-.01-.57-.17-.99-.49-1.28-.31-.29-.76-.42-1.33-.41h-.68l-.02-.91zm25.07-8.2l5.18-.35.38 18.15c.01.71.16 1.21.43 1.51.28.3.68.44 1.22.43l.92-.02.02 1.06-4.53.09-.4-2.7c-.52.97-1.13 1.71-1.85 2.21-.71.5-1.52.76-2.41.78-1.51.03-2.81-.57-3.9-1.82-1.09-1.24-1.65-2.9-1.7-4.98-.05-2.25.59-4.05 1.93-5.42 1.04-1.07 2.26-1.62 3.65-1.65.85-.02 1.62.18 2.3.59s1.29 1.04 1.8 1.89l-.16-7.49c0-.4-.17-.71-.48-.93s-.79-.33-1.44-.32l-.95.02-.02-1.06zm-.65 8.47c-1.02.02-1.82.46-2.4 1.31s-.85 2.27-.81 4.27c.04 2.16.38 3.68 1.02 4.55.63.87 1.43 1.29 2.39 1.27 1.03-.02 1.9-.53 2.61-1.54.71-1 1.05-2.45 1.01-4.35-.04-1.79-.46-3.2-1.26-4.21-.7-.89-1.55-1.33-2.55-1.31zm16.19-1.51c1.78-.04 3.3.58 4.54 1.84s1.88 2.95 1.93 5.05c.03 1.45-.21 2.7-.74 3.73-.52 1.04-1.28 1.86-2.27 2.48s-2.07.94-3.23.96c-1.72.04-3.19-.58-4.41-1.86s-1.85-2.95-1.9-5.03c-.04-2.08.52-3.79 1.69-5.12s2.63-2.01 4.39-2.04zm.02 1c-1.06.02-1.92.52-2.58 1.49s-.97 2.49-.92 4.56c.04 2.11.41 3.64 1.11 4.59.69.96 1.58 1.43 2.64 1.4 1.11-.02 1.99-.53 2.65-1.51.66-.99.97-2.58.93-4.79-.04-2.05-.41-3.52-1.11-4.42-.69-.9-1.6-1.34-2.73-1.32zm19.67-6.43l.95-.02.11 5.41 4.29-.09.03 1.3-4.29.09.18 8.51c.02.74.2 1.3.56 1.68a1.73 1.73 0 0 0 1.34.56c.64-.01 1.18-.32 1.62-.93.44-.6.68-1.59.73-2.96l.95-.02c-.02 1.77-.39 3.08-1.12 3.95s-1.69 1.32-2.88 1.34c-1.09.02-1.96-.26-2.59-.85s-.96-1.37-.98-2.34l-.19-8.9-2.31.05-.02-.99c1.05-.2 1.84-.66 2.37-1.37.79-1.06 1.2-2.54 1.23-4.43zm14.14 4.72c1.79-.04 3.3.58 4.54 1.84s1.88 2.95 1.93 5.05c.03 1.45-.21 2.7-.74 3.73-.52 1.04-1.28 1.86-2.27 2.48s-2.07.94-3.23.96c-1.72.04-3.19-.59-4.41-1.86-1.22-1.28-1.85-2.95-1.9-5.03-.04-2.08.52-3.79 1.69-5.12s2.63-2.01 4.39-2.04zm.02 1c-1.06.02-1.92.52-2.58 1.49s-.97 2.49-.92 4.56c.04 2.11.41 3.64 1.11 4.59.69.96 1.58 1.43 2.64 1.4 1.11-.02 1.99-.53 2.65-1.51.66-.99.97-2.58.93-4.79-.04-2.05-.41-3.52-1.1-4.42s-1.6-1.34-2.73-1.32zm8.02-.77l4.77-.34.11 5.37c.47-1.78 1.06-3.12 1.76-4.04s1.58-1.39 2.63-1.42c.72-.01 1.29.19 1.73.62s.67 1.01.68 1.75c.01.6-.12 1.06-.4 1.4a1.37 1.37 0 0 1-1.07.52c-.43 0-.77-.13-1.04-.4-.27-.28-.4-.66-.41-1.14 0-.31.06-.61.21-.88.14-.25.2-.39.2-.44 0-.14-.09-.21-.27-.21-.39 0-.82.24-1.3.71-.67.65-1.17 1.52-1.52 2.64-.53 1.73-.79 3.11-.76 4.14l.06 2.85c0 .32.12.56.36.73.23.17.62.24 1.17.23l1.68-.04.02 1.06-8.24.17-.02-1.06 1.32-.03c.44 0 .78-.1 1-.28s.33-.39.33-.64l-.18-8.45c-.01-.64-.16-1.11-.44-1.4s-.67-.43-1.18-.42l-1.16.02-.02-1zm13.08-.27l4.4-.36c.2.83.35 1.79.46 2.91.58-.97 1.26-1.71 2.06-2.21s1.71-.76 2.72-.78c.88-.02 1.62.14 2.22.47s1.09.87 1.46 1.6c.38.74.57 1.57.59 2.5l.13 6.46c0 .48.12.82.35 1.02.22.2.59.29 1.1.28l.93-.02.02 1.06-6.99.15-.02-1.06h.67c.62-.03 1.06-.13 1.3-.34s.36-.5.35-.9l-.12-5.68c-.03-1.24-.23-2.15-.62-2.74-.55-.84-1.36-1.25-2.43-1.22-1.07.02-1.95.47-2.64 1.34s-1.03 2-1 3.38l.1 4.91c0 .48.13.82.35 1.02.23.2.59.29 1.1.28l.92-.02.02 1.06-7.02.15-.02-1.06.92-.02c.46 0 .81-.11 1.05-.3s.35-.43.35-.71l-.18-8.57c-.01-.57-.17-.99-.49-1.28-.31-.29-.76-.42-1.33-.41h-.68l-.02-.91zm23.96-.9c1.79-.04 3.3.58 4.54 1.84s1.88 2.95 1.93 5.05c.03 1.45-.21 2.7-.74 3.73-.52 1.04-1.28 1.86-2.27 2.48s-2.07.94-3.23.96c-1.72.04-3.19-.59-4.41-1.86-1.22-1.28-1.85-2.95-1.9-5.03-.04-2.08.52-3.79 1.69-5.12s2.63-2.01 4.39-2.04zm.02 1c-1.06.02-1.92.52-2.58 1.49s-.97 2.49-.92 4.56c.04 2.11.41 3.64 1.11 4.59.69.96 1.58 1.43 2.64 1.4 1.11-.02 1.99-.53 2.65-1.51s.97-2.58.93-4.79c-.04-2.05-.41-3.52-1.11-4.42-.69-.9-1.6-1.34-2.73-1.32zM77.78 819.23l5.18-.35.38 18.15c.01.71.16 1.21.43 1.5.28.3.68.44 1.22.43l.92-.02.02 1.06-4.53.09-.4-2.7c-.52.97-1.13 1.71-1.84 2.21s-1.52.76-2.41.78c-1.51.03-2.81-.57-3.9-1.82-1.09-1.24-1.65-2.9-1.7-4.98-.05-2.25.6-4.05 1.93-5.42 1.05-1.07 2.26-1.62 3.65-1.65.85-.02 1.62.18 2.3.59s1.29 1.04 1.8 1.89l-.16-7.49c0-.4-.17-.71-.48-.93-.31-.23-.79-.33-1.44-.32l-.95.02-.02-1.06zm-.65 8.47c-1.02.02-1.82.46-2.4 1.31s-.85 2.27-.81 4.27c.05 2.16.38 3.68 1.02 4.55.63.87 1.43 1.29 2.39 1.27 1.03-.02 1.9-.53 2.61-1.53s1.05-2.45 1.01-4.35c-.04-1.79-.46-3.2-1.26-4.21-.7-.89-1.55-1.33-2.55-1.31zm24.2 10.53l.53.78c-.67.72-1.43 1.09-2.27 1.11-.64.01-1.19-.15-1.63-.49s-.84-.95-1.19-1.82c-.88.96-1.65 1.61-2.33 1.94-.67.33-1.49.51-2.44.53-1.36.03-2.4-.24-3.12-.81s-1.09-1.31-1.11-2.23c-.03-1.38.76-2.54 2.36-3.48s3.74-1.6 6.42-1.95l-.04-2.01c-.01-.72-.31-1.32-.9-1.82s-1.32-.74-2.21-.72c-.82.02-1.52.2-2.11.55-.42.26-.63.52-.62.76 0 .14.12.36.35.66.28.37.43.7.43 1 0 .43-.12.78-.39 1.05s-.62.42-1.07.43c-.47 0-.87-.14-1.19-.46-.32-.31-.49-.72-.5-1.22-.02-.93.49-1.8 1.53-2.6 1.04-.79 2.41-1.21 4.12-1.25 1.58-.03 2.79.28 3.63.94.84.67 1.28 1.5 1.3 2.48l.15 7.25c.01.64.13 1.11.34 1.41.21.31.49.46.82.45.37 0 .75-.17 1.15-.48zm-4.76-5.49c-2.39.38-4.08.95-5.06 1.72-.73.58-1.09 1.39-1.07 2.43.01.73.22 1.29.62 1.69s.9.6 1.53.58c1.11-.02 2.07-.47 2.87-1.33s1.19-1.93 1.16-3.2l-.04-1.9zm27.01-12.88l1.24-1.85 1.03-.02.24 7.63-.93.02c-.63-2.33-1.54-4.02-2.7-5.07-1.17-1.05-2.5-1.56-3.99-1.53-1.25.03-2.26.42-3.04 1.18a3.6 3.6 0 0 0-1.13 2.76c.01.67.18 1.25.49 1.75s.77.9 1.38 1.21c.6.3 1.74.62 3.41.94 2.34.46 3.99.94 4.94 1.44s1.67 1.14 2.14 1.92c.48.78.73 1.7.75 2.75.04 1.89-.56 3.47-1.81 4.73-1.24 1.27-2.87 1.92-4.88 1.96a8.24 8.24 0 0 1-5.68-1.98l-1.56 1.99-1.02.02-.17-8.11 1.02-.02c.44 2.23 1.37 3.97 2.77 5.24 1.41 1.26 2.97 1.88 4.7 1.84 1.4-.03 2.53-.47 3.39-1.31s1.29-1.86 1.26-3.04c-.01-.67-.19-1.25-.53-1.75s-.87-.91-1.6-1.24-2.15-.72-4.26-1.17c-2.32-.5-3.91-1.08-4.77-1.74-1.2-.94-1.82-2.29-1.86-4.05-.04-1.84.52-3.36 1.67-4.56s2.64-1.82 4.47-1.86c.88-.02 1.71.12 2.51.42.8.29 1.63.8 2.5 1.5z"/><use xlink:href="#H"/><path d="M147.04 825.07c1.79-.04 3.3.58 4.54 1.84s1.88 2.95 1.93 5.05c.03 1.45-.22 2.7-.74 3.73-.52 1.04-1.28 1.86-2.27 2.47-.99.62-2.07.94-3.23.96-1.72.04-3.19-.58-4.41-1.86s-1.85-2.95-1.9-5.03c-.04-2.08.52-3.79 1.69-5.12s2.63-2.01 4.39-2.05zm.02 1c-1.06.02-1.91.52-2.57 1.49s-.97 2.49-.92 4.56c.04 2.11.41 3.64 1.11 4.59.7.96 1.58 1.43 2.64 1.4 1.11-.02 1.99-.53 2.65-1.51.66-.99.97-2.58.93-4.79-.04-2.05-.41-3.52-1.1-4.42s-1.6-1.34-2.73-1.32zm18.56 8.34l.93.25c-.68 2.72-2.28 4.11-4.79 4.17-1.84.04-3.36-.54-4.55-1.73-1.2-1.19-1.82-2.8-1.86-4.82-.05-2.34.56-4.17 1.81-5.48 1.26-1.32 2.75-1.99 4.49-2.03 1.3-.03 2.39.31 3.25 1.01s1.31 1.49 1.33 2.36c.01.53-.14.97-.45 1.32s-.68.53-1.12.54c-.42 0-.79-.13-1.08-.42s-.45-.63-.46-1.05c0-.41.14-.81.46-1.19.15-.18.22-.32.22-.43 0-.27-.2-.54-.57-.79s-.88-.37-1.51-.36c-1.15.02-2.02.46-2.59 1.31-.82 1.23-1.22 2.85-1.17 4.83.04 1.9.45 3.32 1.22 4.28.78.96 1.75 1.43 2.92 1.4 1.61-.03 2.79-1.1 3.53-3.19zm12.87-.27l.93.25c-.68 2.72-2.28 4.11-4.79 4.17-1.84.04-3.36-.54-4.55-1.73-1.2-1.19-1.82-2.8-1.86-4.82-.05-2.34.56-4.17 1.81-5.48 1.26-1.32 2.75-1.99 4.49-2.03 1.3-.03 2.38.31 3.25 1.01.86.7 1.31 1.49 1.33 2.37.01.53-.14.97-.45 1.32s-.68.53-1.12.54c-.42 0-.79-.13-1.08-.41-.3-.29-.45-.64-.46-1.05 0-.41.14-.81.46-1.19.15-.18.22-.32.22-.43 0-.27-.2-.54-.57-.79s-.88-.37-1.51-.36c-1.15.02-2.02.46-2.59 1.31-.82 1.23-1.22 2.84-1.17 4.83.04 1.9.45 3.32 1.22 4.28.78.96 1.75 1.43 2.92 1.4 1.62-.03 2.79-1.1 3.53-3.19zm8.79-9.91c1.79-.04 3.3.57 4.54 1.84 1.24 1.26 1.88 2.95 1.93 5.05.03 1.45-.22 2.7-.74 3.73a6.16 6.16 0 0 1-2.27 2.48c-.99.62-2.07.94-3.23.96-1.72.04-3.19-.58-4.41-1.86s-1.85-2.95-1.9-5.03c-.04-2.08.52-3.79 1.69-5.12s2.63-2.01 4.39-2.04zm.02 1c-1.06.02-1.91.52-2.57 1.49s-.97 2.49-.92 4.56c.04 2.11.41 3.64 1.11 4.59.7.96 1.58 1.43 2.64 1.4 1.11-.02 1.99-.53 2.65-1.51.67-.99.97-2.58.93-4.79-.04-2.05-.41-3.52-1.1-4.42s-1.6-1.34-2.73-1.32zm13.07-8.79l.4 19.22c0 .26.09.47.25.6.24.18.53.27.87.26l1.4-.03.02 1.06-7.52.16-.02-1.06 1.33-.03c.43 0 .76-.12.96-.33.21-.21.31-.51.3-.89l-.34-16.14c0-.47-.14-.81-.4-1.03-.36-.29-.79-.44-1.3-.43l-1.19.03-.02-1.06 5.25-.35zm5.11 7.81l3.79-.32a21.96 21.96 0 0 1 .47 2.81c.7-1.05 1.4-1.79 2.11-2.23a4.47 4.47 0 0 1 2.35-.68c.92-.02 1.68.21 2.28.67.6.47 1.08 1.24 1.42 2.31.61-1.04 1.3-1.82 2.06-2.34a4.54 4.54 0 0 1 2.51-.81c1.21-.03 2.12.31 2.74 1.02.79.93 1.2 2.14 1.23 3.63l.14 6.58c0 .4.11.66.31.8.27.21.66.31 1.18.3h.67l.02 1.05-6.67.14-.02-1.06h.67c.57-.03.96-.13 1.18-.32s.33-.48.32-.86l-.14-6.59c-.02-.98-.28-1.74-.77-2.27s-1.13-.79-1.91-.77c-.59.01-1.13.18-1.6.51a3.18 3.18 0 0 0-1.1 1.38c-.39.85-.58 1.57-.56 2.15l.12 5.71c0 .39.12.67.33.85s.53.26.97.25l.91-.02.02 1.06-6.77.14-.02-1.06.76-.02c.48 0 .84-.11 1.07-.31a.91.91 0 0 0 .34-.73l-.13-6.12c-.03-1.29-.28-2.23-.75-2.8-.47-.58-1.09-.86-1.87-.84-1 .02-1.76.38-2.29 1.07-.75.98-1.1 2.11-1.08 3.4l.11 5.29c0 .41.1.68.29.83.26.19.66.28 1.2.27h.68l.02 1.05-6.68.14-.02-1.06 1.01-.02c.38 0 .67-.11.87-.3s.3-.43.29-.73l-.18-8.69c-.01-.48-.14-.84-.39-1.07s-.74-.37-1.48-.42l-.02-.98zm39.22 10.99l.53.78c-.67.72-1.43 1.09-2.27 1.11-.64.01-1.19-.15-1.63-.49-.45-.34-.84-.95-1.19-1.82-.88.96-1.65 1.61-2.32 1.94s-1.49.51-2.44.53c-1.36.03-2.4-.24-3.12-.81s-1.09-1.31-1.11-2.23c-.03-1.38.76-2.54 2.36-3.49 1.6-.94 3.74-1.59 6.42-1.95l-.04-2.01c-.01-.72-.31-1.32-.9-1.82s-1.32-.74-2.21-.72c-.82.02-1.53.2-2.11.55-.42.26-.63.52-.62.76 0 .14.12.36.35.66.28.37.43.71.43 1 0 .43-.12.78-.39 1.05-.27.28-.62.42-1.07.43-.47 0-.87-.14-1.19-.46-.32-.31-.49-.72-.5-1.22-.02-.93.49-1.8 1.53-2.6 1.04-.79 2.41-1.21 4.12-1.25 1.58-.03 2.79.28 3.63.94.84.67 1.28 1.5 1.3 2.48l.15 7.25c.01.64.13 1.11.34 1.41.21.31.49.46.82.45.37 0 .75-.17 1.15-.48zm-4.76-5.49c-2.39.38-4.08.95-5.06 1.72-.73.58-1.09 1.39-1.07 2.43.01.73.22 1.29.62 1.69.39.4.9.6 1.53.58 1.11-.02 2.07-.47 2.87-1.33s1.18-1.93 1.16-3.2l-.04-1.9zm8.43 11.8l-.52-.67c1.79-1.43 2.68-2.66 2.66-3.71 0-.15-.03-.26-.08-.33s-.13-.1-.24-.1l-.31.06a2.81 2.81 0 0 1-.44.05c-.42 0-.8-.15-1.12-.47-.32-.33-.49-.72-.5-1.19 0-.46.14-.86.46-1.18.31-.33.72-.5 1.22-.51a1.96 1.96 0 0 1 1.57.7c.43.48.65 1.14.66 1.98.04 1.84-1.08 3.63-3.36 5.38zm13.72-18.48l6.53-.14.02.96c-.87.04-1.42.13-1.66.27s-.35.34-.35.59c0 .21.06.41.16.62l3.68 7.76 3.04-7.66a1.08 1.08 0 0 0 .06-.4c-.01-.69-.7-1.1-2.06-1.24l-.02-.96 5.49-.11.02.96c-.56.07-1 .23-1.32.48-.33.25-.57.59-.74 1.01l-4.63 11.36-.76.02-5.46-11.46c-.2-.41-.43-.7-.71-.86s-.7-.24-1.27-.24l-.02-.96zm30.41 11.17l.53.78c-.67.72-1.43 1.09-2.27 1.11-.64.01-1.19-.15-1.63-.49-.45-.34-.84-.95-1.19-1.82-.88.96-1.65 1.61-2.32 1.94s-1.49.51-2.44.53c-1.36.03-2.4-.24-3.12-.81s-1.09-1.31-1.11-2.23c-.03-1.38.76-2.54 2.36-3.49 1.6-.94 3.74-1.6 6.42-1.95l-.04-2.01c-.01-.72-.31-1.32-.9-1.82s-1.32-.74-2.21-.72c-.82.02-1.53.2-2.11.55-.42.26-.63.52-.62.76 0 .14.12.36.35.66.28.37.43.7.43 1 0 .43-.12.78-.39 1.05-.27.28-.62.42-1.07.43-.47 0-.87-.14-1.19-.46-.32-.31-.49-.72-.5-1.22-.02-.93.49-1.8 1.53-2.59 1.04-.8 2.41-1.21 4.12-1.25 1.58-.03 2.79.28 3.63.94.84.67 1.28 1.5 1.3 2.48l.15 7.25c.01.64.13 1.11.34 1.41.21.31.49.46.82.45.37 0 .75-.17 1.15-.48zm-4.76-5.49c-2.39.38-4.08.95-5.06 1.72-.73.58-1.09 1.39-1.07 2.43.01.73.22 1.29.62 1.69s.9.6 1.53.58c1.11-.02 2.07-.47 2.87-1.33s1.18-1.93 1.16-3.2l-.04-1.9zm13.98-14.19l5.18-.35.38 18.15c.01.71.16 1.21.43 1.5.28.3.68.44 1.22.43l.92-.02.02 1.06-4.53.09-.4-2.7c-.52.97-1.13 1.71-1.85 2.21s-1.52.76-2.41.78c-1.51.03-2.81-.57-3.9-1.82-1.09-1.24-1.65-2.9-1.7-4.98-.05-2.25.6-4.05 1.93-5.42 1.05-1.07 2.26-1.62 3.65-1.65.85-.02 1.62.18 2.3.59s1.29 1.04 1.8 1.89l-.16-7.49c0-.4-.17-.71-.48-.93-.31-.23-.79-.33-1.45-.32l-.95.02-.02-1.06zm-.64 8.47c-1.02.02-1.82.46-2.4 1.31s-.85 2.27-.81 4.27c.05 2.16.38 3.68 1.02 4.55.63.87 1.43 1.29 2.39 1.27 1.03-.02 1.9-.53 2.61-1.54s1.05-2.45 1.01-4.35c-.04-1.79-.46-3.2-1.26-4.21-.7-.89-1.55-1.33-2.55-1.31zm16.19-1.51c1.78-.04 3.3.58 4.54 1.84s1.88 2.95 1.93 5.05c.03 1.45-.22 2.7-.74 3.73a6.07 6.07 0 0 1-2.27 2.47c-.99.62-2.07.94-3.23.96-1.72.04-3.19-.58-4.41-1.86s-1.85-2.95-1.9-5.03c-.04-2.08.52-3.79 1.69-5.12s2.63-2.01 4.39-2.05zm.02 1c-1.06.02-1.92.52-2.58 1.49s-.97 2.49-.92 4.56c.04 2.11.41 3.64 1.11 4.59.7.96 1.58 1.43 2.64 1.4 1.11-.02 1.99-.53 2.65-1.51.67-.99.97-2.58.93-4.79-.04-2.05-.41-3.52-1.1-4.42s-1.6-1.34-2.73-1.32zm26.61 8.17l.93.25c-.68 2.72-2.28 4.11-4.79 4.17-1.84.04-3.36-.54-4.55-1.73-1.2-1.19-1.82-2.8-1.86-4.82-.05-2.34.56-4.17 1.81-5.48 1.26-1.32 2.75-1.99 4.49-2.03 1.3-.03 2.39.31 3.25 1.01s1.31 1.49 1.33 2.37c.01.53-.14.97-.45 1.32s-.68.53-1.12.54c-.42 0-.79-.13-1.08-.41-.3-.29-.45-.63-.46-1.05 0-.41.14-.81.46-1.2.15-.18.22-.32.22-.43 0-.27-.2-.54-.57-.79s-.88-.37-1.51-.36c-1.15.02-2.02.46-2.59 1.31-.82 1.23-1.22 2.84-1.17 4.83.04 1.9.45 3.32 1.22 4.28.78.96 1.75 1.43 2.92 1.4 1.61-.03 2.79-1.1 3.53-3.19zm8.79-9.91c1.78-.04 3.3.58 4.54 1.84s1.88 2.95 1.93 5.05c.03 1.45-.22 2.7-.74 3.73a6.07 6.07 0 0 1-2.27 2.47c-.99.62-2.07.94-3.23.96-1.72.04-3.19-.58-4.41-1.86s-1.85-2.95-1.9-5.03c-.04-2.08.52-3.79 1.69-5.12s2.63-2.01 4.39-2.04zm.02 1c-1.06.02-1.92.52-2.58 1.49s-.97 2.49-.92 4.56c.04 2.11.41 3.64 1.11 4.59.7.96 1.58 1.43 2.64 1.4 1.11-.02 1.99-.53 2.65-1.51.67-.99.97-2.58.93-4.79-.04-2.05-.41-3.52-1.1-4.42s-1.6-1.34-2.73-1.32zm8.22-.77l4.4-.36c.2.83.35 1.8.46 2.91.57-.97 1.26-1.71 2.06-2.21s1.71-.76 2.72-.78c.88-.02 1.62.14 2.22.47s1.09.87 1.46 1.61c.38.74.57 1.57.59 2.49l.13 6.46c.01.48.13.82.35 1.02s.59.29 1.1.28l.93-.02.02 1.06-6.99.15-.02-1.06h.67c.62-.03 1.06-.13 1.29-.34.24-.2.36-.5.35-.9l-.12-5.68c-.03-1.24-.23-2.15-.62-2.74-.55-.84-1.36-1.25-2.43-1.22-1.07.02-1.95.47-2.64 1.34-.7.87-1.03 2-1 3.38l.1 4.91c.01.48.13.82.35 1.02.23.2.59.29 1.1.28l.92-.02.02 1.06-7.02.15-.02-1.06.92-.02c.46 0 .81-.11 1.05-.31.24-.19.35-.43.35-.71l-.18-8.57c-.01-.57-.17-.99-.49-1.28s-.76-.42-1.33-.41h-.68l-.02-.91zM70.77 854.18l10.82-.23c2.1-.04 3.73.4 4.91 1.33s1.78 2.17 1.81 3.72c.02.92-.19 1.75-.64 2.48-.44.73-1.09 1.32-1.95 1.77-.85.45-2.2.78-4.05 1.01 1.35.34 2.29.68 2.8 1.03.52.34.93.79 1.25 1.35.32.55.69 1.69 1.13 3.41.31 1.23.63 2.07.96 2.52.25.34.52.51.8.51.29 0 .56-.23.8-.66.24-.44.38-1.2.41-2.28l.96-.02c-.11 3.21-1.26 4.84-3.45 4.89-.69.01-1.29-.15-1.8-.49s-.9-.85-1.17-1.52c-.21-.51-.46-1.84-.75-3.99-.17-1.25-.41-2.14-.73-2.66s-.81-.94-1.46-1.24c-.66-.31-1.44-.45-2.35-.43l-1.71.04.17 8.23c0 .35.1.59.28.73.23.17.59.26 1.07.25l2.01-.04.02 1.06-9.73.2-.02-1.06 2.05-.04c.45 0 .79-.11.99-.29.21-.18.31-.43.3-.74l-.35-16.73c0-.36-.12-.62-.34-.8s-.55-.26-1-.25l-2.05.04-.02-1.06zm6.59 9.49l2.48-.05c1.66-.03 2.96-.37 3.88-1.02s1.37-1.77 1.34-3.37c-.02-1.1-.22-1.97-.58-2.6-.37-.63-.84-1.06-1.42-1.28s-1.71-.32-3.41-.28c-1.11.02-1.8.12-2.06.28s-.39.43-.38.81l.16 7.53zm14.47-2.25l5.28-.27.24 11.41c0 .31.09.53.24.66.22.18.5.27.83.27l1.5-.03.02 1.06-7.55.16-.02-1.06 1.4-.03c.42 0 .72-.12.91-.32.19-.21.28-.5.27-.89l-.17-8.35c-.01-.53-.17-.92-.48-1.19-.31-.26-.76-.39-1.35-.38l-1.09.02-.02-1.06zm3.52-7.99c.43 0 .8.14 1.13.46s.5.69.5 1.12c0 .42-.14.79-.44 1.11s-.67.48-1.11.49a1.6 1.6 0 0 1-1.14-.45c-.32-.31-.49-.68-.5-1.1a1.56 1.56 0 0 1 .46-1.13c.31-.33.68-.5 1.09-.5zm20.12 19.31l.53.78c-.67.72-1.43 1.09-2.27 1.11-.64.01-1.19-.15-1.63-.49-.45-.34-.84-.95-1.19-1.82-.88.96-1.65 1.61-2.33 1.94-.67.33-1.49.51-2.44.53-1.36.03-2.4-.24-3.12-.81s-1.09-1.31-1.11-2.23c-.03-1.38.76-2.54 2.36-3.48s3.74-1.6 6.43-1.95l-.04-2.01c-.02-.72-.32-1.32-.9-1.82-.59-.5-1.32-.74-2.21-.72-.82.02-1.52.2-2.11.55-.42.26-.63.52-.62.76 0 .14.12.36.35.66.28.37.43.7.43 1 0 .43-.12.78-.39 1.05-.27.28-.62.42-1.07.43-.47 0-.87-.14-1.19-.46-.32-.31-.49-.72-.5-1.22-.02-.93.49-1.8 1.53-2.59 1.04-.8 2.41-1.21 4.12-1.25 1.58-.03 2.79.28 3.63.94.85.67 1.28 1.5 1.3 2.48l.15 7.25c.01.64.13 1.11.34 1.41.21.31.49.46.82.45.37 0 .75-.17 1.15-.48zm-4.76-5.49c-2.39.38-4.08.95-5.06 1.72-.73.58-1.09 1.39-1.07 2.43.02.73.22 1.29.62 1.69s.9.6 1.53.58c1.11-.02 2.07-.47 2.87-1.33s1.18-1.93 1.16-3.2l-.04-1.9zm6.63-6.36l4.4-.36c.2.83.35 1.8.46 2.91.58-.98 1.26-1.71 2.06-2.21s1.71-.76 2.73-.78c.88-.02 1.62.14 2.22.47s1.09.87 1.46 1.61c.38.74.57 1.57.59 2.49l.13 6.46c0 .48.13.82.35 1.02s.59.29 1.1.28l.93-.02.02 1.06-6.99.15-.02-1.06h.67c.62-.03 1.06-.13 1.3-.34.24-.2.36-.5.35-.9l-.12-5.68c-.03-1.24-.23-2.15-.62-2.73-.55-.84-1.36-1.25-2.43-1.22-1.07.02-1.95.47-2.64 1.34-.7.87-1.03 2-1 3.38l.1 4.91c0 .48.13.82.35 1.02.23.2.59.29 1.1.28l.92-.02.02 1.06-7.02.15-.02-1.06.92-.02c.46 0 .81-.11 1.05-.31a.83.83 0 0 0 .34-.71l-.18-8.57c-.01-.57-.17-.99-.49-1.28s-.76-.42-1.33-.41h-.68l-.02-.91zm31.97 11.15l.53.78c-.67.72-1.43 1.09-2.27 1.11-.64.01-1.19-.15-1.63-.49-.45-.34-.84-.95-1.19-1.82-.88.96-1.65 1.61-2.33 1.94-.67.33-1.48.51-2.44.53-1.36.03-2.4-.24-3.12-.81s-1.09-1.31-1.11-2.23c-.03-1.38.76-2.54 2.36-3.48 1.6-.95 3.74-1.6 6.43-1.95l-.04-2.01c-.02-.72-.32-1.32-.9-1.82-.59-.5-1.32-.74-2.21-.72-.82.02-1.53.2-2.11.55-.42.26-.63.52-.62.76 0 .14.12.36.35.66.28.37.43.7.43 1 0 .43-.12.78-.39 1.05-.27.28-.62.42-1.07.43-.47 0-.87-.14-1.19-.46-.32-.31-.49-.72-.5-1.22-.02-.93.49-1.8 1.52-2.59 1.04-.8 2.41-1.21 4.12-1.25 1.58-.03 2.79.28 3.63.94.84.67 1.28 1.5 1.3 2.48l.15 7.25c.01.64.13 1.11.34 1.41.21.31.49.46.82.45.37 0 .75-.17 1.15-.48zm-4.76-5.49c-2.39.38-4.08.95-5.06 1.72-.73.58-1.09 1.39-1.07 2.43.02.73.22 1.29.62 1.69s.9.6 1.53.58c1.11-.02 2.07-.47 2.87-1.33s1.18-1.93 1.16-3.2l-.04-1.9zm6.37-6.36l5.28-.27.24 11.41c0 .31.09.53.24.66.22.18.5.27.83.27l1.5-.03.02 1.06-7.55.16-.02-1.06 1.4-.03c.42 0 .72-.12.91-.32.19-.21.28-.5.27-.89l-.17-8.35c-.01-.53-.17-.92-.48-1.19-.31-.26-.76-.39-1.35-.38l-1.09.02-.02-1.06zm3.52-7.99c.43 0 .8.14 1.13.46s.5.69.5 1.12c0 .42-.14.79-.44 1.11s-.67.48-1.11.49a1.6 1.6 0 0 1-1.14-.45c-.32-.31-.49-.68-.5-1.1a1.56 1.56 0 0 1 .46-1.13c.31-.33.68-.5 1.09-.5zm5.65 7.8l4.77-.34.11 5.37c.47-1.78 1.06-3.12 1.76-4.04s1.58-1.39 2.63-1.42c.72-.01 1.29.19 1.73.62s.67 1.01.68 1.75c.01.6-.12 1.06-.4 1.4a1.37 1.37 0 0 1-1.07.52c-.43 0-.77-.12-1.04-.4s-.4-.66-.41-1.14c0-.31.06-.61.21-.88.14-.25.2-.4.2-.44 0-.14-.09-.21-.27-.21-.39 0-.82.24-1.3.71-.67.65-1.17 1.52-1.52 2.64-.53 1.73-.79 3.11-.76 4.14l.06 2.85c0 .32.12.56.36.73.23.17.62.24 1.17.23l1.69-.04.02 1.06-8.24.17-.02-1.06 1.32-.03c.44 0 .78-.1 1-.28s.33-.39.33-.64l-.18-8.45c-.01-.64-.16-1.11-.44-1.4s-.67-.43-1.18-.42l-1.16.02-.02-1zm31.47 8.68l.93.25c-.68 2.72-2.27 4.11-4.79 4.17-1.84.04-3.36-.54-4.55-1.73s-1.81-2.8-1.86-4.82c-.05-2.34.56-4.17 1.81-5.48 1.26-1.32 2.75-1.99 4.49-2.03 1.3-.03 2.39.31 3.25 1.01.87.7 1.31 1.49 1.33 2.37.01.53-.14.97-.45 1.32s-.68.53-1.11.54c-.42 0-.79-.13-1.08-.41a1.46 1.46 0 0 1-.46-1.05c0-.41.14-.81.46-1.19.15-.18.22-.32.22-.43 0-.27-.19-.54-.57-.79-.37-.25-.88-.37-1.51-.36-1.15.02-2.02.46-2.59 1.31-.82 1.23-1.22 2.84-1.18 4.83.04 1.89.45 3.32 1.22 4.28.78.96 1.75 1.43 2.92 1.4 1.62-.03 2.79-1.1 3.53-3.19zm2.04-17.06l5.02-.34.21 10.22c.68-.92 1.42-1.61 2.21-2.08a5.11 5.11 0 0 1 2.53-.73c.85-.02 1.62.17 2.31.56.54.31 1 .86 1.39 1.66.39.79.6 1.74.62 2.83l.13 6.3c0 .41.12.7.33.88s.54.26.98.25l1.13-.02.02 1.06-7.16.15-.02-1.06.79-.02c.6-.01 1.02-.12 1.25-.32s.34-.49.33-.88l-.13-6.3c-.02-1.1-.31-1.96-.85-2.57-.55-.61-1.23-.9-2.06-.89-.65.01-1.25.2-1.8.56s-1.01.9-1.38 1.62a4.65 4.65 0 0 0-.53 2.27l.11 5.29c0 .47.12.8.32 1 .2.19.53.29.98.28l1.13-.02.02 1.06-7.01.15-.02-1.06.79-.02c.54-.01.92-.12 1.14-.34.22-.21.33-.55.32-.99l-.33-15.83c-.01-.57-.17-.99-.47-1.26s-.74-.4-1.3-.39l-.96.02-.02-1.06zm30.79 13.77l-9.5.2c.09 2.02.5 3.44 1.22 4.25.83.92 1.87 1.36 3.13 1.34 1.85-.04 3.31-1.12 4.39-3.25l.93.38c-1.32 2.71-3.29 4.09-5.89 4.14-1.77.04-3.28-.57-4.52-1.83s-1.88-2.89-1.92-4.89c-.04-2.15.52-3.9 1.68-5.25 1.17-1.35 2.62-2.04 4.37-2.08 1.28-.03 2.4.28 3.35.92s1.67 1.58 2.17 2.8c.35.86.55 1.95.59 3.27zm-9.52-.81l5.75-.12c.34 0 .6-.13.79-.36.18-.24.27-.63.26-1.19-.02-1.04-.36-1.91-1.02-2.63-.66-.71-1.43-1.06-2.31-1.04-.98.02-1.81.48-2.47 1.37-.67.89-1 2.22-.99 3.97zm29.82 2.99l.93.25c-.68 2.72-2.27 4.11-4.79 4.17-1.84.04-3.36-.54-4.55-1.73s-1.81-2.8-1.86-4.82c-.05-2.34.56-4.17 1.81-5.48 1.26-1.32 2.75-1.99 4.49-2.03 1.3-.03 2.39.31 3.25 1.01.87.7 1.31 1.49 1.33 2.37.01.53-.14.97-.45 1.32s-.68.53-1.11.54c-.42 0-.79-.13-1.08-.41-.3-.29-.45-.63-.46-1.05 0-.41.14-.81.46-1.19.15-.18.22-.32.22-.43 0-.27-.19-.54-.57-.79-.37-.25-.88-.37-1.51-.36-1.15.02-2.02.46-2.59 1.31-.82 1.23-1.22 2.84-1.18 4.83.04 1.89.45 3.32 1.22 4.28.78.96 1.75 1.43 2.92 1.4 1.62-.03 2.79-1.1 3.53-3.19zm8.79-9.91c1.79-.04 3.3.58 4.54 1.84s1.88 2.95 1.93 5.05c.03 1.45-.21 2.7-.74 3.73-.52 1.04-1.28 1.86-2.27 2.47-.99.62-2.07.94-3.23.96-1.72.04-3.19-.58-4.41-1.86s-1.85-2.96-1.9-5.03c-.04-2.09.52-3.79 1.69-5.12s2.63-2.01 4.39-2.05zm.02 1c-1.06.02-1.92.52-2.57 1.49-.66.97-.97 2.49-.93 4.56.04 2.1.41 3.64 1.11 4.59.7.96 1.58 1.42 2.64 1.4 1.11-.02 1.99-.53 2.65-1.51.66-.99.97-2.58.93-4.79-.04-2.05-.41-3.52-1.11-4.42-.69-.9-1.6-1.34-2.73-1.32zm10 7.46c.62 1.62 1.32 2.74 2.09 3.35s1.72.91 2.83.88c1.03-.02 1.82-.26 2.36-.72s.81-1.03.79-1.72a1.71 1.71 0 0 0-.33-1.03c-.21-.29-.5-.51-.86-.65s-1.3-.33-2.81-.58c-1.44-.25-2.45-.53-3.02-.83s-1.02-.72-1.35-1.26-.5-1.13-.51-1.77c-.02-.97.29-1.86.92-2.67.82-1.03 1.99-1.56 3.5-1.59 1.15-.02 2.23.32 3.23 1.02l.92-1.01h.58l.47 4.71-.95.02c-.44-1.33-1.03-2.28-1.75-2.86s-1.6-.85-2.64-.83c-.9.02-1.6.25-2.1.7s-.75.99-.73 1.62c.01.56.26 1.01.74 1.37.47.37 1.38.65 2.74.84l3.08.6c.78.27 1.39.69 1.83 1.27s.67 1.3.68 2.15c.02 1.17-.42 2.17-1.32 3-.91.83-2.07 1.26-3.48 1.29-1.31.03-2.54-.38-3.68-1.23l-1.01 1.21-.75.02-.39-5.27.95-.02zm15.03-14l.95-.02.11 5.41 4.29-.09.03 1.3-4.29.09.18 8.51c.02.74.2 1.3.56 1.68a1.73 1.73 0 0 0 1.34.56c.64-.01 1.18-.32 1.62-.92s.68-1.59.73-2.96l.95-.02c-.02 1.77-.39 3.08-1.12 3.95s-1.69 1.32-2.88 1.34c-1.09.02-1.96-.26-2.59-.85s-.96-1.36-.98-2.34l-.19-8.9-2.31.05-.02-.99c1.05-.2 1.84-.66 2.37-1.37.79-1.06 1.2-2.54 1.23-4.43zm22.16 16.76l.53.78c-.67.72-1.43 1.09-2.27 1.11-.64.01-1.19-.15-1.63-.49-.45-.34-.84-.95-1.19-1.82-.88.96-1.65 1.61-2.33 1.94-.67.33-1.48.51-2.44.53-1.36.03-2.4-.24-3.12-.81s-1.09-1.31-1.11-2.23c-.03-1.38.76-2.54 2.36-3.48 1.6-.95 3.74-1.6 6.43-1.95l-.04-2.01c-.02-.72-.32-1.32-.9-1.82-.59-.5-1.32-.74-2.21-.72-.82.02-1.53.2-2.11.55-.42.26-.63.52-.62.76 0 .14.12.36.35.66.28.37.43.7.43 1 0 .43-.12.78-.39 1.05-.27.28-.62.42-1.07.43-.47 0-.87-.14-1.19-.46-.32-.31-.49-.72-.5-1.22-.02-.93.49-1.8 1.52-2.6 1.04-.79 2.41-1.21 4.12-1.25 1.58-.03 2.79.28 3.63.94.84.67 1.28 1.5 1.3 2.48l.15 7.25c.01.64.13 1.11.34 1.41.21.31.49.46.82.45.37 0 .75-.17 1.15-.48zm-4.76-5.49c-2.39.38-4.08.95-5.06 1.72-.73.58-1.09 1.39-1.07 2.43.02.73.22 1.29.62 1.69s.9.6 1.53.58c1.11-.02 2.07-.47 2.87-1.33s1.18-1.93 1.16-3.2l-.04-1.9zm18.88-6.86a17.75 17.75 0 0 1 .43 2.85c.63-1.05 1.3-1.8 2-2.25.71-.45 1.48-.68 2.33-.7.91-.02 1.78.24 2.61.78.84.54 1.52 1.34 2.06 2.41s.82 2.27.85 3.62c.04 2.16-.55 3.93-1.78 5.32-1.02 1.15-2.26 1.75-3.72 1.78a4.09 4.09 0 0 1-2.26-.59c-.68-.41-1.28-1.03-1.82-1.86l.11 5.37c0 .42.11.71.32.87.26.22.62.33 1.07.32l.98-.02.02 1-7.09.15-.02-1 .98-.02c.45 0 .79-.11 1.01-.29s.33-.42.33-.72l-.29-13.96c-.01-.65-.18-1.11-.5-1.37s-.94-.4-1.88-.41l-.02-.95 4.29-.33zm4.14 1.2c-1.03.02-1.89.54-2.58 1.54s-1.02 2.45-.98 4.33c.04 1.9.41 3.29 1.12 4.18s1.59 1.33 2.66 1.3c1-.02 1.76-.42 2.28-1.21.67-1.03.98-2.53.94-4.5-.04-2.06-.38-3.52-1.02-4.38-.64-.87-1.44-1.29-2.41-1.27zm14.56-1.74c1.79-.04 3.3.58 4.54 1.84s1.88 2.95 1.93 5.05c.03 1.45-.21 2.7-.74 3.73-.52 1.04-1.28 1.86-2.27 2.48s-2.07.94-3.23.96c-1.72.04-3.19-.58-4.41-1.86s-1.85-2.95-1.9-5.03c-.04-2.09.52-3.79 1.69-5.12s2.63-2.01 4.39-2.04zm.02 1c-1.06.02-1.92.52-2.57 1.49-.66.97-.97 2.49-.93 4.56.04 2.1.41 3.64 1.11 4.59.7.96 1.58 1.42 2.64 1.4 1.11-.02 1.99-.53 2.65-1.51.66-.99.97-2.58.93-4.79-.04-2.05-.41-3.52-1.1-4.42s-1.6-1.34-2.73-1.32zm18.56 8.34l.93.25c-.68 2.72-2.28 4.11-4.79 4.17-1.84.04-3.36-.54-4.55-1.73-1.2-1.19-1.82-2.8-1.86-4.82-.05-2.34.56-4.17 1.81-5.48 1.26-1.32 2.75-1.99 4.49-2.03 1.3-.03 2.39.31 3.25 1.01.87.7 1.31 1.49 1.33 2.37.01.53-.14.97-.45 1.32s-.68.53-1.12.54c-.42 0-.79-.13-1.08-.41-.3-.29-.45-.64-.46-1.05 0-.41.14-.81.46-1.19.15-.18.22-.33.22-.43 0-.27-.19-.54-.57-.79-.37-.25-.88-.37-1.51-.36-1.15.02-2.02.46-2.59 1.31-.82 1.23-1.22 2.84-1.18 4.83.04 1.89.45 3.32 1.22 4.28.78.96 1.75 1.43 2.92 1.4 1.62-.03 2.79-1.1 3.53-3.19zm8.78-9.91c1.79-.04 3.3.58 4.54 1.84s1.88 2.95 1.93 5.05c.03 1.45-.21 2.7-.74 3.73-.52 1.04-1.28 1.86-2.27 2.48s-2.07.94-3.23.96c-1.72.04-3.19-.58-4.41-1.86s-1.85-2.95-1.9-5.03c-.04-2.09.52-3.79 1.69-5.12s2.63-2.01 4.39-2.04zm.02 1c-1.06.02-1.92.52-2.57 1.49-.66.97-.97 2.49-.93 4.56.04 2.1.41 3.64 1.11 4.59s1.58 1.42 2.64 1.4c1.11-.02 1.99-.53 2.65-1.51.66-.99.97-2.58.93-4.79-.04-2.05-.41-3.52-1.1-4.42s-1.6-1.34-2.73-1.32zm10.04 17.38l-.52-.67c1.79-1.42 2.68-2.66 2.66-3.71 0-.15-.03-.26-.08-.33s-.13-.1-.24-.1l-.31.06a2.81 2.81 0 0 1-.44.05c-.42 0-.8-.15-1.12-.47a1.68 1.68 0 0 1-.5-1.19c0-.46.14-.86.46-1.18.31-.33.72-.5 1.22-.51a1.96 1.96 0 0 1 1.57.7c.43.48.65 1.13.67 1.97.04 1.84-1.08 3.63-3.36 5.38zm-284.8 34.36l.53.78c-.67.72-1.43 1.09-2.27 1.11-.64.01-1.19-.15-1.63-.49-.45-.34-.84-.95-1.19-1.82-.88.96-1.65 1.61-2.33 1.94-.67.33-1.49.51-2.44.53-1.36.03-2.4-.24-3.12-.81s-1.09-1.31-1.11-2.23c-.03-1.38.76-2.54 2.36-3.48 1.6-.95 3.74-1.6 6.42-1.95l-.04-2.01c-.01-.72-.31-1.33-.9-1.82-.59-.5-1.32-.74-2.21-.72-.82.02-1.53.2-2.11.55-.42.26-.63.52-.62.76 0 .14.12.36.35.66.28.37.42.7.43 1 0 .43-.12.78-.39 1.05-.27.28-.62.42-1.07.43-.47 0-.87-.14-1.19-.46-.32-.31-.49-.72-.5-1.22-.02-.93.49-1.8 1.53-2.6s2.41-1.21 4.12-1.25c1.58-.03 2.79.28 3.63.94.85.67 1.28 1.5 1.3 2.48l.15 7.25c.01.64.13 1.11.34 1.41.21.31.49.46.82.45.37 0 .75-.17 1.15-.48zm-4.76-5.5c-2.39.38-4.08.95-5.06 1.72-.73.58-1.09 1.39-1.07 2.43.02.73.22 1.29.62 1.69s.9.6 1.53.58c1.11-.02 2.07-.46 2.87-1.33.8-.86 1.18-1.93 1.16-3.2l-.04-1.9zm6.77-6.35l4.4-.36c.2.83.35 1.8.46 2.91.58-.97 1.26-1.71 2.06-2.21s1.71-.76 2.72-.78c.88-.02 1.62.14 2.22.47s1.09.87 1.46 1.61c.38.74.57 1.57.59 2.5l.13 6.46c0 .48.12.82.35 1.02.22.2.59.29 1.1.28l.93-.02.02 1.06-6.99.15-.02-1.06h.67c.62-.03 1.05-.13 1.3-.34.24-.2.36-.5.35-.9l-.12-5.68c-.03-1.24-.23-2.15-.62-2.73-.55-.84-1.36-1.25-2.43-1.22-1.07.02-1.95.47-2.64 1.34s-1.03 2-1 3.38l.1 4.91c0 .48.13.82.35 1.02.23.2.59.29 1.1.28l.92-.02.02 1.06-7.02.15-.02-1.06.92-.02c.46 0 .81-.11 1.05-.3s.35-.43.35-.71l-.18-8.57c-.01-.57-.17-.99-.49-1.28-.31-.29-.76-.42-1.33-.41h-.68l-.02-.91zm28.19 8.74l.92.25c-.68 2.72-2.27 4.11-4.79 4.17-1.84.04-3.36-.54-4.55-1.73s-1.81-2.8-1.86-4.82c-.05-2.34.56-4.17 1.81-5.48 1.26-1.32 2.75-1.99 4.49-2.03 1.3-.03 2.39.31 3.25 1.01s1.31 1.49 1.32 2.37c.01.53-.14.97-.45 1.32s-.68.53-1.11.54c-.42 0-.79-.13-1.08-.41-.3-.29-.45-.64-.46-1.05 0-.41.14-.81.46-1.19.15-.18.22-.33.22-.43 0-.27-.2-.54-.57-.79s-.88-.37-1.51-.36c-1.15.02-2.02.46-2.59 1.31-.82 1.23-1.22 2.84-1.17 4.83s.45 3.32 1.22 4.28c.78.96 1.75 1.43 2.92 1.4 1.62-.03 2.79-1.1 3.53-3.19zm2.18-17.05l5.02-.34.21 10.22c.68-.92 1.42-1.61 2.21-2.08a5.22 5.22 0 0 1 2.54-.73c.85-.02 1.62.17 2.31.56.54.31 1 .86 1.39 1.66.39.79.6 1.74.62 2.83l.13 6.3c0 .41.12.7.33.88s.54.26.98.25l1.13-.02.02 1.06-7.16.15-.02-1.06.79-.02c.6-.01 1.02-.12 1.25-.32s.34-.49.33-.88l-.13-6.3c-.02-1.1-.31-1.96-.85-2.57a2.54 2.54 0 0 0-2.06-.88c-.65.01-1.25.2-1.8.56s-1.01.9-1.38 1.62a4.65 4.65 0 0 0-.53 2.27l.11 5.29c0 .47.12.81.32 1s.53.29.98.28l1.13-.02.02 1.06-7.01.15-.02-1.06.79-.02c.54-.01.92-.12 1.14-.34s.33-.55.32-.99l-.33-15.83c-.01-.57-.17-.98-.47-1.26-.3-.27-.74-.4-1.3-.39l-.96.02-.02-1.06zm30.94 13.76l-9.5.2c.09 2.02.5 3.44 1.22 4.25.83.92 1.87 1.36 3.13 1.34 1.85-.04 3.31-1.12 4.39-3.25l.93.38c-1.32 2.71-3.29 4.09-5.89 4.14-1.77.04-3.28-.57-4.52-1.83s-1.88-2.89-1.92-4.89c-.04-2.15.52-3.9 1.68-5.25 1.17-1.35 2.62-2.04 4.37-2.08 1.28-.03 2.4.28 3.35.92s1.67 1.58 2.17 2.8c.35.86.55 1.95.59 3.27zm-9.52-.81l5.75-.12c.34 0 .6-.13.79-.36.18-.24.27-.63.26-1.19-.02-1.04-.36-1.91-1.02-2.63-.66-.71-1.43-1.06-2.31-1.04-.98.02-1.8.48-2.47 1.37s-1 2.22-.99 3.97zm21.55 2.1c.62 1.62 1.32 2.74 2.09 3.35s1.72.91 2.83.88c1.03-.02 1.82-.26 2.36-.72s.81-1.03.79-1.72a1.71 1.71 0 0 0-.33-1.03c-.21-.29-.5-.51-.86-.65s-1.3-.33-2.81-.58c-1.44-.25-2.45-.53-3.02-.83s-1.02-.72-1.35-1.26-.5-1.13-.51-1.77c-.02-.97.29-1.86.92-2.67.82-1.03 1.99-1.56 3.5-1.59 1.15-.02 2.23.32 3.23 1.02l.92-1.01h.58l.47 4.71-.95.02c-.44-1.33-1.03-2.28-1.75-2.86s-1.6-.85-2.64-.83c-.9.02-1.6.25-2.1.7s-.75.99-.73 1.62c.01.56.26 1.01.74 1.37.47.37 1.39.65 2.74.84l3.08.6c.78.27 1.39.69 1.83 1.27s.67 1.3.68 2.14c.02 1.17-.42 2.17-1.32 3s-2.07 1.26-3.48 1.29c-1.31.03-2.54-.38-3.68-1.23l-1.01 1.21-.75.02-.39-5.27.95-.02zm24.38-2.05l-9.5.2c.09 2.02.5 3.44 1.22 4.25.83.92 1.87 1.36 3.13 1.34 1.85-.04 3.31-1.12 4.39-3.25l.93.38c-1.32 2.71-3.29 4.09-5.89 4.14-1.77.04-3.28-.57-4.52-1.83s-1.88-2.89-1.92-4.89c-.04-2.15.51-3.9 1.68-5.25s2.62-2.04 4.37-2.08c1.28-.03 2.4.28 3.35.92s1.67 1.58 2.17 2.8c.35.86.55 1.95.59 3.27zm-9.52-.81l5.75-.12c.34 0 .6-.13.78-.36.18-.24.27-.63.26-1.19-.02-1.04-.36-1.91-1.02-2.63-.66-.71-1.43-1.06-2.31-1.04-.98.02-1.8.48-2.47 1.37s-1 2.22-.99 3.97zm19.77-6.13l4.4-.36c.2.83.35 1.8.46 2.91.58-.98 1.26-1.71 2.06-2.21s1.7-.76 2.72-.78c.88-.02 1.62.14 2.22.47s1.09.87 1.46 1.61c.38.74.57 1.57.59 2.49l.13 6.46c0 .48.12.82.35 1.02.22.2.59.29 1.1.28l.93-.02.02 1.06-6.99.15-.02-1.06h.67c.62-.03 1.06-.13 1.3-.34.24-.2.36-.5.35-.9l-.12-5.68c-.03-1.24-.23-2.15-.62-2.73-.55-.84-1.36-1.25-2.43-1.22-1.07.02-1.95.47-2.64 1.34s-1.03 2-1 3.38l.1 4.91c0 .48.13.82.35 1.02.23.2.59.29 1.1.28l.92-.02.02 1.06-7.02.15-.02-1.06.92-.02c.46 0 .81-.11 1.05-.31.24-.19.35-.43.35-.71l-.18-8.57c-.01-.57-.17-.99-.49-1.28-.31-.29-.76-.42-1.33-.41h-.68l-.02-.91zm24.11-.9c1.79-.04 3.3.58 4.54 1.84s1.88 2.95 1.93 5.05c.03 1.45-.22 2.7-.74 3.73a6.07 6.07 0 0 1-2.27 2.47c-.99.62-2.07.94-3.23.96-1.72.04-3.19-.58-4.41-1.86s-1.85-2.96-1.9-5.03c-.04-2.09.52-3.79 1.69-5.12s2.63-2.01 4.39-2.05zm.02 1c-1.06.02-1.92.52-2.58 1.49s-.97 2.49-.92 4.56c.04 2.1.41 3.63 1.11 4.59.69.96 1.58 1.42 2.64 1.4 1.11-.02 1.99-.53 2.65-1.51s.97-2.58.93-4.79c-.04-2.05-.41-3.52-1.11-4.42-.69-.9-1.6-1.34-2.73-1.32zm8.37-.78l4.4-.36c.2.83.35 1.8.46 2.91.58-.98 1.26-1.71 2.06-2.21s1.7-.76 2.72-.78c.88-.02 1.62.14 2.22.47s1.09.87 1.46 1.61c.38.74.57 1.57.59 2.49l.13 6.46c0 .48.12.82.35 1.02.22.2.59.29 1.1.28l.93-.02.02 1.06-6.99.15-.02-1.06h.67c.62-.03 1.06-.13 1.3-.34.24-.2.36-.5.35-.9l-.12-5.68c-.03-1.24-.23-2.15-.62-2.73-.55-.84-1.36-1.25-2.43-1.22-1.07.02-1.95.47-2.64 1.34s-1.03 2-1 3.38l.1 4.91c0 .48.13.82.35 1.02.23.2.59.29 1.1.28l.92-.02.02 1.06-7.02.15-.02-1.06.92-.02c.46 0 .81-.11 1.05-.3s.35-.43.35-.71l-.18-8.57c-.01-.57-.17-.99-.49-1.28-.31-.29-.76-.42-1.33-.41h-.68l-.02-.91zm40.32 10.97l.53.78c-.67.72-1.43 1.09-2.27 1.11-.64.01-1.19-.15-1.63-.49-.45-.34-.84-.95-1.19-1.82-.88.96-1.65 1.61-2.33 1.94-.67.33-1.49.51-2.44.53-1.36.03-2.4-.24-3.12-.81s-1.09-1.31-1.11-2.23c-.03-1.38.76-2.54 2.36-3.48s3.74-1.6 6.42-1.95l-.04-2.01c-.01-.72-.31-1.33-.9-1.82-.59-.5-1.32-.74-2.21-.72-.82.02-1.53.2-2.11.55-.42.26-.63.52-.62.76 0 .14.12.36.35.66.28.37.43.7.43 1 0 .43-.12.78-.39 1.05-.27.28-.62.42-1.07.43-.47 0-.87-.14-1.19-.46-.32-.31-.49-.72-.5-1.22-.02-.93.49-1.8 1.53-2.6s2.41-1.21 4.12-1.25c1.58-.03 2.79.28 3.63.94.85.67 1.28 1.5 1.3 2.48l.15 7.25c.01.64.13 1.11.34 1.41.21.31.49.46.82.45.37 0 .75-.17 1.15-.48zm-4.76-5.5c-2.39.38-4.08.95-5.06 1.72-.73.58-1.09 1.39-1.07 2.43.02.73.22 1.29.62 1.69s.91.6 1.53.58c1.11-.02 2.07-.46 2.87-1.33.8-.86 1.18-1.93 1.16-3.2l-.04-1.9zm6.56-6.35l4.76-.34.11 5.37c.47-1.77 1.06-3.12 1.76-4.04s1.58-1.39 2.63-1.41c.72-.02 1.29.19 1.73.62s.67 1.01.68 1.75c.01.6-.12 1.06-.4 1.4a1.37 1.37 0 0 1-1.07.52c-.43 0-.77-.12-1.04-.4s-.4-.66-.41-1.14c0-.31.06-.61.21-.88.14-.25.2-.4.2-.44 0-.14-.09-.21-.27-.21-.39 0-.82.24-1.3.71-.67.65-1.17 1.53-1.52 2.64-.53 1.73-.79 3.11-.76 4.14l.06 2.85c0 .32.12.56.36.73.23.17.62.24 1.17.23l1.69-.04.02 1.06-8.24.17-.02-1.06 1.32-.03c.44 0 .78-.1 1-.28s.33-.39.33-.64l-.18-8.45c-.01-.64-.16-1.11-.44-1.4s-.67-.43-1.18-.42l-1.16.02-.02-1zm13.01-.27l4.76-.34.11 5.37c.47-1.77 1.06-3.12 1.76-4.04s1.58-1.39 2.63-1.42c.72-.02 1.29.19 1.73.62s.67 1.01.68 1.75c.01.6-.12 1.06-.4 1.4a1.37 1.37 0 0 1-1.07.52c-.42 0-.77-.13-1.04-.4s-.4-.66-.41-1.14c0-.31.06-.61.21-.88.14-.25.2-.4.2-.44 0-.14-.09-.21-.27-.21-.39 0-.82.24-1.3.71-.67.65-1.17 1.53-1.52 2.64-.53 1.73-.78 3.11-.76 4.14l.06 2.85c0 .32.12.56.35.73s.62.24 1.17.23l1.69-.04.02 1.06-8.24.17-.02-1.06 1.32-.03c.44 0 .78-.1 1-.28s.33-.39.33-.64l-.18-8.45c-.01-.64-.16-1.11-.44-1.4s-.67-.43-1.18-.42l-1.16.02-.02-1zm12.97-.27l5.28-.27.24 11.41c0 .31.09.53.24.66.22.19.5.27.83.27l1.5-.03.02 1.06-7.55.16-.02-1.06 1.4-.03c.42 0 .72-.12.91-.32.19-.21.28-.5.27-.89l-.17-8.35c-.01-.53-.17-.92-.48-1.19-.31-.26-.76-.39-1.35-.38l-1.09.02-.02-1.06zm3.52-7.99c.43 0 .8.14 1.13.46s.5.69.5 1.12c0 .42-.14.8-.44 1.11-.3.32-.67.48-1.11.49s-.81-.14-1.14-.45c-.32-.31-.49-.68-.5-1.1a1.56 1.56 0 0 1 .46-1.13c.31-.33.68-.5 1.09-.5zm5.43 7.8l6.53-.14.02.96c-.87.04-1.42.13-1.66.27s-.35.34-.35.59c0 .21.06.42.16.62l3.68 7.76 3.04-7.66a1.08 1.08 0 0 0 .06-.4c-.01-.69-.7-1.1-2.06-1.24l-.02-.96 5.49-.11.02.96c-.55.07-1 .23-1.32.48-.33.25-.57.59-.74 1.01l-4.63 11.36-.76.02-5.46-11.46c-.2-.41-.43-.7-.7-.86s-.7-.24-1.27-.24l-.02-.96zm30.56 11.18l.53.78c-.67.72-1.43 1.09-2.27 1.11-.64.01-1.19-.15-1.63-.49-.45-.34-.84-.94-1.19-1.82-.88.96-1.65 1.61-2.33 1.94-.67.33-1.49.5-2.44.53-1.36.03-2.4-.24-3.12-.81s-1.09-1.31-1.11-2.23c-.03-1.38.76-2.54 2.36-3.48 1.6-.95 3.74-1.6 6.42-1.95l-.04-2.01c-.01-.72-.31-1.33-.9-1.82-.59-.5-1.32-.74-2.21-.72-.82.02-1.53.2-2.11.55-.42.26-.63.52-.62.76 0 .14.12.36.35.66.28.37.43.7.43 1 0 .43-.12.78-.39 1.05-.27.28-.62.42-1.07.43-.47 0-.87-.14-1.19-.46-.32-.31-.49-.72-.5-1.22-.02-.93.49-1.8 1.52-2.6 1.04-.79 2.41-1.21 4.12-1.25 1.58-.03 2.79.28 3.63.94.85.67 1.28 1.5 1.3 2.48l.15 7.25c.01.64.13 1.11.34 1.41.21.31.49.46.82.45.37 0 .75-.17 1.15-.48zm-4.76-5.5c-2.39.38-4.08.95-5.06 1.72-.73.58-1.09 1.39-1.07 2.43.02.73.22 1.29.62 1.69s.91.6 1.53.58c1.11-.02 2.07-.47 2.87-1.33s1.18-1.93 1.16-3.2l-.04-1.9zM76.79 931.11a17.75 17.75 0 0 1 .43 2.85c.63-1.05 1.3-1.8 2-2.25.71-.45 1.48-.68 2.33-.7.91-.02 1.78.24 2.61.78.84.54 1.52 1.34 2.06 2.41s.82 2.27.85 3.62c.04 2.16-.55 3.93-1.78 5.32-1.02 1.16-2.26 1.75-3.72 1.78a4.09 4.09 0 0 1-2.26-.59c-.68-.41-1.28-1.03-1.82-1.86l.11 5.37c0 .42.11.71.32.87.26.22.62.33 1.07.32l.98-.02.02 1-7.09.15-.02-1 .98-.02c.45 0 .79-.11 1.01-.29s.33-.42.32-.72l-.29-13.96c-.01-.65-.18-1.11-.5-1.37s-.94-.4-1.88-.41l-.02-.95 4.28-.33zm4.14 1.2c-1.03.02-1.89.54-2.58 1.54s-1.02 2.45-.98 4.33c.04 1.9.41 3.29 1.12 4.18s1.59 1.33 2.66 1.3c1-.02 1.76-.42 2.28-1.21.67-1.03.98-2.53.94-4.5-.04-2.06-.38-3.52-1.02-4.38-.64-.87-1.44-1.29-2.41-1.27z"/><use xlink:href="#I"/><path d="M108.07 930.3c1.79-.04 3.3.57 4.54 1.84 1.24 1.26 1.88 2.95 1.93 5.05.03 1.45-.22 2.7-.74 3.73-.52 1.04-1.28 1.86-2.27 2.48s-2.07.93-3.23.96c-1.72.04-3.19-.58-4.41-1.86s-1.85-2.95-1.9-5.03c-.04-2.09.52-3.79 1.69-5.12a5.75 5.75 0 0 1 4.39-2.04zm.02 1c-1.06.02-1.92.52-2.57 1.49-.66.97-.97 2.49-.92 4.56.04 2.11.41 3.64 1.11 4.59.7.96 1.58 1.43 2.64 1.4 1.11-.02 1.99-.53 2.65-1.51.67-.99.97-2.58.93-4.79-.04-2.05-.41-3.52-1.1-4.42s-1.6-1.34-2.73-1.32zm12.28-1.1a17.75 17.75 0 0 1 .43 2.85c.63-1.05 1.3-1.8 2-2.25.71-.45 1.48-.68 2.33-.7.9-.02 1.77.24 2.61.78s1.52 1.34 2.06 2.41.82 2.27.85 3.62c.04 2.16-.55 3.93-1.78 5.32-1.02 1.15-2.26 1.75-3.72 1.78a4.09 4.09 0 0 1-2.26-.59c-.68-.41-1.28-1.03-1.82-1.86l.11 5.37c0 .42.11.71.32.87.26.22.62.33 1.07.32l.98-.02.02 1-7.09.15-.02-1 .98-.02c.45 0 .79-.11 1.01-.29s.33-.42.32-.72l-.29-13.96c-.01-.65-.18-1.11-.5-1.37s-.94-.4-1.88-.41l-.02-.95 4.28-.33zm4.14 1.2c-1.03.02-1.89.54-2.58 1.54s-1.01 2.45-.98 4.33c.04 1.9.41 3.29 1.12 4.18s1.59 1.33 2.66 1.3c1-.02 1.76-.42 2.28-1.21.67-1.03.98-2.53.94-4.5-.04-2.06-.38-3.52-1.02-4.38s-1.44-1.29-2.41-1.27zm7.95-1.21l4.77-.34.11 5.36c.47-1.77 1.06-3.12 1.76-4.04s1.58-1.39 2.63-1.41c.72-.01 1.29.19 1.73.62s.67 1.01.68 1.75c.01.6-.12 1.06-.4 1.4a1.37 1.37 0 0 1-1.07.52c-.43 0-.77-.13-1.04-.4-.27-.28-.4-.66-.41-1.14 0-.31.06-.61.21-.88.13-.25.2-.4.2-.44 0-.14-.09-.21-.27-.21-.39 0-.82.24-1.3.71-.67.65-1.17 1.52-1.52 2.64-.53 1.73-.79 3.11-.76 4.14l.06 2.85c0 .32.12.56.35.73s.62.24 1.17.23l1.69-.04.02 1.06-8.24.17-.02-1.06 1.32-.03c.44 0 .78-.1 1-.28s.33-.39.33-.64l-.18-8.45c-.01-.64-.16-1.11-.44-1.4s-.67-.43-1.18-.42l-1.16.02-.02-1zm12.69-.26l5.28-.27.24 11.41c0 .31.09.53.24.66.22.18.5.27.83.27l1.5-.03.02 1.06-7.55.16-.02-1.06 1.4-.03c.42 0 .72-.12.91-.32.19-.21.28-.5.27-.89l-.17-8.35c-.01-.53-.17-.92-.48-1.19-.31-.26-.76-.39-1.35-.38l-1.09.02-.02-1.06zm3.52-7.99c.43 0 .8.14 1.13.46.33.31.5.69.5 1.12 0 .42-.14.8-.45 1.11-.3.32-.67.48-1.11.49a1.56 1.56 0 0 1-1.13-.45c-.32-.31-.49-.68-.5-1.1a1.56 1.56 0 0 1 .46-1.13c.31-.33.68-.5 1.09-.5zm11.97 7.27c1.78-.04 3.3.57 4.54 1.84 1.24 1.26 1.88 2.95 1.93 5.05.03 1.45-.22 2.7-.74 3.73-.52 1.04-1.28 1.86-2.27 2.48s-2.07.93-3.23.96c-1.72.04-3.19-.58-4.41-1.86s-1.85-2.95-1.9-5.03c-.04-2.09.52-3.79 1.69-5.12s2.63-2.01 4.39-2.04zm.02 1c-1.06.02-1.92.52-2.58 1.49s-.97 2.49-.92 4.56c.04 2.11.41 3.64 1.11 4.59.7.96 1.58 1.43 2.64 1.4 1.1-.02 1.99-.53 2.65-1.51.67-.99.97-2.58.93-4.79-.04-2.05-.41-3.52-1.1-4.42s-1.6-1.34-2.73-1.32zm15.73-.94l5.28-.27.24 11.41c0 .31.09.53.24.66.22.18.5.27.83.27l1.5-.03.02 1.06-7.55.16-.02-1.06 1.4-.03c.42 0 .72-.12.91-.32.19-.21.28-.5.27-.89l-.17-8.35c-.01-.53-.17-.92-.48-1.19-.31-.26-.76-.39-1.35-.38l-1.09.02-.02-1.06zm3.52-7.99c.43 0 .8.14 1.13.46.33.31.5.69.5 1.12 0 .42-.14.8-.45 1.11-.3.32-.67.48-1.11.49a1.6 1.6 0 0 1-1.14-.45c-.32-.31-.49-.68-.5-1.1a1.56 1.56 0 0 1 .46-1.13c.31-.33.68-.5 1.09-.5zm5.72 7.8l4.4-.36c.2.83.35 1.8.46 2.91.57-.98 1.26-1.71 2.06-2.21s1.71-.76 2.73-.78c.88-.02 1.62.14 2.22.47s1.09.87 1.46 1.61c.38.74.57 1.57.59 2.49l.13 6.46c.01.48.13.82.35 1.02s.59.29 1.1.28l.93-.02.02 1.06-6.99.15-.02-1.06h.67c.62-.03 1.06-.13 1.29-.34.24-.2.36-.5.35-.9l-.12-5.68c-.03-1.24-.23-2.15-.62-2.73-.55-.84-1.36-1.25-2.43-1.22-1.07.02-1.95.47-2.64 1.34-.7.87-1.03 2-1 3.38l.1 4.91c.01.48.13.82.35 1.02.23.2.59.29 1.1.28l.92-.02.02 1.06-7.02.15-.02-1.06.92-.02c.46 0 .81-.11 1.05-.31.24-.19.35-.43.35-.71l-.18-8.57c-.01-.57-.17-.99-.49-1.28-.31-.29-.76-.42-1.33-.41h-.68l-.02-.91zm35.81 8.59l.93.25c-.68 2.73-2.28 4.11-4.79 4.17-1.84.04-3.36-.54-4.55-1.73-1.2-1.19-1.82-2.8-1.86-4.82-.05-2.34.56-4.17 1.81-5.48 1.26-1.32 2.75-1.99 4.49-2.03 1.3-.03 2.38.31 3.25 1.01.86.7 1.31 1.49 1.33 2.37.01.53-.14.97-.45 1.32s-.68.53-1.12.54c-.42 0-.79-.13-1.09-.42a1.42 1.42 0 0 1-.46-1.05c0-.41.14-.81.46-1.19.15-.18.22-.33.22-.43 0-.27-.2-.54-.57-.79s-.88-.37-1.51-.36c-1.15.02-2.02.46-2.59 1.31-.82 1.24-1.22 2.85-1.17 4.83.04 1.9.45 3.32 1.22 4.28.78.96 1.75 1.43 2.92 1.4 1.61-.03 2.79-1.1 3.53-3.19zm14.98-2.92l-9.5.2c.09 2.02.5 3.44 1.22 4.25.83.92 1.87 1.36 3.13 1.34 1.85-.04 3.31-1.12 4.39-3.25l.93.38c-1.32 2.71-3.29 4.09-5.89 4.14-1.77.04-3.28-.57-4.52-1.83s-1.88-2.89-1.92-4.89c-.04-2.15.52-3.9 1.68-5.25 1.17-1.35 2.62-2.04 4.37-2.08 1.28-.03 2.4.28 3.35.92s1.67 1.58 2.17 2.8c.35.86.55 1.95.59 3.27zm-9.52-.81l5.75-.12c.34 0 .6-.13.79-.36.18-.24.27-.63.26-1.19-.02-1.04-.36-1.92-1.03-2.63-.66-.71-1.43-1.06-2.31-1.04-.98.02-1.81.48-2.47 1.37-.67.89-.99 2.22-.99 3.97zm11.29-5.95l4.4-.36c.2.83.35 1.79.46 2.91.57-.98 1.26-1.71 2.06-2.21s1.7-.76 2.72-.78c.88-.02 1.62.14 2.22.47s1.09.87 1.46 1.61c.38.74.57 1.57.59 2.5l.13 6.46c.01.48.13.82.35 1.02s.59.29 1.1.28l.93-.02.02 1.06-6.99.15-.02-1.06h.67c.62-.03 1.06-.13 1.3-.34.24-.2.36-.5.35-.9l-.12-5.68c-.03-1.24-.23-2.15-.62-2.73-.55-.84-1.36-1.25-2.43-1.22-1.07.02-1.95.47-2.64 1.34-.7.87-1.03 2-1 3.38l.1 4.91c.01.48.13.82.35 1.02.23.2.59.29 1.1.28l.92-.02.02 1.06-7.02.15-.02-1.06.92-.02c.46 0 .81-.11 1.05-.3s.35-.43.35-.71l-.18-8.57c-.01-.57-.17-.99-.49-1.28-.31-.29-.76-.42-1.33-.41h-.68l-.02-.91zm20.94-5.85l.95-.02.11 5.41 4.29-.09.03 1.3-4.29.09.18 8.51c.01.74.2 1.3.56 1.68s.8.57 1.34.56c.64-.01 1.18-.32 1.62-.93.44-.6.69-1.59.73-2.96l.95-.02c-.02 1.77-.39 3.08-1.12 3.95s-1.69 1.32-2.88 1.34c-1.09.02-1.96-.26-2.59-.85s-.96-1.37-.98-2.34l-.19-8.9-2.31.05-.02-.99c1.05-.2 1.84-.66 2.37-1.37.79-1.06 1.2-2.54 1.23-4.43zm7.55 5.25l4.77-.34.11 5.36c.47-1.77 1.06-3.12 1.76-4.04s1.58-1.39 2.63-1.41c.72-.01 1.29.19 1.73.62s.67 1.01.68 1.75c.01.6-.12 1.06-.4 1.4a1.37 1.37 0 0 1-1.07.52c-.42 0-.77-.12-1.04-.4s-.4-.66-.41-1.14c0-.31.06-.61.21-.88.13-.25.2-.4.2-.44 0-.14-.09-.21-.27-.21-.39 0-.82.24-1.3.71-.67.65-1.17 1.53-1.52 2.64-.53 1.73-.78 3.11-.76 4.14l.06 2.85c0 .32.12.56.35.73s.62.24 1.17.23l1.69-.04.02 1.06-8.24.17-.02-1.06 1.32-.03c.44 0 .78-.1 1-.28s.33-.39.33-.64l-.18-8.45c-.01-.64-.16-1.11-.44-1.4s-.67-.43-1.18-.42l-1.16.02-.02-1zm19.18-.79c1.79-.04 3.3.57 4.54 1.84 1.24 1.26 1.88 2.95 1.93 5.05.03 1.45-.22 2.7-.74 3.73-.52 1.04-1.28 1.86-2.27 2.48s-2.07.93-3.23.96c-1.72.04-3.19-.58-4.41-1.86s-1.85-2.95-1.9-5.03c-.04-2.09.52-3.79 1.69-5.12a5.75 5.75 0 0 1 4.39-2.04zm.02 1c-1.06.02-1.92.52-2.57 1.49-.66.97-.97 2.49-.92 4.56.04 2.11.41 3.64 1.11 4.59.7.96 1.58 1.43 2.64 1.4 1.11-.02 1.99-.53 2.65-1.51.66-.99.97-2.58.93-4.79-.04-2.05-.41-3.52-1.1-4.42s-1.6-1.34-2.73-1.32zm16.81-.96l3.79-.32a21.96 21.96 0 0 1 .47 2.81c.7-1.05 1.4-1.79 2.11-2.23s1.5-.67 2.36-.68c.92-.02 1.68.21 2.28.67.61.47 1.08 1.24 1.42 2.31.61-1.04 1.3-1.82 2.06-2.34s1.6-.79 2.52-.81c1.21-.03 2.12.31 2.74 1.02.79.93 1.2 2.14 1.24 3.63l.14 6.58c0 .4.11.66.31.8.27.21.66.31 1.18.3h.67l.02 1.05-6.67.14-.02-1.06h.67c.57-.03.96-.13 1.18-.32s.33-.48.32-.86l-.14-6.59c-.02-.98-.28-1.74-.77-2.27s-1.13-.79-1.91-.77c-.59.01-1.13.18-1.6.51s-.84.79-1.1 1.38c-.39.85-.58 1.57-.56 2.15l.12 5.71c0 .39.12.67.33.85s.53.26.97.26l.91-.02.02 1.06-6.77.14-.02-1.06.76-.02c.48-.01.84-.11 1.07-.31a.91.91 0 0 0 .34-.73l-.13-6.12c-.03-1.29-.28-2.23-.75-2.8-.47-.58-1.09-.86-1.87-.84-1 .02-1.76.38-2.29 1.07-.75.98-1.1 2.11-1.08 3.39l.11 5.29c0 .41.1.68.29.83.26.19.66.28 1.2.27h.68l.02 1.05-6.68.14-.02-1.06 1-.02c.38 0 .67-.11.87-.3a.93.93 0 0 0 .29-.73l-.18-8.69c-.01-.48-.14-.84-.39-1.07s-.75-.37-1.48-.42l-.02-.98zm39.08 11l.53.78c-.67.72-1.43 1.09-2.27 1.11-.64.01-1.19-.15-1.63-.49-.45-.34-.84-.95-1.19-1.82-.88.96-1.65 1.61-2.33 1.94s-1.49.5-2.44.53c-1.36.03-2.4-.24-3.12-.81s-1.09-1.31-1.11-2.23c-.03-1.38.76-2.54 2.36-3.48 1.6-.95 3.74-1.6 6.42-1.95l-.04-2.01c-.01-.72-.31-1.33-.9-1.82-.59-.5-1.32-.74-2.21-.72-.82.02-1.53.2-2.11.55-.42.26-.63.52-.62.76 0 .14.12.36.35.66.28.37.43.7.43 1 0 .43-.12.77-.39 1.05s-.62.42-1.07.43c-.47 0-.87-.14-1.19-.46-.32-.31-.49-.72-.5-1.22-.02-.93.49-1.8 1.53-2.6 1.04-.79 2.41-1.21 4.12-1.25 1.58-.03 2.79.28 3.63.94.84.67 1.28 1.5 1.3 2.48l.15 7.25c.01.64.13 1.11.34 1.41.21.31.49.46.82.45.37 0 .75-.17 1.15-.48zm-4.76-5.5c-2.39.38-4.08.95-5.06 1.72-.73.58-1.09 1.39-1.07 2.43.01.73.22 1.29.62 1.69s.9.6 1.53.58c1.11-.02 2.07-.47 2.87-1.33s1.19-1.93 1.16-3.2l-.04-1.9zm17.77-11.99l.95-.02.11 5.41 4.29-.09.03 1.3-4.29.09.18 8.51c.01.74.2 1.3.56 1.68s.8.57 1.34.56c.64-.01 1.18-.32 1.62-.93.44-.6.69-1.59.73-2.96l.95-.02c-.02 1.77-.39 3.08-1.12 3.95s-1.69 1.32-2.88 1.34c-1.09.02-1.96-.26-2.59-.84-.63-.59-.96-1.37-.98-2.34l-.19-8.9-2.31.05-.02-.99c1.05-.2 1.84-.66 2.37-1.37.79-1.07 1.2-2.54 1.23-4.43zm7.5 5.25l5.28-.27.24 11.41c0 .31.09.53.24.66.22.19.5.27.83.27l1.5-.03.02 1.06-7.55.16-.02-1.06 1.4-.03c.42 0 .72-.12.91-.32.19-.21.28-.5.27-.89l-.17-8.35c-.01-.53-.17-.92-.48-1.19-.31-.26-.76-.39-1.35-.38l-1.09.02-.02-1.06zm3.52-7.99c.43 0 .8.14 1.13.46.33.31.5.69.5 1.12 0 .42-.14.8-.45 1.11-.3.32-.67.48-1.11.49s-.81-.14-1.13-.45-.49-.68-.5-1.1a1.56 1.56 0 0 1 .46-1.13c.31-.33.68-.5 1.09-.5zm9.92 7.47a17.75 17.75 0 0 1 .43 2.85c.63-1.05 1.3-1.8 2-2.25.71-.45 1.48-.68 2.33-.7.91-.02 1.78.24 2.61.78s1.52 1.34 2.06 2.41.82 2.27.85 3.62c.04 2.16-.55 3.93-1.78 5.32-1.02 1.15-2.26 1.75-3.72 1.78a4.09 4.09 0 0 1-2.26-.59c-.68-.41-1.28-1.03-1.82-1.86l.11 5.37c0 .42.11.71.32.87.26.22.62.33 1.07.32l.98-.02.02 1-7.09.15-.02-1 .98-.02c.45 0 .79-.11 1.01-.29s.33-.42.32-.72l-.29-13.96c-.01-.65-.18-1.11-.5-1.37s-.94-.4-1.88-.41l-.02-.95 4.28-.33zm4.14 1.2c-1.03.02-1.89.54-2.58 1.54-.69 1.01-1.02 2.45-.98 4.33.04 1.9.41 3.29 1.12 4.18s1.59 1.33 2.66 1.3c1-.02 1.76-.42 2.28-1.21.67-1.03.98-2.53.94-4.5-.04-2.06-.38-3.52-1.02-4.38s-1.44-1.29-2.42-1.27zm14.41-1.74c1.79-.04 3.3.57 4.54 1.84 1.24 1.26 1.88 2.95 1.93 5.05.03 1.45-.22 2.7-.74 3.73-.52 1.04-1.28 1.86-2.27 2.48s-2.07.93-3.23.96c-1.72.04-3.19-.58-4.41-1.86s-1.85-2.95-1.9-5.03c-.04-2.09.52-3.79 1.69-5.12s2.63-2.01 4.39-2.04zm.02 1c-1.06.02-1.92.52-2.57 1.49-.66.97-.97 2.49-.92 4.56.04 2.11.41 3.64 1.11 4.59.69.96 1.58 1.43 2.64 1.4 1.11-.02 1.99-.53 2.65-1.51.67-.99.97-2.58.93-4.79-.04-2.05-.41-3.52-1.1-4.42s-1.6-1.34-2.73-1.32zm-321.23 40.9l5.28-.27.24 11.41c0 .31.09.53.24.66.22.18.5.27.83.27l1.5-.03.02 1.06-7.55.16-.02-1.06 1.4-.03c.42 0 .72-.12.91-.32.19-.21.28-.5.27-.89l-.17-8.35c-.01-.53-.17-.92-.48-1.19-.31-.26-.76-.39-1.35-.38l-1.09.02-.02-1.06zm3.52-7.99c.43 0 .8.14 1.13.46s.5.69.5 1.12c0 .42-.14.8-.44 1.11-.3.32-.67.48-1.11.49a1.6 1.6 0 0 1-1.14-.45c-.32-.31-.49-.68-.5-1.1a1.56 1.56 0 0 1 .46-1.13c.31-.33.68-.5 1.09-.5zm5.87 7.79l4.4-.36c.2.83.35 1.79.46 2.91.58-.98 1.26-1.71 2.06-2.21s1.71-.76 2.72-.78c.88-.02 1.62.14 2.22.47s1.09.87 1.46 1.61c.38.74.57 1.57.59 2.5l.13 6.46c0 .48.13.82.35 1.02s.59.29 1.1.28l.93-.02.02 1.06-6.99.15-.02-1.06h.67c.62-.03 1.06-.13 1.3-.34.24-.2.36-.5.35-.9l-.12-5.68c-.03-1.24-.23-2.15-.62-2.73-.55-.84-1.36-1.25-2.43-1.22-1.07.02-1.95.47-2.64 1.34s-1.03 2-1 3.38l.1 4.91c0 .48.13.82.35 1.02.23.2.59.29 1.1.28l.92-.02.02 1.06-7.02.15-.02-1.06.92-.02c.46 0 .81-.11 1.05-.31.24-.19.35-.43.35-.71l-.18-8.57c-.01-.57-.17-.99-.49-1.28s-.76-.42-1.33-.41h-.68l-.02-.91zm30.31-.87l.18 8.79c.02 1.08.31 1.9.86 2.47s1.26.85 2.12.83c1.05-.02 1.94-.47 2.66-1.34s1.07-1.95 1.04-3.23l-.1-4.97c0-.45-.18-.8-.51-1.04s-.96-.37-1.88-.38l-.02-.99 4.65-.34.23 10.89c.01.5.16.88.45 1.14s.69.39 1.2.38l.83-.02.02.95-4.46.19-.34-2.6c-.77.95-1.55 1.67-2.34 2.16s-1.6.74-2.42.76c-1.2.02-2.21-.36-3.04-1.14-.84-.78-1.27-2.11-1.31-4.01l-.12-5.76a1.28 1.28 0 0 0-.63-1.15c-.29-.18-.87-.27-1.75-.28l-.02-.99 4.7-.34zm13.17-.04l4.4-.36c.2.83.35 1.79.46 2.91.58-.98 1.26-1.71 2.06-2.21s1.71-.76 2.72-.78c.88-.02 1.62.14 2.22.47s1.09.87 1.46 1.61c.38.74.57 1.57.59 2.5l.13 6.46c0 .48.13.82.35 1.02s.59.29 1.1.28l.93-.02.02 1.06-6.99.15-.02-1.06h.66c.62-.03 1.06-.13 1.3-.34.24-.2.36-.5.35-.9l-.12-5.68c-.03-1.24-.23-2.15-.62-2.73-.55-.84-1.36-1.25-2.43-1.22-1.07.02-1.95.47-2.64 1.34s-1.03 2-1 3.38l.1 4.91c0 .48.13.82.35 1.02.23.2.59.29 1.1.28l.92-.02.02 1.06-7.02.15-.02-1.06.92-.02c.46 0 .81-.11 1.05-.31.24-.19.35-.43.35-.71l-.18-8.57c-.01-.57-.17-.99-.49-1.28s-.76-.42-1.33-.41h-.68l-.02-.91zm29.96-.86a17.75 17.75 0 0 1 .43 2.85c.63-1.05 1.3-1.8 2-2.25.71-.45 1.48-.68 2.33-.7.91-.02 1.77.24 2.61.78.83.54 1.52 1.34 2.06 2.41s.82 2.27.85 3.62c.05 2.16-.55 3.93-1.78 5.32-1.02 1.16-2.26 1.75-3.72 1.78a4.09 4.09 0 0 1-2.26-.59c-.68-.41-1.28-1.03-1.82-1.86l.11 5.37c0 .42.11.71.32.87.26.22.62.33 1.07.32l.98-.02.02 1-7.09.15-.02-1 .98-.02c.45 0 .79-.11 1.01-.29s.33-.42.33-.72l-.29-13.96c-.01-.65-.18-1.11-.5-1.37s-.94-.4-1.88-.41l-.02-.95 4.28-.33zm4.14 1.2c-1.03.02-1.89.54-2.58 1.54-.69 1.01-1.01 2.45-.98 4.33.04 1.9.41 3.29 1.12 4.18s1.59 1.33 2.66 1.3c1-.02 1.76-.42 2.28-1.21.67-1.03.98-2.53.94-4.5-.04-2.06-.38-3.52-1.02-4.38-.64-.87-1.44-1.29-2.41-1.27zm22.57 10.29l.53.78c-.67.72-1.43 1.09-2.27 1.11-.64.01-1.18-.15-1.63-.49s-.84-.95-1.19-1.82c-.88.96-1.65 1.61-2.33 1.94-.67.33-1.49.51-2.44.53-1.36.03-2.4-.24-3.12-.81s-1.09-1.31-1.11-2.23c-.03-1.38.76-2.54 2.36-3.48 1.6-.95 3.74-1.6 6.43-1.95l-.04-2.01c-.02-.72-.32-1.33-.9-1.82s-1.32-.74-2.21-.72c-.82.02-1.53.2-2.11.55-.42.26-.63.52-.62.76 0 .14.12.36.35.66.28.37.43.7.43 1 0 .43-.12.78-.39 1.05-.27.28-.62.42-1.07.43-.47 0-.87-.14-1.19-.46-.32-.31-.49-.72-.5-1.22-.02-.93.49-1.8 1.52-2.6 1.04-.79 2.41-1.21 4.12-1.25 1.58-.03 2.79.28 3.63.94.84.67 1.28 1.5 1.3 2.48l.15 7.25c.01.64.13 1.11.34 1.41.21.31.49.46.82.45.37 0 .75-.17 1.15-.48zm-4.76-5.5c-2.39.38-4.08.95-5.06 1.72-.73.58-1.09 1.39-1.07 2.43.02.73.22 1.29.62 1.69s.9.6 1.53.58c1.11-.02 2.07-.47 2.87-1.33s1.18-1.93 1.16-3.2l-.04-1.9zm19.21.12l-9.5.2c.09 2.02.5 3.44 1.22 4.25.83.92 1.87 1.36 3.13 1.34 1.85-.04 3.31-1.12 4.39-3.25l.93.38c-1.32 2.71-3.29 4.09-5.89 4.15-1.77.04-3.28-.57-4.52-1.83s-1.88-2.89-1.92-4.89c-.04-2.15.52-3.9 1.68-5.25 1.17-1.35 2.62-2.04 4.37-2.08 1.28-.03 2.4.28 3.35.92s1.67 1.58 2.17 2.8c.35.86.55 1.95.59 3.27zm-9.52-.81l5.75-.12c.34 0 .6-.13.79-.36s.27-.63.26-1.19c-.02-1.04-.36-1.92-1.02-2.63s-1.43-1.06-2.31-1.04c-.98.02-1.81.47-2.47 1.37s-1 2.22-.99 3.97zm13.21 2.28c.62 1.62 1.31 2.74 2.09 3.35.77.61 1.72.91 2.83.88 1.03-.02 1.81-.26 2.36-.72.54-.46.81-1.03.79-1.72a1.71 1.71 0 0 0-.33-1.03c-.21-.29-.5-.51-.86-.65s-1.3-.33-2.81-.58c-1.44-.25-2.45-.53-3.02-.83s-1.02-.72-1.35-1.26-.5-1.13-.51-1.77c-.02-.97.29-1.86.92-2.67.82-1.03 1.98-1.56 3.5-1.59 1.15-.02 2.23.32 3.23 1.02l.92-1.01h.58l.47 4.71-.95.02c-.44-1.33-1.03-2.29-1.75-2.86s-1.6-.85-2.64-.83c-.9.02-1.6.25-2.1.7s-.75.99-.73 1.62c.01.56.26 1.01.74 1.37.47.37 1.39.65 2.74.84l3.08.6c.78.27 1.39.69 1.83 1.27s.67 1.3.68 2.14c.02 1.17-.42 2.17-1.32 3-.91.83-2.07 1.26-3.48 1.29-1.31.03-2.54-.38-3.68-1.23l-1.01 1.21-.75.02-.39-5.27.95-.02zm11.39-8.51l5.28-.27.24 11.41c0 .31.09.53.24.66.22.18.5.27.83.27l1.5-.03.02 1.06-7.55.16-.02-1.06 1.4-.03c.42 0 .72-.12.91-.32s.28-.5.27-.89l-.17-8.35c-.01-.53-.17-.92-.48-1.19-.31-.26-.76-.39-1.35-.38l-1.09.02-.02-1.06zm3.52-7.99c.43 0 .8.14 1.13.46s.5.69.5 1.12c0 .42-.14.8-.44 1.11-.3.32-.67.48-1.11.49a1.56 1.56 0 0 1-1.13-.45c-.32-.31-.49-.68-.5-1.1a1.56 1.56 0 0 1 .46-1.13c.31-.33.68-.5 1.09-.5zm5.87 7.79l4.4-.36c.2.83.35 1.79.46 2.91.58-.97 1.26-1.71 2.06-2.21s1.71-.76 2.73-.78c.88-.02 1.62.14 2.22.47s1.09.87 1.46 1.6c.38.74.57 1.57.59 2.5l.13 6.46c0 .48.12.82.35 1.02.22.2.59.29 1.1.28l.93-.02.02 1.06-6.99.15-.02-1.06h.67c.62-.03 1.06-.13 1.3-.34.24-.2.36-.5.35-.9l-.12-5.68c-.03-1.24-.23-2.15-.62-2.73-.55-.84-1.36-1.25-2.43-1.22-1.07.02-1.95.47-2.64 1.34s-1.03 2-1 3.38l.1 4.91c0 .48.13.82.35 1.02.23.2.59.29 1.1.28l.92-.02.02 1.06-7.02.15-.02-1.06.92-.02c.46 0 .81-.11 1.05-.3a.83.83 0 0 0 .34-.71l-.18-8.57c-.01-.57-.17-.99-.49-1.28s-.76-.42-1.33-.41h-.68l-.02-.9zm23.96-.89c1.78-.04 3.3.58 4.54 1.84s1.88 2.95 1.92 5.05c.03 1.45-.21 2.7-.74 3.73a6.23 6.23 0 0 1-2.27 2.48c-.99.62-2.07.94-3.23.96-1.72.04-3.19-.59-4.41-1.86-1.22-1.28-1.85-2.95-1.9-5.03-.04-2.08.52-3.79 1.69-5.12s2.63-2.01 4.39-2.04zm.02 1c-1.06.02-1.92.52-2.58 1.49s-.97 2.49-.93 4.56c.04 2.11.41 3.63 1.11 4.59s1.58 1.43 2.64 1.4c1.1-.02 1.99-.53 2.65-1.51s.97-2.58.93-4.79c-.04-2.05-.41-3.52-1.11-4.42-.69-.9-1.6-1.34-2.73-1.32zm15.7-.93l6.53-.14.02.96c-.87.04-1.42.13-1.66.27s-.35.34-.35.59c0 .21.06.42.16.62l3.68 7.76 3.04-7.66a1.08 1.08 0 0 0 .06-.4c-.01-.69-.7-1.1-2.06-1.24l-.02-.96 5.49-.11.02.96c-.55.07-1 .23-1.32.48-.33.25-.57.59-.74 1.01l-4.63 11.36-.76.02-5.46-11.46c-.2-.41-.43-.7-.71-.86-.27-.16-.7-.24-1.27-.24l-.02-.96zm15.9-.34l5.28-.27.24 11.41c0 .31.09.53.24.66.22.18.5.27.83.27l1.5-.03.02 1.06-7.55.16-.02-1.06 1.4-.03c.42 0 .72-.12.91-.32.19-.21.28-.5.27-.89l-.17-8.35c-.01-.53-.17-.92-.48-1.19-.31-.26-.76-.39-1.35-.38l-1.09.02-.02-1.06zm3.52-7.99c.43 0 .8.14 1.13.46.33.31.5.69.5 1.12 0 .42-.14.8-.44 1.11-.3.32-.67.48-1.11.49a1.6 1.6 0 0 1-1.14-.45c-.32-.31-.49-.68-.5-1.1a1.56 1.56 0 0 1 .46-1.13c.31-.33.68-.5 1.09-.5zm16.19 16.92l.93.25c-.68 2.73-2.28 4.11-4.79 4.17-1.84.04-3.36-.54-4.55-1.73-1.2-1.19-1.81-2.8-1.86-4.82-.05-2.34.56-4.17 1.81-5.48 1.26-1.32 2.75-1.99 4.49-2.03 1.3-.03 2.39.31 3.25 1.01.87.7 1.31 1.49 1.33 2.37.01.53-.14.97-.45 1.32s-.68.53-1.12.54c-.42 0-.79-.13-1.08-.41-.3-.29-.45-.63-.46-1.05 0-.41.14-.81.46-1.2.15-.18.22-.33.22-.43 0-.27-.19-.54-.57-.79-.37-.25-.88-.37-1.51-.36-1.15.02-2.02.46-2.59 1.31-.82 1.23-1.22 2.85-1.18 4.83.04 1.9.45 3.32 1.22 4.28s1.75 1.43 2.92 1.4c1.62-.03 2.79-1.1 3.53-3.19zm2.29-9.38l5.28-.27.24 11.41c0 .31.09.53.24.66.22.19.5.27.83.27l1.5-.03.02 1.06-7.55.16-.02-1.06 1.4-.03c.42 0 .72-.12.91-.32.19-.21.28-.5.27-.89l-.17-8.35c-.01-.53-.17-.92-.48-1.19-.31-.26-.76-.39-1.35-.38l-1.09.02-.02-1.06zm3.52-7.99c.43 0 .8.14 1.13.46s.5.69.5 1.12c0 .42-.14.8-.44 1.11-.3.32-.67.48-1.11.49s-.81-.14-1.14-.45-.49-.68-.5-1.1a1.56 1.56 0 0 1 .46-1.13c.31-.33.68-.5 1.09-.5zm5.86 7.79l4.4-.36c.2.83.35 1.79.46 2.91.58-.98 1.26-1.71 2.06-2.21s1.71-.76 2.72-.78c.88-.02 1.62.14 2.22.47s1.09.87 1.46 1.6c.38.74.57 1.57.59 2.5l.13 6.46c0 .48.12.82.35 1.02.22.2.59.29 1.1.28l.93-.02.02 1.06-6.99.15-.02-1.06h.67c.62-.03 1.06-.13 1.3-.34.24-.2.36-.5.35-.9l-.12-5.68c-.03-1.24-.23-2.15-.62-2.73-.55-.84-1.36-1.25-2.43-1.22-1.07.02-1.95.47-2.64 1.34s-1.03 2-1 3.38l.1 4.91c0 .48.13.82.35 1.02.23.2.59.29 1.1.28l.92-.02.02 1.06-7.02.15-.02-1.06.92-.02c.46 0 .81-.11 1.05-.3s.35-.43.35-.71l-.18-8.57c-.01-.57-.17-.99-.49-1.28-.31-.29-.76-.42-1.33-.41h-.68l-.02-.9zm23.96-.9c1.79-.04 3.3.58 4.54 1.84s1.88 2.95 1.93 5.05c.03 1.45-.21 2.7-.74 3.73-.52 1.04-1.28 1.86-2.27 2.48s-2.07.94-3.23.96c-1.72.04-3.19-.58-4.41-1.86s-1.85-2.95-1.9-5.03c-.04-2.08.52-3.79 1.69-5.12s2.63-2.01 4.39-2.04zm.02 1c-1.06.02-1.92.52-2.57 1.49-.66.97-.97 2.49-.93 4.56.04 2.11.41 3.64 1.11 4.59.69.96 1.58 1.43 2.64 1.4 1.11-.02 1.99-.53 2.65-1.51.66-.99.97-2.58.93-4.79-.04-2.05-.41-3.52-1.11-4.42-.69-.9-1.6-1.34-2.73-1.32zm7.92-.85l-.47-.63c.92-.69 1.59-1.37 2.02-2.03.43-.67.63-1.23.62-1.71 0-.16-.03-.28-.08-.36s-.14-.12-.25-.12l-.14.03c-.24.06-.42.09-.56.1-.42 0-.79-.14-1.09-.44a1.56 1.56 0 0 1-.47-1.1c0-.48.14-.9.45-1.26s.67-.54 1.09-.55c.6-.01 1.14.23 1.62.73s.72 1.15.73 1.96c.04 1.96-1.11 3.75-3.46 5.37zm5.82-.12l-.47-.63c.92-.69 1.59-1.36 2.02-2.03.42-.66.63-1.22.62-1.69 0-.17-.03-.29-.09-.37s-.14-.12-.26-.12l-.14.03a2.9 2.9 0 0 1-.56.1 1.51 1.51 0 0 1-1.08-.43c-.31-.29-.46-.67-.47-1.11a1.81 1.81 0 0 1 .45-1.26c.31-.36.67-.54 1.09-.55.6-.01 1.14.23 1.62.73.47.5.72 1.15.73 1.95.04 1.97-1.11 3.76-3.46 5.37zM76.02 96.16h10.33c2.33 0 4.11.53 5.34 1.59s1.84 2.44 1.84 4.15-.57 3.01-1.7 3.91c-1.56 1.24-3.47 1.85-5.76 1.85h-3.73v7.15c0 .42.1.71.3.89.26.23.62.34 1.06.34h2.38v1.06H76.01v-1.06h2.1c.42 0 .72-.08.92-.25s.29-.39.29-.67v-16.7c0-.42-.12-.73-.37-.92s-.71-.28-1.39-.28h-1.55v-1.06zm6.33 10.46h2.84c1.8 0 3.1-.38 3.89-1.13.8-.75 1.19-1.99 1.19-3.72 0-1.21-.18-2.14-.54-2.78a3.26 3.26 0 0 0-1.58-1.44c-.7-.31-1.83-.47-3.41-.47-1.05 0-1.71.1-1.99.3s-.42.54-.42 1.03v8.2zm19.1-3.18c1.79 0 3.28.64 4.5 1.93 1.21 1.29 1.82 2.99 1.82 5.09 0 1.45-.27 2.69-.81 3.72s-1.32 1.83-2.32 2.43c-1.01.6-2.09.89-3.25.89-1.72 0-3.17-.65-4.37-1.95s-1.79-2.99-1.79-5.07.6-3.78 1.8-5.08 2.68-1.95 4.43-1.95zm0 1c-1.06 0-1.93.48-2.61 1.44s-1.02 2.47-1.02 4.54.34 3.64 1.01 4.62 1.55 1.46 2.61 1.46 2-.49 2.68-1.46 1.03-2.56 1.03-4.77c0-2.05-.34-3.53-1.01-4.45a3.16 3.16 0 0 0-2.7-1.37zm7.99-.6l5.28-.16v11.41c0 .31.08.53.23.67.22.19.49.28.82.28h1.5v1.06h-7.55v-1.06h1.4c.42 0 .72-.1.91-.3s.29-.5.29-.89v-8.35c0-.53-.15-.93-.45-1.2s-.75-.4-1.34-.4h-1.09v-1.06zm3.68-7.92c.43 0 .8.16 1.12.48a1.55 1.55 0 0 1 .48 1.13c0 .43-.16.79-.47 1.1s-.68.47-1.12.47-.81-.16-1.13-.47-.47-.69-.47-1.11.16-.8.48-1.12.69-.48 1.1-.48z"/></g></svg>