<svg xmlns="http://www.w3.org/2000/svg" xmlns:xlink="http://www.w3.org/1999/xlink" viewBox="0 0 1080 1350" xmlns:v="https://vecta.io/nano"><style><![CDATA[.F{stroke:#000}.G{stroke-linejoin:round}.H{stroke-width:3}.I{stroke-linecap:round}]]></style><defs><clipPath id="A"><path d="M-.5 1.5h1076v1348H-.5z" fill="none"/></clipPath><path id="B" d="m190.13,211.53h-9.5c.05,2.02.42,3.45,1.13,4.28.81.93,1.84,1.4,3.1,1.4,1.85,0,3.34-1.05,4.46-3.16l.92.4c-1.38,2.68-3.37,4.02-5.98,4.02-1.77,0-3.27-.64-4.48-1.93s-1.82-2.93-1.82-4.93c0-2.15.6-3.89,1.79-5.22s2.66-1.99,4.41-1.99c1.28,0,2.39.33,3.33.99.93.66,1.64,1.61,2.11,2.85.33.87.51,1.96.52,3.29Zm-9.5-1h5.75c.34,0,.6-.12.79-.35.19-.23.28-.62.28-1.18,0-1.04-.32-1.92-.97-2.65s-1.41-1.09-2.29-1.09c-.98,0-1.82.44-2.5,1.32s-1.04,2.2-1.07,3.95Z"/><path id="C" d="m195.68,199.4h.95v5.41h4.29v1.3h-4.29v8.51c0,.74.17,1.3.52,1.69s.79.59,1.33.59c.64,0,1.19-.3,1.64-.89s.72-1.58.79-2.95h.95c-.06,1.77-.46,3.08-1.2,3.93s-1.71,1.28-2.9,1.28c-1.09,0-1.95-.3-2.57-.9s-.93-1.38-.93-2.36v-8.91h-2.31v-.99c1.05-.18,1.85-.62,2.4-1.32.82-1.05,1.26-2.52,1.32-4.4Z"/><path id="D" d="M230.07 204.81l3.79-.24c.21.99.34 1.93.41 2.82.72-1.03 1.44-1.76 2.16-2.18a4.62 4.62 0 0 1 2.37-.63c.92 0 1.67.24 2.27.72s1.05 1.26 1.38 2.34c.63-1.03 1.33-1.79 2.11-2.3a4.5 4.5 0 0 1 2.53-.76c1.21 0 2.11.36 2.71 1.08.77.94 1.16 2.16 1.16 3.65v6.58c0 .4.1.67.3.81.26.22.66.33 1.18.33h.67v1.06h-6.67v-1.06h.67c.57 0 .96-.09 1.19-.28s.34-.47.34-.85v-6.59c0-.98-.24-1.74-.72-2.28s-1.11-.81-1.89-.81c-.59 0-1.13.16-1.61.48s-.86.77-1.13 1.35c-.41.84-.61 1.56-.61 2.14v5.71c0 .39.1.67.31.86.21.18.53.28.96.28h.91v1.06h-6.77v-1.06h.76c.48 0 .84-.09 1.08-.28a.87.87 0 0 0 .35-.72v-6.12c0-1.29-.23-2.23-.69-2.82s-1.07-.88-1.85-.88c-1 0-1.77.34-2.31 1.02-.77.96-1.15 2.09-1.15 3.37v5.29c0 .41.09.68.27.84.26.2.65.3 1.19.3h.68v1.06h-6.68v-1.06h1.01c.38 0 .67-.09.87-.28a.95.95 0 0 0 .3-.72v-8.69c0-.48-.12-.84-.37-1.08s-.74-.39-1.47-.45v-.98z"/><path id="E" d="M259.14 196.89v9.87c.56-.79 1.18-1.38 1.86-1.77a4.38 4.38 0 0 1 2.22-.58c1.56 0 2.88.61 3.95 1.83s1.61 2.82 1.61 4.81c0 2.16-.58 3.91-1.73 5.23s-2.59 1.99-4.3 1.99c-.81 0-1.55-.16-2.21-.48s-1.34-.86-2.04-1.63c-.54.86-1.06 1.56-1.56 2.11l-.57-.2c.26-1.09.4-2.22.4-3.4v-15c0-.46-.16-.83-.49-1.09s-.79-.4-1.38-.4h-.59v-1.06l4.83-.24zm3.57 8.78c-1.07 0-1.93.46-2.61 1.39-.67.93-1 2.46-1 4.6s.33 3.49.99 4.37 1.52 1.31 2.59 1.31c.96 0 1.74-.43 2.32-1.3.74-1.09 1.1-2.65 1.1-4.68s-.32-3.45-.97-4.35-1.46-1.35-2.43-1.35z"/><path id="F" d="M270.96 204.81l4.77-.24v5.37c.51-1.76 1.12-3.1 1.84-4.01s1.6-1.36 2.66-1.36c.72 0 1.29.22 1.72.66s.64 1.03.64 1.76c0 .6-.14 1.06-.43 1.39s-.65.5-1.08.5-.77-.14-1.03-.42-.39-.67-.39-1.15c0-.31.08-.6.23-.88.14-.25.21-.39.21-.44 0-.14-.09-.21-.27-.21-.39 0-.83.23-1.32.68-.68.63-1.2 1.5-1.57 2.61-.57 1.72-.85 3.09-.85 4.12v2.85c0 .32.11.57.34.74s.61.25 1.16.25h1.69v1.06h-8.24v-1.06h1.32c.44 0 .78-.09 1-.26s.34-.38.34-.63v-8.45c0-.64-.14-1.11-.41-1.41s-.67-.45-1.17-.45h-1.16v-1z"/><path id="G" d="M316.73 214.14l.92.27c-.74 2.71-2.36 4.06-4.87 4.06-1.84 0-3.35-.61-4.52-1.83s-1.76-2.84-1.76-4.86c0-2.34.64-4.16 1.93-5.44 1.28-1.29 2.79-1.93 4.53-1.93 1.3 0 2.38.36 3.23 1.08s1.28 1.51 1.28 2.39c0 .53-.16.96-.47 1.31s-.69.52-1.13.52a1.47 1.47 0 0 1-1.08-.44 1.44 1.44 0 0 1-.44-1.06c0-.42.16-.81.48-1.18.15-.18.23-.32.23-.42 0-.27-.18-.54-.55-.8s-.87-.39-1.5-.39c-1.15 0-2.03.42-2.62 1.26-.85 1.22-1.28 2.82-1.28 4.81s.38 3.33 1.13 4.31c.76.98 1.72 1.46 2.89 1.46 1.62 0 2.81-1.04 3.6-3.12z"/><path id="H" d="M319.21 204.81l5.28-.16v11.41c0 .31.08.53.23.67.22.19.49.28.82.28h1.5v1.06h-7.55v-1.06h1.4c.42 0 .72-.1.91-.3s.29-.5.29-.89v-8.35c0-.53-.15-.93-.45-1.2s-.75-.4-1.34-.4h-1.09v-1.06zm3.68-7.92c.43 0 .8.16 1.12.48a1.55 1.55 0 0 1 .48 1.13c0 .43-.16.79-.47 1.1s-.68.47-1.12.47-.81-.16-1.13-.47-.47-.69-.47-1.11.16-.8.48-1.12.69-.48 1.1-.48z"/><path id="I" d="M338.26 213.08c.58 1.63 1.26 2.76 2.02 3.39s1.7.94 2.81.94c1.03 0 1.82-.22 2.37-.67s.83-1.02.83-1.71a1.75 1.75 0 0 0-.31-1.04c-.2-.3-.48-.52-.84-.67s-1.29-.36-2.79-.64c-1.44-.28-2.44-.58-3.01-.89a3.37 3.37 0 0 1-1.33-1.29 3.47 3.47 0 0 1-.48-1.78c0-.97.33-1.86.98-2.65.84-1.01 2.02-1.52 3.53-1.52 1.15 0 2.22.36 3.21 1.09l.94-.99h.58l.37 4.73h-.95c-.42-1.34-.98-2.31-1.69-2.9s-1.58-.88-2.62-.88c-.9 0-1.6.22-2.11.66s-.77.97-.77 1.61c0 .56.24 1.02.71 1.39.46.38 1.37.67 2.72.89 1.57.26 2.59.49 3.06.67.77.28 1.38.72 1.8 1.31.43.59.64 1.31.64 2.16 0 1.17-.46 2.16-1.38 2.97s-2.09 1.22-3.51 1.22c-1.31 0-2.53-.43-3.66-1.3l-1.04 1.19h-.75l-.28-5.28h.95z"/><path id="J" d="M356.34 204.41c1.79 0 3.28.64 4.5 1.93 1.21 1.29 1.82 2.99 1.82 5.09 0 1.45-.27 2.69-.81 3.72s-1.32 1.83-2.32 2.43c-1.01.6-2.09.89-3.25.89-1.72 0-3.17-.65-4.37-1.95s-1.79-2.99-1.79-5.07.6-3.78 1.8-5.08 2.68-1.95 4.43-1.95zm0 1c-1.06 0-1.93.48-2.61 1.44s-1.02 2.47-1.02 4.54.34 3.64 1.01 4.62 1.55 1.46 2.61 1.46 2-.49 2.68-1.46 1.03-2.56 1.03-4.77c0-2.05-.34-3.53-1.01-4.45a3.16 3.16 0 0 0-2.7-1.37z"/><path id="K" d="M364.58 204.81l4.4-.27c.18.83.31 1.8.4 2.92.59-.96 1.3-1.68 2.1-2.17.81-.48 1.72-.72 2.74-.72.88 0 1.61.17 2.21.52s1.07.89 1.43 1.64.54 1.58.54 2.51v6.46c0 .48.11.82.33 1.03s.58.3 1.09.3h.93v1.06h-6.99v-1.06h.67c.62 0 1.06-.1 1.3-.3s.37-.5.37-.89v-5.68c0-1.24-.19-2.15-.57-2.75-.53-.85-1.33-1.27-2.41-1.27s-1.96.43-2.67 1.29-1.07 1.98-1.07 3.36v4.91c0 .48.11.82.33 1.03s.59.3 1.1.3h.92v1.06h-7.02v-1.06h.92c.46 0 .81-.09 1.06-.28.24-.19.36-.42.36-.71v-8.57c0-.57-.15-1-.46-1.29s-.75-.44-1.32-.44h-.68v-.92z"/><path id="L" d="M457.13 196.89v19.23c0 .26.08.47.24.61.24.19.52.28.86.28h1.4v1.06h-7.52v-1.06h1.33c.43 0 .76-.1.97-.31s.32-.5.32-.88v-16.14c0-.47-.13-.82-.38-1.03-.35-.3-.78-.45-1.29-.45h-1.19v-1.06l5.25-.24z"/><path id="M" d="m196.02,246.33h-9.5c.05,2.02.42,3.45,1.13,4.28.81.93,1.84,1.4,3.1,1.4,1.85,0,3.34-1.05,4.46-3.16l.92.4c-1.38,2.68-3.37,4.02-5.98,4.02-1.77,0-3.27-.64-4.48-1.93s-1.82-2.93-1.82-4.93c0-2.15.6-3.89,1.79-5.22s2.66-1.99,4.41-1.99c1.28,0,2.39.33,3.33.99.93.66,1.64,1.61,2.11,2.85.33.87.51,1.96.52,3.29Zm-9.5-1h5.75c.34,0,.6-.12.79-.35.19-.23.28-.62.28-1.18,0-1.04-.32-1.92-.97-2.65s-1.41-1.09-2.29-1.09c-.98,0-1.82.44-2.5,1.32s-1.04,2.2-1.07,3.95Z"/><path id="N" d="M316.01 257.8l-.51-.68c1.82-1.39 2.73-2.61 2.73-3.65 0-.15-.03-.26-.08-.33s-.13-.11-.23-.11l-.31.06c-.18.03-.33.04-.44.04-.42 0-.79-.17-1.11-.5a1.65 1.65 0 0 1-.47-1.2c0-.47.16-.85.48-1.17s.73-.48 1.23-.48c.62 0 1.14.24 1.56.73s.62 1.15.62 1.99c0 1.84-1.16 3.61-3.47 5.31z"/><path id="O" d="M146.03 286.22l.51.79c-.69.71-1.45 1.06-2.29 1.06-.64 0-1.18-.17-1.62-.52s-.82-.96-1.15-1.84c-.9.94-1.69 1.57-2.37 1.89s-1.5.47-2.45.47c-1.36 0-2.39-.29-3.1-.88a2.79 2.79 0 0 1-1.06-2.25c0-1.38.81-2.52 2.43-3.43s3.77-1.52 6.46-1.82v-2.01c0-.72-.29-1.33-.86-1.84s-1.31-.76-2.2-.76c-.82 0-1.53.17-2.12.51-.43.25-.64.5-.64.75 0 .14.11.36.34.67.27.38.41.71.41 1a1.4 1.4 0 0 1-.41 1.04c-.27.27-.63.4-1.08.4-.47 0-.87-.16-1.18-.48-.32-.32-.47-.73-.47-1.23 0-.93.53-1.79 1.58-2.56s2.43-1.16 4.14-1.16c1.58 0 2.78.34 3.61 1.02.83.69 1.25 1.52 1.25 2.51v7.25c0 .64.1 1.11.31 1.42s.48.47.81.47c.37 0 .75-.15 1.16-.45zm-4.64-5.59c-2.4.33-4.1.87-5.1 1.61-.75.57-1.12 1.37-1.12 2.41 0 .73.19 1.3.58 1.71s.89.62 1.51.62c1.11 0 2.08-.42 2.9-1.27s1.22-1.9 1.22-3.18v-1.9z"/><path id="P" d="m208.89,281.13h-9.5c.05,2.02.42,3.45,1.13,4.28.81.93,1.84,1.4,3.1,1.4,1.85,0,3.34-1.05,4.46-3.16l.92.4c-1.38,2.68-3.37,4.02-5.98,4.02-1.77,0-3.27-.64-4.48-1.93s-1.82-2.93-1.82-4.93c0-2.15.6-3.89,1.79-5.22s2.66-1.99,4.41-1.99c1.28,0,2.39.33,3.33.99.93.66,1.64,1.61,2.11,2.85.33.87.51,1.96.52,3.29Zm-9.5-1h5.75c.34,0,.6-.12.79-.35.19-.23.28-.62.28-1.18,0-1.04-.32-1.92-.97-2.65s-1.41-1.09-2.29-1.09c-.98,0-1.82.44-2.5,1.32s-1.04,2.2-1.07,3.95Z"/><path id="Q" d="M142.96 311.12c.48-.79 1.01-1.51 1.6-2.15l.5.24c-.26 1.11-.4 2.31-.4 3.6v12.76c0 .5.1.83.3 1 .26.24.68.35 1.25.35h.57v1h-6.95v-1h.93c.57 0 .97-.11 1.2-.33.24-.22.35-.56.35-1.03v-5.04c-.56.78-1.17 1.37-1.85 1.76a4.39 4.39 0 0 1-2.22.59c-1.54 0-2.87-.65-3.98-1.95s-1.67-2.93-1.67-4.91c0-1.32.28-2.54.85-3.64.57-1.11 1.31-1.95 2.24-2.54s1.92-.88 2.97-.88a5 5 0 0 1 2.15.48c.68.32 1.4.88 2.17 1.67zm-4.13-1.2c-.99 0-1.81.47-2.47 1.42-.66.94-.98 2.42-.98 4.42s.33 3.52.98 4.43 1.47 1.37 2.44 1.37c.63 0 1.22-.2 1.78-.6.55-.4.98-.99 1.3-1.79.31-.8.47-1.87.47-3.22 0-1.58-.14-2.77-.42-3.58s-.71-1.42-1.27-1.83c-.57-.42-1.17-.62-1.81-.62z"/><path id="R" d="M152.69 308.97v8.79c0 1.08.27 1.91.81 2.49s1.24.88 2.1.88c1.05 0 1.95-.43 2.69-1.28s1.11-1.92 1.11-3.21v-4.97c0-.45-.16-.8-.49-1.05s-.95-.39-1.88-.42v-.99l4.66-.24v10.89c0 .5.14.88.42 1.15s.68.4 1.19.4h.83v.95l-4.46.1-.28-2.61c-.79.93-1.59 1.64-2.39 2.11s-1.61.71-2.43.71c-1.2 0-2.2-.4-3.01-1.2-.82-.79-1.23-2.14-1.23-4.04v-5.76c0-.51-.2-.9-.61-1.16-.28-.19-.86-.29-1.74-.31v-.99l4.7-.24z"/></defs><g clip-path="url(#A)"><path d="M-41.5-143.5h1208v1628h-1208z" fill="#fff"/><path d="M977.97 700.69l73.49-20.41c18.33-4.97 42.24-8.78 61.13-4.04 17.83 4.47 34.34 15.41 51.22 22.49 41.42 17.36 68.31 56.79 79.35 99.61 6.09 23.63 15.78 45.88 21.69 69.54 7.68 30.79 11.77 64.68 15.74 96.13 9.58 75.92 19.76 154.54-10.44 226.9-9.13 21.87-17.83 43.39-38.56 56.15-14.17 8.72-28.7 13.93-45.33 15.93-19.01 2.29-36.57 1.16-54.91-3.72-20.32-5.41-41.38-7.06-61.4-13.45-38.04-12.15-71.8-29.34-105.74-50.07-33.55-20.5-69.46-37.47-101.4-60.32-30.31-21.69-63.61-44.17-88.32-72.3-21.6-24.59-47.87-46.18-65.88-73.77-11.24-17.22-23.18-33.77-39.83-46.36-13.14-9.94-26.07-20.62-37.52-32.08-10.88-10.9-21.34-20.92-25.19-36.5-3.23-13.07-1.45-29.31 2.07-41.58 3.52-12.25-.54-25.13 8.81-35.1 8.4-8.96 19.92-18.75 30.93-24.42 15.77-8.11 34.56-.41 50.87.27 5.76.24 10.82 2.01 16.69 1.88 4.32-.1 7.79.77 12.01 1.56 7.13 1.34 14.78 2.35 21.87 4.22 5.92 1.56 13.54 2.54 19.74 1.27 9.87-2.02 18.66-12.32 26.2-18.62 8.49-7.09 18.24-10.29 27.46-16.07s18.46-6.53 28.43-8.87l20.32-4.68c7.92-1.86 15.99-2.87 23.97-5.13 6.87-1.94 13.3-5.6 19.76-8.46 6.65-2.94 13.94-3.82 20.58-6.66 13.68-5.86 27.78-9.19 42.16-13.33z"/><path d="m703.34,775.46l.35-1.44c2.43-.18,2.75-1.52,4.47-2.57,2.07-1.27,5.6-1.89,7.36-3.47s2.02-3.56,4.21-5.09c3.05-2.12,5.66-2.47,8.46-5.11,6.83-6.46,13.75-12.86,20.97-18.88,6.41-5.35,13.73-9.64,20.1-15.01,5.77-4.87,10.12-11.5,16.19-16.02,7.69-5.73,16.29-9.38,24.3-14.3,7.41-4.56,16.03-7.82,24.33-10.39,6.02-1.86,10.98-4.86,17.13-6.12,6.5-1.33,13.14-1.63,19.58-3.57,6.58-1.99,13.59-1.34,20.58-1.34,12.92,0,25.56.12,37.82,4.06,6.58,2.12,13.26,2.39,20.02,3.46,6.06.96,11.87,3.61,17.82,4.95,6.24,1.4,11.19,5.07,17.42,6.72,5.72,1.52,10.39,2.12,16.39,2.18" fill="none" class="F G H I"/><path d="M-2.08 400.89c.04-6.16.72-12.21 3.47-17.69 4.53-9.01 5.76-19.33 9.89-28.65 4.06-9.16 7.25-18.93 10.67-28.34 2.14-5.9 3.75-11.74 7.21-16.99 1.61-2.44 3.01-8.31 5.86-8.97 1.55 4.42.48 11.8-.52 16.13-1.22 5.29-2.49 13.83-6.07 18.29-.13-5.76 5.69-10.69 6.75-16.45.96-5.24 3.95-8.18 5.62-13.06-.24 3.37-1.03 8.44.18 11.56 2.45-1.9 2.19-7.66 5.46-7.96 4.24-.38 2.95 4.35 3.08 6.54.33 5.8 2.02 11.89 3.62 17.51s3.32 13.11 3.66 19.2c.41 7.39 2.44 14.14 3.31 21.57.39 3.3.06 6.55.11 9.85.07 4.4 1.43 8.27 1.87 12.62.7 6.77 1.04 13.68 2.13 20.4 1.22 7.54 2.5 15.5 3.26 23.2.42 4.21-.4 8.3.3 12.51.33 1.99.75 7.91 1.99 9.3 5.41.16 6.33-5.15 8.6-8.81 3.2-5.17 7.65-9.19 11.5-13.77 3.6-4.29 6.4-9.46 9.53-14.12 3.38-5.02 7.31-9.5 10.74-14.46 2.99-4.33 15.35-21.55 18.07-7.87 1.71 8.59-4.73 17.77-1.67 26.5 5.95-6.19 5.03-17.11 13.03-22.19 7.2 2.21.54 16.52.73 21.41 1.12-4.42 2.48-13.6 6.99-15.75.72 2.33-.4 4.62.09 6.81.8 3.59 6.04 7.47 8.41 10.74 1.9 2.62 4.15 4.9 7.4 5.79 1.39-3.61 2.18-7.58 3.47-11.29 1.72-4.94 2.96-7.01 7.66-4 5.7 3.65 6.5 9.58 11.04 14.28 5.25 5.44 11.22 11.16 15.5 17.17 1.36 1.91 2.56 4.95 3.69 7.05 2.94 5.48 6.38 10.76 9.21 16.31 2.23 4.36 4.99 9.93 6.49 14.61.78 2.42.29 5.1.7 7.61.47 2.93 1.8 5.73 2.77 8.5 1.54 4.37 3.8 8.2 5.39 12.39 2.2 5.77 3.03 11.94 6.74 17.03s7.64 9.34 10.3 15.21c4.73 10.44 6.38 22.08 9.43 33.07 1.92 6.92 4.58 14.18 5.55 21.37.53 3.91-1.42 13.61 2.18 15.91 2.08-1.56 2.66-4.2 4-6.35 1.82-2.92 5.08-5.76 7.61-8.03 4.08-3.66 9.43-5.25 13.49-9.1-.3 3.51-1.08 6.21-1.69 9.53 3.4-1.73 7.51-11.02 12.02-10.01 1 2.92-2.2 8.79-3.12 11.7 2.67-.43 2.93-2.31 4.52-3.98 2.46-2.59 4.65-3.85 7.8-5.47 4.65-2.4 8.23-4.97 12.4-7.82 3.15-2.15 6.76-2.97 9.4 0 1.12 1.27 1.77 3.16 2.99 4.52 1.83 2.05 4.41 2.66 6.19 4.42 2.35 2.33 4.47 6.41 6.42 8.95 1.99 2.6 3.41 5.5 3.56 8.91.18 4.21.18 6.47 2.23 10.28.9 1.67 2.36 3.96 4.34 4.55 6.5 1.93 8.27-10.82 14.4-12.26 1.38 3.53 2.11 6.98 2.16 10.73.04 2.82-1.3 7.85 1.59 9.46 2.66-1.76 3.48-4.95 6.45-6.33 7.12 1.49 2.13 12.01 6.55 15.18 1.7-1.35 2.87-3.1 4.64-4.36 3.61 4.13 4.71 12.96 6.13 18.37 2.16 8.19 2.83 15.51 6.89 23.13 3.4 6.39 6.32 12.65 10.49 18.58 3.16 4.5 6.25 8.51 8.9 13.27.44-2.42 1.36-8.08 3.43-9.7 6.11.03 5.45 12.82 10.43 15.48 1.22-1.57 1.93-3.28 3.52-4.55 2.42 4.82 2.76 10.81 5.7 15.39 3.31 5.17 4.78 3.18 9.09.92 2.81 2.25 3.66 6.38 5.21 9.64 2.2 4.61 4.45 10.18 7.17 14.46 2.05 3.23 4.89 5.72 6.72 9.17 1.83 3.43 3.14 7.2 4.94 10.64 2.21 4.2 6.58 6.51 8.73 10.73 1.46 2.87 2.68 5.95 4.09 8.87 5 10.41 12.78 16.23 7.22 26.85-3.47 6.63-5.15 13.78-6.99 21.03-3.73 14.76-11.48 28.28-21.03 40.09-1.99 2.46-3.91 4.62-6.79 6.04-8.72 4.3-20.96 4.06-30.41 5.95-6.54 1.31-14.09 1.14-20.6 0-8.43-1.48-16.98-1.74-25.35-3.56-13.05-2.84-24.08-6.74-34.91-14.84l-33.41-25.65c-14.14-11.38-29.85-20.45-44.35-31.48-5.58-4.24-11.08-8.51-16.38-12.92-2.38-1.98-3.85-2.83-7.01-3.63-7.29-1.83-15.01-1.5-22.39-2.91-12.23-2.33-25.19-2.67-37.75-1.98-8.17.45-15.72 2.67-23.99 2.5-7.08-.15-13.53 2.41-20.37 2.55-9.01.18-19.62-5.32-28.26-7.51-4.62-1.17-10.37-3.85-14.2-6.74-7.06-5.33-13.49-9.94-21.29-14.65-9.86-5.96-18.44-10.47-29.41-14.13-8.47-2.82-17.45-2.58-26.07-5.64-8.69-3.09-14.92-8.96-22.91-13.26-8.78-4.72-17.08-9.29-25.01-15.41-12.56-9.69-27.33-16.42-41.62-22.59m626.6-729.8c4.04 5.02 10.13 10.53 12.9 16.34 4.26 8.95 5.33 21.06 4.68 30.78-1.6 23.94-12.09 44.9-26.93 63.28-6.88 8.52-14.47 17.25-21.98 24.85-7.74 7.82-22.8 15.97-33.66 17.68-5.49.86-11.4.15-17.04.98s-11.26.95-17.09 1.18c-9.75.38-17.27-1.88-25.8-7.06 4.7-6.87 13.16-6.38 19.79-9.95 6.86-3.69 13.33-10.87 19.48-15.81 3.54-2.84 7.79-5.55 11.05-8.72 2.95-2.88 4.55-6.58 7.52-9.51 6.62-6.52 13.33-11.39 17.65-20.07 4.43-8.91 4.89-20.93 7.49-30.53 2.69-9.95 5.09-18.77 4.88-29.07-.23-11.17-1.02-23.44-4.46-34.09-2.77-8.59-3.17-17.2-7.86-25 2.41-9.17 31.39 16.85 33.89 19 5.17 4.45 11.24 8.8 16.75 12.92 5.7 4.26 6.67 4.1 8.32 10.83m509.81 79.64c-.1 4.4-4.34 6.7-5.97 10.41-1.75 3.98-2.5 7.87-4.64 11.78-4.46 8.16-9.3 15.66-13.25 23.99-4.16 8.78-9.99 16.44-14.3 25.1-4.68 9.4-11.52 19.35-17.59 27.7-5.9 8.12-11.21 17.54-15.73 26.67-3.86 7.79-9.59 14.42-14.03 21.84-8.61 14.39-18.04 30.41-24.98 45.93-3.98 8.9-8.82 16.93-12.87 25.62-4.18 8.98-6.89 18.03-11.56 26.81-3.06 5.77-7.01 10.89-9.28 17.21-1.43 3.97-2.45 7.28-4.57 10.95-4.26 7.39-8.26 13.3-11.26 21.62-6.49 18.02-18.9 29.9-27.05 46.53-8.61 17.56-19.01 33.88-28.5 50.6-2.04 3.6-3.21 7.52-5.47 11.09-2.18 3.45-4.77 6.67-6.54 10.47-1.74 3.73-2.39 7.84-3.98 11.64-2.18 5.19-5.83 9.28-8.3 14.27-3.79 7.65-7.19 16.58-10.52 24.63-1.82 4.4-5.35 10.31-4.72 15.32 0 0 2.72-3.38 6.31-7.39 5.38-6 11.9-9.35 17.69-14.71 6.99-6.48 12.81-11.42 20.65-16.39 10.03-6.36 20.51-14.78 29.94-22.49 15.11-12.37 27.69-28.62 42.95-40.68 6.9-5.45 12.37-12 18.66-18.19 3.61-3.55 8.31-5.58 12.15-8.73 4.43-3.64 8.06-8.39 12.53-11.95 5.97-4.74 11.02-10.55 16.95-15.21 8-6.29 17.07-10.59 25.16-16.68 5.97-4.5 10.49-10.61 16.28-15.26 6.99-5.6 14.17-10.61 20.8-16.8 3.55-3.32 7.13-6.12 10.55-9.55 2.48-2.49 5.54-4.41 7.89-7.02 1.88-2.08 2.51-4.76 4.25-6.53 3.01-3.05 6.35-5.35 9.34-8.81 2.55-2.95 5.33-8.73 8.51-9.84L1085.4 65.88z"/><g fill="#fff"><path d="M1141.89 222.11c-.49 2.49-4.19 5.2-5.75 7.13-2.63 3.24-6.33 4.88-9.33 7.93l-11.6 11.66c-4.18 4.09-8.35 5.48-13.21 8.17-9.96 5.52-19.49 12.74-29.33 18.64-6.55 3.93-12.61 5.72-19.86 7.44-3.48.82-6.59 2.97-9.95 4.11-3.13 1.06-10.7.72-11.73 4.71-.86 3.32 3.62 8.86 3.87 12.24.51 7.15-6.12 2.28-8.89.35-4.69-3.26-8.39-7.2-12.56-11.21-4.27-4.12-4.98-4.08-2.21-9.17 3.39-6.21 7.56-10.1 12.57-15.23 3.75-3.83 7.21-7.83 9.79-12.51 1.91 3.04 1.65 12.48 4.73 13.71 2 .8 8.04-2.47 10.08-3.36 4.5-1.96 8.59-3.9 13.12-5.67 4.21-1.65 5.86-4.54 9.42-6.96 2.8-1.91 5.76-3.27 8.52-5.25 9.66-6.91 19.3-15.11 28.05-23.05 4.1-3.72 6.81-8.74 11-12.53 5.07-4.58 9.45-9.47 14.34-14.29"/><path d="M1100.48 1175.79c9.07 4.31 16.82 11.06 26.05 14.96 5.34 2.26 11.52 3.93 16.04 7.73 4.43 3.73 5.63 8.98 6.04 14.54.63 8.56 2.25 15.74 8.75 21.88 5.06 4.78 9.73 9.37 14.43 14.45 6.89 7.45 16.12 11.14 23.94 17.34 7.96 6.31 15.47 15.41 21.66 23.32 9.17 11.74 11.8 24.11 15.13 38.31 3.4 14.5 5.13 30.37 5.39 45.24.18 10.3.18 23.93-3.31 33.65-10.33 28.79-40.11 43.06-66.65 52.98-16.08 6.01-33.46 10.67-49.89 15.58-9.41 2.81-18.69 5.57-28.38 7.38-31.99 5.97-64.48 9.66-96.73 13.96-27.04 3.6-54.28 7.76-81.48 9.84-28.36 2.17-56.81 2.51-85.25 2.48-31.05-.04-61.61-.18-92.57-2.71-24.4-1.99-49.02-3.46-73.52-2.62-23.32.8-46.31 4.48-69.55 6.11-19.17 1.34-38.79 1.51-58.03 1.09-17.45-.38-35.27-2.58-52.6-4.59-10.26-1.19-20.47-2.72-30.47-5.32-24.08-6.28-48.61-9.04-73.31-11.65-10.29-1.08-20.32-3.26-30.51-4.85-19.76-3.08-40.53-3.81-60.48-4.14-46.25-.76-93.04-1.11-139.18 1.9l-65.69 5.17c-12.95.92-26.3-.49-39.21-1.44-8.4-.61-22.31-1.03-31.75-3.7-11.89-3.37-26.87-14.2-32.53-25.49-3.73-7.46-9.07-17.56-10.7-25.68-1.38-6.88-.21-14.81-.3-21.79-.15-11.67 1.44-23.06 3.21-34.58 2.14-13.88 5.15-27.59 7.6-41.41 2.21-12.45 3.19-25.02 5.25-37.49s4.35-28.38 12.83-37.95c2.46-2.78 4.52-5.66 6.77-8.59 2.62-3.41 5.75-5.7 8.91-8.57 4.58-4.15 7.72-9.32 12.79-13.09 11.96-8.87 21.49-21.29 32.67-31.22 6.58-5.85 13.84-10.44 19.69-17.12 5.37-6.11 11.81-8.71 18.07-13.89 7.27-6 12.97-13.67 20.15-19.75 5.12-4.34 10.76-7.41 15.62-12.15 3.55-3.46 7.71-6.14 11.08-9.65 1.94-2.02 3.18-4.79 5.23-6.85 2.41-2.42 5.21-4.14 7.91-6.18 9.4-7.14 18.72-15.36 26.67-23.85 9.78-10.45 21.5-18.61 31.45-28.69 8.16-8.27 17.05-15.26 25.25-23.5 8.59-8.63 17.75-17.46 27.65-24.54 4.9-3.51 8.11-9.04 13.01-12.25 3.84-2.52 7.57-4.1 10.69-7.78 2.67-3.16 4.01-5.48 7.35-7.75 1.81-1.23 3.56-2.01 5.11-3.58 4.48-4.52 9.01-8.51 13.77-12.83 4.07-3.7 8.42-6.82 12.42-10.68 4.45-4.3 9.65-6.68 14.67-10.12 4.81-3.3 9.73-6.47 14.42-9.92 5.22-3.84 9.52-8.59 14.64-12.51 4.09-3.13 7.5-6.54 11.35-9.88 4.11-3.56 8.94-6.08 13.06-9.63 4.84-4.17 10.49-7.7 15.79-11.2s8.81-7.76 14.25-11.01c5.3-3.16 10.31-6.76 15.62-9.94 4.83-2.88 9.53-5.13 14.64-7.71 4.42-2.23 7.85-5.44 12.14-7.74 4.99-2.68 10.43-4.68 15.31-7.56 15.94-9.42 36.11-16.98 54.83-17.94 19.02-.98 37.72 1.23 56.58 1.81 7.92.24 17.3 3.03 24.79 5.79 9.04 3.33 18.35 6.24 27.16 10.19 9.45 4.25 16.06 11.72 25.53 15.73 5.08 2.15 8.72 5.62 13.6 8.11 4.83 2.46 9.85 4.73 14.8 6.93 11.9 5.29 21.1 13.51 30.94 21.84l36.51 30.87c23.25 20.46 45.8 42.39 71.9 59.15 5.24 3.37 9.89 9.27 14.6 13.59 6.73 6.17 13.62 11.89 20.44 17.93 5.49 4.87 10.35 10.31 16.22 14.77 5.43 4.13 11.07 7.93 16.17 12.48 9.65 8.61 18.23 19.16 29.26 26.23 7.83 5.01 14.84 11.76 22.43 17.26 5.72 4.14 11.21 8.48 16.74 12.85 7.45 5.89 16.07 9.96 24.04 15.01 2.33 1.48 3.02 2.71 4.9 4.79 3.16 3.48 5.52 4.2 9.53 6.29 10.62 5.51 21.96 9.08 32.8 14.12 10.59 4.93 19.41 12.71 30.03 17.39 4.71 2.08 8.5 5.53 13.16 7.67 3.49 1.6 7.15 2.72 10.64 4.38z" class="F G H"/></g><path d="m554.08,779.47c-3.7-.19-8.47,4.2-10.81,6.82-4.12,4.62-5.3,9.01-8.25,14.44-2.84,5.22-7.05,9.84-9.84,15.2-3.78,7.25-8.86,13.24-12.85,20.23-10.66,18.7-22.38,37.57-36.59,53.98-14.87,17.17-28.26,35.82-44.31,51.81,7.81,1.91,15.69,3.64,23.57,5.35,4.66-10.15,9.79-20,16.7-28.84,7-8.95,16.01-16.1,22.89-25.17,14.27-18.81,27.63-38.29,40.09-58.54,6.34-10.3,12.01-20.21,16.84-31.24,2.08-4.75,5.23-7.08,5.44-12.4.18-4.53-.36-7.8-2.89-11.63Z"/><g fill="#fff" class="F G H"><path d="m466.24,583.6c-2.72,0-3.34-2.69-5.25-4.06-2.75-1.95-5.08-2.11-7.22-5.12-5.35-7.52-8.58-14.91-10.9-23.64-1.26-4.73-8.18-31.37.18-31.56,4.15-.09,9.15,7.55,10.72,10.84,2.79,5.85,5.96,11.87,8.46,17.91,1.45,3.48,2.99,6.74,4.05,10.29.93,3.11,2.78,6.02,3.38,9.24.63,3.37,2.08,16.35-3.43,16.1" class="I"/><path d="M498.4 633.12c-2.24-1.53-3.48-3.58-6.04-4.95-9.17-4.92-15.97-16.57-21.81-24.93-5.26-7.54-8.63-15.93-10.69-24.95-2.49-10.9-5.79-20.93-6.68-32.01-.44-5.45-1.88-10.07-1.83-15.59v-18.4c-.04-10.27 2.53-20.02 5.34-29.87.97-3.4 2.69-5.96 4.05-9.23 2.21-5.3 2.56-9.84 6.64-14.38 8.09-9 15.32-17.84 25.34-24.89 8.88-6.25 21.16-7.11 31.7-7.08 3.79 0 8.7-.79 12.43-.09 1.33.25 2.18 1.14 3.42 1.48 2.98.8 5.74-.17 8.69.3 4.68.76 8.39 3.25 12.42 5.48 5.07 2.81 10.31 3.13 14.63 7.04 13.96 12.63 25.58 30.75 26.77 50.26.53 8.71-.04 17.69-.04 26.43 0 8.12 1.32 16.59-1.08 24.5-.41 1.36-1.26 2.55-1.44 3.98-.54 4.32 1.43 9.59 1.78 13.97.84 10.44.25 21 2.12 31.36.69 3.82-.25 7.61.3 11.34.6 4.1 1.35 7.88 1.83 12.02.3 2.56 1.4 3.64 1.93 5.99l-.2 5.05c.09 1.49.58 2.82 1.48 4 1.47 6.24 2.31 18.28-3.08 22.68-11.47 9.35-25.83 15.84-39.37 21.81-7.49 3.31-13.26 5.02-20.61.2-7.19-4.71-7.95-10.55-10.92-18.4-1.45-3.84-2.39-6.88-4.45-10.25-1.35-2.2-3.06-7.2-5.26-8.6-1.66-1.05-3.35.14-5.08-.26-2.15-.5-2.77-1.59-5.21-1.92-5.66-.77-12.05 1.38-17.12-2.1z"/><path d="m610.3,543.04c-1.39,6.78-2.84,13.87-6.09,20.04-1.68,3.2-3.37,5.98-7.21,5.92-3.03-.04-8.29-1.89-9.9-4.55-1.58-2.61-.36-9.18-.36-12.11,0-4.3-.23-8.36.84-12.4.66-2.48.71-5.81,1.74-8.46.88-2.26,2.71-4,3.8-6.15,2.38-4.69,5.13-22.66,13.01-14.61,2.23,2.28,4.08,10.13,4.66,13.52.92,5.28.58,13.54-.49,18.79Z"/></g><path d="M615.23 489.18c-.05 7.99 1.29 16.71-.19 24.6-.55 2.93-1.97 5.94-3.45 8.5-1.94 3.35-4.18 4.63-7.53 6.29-3.18 1.58-6.48 3.46-9.76 5.09-2.9 1.44-5.08 3.79-8.23 4.89-1.22.42-2.41.6-3.6 1.13-.9.4-1.51 1.04-2.54 1.05-.84-3.28-.12-7.63-.13-11.04-.01-2.33.56-3.64.94-5.79s-.15-4.31.27-6.44c.56-2.83.03-4.27-.35-7.35-.23-1.89-.53-3.25-.91-5.07-.31-1.5.22-3.25.09-4.77-.15-1.8-.9-3.29-.96-5.1-.15-4.34.11-9.86-2.35-13.6-1.84-2.8-6.97-2.89-7.43-6.2 2.6-1.73 7.08-2.1 3.51-5.43-.37-.34-4.69-2.09-5.37-2.23-1.41-.3-2.96.26-4.4-.05-1.01-.22-1.08-1.22-2.08-1.46l-7.86-2c-4.84-1.18-10.09-3.42-15.14-3.53-5.01-.11-10.04.02-15.05.02-3.05 0-6.96-.64-9.97-.07-2.28.44-3.77 1.37-6.11 1.85-5.15 1.05-9.72 1.78-15.18 1.78-8.61 0-21.52-2.4-28.9 3.4-2.81 2.2-4.31 5.39-5.12 8.8-2.47 10.52-.47 21.06-4.23 31.68-.76 2.14-1.38 4.18-1.67 6.44-.68 5.23 4.63 16.44.21 19.89-.01 0-.03.02-.04.03-4.93-8.77-5.52-21.38-5.73-31.5-.12-5.79-.29-11.58.02-17.36.21-3.93 1.97-7.75 2.71-11.58.71-3.69.98-6.55 2.68-9.8 5.08-9.76 8.82-19.37 16.96-27.21 2.36-2.28 4.97-3.54 7.93-4.85 8.44-3.73 15.64-10.04 24.34-13.08 2.43-.85 5.11-2.16 7.66-2.72 1.34-.29 2.31-.18 3.56-.4 1.41-.25 2.91-1.18 3.92-1.39 9.86-1.98 19.5-2.18 29.89-2.18 4.77 0 10.51-.84 15.14.15 4.72 1.01 8.47 2.97 12.69 4.97 2.26 1.07 4.34 2.47 6.23 3.9.41.31.09 1.16.77 1.58 1.19.73 3.03.95 4.34 1.71 2.8 1.62 5.47 4.03 7.31 6.69 3.16 4.57 7.08 9.69 9.35 14.57l6.46 14.02c1.9 4.35 4.62 8.65 5.65 13.05.66 2.79-.5 5.77.3 8.6.74 2.62 1.41 4.16 1.39 7.52z"/><g fill="none" class="F G H I"><path d="M509.65 523.68c.64 2.51-1.21 3.23-1.83 5.25-.7 2.28-1.58 5.63-1.81 8.11-.28 2.89 1.12 4.51 1.71 7.13.67 2.97-.03 6.36.11 9.4.14 2.9 1.62 4.8 1.96 7.52.29 2.39-1.08 4.96-1.91 7.13-.82 2.14-2.96 5.89-1.78 8.17 2.43 4.67 5.4-.58 6.77-3.31.43 2.09-.04 4.2 2.08 5.27 1.25-.47 2.22-1.25 2.93-2.34-.63.63-.91 1.39-.83 2.28 9.95-5.32 4.35-25.97 3.24-34.12-.76-5.57 1.33-10.86-1.63-16.07-3.77-6.6-11.54-5.09-12.55 2.7m-24.96 14.42c-3.47-.02-5.73-.23-7.68 3.03-3.36 5.61 2.23 5.99 6.58 5.88 4.42-.1 18.86.41 15.22-8.66-2.97-.57-6.78-2.22-9.68-2.17s-4.93 2.44-8 1.91m65.44 1.9c-2.86-.89-5.79 1.24-6.1 4.26-.53 5.14 4.02 4.23 7.76 4.3 4.05.07 14.22 1.78 17.17-.36 12.76-9.27-18.66-19.45-20.95-8.19M501.23 587c-3.78-.08-8.09 2.76-11.66 1.88-1.64-.4-4.21-.79-2.37-3.37.61-.85 3.79-.46 4.73-.69 2.37-.58 6.34-2.89 9.42-1.52 6.52 2.9-3.48 3.66-5.46 3.7m33.84 0c-2.24-6.76 16.73-2.93 19.72-.54 4.19 3.36-.08 4.17-3.6 4.09-2.39-.05-4.93.32-7.3.05-2.53-.29-4.55-1.5-7.03-1.82m40.96-8.75v12.47m8.91 1.95c0 5.02-.33 8.27 1.78 12.47m-33.85-26.89l1.78 3.56m-46.31 33.85c1.79 2.37 4.28 4.46 5.34 7.13m30.29-7.13c1.98 2.57 6.43 3.75 7.13 7.13m-67.7-3.57c.09-4.54-.18-6.87 1.78-10.69m-12.47-28.5c-.33 2.59-2.37 4.35-1.78 7.13m65.91 61.53c3.42.91 5.47-3.21 8.91-3.56m19.59-13.44c.85-1.78 2.41-3.09 1.78-5.34m12.47 23.16c1.13-2.66 3.23-5.97 3.56-8.91m-32.06 12.47v-1.78"/><path d="M483.41 548.13c-.18-1.37.26-1.9 1.34-1.62l.44 1.62"/></g><path d="M459.23 1316.58c-1.83-4.55-3.58-9.12-5.2-13.7-1.81-5.09-4.63-9.86-6.3-14.92-1.14-3.44-1.56-7.09-2.56-10.55-3.72-12.93-3.85-26.46-5.41-39.76-1.57-13.33-1.14-27.11-3.47-40.3-2.24-12.65-3.06-25.2-4.92-37.9l-6.01-42.38c-2.27-13.83-.74-28.61 1.17-42.4 2.57-18.62 4-37.2 2.53-55.97-1.55-19.77-3.54-39.38-4.11-59.22-.82-28.61 2.15-57.16 3.16-85.74.16-4.56.93-9.8 2.23-14.17.78-2.63 2.39-5 3.25-7.6 1.35-4.09 1.55-8.79 2.23-12.96 2.02-12.52 6.7-24.34 9.16-36.75 1.95-9.84 4.63-19.06 9.04-28.12 5.2-10.66 10.91-20.26 15.2-31.35 2.44-6.32 6.54-11.97 8.86-18.3.68-1.87.7-3.83 1.29-5.69 2.3-7.19 8.76-13.07 13.05-19.1 8.54-12.02 17.73-24.15 28.03-34.73 3.23-3.32 6.28-4.58 10.79-5.1 11.66-1.35 20.22-6.95 30.71-12.33 7.36-3.77 13.3-9.12 19.9-14.07 6.5-4.87 13.15-9.5 19-15.15 2.17-2.1 3.1-5.5 6.23-3.56 2.13 1.32 2.3 5.12 2.81 7.14 1.28 5.04 5.18 10.65 8.4 15.06 9.8 13.39 21.71 25.05 32.59 37.54 5.15 5.92 10.7 11.85 14.39 18.85 2.15 4.08 3.04 8.36 4.37 12.72 3.6 11.87 14.44 20.67 21.78 30.32 9.31 12.25 18.69 24.82 27.19 37.63 4.29 6.47 8.55 14.63 11.08 21.98 2.19 6.35 3.2 12.37 6.3 18.48 4.25 8.38 2.53 19.96 3.44 29.33 1 10.37 2.46 20.69 3.87 31.01 1.08 7.92 2.75 15.6 4 23.45 1.65 10.38.87 20.72 2.95 30.93 2.29 11.29.4 24.32.4 35.84 0 12.83.88 25.79-1.3 38.45-3.77 21.87-9.98 45.03-21 64.53-3.88 6.86-7.51 13.82-13.04 19.49-5.42 5.55-11.25 10.72-16.22 16.65-4.62 5.52-9.38 9.8-13.01 16.07-3.09 5.34-7.15 10.12-8.33 16.47-1.16 6.23.68 12.96-.27 19.24-1.69 11.11-5.22 22.73-9.08 33.29-3.97 10.85-10.87 21.2-15.78 31.72-2.3 4.92-4.3 9.67-6.92 14.46-2.83 5.2-3.96 10.47-6.1 15.94-3.61 9.24-7.53 18.17-10.76 27.52-3.42 9.9-6.88 21.17-8.19 31.66-1.56 12.51-4.68 24.74-6.78 37.15-2.38 14.09-1.76 28.13-5.78 41.96-3.13 10.77-.15 21.45-1.88 32.23-2.02 12.58-10.85 19.46-19.42 27.43-11.05 10.28-23.95 10.56-38.18 10.73-6.6.08-10-2.28-15.36-6.3-5-3.75-9.67-6.51-14.09-11.32-17.87-19.47-23.81-46.81-34.73-70.23-8.51-18.25-17.59-36.74-25.17-55.58z"/><g fill="none" class="F G H I"><path d="M508.35 597.69c4.73 0 11.27-1.18 15.73.3l.3 1.48m-48.09-87.29c-5.05-1.16-10.68 6.08-2.21 7.26 4.95.69 9.93-1.32 14.72-1.87 2.34-.27 4.75-.3 5.07-3.6.42-4.45-2.81-2.88-5.6-3.51-4.55-1.02-8.45-3.01-13.45-1.53l-.3 1.48m76.59 37.72l1.52 1.14c-.22-1.49.26-1.58-.79-3.06l1.05.15m1.51-31.05c-1.48 0-3.31-.31-4.75-.06-1.31.23-2.23 1.06-3.54 1.31-3.1.59-7.24-.06-10.42-.06-2.28 0-7.74 1.02-8.69-1.1-.86-1.93-.06-6.25 1.32-7.25 4.81-3.51 12.98-2.7 18.69-2.36 2.43.14 8.06 1.12 9.88 2.64 1.71 1.44 4.16 7.29-.12 6.88m-31.2 121.13c1.68-.22 3.03-1 4.75-1.19 1.44-.15 2.25-.27 3.57-.87l5.67-2.38c1.87-.86 3.15-2.23 4.96-3.18 2.15-1.12 4.04-1.52 6.01-3.05l5.17-4.15c3.54-2.88 6.97-5.73 10.24-8.94"/></g><path d="M141.2 196.69h.95l7.51 19.16c.3.77.92 1.16 1.86 1.16h.65v1.06h-8.35v-1.06h.67c.87 0 1.48-.09 1.84-.28.25-.13.37-.33.37-.61 0-.16-.03-.33-.1-.51l-1.73-4.45h-8.28l-.97 2.55c-.25.68-.38 1.22-.38 1.61 0 .46.21.86.64 1.19s1.05.5 1.88.5h.71v1.06h-7.59v-1.06c.81 0 1.45-.18 1.93-.53.47-.35.91-1.03 1.3-2.02l7.12-17.77zm-.41 4.04l-3.76 9.33h7.4l-3.64-9.33zm31.09-2.01l1.27-1.83h1.03l.08 7.63h-.93c-.58-2.34-1.45-4.05-2.6-5.13s-2.47-1.61-3.96-1.61c-1.25 0-2.27.37-3.06 1.12s-1.19 1.66-1.19 2.74c0 .67.15 1.26.45 1.76s.75.92 1.35 1.23c.6.32 1.73.65 3.39 1.01 2.33.51 3.97 1.02 4.91 1.54s1.64 1.17 2.1 1.96.69 1.71.69 2.77c0 1.89-.63 3.45-1.9 4.69s-2.91 1.86-4.92 1.86c-2.16 0-4.04-.7-5.64-2.1l-1.6 1.95h-1.02v-8.11h1.02c.4 2.24 1.28 4 2.66 5.3 1.38 1.29 2.93 1.94 4.66 1.94 1.4 0 2.54-.41 3.42-1.24s1.32-1.83 1.32-3.01c0-.67-.17-1.26-.5-1.76s-.85-.93-1.57-1.27-2.13-.76-4.23-1.25c-2.31-.55-3.89-1.16-4.73-1.84-1.18-.96-1.77-2.33-1.77-4.09s.59-3.35 1.76-4.52 2.68-1.76 4.51-1.76c.88 0 1.71.16 2.51.47.79.31 1.62.83 2.46 1.56z"/><use xlink:href="#B"/><use xlink:href="#C"/><path d="M206.97 199.4h.95v5.41h4.29v1.3h-4.29v8.51c0 .74.17 1.3.52 1.69s.79.59 1.33.59c.64 0 1.19-.3 1.64-.89s.72-1.58.79-2.95h.95c-.06 1.77-.46 3.08-1.2 3.93s-1.71 1.28-2.9 1.28c-1.09 0-1.95-.3-2.57-.9s-.93-1.38-.93-2.36v-8.91h-2.31v-.99c1.05-.18 1.85-.62 2.4-1.32.82-1.05 1.26-2.52 1.32-4.4zm20.23 12.13h-9.5c.05 2.02.42 3.45 1.13 4.28.81.93 1.84 1.4 3.1 1.4 1.85 0 3.34-1.05 4.46-3.16l.92.4c-1.38 2.68-3.37 4.02-5.98 4.02a5.9 5.9 0 0 1-4.48-1.93c-1.21-1.29-1.82-2.93-1.82-4.93 0-2.15.6-3.89 1.79-5.22s2.66-1.99 4.41-1.99c1.28 0 2.39.33 3.33.99.93.66 1.64 1.61 2.11 2.85.33.87.51 1.96.52 3.29zm-9.5-1h5.75c.34 0 .6-.12.79-.35s.28-.62.28-1.18c0-1.04-.32-1.92-.97-2.65s-1.41-1.09-2.29-1.09c-.98 0-1.82.44-2.5 1.32s-1.04 2.2-1.07 3.95z"/><use xlink:href="#D"/><use xlink:href="#E"/><use xlink:href="#F"/><path d="m296.49,211.53h-9.5c.05,2.02.42,3.45,1.13,4.28.81.93,1.84,1.4,3.1,1.4,1.85,0,3.34-1.05,4.46-3.16l.92.4c-1.38,2.68-3.37,4.02-5.98,4.02-1.77,0-3.27-.64-4.48-1.93s-1.82-2.93-1.82-4.93c0-2.15.6-3.89,1.79-5.22s2.66-1.99,4.41-1.99c1.28,0,2.39.33,3.33.99.93.66,1.64,1.61,2.11,2.85.33.87.51,1.96.52,3.29Zm-9.5-1h5.75c.34,0,.6-.12.79-.35.19-.23.28-.62.28-1.18,0-1.04-.32-1.92-.97-2.65s-1.41-1.09-2.29-1.09c-.98,0-1.82.44-2.5,1.32s-1.04,2.2-1.07,3.95Z"/><use xlink:href="#G"/><use xlink:href="#H"/><use xlink:href="#I"/><use xlink:href="#J"/><use xlink:href="#K"/><path d="M388.55 204.41c1.79 0 3.28.64 4.5 1.93 1.21 1.29 1.82 2.99 1.82 5.09 0 1.45-.27 2.69-.81 3.72s-1.32 1.83-2.32 2.43c-1.01.6-2.09.89-3.25.89-1.72 0-3.17-.65-4.37-1.95s-1.79-2.99-1.79-5.07.6-3.78 1.8-5.08 2.68-1.95 4.43-1.95zm0 1c-1.06 0-1.93.48-2.61 1.44s-1.02 2.47-1.02 4.54.34 3.64 1.01 4.62 1.55 1.46 2.61 1.46 2-.49 2.68-1.46 1.03-2.56 1.03-4.77c0-2.05-.34-3.53-1.01-4.45a3.16 3.16 0 0 0-2.7-1.37zm16.05-.6l5.28-.16v11.41c0 .31.08.53.23.67.22.19.49.28.82.28h1.5v1.06h-7.55v-1.06h1.4c.42 0 .72-.1.91-.3s.29-.5.29-.89v-8.35c0-.53-.15-.93-.45-1.2s-.75-.4-1.34-.4h-1.09v-1.06zm3.68-7.92c.43 0 .8.16 1.12.48a1.55 1.55 0 0 1 .48 1.13c0 .43-.16.79-.47 1.1s-.68.47-1.12.47-.81-.16-1.13-.47-.47-.69-.47-1.11.16-.8.48-1.12.69-.48 1.1-.48zm13.18 7.92h6.53v.96c-.87.02-1.42.1-1.66.23-.24.14-.36.33-.36.59 0 .21.05.42.14.62l3.52 7.83 3.2-7.59c.05-.13.07-.26.07-.4 0-.69-.68-1.12-2.03-1.29v-.96h5.49v.96c-.56.06-1 .21-1.33.45-.33.25-.58.58-.76.99l-4.86 11.26h-.76l-5.22-11.57c-.19-.42-.42-.71-.69-.87-.27-.17-.69-.25-1.27-.26v-.96zm22.42-.4c1.79 0 3.28.64 4.5 1.93 1.21 1.29 1.82 2.99 1.82 5.09 0 1.45-.27 2.69-.81 3.72s-1.32 1.83-2.32 2.43c-1.01.6-2.09.89-3.25.89-1.72 0-3.17-.65-4.37-1.95s-1.79-2.99-1.79-5.07.6-3.78 1.8-5.08 2.68-1.95 4.43-1.95zm0 1c-1.06 0-1.93.48-2.61 1.44s-1.02 2.47-1.02 4.54.34 3.64 1.01 4.62 1.55 1.46 2.61 1.46 2-.49 2.68-1.46 1.03-2.56 1.03-4.77c0-2.05-.34-3.53-1.01-4.45a3.16 3.16 0 0 0-2.7-1.37z"/><use xlink:href="#L"/><path d="M460.99 204.81l5.28-.16v11.41c0 .31.08.53.23.67.22.19.49.28.82.28h1.5v1.06h-7.55v-1.06h1.4c.42 0 .72-.1.91-.3s.29-.5.29-.89v-8.35c0-.53-.15-.93-.45-1.2s-.75-.4-1.34-.4h-1.09v-1.06zm3.68-7.92c.43 0 .8.16 1.12.48a1.55 1.55 0 0 1 .48 1.13c0 .43-.16.79-.47 1.1s-.68.47-1.12.47-.81-.16-1.13-.47-.47-.69-.47-1.11.16-.8.48-1.12.69-.48 1.1-.48zm-328.45 42.48c.21.99.33 1.94.37 2.86.65-1.04 1.33-1.77 2.05-2.21.72-.43 1.5-.65 2.35-.65.91 0 1.77.28 2.59.83.82.56 1.49 1.37 2.01 2.45s.77 2.29.77 3.64c0 2.16-.63 3.92-1.89 5.28-1.04 1.13-2.3 1.7-3.76 1.7-.83 0-1.58-.21-2.25-.64s-1.26-1.06-1.78-1.9v5.37c0 .42.1.71.3.88.25.23.61.34 1.06.34h.98v1h-7.09v-1h.98c.45 0 .79-.09 1.02-.27s.34-.42.34-.71v-13.96c0-.65-.16-1.11-.47-1.38s-.93-.42-1.87-.45v-.95l4.29-.24zm4.11 1.29c-1.03 0-1.9.5-2.61 1.49s-1.07 2.43-1.07 4.3.34 3.3 1.03 4.21 1.56 1.36 2.63 1.36c1 0 1.77-.39 2.3-1.16.69-1.02 1.03-2.51 1.03-4.47s-.31-3.53-.93-4.4c-.62-.88-1.42-1.32-2.39-1.32zm8.08-1.05l5.28-.16v11.41c0 .31.08.53.23.67.22.19.49.28.82.28h1.5v1.06h-7.55v-1.06h1.4c.42 0 .72-.1.91-.3s.29-.5.29-.89v-8.35c0-.53-.15-.93-.45-1.2s-.75-.4-1.34-.4h-1.09v-1.06zm3.68-7.92c.43 0 .8.16 1.12.48a1.55 1.55 0 0 1 .48 1.13c0 .43-.16.79-.47 1.1s-.68.47-1.12.47-.81-.16-1.13-.47-.47-.69-.47-1.11.16-.8.48-1.12.69-.48 1.1-.48zm10.26 7.68v8.79c0 1.08.27 1.91.81 2.49s1.24.88 2.1.88c1.05 0 1.95-.43 2.69-1.28s1.11-1.92 1.11-3.21v-4.97c0-.45-.16-.8-.49-1.05s-.95-.39-1.88-.42v-.99l4.66-.24v10.89c0 .5.14.88.42 1.15s.68.4 1.19.4h.83v.95l-4.46.1-.28-2.61c-.79.93-1.59 1.64-2.39 2.11s-1.61.71-2.43.71c-1.2 0-2.2-.4-3.01-1.2-.82-.79-1.23-2.14-1.23-4.04v-5.76c0-.51-.2-.9-.61-1.16-.28-.19-.86-.29-1.74-.31v-.99l4.7-.24zm5.81-2.34l-.33.35-3.94-2.87c-1.04-.77-1.56-1.39-1.56-1.87 0-.28.12-.55.36-.79s.52-.36.83-.36c.52 0 .99.3 1.42.91l3.21 4.63z"/><use xlink:href="#M"/><path d="M208.21 248.94l.92.27c-.74 2.71-2.36 4.06-4.87 4.06-1.84 0-3.35-.61-4.52-1.83s-1.76-2.84-1.76-4.86c0-2.34.64-4.16 1.93-5.44 1.28-1.29 2.79-1.93 4.53-1.93 1.3 0 2.38.36 3.23 1.08s1.28 1.51 1.28 2.39c0 .53-.16.96-.47 1.31s-.69.52-1.13.52a1.47 1.47 0 0 1-1.08-.44 1.44 1.44 0 0 1-.44-1.06c0-.42.16-.81.48-1.18.15-.18.23-.32.23-.42 0-.27-.18-.54-.55-.8s-.87-.39-1.5-.39c-1.15 0-2.03.42-2.62 1.26-.85 1.22-1.28 2.82-1.28 4.81s.38 3.33 1.13 4.31c.76.98 1.72 1.46 2.89 1.46 1.62 0 2.81-1.04 3.6-3.12zm8.99-9.73c1.79 0 3.28.64 4.5 1.93 1.21 1.29 1.82 2.99 1.82 5.09 0 1.45-.27 2.69-.81 3.72s-1.32 1.83-2.32 2.43c-1.01.6-2.09.89-3.25.89-1.72 0-3.17-.65-4.37-1.95s-1.79-2.99-1.79-5.07.6-3.78 1.8-5.08 2.68-1.95 4.43-1.95zm0 1c-1.06 0-1.93.48-2.61 1.44s-1.02 2.47-1.02 4.54.34 3.64 1.01 4.62 1.55 1.46 2.61 1.46 2-.49 2.68-1.46 1.03-2.56 1.03-4.77c0-2.05-.34-3.53-1.01-4.45a3.16 3.16 0 0 0-2.7-1.37zm8.25-.6l4.4-.27c.18.83.31 1.8.4 2.92.59-.96 1.3-1.68 2.1-2.17.81-.48 1.72-.72 2.74-.72.88 0 1.61.17 2.21.52s1.07.89 1.43 1.64.54 1.58.54 2.51v6.46c0 .48.11.82.33 1.03s.58.3 1.09.3h.93v1.06h-6.99v-1.06h.67c.62 0 1.06-.1 1.3-.3s.37-.5.37-.89v-5.68c0-1.24-.19-2.15-.57-2.75-.53-.85-1.33-1.27-2.41-1.27s-1.96.43-2.67 1.29-1.07 1.98-1.07 3.36v4.91c0 .48.11.82.33 1.03s.59.3 1.1.3h.92v1.06h-7.02v-1.06h.92c.46 0 .81-.09 1.06-.28.24-.19.36-.42.36-.71v-8.57c0-.57-.15-1-.46-1.29s-.75-.44-1.32-.44h-.68v-.92zm23.97-.4c1.79 0 3.28.64 4.5 1.93 1.21 1.29 1.82 2.99 1.82 5.09 0 1.45-.27 2.69-.81 3.72s-1.32 1.83-2.32 2.43c-1.01.6-2.09.89-3.25.89-1.72 0-3.17-.65-4.37-1.95s-1.79-2.99-1.79-5.07.6-3.78 1.8-5.08 2.68-1.95 4.43-1.95zm0 1c-1.06 0-1.93.48-2.61 1.44s-1.02 2.47-1.02 4.54.34 3.64 1.01 4.62 1.55 1.46 2.61 1.46 2-.49 2.68-1.46 1.03-2.56 1.03-4.77c0-2.05-.34-3.53-1.01-4.45a3.16 3.16 0 0 0-2.7-1.37zm9.06-.6l3.79-.24c.21.99.34 1.93.41 2.82.72-1.03 1.44-1.76 2.16-2.18a4.62 4.62 0 0 1 2.37-.63c.92 0 1.67.24 2.27.72s1.05 1.26 1.38 2.34c.63-1.03 1.33-1.79 2.11-2.3a4.5 4.5 0 0 1 2.53-.76c1.21 0 2.11.36 2.71 1.08.77.94 1.16 2.16 1.16 3.65v6.58c0 .4.1.67.3.81.26.22.66.33 1.18.33h.67v1.06h-6.67v-1.06h.67c.57 0 .96-.09 1.19-.28s.34-.47.34-.85v-6.59c0-.98-.24-1.74-.72-2.28s-1.11-.81-1.89-.81c-.59 0-1.13.16-1.61.48s-.86.77-1.13 1.35c-.41.84-.61 1.56-.61 2.14v5.71c0 .39.1.67.31.86.21.18.53.28.96.28h.91v1.06h-6.77v-1.06h.76c.48 0 .84-.09 1.08-.28a.87.87 0 0 0 .35-.72v-6.12c0-1.29-.23-2.23-.69-2.82s-1.07-.88-1.85-.88c-1 0-1.77.34-2.31 1.02-.77.96-1.15 2.09-1.15 3.37v5.29c0 .41.09.68.27.84.26.2.65.3 1.19.3h.68v1.06h-6.68v-1.06h1.01c.38 0 .67-.09.87-.28a.95.95 0 0 0 .3-.72v-8.69c0-.48-.12-.84-.37-1.08s-.74-.39-1.47-.45v-.98zm24.71 0l5.28-.16v11.41c0 .31.08.53.23.67.22.19.49.28.82.28h1.5v1.06h-7.55v-1.06h1.4c.42 0 .72-.1.91-.3s.29-.5.29-.89v-8.35c0-.53-.15-.93-.45-1.2s-.75-.4-1.34-.4h-1.09v-1.06zm3.68-7.92c.43 0 .8.16 1.12.48a1.55 1.55 0 0 1 .48 1.13c0 .43-.16.79-.47 1.1s-.68.47-1.12.47-.81-.16-1.13-.47-.47-.69-.47-1.11.16-.8.48-1.12.69-.48 1.1-.48zm15.85 17.25l.92.27c-.74 2.71-2.36 4.06-4.87 4.06-1.84 0-3.35-.61-4.52-1.83s-1.76-2.84-1.76-4.86c0-2.34.64-4.16 1.93-5.44 1.28-1.29 2.79-1.93 4.53-1.93 1.3 0 2.38.36 3.23 1.08s1.28 1.51 1.28 2.39c0 .53-.16.96-.47 1.31s-.69.52-1.13.52a1.47 1.47 0 0 1-1.08-.44 1.44 1.44 0 0 1-.44-1.06c0-.42.16-.81.48-1.18.15-.18.23-.32.23-.42 0-.27-.18-.54-.55-.8s-.87-.39-1.5-.39c-1.15 0-2.03.42-2.62 1.26-.85 1.22-1.28 2.82-1.28 4.81s.38 3.33 1.13 4.31c.76.98 1.72 1.46 2.89 1.46 1.62 0 2.81-1.04 3.6-3.12zm2.47-9.33l5.28-.16v11.41c0 .31.08.53.23.67.22.19.49.28.82.28h1.5v1.06h-7.55v-1.06h1.4c.42 0 .72-.1.91-.3s.29-.5.29-.89v-8.35c0-.53-.15-.93-.45-1.2s-.75-.4-1.34-.4h-1.09v-1.06zm3.68-7.92c.43 0 .8.16 1.12.48a1.55 1.55 0 0 1 .48 1.13c0 .43-.16.79-.47 1.1s-.68.47-1.12.47-.81-.16-1.13-.47-.47-.69-.47-1.11.16-.8.48-1.12.69-.48 1.1-.48z"/><use xlink:href="#N"/><path d="M343.14 246.33h-9.5c.05 2.02.42 3.45 1.13 4.28.81.93 1.84 1.4 3.1 1.4 1.85 0 3.34-1.05 4.46-3.16l.92.4c-1.38 2.68-3.37 4.02-5.98 4.02a5.9 5.9 0 0 1-4.48-1.93c-1.21-1.29-1.82-2.93-1.82-4.93 0-2.15.6-3.89 1.79-5.22s2.66-1.99 4.41-1.99c1.28 0 2.39.33 3.33.99.93.66 1.64 1.61 2.11 2.85.33.87.51 1.96.52 3.29zm-9.5-1h5.75c.34 0 .6-.12.79-.35s.28-.62.28-1.18c0-1.04-.32-1.92-.97-2.65s-1.41-1.09-2.29-1.09c-.98 0-1.82.44-2.5 1.32s-1.04 2.2-1.07 3.95zm23.72-13.64v9.87c.56-.79 1.18-1.38 1.86-1.77a4.38 4.38 0 0 1 2.22-.58c1.56 0 2.88.61 3.95 1.83s1.61 2.82 1.61 4.81c0 2.16-.58 3.91-1.73 5.23s-2.59 1.99-4.3 1.99c-.81 0-1.55-.16-2.21-.48s-1.34-.86-2.04-1.63c-.54.86-1.06 1.56-1.56 2.11l-.57-.2c.26-1.09.4-2.22.4-3.4v-15c0-.46-.16-.83-.49-1.09s-.79-.4-1.38-.4h-.59v-1.06l4.83-.24zm3.57 8.78c-1.07 0-1.93.46-2.61 1.39-.67.93-1 2.46-1 4.6s.33 3.49.99 4.37 1.52 1.31 2.59 1.31c.96 0 1.74-.43 2.32-1.3.74-1.09 1.1-2.65 1.1-4.68s-.32-3.45-.97-4.35-1.46-1.35-2.43-1.35zm8.19-.86l5.28-.16v11.41c0 .31.08.53.23.67.22.19.49.28.82.28h1.5v1.06h-7.55v-1.06h1.4c.42 0 .72-.1.91-.3s.29-.5.29-.89v-8.35c0-.53-.15-.93-.45-1.2s-.75-.4-1.34-.4h-1.09v-1.06zm3.68-7.92c.43 0 .8.16 1.12.48a1.55 1.55 0 0 1 .48 1.13c0 .43-.16.79-.47 1.1s-.68.47-1.12.47-.81-.16-1.13-.47-.47-.69-.47-1.11.16-.8.48-1.12.69-.48 1.1-.48zm7.31 16.19c.58 1.63 1.26 2.76 2.02 3.39s1.7.94 2.81.94c1.03 0 1.82-.22 2.37-.67s.83-1.02.83-1.71a1.75 1.75 0 0 0-.31-1.04c-.2-.3-.48-.52-.84-.67s-1.29-.36-2.79-.64c-1.44-.28-2.44-.58-3.01-.89a3.37 3.37 0 0 1-1.33-1.29 3.47 3.47 0 0 1-.48-1.78c0-.97.33-1.86.98-2.65.84-1.01 2.02-1.52 3.53-1.52 1.15 0 2.22.36 3.21 1.09l.94-.99h.58l.37 4.73h-.95c-.42-1.34-.98-2.31-1.69-2.9s-1.58-.88-2.62-.88c-.9 0-1.6.22-2.11.66s-.77.97-.77 1.61c0 .56.24 1.02.71 1.39.46.38 1.37.67 2.72.89 1.57.26 2.59.49 3.06.67.77.28 1.38.72 1.8 1.31.43.59.64 1.31.64 2.16 0 1.17-.46 2.16-1.38 2.97s-2.09 1.22-3.51 1.22c-1.31 0-2.53-.43-3.66-1.3l-1.04 1.19h-.75l-.28-5.28h.95zm18.09-8.67c1.79 0 3.28.64 4.5 1.93 1.21 1.29 1.82 2.99 1.82 5.09 0 1.45-.27 2.69-.81 3.72s-1.32 1.83-2.32 2.43c-1.01.6-2.09.89-3.25.89-1.72 0-3.17-.65-4.37-1.95s-1.79-2.99-1.79-5.07.6-3.78 1.8-5.08 2.68-1.95 4.43-1.95zm0 1c-1.06 0-1.93.48-2.61 1.44s-1.02 2.47-1.02 4.54.34 3.64 1.01 4.62 1.55 1.46 2.61 1.46 2-.49 2.68-1.46 1.03-2.56 1.03-4.77c0-2.05-.34-3.53-1.01-4.45a3.16 3.16 0 0 0-2.7-1.37zm18.4.15c.94-.95 1.81-1.43 2.61-1.43.47 0 .86.15 1.18.45a1.48 1.48 0 0 1 .47 1.1c0 .35-.11.64-.32.87s-.46.35-.74.35c-.54 0-.9-.33-1.09-.99-.08-.28-.2-.42-.38-.42-.32 0-.67.21-1.05.64.41.56.68 1.04.84 1.45.15.41.23.85.23 1.32 0 .82-.2 1.55-.6 2.17s-1.05 1.18-1.97 1.66-1.8.72-2.64.72h-1.54c-1.09 0-1.82.11-2.18.34a1.16 1.16 0 0 0-.54 1.03.97.97 0 0 0 .44.85c.29.2.85.3 1.66.3l3.5-.07c1.77 0 3.04.29 3.82.88s1.17 1.4 1.17 2.43c0 1.13-.44 2.09-1.33 2.86-1.24 1.09-3.08 1.64-5.54 1.64-2.03 0-3.54-.37-4.52-1.12-.77-.58-1.16-1.24-1.16-1.97 0-.56.25-1.07.74-1.53.5-.46 1.33-.81 2.5-1.03-.93-.23-1.64-.56-2.11-1a2.15 2.15 0 0 1-.71-1.64 2.38 2.38 0 0 1 .57-1.58c.38-.45 1.04-.83 1.99-1.15-.8-.44-1.41-.98-1.81-1.61a3.95 3.95 0 0 1-.61-2.16c0-1.28.5-2.36 1.51-3.23s2.32-1.3 3.94-1.3c.66 0 1.3.09 1.91.28s1.21.48 1.78.86zm-2.89 12.53c-1.74 0-2.98.24-3.72.72s-1.11 1.06-1.11 1.74c0 .64.28 1.15.84 1.51.74.49 1.78.74 3.14.74 1.62 0 2.85-.27 3.67-.81s1.23-1.14 1.23-1.8c0-.39-.13-.75-.38-1.08s-.66-.59-1.22-.76-1.37-.26-2.45-.26zm-.83-12.77c-.84 0-1.53.31-2.08.93s-.82 1.48-.82 2.6c0 1.19.27 2.11.82 2.77s1.25.98 2.1.98 1.54-.32 2.09-.96c.54-.64.81-1.55.81-2.74 0-1.1-.28-1.98-.83-2.62a2.64 2.64 0 0 0-2.09-.96zm9.13-.51l4.4-.27c.18.83.31 1.8.4 2.92.59-.96 1.3-1.68 2.1-2.17.81-.48 1.72-.72 2.74-.72.88 0 1.61.17 2.21.52s1.07.89 1.43 1.64.54 1.58.54 2.51v6.46c0 .48.11.82.33 1.03s.58.3 1.09.3h.93v1.06h-6.99v-1.06h.67c.62 0 1.06-.1 1.3-.3s.37-.5.37-.89v-5.68c0-1.24-.19-2.15-.57-2.75-.53-.85-1.33-1.27-2.41-1.27s-1.96.43-2.67 1.29-1.07 1.98-1.07 3.36v4.91c0 .48.11.82.33 1.03s.59.3 1.1.3h.92v1.06h-7.02v-1.06h.92c.46 0 .81-.09 1.06-.28.24-.19.36-.42.36-.71v-8.57c0-.57-.15-1-.46-1.29s-.75-.44-1.32-.44h-.68v-.92zm31.74 11.81l.51.79c-.69.71-1.45 1.06-2.29 1.06-.64 0-1.18-.17-1.62-.52s-.82-.96-1.15-1.84c-.9.94-1.69 1.57-2.37 1.89s-1.5.47-2.45.47c-1.36 0-2.39-.29-3.1-.88a2.79 2.79 0 0 1-1.06-2.25c0-1.38.81-2.52 2.43-3.43s3.77-1.52 6.46-1.82v-2.01c0-.72-.29-1.33-.86-1.84s-1.31-.76-2.2-.76c-.82 0-1.53.17-2.12.51-.43.25-.64.5-.64.75 0 .14.11.36.34.67.27.38.41.71.41 1a1.4 1.4 0 0 1-.41 1.04c-.27.27-.63.4-1.08.4-.47 0-.87-.16-1.18-.48-.32-.32-.47-.73-.47-1.23 0-.93.53-1.79 1.58-2.56s2.43-1.16 4.14-1.16c1.58 0 2.78.34 3.61 1.02.83.69 1.25 1.52 1.25 2.51V250c0 .64.1 1.11.31 1.42s.48.47.81.47c.37 0 .75-.15 1.16-.45zm-4.64-5.59c-2.4.33-4.1.87-5.1 1.61-.75.57-1.12 1.37-1.12 2.41 0 .73.19 1.3.58 1.71s.89.62 1.51.62c1.11 0 2.08-.42 2.9-1.27s1.22-1.9 1.22-3.18v-1.9z"/><use xlink:href="#O"/><path d="M148.14 274.41l4.4-.27c.18.83.31 1.8.4 2.92.59-.96 1.3-1.68 2.1-2.17.81-.48 1.72-.72 2.74-.72.88 0 1.61.17 2.21.52s1.07.89 1.43 1.64.54 1.58.54 2.51v6.46c0 .48.11.82.33 1.03s.58.3 1.09.3h.93v1.06h-6.99v-1.06h.67c.62 0 1.06-.1 1.3-.3s.37-.5.37-.89v-5.68c0-1.24-.19-2.15-.57-2.75-.53-.85-1.33-1.27-2.41-1.27s-1.96.43-2.67 1.29-1.07 1.98-1.07 3.36v4.91c0 .48.11.82.33 1.03s.59.3 1.1.3h.92v1.06h-7.02v-1.06h.92c.46 0 .81-.09 1.06-.28.24-.19.36-.42.36-.71v-8.57c0-.57-.15-1-.46-1.29s-.75-.44-1.32-.44h-.68v-.92zm27.86 9.33l.92.27c-.74 2.71-2.36 4.06-4.87 4.06-1.84 0-3.35-.61-4.52-1.83s-1.76-2.84-1.76-4.86c0-2.34.64-4.16 1.93-5.44 1.28-1.29 2.79-1.93 4.53-1.93 1.3 0 2.38.36 3.23 1.08s1.28 1.51 1.28 2.39c0 .53-.16.96-.47 1.31s-.69.52-1.13.52a1.47 1.47 0 0 1-1.08-.44 1.44 1.44 0 0 1-.44-1.06c0-.42.16-.81.48-1.18.15-.18.23-.32.23-.42 0-.27-.18-.54-.55-.8s-.87-.39-1.5-.39c-1.15 0-2.03.42-2.62 1.26-.85 1.22-1.28 2.82-1.28 4.81s.38 3.33 1.13 4.31c.76.98 1.72 1.46 2.89 1.46 1.62 0 2.81-1.04 3.6-3.12zm2.39-17.01l5.03-.24v10.22c.7-.91 1.45-1.58 2.25-2.03s1.65-.67 2.55-.67c.85 0 1.62.2 2.29.61.53.32.98.88 1.35 1.68s.56 1.75.56 2.85v6.3c0 .41.1.7.31.88s.53.28.98.28h1.13v1.06h-7.16v-1.06h.79c.6 0 1.02-.1 1.25-.29s.35-.48.35-.87v-6.3c0-1.1-.27-1.97-.8-2.58a2.61 2.61 0 0 0-2.05-.93c-.65 0-1.26.17-1.81.52-.56.35-1.03.88-1.42 1.59a4.64 4.64 0 0 0-.58 2.26v5.29c0 .47.1.81.3 1.01s.52.3.98.3h1.13v1.06h-7.01v-1.06h.79c.54 0 .92-.11 1.15-.32s.34-.54.34-.98v-15.83c0-.57-.15-.99-.45-1.27s-.73-.42-1.29-.42h-.96v-1.06z"/><use xlink:href="#P"/><path d="M222.5 269h.95v5.41h4.29v1.3h-4.29v8.51c0 .74.17 1.3.52 1.69s.79.59 1.33.59c.64 0 1.19-.3 1.64-.89s.72-1.58.79-2.95h.95c-.06 1.77-.46 3.08-1.2 3.93s-1.71 1.28-2.9 1.28c-1.09 0-1.95-.3-2.57-.9s-.93-1.38-.93-2.36v-8.91h-2.31v-.99c1.05-.18 1.85-.62 2.4-1.32.82-1.05 1.26-2.52 1.32-4.4zm14.04 5.01c1.79 0 3.28.64 4.5 1.93 1.21 1.29 1.82 2.99 1.82 5.09 0 1.45-.27 2.69-.81 3.72s-1.32 1.83-2.32 2.43c-1.01.6-2.09.89-3.25.89-1.72 0-3.17-.65-4.37-1.95s-1.79-2.99-1.79-5.07.6-3.78 1.8-5.08 2.68-1.95 4.43-1.95zm0 1c-1.06 0-1.93.48-2.61 1.44s-1.02 2.47-1.02 4.54.34 3.64 1.01 4.62 1.55 1.46 2.61 1.46 2-.49 2.68-1.46 1.03-2.56 1.03-4.77c0-2.05-.34-3.53-1.01-4.45a3.16 3.16 0 0 0-2.7-1.37zm8.03-.6l4.77-.24v5.37c.51-1.76 1.12-3.1 1.84-4.01s1.6-1.36 2.66-1.36c.72 0 1.29.22 1.72.66s.64 1.03.64 1.76c0 .6-.14 1.06-.43 1.39s-.65.5-1.08.5-.77-.14-1.03-.42-.39-.67-.39-1.15c0-.31.08-.6.23-.88.14-.25.21-.39.21-.44 0-.14-.09-.21-.27-.21-.39 0-.83.23-1.32.68-.68.63-1.2 1.5-1.57 2.61-.57 1.72-.85 3.09-.85 4.12v2.85c0 .32.11.57.34.74s.61.25 1.16.25h1.69v1.06h-8.24v-1.06h1.32c.44 0 .78-.09 1-.26s.34-.38.34-.63v-8.45c0-.64-.14-1.11-.41-1.41s-.67-.45-1.17-.45h-1.16v-1zm13.09 0l4.4-.27c.18.83.31 1.8.4 2.92.59-.96 1.3-1.68 2.1-2.17.81-.48 1.72-.72 2.74-.72.88 0 1.61.17 2.21.52s1.07.89 1.43 1.64.54 1.58.54 2.51v6.46c0 .48.11.82.33 1.03s.58.3 1.09.3h.93v1.06h-6.99v-1.06h.67c.62 0 1.06-.1 1.3-.3s.37-.5.37-.89v-5.68c0-1.24-.19-2.15-.57-2.75-.53-.85-1.33-1.27-2.41-1.27s-1.96.43-2.67 1.29-1.07 1.98-1.07 3.36v4.91c0 .48.11.82.33 1.03s.59.3 1.1.3h.92v1.06h-7.02v-1.06h.92c.46 0 .81-.09 1.06-.28.24-.19.36-.42.36-.71v-8.57c0-.57-.15-1-.46-1.29s-.75-.44-1.32-.44h-.68v-.92zm31.73 11.81l.51.79c-.69.71-1.45 1.06-2.29 1.06-.64 0-1.18-.17-1.62-.52s-.82-.96-1.15-1.84c-.9.94-1.69 1.57-2.37 1.89s-1.5.47-2.45.47c-1.36 0-2.39-.29-3.1-.88a2.79 2.79 0 0 1-1.06-2.25c0-1.38.81-2.52 2.43-3.43s3.77-1.52 6.46-1.82v-2.01c0-.72-.29-1.33-.86-1.84s-1.31-.76-2.2-.76c-.82 0-1.53.17-2.12.51-.43.25-.64.5-.64.75 0 .14.11.36.34.67.27.38.41.71.41 1a1.4 1.4 0 0 1-.41 1.04c-.27.27-.63.4-1.08.4-.47 0-.87-.16-1.18-.48-.32-.32-.47-.73-.47-1.23 0-.93.53-1.79 1.58-2.56s2.43-1.16 4.14-1.16c1.58 0 2.78.34 3.61 1.02.83.69 1.25 1.52 1.25 2.51v7.25c0 .64.1 1.11.31 1.42s.48.47.81.47c.37 0 .75-.15 1.16-.45zm-4.64-5.59c-2.4.33-4.1.87-5.1 1.61-.75.57-1.12 1.37-1.12 2.41 0 .73.19 1.3.58 1.71s.89.62 1.51.62c1.11 0 2.08-.42 2.9-1.27s1.22-1.9 1.22-3.18v-1.9zm6.54-6.22l4.77-.24v5.37c.51-1.76 1.12-3.1 1.84-4.01s1.6-1.36 2.66-1.36c.72 0 1.29.22 1.72.66s.64 1.03.64 1.76c0 .6-.14 1.06-.43 1.39s-.65.5-1.08.5-.77-.14-1.03-.42-.39-.67-.39-1.15c0-.31.08-.6.23-.88.14-.25.21-.39.21-.44 0-.14-.09-.21-.27-.21-.39 0-.83.23-1.32.68-.68.63-1.2 1.5-1.57 2.61-.57 1.72-.85 3.09-.85 4.12v2.85c0 .32.11.57.34.74s.61.25 1.16.25h1.69v1.06h-8.24v-1.06h1.32c.44 0 .78-.09 1-.26s.34-.38.34-.63v-8.45c0-.64-.14-1.11-.41-1.41s-.67-.45-1.17-.45h-1.16v-1zm25.53 6.72h-9.5c.05 2.02.42 3.45 1.13 4.28.81.93 1.84 1.4 3.1 1.4 1.85 0 3.34-1.05 4.46-3.16l.92.4c-1.38 2.68-3.37 4.02-5.98 4.02a5.9 5.9 0 0 1-4.48-1.93c-1.21-1.29-1.82-2.93-1.82-4.93 0-2.15.6-3.89 1.79-5.22s2.66-1.99 4.41-1.99c1.28 0 2.39.33 3.33.99.93.66 1.64 1.61 2.11 2.85.33.87.51 1.96.52 3.29zm-9.5-1h5.75c.34 0 .6-.12.79-.35s.28-.62.28-1.18c0-1.04-.32-1.92-.97-2.65s-1.41-1.09-2.29-1.09c-.98 0-1.82.44-2.5 1.32s-1.04 2.2-1.07 3.95zm33.63 6.09l.51.79c-.69.71-1.45 1.06-2.29 1.06-.64 0-1.18-.17-1.62-.52s-.82-.96-1.15-1.84c-.9.94-1.69 1.57-2.37 1.89s-1.5.47-2.45.47c-1.36 0-2.39-.29-3.1-.88a2.79 2.79 0 0 1-1.06-2.25c0-1.38.81-2.52 2.43-3.43s3.77-1.52 6.46-1.82v-2.01c0-.72-.29-1.33-.86-1.84s-1.31-.76-2.2-.76c-.82 0-1.53.17-2.12.51-.43.25-.64.5-.64.75 0 .14.11.36.34.67.27.38.41.71.41 1a1.4 1.4 0 0 1-.41 1.04c-.27.27-.63.4-1.08.4-.47 0-.87-.16-1.18-.48-.32-.32-.47-.73-.47-1.23 0-.93.53-1.79 1.58-2.56s2.43-1.16 4.14-1.16c1.58 0 2.78.34 3.61 1.02.83.69 1.25 1.52 1.25 2.51v7.25c0 .64.1 1.11.31 1.42s.48.47.81.47c.37 0 .75-.15 1.16-.45zm-4.64-5.59c-2.4.33-4.1.87-5.1 1.61-.75.57-1.12 1.37-1.12 2.41 0 .73.19 1.3.58 1.71s.89.62 1.51.62c1.11 0 2.08-.42 2.9-1.27s1.22-1.9 1.22-3.18v-1.9zm19.82-14.14v19.23c0 .26.08.47.24.61.24.19.52.28.86.28h1.4v1.06h-7.52v-1.06h1.33c.43 0 .76-.1.97-.31s.32-.5.32-.88v-16.14c0-.47-.13-.82-.38-1.03-.35-.3-.78-.45-1.29-.45h-1.19v-1.06l5.25-.24zm18.14 19.73l.51.79c-.69.71-1.45 1.06-2.29 1.06-.64 0-1.18-.17-1.62-.52s-.82-.96-1.15-1.84c-.9.94-1.69 1.57-2.37 1.89s-1.5.47-2.45.47c-1.36 0-2.39-.29-3.1-.88a2.79 2.79 0 0 1-1.06-2.25c0-1.38.81-2.52 2.43-3.43s3.77-1.52 6.46-1.82v-2.01c0-.72-.29-1.33-.86-1.84s-1.31-.76-2.2-.76c-.82 0-1.53.17-2.12.51-.43.25-.64.5-.64.75 0 .14.11.36.34.67.27.38.41.71.41 1a1.4 1.4 0 0 1-.41 1.04c-.27.27-.63.4-1.08.4-.47 0-.87-.16-1.18-.48-.32-.32-.47-.73-.47-1.23 0-.93.53-1.79 1.58-2.56s2.43-1.16 4.14-1.16c1.58 0 2.78.34 3.61 1.02.83.69 1.25 1.52 1.25 2.51v7.25c0 .64.1 1.11.31 1.42s.48.47.81.47c.37 0 .75-.15 1.16-.45zm-4.64-5.59c-2.4.33-4.1.87-5.1 1.61-.75.57-1.12 1.37-1.12 2.41 0 .73.19 1.3.58 1.71s.89.62 1.51.62c1.11 0 2.08-.42 2.9-1.27s1.22-1.9 1.22-3.18v-1.9zm6.17-6.22h6.53v.96c-.87.02-1.42.1-1.66.23-.24.14-.36.33-.36.59 0 .21.05.42.14.62l3.52 7.83 3.2-7.59c.05-.13.07-.26.07-.4 0-.69-.68-1.12-2.03-1.29v-.96h5.49v.96c-.56.06-1 .21-1.33.45-.33.25-.58.58-.76.99l-4.86 11.26h-.76l-5.22-11.57c-.19-.42-.42-.71-.69-.87-.27-.17-.69-.25-1.27-.26v-.96zm22.41-.4c1.79 0 3.28.64 4.5 1.93 1.21 1.29 1.82 2.99 1.82 5.09 0 1.45-.27 2.69-.81 3.72s-1.32 1.83-2.32 2.43c-1.01.6-2.09.89-3.25.89-1.72 0-3.17-.65-4.37-1.95s-1.79-2.99-1.79-5.07.6-3.78 1.8-5.08 2.68-1.95 4.43-1.95zm0 1c-1.06 0-1.93.48-2.61 1.44s-1.02 2.47-1.02 4.54.34 3.64 1.01 4.62 1.55 1.46 2.61 1.46 2-.49 2.68-1.46 1.03-2.56 1.03-4.77c0-2.05-.34-3.53-1.01-4.45a3.16 3.16 0 0 0-2.7-1.37zm8.03-.6l4.77-.24v5.37c.51-1.76 1.12-3.1 1.84-4.01s1.6-1.36 2.66-1.36c.72 0 1.29.22 1.72.66s.64 1.03.64 1.76c0 .6-.14 1.06-.43 1.39s-.65.5-1.08.5-.77-.14-1.03-.42-.39-.67-.39-1.15c0-.31.08-.6.23-.88.14-.25.21-.39.21-.44 0-.14-.09-.21-.27-.21-.39 0-.83.23-1.32.68-.68.63-1.2 1.5-1.57 2.61-.57 1.72-.85 3.09-.85 4.12v2.85c0 .32.11.57.34.74s.61.25 1.16.25h1.69v1.06h-8.24v-1.06h1.32c.44 0 .78-.09 1-.26s.34-.38.34-.63v-8.45c0-.64-.14-1.11-.41-1.41s-.67-.45-1.17-.45h-1.16v-1zm27.1 11.81l.51.79c-.69.71-1.45 1.06-2.29 1.06-.64 0-1.18-.17-1.62-.52s-.82-.96-1.15-1.84c-.9.94-1.69 1.57-2.37 1.89s-1.5.47-2.45.47c-1.36 0-2.39-.29-3.1-.88a2.79 2.79 0 0 1-1.06-2.25c0-1.38.81-2.52 2.43-3.43s3.77-1.52 6.46-1.82v-2.01c0-.72-.29-1.33-.86-1.84s-1.31-.76-2.2-.76c-.82 0-1.53.17-2.12.51-.43.25-.64.5-.64.75 0 .14.11.36.34.67.27.38.41.71.41 1a1.4 1.4 0 0 1-.41 1.04c-.27.27-.63.4-1.08.4-.47 0-.87-.16-1.18-.48-.32-.32-.47-.73-.47-1.23 0-.93.53-1.79 1.58-2.56s2.43-1.16 4.14-1.16c1.58 0 2.78.34 3.61 1.02.83.69 1.25 1.52 1.25 2.51v7.25c0 .64.1 1.11.31 1.42s.48.47.81.47c.37 0 .75-.15 1.16-.45zm-4.64-5.59c-2.4.33-4.1.87-5.1 1.61-.75.57-1.12 1.37-1.12 2.41 0 .73.19 1.3.58 1.71s.89.62 1.51.62c1.11 0 2.08-.42 2.9-1.27s1.22-1.9 1.22-3.18v-1.9zm6.54-6.22l4.77-.24v5.37c.51-1.76 1.12-3.1 1.84-4.01s1.6-1.36 2.66-1.36c.72 0 1.29.22 1.72.66s.64 1.03.64 1.76c0 .6-.14 1.06-.43 1.39s-.65.5-1.08.5-.77-.14-1.03-.42-.39-.67-.39-1.15c0-.31.08-.6.23-.88.14-.25.21-.39.21-.44 0-.14-.09-.21-.27-.21-.39 0-.83.23-1.32.68-.68.63-1.2 1.5-1.57 2.61-.57 1.72-.85 3.09-.85 4.12v2.85c0 .32.11.57.34.74s.61.25 1.16.25h1.69v1.06h-8.24v-1.06h1.32c.44 0 .78-.09 1-.26s.34-.38.34-.63v-8.45c0-.64-.14-1.11-.41-1.41s-.67-.45-1.17-.45h-1.16v-1zm25.53 6.72h-9.5c.05 2.02.42 3.45 1.13 4.28.81.93 1.84 1.4 3.1 1.4 1.85 0 3.34-1.05 4.46-3.16l.92.4c-1.38 2.68-3.37 4.02-5.98 4.02a5.9 5.9 0 0 1-4.48-1.93c-1.21-1.29-1.82-2.93-1.82-4.93 0-2.15.6-3.89 1.79-5.22s2.66-1.99 4.41-1.99c1.28 0 2.39.33 3.33.99.93.66 1.64 1.61 2.11 2.85.33.87.51 1.96.52 3.29zm-9.5-1h5.75c.34 0 .6-.12.79-.35s.28-.62.28-1.18c0-1.04-.32-1.92-.97-2.65s-1.41-1.09-2.29-1.09c-.98 0-1.82.44-2.5 1.32s-1.04 2.2-1.07 3.95zm12.98 12.47l-.51-.68c1.82-1.39 2.73-2.61 2.73-3.65 0-.15-.03-.26-.08-.33s-.13-.11-.23-.11l-.31.06c-.18.03-.33.04-.44.04-.42 0-.79-.17-1.11-.5a1.65 1.65 0 0 1-.47-1.2c0-.47.16-.85.48-1.17s.73-.48 1.23-.48c.62 0 1.14.24 1.56.73s.62 1.15.62 1.99c0 1.84-1.16 3.61-3.47 5.31z"/><use xlink:href="#Q"/><use xlink:href="#R"/><path d="M165.6 309.21l5.28-.16v11.41c0 .31.08.53.23.67.22.19.49.28.82.28h1.5v1.06h-7.55v-1.06h1.4c.42 0 .72-.1.91-.3s.29-.5.29-.89v-8.35c0-.53-.15-.93-.45-1.2s-.75-.4-1.34-.4h-1.09v-1.06zm3.68-7.92c.43 0 .8.16 1.12.48a1.55 1.55 0 0 1 .48 1.13c0 .43-.16.79-.47 1.1s-.68.47-1.12.47-.81-.16-1.13-.47-.47-.69-.47-1.11.16-.8.48-1.12.69-.48 1.1-.48zm5.71 7.92l4.4-.27c.18.83.31 1.8.4 2.92.59-.96 1.3-1.68 2.1-2.17.81-.48 1.72-.72 2.74-.72.88 0 1.61.17 2.21.52s1.07.89 1.43 1.64.54 1.58.54 2.51v6.46c0 .48.11.82.33 1.03s.58.3 1.09.3h.93v1.06h-6.99v-1.06h.67c.62 0 1.06-.1 1.3-.3s.37-.5.37-.89v-5.68c0-1.24-.19-2.15-.57-2.75-.53-.85-1.33-1.27-2.41-1.27s-1.96.43-2.67 1.29-1.07 1.98-1.07 3.36v4.91c0 .48.11.82.33 1.03s.59.3 1.1.3h.92v1.06h-7.02v-1.06h.92c.46 0 .81-.09 1.06-.28.24-.19.36-.42.36-.71v-8.57c0-.57-.15-1-.46-1.29s-.75-.44-1.32-.44H175v-.92zm25.24-7.68l5.18-.24v18.15c0 .71.13 1.21.4 1.51s.67.45 1.21.45h.92v1.06h-4.53l-.34-2.71c-.54.96-1.17 1.69-1.89 2.17-.72.49-1.53.73-2.43.73-1.51 0-2.8-.63-3.86-1.9-1.06-1.26-1.59-2.94-1.59-5.01 0-2.25.68-4.04 2.04-5.38 1.07-1.05 2.29-1.57 3.68-1.57.85 0 1.61.21 2.29.64s1.26 1.07 1.76 1.93v-7.49c0-.4-.15-.71-.46-.94s-.79-.35-1.44-.35h-.95v-1.06zm-.82 8.45c-1.02 0-1.83.42-2.43 1.26s-.9 2.26-.9 4.25c0 2.16.31 3.68.92 4.57s1.4 1.32 2.36 1.32c1.03 0 1.91-.49 2.64-1.48s1.1-2.43 1.1-4.33c0-1.79-.39-3.2-1.17-4.23-.68-.91-1.52-1.36-2.52-1.36zm9.69-.77l5.28-.16v11.41c0 .31.08.53.23.67.22.19.49.28.82.28h1.5v1.06h-7.55v-1.06h1.4c.42 0 .72-.1.91-.3s.29-.5.29-.89v-8.35c0-.53-.15-.93-.45-1.2s-.75-.4-1.34-.4h-1.09v-1.06zm3.68-7.92c.43 0 .8.16 1.12.48a1.55 1.55 0 0 1 .48 1.13c0 .43-.16.79-.47 1.1s-.68.47-1.12.47-.81-.16-1.13-.47-.47-.69-.47-1.11.16-.8.48-1.12.69-.48 1.1-.48zm15.37 16.19c.58 1.63 1.26 2.76 2.02 3.39s1.7.94 2.81.94c1.03 0 1.82-.22 2.37-.67s.83-1.02.83-1.71a1.75 1.75 0 0 0-.31-1.04c-.2-.3-.48-.52-.84-.67s-1.29-.36-2.79-.64c-1.44-.28-2.44-.58-3.01-.89a3.37 3.37 0 0 1-1.33-1.29 3.47 3.47 0 0 1-.48-1.78c0-.97.33-1.86.98-2.65.84-1.01 2.02-1.52 3.53-1.52 1.15 0 2.22.36 3.21 1.09l.94-.99h.58l.37 4.73h-.95c-.42-1.34-.98-2.31-1.69-2.9s-1.58-.88-2.62-.88c-.9 0-1.6.22-2.11.66s-.77.97-.77 1.61c0 .56.24 1.02.71 1.39.46.38 1.37.67 2.72.89 1.57.26 2.59.49 3.06.67.77.28 1.38.72 1.8 1.31.43.59.64 1.31.64 2.16 0 1.17-.46 2.16-1.38 2.97s-2.09 1.22-3.51 1.22c-1.31 0-2.53-.43-3.66-1.3l-1.04 1.19h-.75l-.28-5.28h.95zm11.57-8.27l5.28-.16v11.41c0 .31.08.53.23.67.22.19.49.28.82.28h1.5v1.06H240v-1.06h1.4c.42 0 .72-.1.91-.3s.29-.5.29-.89v-8.35c0-.53-.15-.93-.45-1.2s-.75-.4-1.34-.4h-1.09v-1.06zm3.68-7.92c.43 0 .8.16 1.12.48a1.55 1.55 0 0 1 .48 1.13c0 .43-.16.79-.47 1.1s-.68.47-1.12.47-.81-.16-1.13-.47-.47-.69-.47-1.11.16-.8.48-1.12.69-.48 1.1-.48zm15.36 16.19c.58 1.63 1.26 2.76 2.02 3.39s1.7.94 2.81.94c1.03 0 1.82-.22 2.37-.67s.83-1.02.83-1.71a1.75 1.75 0 0 0-.31-1.04c-.2-.3-.48-.52-.84-.67s-1.29-.36-2.79-.64c-1.44-.28-2.44-.58-3.01-.89a3.37 3.37 0 0 1-1.33-1.29 3.47 3.47 0 0 1-.48-1.78c0-.97.33-1.86.98-2.65.84-1.01 2.02-1.52 3.53-1.52 1.15 0 2.22.36 3.21 1.09l.94-.99h.58l.37 4.73h-.95c-.42-1.34-.98-2.31-1.69-2.9s-1.58-.88-2.62-.88c-.9 0-1.6.22-2.11.66s-.77.97-.77 1.61c0 .56.24 1.02.71 1.39.46.38 1.37.67 2.72.89 1.57.26 2.59.49 3.06.67.77.28 1.38.72 1.8 1.31.43.59.64 1.31.64 2.16 0 1.17-.46 2.16-1.38 2.97s-2.09 1.22-3.51 1.22c-1.31 0-2.53-.43-3.66-1.3l-1.04 1.19h-.75l-.28-5.28h.95zm25.84 3.54l.51.79c-.69.71-1.45 1.06-2.29 1.06-.64 0-1.18-.17-1.62-.52s-.82-.96-1.15-1.84c-.9.94-1.69 1.57-2.37 1.89s-1.5.47-2.45.47c-1.36 0-2.39-.29-3.1-.88a2.79 2.79 0 0 1-1.06-2.25c0-1.38.81-2.52 2.43-3.43s3.77-1.52 6.46-1.82v-2.01c0-.72-.29-1.33-.86-1.84s-1.31-.76-2.2-.76c-.82 0-1.53.17-2.12.51-.43.25-.64.5-.64.75 0 .14.11.36.34.67.27.38.41.71.41 1a1.4 1.4 0 0 1-.41 1.04c-.27.27-.63.4-1.08.4-.47 0-.87-.16-1.18-.48-.32-.32-.47-.73-.47-1.23 0-.93.53-1.79 1.58-2.56s2.43-1.16 4.14-1.16c1.58 0 2.78.34 3.61 1.02.83.69 1.25 1.52 1.25 2.51v7.25c0 .64.1 1.11.31 1.42s.48.47.81.47c.37 0 .75-.15 1.16-.45zm-4.64-5.59c-2.4.33-4.1.87-5.1 1.61-.75.57-1.12 1.37-1.12 2.41 0 .73.19 1.3.58 1.71s.89.62 1.51.62c1.11 0 2.08-.42 2.9-1.27s1.22-1.9 1.22-3.18v-1.9zm16.89 3.11l.92.27c-.74 2.71-2.36 4.06-4.87 4.06-1.84 0-3.35-.61-4.52-1.83s-1.76-2.84-1.76-4.86c0-2.34.64-4.16 1.93-5.44 1.28-1.29 2.79-1.93 4.53-1.93 1.3 0 2.38.36 3.23 1.08s1.28 1.51 1.28 2.39c0 .53-.16.96-.47 1.31s-.69.52-1.13.52a1.47 1.47 0 0 1-1.08-.44 1.44 1.44 0 0 1-.44-1.06c0-.42.16-.81.48-1.18.15-.18.23-.32.23-.42 0-.27-.18-.54-.55-.8s-.87-.39-1.5-.39c-1.15 0-2.03.42-2.62 1.26-.85 1.22-1.28 2.82-1.28 4.81s.38 3.33 1.13 4.31c.76.98 1.72 1.46 2.89 1.46 1.62 0 2.81-1.04 3.6-3.12zm2.52-9.33l4.77-.24v5.37c.51-1.76 1.12-3.1 1.84-4.01s1.6-1.36 2.66-1.36c.72 0 1.29.22 1.72.66s.64 1.03.64 1.76c0 .6-.14 1.06-.43 1.39s-.65.5-1.08.5-.77-.14-1.03-.42-.39-.67-.39-1.15c0-.31.08-.6.23-.88.14-.25.21-.39.21-.44 0-.14-.09-.21-.27-.21-.39 0-.83.23-1.32.68-.68.63-1.2 1.5-1.57 2.61-.57 1.72-.85 3.09-.85 4.12v2.85c0 .32.11.57.34.74s.61.25 1.16.25h1.69v1.06h-8.24v-1.06h1.32c.44 0 .78-.09 1-.26s.34-.38.34-.63v-8.45c0-.64-.14-1.11-.41-1.41s-.67-.45-1.17-.45h-1.16v-1zm12.83 0l5.28-.16v11.41c0 .31.08.53.23.67.22.19.49.28.82.28h1.5v1.06h-7.55v-1.06h1.4c.42 0 .72-.1.91-.3s.29-.5.29-.89v-8.35c0-.53-.15-.93-.45-1.2s-.75-.4-1.34-.4h-1.09v-1.06zm3.68-7.92c.43 0 .8.16 1.12.48a1.55 1.55 0 0 1 .48 1.13c0 .43-.16.79-.47 1.1s-.68.47-1.12.47-.81-.16-1.13-.47-.47-.69-.47-1.11.16-.8.48-1.12.69-.48 1.1-.48zm10.24 7.92h3.31v1.23h-3.31v9.69c0 .44.1.75.31.93.28.24.68.35 1.19.35h1.81v1.06h-8.13v-1.06h1.12c.5 0 .85-.08 1.05-.25s.3-.43.3-.79v-9.93h-2.29v-1.23h2.29v-1.01c0-2.34.49-4.12 1.46-5.35s2.17-1.84 3.6-1.84c1.06 0 1.9.26 2.5.78s.9 1.2.9 2.04c0 .55-.14.98-.43 1.29s-.65.47-1.1.47a1.35 1.35 0 0 1-.98-.38c-.26-.25-.39-.58-.39-.96 0-.44.17-.81.51-1.09.27-.23.41-.4.41-.51 0-.16-.11-.31-.32-.44s-.53-.2-.95-.2c-.8 0-1.48.36-2.03 1.07s-.83 1.77-.83 3.18v2.95zm4.87 0l5.28-.16v11.41c0 .31.08.53.23.67.22.19.49.28.82.28h1.5v1.06h-7.55v-1.06h1.4c.42 0 .72-.1.91-.3s.29-.5.29-.89v-8.35c0-.53-.15-.93-.45-1.2s-.75-.4-1.34-.4h-1.09v-1.06zm3.68-7.92c.43 0 .8.16 1.12.48a1.55 1.55 0 0 1 .48 1.13c0 .43-.16.79-.47 1.1s-.68.47-1.12.47-.81-.16-1.13-.47-.47-.69-.47-1.11.16-.8.48-1.12.69-.48 1.1-.48zm15.85 17.25l.92.27c-.74 2.71-2.36 4.06-4.87 4.06-1.84 0-3.35-.61-4.52-1.83s-1.76-2.84-1.76-4.86c0-2.34.64-4.16 1.93-5.44 1.28-1.29 2.79-1.93 4.53-1.93 1.3 0 2.38.36 3.23 1.08s1.28 1.51 1.28 2.39c0 .53-.16.96-.47 1.31s-.69.52-1.13.52a1.47 1.47 0 0 1-1.08-.44 1.44 1.44 0 0 1-.44-1.06c0-.42.16-.81.48-1.18.15-.18.23-.32.23-.42 0-.27-.18-.54-.55-.8s-.87-.39-1.5-.39c-1.15 0-2.03.42-2.62 1.26-.85 1.22-1.28 2.82-1.28 4.81s.38 3.33 1.13 4.31c.76.98 1.72 1.46 2.89 1.46 1.62 0 2.81-1.04 3.6-3.12zm16.75 2.48l.51.79c-.69.71-1.45 1.06-2.29 1.06-.64 0-1.18-.17-1.62-.52s-.82-.96-1.15-1.84c-.9.94-1.69 1.57-2.37 1.89s-1.5.47-2.45.47c-1.36 0-2.39-.29-3.1-.88a2.79 2.79 0 0 1-1.06-2.25c0-1.38.81-2.52 2.43-3.43s3.77-1.52 6.46-1.82v-2.01c0-.72-.29-1.33-.86-1.84s-1.31-.76-2.2-.76c-.82 0-1.53.17-2.12.51-.43.25-.64.5-.64.75 0 .14.11.36.34.67.27.38.41.71.41 1a1.4 1.4 0 0 1-.41 1.04c-.27.27-.63.4-1.08.4-.47 0-.87-.16-1.18-.48-.32-.32-.47-.73-.47-1.23 0-.93.53-1.79 1.58-2.56s2.43-1.16 4.14-1.16c1.58 0 2.78.34 3.61 1.02.83.69 1.25 1.52 1.25 2.51v7.25c0 .64.1 1.11.31 1.42s.48.47.81.47c.37 0 .75-.15 1.16-.45zm-4.64-5.59c-2.4.33-4.1.87-5.1 1.61-.75.57-1.12 1.37-1.12 2.41 0 .73.19 1.3.58 1.71s.89.62 1.51.62c1.11 0 2.08-.42 2.9-1.27s1.22-1.9 1.22-3.18v-1.9zm25.75-4.31c.48-.79 1.01-1.51 1.6-2.15l.5.24c-.26 1.11-.4 2.31-.4 3.6v12.76c0 .5.1.83.3 1 .26.24.68.35 1.25.35h.57v1h-6.95v-1h.93c.57 0 .97-.11 1.2-.33.24-.22.35-.56.35-1.03v-5.04c-.56.78-1.17 1.37-1.85 1.76a4.39 4.39 0 0 1-2.22.59c-1.54 0-2.87-.65-3.98-1.95s-1.67-2.93-1.67-4.91c0-1.32.28-2.54.85-3.64.57-1.11 1.31-1.95 2.24-2.54s1.92-.88 2.97-.88a5 5 0 0 1 2.15.48c.68.32 1.4.88 2.17 1.67zm-4.13-1.2c-.99 0-1.81.47-2.47 1.42-.66.94-.98 2.42-.98 4.42s.33 3.52.98 4.43 1.47 1.37 2.44 1.37c.63 0 1.22-.2 1.78-.6.55-.4.98-.99 1.3-1.79.31-.8.47-1.87.47-3.22 0-1.58-.14-2.77-.42-3.58s-.71-1.42-1.27-1.83c-.57-.42-1.17-.62-1.81-.62zm13.86-.95v8.79c0 1.08.27 1.91.81 2.49s1.24.88 2.1.88c1.05 0 1.95-.43 2.69-1.28s1.11-1.92 1.11-3.21v-4.97c0-.45-.16-.8-.49-1.05s-.95-.39-1.88-.42v-.99l4.66-.24v10.89c0 .5.14.88.42 1.15s.68.4 1.19.4h.83v.95l-4.46.1-.28-2.61c-.79.93-1.59 1.64-2.39 2.11s-1.61.71-2.43.71c-1.2 0-2.2-.4-3.01-1.2-.82-.79-1.23-2.14-1.23-4.04v-5.76c0-.51-.2-.9-.61-1.16-.28-.19-.86-.29-1.74-.31v-.99l4.7-.24zm27.19 12.05l.51.79c-.69.71-1.45 1.06-2.29 1.06-.64 0-1.18-.17-1.62-.52s-.82-.96-1.15-1.84c-.9.94-1.69 1.57-2.37 1.89s-1.5.47-2.45.47c-1.36 0-2.39-.29-3.1-.88a2.79 2.79 0 0 1-1.06-2.25c0-1.38.81-2.52 2.43-3.43s3.77-1.52 6.46-1.82v-2.01c0-.72-.29-1.33-.86-1.84s-1.31-.76-2.2-.76c-.82 0-1.53.17-2.12.51-.43.25-.64.5-.64.75 0 .14.11.36.34.67.27.38.41.71.41 1a1.4 1.4 0 0 1-.41 1.04c-.27.27-.63.4-1.08.4-.47 0-.87-.16-1.18-.48-.32-.32-.47-.73-.47-1.23 0-.93.53-1.79 1.58-2.56s2.43-1.16 4.14-1.16c1.58 0 2.78.34 3.61 1.02.83.69 1.25 1.52 1.25 2.51v7.25c0 .64.1 1.11.31 1.42s.48.47.81.47c.37 0 .75-.15 1.16-.45zm-4.64-5.59c-2.4.33-4.1.87-5.1 1.61-.75.57-1.12 1.37-1.12 2.41 0 .73.19 1.3.58 1.71s.89.62 1.51.62c1.11 0 2.08-.42 2.9-1.27s1.22-1.9 1.22-3.18v-1.9zm11.76-14.14v19.23c0 .26.08.47.24.61.24.19.52.28.86.28h1.4v1.06h-7.52v-1.06h1.33c.43 0 .76-.1.97-.31s.32-.5.32-.88v-16.14c0-.47-.13-.82-.38-1.03-.35-.3-.78-.45-1.29-.45h-1.19v-1.06l5.25-.24zm14.26 17.25l.92.27c-.74 2.71-2.36 4.06-4.87 4.06-1.84 0-3.35-.61-4.52-1.83s-1.76-2.84-1.76-4.86c0-2.34.64-4.16 1.93-5.44 1.28-1.29 2.79-1.93 4.53-1.93 1.3 0 2.38.36 3.23 1.08s1.28 1.51 1.28 2.39c0 .53-.16.96-.47 1.31s-.69.52-1.13.52a1.47 1.47 0 0 1-1.08-.44 1.44 1.44 0 0 1-.44-1.06c0-.42.16-.81.48-1.18.15-.18.23-.32.23-.42 0-.27-.18-.54-.55-.8s-.87-.39-1.5-.39c-1.15 0-2.03.42-2.62 1.26-.85 1.22-1.28 2.82-1.28 4.81s.38 3.33 1.13 4.31c.76.98 1.72 1.46 2.89 1.46 1.62 0 2.81-1.04 3.6-3.12zm8.99-9.73c1.79 0 3.28.64 4.5 1.93 1.21 1.29 1.82 2.99 1.82 5.09 0 1.45-.27 2.69-.81 3.72s-1.32 1.83-2.32 2.43c-1.01.6-2.09.89-3.25.89-1.72 0-3.17-.65-4.37-1.95s-1.79-2.99-1.79-5.07.6-3.78 1.8-5.08 2.68-1.95 4.43-1.95zm0 1c-1.06 0-1.93.48-2.61 1.44s-1.02 2.47-1.02 4.54.34 3.64 1.01 4.62 1.55 1.46 2.61 1.46 2-.49 2.68-1.46 1.03-2.56 1.03-4.77c0-2.05-.34-3.53-1.01-4.45a3.16 3.16 0 0 0-2.7-1.37zm9.84 7.67c.58 1.63 1.26 2.76 2.02 3.39s1.7.94 2.81.94c1.03 0 1.82-.22 2.37-.67s.83-1.02.83-1.71a1.75 1.75 0 0 0-.31-1.04c-.2-.3-.48-.52-.84-.67s-1.29-.36-2.79-.64c-1.44-.28-2.44-.58-3.01-.89a3.37 3.37 0 0 1-1.33-1.29 3.47 3.47 0 0 1-.48-1.78c0-.97.33-1.86.98-2.65.84-1.01 2.02-1.52 3.53-1.52 1.15 0 2.22.36 3.21 1.09l.94-.99h.58l.37 4.73h-.95c-.42-1.34-.98-2.31-1.69-2.9s-1.58-.88-2.62-.88c-.9 0-1.6.22-2.11.66s-.77.97-.77 1.61c0 .56.24 1.02.71 1.39.46.38 1.37.67 2.72.89 1.57.26 2.59.49 3.06.67.77.28 1.38.72 1.8 1.31.43.59.64 1.31.64 2.16 0 1.17-.46 2.16-1.38 2.97s-2.09 1.22-3.51 1.22c-1.31 0-2.53-.43-3.66-1.3l-1.04 1.19h-.75l-.28-5.28h.95zm11.57-8.27l5.28-.16v11.41c0 .31.08.53.23.67.22.19.49.28.82.28h1.5v1.06h-7.55v-1.06h1.4c.42 0 .72-.1.91-.3s.29-.5.29-.89v-8.35c0-.53-.15-.93-.45-1.2s-.75-.4-1.34-.4h-1.09v-1.06zm3.68-7.92c.43 0 .8.16 1.12.48a1.55 1.55 0 0 1 .48 1.13c0 .43-.16.79-.47 1.1s-.68.47-1.12.47-.81-.16-1.13-.47-.47-.69-.47-1.11.16-.8.48-1.12.69-.48 1.1-.48zm5.71 7.92l4.4-.27c.18.83.31 1.8.4 2.92.59-.96 1.3-1.68 2.1-2.17.81-.48 1.72-.72 2.74-.72.88 0 1.61.17 2.21.52s1.07.89 1.43 1.64.54 1.58.54 2.51v6.46c0 .48.11.82.33 1.03s.58.3 1.09.3h.93v1.06h-6.99v-1.06h.67c.62 0 1.06-.1 1.3-.3s.37-.5.37-.89v-5.68c0-1.24-.19-2.15-.57-2.75-.53-.85-1.33-1.27-2.41-1.27s-1.96.43-2.67 1.29-1.07 1.98-1.07 3.36v4.91c0 .48.11.82.33 1.03s.59.3 1.1.3h.92v1.06h-7.02v-1.06h.92c.46 0 .81-.09 1.06-.28.24-.19.36-.42.36-.71v-8.57c0-.57-.15-1-.46-1.29s-.75-.44-1.32-.44h-.68v-.92zm31.73 11.81l.51.79c-.69.71-1.45 1.06-2.29 1.06-.64 0-1.18-.17-1.62-.52s-.82-.96-1.15-1.84c-.9.94-1.69 1.57-2.37 1.89s-1.5.47-2.45.47c-1.36 0-2.39-.29-3.1-.88a2.79 2.79 0 0 1-1.06-2.25c0-1.38.81-2.52 2.43-3.43s3.77-1.52 6.46-1.82v-2.01c0-.72-.29-1.33-.86-1.84s-1.31-.76-2.2-.76c-.82 0-1.53.17-2.12.51-.43.25-.64.5-.64.75 0 .14.11.36.34.67.27.38.41.71.41 1a1.4 1.4 0 0 1-.41 1.04c-.27.27-.63.4-1.08.4-.47 0-.87-.16-1.18-.48-.32-.32-.47-.73-.47-1.23 0-.93.53-1.79 1.58-2.56s2.43-1.16 4.14-1.16c1.58 0 2.78.34 3.61 1.02.83.69 1.25 1.52 1.25 2.51v7.25c0 .64.1 1.11.31 1.42s.48.47.81.47c.37 0 .75-.15 1.16-.45zm-4.64-5.59c-2.4.33-4.1.87-5.1 1.61-.75.57-1.12 1.37-1.12 2.41 0 .73.19 1.3.58 1.71s.89.62 1.51.62c1.11 0 2.08-.42 2.9-1.27s1.22-1.9 1.22-3.18v-1.9zm9.84 3.96a1.61 1.61 0 0 1 1.2.51 1.7 1.7 0 0 1 .5 1.22 1.77 1.77 0 0 1-.5 1.25c-.33.34-.74.51-1.22.51s-.88-.17-1.21-.51-.5-.75-.5-1.23.17-.89.5-1.23.74-.51 1.22-.51z"/></g></svg>