<?xml version="1.0" encoding="UTF-8"?>
<svg id="Layer_1" data-name="Layer 1" xmlns="http://www.w3.org/2000/svg" viewBox="0 0 420.94 595.28">
  <defs>
    <style>
      .cls-1 {
        fill: #fff;
      }
    </style>
  </defs>
  <rect class="cls-1" width="420.94" height="596.28"/>
  <path d="m247.53,473.91c.75,1.79,1.16,3.74,2.14,5.43.19.33.76.2.75-.2-.05-1.14.07-2.27-.17-3.39-.22-1.01-.63-1.97-.61-3.02l-.79.11c.66,2.81.77,5.72,1.46,8.52.11.43.81.35.79-.11-.07-1.66-.04-3.33-.38-4.96-.31-1.44-1.05-2.83-1.04-4.33,0-.52-.76-.51-.8,0-.22,2.95,1.38,5.63,1.39,8.55h.8c0-1.15-.06-2.31-.2-3.46-.07-.56-.15-1.12-.26-1.67-.05-.27-.11-.54-.17-.8-.01-.05-.02-.11-.03-.16,0-.03-.03-.18-.02-.14-.19-1.44-.12-2.92-.44-4.34-.15-.68-.4-1.39-.99-1.81-.16-.11-.47-.04-.55.14-.46,1.07-.41,2.32-.36,3.46.03.6.08,1.2.12,1.8.04.66.03,1.32.03,1.98v2.9c0,.51.8.52.8,0,0-1.74.09-3.49-.08-5.23-.04-.43-.1-.86-.17-1.29-.06-.37-.16-.73-.2-1.1-.08-.68-.1-1.37-.18-2.06-.1-.78-.28-1.56-.73-2.22-.3-.43-.89-.07-.69.4.77,1.8,1.63,3.56,2.4,5.35.29.66.55,1.32.77,2,.2.63.4,1.26.65,1.86s.57,1.27,1.14,1.66c.24.16.63-.05.6-.35-.23-2.26-.97-4.42-1.38-6.65-.03-.14-.05-.28-.07-.42,0-.04-.04-.26-.02-.15-.01-.11-.02-.22-.04-.32-.03-.29-.05-.57-.08-.86-.07-.67-.15-1.35-.33-2.01-.16-.56-.43-1.28-1.06-1.44-.25-.06-.51.12-.51.39,0,1.53.22,3.04.43,4.55.1.71.2,1.41.4,2.1s.42,1.35.45,2.06c.02.51.81.52.8,0-.03-1.22-.02-2.43-.02-3.65,0-.51-.8-.52-.8,0,0,1.22-.01,2.43.02,3.65h.8c-.02-.71-.21-1.39-.41-2.06s-.33-1.4-.43-2.12c-.21-1.5-.42-3.01-.43-4.53l-.51.39c.11.03-.02,0,.05.01.01,0,.04.02.05.03-.07-.05,0,0,0,0s.09.1.07.08c0,0,.06.08.08.12.13.22.19.42.26.68.16.59.23,1.19.3,1.8.06.54.1,1.09.19,1.62.18,1.07.46,2.12.72,3.17.29,1.17.57,2.35.69,3.55l.6-.35c-.35-.24-.61-.81-.79-1.24-.25-.6-.44-1.22-.64-1.83-.5-1.56-1.22-3.04-1.9-4.53-.46-.99-.91-1.99-1.34-2.99l-.69.4c.77,1.1.66,2.53.8,3.8.09.76.28,1.51.36,2.27.09.84.12,1.68.12,2.53,0,.96-.02,1.93-.02,2.89h.8c0-1.51.06-3.04-.01-4.55-.05-1.17-.19-2.34-.16-3.51.02-.55.05-1.16.27-1.68l-.55.14c.09.06-.01-.03.02.02.01.02.04.03.06.05s.11.12.08.08c.08.1.14.22.2.33.11.23.2.54.26.82.16.69.21,1.39.26,2.09.05.66.07,1.32.14,1.98.1.88.34,1.74.46,2.62.17,1.23.22,2.47.23,3.7,0,.51.8.52.8,0-.01-2.92-1.61-5.61-1.39-8.55h-.8c0,1.52.69,2.92,1.03,4.38.38,1.61.32,3.27.39,4.91l.79-.11c-.69-2.81-.81-5.71-1.46-8.52-.1-.45-.78-.34-.79.11-.02,1.06.35,2.04.6,3.06.26,1.11.13,2.23.18,3.35l.75-.2c-.95-1.63-1.33-3.51-2.06-5.24-.08-.2-.26-.34-.49-.28-.19.05-.36.29-.28.49h0Z"/>
  <path d="m164.41,477.31c.34-.59.66-1.18,1.01-1.76.32-.53.63-1.04.88-1.61.5-1.14.89-2.32,1.42-3.46.55-1.17,1.08-2.35,1.52-3.57.46-1.26.95-2.51,1.43-3.76.48-1.25.95-2.5,1.35-3.78.33-1.05.45-2.15.7-3.22.21-.92.52-2.01,1.33-2.59.69-.5,1.6-.58,2.42-.46,1.92.27,3.45,1.53,4.37,3.19.47.85.82,1.76,1.19,2.66.44,1.07.97,2.12,1.22,3.26.13.59.17,1.2.09,1.8-.07.55-.27,1.07-.46,1.59s-.39,1.06-.39,1.63c0,.62.14,1.22.18,1.84s-.08,1.25-.18,1.86c-.11.66-.24,1.32-.37,1.97-.26,1.3-.43,2.6-.52,3.92s-.14,2.58-.3,3.87-.51,2.58-.78,3.86-.36,2.64-.5,3.97c-.14,1.23-.49,2.43-.57,3.67-.04.59,0,1.19-.04,1.78s-.15,1.11-.32,1.65c-.26.82-.56,1.64-.96,2.4s-.91,1.53-1.65,2c-.86.54-1.97.52-2.94.5-1.18-.02-2.35-.16-3.53-.18s-2.29.18-3.43.07c-.55-.05-1.09-.21-1.63-.33s-1.12-.2-1.69-.21c-1.3-.02-2.57-.19-3.82-.55-.57-.16-1.16-.36-1.76-.34-.55.02-1.02.23-1.43.6s-.73.75-1.15,1.09c-.45.36-.93.68-1.43.97-1,.59-2.07,1.06-3.13,1.52-1.19.52-2.4,1-3.62,1.44-.61.22-1.22.47-1.86.6-.59.13-1.2.16-1.81.17s-1.27,0-1.91,0c-.54,0-1.06-.04-1.57-.24-.87-.35-1.65-1.23-2.65-1.18s-1.76.82-2.61,1.21c-.52.24-1.06.45-1.62.57-.46.1-.93.11-1.4.13-.34.02-.69.03-1.04,0-.13-.01-.26-.04-.4-.08-.11-.03-.22-.09-.27-.13-.16-.13-.18-.37-.12-.64.1-.45.3-.85.62-1.19.67-.73,1.63-1.25,2.55-1.59.32-.12.69-.25,1.02-.13.36.12.64.45.89.71l.28-.68c-.82.04-1.64-.08-2.46.06-.72.13-1.4.41-2.15.37l.28.12s-.06-.11-.08-.16c0-.02-.01-.05-.01-.07,0,.05,0,.05,0,0,0-.02.02-.16,0-.07.03-.18.11-.3.21-.43.32-.41.78-.72,1.23-.97.49-.28,1.02-.5,1.56-.65.22-.06.46-.11.63-.13.1,0,.2-.01.3,0-.05,0,.18.05.09.01l-.2-.35c0,.05,0,.1,0,.15,0,.02,0,.04,0,.07,0,.06.01-.07,0,0-.01.05-.02.1-.04.14,0,.02-.03.07,0,0-.01.02-.02.05-.04.07-.07.11-.04.08-.14.18-.09.09-.15.14-.22.19-.46.32-.96.49-1.5.64-1.26.34-2.59.48-3.89.48-.29,0-.57,0-.86-.03-.26-.02-.3-.02-.56-.08l.29.39c-.17-2.65,3.61-2.19,5.28-2.41,1.54-.2,3.02-.67,4.39-1.41.67-.37,1.3-.8,1.91-1.27s1.26-.91,1.96-1.27,1.4-.69,2.08-1.08,1.29-.86,1.88-1.39c1.33-1.17,2.84-2.12,4.2-3.25,1.24-1.02,2.54-1.96,3.97-2.7.71-.37,1.5-.61,2.18-1.04.33-.21.63-.45.95-.68s.67-.39,1.04-.54c.77-.3,1.55-.6,2.25-1.06.35-.23.62-.48.85-.83.21-.31.47-.55.72-.81.28-.28.5-.58.59-.98s.15-.7.44-1.02c.24-.27.52-.5.75-.78.28-.33.52-.71.76-1.08.25-.39.49-.8.72-1.2.26-.45-.43-.85-.69-.4-.43.76-.86,1.6-1.46,2.24-.26.28-.54.52-.78.82-.26.33-.39.66-.47,1.07s-.29.63-.57.92c-.27.27-.51.54-.72.85-.44.65-1.36.99-2.06,1.27-.38.15-.78.29-1.15.46-.35.17-.66.4-.97.63s-.63.47-.98.64c-.38.18-.77.33-1.15.5-1.45.68-2.79,1.57-4.05,2.56-.69.54-1.35,1.12-2.05,1.64s-1.45,1.04-2.15,1.59c-.66.52-1.24,1.12-1.95,1.57-.66.42-1.36.76-2.06,1.11s-1.39.72-2.02,1.18-1.23.96-1.9,1.37c-1.31.79-2.76,1.31-4.28,1.54-1.26.19-2.55.07-3.79.37-1.04.25-2.08.85-2.37,1.95-.08.3-.1.61-.08.91.01.17.12.34.29.39.47.12.98.13,1.46.14.69,0,1.38-.03,2.07-.11,1.3-.14,2.84-.35,3.93-1.14.47-.34.86-.85.79-1.46-.01-.13-.06-.29-.2-.35-.54-.23-1.16-.1-1.7.05-.71.2-1.4.52-2.02.91-.53.34-1.1.77-1.37,1.36-.12.27-.18.57-.11.86.03.14.09.27.17.39.18.27.39.3.7.29.68-.02,1.31-.26,1.97-.39.77-.15,1.56-.02,2.34-.05.35-.02.53-.43.28-.68-.32-.34-.66-.68-1.09-.86-.39-.16-.8-.15-1.2-.05-1,.25-2.02.82-2.81,1.47-.74.6-1.4,1.52-1.37,2.52.03.76.61,1.19,1.32,1.3.79.12,1.67.06,2.46-.04,1.13-.15,2.2-.63,3.16-1.22.39-.24.85-.58,1.32-.62s.93.31,1.3.53c.45.28.9.55,1.41.71.56.17,1.14.18,1.72.18,1.27,0,2.57.07,3.82-.22.67-.15,1.32-.42,1.97-.66s1.31-.49,1.96-.76c2.24-.91,4.6-1.83,6.47-3.39.41-.34.74-.8,1.18-1.11.49-.36,1.09-.26,1.64-.11,1.27.33,2.54.66,3.86.74.62.04,1.24,0,1.86.11.56.1,1.11.25,1.66.35,1.22.23,2.45.02,3.69,0s2.39.14,3.59.18c1.08.04,2.28.05,3.28-.41,1.73-.8,2.59-2.85,3.17-4.54.37-1.07.54-2.11.55-3.24,0-.66.03-1.3.14-1.96.11-.64.25-1.26.35-1.9.21-1.36.22-2.74.48-4.09s.64-2.63.83-3.98.26-2.75.35-4.12.26-2.69.52-4.02c.13-.67.27-1.35.38-2.03s.22-1.31.19-1.97-.19-1.25-.18-1.89c.02-.59.29-1.16.49-1.71.42-1.17.51-2.36.23-3.57-.27-1.15-.82-2.23-1.26-3.32-.78-1.91-1.57-3.86-3.3-5.11-1.5-1.09-3.77-1.69-5.49-.78-1.99,1.05-2.03,3.78-2.48,5.7-.31,1.32-.82,2.6-1.3,3.87s-1.01,2.6-1.5,3.92-.97,2.49-1.54,3.71c-.28.61-.57,1.21-.81,1.84s-.44,1.22-.7,1.81-.56,1.08-.88,1.61c-.35.58-.67,1.17-1.01,1.76-.26.45.44.85.69.4Z"/>
  <path d="m233.96,457.37c-.11,1.18.32,2.32.47,3.48.16,1.23.29,2.46.38,3.69s.21,2.46.35,3.69.15,2.47.19,3.72c.04,1.24.18,2.48.3,3.71s.16,2.52.18,3.79.07,2.48.2,3.72c.06.6.15,1.21.25,1.81s.31,1.14.43,1.72,0,1.16-.03,1.75.07,1.14.16,1.7.2,1.15.26,1.73.06,1.12.08,1.69c.02,1.08.13,2.16.04,3.24-.04.51-.14,1.02-.33,1.5-.2.52-.53.98-.83,1.45-.51.8-.83,1.62-1.02,2.54-.18.84-.3,1.69-.5,2.53-.19.78-.45,1.59-.97,2.21-.31.37-.71.62-1.08.92-.46.37-.89.77-1.33,1.17-.63.57-1.53.97-1.74,1.87-.25,1.02.38,1.75,1.1,2.39.36.32.75.55,1.23.6.36.04.82.09,1.13-.13.17-.12.19-.27.4-.32.24-.06.48-.15.71-.24.47-.17.94-.35,1.36-.62.47-.3.74-.69,1.11-1.09l-.67-.18c.2.75-.24,2.41.9,2.64.77.16,1.5-.53,1.95-1.06.52-.62,1.23-1.47,1.19-2.33-.02-.51-.78-.52-.8,0-.03.73-.17,1.5.06,2.21.21.67.83,1.21,1.57,1.15.68-.06,1.17-.64,1.52-1.18s.62-1.18,1.02-1.71c.23-.32-.23-.78-.55-.55-.45.33-.64.94-.77,1.46-.14.57-.26,1.29-.01,1.85.11.25.3.44.57.51.35.09.66-.11.93-.31.69-.54,1.12-1.24,1.28-2.11l-.79-.11c-.04.53.03,1.14.32,1.6.34.52.92.62,1.46.36,1.22-.58,1.68-2.13,2.35-3.2.47-.76,1.04-1.46,1.49-2.24s.83-1.67,1.13-2.55c.57-1.69.83-3.47,1.03-5.24.2-1.75.34-3.51.72-5.24.35-1.62.87-3.43,2.01-4.68.26-.28.52-.57.7-.91.19-.36.27-.76.32-1.16.05-.36.09-.72.21-1.06.16-.44.38-.87.56-1.3.67-1.57,1.29-3.18,1.58-4.88s.35-3.41-.19-5.04c-.47-1.42-1.31-2.65-2.1-3.9-1.95-3.08-3.05-6.5-3.85-10.04-.59-2.61-.8-5.28-1.37-7.89-.28-1.28-.66-2.56-1.26-3.74-.52-1-1.3-2.12-2.34-2.63-1.21-.59-2.74-.49-4.04-.38-.69.06-1.34.21-1.93.59s-1.06.89-1.48,1.45c-1.03,1.36-1.84,2.93-2.6,4.45-.4.8-.7,1.54-.75,2.44s0,1.83,0,2.74c0,1,0,2.01,0,3.01,0,.51.8.52.8,0,0-1,0-2.01,0-3.01,0-.88-.05-1.76,0-2.64s.34-1.51.7-2.25c.41-.81.83-1.61,1.29-2.39.68-1.15,1.4-2.51,2.6-3.2.55-.32,1.15-.38,1.77-.42.66-.05,1.33-.06,1.99,0,.6.06,1.19.19,1.67.57.41.32.78.72,1.08,1.14.68.97,1.1,2.08,1.42,3.22.68,2.4.87,4.9,1.3,7.34.28,1.58.67,3.15,1.11,4.69.48,1.67,1.06,3.32,1.82,4.89.68,1.4,1.55,2.66,2.35,3.99.73,1.21,1.3,2.5,1.4,3.92.12,1.67-.18,3.38-.68,4.97-.24.77-.53,1.52-.84,2.26s-.76,1.51-.91,2.32c-.06.35-.08.7-.16,1.04-.09.38-.25.68-.51.97-.22.26-.46.5-.67.78-.27.35-.47.76-.66,1.16-.71,1.52-1.12,3.14-1.37,4.79-.52,3.33-.52,6.76-1.81,9.92-.33.82-.76,1.59-1.26,2.33-.44.64-.9,1.26-1.27,1.95-.31.58-.6,1.18-1,1.7-.18.23-.73.9-1.07.63-.3-.25-.29-.9-.26-1.24.03-.45-.7-.55-.79-.11-.12.64-.37,1.14-.85,1.57-.09.08-.18.16-.28.22-.04.03-.08.05-.12.07.03-.01.02,0,.02,0,0,0,0,.02,0-.01-.01-.04-.04-.1-.06-.18-.08-.4.01-.85.11-1.24.05-.21.12-.41.21-.6.04-.08.07-.15.12-.22.04-.06.09-.11.06-.08l-.55-.55c-.31.42-.53.91-.79,1.36-.23.39-.54.95-.99,1.11-.49.17-.83-.34-.91-.75-.11-.58,0-1.2.02-1.78h-.8c.03.63-.6,1.35-.99,1.8-.23.27-.48.55-.8.7-.09.04-.19.09-.3.1-.03,0-.07,0-.1,0,.06,0-.06-.02,0,0-.04-.02-.03,0-.06-.07,0-.02-.05-.12-.06-.19-.04-.18-.05-.37-.06-.56-.02-.42.01-.85-.1-1.26-.08-.28-.46-.4-.67-.18-.36.39-.61.78-1.08,1.05-.43.25-.91.41-1.38.59-.19.07-.4.11-.59.18-.1.04-.2.1-.28.17-.05.05-.1.18-.16.21-.08.04-.33,0-.43,0-.19-.01-.36-.03-.54-.13-.39-.21-.76-.61-1.03-.95-.26-.32-.33-.73-.15-1.1s.55-.61.87-.84c.4-.29.77-.63,1.14-.96.72-.64,1.58-1.15,2.14-1.95.46-.66.73-1.45.91-2.23.2-.81.31-1.63.48-2.44.19-.91.49-1.69.99-2.48.58-.9,1.03-1.76,1.18-2.83.15-1.05.08-2.1.04-3.15s-.06-2.15-.23-3.23c-.09-.57-.2-1.13-.27-1.7s.03-1.13.06-1.7-.08-1.07-.23-1.59c-.16-.57-.29-1.14-.38-1.72-.18-1.21-.26-2.44-.3-3.67s-.02-2.41-.1-3.61-.24-2.43-.33-3.64-.05-2.41-.13-3.61-.26-2.36-.37-3.54c-.22-2.36-.33-4.7-.82-7.02-.12-.57-.2-1.14-.14-1.73.05-.51-.75-.51-.8,0h0Z"/>
  <path d="m378.73,539.11c.26,0,.26-.4,0-.4s-.26.4,0,.4h0Z"/>
  <g>
    <g>
      <path class="cls-1" d="m180.17,288.54c-.15.03-.3.07-.44.1-1.38,5.43-3.64,10.55-5.03,15.99-.69,2.72-1.65,5.33-2.23,8.09-.93,4.45-2.57,8.78-3.37,13.25-.98,5.48-1.36,11.19-2.65,16.6-1.22,5.13-2.69,10.3-3.63,15.49-.84,4.68-1.93,9.66-1.92,14.43,0,1.82-.05,3.52-.25,5.33-.33,2.93-.17,5.79-.25,8.73-.25,9.28-2.9,18.22-3.34,27.47-.16,3.28-.81,6.45-1.09,9.69-.31,3.69-1.54,7.07-2.2,10.67-.36,1.95-1.01,3.99-1.14,5.98-.07,1.22.14,2.47.07,3.69-.08,1.36-.55,2.63-.61,3.99-.09,1.84.13,3.56-.24,5.37-.52,2.58-.97,5.19-1.32,7.81-.11.86-.41,1.54-.56,2.34s.18,1.79-.02,2.58c-.14.54-.49.75-.6,1.33-.17.93.13,1.95-.03,2.9-.15.9-1.27,3.44-.02,3.87.53.18,2.16-.62,2.78-.72,3.77-.57,7.67-.76,11.47-.39,1.53.15,2.95.53,4.48.49,2.05-.05,4.06-.55,6.1-.62,3.73-.12,7.39-1.1,11.12-1.16,1.04-.02,2.1-.01,3.14,0,1.31.02,2.56.56,3.85.56.17-.79.02-1.69.12-2.51.33-2.68.56-5.37.97-8.04.49-3.16,1.42-6.24,2.1-9.36.84-3.86,1.31-7.72,1.63-11.65.63-7.75,2.42-15.29,4.01-22.84.87-4.15.65-8.32,1.85-12.41.64-2.19.81-4.09,1.16-6.32.27-1.71.45-3.27.89-4.95.35-1.33.88-2.96,1.03-4.32"/>
      <path d="m180.06,288.16c-.15.03-.3.07-.44.1-.13.03-.25.15-.28.28-.99,3.83-2.4,7.53-3.63,11.29-.62,1.89-1.13,3.8-1.66,5.71s-1.16,3.79-1.64,5.71-.89,3.87-1.43,5.79c-.54,1.92-1.11,3.82-1.59,5.75-.95,3.8-1.37,7.7-1.9,11.57-.54,3.99-1.34,7.88-2.32,11.78-.99,3.92-1.99,7.83-2.72,11.81-.69,3.8-1.49,7.59-1.8,11.45-.16,1.98-.1,3.95-.19,5.93-.1,2.05-.37,4.07-.4,6.12-.07,4.09-.1,8.11-.63,12.18-.52,4.07-1.29,8.1-1.89,12.16-.56,3.83-.69,7.69-1.16,11.53s-.84,7.94-1.79,11.81c-.46,1.87-.9,3.74-1.29,5.63-.36,1.75-.88,3.48-1.03,5.27-.08.95,0,1.9.04,2.85.04,1.05-.09,2.03-.29,3.06-.37,1.83-.28,3.61-.34,5.46-.07,2.06-.65,4.12-.98,6.15-.16.95-.3,1.9-.44,2.85s-.39,1.83-.6,2.76c-.16.73-.05,1.4-.04,2.14.01.85-.52,1.38-.66,2.17-.15.86.09,1.72.01,2.58-.06.61-.3,1.2-.44,1.8-.19.8-.45,1.98.31,2.58.81.63,2.07-.14,2.89-.39,1.72-.54,3.76-.55,5.56-.64,2.03-.1,4.08-.08,6.11.11s3.85.62,5.86.43,3.84-.46,5.78-.59c3.91-.26,7.71-1.13,11.64-1.12,1.04,0,2.07-.01,3.09.19.83.17,1.65.36,2.5.38.16,0,.36-.13.39-.29.2-1.2.12-2.45.26-3.67.16-1.4.3-2.8.47-4.2.33-2.79.88-5.52,1.55-8.24,1.33-5.39,2.11-10.75,2.61-16.27.5-5.6,1.61-11.12,2.78-16.62.56-2.65,1.23-5.3,1.58-8,.36-2.8.45-5.64,1.06-8.41.32-1.47.77-2.9,1.02-4.39.24-1.44.44-2.9.65-4.35.21-1.42.44-2.84.82-4.23s.78-2.73.97-4.14c.07-.51-.73-.5-.8,0-.17,1.34-.59,2.63-.94,3.93s-.57,2.59-.77,3.9c-.39,2.57-.68,5.15-1.37,7.66s-.95,5.23-1.21,7.89c-.28,2.83-.86,5.58-1.45,8.35-1.13,5.27-2.24,10.55-2.88,15.9-.33,2.78-.5,5.57-.85,8.35s-.89,5.68-1.57,8.47c-.71,2.92-1.43,5.81-1.83,8.79-.19,1.45-.35,2.91-.51,4.37-.08.76-.19,1.51-.26,2.27-.07.8.03,1.61-.11,2.41l.39-.29c-.95-.03-1.84-.29-2.77-.44s-1.88-.13-2.82-.13c-1.89,0-3.75.12-5.62.38-3.82.51-7.64.89-11.46,1.3-1.95.21-3.74-.12-5.67-.34s-4.07-.27-6.09-.19c-1.83.07-3.66.24-5.48.51-.59.09-1.11.28-1.67.48-.64.22-1.5.62-1.54-.38-.04-1.13.6-2.17.64-3.29.04-.94-.26-1.91.16-2.8.3-.63.51-1.06.48-1.79-.03-.9-.08-1.62.16-2.5s.39-1.79.52-2.72c.28-1.96.62-3.91,1-5.86.36-1.85.35-3.62.37-5.5.03-1.86.68-3.64.64-5.51-.02-.84-.11-1.68-.09-2.52.03-1.09.24-2.17.48-3.24.4-1.82.76-3.66,1.2-5.48.43-1.81.93-3.62,1.28-5.45s.46-3.73.71-5.59.53-3.68.68-5.53c.17-2,.25-4,.48-6,.89-7.76,2.8-15.4,2.96-23.24.04-2.06-.02-4.12.07-6.18s.36-3.93.4-5.9c.04-1.92.05-3.82.25-5.74.21-2,.54-3.98.9-5.95.71-3.91,1.45-7.8,2.4-11.66s2.02-7.61,2.71-11.49,1.06-7.65,1.66-11.46c.6-3.83,1.71-7.5,2.73-11.22.53-1.92.9-3.87,1.42-5.79.5-1.86,1.11-3.68,1.6-5.54.99-3.72,2.27-7.33,3.49-10.98.61-1.82,1.18-3.65,1.66-5.51l-.28.28c.15-.03.3-.07.44-.1.5-.12.29-.89-.21-.77h0Z"/>
    </g>
    <g>
      <path class="cls-1" d="m193.26,324.66l.25.05c.15.51.08.96.28,1.48.11.28.43.84.39,1.12-.04-.88-.02-1.77,0-2.65.01-.81-.56-1.49-.61-2.28-.16-2.19-.54-4.43-.71-6.66-.24-3.05-1.16-5.93-1.15-8.99,0-1.43.16-2.98.01-4.39-.11-1.07-.6-2.05-.58-3.14.08,2.69.02,5.4,0,8.09-.03,5.4.59,10.73.56,16.13-.02,3.12.44,6.16.96,9.2.46,2.69.66,5.78,1.81,8.28-.37-9.27-2.49-18.41-3.88-27.58-.58-3.84-.83-7.93-1.72-11.7-.46-1.97-.37-3.73-.51-5.74.36,4.23,1.99,8.08,2.65,12.27.25,1.58.49,3.15.74,4.73.22,1.44,1.19,3.36,1.05,4.83-.03-6.3-1.32-12.8-2.24-19.01.17,3.47.02,6.89.46,10.36.79,6.25.96,12.62,1.78,18.89.67,5.07,1.34,10.09,2.22,15.12.55,3.16.59,6.42,1.16,9.53.68,3.68,2.52,6.95,3.21,10.52.48,2.48.83,5.01,1.22,7.5.67,4.21,2.21,8.14,3.22,12.25,1.98,8.07,2.46,15.9,3.33,24.16.67,6.4,1.95,12.49,3.27,18.79,1.08,5.17,2.56,10.24,4.31,15.2,1.56,4.41,2.44,8.94,4.05,13.33,1.11,3.02,2.03,5.91,2.55,9.12.41,2.55-.42,5.35.79,7.78,1.34.09,2.76-.75,4.07-1,2.73-.51,5.54-.79,8.29-1.15,5.29-.69,10.8-1.78,15.98-3.04,3.07-.74,5.81-2.08,8.79-3.04.73-.23,2.34-.09,2.88-.47,1.29-.92.2-4.19-.04-5.27-.77-3.52-2.14-7.02-2.68-10.59-.69-4.54-.4-9.22-1.33-13.75-.96-4.66-1.4-9.44-2.2-14.13-.47-2.76-.54-5.62-.95-8.39-.38-2.58-.93-5.14-1.28-7.75-.94-6.99-1.93-14.09-2.58-21.07-.32-3.4-.91-6.75-1.07-10.21-.05-1.1-.43-2.04-.6-3.11-.35-2.29-.09-4.73-.68-7.02-.55-2.1-.47-4.32-.83-6.48-.16-1,.02-1.98-.09-2.98-.11-.9-.46-1.69-.59-2.59-.29-2.04-.81-4.01-1.11-6.05-.13-.88.17-1.83.06-2.71-.13-.99-.75-1.89-.58-2.91"/>
      <path d="m193.16,325.05l.25.05-.28-.28c.11.49.11,1,.28,1.48.12.33.36.65.37,1.01.02.51.82.52.8,0-.04-1.1.18-2.35-.12-3.41-.13-.47-.38-.9-.47-1.37-.13-.64-.12-1.32-.19-1.97-.27-2.4-.45-4.83-.83-7.21-.39-2.42-.9-4.78-.84-7.24.03-1.15.12-2.32.03-3.47s-.58-2.27-.6-3.45h-.8c.08,2.87,0,5.74,0,8.6s.18,5.72.33,8.58c.16,2.9.13,5.81.26,8.71.12,2.67.56,5.29.99,7.92.45,2.74.66,5.53,1.81,8.1.16.37.76.18.75-.2-.25-5.93-1.18-11.79-2.2-17.62-.51-2.96-1.05-5.92-1.51-8.89-.46-2.89-.73-5.8-1.14-8.69-.22-1.57-.56-3.11-.86-4.67-.33-1.69-.28-3.43-.39-5.14h-.8c.35,3.8,1.68,7.38,2.43,11.1.39,1.93.63,3.89.94,5.84.26,1.64,1.15,3.21,1.06,4.89h.8c-.05-6.44-1.31-12.77-2.25-19.11-.07-.45-.81-.34-.79.11.13,2.99.05,5.99.31,8.98.26,2.98.64,5.94.88,8.93.46,5.87,1.07,11.69,1.88,17.52.41,2.91.85,5.82,1.34,8.72.49,2.84.6,5.72,1.01,8.57.39,2.7,1.32,5.19,2.23,7.75.93,2.61,1.43,5.25,1.85,7.98.44,2.82.87,5.6,1.64,8.35.76,2.72,1.65,5.4,2.3,8.15,1.34,5.7,1.99,11.53,2.56,17.35,1.14,11.6,2.94,23.21,6.32,34.39.84,2.78,1.87,5.5,2.71,8.28s1.52,5.54,2.37,8.28c.85,2.72,1.92,5.35,2.64,8.1.37,1.4.73,2.84.84,4.29.09,1.27-.04,2.54,0,3.81.04,1.16.25,2.26.74,3.31.06.13.21.2.35.2,1.19.02,2.26-.46,3.38-.8,1.32-.41,2.74-.55,4.1-.73,2.86-.39,5.72-.7,8.57-1.15,5.65-.91,11.45-1.92,16.82-3.95,1.3-.49,2.59-1.01,3.9-1.45.93-.31,1.87-.22,2.81-.43,1.59-.35,1.53-2.18,1.33-3.47-.79-5.08-2.97-9.83-3.48-14.97-.29-2.91-.31-5.84-.63-8.75-.31-2.84-.98-5.64-1.4-8.47s-.8-5.85-1.28-8.77-.56-5.83-1-8.73c-.46-2.98-1.03-5.94-1.43-8.94-.41-3.02-.82-6.05-1.2-9.08-.74-5.87-1.41-11.76-2.01-17.65-.14-1.37-.11-2.78-.39-4.13-.3-1.44-.56-2.8-.63-4.28-.06-1.32-.09-2.65-.33-3.96-.28-1.53-.57-3-.7-4.55-.12-1.42-.37-2.83-.35-4.26.02-1.33-.33-2.44-.59-3.73-.27-1.37-.49-2.75-.76-4.11-.13-.64-.26-1.27-.35-1.91-.12-.8.03-1.54.04-2.33.02-1.22-.72-2.3-.6-3.51.05-.51-.75-.51-.8,0-.12,1.23.62,2.29.6,3.51,0,.61-.14,1.21-.11,1.82s.18,1.24.29,1.84c.26,1.38.57,2.74.79,4.13.21,1.34.7,2.6.69,3.97,0,1.45.19,2.83.31,4.27.11,1.28.19,2.57.47,3.83.32,1.46.49,2.87.56,4.36.05,1.26.09,2.53.36,3.76.62,2.85.72,5.79,1.08,8.68.36,2.88.61,5.76.94,8.64.64,5.71,1.37,11.42,2.2,17.11.43,2.94,1.08,5.85,1.4,8.8.3,2.79.58,5.56,1,8.34.44,2.86.78,5.74,1.24,8.6s1.1,5.8,1.32,8.76c.2,2.78.25,5.57.64,8.34.39,2.8,1.25,5.5,2.02,8.21.52,1.87,1.2,3.93,1.36,5.88.08.95,0,1.86-1.08,2.01-.95.13-1.8.13-2.72.44-2.58.88-5.07,2.02-7.71,2.71s-5.5,1.29-8.26,1.82-5.71,1.02-8.58,1.39c-2.7.34-5.5.52-8.16,1.16-1.24.3-2.39.95-3.7.92l.35.2c-1.12-2.41-.35-5.14-.75-7.68-.42-2.74-1.23-5.42-2.16-8.03-1.9-5.38-3.27-10.92-5.1-16.32-1.88-5.57-3.24-11.23-4.43-16.98-1.19-5.81-2.16-11.62-2.75-17.53-.55-5.61-1.04-11.23-2.04-16.78-.51-2.84-1.18-5.63-1.99-8.39s-1.63-5.28-2.13-8c-.52-2.81-.82-5.66-1.39-8.46-.53-2.6-1.63-5.02-2.44-7.54-.87-2.71-1.12-5.5-1.39-8.31s-.79-5.61-1.22-8.42c-.9-5.88-1.72-11.77-2.2-17.7-.24-2.98-.44-5.97-.74-8.94-.29-2.93-.62-5.83-.67-8.78-.03-1.5-.04-2.99-.11-4.49l-.79.11c.93,6.27,2.17,12.54,2.22,18.9,0,.52.77.51.8,0,.09-1.55-.63-2.98-.97-4.46-.44-1.92-.59-3.91-.94-5.84-.71-3.87-2.17-7.58-2.53-11.52-.05-.51-.83-.52-.8,0,.09,1.38.08,2.76.24,4.13s.53,2.73.77,4.1c.49,2.87.73,5.78,1.14,8.66.84,5.94,2.07,11.82,2.94,17.76.5,3.44.87,6.89,1.02,10.36l.75-.2c-1.31-2.94-1.48-6.35-1.99-9.49-.28-1.7-.51-3.41-.64-5.13s-.08-3.61-.13-5.41c-.1-3.55-.39-7.08-.49-10.63-.1-3.61.06-7.23-.04-10.84-.01-.51-.81-.52-.8,0,.02,1.1.45,2.12.58,3.2.14,1.18.04,2.38,0,3.56-.07,2.37.36,4.65.76,6.98.42,2.47.61,4.98.89,7.47.12,1.05.12,2.1.49,3.1.46,1.23.28,2.52.32,3.82h.8c-.01-.36-.16-.64-.28-.97-.23-.57-.27-1.15-.4-1.74-.03-.13-.15-.25-.28-.28l-.25-.05c-.5-.1-.72.67-.21.77h0Z"/>
    </g>
    <path d="m201.76,150.25c0,.84-.07,1.67-.08,2.51s.07,1.62.23,2.42c.14.75.32,1.49.38,2.25.07.8.02,1.61.09,2.41.13,1.48.47,2.93.98,4.33s1.05,2.76,1.84,3.98c.39.6.86,1.13,1.24,1.74.3.48.54,1.01.87,1.47.4.56.9.96,1.44,1.38.57.44,1.1.93,1.67,1.37.53.41,1.12.79,1.78.96.41.1.81.04,1.22.06.36.01.72.14,1.04.3.6.29,1.17.63,1.8.87.39.15.78.28,1.17.41,1.04.33,2.11.6,3.19.73.91.11,2.01.14,2.82-.37.17-.11.33-.24.46-.41.13-.17.17-.4,0-.57-.14-.14-.43-.17-.57,0-.23.29-.48.41-.84.5-.42.11-.87.11-1.31.09-1.04-.06-2.07-.31-3.06-.6-.89-.26-1.77-.56-2.59-1-.65-.35-1.32-.71-2.07-.75-.39-.02-.77.06-1.15-.06-.3-.09-.57-.24-.84-.4-.58-.36-1.1-.82-1.63-1.26s-1.08-.79-1.53-1.27c-.37-.39-.63-.86-.89-1.33-.32-.58-.7-1.09-1.09-1.62-.83-1.12-1.4-2.37-1.91-3.66-.53-1.33-.95-2.7-1.16-4.12-.1-.73-.15-1.47-.15-2.2,0-.8-.08-1.57-.23-2.35-.14-.72-.31-1.45-.38-2.18-.07-.8-.02-1.61.01-2.42.02-.4.03-.8.03-1.2,0-.51-.8-.52-.8,0h0Z"/>
    <path d="m217.83,176.65c.62.78,1.86.82,2.76.8.52,0,1.04-.05,1.56-.09s1.07-.04,1.6-.06c1.6-.04,3.2-.23,4.74-.67.73-.21,1.44-.47,2.09-.87.58-.36,1.11-.77,1.71-1.1.67-.36,1.35-.7,1.98-1.12s1.26-.91,1.86-1.4c1.2-.99,2.29-2.12,3.28-3.31,1.94-2.34,3.48-4.93,4.65-7.73,1.15-2.77,1.96-5.66,2.67-8.57.09-.36.17-.71.26-1.07.12-.5-.65-.71-.77-.21-.66,2.82-1.39,5.63-2.41,8.35s-2.36,5.29-4.12,7.62c-1.78,2.37-3.95,4.57-6.52,6.09-.61.36-1.27.64-1.87,1.03-.55.36-1.08.76-1.68,1.06-.68.34-1.45.53-2.19.7s-1.49.28-2.25.35c-1.17.1-2.35.09-3.53.17-.53.04-1.06.07-1.6.04-.42-.02-.89-.06-1.26-.24-.18-.09-.28-.16-.4-.32-.13-.17-.43-.14-.57,0-.17.17-.13.4,0,.57h0Z"/>
    <path d="m202.11,153.01c-.14,0-.28,0-.42-.01-.32-.02-.48.35-.35.6.3.56.88.56,1.33.19.35-.29.64-.72.85-1.13.37-.75.55-1.6.67-2.43.13-.93.18-1.85.14-2.79-.04-.89-.16-1.84.12-2.7.27-.8.81-1.48,1-2.31s.14-1.69.42-2.49c.13-.38.39-.61.63-.92.28-.35.43-.74.61-1.15.33-.78.87-1.51,1.35-2.2.25-.35.51-.71.81-1.02s.61-.57.91-.86c.61-.59.99-1.36,1.58-1.97s1.22-1.28,1.89-1.86c1.23-1.08,2.89-1.98,4.58-1.92.46.02.9,0,1.35-.11.4-.1.78-.2,1.2-.21.45-.01.9.02,1.34.04s.88,0,1.32.05c.85.07,1.7.34,2.49.65s1.56.69,2.41.83c.89.15,1.82.12,2.71.11s1.78.02,2.62-.23c.4-.12.78-.27,1.18-.38.36-.1.36-.53.1-.73s-.58-.29-.89-.38c-.35-.1-.69-.21-1.04-.28-.76-.15-1.53-.17-2.31-.17-.37,0-.58.58-.2.75.84.38,1.75.32,2.63.53s1.7.66,2.62.56l-.11-.79c-.28.04-.53-.15-.76-.28-.32-.18-.66-.29-1.03-.26-.21.02-.4.17-.4.4,0,.21.18.41.4.4.58-.03,1.17.42,1.63.72.6.4,1.15.89,1.77,1.26.66.39,1.4.63,2.06,1.03.32.2.58.46.87.69.27.21.55.37.85.53.15.08.3.15.43.25s.26.22.42.3c.28.14.58.13.87.05.26-.08.51-.22.78-.27.07-.01.13-.03.17,0-.01,0-.01-.02-.02-.03.03.04.03.11.04.16.04.27,0,.56-.03.83-.03.35-.01.7.02,1.05.07.84.23,1.66.39,2.48.15.77.29,1.55.34,2.33.03.38.08.75.17,1.12s.1.74.1,1.13c0,.82.04,1.64.16,2.46.06.41.17.82.25,1.23s.1.79.09,1.19c-.02,1.59-.59,3.12-1.09,4.61-.26.78-.51,1.56-.77,2.34-.13.38-.25.77-.33,1.17s-.1.78-.12,1.18c-.02.37-.06.74-.05,1.11.01.33.04.72.29.96.44.43,1.18.08,1.58-.24.83-.66.56-1.79.99-2.65.1-.19.23-.32.42-.43l-.6-.35c-.17,1.35-1.11,2.47-1.1,3.87,0,.32.33.47.6.35.58-.28,1.01-.8,1.35-1.34.4-.63.69-1.32.96-2.01s.49-1.36.74-2.04c.23-.62.51-1.14.85-1.72.25-.42.42-.88.49-1.37s.07-.91.44-1.24l-.48.06c.23.1.4.25.53.43.17.24.29.5.39.77.25.7.36,1.44.42,2.18s.07,1.5.03,2.25c-.04.71-.09,1.22-.25,1.89-.49,2.08-1.64,3.85-2.98,5.49-.33.4-.63.79-.9,1.23-.23.38-.47.78-.81,1.07-.69.58-1.76.43-2.59.37-.4-.03-.82-.04-1.21-.14-.16-.04-.28-.09-.35-.16s-.09-.13-.1-.25c-.02-.44.17-.84.43-1.17.25-.31.63-.73.99-.85.49-.16.28-.94-.21-.77-.46.15-.84.5-1.16.85s-.61.75-.74,1.22c-.12.42-.18.92.06,1.32.2.33.56.51.92.59.42.1.85.12,1.28.15.54.04,1.09.08,1.64.03s1.01-.16,1.43-.48.72-.73,1-1.18c.29-.47.6-.91.95-1.34.38-.46.74-.93,1.09-1.42.68-.95,1.25-1.96,1.66-3.06.6-1.61.74-3.32.68-5.02-.04-.95-.13-1.93-.42-2.84-.23-.72-.61-1.54-1.35-1.87-.17-.08-.34-.07-.48.06-.35.31-.53.71-.6,1.17-.06.42-.09.82-.26,1.22-.14.34-.36.63-.54.95-.16.28-.29.57-.41.87-.52,1.3-.89,2.68-1.56,3.92-.31.58-.7,1.17-1.29,1.45l.6.35c0-.67.25-1.29.5-1.9.26-.64.51-1.27.6-1.97.04-.32-.36-.47-.6-.35-1.01.53-.91,1.69-1.2,2.63-.06.18-.14.37-.28.49-.08.07-.16.11-.25.16-.05.03-.32.1-.34.13.03-.04.07.15.03-.03-.04-.17-.04-.33-.04-.5,0-.37.05-.73.06-1.1.03-.82.27-1.57.54-2.34s.5-1.52.75-2.28c.5-1.49,1.01-3.02,1.02-4.61,0-.84-.22-1.62-.35-2.45s-.15-1.62-.15-2.43c0-.39-.02-.76-.1-1.13s-.14-.7-.17-1.07c-.06-.79-.19-1.58-.34-2.36s-.32-1.59-.38-2.4c-.03-.35-.04-.7-.02-1.05.02-.27.05-.55.03-.82-.03-.29-.1-.58-.34-.77s-.55-.21-.84-.15c-.26.05-.5.18-.75.26-.29.09-.36.04-.6-.15-.27-.21-.57-.35-.86-.51-.31-.18-.55-.4-.83-.64-.58-.49-1.27-.79-1.95-1.11s-1.28-.74-1.88-1.2c-.54-.41-1.11-.8-1.74-1.06-.28-.12-.57-.2-.88-.18v.8c.35-.04.58.12.87.29.37.2.72.28,1.14.22.44-.06.34-.83-.11-.79-.85.09-1.61-.34-2.41-.53s-1.68-.11-2.44-.45l-.2.75c.7,0,1.41,0,2.1.14.33.07.65.17.97.26.27.08.54.14.77.32l.1-.73c-.39.1-.76.25-1.14.36s-.78.16-1.2.18c-.91.04-1.83.05-2.74.02-.42-.01-.85-.03-1.26-.12s-.8-.23-1.19-.39c-.79-.31-1.57-.64-2.39-.85-.42-.11-.84-.19-1.27-.22s-.85-.02-1.28-.04c-.88-.05-1.74-.09-2.6.14-.43.11-.81.15-1.25.14s-.86.02-1.28.1c-.82.16-1.6.47-2.32.88s-1.44.97-2.06,1.57c-.32.31-.63.63-.94.95s-.61.6-.87.94-.47.67-.72,1-.55.6-.85.87c-.64.58-1.16,1.22-1.65,1.93s-.97,1.42-1.3,2.21c-.15.37-.32.7-.59.99-.3.32-.51.66-.65,1.08-.26.79-.21,1.64-.4,2.45s-.71,1.47-.98,2.23c-.3.85-.23,1.77-.19,2.65.04.93.04,1.83-.08,2.75-.1.8-.25,1.66-.61,2.4-.16.34-.44.77-.71.95-.02.01-.12.08-.06.04-.07.04-.06-.02,0,.02.04.02,0,0-.01,0,0,0,.05.02.06.03,0-.02-.04-.06-.07-.11l-.35.6c.14,0,.28.01.42.01.51,0,.52-.8,0-.8h0Z"/>
    <path d="m202.01,154.37c0-2.18-.12-4.35-.34-6.52-.2-1.89-.54-3.75-.8-5.63-.16-1.15-.37-2.48-1.38-3.22-1.21-.88-3.01-.42-4.07.47-1.16.96-1.82,2.5-2.19,3.92-.39,1.54-.56,3.18-.48,4.76.04.72.13,1.45.38,2.12.31.83.79,1.57,1.34,2.26,1.1,1.37,2.5,2.49,4.01,3.38,1.19.7,2.78,1.51,4.11.64.36-.23.64-.55.89-.9.23-.33.47-.69.64-1.05.37-.76.21-1.57-.29-2.22-.17-.23-.24-.38-.17-.67.13-.5-.64-.71-.77-.21-.09.36-.09.72.09,1.06.13.23.34.41.44.65.31.72-.18,1.32-.55,1.9-.33.52-.82.98-1.47,1.01s-1.25-.23-1.8-.51c-1.41-.72-2.7-1.66-3.8-2.8s-1.95-2.36-2.17-3.88c-.21-1.44-.08-2.96.17-4.39.24-1.34.67-2.71,1.51-3.81.76-1.01,2.13-1.75,3.4-1.27.96.36,1.18,1.56,1.33,2.49.26,1.61.53,3.21.72,4.83.25,2.01.4,4.03.45,6.06.01.51.02,1.01.02,1.52s.8.52.8,0h0Z"/>
    <path d="m200.66,150.52v.37c0,.53.74.5.8,0,.13-1.14-.16-2.36-.5-3.43s-.83-2.26-1.7-3c-.24-.2-.57-.12-.67.18-.41,1.23-.15,2.42.38,3.57.47,1.01,1.12,2,1.18,3.15l.79-.11c-.35-1.31-.81-2.58-1.25-3.86-.2-.58-.32-1.16-.44-1.76s-.29-1.22-.62-1.76c-.21-.35-.73-.19-.75.2-.05,1.06.14,2.1.49,3.09s.79,1.88,1.15,2.83l.77-.21c-.58-1.49-1.2-2.96-1.62-4.5-.12-.43-.8-.35-.79.11.02.98-.11,1.96-.12,2.95s.03,2.11.69,2.89c.18.21.49.11.63-.08.25-.35.28-.83.26-1.25-.03-.54-.14-1.08-.28-1.6-.24-.92-.57-1.84-.98-2.69-.18-.36-.76-.18-.75.2.03.91-.12,1.96.23,2.82.4.99,1.42,1.21,2.4,1.19.51,0,.52-.81,0-.8-.41,0-.9-.01-1.23-.2-.24-.13-.37-.31-.44-.56-.11-.35-.12-.66-.13-1.04-.01-.47,0-.95-.02-1.42l-.75.2c.35.73.64,1.56.87,2.38.13.46.24.93.28,1.41.01.17.01.46,0,.56-.03.2-.04.25-.14.39l.63-.08c-.21-.24-.31-.67-.37-1.03-.08-.49-.08-1-.08-1.49.01-.92.14-1.83.11-2.75l-.79.11c.42,1.54,1.05,3.01,1.62,4.5.08.2.27.34.49.28.19-.05.36-.29.28-.49-.35-.93-.79-1.82-1.12-2.75s-.53-1.93-.48-2.95l-.75.2c.31.51.44,1.07.55,1.65s.26,1.18.46,1.76c.43,1.25.88,2.49,1.21,3.77.11.43.81.35.79-.11-.07-1.19-.64-2.21-1.15-3.26-.24-.49-.45-.99-.57-1.53-.12-.58-.06-1.16.13-1.71l-.67.18c.79.66,1.21,1.75,1.51,2.71s.58,2.1.45,3.15h.8v-.37c0-.51-.8-.52-.8,0h0Z"/>
    <path d="m246.54,161.07c.33-2.21,1.39-4.24,2.14-6.32.13-.37-.42-.7-.67-.39-1.22,1.52-1.96,3.31-2.81,5.04l.75.2c-.02-1,.67-1.86.62-2.87-.03-.51-.78-.52-.8,0s-.01.99-.01,1.48.8.52.8,0,0-.99.01-1.48h-.8c.03.49-.15.93-.31,1.38-.17.48-.32.97-.31,1.49,0,.37.56.57.75.2.82-1.66,1.52-3.43,2.69-4.88l-.67-.39c-.76,2.08-1.81,4.11-2.14,6.32-.03.21.05.43.28.49.19.05.46-.06.49-.28h0Z"/>
    <path d="m200.59,144.73l-.2.17.67.18c-.21-.53-.05-1.17-.03-1.72.03-.63-.04-1.26.23-1.85s.63-1.25.72-1.93c.1-.73-.07-1.46.04-2.2.22-1.5.53-2.98,1.06-4.4.45-1.23.74-2.5,1.08-3.76.37-1.38.84-2.76,1.78-3.87l-.48.06c-.14-.1-.07-.18-.11-.1-.02.04-.03.11-.05.16-.04.12-.08.24-.1.37-.06.39.14.62.42.87.14.12.09.22-.02.38-.15.22-.38.4-.59.56-.18.15-.38.28-.55.46-.21.22-.39.49-.56.74-.32.47-.67,1.07-1.24,1.27l.45.59c.7-1.09,1.09-2.33,1.68-3.48.28-.55.6-1.08,1.03-1.53.52-.54,1.15-.98,1.73-1.45s1.17-.99,1.81-1.42c.31-.21.59-.42.85-.68s.56-.36.9-.51c.62-.28.87-.93,1.38-1.34.24-.19.53-.32.81-.45.37-.17.73-.34,1.09-.52,1.45-.7,3.01-1.68,4.68-1.63l-.11-.79c-.18.06-.36.14-.54.2-.12.04-.3.12-.42.04v.69c.29-.2.66-.2,1-.19.39.01.78.07,1.17.07,1.07,0,2.12-.27,3.2-.28.54,0,1.08.02,1.62.03s1.06,0,1.6.03c1.05.07,2.08.32,3.09.6,1.17.32,2.34.65,3.55.81v-.8c-.26-.02-.52-.02-.78-.02v.8c.74-.07,1.44.14,2.14.39.35.12.7.25,1.06.36s.75.18,1.13.27c.79.19,1.58.42,2.36.62.71.18,1.4.42,2.05.75s1.27.7,1.77,1.23c.25.26.48.53.74.77.29.26.61.49.93.71s.66.46.98.7c.25.18.53.36.76.58.25.25.45.55.62.88.05.09.09.18.12.26.02.06.04.11.05.17.02.09,0,.01.01.07,0,.02,0,.04,0,.05,0,.04-.02-.03,0,0,0,0,0,0,.02-.03-.03.02-.03,0,0,0,.06-.02.11.01.17,0,.03,0,.04.04.02,0,0-.01-.06-.04-.07-.05-.17-.11-.3-.26-.47-.37-.33-.22-.75-.34-1.14-.37-.2-.02-.37.17-.39.35-.02.21.09.37.29.44.54.2.84.89,1.07,1.37.14.29.26.59.41.88.18.37.4.71.59,1.08.22.43.42.88.56,1.35s.17.91.25,1.36c.1.49.26.97.38,1.46s.2.94.36,1.4c.3.9.68,1.74.87,2.68.16.81.2,1.68,0,2.49-.05.22-.1.43-.1.65s.03.44-.05.64c-.06.17-.13.31-.15.49-.04.25-.02.49-.01.74.01.22.01.43-.04.65-.05.19-.12.38-.17.57-.11.45,0,.89-.06,1.33-.08.54-.24,1.07-.37,1.59s-.24,1.07-.37,1.6-.31,1.06-.39,1.61c-.07.51-.05,1.02-.05,1.53s.8.52.8,0c0-.47-.02-.94.04-1.41s.22-.92.34-1.38c.13-.5.23-1.01.35-1.51s.26-.97.36-1.46c.05-.24.1-.49.11-.73.01-.22-.03-.45-.02-.67,0-.43.23-.83.27-1.27.04-.46-.09-.92.09-1.36.16-.41.06-.82.16-1.24.2-.91.25-1.78.11-2.71s-.48-1.81-.81-2.71c-.17-.46-.3-.93-.41-1.42-.11-.51-.27-1.01-.39-1.52-.11-.46-.14-.94-.26-1.41-.12-.49-.31-.97-.53-1.42s-.48-.89-.72-1.34c-.17-.32-.3-.65-.46-.98-.34-.7-.77-1.42-1.53-1.71l-.11.79c.16.01.32.07.47.13.07.03.14.07.21.1.16.08-.06-.06.05.03.18.15.37.33.59.44.51.26.98-.25.95-.75s-.3-.95-.57-1.34c-.3-.44-.63-.73-1.05-1.05-.68-.51-1.45-.95-2.08-1.53-.28-.26-.53-.55-.8-.83s-.58-.53-.91-.74c-.69-.46-1.45-.81-2.23-1.08s-1.62-.46-2.44-.68c-.93-.26-1.87-.44-2.78-.76-.86-.3-1.75-.62-2.68-.53-.5.05-.52.81,0,.8.26,0,.52,0,.78.02.22.02.4-.2.4-.4,0-.24-.18-.37-.4-.4-2.16-.29-4.19-1.2-6.36-1.39-1.09-.09-2.21-.08-3.3-.08-.58,0-1.15.03-1.72.11-.51.07-1.02.15-1.53.16-.87.02-1.94-.31-2.72.23-.25.17-.26.52,0,.69.49.32,1.09.01,1.58-.16.42-.15.36-.77-.11-.79-1.54-.04-2.96.71-4.3,1.36-.75.36-1.51.69-2.25,1.08-.27.14-.53.32-.75.53-.24.23-.42.5-.62.75-.24.29-.58.36-.91.52s-.55.42-.81.67c-.28.26-.63.44-.94.66-.33.23-.63.48-.93.74-.62.54-1.28,1.03-1.9,1.57-.51.43-.92.96-1.26,1.54-.76,1.28-1.16,2.74-1.96,4-.18.28.12.7.45.59.59-.21,1-.64,1.36-1.13.3-.41.54-.89.93-1.22s.81-.6,1.11-1.03c.14-.2.24-.44.23-.69-.01-.34-.19-.56-.44-.77-.03-.02-.09-.07-.09-.08.02.04,0,.05.01-.01.03-.13.08-.25.12-.37.1-.34.06-.64-.24-.86-.13-.1-.38-.06-.48.06-1.82,2.13-1.99,4.93-2.88,7.47-.25.72-.51,1.42-.7,2.16s-.35,1.52-.47,2.3c-.06.38-.14.76-.15,1.15s.04.76.04,1.14c.01.7-.28,1.34-.58,1.96-.18.37-.31.74-.37,1.15-.05.37-.04.74-.04,1.12,0,.67-.2,1.41.06,2.06.11.28.43.39.67.18l.2-.17c.39-.34-.18-.91-.57-.57h0Z"/>
    <path d="m230.61,153.27c.01-.76-.1-1.5-.24-2.24s-.26-1.47-.43-2.2c-.28-1.27-1.09-2.47-.98-3.8.04-.51-.76-.51-.8,0-.11,1.37.65,2.58.97,3.86.18.7.28,1.42.42,2.13.15.75.27,1.49.26,2.26,0,.51.79.52.8,0h0Z"/>
    <path d="m226.21,152.17c0-1.37-.14-2.74.04-4.1.17-1.32.51-2.62.51-3.96h-.8v.36c0,.51.8.52.8,0v-.36c0-.51-.8-.52-.8,0,0,1.34-.34,2.64-.51,3.96-.17,1.37-.04,2.73-.04,4.1,0,.51.8.52.8,0h0Z"/>
    <path d="m229.11,154.52c-.49,0-.98,0-1.47-.03v.8c.08,0,.16-.01.24,0,.04,0,.08.02-.03,0,.02,0,.04,0,.06.01.03,0,.06.01.09.02.04.01.07.04-.03-.01.01,0,.03.01.05.02.02.01.05.03.07.04-.1-.06-.06-.05-.03-.02.01.01.02.02.03.03.01.01.04.05,0,0s-.01-.01,0,0c0,.01.01.02.02.03.02.04.01.06-.02-.04,0,.03.01.05.02.08.01.04,0-.11,0-.05,0,.02,0,.03,0,.05,0,.01,0,.04,0,.05,0-.01.02-.11,0-.05,0,.01-.02.09-.03.09,0,0,.05-.11.01-.03,0,.01-.02.03-.02.04-.02.03-.04.06-.06.1.06-.09.02-.03,0-.01-.02.02-.03.04-.05.05l.67.39s.02-.05.03-.07c.03-.09-.04.07,0,0,.02-.04.04-.08.06-.11.02-.04.05-.08.08-.12.02-.03.06-.06-.01.02.02-.02.03-.04.05-.05.03-.03.06-.06.09-.09.02-.01.03-.03.05-.04.01,0,.02-.02.03-.03-.05.04-.06.05-.04.03.08-.05.16-.1.25-.15l-.59-.24.12.36c.07.2.28.35.49.28.2-.06.35-.28.28-.49l-.12-.36c-.09-.26-.35-.35-.59-.24-.46.22-.78.62-.94,1.1-.05.16.03.37.18.45s.36.07.48-.06c.33-.33.52-.83.26-1.27-.23-.39-.72-.54-1.15-.49-.11.01-.2.04-.28.12-.07.07-.12.18-.12.28.01.23.18.39.4.4.49.03.98.02,1.47.03.21,0,.41-.18.4-.4s-.18-.4-.4-.4h0Z"/>
    <path d="m223.71,153.43c-.29-.08-.64-.13-.93-.02-.32.12-.55.38-.62.72-.02.09-.02.17.02.26.03.07.09.16.16.19.3.13.6.23.93.23s.63-.08.92-.23c.24-.12.25-.45.08-.63-.39-.43-1.01-.63-1.59-.56-.11.01-.2.04-.28.12-.07.07-.12.18-.12.28.01.23.18.39.4.4.24.01.47.02.71.01.21,0,.41-.18.4-.4s-.18-.4-.4-.4h-.34c-.21,0-.41.18-.4.4s.18.4.4.4h.34v-.8c-.24,0-.47,0-.71-.01v.8c.11-.01.23-.02.34-.01.03,0,.06,0,.09,0-.13,0-.03,0,0,0,.05.01.11.02.16.04.02,0,.05.02.07.03.01,0,.03.01.04.02-.06-.03-.07-.03-.03-.01.05.02.1.05.15.08.02.01.04.03.06.04.01,0,.02.02.04.03-.05-.04-.06-.05-.03-.02.04.04.09.08.13.13l.08-.63s-.08.05-.1.05l.05-.02s-.03.01-.05.02c-.06.02-.11.04-.17.05-.02,0-.05,0-.07.02-.08.02.09,0,0,0-.06,0-.12,0-.17,0-.03,0-.05,0-.07,0-.01,0-.12-.02-.05,0s-.03,0-.05,0c-.03,0-.05-.01-.08-.02-.06-.01-.12-.03-.18-.05-.03,0-.05-.02-.08-.03-.02,0-.03-.01-.05-.02.05.02.06.03.02,0l.18.45s.01-.05.02-.08c0-.02.04-.1,0-.02s0,0,.02-.02c0,0,.01-.02.02-.03.03-.05-.06.06-.03.04.02-.02.03-.03.05-.05,0,0,.02-.01.02-.02,0,0-.09.06-.05.04.02-.01.04-.02.06-.03.06-.04-.1.04-.02,0,.02,0,.04-.01.06-.02s.11-.02.03,0,.01,0,.03,0c.02,0,.05,0,.07,0,.03,0,.06,0,.09,0,.02,0,.07,0,0,0-.07,0,0,0,0,0,.06.01.13.03.19.04.2.06.44-.07.49-.28s-.06-.43-.28-.49h0Z"/>
    <path d="m235.16,147.62s.11.01.02,0c.04,0,.08.02.12.03.13.04.09.03.21.09.22.11.43.25.63.39.48.35.93.77,1.34,1.21.36.39.71.8.96,1.27.02.05.05.09.07.14.03.06-.02-.05,0,0,0,.02.02.04.02.06.01.04.02.07.03.11.03.11.01-.07,0,.09,0,.24-.06.43-.21.58-.3.3-.85.34-1.3.27-.53-.09-.95-.33-1.33-.69-.49-.47-.91-1.01-1.26-1.59-.3-.5-.63-1.12-.61-1.71,0-.15.03-.32.05-.46,0-.06.02-.12.04-.18.01-.05.02-.07.03-.07.02,0-.05.04-.01.02.08-.05,0,0,.08-.04.15-.05.31-.09.47-.12.66-.16,1.55-.08,2.01.48.14.17.42.14.57,0,.17-.17.14-.4,0-.57-.53-.66-1.55-.85-2.35-.76-.58.07-1.37.19-1.56.84-.45,1.56.55,3.11,1.53,4.24.46.53.98,1,1.65,1.25s1.42.27,2.06,0,1-.91.94-1.6c-.06-.59-.47-1.11-.83-1.56-.49-.62-1.06-1.18-1.68-1.67-.46-.37-1.06-.85-1.69-.85-.51,0-.52.8,0,.8h0Z"/>
    <path d="m217.56,144.87c.57,0,1.14-.05,1.71-.01.49.03,1.02.13,1.35.47.16.17.26.43.3.68.02.17.02.35,0,.52,0,.06-.01.11-.03.17-.02.09-.02.09-.04.12-.02.03,0,.03,0,0,0,.01-.09.04-.04.02s-.02,0-.03,0c-.09.02.02,0-.08,0-.06,0-.13,0-.19,0-.3-.01-.6-.06-.9-.06-.88,0-1.65.39-2.5.54-.21.04-.41.06-.67.07s-.55.01-.83-.01c-.21-.02-.46-.06-.68-.16-.13-.06-.24-.13-.31-.28.04.09-.02-.11-.01-.06,0,.02,0-.1,0-.13,0-.07,0,.05,0-.03,0-.03.01-.06.02-.09.02-.06.04-.12.06-.18.1-.25.23-.42.44-.58.58-.45,1.35-.66,2.06-.81.65-.14,1.32-.23,1.99-.22.51,0,.52-.79,0-.8-.71-.01-1.42.08-2.11.23-.76.16-1.56.39-2.21.82-.57.38-1.05,1.01-1.05,1.73,0,.66.52,1.08,1.11,1.25s1.27.17,1.89.1c.37-.04.73-.1,1.08-.21.44-.13.87-.3,1.33-.36.4-.05.8,0,1.2.03.28.02.58.02.83-.14.64-.4.54-1.54.3-2.14-.64-1.59-2.64-1.31-4.02-1.3-.51,0-.52.8,0,.8h0Z"/>
    <path d="m219.05,146.78c.06-.21.09-.44.07-.67-.03-.26-.09-.49-.21-.72-.04-.08-.12-.13-.19-.16-.09-.04-.16-.03-.26-.02-.27.04-.54.16-.73.36s-.32.48-.36.76c-.01.09-.02.17.02.26s.09.14.16.19c.17.12.4.2.61.19.14-.01.26-.04.39-.1.11-.05.2-.12.29-.2l-.67-.18.12.3c.04.1.09.18.18.24.09.05.21.07.31.04s.19-.09.24-.18.08-.21.04-.31l-.12-.3c-.05-.13-.13-.24-.28-.28s-.28,0-.39.1c-.02.01-.03.03-.05.04l.08-.06c-.05.04-.11.08-.18.11l.1-.04s-.09.03-.14.04h.11s-.08,0-.13-.01h.11s-.1,0-.14-.02l.1.04c-.06-.02-.11-.06-.16-.09l.18.45c.02-.11.04-.22.09-.32l-.04.1c.03-.07.07-.14.12-.2l-.06.08c.04-.05.09-.1.14-.14l-.08.06c.06-.04.12-.08.18-.11l-.1.04c.09-.04.18-.06.28-.07l-.45-.18s.03.07.05.11l-.04-.1c.05.12.08.24.1.36v-.11c0,.12,0,.25-.01.38v-.11c0,.08-.01.15-.03.23-.06.2.07.44.28.49s.43-.06.49-.28h0Z"/>
    <path d="m236.09,150.41c-.02-.11,0,.06,0,0,0-.03,0-.06,0-.08,0-.05,0-.1,0-.15,0-.08.01-.17,0-.25-.01-.16-.06-.3-.18-.42-.1-.1-.25-.16-.4-.18l.18.67c.12-.13.21-.27.27-.43s.05-.34.02-.51c-.01-.09-.11-.2-.18-.24-.09-.05-.21-.07-.31-.04-.03,0-.06.02-.08.02-.07.02.09,0,.03,0-.09,0,.06.01.03,0-.08-.02.09.05.03.01.11.07.06.05.03.02.04.06.06.07.03.04,0-.01-.01-.02-.02-.03.02.02.03.1.01.02,0-.03-.01-.06-.02-.09-.03-.21-.3-.34-.49-.28-.22.07-.32.27-.28.49.03.21.15.4.33.51s.41.11.61.04l-.49-.28c-.02-.12,0,0,0,.04,0,.08.02-.09,0-.01,0,.02-.01.04-.02.06,0,.04.05-.09,0-.02,0,.02-.02.04-.03.05-.04.07,0-.01.01-.01,0,0-.05.05-.05.06-.1.1-.14.25-.1.39.03.12.15.26.28.28.05,0,.09.02.13.03-.07-.03-.09-.04-.05-.02,0,0,.02,0,.02.01,0,0-.09-.08-.04-.03-.05-.07-.06-.08-.04-.05.02.03,0,.01-.03-.06,0,0,0,.03,0,.04-.04-.09-.01-.1,0-.05,0,.02,0,.03,0,.05,0,.08-.01.16-.01.24,0,.13.01.26.03.38.04.21.3.34.49.28.22-.07.32-.27.28-.49h0Z"/>
    <path d="m238.9,142.43c-.27.06-.6-.03-.9-.17-.4-.19-.77-.45-1.11-.72-.7-.55-1.32-1.18-2.04-1.7-.47-.33-.92-.68-1.4-1.01-.3-.21-.6-.41-.93-.57-.27-.13-.6-.28-.89-.13-.83.42-.51,1.4-.1,2,.47.69,1.08,1.25,1.75,1.74.94.69,1.98,1.24,3.05,1.71.49.22.99.45,1.51.59.34.09.74.16,1.07,0,.68-.34.39-1.2.04-1.68-.48-.67-1.2-1.17-2.03-1.26l.39.29-.11-.44c-.12-.5-.89-.29-.77.21l.11.44c.04.19.21.27.39.29.48.05.99.42,1.33.84.13.16.22.35.28.54.02.07,0,0,0-.02,0,.02,0,.05,0,.07,0,.1,0-.08,0,.03,0,0,.03-.04.04-.04-.02.01-.05.02-.07.02.02,0,.09,0,0,0-.07,0-.13,0-.2,0-.1-.01-.34-.08-.48-.13-.45-.16-.89-.35-1.33-.55-.97-.45-1.93-.96-2.79-1.59-.54-.39-1.05-.86-1.43-1.41-.09-.13-.18-.27-.25-.41-.05-.11-.1-.26-.11-.33-.01-.12,0-.1.08-.19-.02.02.04-.02.04-.02.02,0-.12.04-.13.04.04,0,.09.02-.02,0,.03,0,.06.01.08.02.02,0,.04.01.06.02.1.04-.05-.02.02,0,.06.02.11.05.16.08.14.07.28.16.41.24.3.19.59.39.87.6.38.27.78.55,1.14.83.73.58,1.39,1.23,2.15,1.78.67.48,1.49.96,2.34.76.5-.12.29-.89-.21-.77h0Z"/>
    <path d="m220.31,139.92c.79,0,1.59.01,2.38.02.69,0,1.39-.02,2.08,0,.57.02,1.16-.01,1.61-.42s.64-1.04.47-1.6c-.14-.5-.58-.92-1.09-1.01-.4-.07-.82.02-1.21.12-.9.24-1.75.65-2.62.96-1.42.51-2.98.31-4.44.68-.18.05-.28.21-.29.39-.15,1.81,2.38,2.09,3.67,1.97.22-.02.4-.17.4-.4,0-.2-.18-.42-.4-.4-.62.06-1.27.02-1.88-.15-.26-.07-.56-.19-.75-.36-.21-.19-.27-.37-.25-.66l-.29.39c1.28-.32,2.62-.21,3.9-.52.76-.18,1.48-.55,2.22-.82.39-.15.8-.28,1.21-.37.3-.06.56-.11.79.05.35.24.35.7.12,1.03-.27.38-.75.35-1.17.33-.69-.02-1.39,0-2.08,0-.79,0-1.59-.02-2.38-.02-.51,0-.52.8,0,.8h0Z"/>
    <path d="m228.11,161.68c-.89-.29-1.64-.86-2.49-1.24-.72-.32-1.47-.47-2.26-.48-.73-.01-1.49.08-2.16.37-.3.13-.59.32-.8.57-.1.12-.2.25-.26.4-.12.25-.03.46.14.66.45.53,1.29.58,1.93.65.34.04.65.09.98.17.54.11,1.08.14,1.63.17.45.02.93.02,1.37.14.3.08.59.21.88.31.58.21,1.34.39,1.75-.21s.28-1.65-.43-1.97c-.64-.29-1.36-.09-2.03-.1-.51,0-.52.79,0,.8.31,0,.62-.03.93-.05.16,0,.31,0,.47,0,.06,0,.25.05.28.06.1.04.13.05.18.18.03.07.03.27.02.4-.02.14-.04.21-.12.28.05-.04,0,0-.01,0,.07-.03-.01,0-.03,0-.07.01.1,0-.03,0-.04,0-.09,0-.13,0-.58-.05-1.22-.46-1.86-.55-.58-.08-1.17-.09-1.76-.12-.49-.03-.94-.15-1.42-.23-.41-.06-.83-.08-1.24-.16-.18-.03-.37-.07-.54-.15s-.21-.12-.27-.26v.4c.45-1.02,2.03-1.02,2.96-.95.65.05,1.29.26,1.9.58.73.38,1.42.84,2.21,1.09.49.16.7-.61.21-.77h0Z"/>
    <path d="m205.06,167.56c0,1.36.15,2.73.07,4.09-.07,1.25-.59,2.42-.62,3.68-.06,2.47.56,5.01-.04,7.44l.28-.28c-1.73.5-3.6.31-5.37.19-1.86-.13-3.72-.14-5.58-.21-2.05-.08-4.16-.19-6.17.33-1.04.27-1.99.33-3.06.3s-2.08-.04-3.12.09c-2.1.27-4.13.87-6.25,1-1.63.1-3.17.6-4.5,1.56s-2.3,2.28-3.3,3.6-1.97,2.86-1.7,4.63c.07.48.22.95.27,1.43.06.58,0,1.17-.13,1.74-.2.95-.54,1.87-.67,2.84-.14,1.05-.12,2.12-.29,3.17s-.47,2.15-.76,3.2c-.58,2.08-.62,4.2-.95,6.32-.33,2.12-.8,4.22-1.15,6.34-.33,2.06-.42,4.12-.92,6.15-.48,1.93-1.07,3.84-1.15,5.84-.08,2.18-.37,4.32-.77,6.47-.37,2.04-.91,4.08-1.03,6.15s.05,3.96.13,5.93c.09,2.13.03,4.27.06,6.4.07,4.24.27,8.52,1.48,12.61.29.99.6,1.97.83,2.98.05.21.29.33.49.28.75-.19.87-.88.71-1.55-.12-.5-.89-.29-.77.21.06.24.13.49-.15.56l.49.28c-.55-2.38-1.43-4.65-1.74-7.09-.3-2.36-.45-4.73-.51-7.1-.06-2.41,0-4.82-.08-7.22-.08-2.22-.3-4.44-.12-6.66.2-2.4.87-4.77,1.25-7.15.19-1.14.34-2.29.44-3.45s.08-2.33.29-3.49c.4-2.23,1.21-4.37,1.44-6.63.25-2.4.64-4.75,1.09-7.12.22-1.17.44-2.35.58-3.54s.2-2.4.4-3.59c.21-1.21.61-2.39.9-3.58.27-1.13.39-2.24.47-3.4s.34-2.29.64-3.44c.28-1.08.39-2.12.17-3.22-.11-.52-.25-1.04-.21-1.58s.24-1.09.49-1.58c.44-.86,1.05-1.61,1.63-2.38,1.17-1.53,2.42-2.93,4.26-3.64.97-.37,1.93-.45,2.95-.54,1.12-.1,2.23-.32,3.33-.54s2.3-.46,3.47-.52,2.44.12,3.65,0c1.12-.1,2.18-.53,3.31-.62s2.32-.07,3.47-.04c2.15.07,4.3.1,6.45.25,1.04.07,2.08.14,3.12.11.43-.01.87-.05,1.3-.11.34-.05,1-.07,1.26-.33s.25-.89.3-1.22c.06-.5.09-1.01.09-1.52,0-1.09-.09-2.17-.16-3.26s-.11-2.14.14-3.2c.25-1.02.44-2,.44-3.06,0-1.12-.08-2.23-.09-3.35,0-.51-.8-.52-.8,0h0Z"/>
    <path d="m228.16,176.36c0,.65-.03,1.3-.04,1.96s-.04,1.29.04,1.92c.07.55.29,1.06.43,1.6.15.58.08,1.15.08,1.74,0,.3.02.61.09.91.04.16.08.33.23.42.13.08.31.1.46.13.53.11,1.07.15,1.61.16,1.13.02,2.26-.11,3.39-.16,1.22-.05,2.43-.04,3.65-.09,1.28-.05,2.57-.1,3.86-.1s2.51.02,3.75.21,2.44.49,3.67.7c1.13.19,2.31.33,3.39.72.97.35,1.78,1,2.43,1.79.77.94,1.63,1.81,2.41,2.73.72.84,1.28,1.77,1.75,2.77.95,2.02,1.51,4.2,2.27,6.29.41,1.13.84,2.25,1.17,3.4.17.6.32,1.21.42,1.83s.13,1.18.17,1.77c.19,2.47.57,4.94,1.11,7.36.44,1.97.88,3.99.69,6.02-.04.45-.13.89-.27,1.31l.73-.1c-.34-.45-.75-.87-.95-1.4-.08-.2-.27-.34-.49-.28-.19.05-.36.29-.28.49.23.61.64,1.08,1.03,1.59.21.27.61.25.73-.1.59-1.73.35-3.72.05-5.49-.15-.9-.36-1.78-.56-2.67-.24-1.09-.44-2.19-.6-3.3s-.29-2.18-.38-3.27-.17-2.18-.44-3.25c-.51-2.1-1.4-4.09-2.06-6.15-.6-1.87-1.21-3.76-2.17-5.48-.5-.89-1.13-1.68-1.81-2.44-.38-.42-.76-.83-1.14-1.26-.35-.39-.67-.81-1.02-1.2-.61-.68-1.35-1.24-2.2-1.6-.97-.42-2.04-.59-3.08-.76-2.18-.36-4.32-.91-6.54-1.02s-4.58.04-6.87.11c-1.06.03-2.13.02-3.19.09-1.01.06-2.02.15-3.03.1-.46-.02-.91-.08-1.35-.2l.28.28c-.2-.67-.05-1.36-.09-2.05-.04-.64-.28-1.21-.44-1.82-.18-.65-.14-1.36-.13-2.03.01-.73.04-1.46.04-2.2,0-.51-.8-.52-.8,0h0Z"/>
    <path d="m234.42,184.94c-.24.64-1.08,1.04-1.55,1.51-.65.66-1.26,1.39-1.86,2.1-1.22,1.43-2.19,3.02-3.08,4.67-.45.83-.88,1.67-1.33,2.5s-.98,1.63-1.4,2.48-.75,1.74-1.24,2.56-1.05,1.47-1.56,2.22-.91,1.63-1.38,2.43-1.1,1.57-1.6,2.4c-.97,1.6-1.96,3.17-2.96,4.74s-2.14,3.02-3.49,4.36c-.61.61-1.21,1.24-1.71,1.95-.24.35-.41.72-.59,1.1-.21.43-.48.78-.8,1.13-.69.75-1.1,1.7-1.6,2.58-.56,1-1.14,1.98-1.72,2.97-.39.65-.73,1.33-1.11,1.98-.31.53-.73,1.37-1.39,1.51l.51.39c-.06-.53-.26-.98-.49-1.46-.32-.65-.47-1.29-.65-1.99-.35-1.44-.84-2.84-1.12-4.3-.12-.65-.17-1.31-.27-1.96-.1-.7-.32-1.37-.5-2.05-.37-1.38-.24-2.81-.52-4.2s-.45-2.89-.66-4.34c-.09-.67-.19-1.34-.34-2s-.45-1.31-.62-1.99c-.16-.63-.19-1.29-.34-1.92-.15-.69-.37-1.36-.58-2.03s-.37-1.33-.36-2.06c0-.67.09-1.34.04-2.01-.1-1.33-.56-2.58-.57-3.92-.02-1.5.02-3.01.02-4.51,0-1.15,0-2.28.09-3.42.07-.87.17-1.89-.41-2.63-1.1-1.4-3.24-.42-4.62-.12-.72.16-1.59-.04-2.25.33-.8.45-1.17,1.59-1.28,2.43-.17,1.3-.03,2.68,0,3.99.02,1.5.04,3.01-.06,4.51s-.39,2.81-.62,4.22-.42,2.79-.64,4.19-.46,2.78-.81,4.15c-.34,1.34-.81,2.65-1.23,3.97-.88,2.82-1.68,5.66-2.42,8.52s-1.43,5.72-2.12,8.59c-.33,1.39-.59,2.78-.76,4.2-.17,1.46-.29,2.94-.53,4.39-.11.65-.23,1.28-.23,1.95,0,.75.08,1.5.06,2.25-.05,1.33-.35,2.65-.47,3.97-.13,1.48-.08,2.98-.07,4.47s0,3.08,0,4.63c0,6.01-.01,12.03-.01,18.04,0,3.02,0,6.05,0,9.07,0,1.37.23,2.67.4,4.02.08.63.12,1.28.06,1.92-.06.68-.31,1.32-.38,1.99-.13,1.26-.11,2.54.13,3.78.05.25.38.37.59.24,1.09-.69.76-2.45.98-3.53l-.79-.11c.14,1.31-.08,2.63.14,3.94.05.27.38.34.59.24.57-.29.68-1.21.78-1.76.12-.71.15-1.43.29-2.14l-.79-.11c-.05,1.34-.28,2.7.17,4,.1.29.58.43.73.1.48-1.04.66-2.23,1.31-3.18l-.75-.2c.03,1.15-.05,2.32.35,3.42.12.34.53.38.73.1.62-.85.34-1.97.87-2.84l-.73-.1c.26,1.02,0,2.07.08,3.11.03.34.42.54.68.28.85-.83.75-2.12.99-3.19l-.79-.11c-.05.67-.04,1.33.03,1.99.02.21.17.4.4.4.9-.01,1.06-1.67,1.27-2.29h-.77c.24.82.07,1.78.69,2.45.21.23.58.1.67-.18.28-.91.38-1.86.71-2.75h-.77c.1.63.04,1.29.09,1.92.04.46.05,1.22.53,1.47.23.12.51.02.59-.24.12-.41.16-.84.24-1.26.05-.25.12-1,.36-1.12l-.59-.24c.11.68.11,1.42.49,2.02.2.31.61.22.73-.1.36-.9.26-1.85.45-2.78h-.77c.35,1.02.13,2.17.96,2.99.14.14.43.17.57,0,.35-.45.49-.92.52-1.49.03-.62-.1-1.29.22-1.86l-.73-.1c.22.72.47,1.55.43,2.31-.03.56.04.98.43,1.42.21.23.59.1.67-.18.35-1.17.62-2.35.71-3.57h-.8c.11,1.15.05,2.67.97,3.53.22.2.59.12.67-.18.22-.79-.04-2,.55-2.64l-.63-.08c.5.79.56,3.16,1.91,3.06.17-.01.35-.11.39-.29.21-.98.16-2.22.79-3.05l-.73-.1c.15,1.03.3,2.05.68,3.03.06.15.2.31.39.29.7-.06.91-.66.98-1.27.04-.37-.09-1.6.22-1.75l-.59-.24c.16,1.03-.05,2.28.7,3.11.18.2.5.12.63-.08.73-1.14.8-2.53.93-3.84h-.8c-.03,1.14-.05,2.27.02,3.41.02.28.34.53.6.35,1.21-.82,1.18-2.73,1.48-4l-.73.1c.34.48.21,1.08.18,1.63s.02,1.03.3,1.5c.12.21.46.28.63.08.39-.46.58-.97.67-1.56s.09-1.24.43-1.78l-.73-.1c.13.82.26,1.64.17,2.47-.05.45.68.54.79.11.26-1.08.61-2.13.98-3.18l-.67.18c.35.42.26,1.29.26,1.8,0,.59-.06,1.17-.05,1.76,0,.29.25.42.51.39.52-.07.72-.8.84-1.22.17-.58.22-1.28.52-1.81l-.73-.1c.14.91.09,1.83-.02,2.74-.06.48.64.49.79.11.22-.57.36-1.17.55-1.74.11-.33.37-1.4.79-1.47l-.49-.28c.17.87.37,1.77.24,2.66l.79.11c.12-1.07.8-1.98,1.24-2.93l-.75-.2c.11.86.17,1.72.35,2.57.07.34.57.38.73.1.35-.61.24-1.47.73-1.98l-.67-.18c.13.92-.24,1.81.14,2.71.15.35.63.19.73-.1.3-.81.35-1.85,1.01-2.48l-.63-.08c.58.8.16,1.94.38,2.85.1.42.64.34.77,0,.37-.94,1.01-2.01.89-3.05-.06-.51-.76-.52-.8,0-.06.87.11,1.74-.04,2.61-.08.5.65.72.77.21.24-1,.5-2.2,1.21-2.97l-.68-.28c-.05.97-.2,1.95,0,2.91.07.32.58.4.73.1.41-.86.56-1.81.95-2.68l-.63.08c.67.7.47,2.11.39,2.98-.04.39.58.55.75.2.22-.46.48-.9.61-1.39.14-.55.12-1.12.41-1.63l-.55.14c.28.13.3.88.32,1.13.03.41.05.83,0,1.24-.06.46.66.52.79.11.27-.85.35-1.8.84-2.56l-.73-.1c.35,1.07-.15,2.22.12,3.32.08.34.55.38.73.1.3-.48.37-1.05.46-1.6.08-.49.11-1.26.57-1.57h-.4c.34.22.19,1.08.16,1.4-.03.47-.11.96,0,1.43.08.31.45.37.67.18.73-.64.74-1.77.98-2.64l-.79-.11c-.03.79-.16,1.6.05,2.38.09.34.55.38.73.1.56-.87.59-2.08,1.37-2.79l-.67-.18c.18.86-.2,1.72.08,2.58.11.32.55.4.73.1.5-.85,1.43-1.8,1.24-2.86-.08-.47-.76-.32-.79.11-.06.93-.41,2.24.1,3.1.16.27.53.25.69,0,.54-.83,1.22-1.53,1.6-2.46l-.59.24c.15.1.04,1.06.09,1.27.05.25.38.37.59.24.37-.23.64-.67.87-1.04s.54-.88.5-1.34c-.04-.51-.79-.52-.8,0-.02.95.02,1.91-.02,2.86-.02.36.44.5.68.28.75-.68,1.48-1.76,1.67-2.76l-.79-.11c-.1,1.07.02,2.14-.04,3.21-.02.35.45.53.68.28.43-.45.83-.97,1.06-1.56.11-.29.25-1.17.57-1.3l-.49-.28c.19.84.09,1.71.02,2.56-.04.49.63.49.79.11s.37-.77.59-1.14c.19-.32.4-.78.71-1l-.59-.24c.1.65.11,1.26.42,1.85.15.29.52.22.69,0,.18-.24.31-.52.44-.8.1-.19.25-.66.48-.74l-.49-.28c.2.76-.45,2.32.58,2.68.19.07.45-.08.49-.28.15-.8.46-1.56.69-2.34l-.79-.11c-.03.57-.07,1.16-.03,1.73.04.5.33.95.31,1.45-.02.35.44.52.68.28.81-.79.7-1.84.84-2.88.08-.6.24-1.2.32-1.8.09-.69.17-1.38.31-2.05.3-1.41.98-2.77,1.54-4.09.58-1.37,1.18-2.74,1.77-4.1,1.11-2.56,1.75-5.2,2.3-7.92.27-1.36.54-2.72.88-4.07.35-1.39.84-2.74,1.16-4.13.64-2.76.96-5.58,1.61-8.34.64-2.76,1.41-5.5,1.95-8.29.26-1.36.47-2.72.58-4.1s.04-2.89.11-4.33.22-3.01.34-4.51c.12-1.41.15-2.82.29-4.23.15-1.5.39-2.99.74-4.46.18-.74.42-1.46.58-2.2s.25-1.54.31-2.32c.13-1.62.16-3.23.41-4.83s.55-3.24.59-4.89c.01-.51-.79-.51-.8,0-.04,1.51-.29,2.98-.53,4.47-.22,1.37-.32,2.74-.4,4.13s-.21,2.81-.61,4.19c-.37,1.28-.64,2.59-.84,3.9-.41,2.7-.48,5.45-.71,8.17-.13,1.51-.23,3.01-.22,4.53,0,1.36-.06,2.72-.25,4.07-.38,2.8-1.1,5.53-1.78,8.27s-1.18,5.53-1.69,8.32c-.5,2.76-1.44,5.38-2.03,8.12-.57,2.64-.99,5.33-1.85,7.9-.51,1.54-1.22,3.01-1.86,4.5-.63,1.46-1.26,2.93-1.85,4.41-.56,1.42-.69,2.84-.93,4.33-.1.61-.25,1.2-.29,1.82-.05.67-.05,1.35-.56,1.85l.68.28c.02-.52-.24-.94-.31-1.45-.07-.56,0-1.17.03-1.73.02-.46-.66-.53-.79-.11-.24.78-.54,1.54-.69,2.34l.49-.28c.09.03,0-.26,0-.37,0-.22,0-.44.02-.66.02-.36.05-.74-.04-1.1-.05-.2-.29-.35-.49-.28-.8.27-.94,1.29-1.4,1.9h.69c-.27-.51-.25-1.1-.34-1.66-.04-.24-.39-.38-.59-.24-.79.57-1.31,1.73-1.67,2.61l.79.11c.08-.92.16-1.86-.05-2.77-.04-.19-.3-.36-.49-.28-.51.21-.71.7-.89,1.19-.27.72-.54,1.3-1.09,1.88l.68.28c.07-1.07-.06-2.14.04-3.21.04-.45-.7-.55-.79-.11-.16.88-.81,1.81-1.46,2.41l.68.28c.04-.95,0-1.9.02-2.86h-.8c.03.32-.23.68-.39.94-.15.24-.34.6-.58.75l.59.24c-.13-.61.19-1.35-.45-1.75-.24-.15-.49.01-.59.24-.35.85-1.03,1.51-1.52,2.27h.69c-.21-.35-.13-.93-.11-1.32.03-.46.08-.92.11-1.38l-.79.11c.07.39-.29.88-.48,1.19-.22.35-.46.69-.67,1.05l.73.1c-.27-.83.1-1.72-.08-2.58-.07-.31-.46-.37-.67-.18-.86.78-.9,2.01-1.5,2.95l.73.1c-.19-.7-.05-1.46-.02-2.17.02-.46-.66-.54-.79-.11-.2.71-.19,1.76-.78,2.29l.67.18c-.26-1.02.58-2.6-.54-3.31-.11-.07-.29-.08-.4,0-1.18.79-.64,2.39-1.31,3.46l.73.1c-.27-1.1.23-2.22-.12-3.32-.11-.33-.54-.39-.73-.1-.53.82-.63,1.83-.92,2.75l.79.11c.07-.56.03-1.15-.05-1.71-.07-.47-.18-1.12-.66-1.35-.19-.09-.43-.06-.55.14-.27.46-.33.94-.42,1.46-.1.57-.36,1.04-.6,1.56l.75.2c.11-1.13.23-2.66-.62-3.55-.17-.17-.52-.15-.63.08-.4.87-.55,1.82-.95,2.68l.73.1c-.19-.89-.02-1.81.02-2.7.02-.34-.45-.53-.68-.28-.82.88-1.15,2.18-1.42,3.32l.77.21c.16-.94,0-1.87.07-2.82h-.8c.11.95-.52,1.98-.86,2.84h.77c-.24-1.02.21-2.12-.46-3.05-.15-.21-.43-.27-.63-.08-.78.74-.87,1.87-1.22,2.83l.73-.1c-.32-.74.05-1.73-.06-2.52-.04-.31-.48-.37-.67-.18-.61.61-.46,1.44-.86,2.14l.73.1c-.17-.78-.22-1.57-.32-2.35-.04-.34-.56-.61-.75-.2-.5,1.1-1.21,2.1-1.35,3.34-.05.44.72.55.79.11.16-1.05-.04-2.06-.24-3.08-.04-.23-.29-.31-.49-.28-.66.11-.97,1.02-1.17,1.55-.28.73-.45,1.49-.73,2.22l.79.11c.12-.99.15-1.97,0-2.96-.05-.35-.57-.37-.73-.1-.24.42-.33.95-.45,1.42-.07.27-.27,1.22-.44,1.24l.51.39c-.03-1.26.43-3.06-.44-4.12-.21-.25-.58-.08-.67.18-.37,1.05-.72,2.1-.98,3.18l.79.11c.1-.9-.06-1.79-.2-2.68-.06-.36-.57-.36-.73-.1-.61.97-.22,2.31-.97,3.18l.63.08c-.56-.96.21-2.17-.48-3.13-.19-.26-.65-.27-.73.1-.14.61-.22,1.23-.35,1.84-.12.54-.26,1.35-.76,1.69l.6.35c-.06-1.14-.05-2.27-.02-3.41.01-.52-.75-.5-.8,0-.12,1.17-.17,2.42-.83,3.43l.63-.08c-.58-.65-.37-1.95-.49-2.76-.04-.28-.38-.34-.59-.24-.51.24-.54.92-.57,1.4-.01.22.06,1.49-.22,1.51l.39.29c-.38-.98-.53-2-.68-3.03-.06-.38-.55-.33-.73-.1-.68.9-.65,2.18-.87,3.24l.39-.29c-.37.03-.58-.91-.67-1.18-.16-.49-.27-1.03-.55-1.48-.13-.21-.45-.28-.63-.08-.76.83-.48,2-.75,2.99l.67-.18c-.74-.69-.65-2.04-.74-2.97-.05-.51-.76-.52-.8,0-.09,1.15-.36,2.25-.68,3.35l.67-.18c-.21-.23-.24-.45-.21-.75s0-.53-.04-.81c-.09-.61-.23-1.22-.41-1.81-.1-.32-.56-.4-.73-.1-.25.46-.32.95-.33,1.47,0,.57.09,1.24-.28,1.71h.57c-.68-.66-.46-1.79-.75-2.63-.12-.34-.69-.42-.77,0-.19.93-.1,1.89-.45,2.78l.73-.1c-.34-.53-.31-1.23-.41-1.83-.04-.28-.38-.34-.59-.24-.43.21-.56.81-.65,1.23-.12.53-.16,1.1-.32,1.62l.59-.24c-.19-.1-.15-1.16-.16-1.39-.02-.51,0-1.02-.08-1.52-.07-.43-.65-.32-.77,0-.33.89-.43,1.84-.71,2.75l.67-.18c-.46-.5-.3-1.47-.48-2.1-.12-.39-.64-.37-.77,0-.1.28-.16.57-.25.85-.05.17-.1.34-.17.51-.03.08-.09.16-.11.24-.02.11-.16.11.02.11l.4.4c-.06-.67-.07-1.33-.03-1.99.03-.45-.69-.55-.79-.11-.2.9-.08,2.15-.78,2.84l.68.28c-.09-1.11.16-2.22-.11-3.32-.09-.34-.56-.38-.73-.1-.53.88-.27,2.02-.87,2.84l.73.1c-.37-1.04-.3-2.12-.32-3.21,0-.41-.53-.52-.75-.2-.66.96-.83,2.14-1.31,3.18l.73.1c-.42-1.22-.19-2.52-.14-3.79.02-.44-.7-.55-.79-.11-.12.58-.14,1.18-.23,1.77-.05.35-.1,1.47-.47,1.65l.59.24c-.21-1.23.03-2.49-.11-3.73-.04-.41-.69-.59-.79-.11-.1.52-.11,1.05-.16,1.57-.04.41-.05,1.23-.45,1.48l.59.24c-.25-1.29-.29-2.73-.05-4.02.11-.59.3-1.13.34-1.73.04-.64-.02-1.29-.1-1.92-.17-1.32-.37-2.6-.37-3.94,0-1.46,0-2.91,0-4.37,0-5.85,0-11.71.01-17.56,0-2.94,0-5.88,0-8.81,0-1.45-.05-2.91,0-4.36.05-1.32.26-2.63.43-3.94s-.08-2.72.09-4.08c.17-1.39.43-2.77.57-4.17.15-1.44.31-2.88.63-4.3s.66-2.77,1-4.15c1.35-5.53,2.83-11.01,4.58-16.43.82-2.56,1.19-5.23,1.58-7.88.4-2.72.98-5.37,1.03-8.13.03-1.44-.01-2.87-.02-4.31,0-1.27-.2-2.59.48-3.73.45-.76,1.17-.55,1.94-.64.82-.09,1.61-.4,2.42-.56.74-.15,1.76-.24,2.09.63s.03,1.93-.02,2.79c-.07,1.31,0,2.63-.01,3.94,0,1.39-.13,2.83.05,4.22.17,1.27.56,2.43.5,3.73-.03.64-.08,1.28,0,1.92s.32,1.28.51,1.91.37,1.23.49,1.86.17,1.28.36,1.91.43,1.2.56,1.83c.14.7.24,1.4.34,2.11.2,1.42.4,2.83.66,4.24.25,1.33.12,2.67.48,3.99.17.65.39,1.29.49,1.95s.15,1.38.28,2.06c.26,1.4.71,2.74,1.07,4.11.15.58.24,1.18.47,1.74s.61,1.08.68,1.69c.03.27.23.44.51.39,1.18-.25,1.84-1.81,2.35-2.76.88-1.67,1.91-3.26,2.82-4.91.23-.41.42-.85.7-1.23.26-.35.59-.63.85-.99.24-.33.39-.69.56-1.05.21-.45.5-.85.81-1.23.61-.74,1.33-1.38,2-2.07s1.22-1.39,1.75-2.14,1.04-1.57,1.55-2.37c.51-.81,1.07-1.59,1.57-2.41s.93-1.67,1.49-2.44,1.09-1.63,1.56-2.5c.89-1.65,2.16-3.05,2.95-4.75s1.83-3.46,2.75-5.2c1.02-1.94,2.05-3.88,3.47-5.56.68-.8,1.36-1.69,2.14-2.39.58-.53,1.31-.95,1.6-1.72.18-.48-.59-.69-.77-.21h0Z"/>
    <path d="m217.56,204.01s-.04,0-.06,0c-.09,0,.02,0,.02,0,0,0-.14-.04-.15-.04-.07-.02.07.04,0,0-.02-.01-.04-.02-.07-.03-.05-.03-.1-.06-.14-.09-.03-.02-.08-.06-.02-.01-.02-.02-.05-.04-.07-.05-.05-.04-.1-.09-.15-.13-.1-.1-.2-.2-.29-.3s-.19-.22-.28-.33c-.03-.03-.05-.06-.08-.1-.01-.01-.02-.03-.03-.04,0,0,.04.05,0,.01-.05-.06-.09-.12-.14-.18-.17-.23-.33-.46-.5-.68s-.33-.45-.53-.65c-.37-.36-.93.2-.57.57.07.07.14.15.21.23.04.05.07.09.11.14-.04-.05-.02-.02,0,.01s.05.06.07.1c.18.24.35.49.53.73.38.5.76,1.01,1.28,1.38.24.17.53.29.82.28.22,0,.4-.18.4-.4s-.18-.41-.4-.4h0Z"/>
    <path d="m217.56,204.81c.51,0,.52-.8,0-.8s-.52.8,0,.8h0Z"/>
    <path d="m215.47,202.92c-1.24-.48-2.53-.88-3.85-1.1-.21-.04-.43.06-.49.28-.05.19.07.46.28.49,1.32.22,2.61.62,3.85,1.1.2.08.44-.09.49-.28.06-.23-.08-.41-.28-.49h0Z"/>
    <path d="m212.46,214.31c-.1-1.22-.16-2.45-.36-3.66-.09-.57-.2-1.16-.47-1.68-.25-.47-.65-.86-.84-1.37s-.95-.27-.77.21c.19.52.54.93.82,1.4s.38,1.04.47,1.57c.2,1.16.24,2.35.34,3.53.04.51.84.51.8,0h0Z"/>
    <path d="m215.64,209.07c-.81-.82-1.53-1.72-2.34-2.54s-1.7-1.59-2.79-1.96c-.49-.17-.7.6-.21.77,1,.35,1.82,1.12,2.54,1.87.76.79,1.45,1.65,2.23,2.43.36.37.93-.2.57-.57h0Z"/>
    <path d="m209.16,202.76c0-1.65,0-3.3,0-4.95,0-.51-.8-.52-.8,0,0,1.65,0,3.3,0,4.95,0,.51.8.52.8,0h0Z"/>
    <path d="m216.18,192.03c-2.13,2.09-3.94,4.49-6.05,6.6-.36.36.2.93.57.57,2.11-2.11,3.91-4.51,6.05-6.6.37-.36-.2-.93-.57-.57h0Z"/>
    <path d="m223.41,197.46c-2.21,1.1-4.83,1.63-6.68,3.36-.38.35.19.92.57.57.88-.82,2.01-1.34,3.1-1.8s2.31-.89,3.42-1.44c.46-.23.06-.92-.4-.69h0Z"/>
    <path d="m208.6,216.61c.09-.49.04-.97-.23-1.4-.22-.35-.54-.61-.77-.94-.29-.42-.37-.94-.49-1.43-.15-.59-.39-1.12-.81-1.57-.35-.38-.91.19-.57.57.71.77.58,1.88,1.12,2.75.37.6,1.13,1.02.98,1.81-.09.5.68.72.77.21h0Z"/>
    <path d="m206.41,204.96c0-1.15-1.15-1.61-1.98-2.12-.96-.59-2.01-1.29-2.43-2.38-.08-.2-.27-.34-.49-.28-.19.05-.36.29-.28.49.44,1.17,1.4,1.96,2.42,2.62.41.27.85.49,1.27.75.34.22.7.49.7.92,0,.51.8.52.8,0h0Z"/>
    <path d="m217.84,198.08c-.72-.65-1.36-1.39-2.08-2.04s-1.59-1.35-2.6-1.38c-.51-.02-.51.78,0,.8.33,0,.7.18,1.02.37.42.25.79.57,1.15.89.67.61,1.27,1.31,1.95,1.92.38.34.95-.22.57-.57h0Z"/>
    <path d="m208.56,198.16c-.31-.57-.67-1.14-1.17-1.56s-1.14-.72-1.82-.83c-.21-.03-.43.06-.49.28-.05.19.06.46.28.49.16.03.32.06.47.1.07.02.14.04.22.07.03.01.07.03.1.04.09.03-.04-.02.04.02.13.06.25.12.37.2.06.04.11.08.17.12.08.05-.04-.03.03.02.03.03.06.05.09.08.1.09.2.19.3.29.05.05.09.11.14.16,0,0,.07.09.05.06s.04.05.04.06c.18.25.34.52.49.8.1.19.37.25.55.14.19-.11.25-.36.14-.55h0Z"/>
    <path d="m209.15,221.35c-.13-.69-.69-1.25-1.38-1.38-.11-.02-.21-.02-.31.04-.08.05-.16.14-.18.24-.02.1-.02.22.04.31.05.08.14.16.24.18s.21.05.31.09l-.1-.04c.1.04.2.1.29.17l-.08-.06c.09.07.17.15.24.24l-.06-.08c.07.09.12.19.17.29l-.04-.1c.04.1.07.2.09.31.02.09.1.19.18.24.09.05.21.07.31.04.22-.07.32-.27.28-.49h0Z"/>
    <path d="m241.36,184.61c0,3.66,0,7.32,0,10.99,0,3.51-.01,7.1.77,10.54.18.8.32,1.57.35,2.4.03.75.1,1.5.24,2.24.34,1.74.78,3.46,1.12,5.2.16.82.34,1.66.34,2.5s-.13,1.66-.05,2.49c.14,1.46.99,2.68,1.52,4.01.62,1.56,1.02,3.22,1.19,4.89.04.4.08.79.18,1.18.09.34.21.68.31,1.02.21.72.19,1.4.14,2.14-.02.34-.05.67-.05,1.01,0,.51.8.52.8,0,0-.71.12-1.42.1-2.14s-.28-1.4-.48-2.09c-.22-.78-.23-1.6-.37-2.4s-.33-1.66-.58-2.47-.54-1.58-.9-2.34c-.29-.62-.64-1.23-.86-1.88-.23-.69-.25-1.41-.21-2.13.02-.43.06-.86.06-1.29s-.05-.83-.11-1.24c-.26-1.74-.67-3.46-1.05-5.17-.18-.79-.38-1.59-.46-2.4s-.06-1.61-.18-2.41-.35-1.55-.48-2.33c-.15-.89-.26-1.78-.33-2.67-.15-1.76-.19-3.53-.2-5.3-.02-3.66,0-7.31,0-10.97v-1.35c0-.51-.8-.52-.8,0h0Z"/>
    <path d="m265,219.26c0,1.35.17,2.82-.1,4.15-.25,1.2-.52,2.23-.49,3.47.04,1.46-.22,2.74-.58,4.15-.33,1.31-.48,2.59-.59,3.93s-.28,2.74-.37,4.11-.06,2.74-.16,4.11-.29,2.72-.38,4.09-.02,2.78-.27,4.16c-.21,1.15-.47,2.27-.45,3.44.01,1.33.11,2.66.11,4,0,2.82-.02,5.64,0,8.45.04,5.44.44,10.82-.9,16.15-.67,2.66-1.18,5.35-1.82,8.02-.33,1.38-.69,2.75-1.12,4.1-.43,1.34-.88,2.6-1.08,4s-.5,2.57-1.04,3.83c-.47,1.11-.91,2.2-1.18,3.38s-.73,2.29-1.2,3.45-.62,2.4-.97,3.6c-.38,1.29-.91,2.54-1.27,3.84s-.64,2.53-1.02,3.78c-.77,2.56-2.32,4.83-2.92,7.44-.31,1.36-.56,2.64-1.11,3.93-.49,1.12-.81,2.3-1.07,3.5-.29,1.28-.51,2.58-.85,3.85-.33,1.21-.86,2.35-1.17,3.56-.62,2.39-.44,4.83-.58,7.26-.08,1.35-.21,2.7-.28,4.06s.14,2.78-.46,4c-.88,1.81-2.48,3.39-4.5,3.81-2.31.49-4.42-.48-5.78-2.36-.6-.83-1.02-1.76-1.2-2.76-.03-.16-.22-.3-.39-.29-.62.04-1.06.41-1.52.81-.36.31-.66.54-1.15.57-.45.03-.85,0-1.28.13-.2.06-.35.28-.28.49.59,1.67,1.91,3.58,1.36,5.43l-.12.31c.25,0,.3-.07.14-.25,0-.13-.09-.28-.13-.41-.12-.47-.16-.96-.21-1.44s-.09-.94-.17-1.41c-.09-.52-.26-1-.21-1.54h-.8c0,.99.1,1.98.11,2.97,0,.59,0,1.19-.05,1.78-.03.31-.04,1.1-.31,1.33-.76.62-.74-1.68-.73-1.99.02-.63.2-1.82-.62-2.04-.19-.05-.45.06-.49.28-.19,1.12-.32,2.25-.62,3.35-.07.25-.33,1.44-.68,1.49-.28.04-.28-1.66-.32-1.95-.09-.69-.23-1.37-.22-2.07,0-.58.1-1.16.06-1.73-.03-.45-.15-.84-.32-1.25-.2-.47-.6-1.07-.56-1.6.07-.95,1.49-1.14,2.22-1.36.94-.29,1.66-.79,2.38-1.46.25-.24.06-.69-.28-.68-1.28.03-2.41.54-3.61.93-.38.12-1.08.13-1.33.46-.28.37-.3,1.05-.35,1.49-.12,1.1-.05,2.25-.67,3.22-.15.24-1.33,1.96-1.62,1.64-.12-.13.04-1.31.07-1.52.1-.65.32-1.27.53-1.89.19-.57.41-1.14.5-1.74.1-.64-.01-1.29.08-1.92.19-1.41,1.55-1.7,2.65-2.2,1.29-.59,2.55-1.23,3.82-1.85,1.45-.71,2.69-.59,4.23-.23,1.3.3,2.58.59,3.92.36.13-.02.24-.16.28-.28.22-.79.12-1.58.08-2.39-.05-1.01-.01-2.04-.01-3.06,0-2.01-.01-4.02-.01-6.03,0-2.1.11-4.16.37-6.24.11-.94.21-1.89.19-2.84-.03-1.05-.23-2.08-.29-3.12-.12-2.09.42-4.17.78-6.22.35-2.01.7-4.02,1.06-6.04.74-4.09,1.55-8.16,2.46-12.22.45-2.01.9-4.02,1.21-6.06.29-1.92.93-3.7,1.39-5.57.48-1.93.38-3.89.54-5.85.16-2.01.84-3.92,1.23-5.89.39-1.92.37-3.85.3-5.8-.08-2-.02-3.88.35-5.86.37-1.97.67-3.89.79-5.9s.22-3.94.37-5.91c.34-4.59.99-9.06,2.14-13.51.55-2.14,1.04-4.31,1.24-6.52.1-1.11-.07-2.23.08-3.33.15-1.05.57-1.97.47-3.05-.04-.51-.84-.51-.8,0,.09,1.02-.31,1.9-.46,2.89-.14.93-.01,1.86-.05,2.8-.07,1.99-.51,3.99-.99,5.92-.48,1.95-1.02,3.88-1.38,5.87-.35,1.93-.61,3.88-.8,5.84-.2,1.97-.33,3.94-.45,5.92-.13,2.1-.14,4.24-.48,6.32-.31,1.86-.79,3.69-.89,5.57-.11,1.93.15,3.87.09,5.81-.06,2.05-.62,3.99-1.09,5.98-.45,1.87-.51,3.71-.6,5.62-.1,2.12-.75,4.02-1.31,6.05-.51,1.86-.69,3.81-1.08,5.71-.84,4.04-1.78,8.05-2.54,12.11-.76,4.05-1.53,8.12-2.18,12.19-.17,1.04-.28,2.09-.22,3.15.07,1.14.29,2.26.3,3.4.01,2.27-.48,4.53-.54,6.81-.05,2.24,0,4.48,0,6.71,0,1.16,0,2.32,0,3.48,0,1,.23,2.09-.04,3.06l.28-.28c-2.46.43-4.86-1.33-7.3-.51-1.32.44-2.58,1.23-3.83,1.83-1.01.48-2.35.81-3.19,1.58-.93.84-.88,1.9-.91,3.05-.03,1.38-.79,2.63-1.04,3.97-.1.53-.12,1.05-.1,1.59,0,.31,0,.63.24.86.5.47,1.24.11,1.64-.28.62-.6,1.23-1.4,1.55-2.21.52-1.33.21-2.81.71-4.15l-.28.28c1.53-.29,2.91-1.14,4.49-1.18l-.28-.68c-.77.71-1.51,1.1-2.51,1.4-.71.21-1.54.45-2.01,1.07-.51.67-.28,1.47.02,2.18.17.41.41.81.5,1.25.13.6.02,1.24,0,1.84-.05,1.15.28,2.28.3,3.43.01.58.04,1.29.65,1.56.99.43,1.5-.9,1.72-1.6.39-1.22.52-2.49.74-3.75l-.49.28c.16.04.02,2.56.11,2.92.19.82,1.2,1.69,1.98.94.72-.7.63-2.25.64-3.16.01-1.18-.1-2.35-.11-3.52,0-.52-.76-.51-.8,0-.05.67.17,1.3.27,1.96.11.71.14,1.43.25,2.15.08.51.36,2,1.2,1.67s.73-2.09.61-2.78c-.24-1.37-.96-2.59-1.42-3.89l-.28.49c.71-.21,1.45,0,2.12-.38.52-.3.98-1.06,1.62-1.1l-.39-.29c.35,1.95,1.6,3.78,3.24,4.88s3.82,1.23,5.63.52,3.29-2.27,4.12-4.02c.5-1.06.45-2.17.47-3.32.03-1.4.16-2.8.26-4.2.19-2.67-.07-5.4.64-8.01.34-1.25.88-2.44,1.21-3.7s.57-2.66.87-3.99c.3-1.31.77-2.51,1.27-3.75s.63-2.63.99-3.93c.38-1.37,1.1-2.62,1.69-3.91s.98-2.5,1.33-3.79.67-2.62,1.06-3.91.95-2.58,1.26-3.93c.13-.58.25-1.17.43-1.73.21-.67.55-1.28.81-1.93.47-1.16.61-2.41,1.01-3.6.43-1.27,1.1-2.46,1.47-3.75s.37-2.67.74-3.97.91-2.68,1.28-4.05.71-2.83,1.03-4.26.62-2.86.95-4.29c.31-1.35.7-2.68.94-4.05.47-2.67.54-5.4.5-8.11-.03-2.81-.11-5.61-.11-8.42,0-2.9.09-5.82-.06-8.72-.07-1.36.03-2.6.29-3.94.24-1.25.3-2.44.34-3.71.04-1.46.22-2.92.36-4.37.14-1.47.14-2.93.21-4.41.07-1.37.22-2.74.35-4.11.14-1.5.28-2.93.65-4.4.34-1.33.62-2.56.58-3.94-.02-.76-.04-1.5.12-2.24.13-.59.33-1.15.41-1.75.18-1.28.06-2.63.05-3.92,0-.51-.8-.52-.8,0h0Z"/>
    <path d="m253.85,280.14c1.05-.08.87-1.42.72-2.13-.22-1.02-.6-2.05-1.11-2.96-.15-.28-.39-.76-.75-.82-.21-.04-.43.05-.49.28-.62,2.31-.42,4.7-.42,7.06,0,.51.8.52.8,0,0-.81.06-1.62.05-2.43,0-.7-.11-1.38-.2-2.08-.15-1.15-.22-2.51-.88-3.5-.2-.3-.61-.23-.73.1-.54,1.42-.33,3.05-.21,4.53.14,1.75.07,3.52.07,5.27,0,.51.8.52.8,0,0-3.61.38-7.32-.67-10.83-.07-.24-.36-.38-.59-.24-1.21.74-1.36,2.25-1.31,3.54.02.64.09,1.27.12,1.91.03.81-.05,1.62-.09,2.43-.05.98-.07,1.99.21,2.94.08.26.35.35.59.24.9-.42,1.15-1.54,1.27-2.43.14-1.1.08-2.23.01-3.33-.03-.47-.07-.94-.07-1.41,0-.51-.8-.52-.8,0,0,2.44,0,4.88,0,7.32,0,.51.8.52.8,0,0-2.44,0-4.88,0-7.32h-.8c0,.89.11,1.78.13,2.67.03.98.04,2.03-.28,2.97-.13.38-.32.69-.66.85l.59.24c-.46-1.56-.08-3.25-.08-4.85,0-1.18-.27-2.39-.06-3.57.1-.6.32-1.17.86-1.5l-.59-.24c1.03,3.44.65,7.08.64,10.62h.8c0-1.73.06-3.47-.07-5.19-.11-1.43-.35-3.02.18-4.4l-.73.1c.29.44.42.96.52,1.47.12.58.19,1.17.27,1.76.09.67.18,1.32.18,1.99,0,.79-.05,1.59-.05,2.38h.8c0-2.29-.21-4.62.39-6.85l-.49.28s-.03,0-.07-.05c.04.04.07.08.11.12-.08-.09.04.06.06.09.04.07.09.14.13.21.2.35.38.73.52,1.08.18.44.33.89.45,1.34.11.42.19.77.2,1.16,0,.05,0,.1,0,.15,0,.03-.02.15,0,.05,0,.04-.01.07-.02.11,0,.04-.02.11,0,.02,0,.03-.03.06-.04.08.1-.15,0,.01,0,0,0-.03.08-.05.03-.03-.01,0-.07.03,0,0,.02,0,.01,0,.02,0-.51.04-.51.84,0,.8h0Z"/>
    <g>
      <path class="cls-1" d="m162.02,270.4c1.2.62,2.21.55,3.62.55,1.81,0,4.16.45,5.7-.51,1.71-1.07,3.82-2.66,4.59-4.55,1-2.45,1.81-5.59,2.04-8.18.43-4.89,1.48-9.99,2.9-14.74,1.25-4.17,0-8.47.6-12.66.19-1.31.32-2.61.37-3.93.1-2.56-.02-5.12-.02-7.67v-10.19c0-2.75.03-5.5,0-8.25-.01-1.33.29-2.56.6-3.83.36-1.45.5-2.55.5-4.11,0-2.23-.47-5.01.02-7.18.11-.5.44-.94.53-1.49.3-1.85-.35-5.1,1.56-6.14.76-.41.92-.84,1.54-1.43.45-.43,1.19-.76,1.7-1.17,1.05-.84,1.91-2.42,2.45-3.68.6-1.39,1.08-2.95,1.44-4.39.33-1.3,1.35-2.84,1.93-4.04.46-.94.92-1.85,1.48-2.74.9-1.44.56-3.12,1.18-4.62.44-1.07,1.05-1.82,1.84-2.63.74-.75,2-1.05,1.89-2.42-1.9-.49-3.3.34-4.44,1.76-.6.75-1.13,1.42-1.75,2.13-.61.7-1.54,1.64-1.86,2.55-.05-1.07.34-2.01,1.01-2.82,1.13-1.36,1.58-2.42,2.23-4.08.32-.81.72-1.78,1.27-2.46.41-.5,1.03-.79,1.38-1.36.32-.51.76-1.34.02-1.67-1.08-.49-2.73,1.15-3.35,1.85-.72.82-1.02,2.03-1.5,3.01-.32.64-.78,1.17-1.15,1.78-.3.5-.48,1.39-.95,1.74-.06-.37.12-.56.3-.89.73-1.33,1.86-2.55,2.79-3.75.7-.9,2.84-2.4,2.74-3.69-1.96-.89-4.48,2.75-5.07,3.97.67.49,2.58-2.72,2.83-3.18-2.42-1.78-6.75,8.93-8.02,10.49-1.56,1.93-2.9,4.05-4.26,6.11-2.17,3.28-4.03,6.77-5.53,10.4-.74,1.79-1.4,3.62-1.96,5.49-.26.87-.48,1.7-.58,2.59-.3,2.55-2.17,4.9-2.98,7.35-.33.97-.66,1.97-.97,2.94-.43,1.36-.22,2.56-.43,3.92-.18,1.22-.95,2.21-1.19,3.44-.29,1.48-.78,2.94-.98,4.42-.42,3.09-.97,6.36-1.76,9.37-.44,1.68-1.27,3.24-1.5,5-.21,1.55-.18,3.01-.47,4.57-.47,2.59-.56,5.24-1.15,7.83-.29,1.27-.79,2.52-1.06,3.79s-.08,2.56-.1,3.85c-.02,1.62-.53,3.11-.58,4.71-.05,1.51.02,3.05.02,4.56,0,2.7-.56,5.03-.55,7.7,0,2.23,0,4.46,0,6.69"/>
      <path d="m161.82,270.74c.89.43,1.8.59,2.78.6,1.04.02,2.07.05,3.11.09.97.04,1.99.05,2.93-.25s1.71-.91,2.46-1.48c.82-.62,1.6-1.3,2.24-2.1s.99-1.63,1.33-2.56c.77-2.11,1.32-4.32,1.6-6.55.32-2.52.56-5.02,1.03-7.52.48-2.51,1.08-5,1.8-7.46s.78-4.84.67-7.35c-.05-1.25-.12-2.51-.09-3.76s.25-2.54.38-3.82c.27-2.63.2-5.27.16-7.91-.04-2.65-.02-5.3-.02-7.95,0-2.66,0-5.32.01-7.98,0-1.33,0-2.67,0-4-.01-1.3.17-2.52.47-3.78.55-2.26.68-4.42.54-6.74-.07-1.16-.16-2.32-.1-3.48.03-.57.07-1.16.24-1.7.15-.49.41-.91.49-1.42.25-1.57-.16-3.32.51-4.82.36-.81,1.18-1.05,1.75-1.67.34-.37.64-.77,1.06-1.06s.88-.52,1.28-.83c1.6-1.24,2.47-3.36,3.14-5.21.41-1.14.66-2.32,1.04-3.46.36-1.09.99-2.07,1.53-3.08.58-1.09,1.12-2.18,1.74-3.24.56-.97.68-2.02.83-3.1.17-1.18.57-2.23,1.32-3.16.57-.71,1.22-1.2,1.92-1.75.6-.48.93-1.07.9-1.85,0-.17-.12-.34-.29-.39-1.83-.43-3.44.25-4.65,1.65-.74.86-1.42,1.77-2.17,2.62-.67.75-1.35,1.5-1.72,2.46l.79.11c-.02-1.21.52-2.03,1.23-2.95.58-.75,1.04-1.56,1.42-2.43.41-.92.72-1.89,1.18-2.78.23-.44.48-.86.84-1.19s.74-.58,1.03-.96c.37-.48.79-1.23.56-1.84s-.95-.8-1.54-.68c-1.32.26-2.69,1.6-3.35,2.73-.58,1-.84,2.13-1.49,3.1-.29.44-.63.85-.86,1.33s-.34,1.03-.74,1.38l.68.28c-.02-.49.44-1.04.7-1.44.31-.47.66-.92,1.01-1.36.56-.7,1.11-1.45,1.75-2.09.91-.91,2.4-2,2.37-3.44,0-.19-.12-.32-.29-.39-1.21-.49-2.43.34-3.27,1.14-.9.85-1.7,1.9-2.25,3.01-.1.19-.05.43.14.55.75.43,1.51-.59,1.9-1.09.55-.7,1.06-1.45,1.47-2.24.11-.2.04-.42-.14-.55-1.59-1.11-3.29,1.48-4,2.55-1.4,2.1-2.49,4.38-3.67,6.6-.55,1.03-1.19,1.84-1.88,2.78-1.38,1.87-2.65,3.83-3.89,5.79-2.48,3.91-4.53,8.1-6.07,12.47-.41,1.15-.8,2.32-1.1,3.51-.26,1.03-.32,2.1-.65,3.12-.66,2.01-1.91,3.76-2.61,5.76-.39,1.11-.82,2.25-1.1,3.39-.28,1.13-.16,2.29-.31,3.44-.14,1.07-.72,1.97-1.05,2.98-.36,1.09-.56,2.27-.82,3.39-.54,2.32-.74,4.72-1.19,7.05-.22,1.17-.48,2.34-.77,3.49s-.69,2.17-1.06,3.25c-.78,2.28-.67,4.66-1.07,7.01-.41,2.4-.52,4.85-1.03,7.24-.24,1.14-.64,2.24-.94,3.36s-.37,2.24-.33,3.41c.04,1.22-.02,2.37-.23,3.58-.2,1.14-.33,2.25-.34,3.41-.01,2.39.06,4.74-.2,7.12-.26,2.39-.3,4.75-.31,7.15,0,1.24,0,2.48,0,3.72,0,.51.8.52.8,0,0-2.43-.05-4.86,0-7.29.06-2.29.51-4.56.54-6.85.03-2.33-.15-4.63.25-6.94.19-1.1.33-2.18.3-3.3-.03-1.22-.08-2.38.22-3.57.28-1.09.67-2.14.93-3.23s.42-2.28.57-3.42c.29-2.3.7-4.61.88-6.92.09-1.22.18-2.43.53-3.61.32-1.05.75-2.06,1.06-3.11.65-2.24,1.06-4.58,1.43-6.88.18-1.13.31-2.27.51-3.4s.56-2.32.81-3.49c.21-1,.65-1.87,1-2.82.38-1.02.36-2.09.41-3.16.06-1.21.46-2.3.83-3.44.35-1.05.7-2.07,1.19-3.07.88-1.79,1.93-3.53,2.21-5.53.33-2.31,1.16-4.56,2-6.72.83-2.15,1.79-4.24,2.86-6.28,2.1-4,4.63-7.86,7.4-11.44.49-.64.85-1.38,1.22-2.09.56-1.08,1.12-2.16,1.7-3.23s1.25-2.23,1.99-3.27c.48-.67,1.1-1.59,1.9-1.89.26-.1.47-.08.69.08l-.14-.55c-.3.56-.65,1.1-1.02,1.62-.24.34-.48.67-.77.97-.12.12-.24.23-.37.34-.08.07-.2.06-.13.1l.14.55c.46-.92,1.09-1.78,1.8-2.53s1.74-1.7,2.82-1.26l-.29-.39c.02.75-.64,1.4-1.13,1.9-.52.53-1.09,1.01-1.56,1.59-.63.78-1.28,1.55-1.88,2.35-.49.67-1.29,1.6-1.26,2.48.01.36.42.51.68.28.54-.48.66-1.22,1.01-1.82.46-.81,1.04-1.49,1.41-2.36.35-.82.62-1.7,1.21-2.38.42-.49.92-.95,1.45-1.31.35-.24,1.83-.92,1.52.09-.26.86-1.08,1.24-1.63,1.88-1.09,1.28-1.45,3.05-2.19,4.53-.45.89-1.06,1.61-1.63,2.42s-.84,1.72-.82,2.69c0,.47.63.51.79.11.34-.87,1.03-1.56,1.64-2.24s1.2-1.44,1.79-2.17c1.07-1.32,2.38-2.16,4.13-1.75l-.29-.39c.04.95-.72,1.29-1.38,1.8-.7.54-1.31,1.29-1.78,2.04-.57.91-.84,1.87-.98,2.92-.07.51-.12,1.03-.25,1.53-.15.63-.46,1.14-.79,1.69-.59,1-1.06,2.06-1.62,3.08-.52.94-1.08,1.89-1.41,2.91-.72,2.18-1.19,4.39-2.38,6.39-.56.94-1.2,1.7-2.14,2.27-.37.23-.75.46-1.08.76s-.59.7-.94,1.01c-.63.56-1.28.8-1.66,1.61-.32.68-.42,1.44-.47,2.18-.06.8-.03,1.6-.08,2.4-.06.96-.57,1.78-.7,2.73-.31,2.19.08,4.4.08,6.6,0,1.16-.1,2.31-.35,3.45s-.56,2.2-.68,3.34c-.14,1.29-.05,2.61-.05,3.9s0,2.58-.01,3.87c-.02,5.18-.03,10.35.04,15.53.04,2.61-.03,5.19-.39,7.78-.32,2.38-.11,4.76-.05,7.15.03,1.29.02,2.6-.18,3.88s-.6,2.38-.92,3.57c-.65,2.4-1.2,4.82-1.62,7.27s-.55,4.77-.93,7.14c-.35,2.17-.94,4.34-1.76,6.39s-2.61,3.31-4.33,4.4-4.03.55-5.97.55c-1.08,0-2.11-.01-3.09-.5-.46-.22-.87.47-.4.69h0Z"/>
    </g>
    <path d="m190.28,161.7c0-.64-.16-1.37.25-1.92l-.75-.2c.02.31-.04.62-.12.91-.07.28-.17.62-.35.83l.63.08c-.2-.41-.16-.93-.14-1.37.03-.5.1-1,.12-1.51l-.79.11c.02.06.02.06.01,0l.63.08c-.24-.39-.17-.86-.14-1.3.03-.46.03-.94-.23-1.34-.17-.27-.51-.24-.69,0-.23.31-.27.71-.32,1.08-.02.15-.06.35-.1.45-.05.13-.13.17-.29.21l.49.28c-.22-.73-.05-1.52-.05-2.27,0-.51-.8-.52-.8,0,0,.82-.16,1.67.08,2.48.06.22.28.33.49.28.5-.11.8-.48.91-.97.08-.38.05-.83.28-1.14h-.69c.22.35.12.82.1,1.22-.03.49,0,.99.27,1.42.13.21.45.27.63.08.21-.22.28-.49.19-.79-.13-.44-.77-.34-.79.11-.04,1.07-.36,2.27.13,3.28.11.22.47.27.63.08.27-.32.43-.72.54-1.12s.19-.8.17-1.19c-.03-.42-.51-.52-.75-.2-.51.68-.36,1.54-.36,2.33,0,.51.8.52.8,0h0Z"/>
    <path d="m178.18,191.39c-.04-.37.07-.7.18-1.05s.17-.68.23-1.03c.14-.78.35-1.54.55-2.31.4-1.55.8-3.12.89-4.73.02-.44-.71-.55-.79-.11-.26,1.51-.69,2.99-1.09,4.47-.2.73-.33,1.48-.54,2.21-.17.57-.59,1.07-.56,1.7.02.29.33.51.6.35,1.04-.65,1.48-1.97,1.8-3.08.39-1.36.72-2.74,1.01-4.13.19-.94.65-1.85.65-2.82,0-.52-.79-.51-.8,0-.02.8.03,1.6.04,2.4s-.07,1.49-.17,2.25c-.07.59-.08,1.18-.14,1.77-.05.54-.13,1.12-.45,1.58l.75.2c-.04-1.9.48-3.74.96-5.56.24-.9.47-1.8.61-2.73s.23-1.87.32-2.8c.04-.44-.72-.55-.79-.11-.25,1.61-1.01,3.07-1.49,4.61-.34,1.1-.45,2.48-1.41,3.25l.67.39c.16-1.13.4-2.26.75-3.35.28-.86.21-1.87.66-2.67l-.73-.31c-.05.26-.19.54-.28.79-.14.39-.28.79-.42,1.18-.19.55-.46,1.04-.73,1.55-.19.36-.37.73-.5,1.12s-.22.8-.34,1.2c-.24.87-.77,1.61-1.01,2.48l.79.11c0-.89.17-1.76.42-2.61.2-.69.4-1.43.71-2.03.28-.53.59-1.04.83-1.6.22-.52.4-1.09.15-1.63-.12-.26-.57-.27-.69,0-.25.56-.29,1.17-.49,1.75-.18.5-.52.93-.77,1.4-.53.99-.6,2.15-1.11,3.14l.69.4c.19-.44.49-.8.71-1.21.26-.48.31-.97.4-1.5.18-1.07.8-2.02,1-3.08.1-.5-.68-.72-.77-.21-.2,1.04-.79,1.96-.98,3-.09.47-.1.96-.33,1.4s-.53.78-.71,1.21c-.08.2-.06.43.14.55.18.11.45.05.55-.14.52-.99.59-2.15,1.11-3.14.25-.47.56-.89.77-1.38.24-.57.24-1.2.49-1.76h-.69s.03.1.02.18c0,.1-.02.19-.05.3-.07.26-.18.51-.3.75-.25.5-.55.97-.78,1.47-.31.7-.53,1.47-.73,2.21-.22.83-.37,1.69-.37,2.56,0,.45.67.55.79.11.21-.76.68-1.42.92-2.17s.4-1.57.79-2.31c.3-.58.62-1.15.84-1.77.13-.37.26-.74.39-1.11.11-.3.28-.64.34-.96.07-.42-.49-.73-.73-.31-.48.86-.42,1.86-.71,2.78-.36,1.13-.61,2.27-.78,3.44-.06.4.34.65.67.39,1.05-.84,1.22-2.28,1.58-3.48.47-1.59,1.28-3.08,1.53-4.74l-.79-.11c-.09.92-.17,1.85-.32,2.77-.15.92-.38,1.82-.63,2.73-.49,1.82-.99,3.69-.94,5.59,0,.41.53.52.75.2.7-1.03.55-2.45.68-3.62.04-.34.11-.67.14-1.01.04-.41.05-.81.04-1.22,0-.85-.06-1.69-.04-2.54h-.8c0,.79-.39,1.52-.55,2.28-.18.83-.34,1.65-.56,2.47-.3,1.08-.49,2.2-.94,3.23-.22.51-.52,1.06-1,1.36l.6.35c-.02-.28.12-.52.23-.77.13-.28.25-.55.33-.85.19-.72.33-1.45.52-2.17.4-1.45.81-2.9,1.07-4.38l-.79-.11c-.09,1.59-.51,3.16-.91,4.7-.19.75-.39,1.5-.52,2.27-.06.36-.15.7-.26,1.05s-.2.72-.16,1.09c.02.21.17.4.4.4.2,0,.42-.18.4-.4h0Z"/>
    <path d="m220.96,183.98c1.04-1.16,1.11-2.75,1.62-4.15l-.77-.21c-.3.9-.56,1.81-.9,2.7s-.74,1.73-1.38,2.4l.63.08s-.03-.12-.03-.12c0-.09,0-.19,0-.28.02-.19.08-.38.14-.56.13-.42.32-.83.5-1.23.44-1,.76-2.07.81-3.16.02-.34-.45-.54-.68-.28-.83.91-1.16,2.1-1.59,3.23-.21.54-.45,1.05-.6,1.61s-.28,1.09-.63,1.55l.73.31c.69-2.26,1.56-4.45,2.24-6.71.13-.44-.51-.7-.73-.31-1.13,1.97-1.84,4.13-2.33,6.34l.67-.18c-.07-.06,0,.05,0,0-.03-.09,0,.02,0,0-.01-.03-.02-.06-.02-.09.02.11,0,0,0-.03,0-.22.01-.31.05-.5.09-.48.24-.95.38-1.42s.29-.94.41-1.42c.09-.36.19-.78.09-1.15-.06-.23-.37-.39-.59-.24-.51.37-.8.94-1.03,1.51-.22.54-.38,1.09-.54,1.65-.15.51-.25,1.03-.4,1.54-.14.46-.32,1.03-.78,1.26l.59.45c.72-1.83,1.15-3.77,2.08-5.51.24-.45-.43-.85-.69-.4-.49.85-.65,1.82-1.06,2.7-.37.79-.97,1.45-.9,2.38.03.42.68.57.79.11.33-1.49.84-2.94,1.47-4.33l-.75-.2c0,.31-.01.62-.02.92,0,.51.79.52.8,0,0-.31,0-.62.02-.92,0-.38-.58-.57-.75-.2-.65,1.45-1.21,2.96-1.55,4.52l.79.11c-.06-.81.56-1.43.86-2.14.36-.83.53-1.75.99-2.54l-.69-.4c-.96,1.8-1.41,3.81-2.16,5.7-.14.35.31.59.59.45,1.05-.52,1.21-2,1.47-3.01.14-.52.29-1.04.47-1.54.17-.47.39-1.11.81-1.41l-.59-.24s.01.13,0,.01c0,.04,0,.08,0,.12,0,.03,0,.06,0,.1,0,.02-.02.16,0,.07-.03.22-.09.44-.14.65-.13.51-.3,1.01-.45,1.51s-.28.96-.34,1.46c-.04.35-.05.8.25,1.05.21.18.6.14.67-.18.47-2.14,1.15-4.24,2.25-6.15l-.73-.31c-.68,2.26-1.54,4.46-2.24,6.71-.06.19.05.4.23.47.2.08.38,0,.5-.16.34-.45.51-1.01.66-1.55s.35-1.06.57-1.59c.43-1.05.69-2.23,1.47-3.09l-.68-.28c-.06,1.08-.42,2.11-.85,3.09-.34.79-.85,1.81-.47,2.66.11.24.46.25.63.08,1.41-1.47,1.86-3.59,2.48-5.46.17-.49-.6-.69-.77-.21-.45,1.24-.49,2.77-1.41,3.8-.34.38.22.95.57.57h0Z"/>
    <path d="m225.07,167.16c-1.09,0-2.17.02-3.21.41-.19.07-.32.23-.29.44s.19.34.39.35c.85.01,1.8-.27,2.49-.76.33-.23.21-.72-.2-.75-.39-.02-.78.11-1.13.25-.37.15-.73.33-1.08.51-.19.1-.25.37-.14.55.12.2.35.24.55.14.57-.27,1.13-.57,1.73-.76l-.21-.77c-.86.28-1.87.49-2.44,1.26-.16.23.02.51.24.59.27.1.58.07.86.03.31-.05.61-.13.9-.23.57-.2,1.14-.44,1.66-.74l-.4-.69c-.64.45-1.37.71-2.1.96-.2.07-.34.28-.28.49.06.2.28.34.49.28.69-.22,1.33-.58,2.03-.79.19-.06.32-.24.29-.44s-.19-.33-.39-.35c-.85-.07-1.72.23-2.21.95-.09.13-.06.33.03.44.11.14.25.17.42.14.6-.1,1.02-.58,1.35-1.05.16-.23.31-.47.46-.69.14-.2.26-.37.49-.55.17-.13.14-.43,0-.57-.17-.17-.39-.13-.57,0-.42.33-.69.83-.99,1.27-.04.05-.07.11-.11.16-.02.03-.04.05-.06.08-.01.02-.05.07-.02.03-.08.1-.16.19-.25.28-.02.02-.14.12-.08.08-.05.04-.1.07-.16.1-.03.01-.05.03-.08.04.05-.02.02,0-.02,0-.06.02-.12.03-.19.04l.45.59c.14-.21.38-.38.62-.46.31-.1.55-.12.89-.09l-.11-.79c-.7.21-1.33.58-2.03.79l.21.77c.79-.27,1.6-.55,2.29-1.04.18-.12.26-.35.14-.55-.11-.19-.36-.25-.55-.14-.49.28-.93.47-1.43.65-.28.1-.56.18-.85.23-.03,0-.06.01-.09.01.09-.01-.02,0-.03,0-.06,0-.12,0-.18,0-.02,0-.05,0-.07,0-.04,0-.1-.02,0,0-.05-.01-.1-.02-.15-.04l.24.59c-.05.06.05-.05.06-.06.03-.03.05-.05.08-.08.06-.05.08-.07.18-.13.17-.11.36-.19.51-.25.37-.14.75-.25,1.13-.37.21-.07.34-.28.28-.49-.06-.2-.29-.35-.49-.28-.67.22-1.29.54-1.92.84l.4.69c.29-.15.62-.32.89-.43.17-.07.35-.13.52-.18.04-.01.08-.02.12-.03,0,0,.11-.02.07-.01-.04,0,.07,0,.08,0,.04,0,.08,0,.12,0l-.2-.75c-.6.42-1.38.66-2.09.65l.11.79c.46-.17.96-.29,1.43-.34.52-.05,1.04-.04,1.57-.04s.52-.8,0-.8h0Z"/>
    <path d="m248.94,216.69c-.03-.37.09-.7.21-1.05.12-.37.19-.75.23-1.14.09-.73.19-1.42.51-2.09.57-1.2,1.43-2.39,1.23-3.79-.06-.45-.79-.33-.79.11,0,1.36-.34,2.67-.59,4-.26,1.4-.11,2.79-.16,4.2h.8c0-.35.12-.68.25-1,.14-.35.27-.69.38-1.05.23-.72.42-1.46.57-2.2s.25-1.55.26-2.34-.02-1.6.03-2.41c.01-.22-.19-.4-.4-.4-.24,0-.37.18-.4.4-.21,1.7-.42,3.4-.67,5.1-.22,1.5-.18,3.09-.76,4.51-.17.42.55.72.73.31.6-1.4.97-2.88,1.11-4.4.06-.58.07-1.16.13-1.74.06-.54.13-1.12.39-1.6l-.75-.2c-.18,1.85-.72,3.65-1.28,5.42-.14.44-.26.86-.32,1.32-.05.38-.04.85-.09,1.17-.09.58-.48,1.24-.19,1.82.09.18.38.27.55.14,1.3-1,2.5-2.34,2.92-3.96.22-.85.23-1.74.35-2.61.06-.42.17-.81.3-1.22s.2-.79.12-1.2c-.04-.21-.3-.34-.49-.28-.52.16-.83.68-1.05,1.13s-.38.9-.54,1.36c-.27.74-.58,1.48-.91,2.2-.37.8-.76,1.57-1.04,2.42-.31.94-.54,1.91-.94,2.82-.17.39.29.84.63.48,1.08-1.16,1.97-2.49,2.69-3.9.36-.71.69-1.43.95-2.18s.44-1.53.62-2.31c.21-.89.42-1.78.73-2.64.14-.38-.4-.67-.67-.39-.98,1.02-1.44,2.44-1.8,3.78-.18.66-.34,1.32-.52,1.98-.24.87-.55,1.71-.85,2.56-.34.99-.67,1.98-.88,3.01-.1.5.6.7.77.21,1-2.92,2.25-5.86,2.26-9h-.8v.24c0,.51.8.52.8,0v-.24c0-.51-.8-.52-.8,0-.01,3.06-1.26,5.94-2.23,8.79l.77.21c.36-1.76,1.08-3.43,1.6-5.14.4-1.31.65-2.66,1.14-3.95.26-.68.6-1.35,1.1-1.88l-.67-.39c-.52,1.46-.76,3-1.21,4.49s-1.15,2.85-1.98,4.13c-.48.73-1.01,1.42-1.6,2.06l.63.48c.34-.77.58-1.56.82-2.36s.53-1.61.92-2.38c.59-1.18,1.02-2.43,1.51-3.65.11-.26.23-.52.38-.76.06-.1.13-.2.22-.29.02-.03.09-.08.09-.09.04-.03.05-.03.07-.04l-.49-.28c.06.33-.1.7-.2,1.01-.11.35-.19.71-.24,1.08-.11.81-.12,1.64-.31,2.43-.35,1.45-1.42,2.68-2.58,3.57l.55.14s0-.02,0-.05c0-.06,0-.11.02-.17.03-.15.07-.29.11-.44.08-.29.15-.57.18-.87.03-.42.03-.84.11-1.25s.24-.85.37-1.26c.54-1.73,1.02-3.48,1.2-5.28.04-.4-.56-.53-.75-.2-.57,1.04-.53,2.34-.62,3.49-.11,1.45-.45,2.91-1.02,4.25l.73.31c.6-1.45.55-3.08.77-4.6.25-1.74.46-3.48.68-5.22h-.8c-.05.8-.02,1.6-.03,2.41s-.1,1.54-.27,2.31-.36,1.47-.59,2.2c-.22.68-.61,1.35-.6,2.08,0,.52.79.51.8,0,.04-1.4-.11-2.78.16-4.17.26-1.34.58-2.66.58-4.03l-.79.11c.08.6-.18,1.23-.43,1.75-.28.59-.62,1.15-.87,1.76-.29.69-.37,1.41-.47,2.15-.05.38-.14.72-.26,1.08s-.21.72-.18,1.1c.04.51.84.51.8,0h0Z"/>
    <path d="m239.41,355.26c-.04-.58-.38-1.02-.81-1.39-.39-.33-.79-.63-1.14-1.01-.73-.8-1.56-1.75-2.76-1.61-.32.04-.55.42-.28.68.8.78,1.87,1.23,2.79,1.86.38.26.71.54,1.01.9.24.29.5.62.82.82.3.19.78.19,1.08.01.32-.19.38-.56.32-.9-.12-.64-.57-1.21-.95-1.72-.4-.55-.81-1.11-1.29-1.59-.31-.31-.8-.58-.81-1.07l-.2.35c.38-.17.79.14,1.06.37.35.3.65.67,1,.96l.39-.67c-.71-.14-1.32-.77-1.9-1.19s-1.32-.91-2.05-.65c-.25.09-.37.35-.24.59.34.64,1.01.94,1.58,1.33.61.41.94,1.08,1.66,1.33.43.14.7-.51.31-.73-.58-.33-1.12-.72-1.67-1.09-.48-.32-.95-.45-1.53-.4-.18.02-.34.11-.39.29-.04.16.02.38.18.45.49.21,1.01.37,1.51.58.24.1.48.21.69.35.18.11.3.24.33.35l.1-.39c-.05.05.07-.03-.02.01,0,0,.07-.02-.02,0-.02,0-.11.02-.02,0-.03,0-.07,0-.1,0-.16,0-.24-.02-.44-.08-.41-.13-.8-.33-1.17-.56s-.76-.49-1.1-.78c-.14-.12-.28-.25-.41-.38-.05-.05-.09-.1-.14-.16.06.07-.04-.07-.06-.1l-.45.59c.9.15,1.63.8,2.47,1.12.74.29,1.51.87,2.32.46.29-.15.23-.53,0-.69-.65-.46-1.4-.77-2.12-1.1-.36-.16-.71-.33-1.04-.56-.35-.25-.67-.54-1.03-.77v.69c.12-.05.19-.03.32.07.1.07.27.26.38.38.32.34.68.64,1.17.64.51,0,.52-.8,0-.8-.16,0-.28-.08-.42-.21-.16-.15-.3-.32-.46-.47-.41-.39-.87-.52-1.4-.29-.29.13-.23.55,0,.69.36.23.68.52,1.03.77.32.23.68.4,1.04.56.72.33,1.47.63,2.12,1.1v-.69c-.27.14-.65-.07-.89-.19-.33-.16-.67-.28-.99-.44-.75-.36-1.45-.91-2.29-1.04-.34-.06-.62.26-.45.59s.51.62.8.86c.42.34.86.65,1.33.92.67.38,1.89,1.06,2.59.4.1-.1.14-.25.1-.39-.15-.57-.76-.9-1.26-1.12-.31-.14-.63-.26-.95-.38-.14-.05-.28-.1-.42-.15-.06-.02-.12-.04-.18-.07-.01,0-.16-.07-.1-.04l-.2.75c.22-.02.44-.04.65.03.23.07.43.22.62.36.5.34,1,.69,1.52.99l.31-.73c-.3-.1-.51-.36-.72-.58s-.44-.45-.7-.63c-.46-.32-1.07-.55-1.35-1.08l-.24.59c.11-.04.21-.05.3-.03.13.02.26.07.38.13.34.17.65.4.96.63.57.42,1.17.97,1.88,1.11.35.07.72-.39.39-.67-.87-.72-1.72-2.05-3.03-1.46-.12.06-.2.22-.2.35,0,.47.21.85.54,1.18s.67.63.98,1c.48.59.99,1.21,1.35,1.88.06.12.11.22.15.32.02.06.04.13.05.2-.02-.1.04.15,0,.03,0,.02-.04.08,0,.04.05-.07-.07.07.02-.03.03-.03.04-.02,0-.01-.07.01-.21,0-.26-.03-.23-.18-.47-.48-.68-.73-.26-.31-.55-.56-.87-.8-.48-.35-.99-.66-1.51-.96-.48-.28-.98-.56-1.38-.95l-.28.68c.97-.11,1.61.73,2.19,1.37.3.33.62.59.96.87.3.24.72.55.75.97.04.51.84.51.8,0h0Z"/>
    <path d="m234.76,289.09c0,1.37.09,2.72.28,4.08.1.68.23,1.36.31,2.04s.14,1.4.2,2.1c.11,1.41.22,2.82.49,4.21.27,1.34.67,2.65.85,4.01.2,1.59.07,3.22.07,4.82h.8v-.36c0-.51-.8-.52-.8,0v.36c0,.51.8.52.8,0,0-1.43.09-2.88-.02-4.3s-.48-2.73-.79-4.09c-.31-1.38-.45-2.76-.56-4.17s-.25-2.76-.47-4.14c-.25-1.51-.35-3.03-.36-4.56,0-.51-.8-.52-.8,0h0Z"/>
    <path d="m196.11,324.14c.51,0,.52-.8,0-.8s-.52.8,0,.8h0Z"/>
    <path d="m203.67,229.76c0,1.21,0,2.42,0,3.63,0,1.05.05,2.1.1,3.15.03.52.04,1.04,0,1.55-.03.44-.07.86-.3,1.24-.27.44-.27.9-.22,1.4.04.44.01.82-.13,1.24-.17.51-.25,1-.24,1.54,0,.28.03.56,0,.84s-.11.56-.19.84c-.15.53-.24,1.03-.22,1.59.02.58,0,1.1-.15,1.66-.15.52-.27,1.02-.31,1.56-.04.59,0,1.18.01,1.77.04,1.09-.35,2.1-.47,3.16s.07,2.24.11,3.36c.03,1.1-.18,2.16-.44,3.23s-.53,2.04-.67,3.08c-.16,1.14-.14,2.3-.13,3.44.02,4.79.04,9.59.04,14.38,0,1.11.04,2.21.09,3.32s.06,2.15-.23,3.17c-.38,1.33-1.49,2.66-.67,4.06.23.4.57.73.93,1.02.39.32.96-.24.57-.57-.57-.47-1.12-1.05-.98-1.84.12-.68.5-1.3.75-1.94.74-1.93.37-4.05.35-6.06-.06-4.74.02-9.49-.03-14.23-.01-1.17-.03-2.33,0-3.5.04-1.08.26-2.12.52-3.17s.53-2.06.66-3.12-.03-2.2-.08-3.3c-.03-.55-.03-1.09.06-1.63.09-.51.23-1.01.32-1.52.2-1.12-.01-2.25.11-3.37.06-.53.26-1.02.37-1.53.12-.56.07-1.11.06-1.67s.19-1.05.32-1.58.09-1.08.09-1.64c0-.49.15-.9.28-1.36s.12-.9.08-1.35c-.02-.23-.06-.49.02-.71.07-.2.23-.36.31-.56.16-.42.19-.92.21-1.37.05-1-.06-2-.1-3-.05-1.15-.02-2.3-.02-3.45v-1.79c0-.51-.8-.52-.8,0h0Z"/>
  </g>
  <g>
    <path d="m163.83,70.57c0,2.78-1.69,4.26-3.75,4.26s-3.63-1.65-3.63-4.1c0-2.57,1.59-4.25,3.75-4.25s3.63,1.69,3.63,4.09Zm-6.27.13c0,1.73.94,3.27,2.58,3.27s2.59-1.52,2.59-3.36c0-1.61-.84-3.29-2.58-3.29s-2.59,1.59-2.59,3.37Zm.89-5.27c0-.32.25-.6.59-.6s.58.26.58.6-.23.61-.58.61-.59-.28-.59-.61Zm2.22,0c0-.32.25-.6.6-.6s.58.26.58.6-.23.61-.59.61-.59-.28-.59-.61Z"/>
    <path d="m166.42,67.5h-2.46v-.89h5.98v.89h-2.47v7.2h-1.05v-7.2Z"/>
    <path d="m170.3,74.08l4.49-6.56v-.04h-4.1v-.88h5.46v.64l-4.46,6.54v.04h4.52v.88h-5.9v-.61Z"/>
    <path d="m179.29,74.69v-3.43l-2.55-4.65h1.19l1.14,2.23c.31.61.55,1.1.8,1.67h.02c.23-.53.5-1.06.82-1.67l1.16-2.23h1.19l-2.71,4.64v3.44h-1.06Z"/>
    <path d="m186.38,73.42c.47.29,1.15.53,1.87.53,1.07,0,1.69-.56,1.69-1.38,0-.76-.43-1.19-1.52-1.61-1.32-.47-2.14-1.15-2.14-2.29,0-1.26,1.04-2.19,2.62-2.19.83,0,1.43.19,1.79.4l-.29.85c-.26-.14-.8-.38-1.54-.38-1.1,0-1.52.66-1.52,1.21,0,.76.49,1.13,1.61,1.56,1.37.53,2.06,1.19,2.06,2.38,0,1.25-.92,2.33-2.83,2.33-.78,0-1.63-.23-2.06-.52l.26-.88Z"/>
    <path d="m196.62,70.9h-3.14v2.91h3.5v.88h-4.55v-8.08h4.37v.88h-3.32v2.55h3.14v.86Z"/>
    <path d="m198.34,74.69v-8.08h1.14l2.59,4.09c.6.95,1.07,1.8,1.45,2.63h.02c-.1-1.09-.12-2.07-.12-3.33v-3.38h.98v8.08h-1.06l-2.57-4.1c-.56-.9-1.1-1.82-1.51-2.7h-.04c.06,1.03.08,2,.08,3.35v3.45h-.98Z"/>
    <path d="m205.69,74.08l4.49-6.56v-.04h-4.1v-.88h5.46v.64l-4.46,6.54v.04h4.52v.88h-5.9v-.61Z"/>
    <path d="m214.18,72.15l-.84,2.54h-1.08l2.75-8.08h1.26l2.76,8.08h-1.12l-.86-2.54h-2.87Zm2.65-.82l-.79-2.33c-.18-.53-.3-1.01-.42-1.48h-.02c-.12.48-.25.97-.41,1.46l-.79,2.34h2.43Z"/>
    <path d="m228.41,74.43c-.38.19-1.15.38-2.13.38-2.28,0-3.99-1.44-3.99-4.09s1.72-4.25,4.22-4.25c1.01,0,1.64.22,1.92.36l-.25.85c-.4-.19-.96-.34-1.63-.34-1.89,0-3.15,1.21-3.15,3.33,0,1.98,1.14,3.25,3.11,3.25.64,0,1.28-.13,1.7-.34l.22.83Z"/>
    <path d="m230.77,66.61v4.79c0,1.81.8,2.58,1.88,2.58,1.2,0,1.97-.79,1.97-2.58v-4.79h1.06v4.71c0,2.48-1.31,3.5-3.06,3.5-1.65,0-2.9-.95-2.9-3.45v-4.76h1.06Z"/>
    <path d="m244.4,70.57c0,2.78-1.69,4.26-3.75,4.26s-3.63-1.65-3.63-4.1c0-2.57,1.6-4.25,3.75-4.25s3.63,1.69,3.63,4.09Zm-6.27.13c0,1.73.93,3.27,2.58,3.27s2.59-1.52,2.59-3.36c0-1.61-.84-3.29-2.58-3.29s-2.59,1.59-2.59,3.37Z"/>
    <path d="m245.75,66.72c.53-.11,1.28-.17,2-.17,1.12,0,1.83.2,2.34.66.41.36.64.91.64,1.54,0,1.07-.67,1.77-1.52,2.06v.04c.62.22,1,.79,1.19,1.63.26,1.13.46,1.91.62,2.22h-1.08c-.13-.23-.31-.92-.54-1.93-.24-1.12-.67-1.54-1.62-1.57h-.98v3.5h-1.04v-7.98Zm1.04,3.68h1.07c1.12,0,1.82-.61,1.82-1.54,0-1.04-.75-1.5-1.86-1.51-.5,0-.86.05-1.03.1v2.95Z"/>
    <path d="m256.4,70.9h-3.14v2.91h3.5v.88h-4.55v-8.08h4.37v.88h-3.32v2.55h3.14v.86Z"/>
  </g>
  <g>
    <path d="m227.18,248.32c-.49-.14-1.16.3-1.6.45-.68.23-1.34.54-2.02.76-1.63.54-3.64.83-5.36.81-.83-.01-1.68.06-2.51.03-1.47-.05-2.31-.73-3.52-1.45-2.21-1.31-4.37-2.55-6.19-4.4-2.67-2.7-4.6-5.43-5.43-9.18-.42-1.9-.05-4.12.24-5.98.28-1.84.57-3.61,1.38-5.32.87-1.85,1.9-3.54,3.32-5.05.93-.99,2.1-1.54,3.23-2.27.99-.64,2-1.46,3.08-1.92,3.3-1.42,7.16-2.02,10.72-1.71,1.7.15,3.16,1.22,4.76,1.74.77.25,1.64.17,2.32.63,1.08.74,2.01,2.07,2.94,3,1.41,1.4,3.19,2.98,3.6,4.92.46,2.16,1.93,4.09,1.98,6.33.11,4.22.3,9.02-2.43,12.55-1.33,1.72-2.7,3.42-4.63,4.45-1.41.75-3.37,2.67-5.09,2.42"/>
    <path d="m227.29,247.94c-.46-.1-.89.05-1.31.23s-.87.34-1.3.51c-.97.39-1.94.71-2.96.92s-2.01.32-3.02.34c-.52.01-1.04,0-1.56.02-.55.02-1.11.05-1.67,0-.9-.07-1.67-.51-2.43-.97-.85-.52-1.71-1.02-2.56-1.54s-1.72-1.09-2.52-1.71-1.52-1.3-2.22-2.03c-1.23-1.3-2.36-2.7-3.23-4.28-.42-.76-.78-1.56-1.07-2.38-.31-.9-.58-1.84-.66-2.78-.08-1.03,0-2.07.13-3.1s.28-2.04.46-3.05.41-2.06.78-3.05.84-1.88,1.36-2.76,1.06-1.67,1.69-2.42,1.39-1.41,2.27-1.95,1.7-1.05,2.53-1.62,1.72-1.09,2.7-1.46c1.93-.73,3.97-1.19,6.03-1.37,1.03-.09,2.06-.11,3.09-.05.47.02.94.06,1.41.17s.91.29,1.35.48c.89.4,1.76.89,2.71,1.16.46.13.93.16,1.39.26s.78.31,1.12.6c.73.63,1.33,1.39,1.97,2.1s1.3,1.3,1.94,1.96,1.23,1.37,1.65,2.19c.19.38.32.77.42,1.19.11.47.26.92.43,1.37.34.9.77,1.77,1.09,2.69.16.45.29.91.37,1.38.07.44.07.88.08,1.32.09,3.58.19,7.48-1.68,10.68-.47.8-1.07,1.53-1.66,2.25s-1.27,1.46-2.01,2.08c-.67.56-1.44.94-2.17,1.42s-1.39.98-2.14,1.4c-.64.36-1.35.67-2.11.58-.21-.03-.4.2-.4.4,0,.24.18.37.4.4.83.11,1.66-.22,2.38-.61.77-.42,1.48-.95,2.21-1.44.35-.23.71-.42,1.06-.63.43-.26.84-.55,1.23-.87.77-.63,1.45-1.36,2.08-2.13s1.27-1.53,1.77-2.37.85-1.69,1.12-2.59c.55-1.82.71-3.75.74-5.65.01-.94,0-1.89-.03-2.83-.01-.49-.02-.97-.09-1.45s-.2-.96-.35-1.42c-.32-.94-.76-1.84-1.11-2.76s-.48-1.86-.91-2.72c-.86-1.73-2.42-2.92-3.69-4.32-.66-.73-1.27-1.52-2.02-2.16-.37-.32-.76-.6-1.24-.75s-.96-.17-1.43-.27c-.97-.22-1.85-.75-2.75-1.14-.46-.2-.93-.39-1.42-.52s-1.01-.18-1.52-.21c-2.11-.13-4.25.05-6.32.5-1.04.22-2.06.52-3.06.89s-1.93.85-2.83,1.46-1.75,1.15-2.65,1.71-1.69,1.19-2.39,1.99c-1.36,1.58-2.48,3.43-3.25,5.37s-1.05,4.14-1.33,6.23c-.15,1.08-.26,2.16-.2,3.25.06,1.01.3,2,.61,2.96.58,1.75,1.46,3.39,2.56,4.87,1.17,1.57,2.53,3.06,4.06,4.28,1.65,1.31,3.48,2.32,5.26,3.42.79.49,1.59.97,2.52,1.13,1.1.18,2.26.04,3.37.04,2.1,0,4.23-.37,6.18-1.15.47-.19.95-.35,1.41-.54.32-.14.76-.42,1.12-.34.5.11.72-.66.21-.77h0Z"/>
  </g>
  <path d="m171.21,481.39c.38-.86.75-1.73,1.25-2.52s1.15-1.46,1.96-1.94l-.59-.24c.12.29.08.54-.06.86-.17.39-.44.75-.7,1.08-.53.66-1.2,1.28-1.59,2.04l.73.31c.41-1.07.74-2.16,1.17-3.23.23-.57.48-1.13.78-1.66.24-.43.52-.85.91-1.16l-.67-.39s-.06.14-.02.07c-.02.05-.05.09-.07.14-.06.1-.12.2-.18.29-.14.2-.28.38-.44.57-.38.47-.78.92-1.14,1.41-.62.84-1.21,1.96-.45,2.9.13.17.43.14.57,0,1.57-1.65,1.44-4.33,3.23-5.8l-.67-.39c-.12.76-.49,1.41-.81,2.09-.34.74-.58,1.52-.51,2.34.04.51.8.52.8,0,0-.62-.11-1.24-.11-1.86,0-.49.01-1.18.48-1.47l-.55-.14c.27.56.06,1.17-.15,1.72-.23.61-.49,1.21-.51,1.87-.01.48.63.51.79.11.36-.97.41-2.05.61-3.05.1-.51.22-1.03.43-1.5.08-.18.2-.41.31-.54.13-.16.28-.28.4-.33l-.51-.39c.05.51-.1.97-.27,1.44s-.35.98-.37,1.51h.8c0-.79.15-1.58.31-2.35.1-.45.21-.9.37-1.33.05-.14.11-.27.21-.43.01-.02.1-.13.03-.05.02-.02.04-.04.06-.06.06-.06.03,0,0,0,.01,0,.03-.02.04-.02-.06.02-.07.03-.03.02l-.49-.28c.16.78-.67,1.22-1.02,1.81-.24.41-.4.88-.56,1.33s-.29.95-.37,1.44c-.03.21.05.43.28.49.19.05.46-.06.49-.28.08-.52.22-1.02.39-1.52.14-.42.3-.88.56-1.24.24-.32.55-.57.76-.9.27-.41.31-.88.22-1.35-.04-.21-.3-.34-.49-.28-.37.11-.59.47-.74.81-.21.47-.35.97-.46,1.47-.2.88-.39,1.82-.38,2.73,0,.52.78.51.8,0,.04-1.03.75-1.9.64-2.96-.02-.23-.24-.5-.51-.39-1.07.44-1.43,1.66-1.65,2.7s-.27,2.25-.66,3.29l.79.11c.02-.68.37-1.31.58-1.94.23-.69.29-1.38-.04-2.05-.09-.19-.37-.25-.55-.14-1.33.83-.76,2.75-.76,4.02h.8c-.13-1.56,1.05-2.74,1.29-4.22.07-.4-.35-.65-.67-.39-.91.75-1.38,1.83-1.78,2.91-.37,1.01-.69,2.1-1.45,2.9h.57c-.21-.26-.17-.58-.02-.95.17-.42.49-.85.78-1.22.34-.42.7-.83,1.03-1.25.28-.36.57-.73.72-1.17s-.39-.62-.67-.39c-.92.73-1.41,2-1.84,3.05-.45,1.1-.79,2.24-1.22,3.35-.16.42.52.71.73.31.42-.8,1.14-1.44,1.69-2.16.5-.65,1.1-1.58.75-2.43-.09-.23-.34-.39-.59-.24-.88.53-1.6,1.25-2.17,2.11s-.93,1.74-1.33,2.64c-.09.2-.06.43.14.55.17.1.46.06.55-.14h0Z"/>
  <path d="m213.88,347.23c.88-1.12,1.01-2.56,1.72-3.76.35-.58.8-1.09,1.06-1.72.27-.67.17-1.38.23-2.08.07-.76.22-1.52.32-2.28.1-.8.24-1.6.38-2.4.26-1.6.41-3.21.59-4.82.16-1.42.35-2.89-.07-4.28-.18-.58-.45-1.14-.75-1.67-.15-.27-.23-.58-.4-.84s-.39-.45-.66-.58c-.63-.29-1.23-.63-1.86-.9-.69-.29-1.45-.4-2.19-.44s-1.52-.04-2.26.03-1.36.33-2.02.6c-.78.32-1.58.57-2.35.89s-1.45.71-2.13,1.12c-.34.2-.65.44-.94.71s-.63.5-.95.75c-.29.22-.54.46-.78.74-.19.22-.38.45-.68.51l.49.28c-.2-.66-.01-1.31.27-1.92s.6-1.21.94-1.8c.71-1.25,1.53-2.45,2.37-3.62.77-1.07,1.72-2.03,2.75-2.86s2.16-1.57,3.4-1.95c.6-.18,1.21-.27,1.84-.28.69-.02,1.38-.04,2.06-.01.63.02,1.27.12,1.84.4.65.33,1.27.73,1.87,1.16,1.14.81,2.21,1.72,3.1,2.79.83,1,1.62,2.1,2.19,3.27,1.15,2.36,1.35,5.06,1.39,7.64.02,1.47-.08,2.91-.35,4.35-.14.76-.31,1.52-.49,2.27-.16.68-.3,1.36-.56,2.01-.24.61-.55,1.19-.84,1.78-.3.62-.55,1.25-.83,1.88-.53,1.18-1.21,2.33-1.24,3.66-.01.54.03,1.08.26,1.58.28.61.71,1.17,1.12,1.69.2.26.43.51.62.79s.26.62.49.86c.16.17.42.24.56.42.09.12.08.16,0,.26-.23.31-.65.51-.99.69-.48.25-.93.57-1.42.78-.31.13-.65.22-.96.33-.24.08-.52.23-.78.22-.37-.02-.7-.38-.94-.64-.33-.36-.62-.76-1-1.07-.5-.41-.92-.89-1.37-1.36-.77-.81-1.91-1.39-2.45-2.39,0-.01-.15-.32-.15-.32,0,0,0,.07-.01.07-.05.08.04,0-.02.04.08-.04.17-.16.24-.22.12-.12.23-.24.33-.37.32-.39-.24-.96-.57-.57-.31.37-.89.7-.75,1.26s.59,1.09,1.01,1.49c.45.43.96.79,1.42,1.21.51.46.93,1.02,1.44,1.48.2.18.41.33.59.52s.36.41.54.61c.32.36.67.74,1.12.94.6.26,1.14.02,1.72-.18.33-.11.67-.21.99-.35.34-.16.65-.38.98-.56.68-.37,1.96-.84,1.88-1.81-.02-.24-.13-.46-.3-.63-.22-.23-.51-.3-.66-.6-.07-.15-.13-.3-.21-.44-.1-.16-.22-.3-.34-.44-.24-.3-.48-.61-.71-.93-.34-.48-.76-1.01-.85-1.61s-.02-1.27.16-1.86c.2-.65.51-1.25.8-1.86s.52-1.26.82-1.87c.31-.65.65-1.28.93-1.94.3-.7.48-1.42.65-2.16.37-1.57.72-3.15.86-4.76.12-1.42.07-2.87-.02-4.29-.09-1.4-.28-2.8-.69-4.14s-1.05-2.56-1.85-3.71c-.83-1.2-1.74-2.31-2.86-3.26-.59-.5-1.2-.97-1.84-1.41s-1.28-.86-1.98-1.15c-.63-.26-1.31-.35-1.99-.36-.71-.02-1.44,0-2.15.02s-1.38.13-2.04.35-1.31.56-1.91.92c-1.2.72-2.3,1.62-3.26,2.64-1.01,1.07-1.84,2.31-2.65,3.53-.42.64-.83,1.3-1.2,1.98-.35.64-.71,1.29-.97,1.97s-.35,1.36-.14,2.04c.07.22.27.33.49.28.59-.13.91-.62,1.31-1.03.23-.24.5-.43.77-.62.29-.21.55-.44.82-.68.49-.43,1.09-.7,1.65-1.03.62-.36,1.27-.63,1.94-.87s1.32-.5,1.98-.76c.31-.12.62-.22.95-.29.34-.06.69-.05,1.04-.06.72-.02,1.44-.04,2.16.06s1.33.36,1.97.7c.28.15.56.29.85.41.22.09.42.18.54.41.14.25.22.53.36.78.17.3.33.6.46.91.53,1.21.48,2.52.34,3.8-.15,1.5-.29,2.99-.51,4.48-.11.77-.26,1.54-.38,2.31s-.2,1.54-.32,2.31-.18,1.56-.2,2.37c-.02.71-.49,1.31-.88,1.86-.44.62-.71,1.3-.96,2.01s-.45,1.41-.91,1.99c-.13.17-.17.4,0,.57.14.14.43.17.57,0Z"/>
  <path d="m233.2,373.72c.23.4.45.81.8,1.11.4.34.91.57,1.43.66,1.19.2,2.18-.5,2.97-1.32.61-.63.94-1.41.98-2.29.02-.4-.04-.85-.26-1.18-.29-.44-.77-.61-1.28-.54-.54.08-1.1.3-1.58.55s-.94.58-1.29,1c-.69.84-.86,1.92-.28,2.88.46.75,1.31,1.15,2.16.79.43-.19.72-.51,1.02-.86s.62-.68.89-1.06c.57-.79.67-1.77.12-2.61-.27-.42-.62-.78-.92-1.17-.36-.46-.74-.91-1.15-1.32-.18-.18-.37-.36-.58-.5-.16-.11-.31-.19-.43-.36-.14-.21-.23-.45-.32-.69-.11-.27-.26-.52-.42-.76-.33-.5-.7-.98-1.04-1.49s-.67-1.04-1-1.56c-.69-1.06-1.43-2.09-2.16-3.12-.52-.74-1.13-1.62-2.06-1.86s-1.97.29-2.51,1.05-.65,1.7-.69,2.57c-.02.43-.02.87.07,1.29.11.49.43.89.73,1.28.68.87,1.42,1.69,2.04,2.61.31.46.55.96.82,1.44s.6.92.94,1.36.69.86.98,1.32c.32.5.61,1,1,1.44s.74.83,1.02,1.32c.26.45.95.04.69-.4s-.58-.86-.94-1.25-.62-.75-.88-1.18c-.51-.84-1.16-1.57-1.72-2.38s-.95-1.7-1.52-2.49-1.23-1.54-1.84-2.32c-.24-.31-.49-.62-.57-1.02-.07-.35-.04-.73-.03-1.09.03-.71.14-1.51.57-2.1.4-.55,1.23-.92,1.88-.58.74.4,1.21,1.24,1.68,1.91.63.9,1.27,1.8,1.87,2.72s1.19,1.81,1.81,2.7c.3.43.5.85.71,1.32.18.4.43.71.81.94s.69.6.98.93c.32.35.6.73.9,1.09.49.59,1.08,1.23.75,2.05-.14.35-.4.64-.64.92-.26.29-.5.62-.79.89-.45.43-1.05.47-1.45-.04-.57-.72-.39-1.6.21-2.23.34-.36.76-.62,1.21-.82.21-.09.42-.16.64-.23.19-.06.42-.15.63-.12.63.09.42,1.2.31,1.58-.22.78-.82,1.35-1.47,1.81-.39.27-.81.45-1.3.4-.41-.04-.87-.23-1.18-.5-.28-.25-.44-.58-.62-.9-.26-.45-.95-.04-.69.4Z"/>
  <path d="m223.58,363.18c0-.67-.1-1.33-.11-2-.01-.58-.04-1.41.41-1.85l-.33-.09c.38,1.02.18,2.32-.36,3.25l.37.1c.04-.83.02-1.66.02-2.5,0-.26-.4-.26-.4,0v3.76c0,.26.4.26.4,0,0-.74-.01-1.47.06-2.21.07-.68.19-1.48.69-1.98l-.31-.04c.24.51.21,1.14.18,1.69s-.1,1.15-.11,1.73h.4v-2.47c0-.26-.4-.26-.4,0v2.46c0,.26.4.26.4,0v-.3c0-.26-.4-.26-.4,0v.3c0,.26.4.26.4,0v-2.46c0-.26-.4-.26-.4,0v2.47c0,.26.4.26.4,0,0-.62.09-1.24.11-1.86.02-.59.01-1.21-.24-1.75-.06-.12-.23-.13-.31-.04-.54.54-.7,1.34-.79,2.07-.09.8-.07,1.6-.08,2.4h.4v-3.76h-.4c0,.83.02,1.66-.02,2.5-.01.2.28.27.37.1.59-1.01.82-2.44.4-3.55-.05-.14-.22-.2-.33-.09-.5.48-.53,1.31-.53,1.95,0,.73.11,1.45.11,2.18,0,.26.4.26.4,0h0Z"/>
  <path d="m155.62,500.1l-.3.39c-.13.16-.03.46.14.55.56.28,1.2,0,1.71-.26.68-.35,1.3-.8,1.9-1.26.5-.39.99-.79,1.48-1.2.25-.21.51-.43.76-.64.2-.17.41-.34.65-.46.29-.13.63-.14.95-.19.59-.08,1.03-.37,1.53-.66.18-.1.38-.22.59-.25.23-.03.37.11.51.28l-.12-.28c0,.08,0,.13-.05.25.02-.04-.03.07-.05.09-.04.06-.07.13-.12.18-.12.15-.34.34-.53.47-.52.37-1.11.64-1.71.88-.55.22-1.1.4-1.66.58-.78.26-1.54.55-2.32.81-1.02.34-2.09.62-3.17.55l.39.51c0-.06-.04.05-.04.06,0,.03-.05,0-.01.01.01,0,.05-.03.07-.04.07-.03.14-.06.24-.09.23-.07.46-.12.7-.17.54-.11,1.04-.3,1.52-.57.57-.32,1.11-.69,1.68-1.02.64-.37,1.3-.71,1.99-1.01.73-.32,1.5-.57,2.28-.68l-.49-.28c.01.07,0-.11,0-.05,0,.05-.02.05,0-.05-.03.11,0,0,0,.01-.01.03-.09.11,0,.01-.03.04-.07.07-.11.11-.02.02-.13.1-.03.03-.05.03-.09.07-.14.1-.11.07-.22.13-.34.19-.59.31-1.19.52-1.86.74-1.45.5-2.94.9-4.38,1.44-.5.19-1.11.38-1.44.83-.2.27.08.58.35.6.55.05,1.12-.08,1.65-.22.64-.18,1.26-.41,1.88-.67.49-.21.99-.43,1.46-.69.59-.33,1.09-.81,1.6-1.24s1.11-.94,1.8-.96l-.35-.6c-.33.63-.96.83-1.58,1.06-.83.3-1.59.74-2.37,1.17-1.63.91-3.42,1.45-5.15,2.12l.39.67c1.2-1.14,2.37-2.34,3.72-3.32.57-.41,1.18-.75,1.76-1.14s1.15-.78,1.74-1.15,1.18-.72,1.85-.81l-.45-.59c-.66.98-1.59,1.77-2.53,2.46s-1.95,1.3-3,1.83c-.51.26-1.05.45-1.56.68-.74.33-1.49.68-2.17,1.12-.58.37-1.37.93-1.23,1.72.03.15.23.31.39.29.45-.05.86-.19,1.28-.37.36-.15.74-.34,1.13-.39.21-.03.4-.16.4-.4,0-.19-.18-.43-.4-.4-.44.06-.84.2-1.25.37-.37.16-.76.34-1.16.38l.39.29c.02.13.01.03,0,0-.02-.08-.02.09,0,0,0-.03.01-.05.02-.08,0,.01-.04.08,0,.02.03-.05.06-.11.1-.16-.05.07.07-.08.1-.11.24-.25.47-.4.77-.59.68-.42,1.41-.76,2.14-1.09.49-.22.99-.4,1.47-.64,1.04-.53,2.05-1.14,3-1.83,1.06-.77,2.08-1.65,2.82-2.74.22-.32-.14-.63-.45-.59-.6.08-1.18.39-1.7.69-.63.36-1.22.78-1.82,1.18s-1.2.73-1.77,1.13c-.71.5-1.38,1.06-2.03,1.64-.71.65-1.4,1.32-2.1,1.98-.28.26,0,.82.39.67,1.82-.71,3.7-1.28,5.41-2.25.77-.43,1.53-.84,2.36-1.15.74-.27,1.42-.6,1.8-1.33.13-.26-.03-.61-.35-.6-1.38.04-2.34,1.27-3.37,2.03-.43.31-.91.54-1.39.75-.58.26-1.18.5-1.79.69s-1.21.37-1.83.31l.35.6c-.09.13-.02.02.01,0,.1-.07-.06.03.03-.02s.17-.11.26-.15c.11-.06.23-.11.34-.16-.07.03.11-.04.14-.06.07-.03.14-.06.22-.08.71-.27,1.43-.49,2.15-.72.79-.25,1.59-.5,2.38-.77.66-.23,1.33-.47,1.95-.81.45-.24,1.01-.63.89-1.22-.05-.23-.29-.31-.49-.28-1.52.22-2.96.92-4.28,1.67-.61.34-1.19.74-1.79,1.08-.49.28-.98.43-1.52.55-.42.09-1.29.22-1.37.76-.04.27.11.49.39.51,2.06.14,4.05-.84,5.97-1.47.73-.24,1.46-.5,2.16-.82.65-.3,1.33-.66,1.8-1.21.21-.24.39-.53.45-.85.05-.26.02-.43-.16-.64-.16-.18-.38-.33-.62-.39-.9-.23-1.5.58-2.28.82-.58.18-1.17.11-1.71.43-.46.27-.84.66-1.25.99-.35.29-.7.59-1.06.87-.61.49-1.23.96-1.89,1.36-.29.18-.6.35-.89.45-.07.02-.13.04-.2.06-.02,0-.05,0-.07.02-.02,0-.04,0-.07.01.05,0,.06,0,.03,0-.05,0-.11,0-.16,0,.16.02.02,0,.03,0-.02,0-.03,0-.05-.01.06.03.06.03.03.01l.14.55.3-.39c.13-.17.03-.45-.14-.55-.21-.12-.41-.03-.55.14h0Z"/>
  <path d="m233.62,509.54c.02-.1.04-.08.14-.12.15-.06.28-.12.4-.23.15-.13.24-.31.37-.47.1-.13.23-.25.35-.35.55-.48,1.15-.84,1.54-1.49l-.73-.1c.04.1,0,0,.01,0,0,0,0,.07,0,.07.04-.05.02-.05,0,0,0,.02-.05.14,0,.04-.06.15-.15.28-.24.41-.19.27-.52.6-.79.87s-.58.53-.88.78c-.1.09-.21.17-.31.25.1-.08-.02,0-.04.03-.04.04-.12.05.04,0h.21,0c.06.22.12.45.18.67.47-.54.94-1.08,1.39-1.64.41-.5.94-.87,1.32-1.4.11-.15.04-.35-.06-.48-.53-.65-1.39.05-1.82.45-.28.26-.55.54-.83.81-.06.06-.12.11-.18.16-.03.02-.18.14-.11.09-.05.03-.09.06-.14.09-.06.04.09-.02,0,0-.04,0,.12,0,.03,0l.35.6c.35-.72.75-1.46,1.3-2.04.46-.48,1.04-.91,1.02-1.64,0-.37-.42-.49-.68-.28-.57.45-.88,1.2-1.2,1.83-.4.79-.97,1.46-1.38,2.25-.15.29.04.57.35.6s.6-.24.78-.47c.25-.31.46-.64.66-.98.15-.24.29-.47.46-.69.11-.15.23-.29.36-.42.05-.05.11-.11.16-.14,0,0,.11-.06.06-.04.07-.03-.04,0,.04,0l-.4-.4c.05.55-.28,1.02-.49,1.5-.19.43-.33.9-.69,1.22l.63.48c.5-.79.99-1.78,1.82-2.27l-.59-.24s.03.11.01.03c0,.04,0,.08,0,.12,0,.08,0,.1-.02.2-.04.21-.11.41-.19.6-.07.17-.16.34-.26.49-.05.08-.07.11-.13.17-.03.03-.05.06-.08.08.05-.04,0,0-.02,0l.59.24c.02.11.02-.1,0-.02,0-.05.02-.09.04-.14.03-.11.09-.2.14-.3.13-.23.27-.46.42-.68.32-.48.61-.99,1.03-1.39l-.67-.39c-.19.58-.36,1.16-.56,1.73-.18.5-.49.92-.55,1.46l.6-.35h0c.06.08.12.16.18.24,0,0,0,.25.01.15,0-.04-.05.09,0,0,.04-.08.08-.16.12-.25.12-.22.24-.44.35-.67.12-.24.24-.48.35-.73.07-.16.15-.35.13-.53-.04-.51-.84-.51-.8,0,0,.08,0,.02,0,.01-.01.04-.02.08-.03.12-.05.14-.05.15-.11.28-.12.26-.25.51-.39.77-.18.34-.7,1.01-.22,1.32.28.18.57-.07.6-.35.03-.22.15-.43.25-.62.12-.23.22-.46.3-.7.19-.54.35-1.1.53-1.65.13-.39-.39-.65-.67-.39-.5.47-.84,1.08-1.22,1.64-.32.48-.73,1.06-.62,1.66.05.27.38.35.59.24.43-.22.67-.76.84-1.18s.37-.97.22-1.42c-.08-.24-.36-.37-.59-.24-.96.57-1.54,1.64-2.11,2.56-.25.4.3.78.63.48.43-.39.62-.93.84-1.45.26-.59.63-1.17.57-1.84-.02-.23-.17-.38-.4-.4-.4-.04-.75.32-.98.59-.21.25-.42.52-.6.79-.19.3-.36.6-.56.89-.09.13-.18.25-.29.37-.02.02-.14.14-.09.09-.08.07,0,0-.01.01h-.03c.07,0,.08,0,.03,0l.35.6c.39-.77.96-1.43,1.35-2.2.3-.59.57-1.3,1.1-1.72l-.68-.28c0,.26-.17.45-.34.63-.21.22-.44.42-.64.65-.5.61-.9,1.28-1.24,1.99-.14.28.03.58.35.6.28.02.54-.2.73-.37.26-.22.49-.47.74-.71s.49-.48.73-.64c.06-.04.12-.08.19-.11.1-.05-.07.02.02,0,.03,0,.06-.02.08-.02-.08.02-.02.02,0,0-.02.02-.09-.03,0,0-.04-.02-.05-.02-.05-.02-.03-.02-.03-.02,0,0,.01.01.03.03.04.04l-.06-.48c-.35.49-.87.83-1.24,1.3-.43.54-.89,1.05-1.34,1.58-.17.2-.15.62.18.67s.57-.22.79-.41c.34-.28.66-.57.98-.87.34-.33.67-.68.95-1.08.2-.29.42-.71.28-1.07-.12-.31-.54-.41-.73-.1-.38.64-1.05.97-1.57,1.47-.14.13-.25.28-.36.43-.07.11-.13.22-.25.27-.34.16-.61.27-.7.68-.11.5.66.72.77.21h0Z"/>
  <path d="m235.64,511.11l-.19-.04.28.28c-.16-.64.28-1.15.6-1.65.12-.19.25-.39.39-.58.08-.1.16-.19.26-.28-.02.02.07-.05.06-.04-.04.01-.03.01,0,0-.03,0-.06,0-.08,0l-.24-.59c-.68.94-1.02,2.11-1.85,2.94l.63.48c.28-.37.43-.81.6-1.24.17-.46.41-.85.7-1.24s.57-.75.76-1.19c.15-.37.24-.81.52-1.11l-.63-.48c-.39.8-.57,1.66-.79,2.52-.09.37-.2.73-.3,1.1-.09.34-.19.69-.41.97l.69.4c.34-.67.62-1.37.81-2.1.08-.3.13-.6.21-.9.06-.24.14-.51.36-.66.43-.29.03-.98-.4-.69-.59.4-.71,1.06-.86,1.7-.18.78-.45,1.52-.81,2.24-.24.47.38.8.69.4.22-.29.34-.64.44-.98.11-.37.21-.74.3-1.11.22-.84.36-1.71.75-2.49.19-.39-.3-.83-.63-.48s-.46.76-.62,1.19c-.17.45-.45.83-.73,1.21-.3.4-.56.81-.75,1.28-.18.44-.31.89-.6,1.27s.32.8.63.48c.88-.89,1.25-2.11,1.98-3.11.15-.21,0-.53-.24-.59-.69-.17-1.18.7-1.48,1.18-.47.74-.96,1.44-.73,2.36.03.13.15.25.28.28l.19.04c.5.1.72-.67.21-.77h0Z"/>
  <path d="m241.42,495.84c-.31-.77-.48-1.58-.53-2.41s0-1.59.01-2.39-.02-1.66-.15-2.49c-.13-.77-.29-1.54-.43-2.32-.16-.89-.25-1.78-.26-2.68,0-.51-.81-.52-.8,0,.02,1.61.36,3.15.64,4.73.15.84.22,1.68.21,2.54,0,.8-.06,1.59-.03,2.39.04.97.21,1.93.57,2.83.08.2.27.34.49.28.19-.05.36-.29.28-.49h0Z"/>
</svg>