<svg id="Layer_1" data-name="Layer 1" xmlns="http://www.w3.org/2000/svg" xmlns:xlink="http://www.w3.org/1999/xlink" viewBox="0 0 1080 1350"><defs><style>.cls-1,.cls-5{fill:none;}.cls-2{fill:#107a5e;}.cls-3{fill:#ffe91d;}.cls-3,.cls-4,.cls-5,.cls-7{stroke:#000;stroke-linecap:round;stroke-linejoin:round;stroke-width:3px;}.cls-6{clip-path:url(#clip-path);}.cls-7{fill:#165e44;}</style><clipPath id="clip-path"><rect class="cls-1" x="1280" width="1080" height="1350"/></clipPath></defs><rect class="cls-2" x="-41.87" y="-50.19" width="1163.64" height="1470.64"/><path class="cls-3" d="M144.45,1500.55c1.83-21.68,8.59-43.29,15.35-64,10.42-31.88,24-62.35,39.52-92,10.33-19.78,24.38-37.12,36.28-55.83,6.21-9.76,14.21-17.6,19.91-27.65,4.36-7.7,8.36-15.61,13.12-23.07a86.29,86.29,0,0,0,5.36-9.19,34.07,34.07,0,0,1,4.24-6.46q10.61-13.72,21.32-27.37c7-8.79,13.49-17.88,20.63-26.52,5.26-6.36,10.65-12.5,15-19.58a330.69,330.69,0,0,1,27-38c19.83-24.28,40.71-46.82,66.07-65.4,10.52-7.71,22.31-14.17,33.77-20.47,5.21-2.87,11.68-4.41,16.5-7.8s4.37-11.93,9.17-15.59c7.77-5.9,7.64,5.36,11.57,7.88,2.15,1.38,7.91.32,10.52.32h10.06a41.48,41.48,0,0,0,5.46,0c1.4-.18,2.35-1,3.37-1.23,4-1,8.17.07,12.26-1.07,2.51-.69,8.35-2.28,10.33-4.24,2.37-2.33,1.49-5.76,3.4-8.21,4.7-6,8.91,1.59,12.4,4.85,4.94,4.62,9.88,5,15.74,7.75,11,5.1,20.68,13.19,31,19.4,3.19,1.91,6.11,3.38,8.88,5.82,6.56,5.8,13.56,11.29,19.81,17.4,2.54,2.48,4.36,5.67,6.69,8.32,3.6,4.08,7.15,8.18,10.51,12.46,5.9,7.54,10.86,16.23,16,24.34,4.11,6.53,7.4,13.43,11.78,19.79,2.6,3.77,5.44,7.32,8.12,11,3.29,4.55,5.19,9.89,8.71,14.29,3.35,4.19,7.17,8.11,10.68,12.19,8.57,10,18,19.1,26.83,28.85,5.48,6.08,10.82,12,16.56,17.9s10.28,12.8,15.81,19c14.2,15.91,26.91,32.83,40.59,49.15,7,8.41,14.21,16.48,20.35,25.6s12.3,18.75,19.62,27.22c11.24,13,19.86,26,26.69,41.71,3.45,8,6.14,16.6,10.41,24.19,3.15,5.59,6.53,11,9.64,16.68,5.85,10.56,12.17,21.48,16,33,2.48,7.53,6,14.08,7.42,22,1.19,6.83,1.58,13.3,3.08,20a3.93,3.93,0,0,1-1.74-.7"/><path class="cls-4" d="M492.5,1492.81c.21-2.72-.85-2.48-1.2-4.46a37.64,37.64,0,0,1-.38-7.47c0-4.37-.12-8.49.79-12.76,3.32-15.42,4.92-31.23,6.87-46.85.89-7.2.11-14.67.87-22s1.07-14.68,1.91-22c1.62-14.13,3.26-28.48,3.61-42.72.19-7.93,1.53-15.58,1.46-23.5A171.09,171.09,0,0,1,509.1,1280a212.21,212.21,0,0,0,3.52-38v-35.6c0-5.43.47-10.9-.77-16.16-1.46-6.2-.32-12.5-.72-18.84-.16-2.66-1.38-4.85-1.68-7.47s.07-5.71.08-8.45c0-6.66,0-13.32,0-20,0-5.11-.21-9.78,5.42-12,4.58-1.77,9.8.1,14.57-.82s8.91-2,14-1.49c6.56.67,12.43,4.56,18.83,5.93a177.46,177.46,0,0,0,27.28,3.28,25.49,25.49,0,0,1,4,.32c4.7,1,5.32,4.37,8.19,7.58,3.73,4.15,2.33,9.89,2.33,15.43V1198c0,11.88-1.92,25.35.29,37.06.42,2.2,1.38,4.23,1.75,6.44,1.31,7.81.95,15.36,3.66,23,3,8.58,6.76,16.79,9.69,25.43s7.66,16.23,8.59,25.41c1.32,13,5.33,24.65,8.37,37.31,3.53,14.68,5.52,29.29,8.24,44.13,1.45,7.93,1.62,15.76,2.67,23.69,1.37,10.33,3.15,20.53,4.34,30.94,1.34,11.71,4.48,23.27,4,35.14-.29,6.48-.1,18.28-8.48,20-5.65,1.14-13.86-1.65-19.34-3-6.12-1.54-12-3.84-18.19-5.22-16.6-3.73-32.33,4.29-49,0-13.81-3.58-28.79-8.67-43.17-8.52-9.27.09-18.55,0-27.82,0-3.91,0-7.45,0-11.26-1.12-3.54-1-7.3-1.24-10.68-2.28.49-1,.93-1.78,1.47-2.79"/><path class="cls-3" d="M334.3,567.19c.61,3.84-3.24,7.36-4.6,10.62s-2,6.69-3.06,9.93-3.29,5.89-4.34,8.9c-1.15,3.32-.48,6.93-1.79,10.42a90,90,0,0,0-2.61,9.42c-2.39,9.37-7.34,18-10.24,27.33-2.59,8.33-3.66,17.19-6.43,25.38-2.5,7.38-4.92,14.61-7.41,22-1.9,5.63-3.76,13.15-4,19.11-.22,5.39-1.45,10.39-2.09,15.85,4.36-2.74,4.66-7.07,6.88-11.12,2.31-4.21,5.09-7.84,7.61-11.85,3.71-5.89,6.58-14.42,8.77-21,.82-2.47.7-3.89,1.87-6.29a28.36,28.36,0,0,0,1.74-3.68c1.34-3.91,1.48-7.79,3.24-11.56s2.16-6.84,3-10.76c1-4.59,3.73-6,5.85-9.87,1.52-2.73,1.85-6.28,2.8-9.24.45-1.4.76-2.79,1.26-4.17.83-2.27,2.37-3.68,3.23-5.75,1.14-2.74,1.3-6.27,2.21-9.19,1.1-3.54,2-7.13,2.87-10.77,2.2-8.86,13.83-33.22-3.25-35.23"/><path class="cls-3" d="M326.12,560.4c-1.43.9-2.73,1.88-3.66,2.59-5,3.79-8.8,8.54-12.71,13.43-4.26,5.33-6.35,11.64-11.89,16.14-4.47,3.63-9.05,7.22-12.82,11.6a31.22,31.22,0,0,0-4.73,7.09c-2,4.31-5,7-8.44,10.63-3.25,3.36-4.92,7.69-7.93,11.19-2.71,3.16-6.14,5.45-8.7,8.84s-4,6.44-7.08,9.46c-3.27,3.25-5.23,7.16-8.42,10.51-4.76,5-9.91,9.89-13.86,15.56-3.34,4.79-5.43,10.71-9,15.2,2.7.93,6.43-2.29,8.68-3.78,3.59-2.38,7.38-5.23,10.77-7.85,3-2.3,4.63-6.1,7.67-8.32s6.21-3,9.08-5.8c5.58-5.45,11.65-10.34,17.23-15.71,3-2.91,6.31-5.85,8.84-9.19,4.93-6.49,10.5-12,15.74-18.12,7.33-8.64,15.38-16.5,21.36-26,2.46-3.91,6.65-6.55,9.31-10.38,2.53-3.64,5.45-7.27,7.66-11.1,2-3.48,4.06-4.59,4.22-8.78.13-3.54.56-8.4-4-9.52C331.34,557.52,328.53,558.86,326.12,560.4Z"/><path class="cls-4" d="M419.59,391c-.64,5.28-10.25-.07-13.5-1.17-8.25-2.8-16.62-4.16-24.94-6.81-7.91-2.52-15.61-6.4-23.34-9.32-7-2.66-14-6.35-21.63-7.48a66,66,0,0,1-22.86-7.35A88.15,88.15,0,0,0,301.65,354c-3.6-1.22-7.1-3.26-10.63-4.47s-5.59-.72-9.22-2.81c-4-2.31-5.47-4-9.88-5.75-7.64-3-15.89-6.08-22.85-10.35-3.83-2.35-7.31-5.25-11.13-7.6-4.41-2.72-9-3.69-13.65-6-7.18-3.52-12.56-9.59-19.72-13.17-6.55-3.28-13.35-6-19.69-9.77-8.71-5.13-15.84-11.37-25-15.9-7.08-3.52-12.69-7.37-20.21-10.05-8.09-2.88-14.13-8.1-21-13.09-6.37-4.63-13.18-7.73-19.7-12.31-4.72-3.31-19.37-11.06-20.39-16.92,6.47-1.46,13.66,0,19.64,2.58,2.12.92,3.21,3.16,5.55,4.05s4.78-.13,7,.34c4.1.86,7,2.3,11.42,2.55,21.56,1.22,42.75,10.24,64.44,9.88,9-.15,16.74,2.52,25.88,2.47,10.31-.05,19.83-.17,29.79,1.93,8.6,1.8,18.25.55,27,.55a147.24,147.24,0,0,1,27.67,2.26c3.11.56,6.25.1,9.41.15,4.94.07,7.71,1.89,12.35,2.66,4,.65,8.33-.71,12.36-.26,5.52.62,9.46,2.61,15.21,2.6,4.35,0,7.47.2,11.5,1.79s8.32,2.21,12.42,3.7c8.2,3,16.15,5.51,24.58,8,3.56,1.07,6.41,3.06,9.76,4.45,4.8,2,9.94,1.39,14.46,4.13,4.06,2.47,6.35,5.15,10.93,6.93,5.25,2,8.59,3.36,13,6.77,6.94,5.36,14.26,10.47,21,15.9,4.19,3.37,6.54,8.55,9.93,12.62,4.69,5.61,3.47,6.84,5.13,13.61,1.83,7.46,4.08,16.54,2.14,24.53-2.89,11.91-13.88,14.83-23.68,18.65-4.67,1.82-8.69,1.79-13.29,3s-8.84,3.43-13.57,4.18c-5.47.87-10.68,1.09-16.08,2.13-4.9,1-9.84.51-14.84.55"/><path class="cls-3" d="M552.49,455.63q.54-.37,1.14-.72c9.27-5.23,20.68-9,30.57-13,8.67-3.55,14.91-9.94,22.43-15.14,5-3.48,10.43-6.24,15-10.52,9.07-8.42,17.75-16.95,26-26.11,9.72-10.81,18.4-23.09,28-33.42,8.64-9.28,17.51-22.93,23.63-34.24,5.81-10.74,12-22.14,15.87-33.56,2.62-7.63,6.48-14.42,9.42-21.9,2.28-5.79,3.51-11.91,6.25-17.58,5.18-10.71,7.43-23.51,11-35,3.09-9.94,4.45-19.55,8.13-29.41,7.5-20.07,15-39.35,24.55-58.89a392.19,392.19,0,0,0,16.76-38.86c2.8-7.79,5.67-15,9.12-22.6,2.47-5.42,7-13,6.13-19.16-4,1.75-9.36,9.34-13.09,12.56-4.6,4-8,8.81-12.22,13.22-6.85,7.19-13.33,14.76-20.42,21.74-5.44,5.37-10.63,12.27-16.37,17.11-7.89,6.67-18.5,9.74-25.83,17.29A162.13,162.13,0,0,1,703.38,141c-4.19,3.41-8.07,7.17-12.24,10.56-4.5,3.67-10.47,4.93-15.66,8.27-26,16.77-55.89,28-80,47.48-10.53,8.54-22.42,15.76-32.89,24.51-4.34,3.63-7.41,7.69-11.43,11.5-6.11,5.78-13.56,9.78-19.71,15.76-3.9,3.79-7.4,7.84-11.66,11.23-21.7,17.27-41.62,36.68-61.42,56-7.24,7.06-13.64,15.48-21,22.27-10.82,9.94-18.17,23.18-29.49,32.95-8.22,7.1-13.75,14.36-19.64,23.52-2.1,3.25-5.08,5.61-7.73,8.31C374,420,370.33,428.72,364.3,435.76c-4.91,5.75-10.62,11.32-15.3,17.59-10,13.42-19.4,27-25.95,42.15-4.08,9.42-6.63,14.73-5.73,25.7,2,24.62,13.84,57.2,43.24,50.49,6.53-1.48,12.9-.91,19.46-1.79,7.83-1.06,12.53-5.76,19-9.67,4.05-2.44,6.14-4.67,9.7-7.35,3.08-2.31,6.83-3.5,9.9-6,4.37-3.54,7.91-8,12.48-11.32,8.5-6.07,15.69-14.1,24.65-19.64,8.16-5,14.4-12.75,22.17-18.53,6.22-4.62,12.15-9,18.89-12,7.4-3.35,14.53-8.89,21.94-12.42,4-1.92,8.22-3.94,12.33-5.87,4.44-2.09,9.53-2.89,13.81-5.32C547.84,460.11,549.78,457.51,552.49,455.63Z"/><path class="cls-5" d="M392.21,526.17c-3.5-12.49-17.88,1.93-23.3,7-3.42,3.2-11.17,9.72-8.62,15.22C364.17,556.72,394.9,535.78,392.21,526.17Z"/><path class="cls-4" d="M703.9,445.69c2.43-8.63,6.35-16.74,9.33-25.18,1.23-3.5,2-6.8,3.92-9.92,1.77-2.95,2.63-4.34,1.18-7.67-.65-1.49-1.39-4.25-2.56-5.08-2.72-1.95-8,1.6-9.77,3.1a88.84,88.84,0,0,0-12,13c-2.62,3.39-3.66,8-4.93,12-5.06,15.72-8.59,32-15.31,47.12-4.66,10.49-8.67,21.22-13.47,31.65-2,4.32-4.71,8.33-6.63,12.64-1.55,3.47-2.22,6.91-4.06,10.31-3.25,6-5.46,11.74-10,16.86a80.11,80.11,0,0,0-13.82,22.68c-1.57,4-8.54,16.8,2,12.66,4.45-1.75,7.4-9.08,9.27-12.91,2.37-4.84,5.31-9.22,7.62-14.09,2.63-5.55,4.7-11,7.62-16.45,1.42-2.62,4-9.29,7.62-10,8.22-1.72,0,19.72-1.11,22.75a121.8,121.8,0,0,0-4.64,15.39c-.44,1.93-1.17,4-1.52,5.93-.61,3.27.19,6.57-.69,9.77-.7,2.57-3.16,6.84,1.88,6.16,1.74-.24,4.86-3.37,5.79-5,1.91-3.4,2.94-8.16,3.77-12,1.14-5.28,3.27-10,5.37-15,1.36-3.25,7-20.4,11.22-18.59,3.88,1.65.72,13.6.3,16-1.28,7.18-3.53,14.06-3.47,21.35,0,1.92-1.39,11.43.22,12.87,2.69,2.42,4.77-1.31,5.48-3.05C686,574.25,686,566,686,556.74c0-15.73,6.09-30.57,9.28-45.54.42-2-.13-4.16.26-6.21.51-2.73,1.22-4.75,1.18-7.66-.05-4.29,0-8.58,0-12.86,0-3-.18-6.08,0-9.08.16-3.38,1.2-5.73,2-9C700.32,459.41,702,452.59,703.9,445.69Z"/><path class="cls-4" d="M833.88,374.74c6.08,1.27,9.46,2.9,13.65,6.9a20.78,20.78,0,0,0,12.89,6.1c4.41.55,6.39,1.69,9.74,3.2,2.33,1.05,4.5.86,7,1.88,2.92,1.22,5.66,3.94,8.38,5.48a92.28,92.28,0,0,0,11.19,5.64,344.3,344.3,0,0,1,48.49,23.57c14.42,8.36,31.17,15.78,46.16,22.66a213.51,213.51,0,0,1,24.13,13.36c3.28,2.06,7,4.34,10.43,6.63,4.54,3,10.31,4.79,14.31,8.37-3.49,8.64-24.68,2.45-31.5,3-9.31.76-18.61-1.08-27.77-2.59s-17.92-.47-27.22-1.8c-10.09-1.44-20.16-2.93-30.26-4.31-4.15-.57-8.21-.84-12.16-2.25-4.3-1.54-7.91-3.62-12.76-3.7-7.88-.12-16,2.1-24.08,1.34-8.33-.77-16.72-2.47-25-3.65L795,456.8c-19.32-2.76-38.66-5.43-58-8.27-9.75-1.43-18.55-.29-28.26-1.73-10-1.49-20-2.86-30-4.28l-25.29-3.61c-10.81-1.56-20.7-5.43-31.44-6.8a51.54,51.54,0,0,1-13.34-3.69c-3.89-1.51-8.09-.83-11.91-2.1-7.94-2.63-16.13-6.38-23.94-9.27-8.72-3.23-16.67-7.66-24.82-11.92-3.19-1.68-8.9-3.88-10.77-6.91-2.08-3.37-.73-9.07.27-12.87,2.1-7.92,6.76-11.05,14.13-14.51,8.09-3.78,18-8.42,27.33-9,16.39-1,33-3.31,48.75-8.29,4.2-1.32,9-.62,13.47-1.64a151.25,151.25,0,0,1,16-2.7c3.91-.49,7.3-2.14,11.33-2.45,4.75-.38,9.39-.2,14-.51,7.53-.49,14.93-.19,22.31-1,4.26-.46,8.35.82,12.59,1.33,5.22.63,9.28-.8,14.4-.35,18.93,1.65,36.56,6.19,54.13,12.67,8.4,3.09,16.75,5.86,25.19,9.1,4.13,1.58,7.38,1.62,11.7,2.71C826.85,371.77,829.76,373.88,833.88,374.74Z"/><path class="cls-5" d="M375.72,542.15a3.75,3.75,0,0,0,2.91-4.44c-3.12-1.67-4.24,2.75-1.37,4,2.12-1,2.41-5.24-.65-4.16-2.23.78-.38,5.82,1.62,2.41l-1-.86"/><path class="cls-4" d="M317,503.34c4.24-12.42,20.93-10.21,31.09-10.21,3.25,0,6.5-.06,9.75,0,3.61.05,5.86-1.21,9.2-1.86,5.44-1.06,11.79-.1,17.36-.17,11.27-.14,21.94,6.3,31.68,10.46,4.48,1.91,8.53,4.55,13.26,5.87,4,1.14,8.13,1.66,12.07,3.16,2.82,1.08,5.46,2.54,8.36,3.4,10.5,3.13,21.59-.27,32.17,2.07,4,.88,6.59,1.66,10.83,1.58,1.88,0,4.15-.41,6-.1,6,1,11.92,3.71,18,4.31,2.38.23,4.24-.24,6.57.34,2.85.72,5.72,2.52,8.63,3.17,5.49,1.22,11.89.46,17.48.46h16.78c4.66,0,12-1.56,15.89,1.28-6.26-3.52-11.91-8-18-11.6-5.8-3.42-12.92-6-19.3-8.85-3.47-1.57-7.22-2.24-10.72-3.71-3.79-1.58-6.31-4.72-9.76-6.64-2.78-1.56-6.08-1.61-9.09-3.06-4.1-2-7.89-4.71-12.4-5.82-6.73-1.65-13.55-3-19.92-6.48A205.38,205.38,0,0,0,462,470.73c-7.24-2.93-11.81-9.87-19.4-13.11-3.17-1.35-6.07-3.69-9.07-4.94-3.85-1.6-8.48-1.4-12.52-3-6.22-2.46-13.22-1.49-19.85-3.52-6.24-1.91-10.94-2-17.6-2-6.87,0-9.36,1-15.5,4.08-2.68,1.33-5.22,3.47-8.05,4.24-3.12.85-7-.64-10.27-.26s-6.17,2-9.5,2.23c-3.08.2-5.9-.31-8.94.38-5.9,1.33-12.57,2.79-18.39,4.55-5.48,1.65-11.11,5.85-16.32,8.52-3.28,1.68-6.59,1.71-9.72,3.1-2,.88-3.51,3.73-5.1,4.88s-3.92,2-5.73,3.05c-6.66,3.95-13.7,7.2-20.32,11.12-2,1.17-4.14,3.79-6.28,4.87-1.16.59-2.75.23-3.93.74-3.28,1.41-6.42,2.84-9.76,4.15a108.45,108.45,0,0,0-19.85,10.48c-6.3,4.13-12.33,7.76-18.83,11.63,5.86.28,10.74-2.34,16.61-2.21s11.14-1.9,17.08-2.07c10-.28,20,0,30,0,9.82,0,21.68,1.78,31.28-.46,4.25-1,8.54-1,12.71-2,3.41-.87,11.45-1.72,12.26-5.67"/><path class="cls-5" d="M345.4,528.53c-1.26-5.35,6.09-11.08,10.13-13.1,2.13-1.07,2.05-1.5,4.71-1.82s4.85.42,7.34-.27c.31-6.14-8.31-3-11-1.17-4.36,2.87-7.94,6.66-7.56,12.08,2.05-5.26,9.24-11.61,15-12.46"/><path class="cls-3" d="M617,1097.13a73.18,73.18,0,0,0,2.36-7.12c.62-2.33.16-4.71.69-7,.12-.52,1.1-1,1.28-1.82.29-1.2-.07-3.46-.08-4.72,0-3.43.54-7.13-.33-10.49-.68-2.67-2.54-4.78-4-7.08a39.43,39.43,0,0,0-14.47-13.09c-7.88-4.31-14.92-9.48-22.22-14.69-4.36-3.11-9.6-4.22-14.17-6.92-3.52-2.07-7.26-6.08-11.68-3.91-2.91,1.44-4.17,4.21-6.12,6.57-2.36,2.84-5.8,5.5-8.5,7.81,1.65-4.26,9.37-8.56,8.91-13.34-5.35,3.49-11,7.11-17.17,9.39-2.13.78-4.27.57-6.42,1.12-2.35.6-4.67,2.06-7,2.84-4,1.33-8.41,2.87-12.63,3.34,5.48-3.48,10.65-8.3,16.31-11.34-3.56,1.6-6.46,5.23-10,7.18,2.45-3.11,9.35-9.94,7-14.53-2.8.91-6.24,7.15-8.66,9.61A86.4,86.4,0,0,1,498.8,1039c-3.69,2.66-7.21,3.39-11.55,4.72-3.4,1-5.7,2.93-8.84,4.45-6.76,3.28-10.23,8.07-10.44,15.78-.24,8.74-.69,16.2,2.81,24.38,4.93,11.51,15.25,20,20,31.51,2.86,6.93,11.19,11.36,16.63,16.23,3,2.69,6.14,3.33,9.72,4.94s5.64,4.45,8.85,6.3,6.81,1.92,10.07,3c3.88,1.31,8.42,3.1,12.5,3.55,9.8,1.08,16.19-.85,25.31-2.23a41.62,41.62,0,0,0,19-7.52c4.16-3.15,6-7.07,9.12-11.16a49.62,49.62,0,0,0,8.21-17.15C611.73,1109.49,614.62,1103.23,617,1097.13Z"/><path class="cls-5" d="M536.07,1062.49c-.8-2.69,2.76-5.67,3.91-7.76,1.26-2.29,2.95-4.75,4-7.26-1.3,2.69-3.29,5.34-4.83,7.92-1,1.72-2.84,6.12-4.14,7.16,2.17-5.51,7.22-9.66,9.78-15.1-4.13,4.11-6.23,9.52-8.93,14.57,1.65-3.56,4.69-5.18,5.8-9.21-1.48,2.1-2.3,4.71-4.06,6.58"/><path class="cls-5" d="M553.09,1042.36c.43,4.17,3.53,5,5.82,7.67,1.38,1.63,1.7,3.13,3.39,4.72s6,3,4.73,6.19"/><path class="cls-5" d="M505.11,1056.3a2.41,2.41,0,0,0,.35,2.55,24.2,24.2,0,0,1,2.83-3.33c-.29,0-.32-.21-.08-.77"/><path class="cls-5" d="M573.22,1048.56l.35-1c1.4,3.59,5.5,1.76,3.5-.58a1,1,0,0,0,.49-1.28c-2.06.12-1.28,2.73-1.25,4.4"/><path class="cls-5" d="M497.37,1047c-1-3,4.43-5,6.89-5.81,1.93-.62,14.25-4.58,11.56.9-3.57,1.17-5.75.09-9.08,1.81-3.15,1.63-5.45,1.47-9,1.58,3.82.33,5.06-2.18,8.27-3,2.43-.66,5.44,0,8-.11-3.49-.17-7.08,1.5-10.44,2.37-2.71.71-7.18,0-9.36,1.61,3.88-1,8.19-1.82,12.14-2.44,2.46-.39,5.62-1.92,8.06-1.51"/><path class="cls-5" d="M563.93,1040.82l.26-1.25c4.16-.66,9.09-5.09,13.28-3-1.75,1.59-10.8,2.15-12.84.85,4.27-2.71,11.14-2.58,16-2.82-6.37,2-12.39,1.62-19.06,1.62h11.63"/><path class="cls-5" d="M542.26,1082.61c6.08-5.54,14.8-9.58,23.09-7.51.54,4.32-8.41,5.75-11.47,6-4.41.31-8.42,2.21-12.7,2.8,1.24-1.48,2.91-1.58,4.18.3"/><path class="cls-5" d="M551.55,1095l.26-1.29c2.2-.25,5.1-2.17,7.05-1.91a66.29,66.29,0,0,0-8.39,3.28c2-.14,4.09.22,6.06,0,2.22-.24,4.71-2,6.62-1.35-3,1.89-7.61,3.32-11.17,2.81,3.16.42,4.56-.57,7.27-1.54s7.34-1.08,9.32-3.09"/><path class="cls-3" d="M457.12,1118.21c-3.52.69-6.95-2.34-9.25-4.57-3.68-3.57-7.71-7.16-10.86-11.21-5.79-7.44-11.2-15.48-13.94-24.53-1.41-4.67-3.36-8.89-4.64-13.37-1.79-6.19-3-12.42-4.26-18.8-.94-4.86-2.42-9.49-3.52-14.32-.69-3-2.49-7.33-1.28-10.41,4,3.75,6.84,10.24,9.93,14.65,3,4.24,5.06,8.69,8.28,12.95s5.47,9.5,8.61,13.93c3.44,4.87,7.4,8.85,10.55,14,4.63,7.56,10.05,15,13.94,23,1.57,3.23,1.28,7.39,1.12,10.92-.11,2.34.15,3.64-2.3,4.6-1.73.67-3.67.48-3.92-1.5"/><path class="cls-3" d="M641.33,1081.06l-1.29-.26c-.74-2.24-.27-5.12-.26-7.48a37,37,0,0,0-1.21-9.25c-1.7-7.31.9-15.32-.47-22.67-.72-3.86-1.45-6.59-1.42-10.63s-.75-7-1.41-10.91c-.49-2.83-1.65-17.54,1.8-18.51,2.44,5.16,5.85,10.61,7.39,15.82.87,3,2.15,6.39,2.75,9.41.51,2.61,0,5.09.65,7.71a27.41,27.41,0,0,1,1.2,7.74c0,2.39-.48,5.41-.07,7.73,1,5.45,4.54,9.35,6.34,14.45,1.92,5.44,1.45,10.85,1.47,16.51s-.35,9-6.11,11.21c-6.22,2.4-9.23,2.24-9.36-4.6-.05-2.65.33-5.28-.35-7.85-.62-2.38-1.26-3.55-1.2-6.16"/><path class="cls-5" d="M644.42,1076.42a4,4,0,0,0,1.55,2.47c2.76-2,1.56-6.51,1.55-9.41a49.79,49.79,0,0,1,.13-7.82c.34-2.22,1.4-4.23,1.45-6.47-.22,8,0,15.93,0,23.88v-27c0,4.39-.05,8.77,0,13.15,0,4-2,8.22-1.58,12,.38-11.51,0-23.09,0-34.61,0,5.17,0,10.33,0,15.49.06,4.41-2.3,8.91-1.58,13.15v-1"/><path class="cls-5" d="M446.29,1098.09l-.35,1a28.36,28.36,0,0,1-4.6-7.37c-1.56-3.94-3.92-12.77-8.51-14.53,2.43,5.34,6.74,9.8,8.68,15.32,1.2,3.41,4.08,7.82,4.61,11.35-4.18-2.48-7.17-8.73-9.31-12.89-2.43-4.73-5.08-9.64-7.85-14.2,1.4,2.4,3.56,4.2,5,6.6,1.65,2.77,2.68,5.6,4.58,8.24,1.5,2.07,2.89,4,4.26,6.14,1.28,2,1.4,3.7,4.18,4.52-.82-2.56-4.78-4.91-6.54-6.84a49.81,49.81,0,0,1-5.76-8.33c-1.79-3-3.76-6-5.41-9.06-1-1.88-4.8-6.8-4.53-8.93,4.42,2.5,7.29,10,9.17,14.59,1.42,3.48,2.56,6.76,4.67,9.9,1.28,1.91,3,2.73,3.29,5.41a75.68,75.68,0,0,0-5.64-12.47c-2.42-4.21-2.76-10.25-7-13.2"/><path class="cls-3" d="M505.11,1133.69c2.26,2.5,3.33,5.85,5.53,8.46,6.84,8.08,13.12,13,17.73,22.43,2.27,4.67,3.51,10.67,4.79,15.62,1.14,4.41,2.78,9.42,3,13.89.26,6.19-.06,12.47-.06,18.66v16.19c0,5.76-.94,12.19.34,17.78,2.69,11.74-.09,24.2,1.34,36.21.94,7.91,1.18,15.24,1.36,23.22.07,3.54,1,6.56,1.47,10,.85,6.17.13,12.82.13,19q0,13.62,0,27.23c0,9,.63,18.12-1.17,26.9-.94,4.58-.89,9.26-1.92,13.87-.87,3.9-1.65,7.11-1.58,11.09.17,9.43.47,19.09,0,28.51-.78,14.13-7.13,30.13-15.37,41.1-3.83,5.11-10.24,6.16-16.24,6.22-6.35.07-14.64.79-20.74-.66-5.76-1.37-11-4.58-16.79-6.07-9-2.33-20.35-1.42-28.3-1.42"/><path class="cls-3" d="M667.51,1494.4c-6.08-.06-10,0-15.29-3.41-3.69-2.35-5.87-5.21-9-8.11-1.25-1.16-3.26-1.43-4.25-2.37-1.23-1.17-2.11-3.49-3.14-4.81-3.29-4.25-3.78-8.73-4.91-14.3-2.45-12.21-2.61-25.09-5.06-37.26-4-20.06-4.24-40.62-8.14-60.64a216.26,216.26,0,0,1-3.07-27.28c-.58-8.86-4-17-4.95-25.73-1-9.13-2.54-18.34-4.32-27.34-.54-2.71-.54-5.13-.88-7.87-.6-4.75-2.9-8.93-3.35-13.79-.68-7.38-4.1-13.42-5.26-20.53-.53-3.23-2.06-5.85-2.86-8.73-.6-2.16-.12-4.32-.71-6.49-2.34-8.77-4.8-19.53-4.72-28.84.08-8.48-.09-17,0-25.45.07-6,2.82-11.46,5-17,2.81-7.21,5-13.12,8.94-20.1,1.19-2.1,4.59-7,4.24-9.43l0,1"/><path class="cls-5" d="M438.55,1203.35c-2.92,2.38-3.81,10.46-4.7,13.52-1.07,3.63-1.9,7.31-2.77,11-4.09,17.14-9.18,33.64-12.39,51-2.27,12.3-3.81,24.7-7,36.83-2,7.84-4.49,15.62-6.66,23.4a56.65,56.65,0,0,0-2.1,12.22c-.31,4.56-2.11,8.13-2.8,12.66-1.76,11.58-4.23,22.94-6.11,34.53-1,6.14-3.15,11.66-4.26,17.72s-1.71,12.5-3.09,18.57c-1.27,5.65-2,11.39-3.48,17C382,1456.66,380,1462,379.65,1467c-.5,7-1.06,14.24-4.64,20.68l.08-1.05"/><path class="cls-5" d="M674.3,1202c2.38,5.9,4,12.15,6.76,17.83a115.25,115.25,0,0,1,6.84,16c4.24,13.45,11.34,25.75,16.62,38.89,12,30,20.79,60.57,28.47,91.84,1.63,6.63,2.12,13.48,3.78,20.16,2,8.17,2.38,16.57,3.62,24.86,2.08,14,6.44,28.29,7,42.37.2,5.63,2.49,11.14,3.3,16.71.6,4.24.49,8,1.43,12.24,1.78,8.12,3.83,16.08,3.81,24.49v-1.16"/><path class="cls-5" d="M555,995.6c11.42-13,23.42-25,38.42-35,3-1,7-1,11-3,10-4,21-7,32-11,15-7,30-14,39.6-28.49"/><path class="cls-5" d="M357.57,938.05c2.37,3.53,4.45,7.1,7.56,10.07a63.1,63.1,0,0,0,11.76,8.41c9.29,5.45,19.79,7.55,30,10.54,10.76,3.14,20.89,7.08,32,9.29,5.44,1.1,10.83,2.36,16.25,3.53s11.1,1.11,16.54,2.32c7,1.56,19.12,7.92,19,16.45"/><rect class="cls-1" width="1080" height="1350"/><path class="cls-5" d="M512.83,1053.82c-4.46,0-12.31-1.81-16.08,1.31-1.61,1.33-3.46,5.63-1.82,7.64s4.93,1,7.5,1c4.32,0,11,1.28,15-.29,2.87-1.13,4.76-2.83,2.76-5.83-1.7-2.54-6.48-1.82-9-2.18l-.35-1.66"/><path class="cls-5" d="M578.62,1047.84c-3.3.06-11.09-1.06-11.85,4-1.08,7.21,9.93,2.92,12.84,2.18,3.78-1,8.64,0,9.18-5.12.64-6.05-9.1-7.07-12.16-3"/><g class="cls-6"><path class="cls-7" d="M1063.29,696.65a160.06,160.06,0,0,1,33.17-15.15,281,281,0,0,0,46.55-21c30.61-17.21,58.81-38.37,90.85-52.63,16.19-7.21,34.41-13.44,49.66-22.42,11.72-6.9,24-11,36.12-17.16,7.12-3.64,15.16-10.82,22.74-12.91,10.19-2.82,12,11.68,15.33,19.56,1.56,3.68,7.18,10.07,7.92,13.49,1.59,7.34-9.6,8.91-14.81,11.42-13.85,6.68-26.31,15.12-39.74,22.29-10.93,5.84-20.74,13.32-31.71,19.11-8.44,4.45-17.55,7.7-25.85,12.25-15.25,8.34-31.16,16.37-45.66,25.77-10.6,6.88-21.75,11.64-32.24,18.78-9.39,6.4-18.3,14.66-28.22,19.9-12.63,6.68-26.42,11.31-39.81,16-5.69,2-10.87,5.57-16.35,8-4.78,2.13-11.57,6.73-16.75,7C1073,744.17,1078,737,1079,732.15a119.47,119.47,0,0,0,2.44-13.93c.56-7.11-.7-14.18-.23-21.27.36-5.27,1.16-10.43,1.47-15.66"/></g></svg>