<?xml version="1.0" encoding="utf-8"?>
<!-- Generator: Adobe Illustrator 28.1.0, SVG Export Plug-In . SVG Version: 6.00 Build 0)  -->
<svg version="1.1" id="Layer_1" xmlns="http://www.w3.org/2000/svg" xmlns:xlink="http://www.w3.org/1999/xlink" x="0px" y="0px"
	 viewBox="0 0 655 655" style="enable-background:new 0 0 655 655;" xml:space="preserve">
<style type="text/css">
	.st0{fill:none;stroke:#FFFFFF;stroke-width:55;stroke-linejoin:round;stroke-miterlimit:133.3333;}
</style>
<path class="st0" d="M456.1,327.5c0,71-57.6,128.6-128.6,128.6c-71,0-128.6-57.6-128.6-128.6c0-71,57.6-128.6,128.6-128.6
	C398.5,198.9,456.1,256.5,456.1,327.5z M456.1,327.5v42.9c0,47.3,38.4,85.7,85.7,85.7c30.4,0,57.1-15.8,72.3-39.7
	c8.5-13.3,13.4-29.1,13.4-46v-42.9c0-165.7-134.3-300-300-300c-165.7,0-300,134.3-300,300c0,165.7,134.3,300,300,300
	c63.7,0,122.8-19.9,171.4-53.8"/>
</svg>
