<?xml version="1.0" encoding="utf-8"?>
<!-- Generator: Adobe Illustrator 28.1.0, SVG Export Plug-In . SVG Version: 6.00 Build 0)  -->
<svg version="1.1" id="Layer_1" xmlns="http://www.w3.org/2000/svg" xmlns:xlink="http://www.w3.org/1999/xlink" x="0px" y="0px"
	 viewBox="0 0 744.9 750" style="enable-background:new 0 0 744.9 750;" xml:space="preserve">
<style type="text/css">
	.st0{fill:#FFFFFF;}
</style>
<path class="st0" d="M541.5,449.5c-9.5-4.5-55-27-63.5-30.5c-8.5-3.5-14.5-4.5-21,5s-24,30-29.5,36.5s-10.5,7-20,0
	c-27.3-11-52.5-26.5-74.5-46c-19.9-18.8-36.8-40.5-50-64.5c-5.5-9,0-14,4-19c4-5,9-10.5,14-16c3.7-4.8,6.7-10,9-15.5
	c2.5-5.2,2.5-11.3,0-16.5c0-4.5-21-50-29-68.5s-15-16-20.5-16h-20c-9.5,0.4-18.5,4.5-25,11.5c-21.1,20.2-32.9,48.3-32.5,77.5
	c2.6,35.5,15.6,69.4,37.5,97.5c40.2,59.7,95.1,107.9,159.5,140c22,9.5,39,15,52.5,19.5c19,5.7,39,6.9,58.5,3.5
	c26.2-5.3,49-21.2,63-44c5.8-13.9,7.7-29.1,5.5-44C557,456.5,551,454,541.5,449.5z"/>
<path class="st0" d="M635,109C565.1,38.5,469.8-0.8,370.5,0C165.1,1.1-0.6,168.5,0.5,374C0.8,438.4,17.9,501.7,50,557.5L0,750
	l197-50c54.5,29.6,115.5,45.1,177.5,45h-4c205.4,1.3,373.1-164.1,374.4-369.6C745.6,275.5,706,179.4,635,109L635,109z M370.3,686
	c-56.3,0-111.5-15.3-159.8-44.2l-9.2-5.4L77.9,668.5l32.7-120.3l-5.9-9.7c-44.2-71.2-58.1-155.4-39-237.1
	c19.1-81.7,68.9-151,140.1-195.3C255.6,75.3,312.9,59,371.4,59c40.7,0,80.5,7.7,118.1,23c38.6,15.6,73.3,38.5,103,68
	c29.5,29.2,52.4,63.5,68.3,101.8s23.8,78.8,23.7,120.3c-0.1,83.8-32.8,162.6-92.1,221.9s-138.1,92-221.9,92.1H370.3z"/>
</svg>
