<svg xmlns="http://www.w3.org/2000/svg" viewBox="0 0 1125 1458" xmlns:v="https://vecta.io/nano"><path d="M0 0h1125v1458H0z" fill="#fff"/><path d="M313.54 1151.33c-2.11 2.43-3.06 5.56-5 8.06-2.12 2.74-3.68 5.33-5.39 8.37-2.1 3.73-4.62 7.29-7.19 10.7-2.79 3.7-5.19 7.32-8.31 10.73-3.31 3.6-4.68 8.61-7.28 12.68-.86 1.35-1.95 2.65-2.53 4.16-.8 2.09-.99 4.32-1.85 6.48-1.36 3.44-1.97 7.02-2.89 10.61-1.1 4.32-2.55 8.64-3.54 12.98-.79 3.46-.23 7.54-.23 11.07 0 3.27-.68 6.97.93 9.85 2.28 4.07 5.81 6.53 8.56 10.05 3.06 3.92 7.69 7.19 12.15 9.31 4.1 1.96 8.59 2.67 13.05 3.39 4.51.73 8.92 1.88 13.4 2.91 7.73 1.78 15.59 2.23 23.64 2.23h10.58c2.19.01 4.48.25 6.64-.2 2.42-.51 4.5-1.66 7.03-1.83 8.46-.58 18.42-3.49 25.26-8.56 4.2-3.11 6.85-6.91 10.41-10.63 3.09-3.23 4.41-7.09 6.2-11.19 1.34-3.07 2.16-6.08 3.4-9.22 1.56-3.97 1.39-7.39 1.38-11.6 0-3.31.21-6.21-1.23-9.29-1.71-3.65-3.2-7.43-5.32-10.81-1.91-3.05-3.28-6.77-4.87-10.03-.8-1.64-1.84-3.12-2.66-4.72-1.22-2.38-1.66-5-2.96-7.38a82.35 82.35 0 0 0-7.28-11.02c-1.38-1.76-3.09-3.14-4.35-5-1.29-1.9-2.09-4.01-3.34-5.94-4.7-7.26-9.09-14.51-12.98-22.29-1.78-3.56-3.88-7.26-4.97-11.11-1.28-4.55-2.66-8.64-5.22-12.67-2.29-3.59-5.9-8.1-10.15-9.06s-7.34.24-11.1 1.61c-1.51.55-3.24.65-4.69 1.4-1.74.9-2.86 2.49-4.24 3.84-3.37 3.28-7.67 5.5-10.2 9.71-2.61 4.35-3.13 9.59-4.33 14.44-1.44 5.8-1.54 11.02-1.53 17.01"/><path d="M294.18 930.72c0 11.55.85 23.28.34 34.82-.12 2.82-.74 5.3-2.15 7.76-1.62 2.84-4.06 6.63-7.01 8.17-3.33 1.74-7.03 1.7-10.56 2.45-1.5.32-2.38 1.11-4.43 1.06-1.3-.03-2.87-.29-4.12-.07-1.51.27-2.63 1.25-4.13 1.52-1.67.29-3.79-.07-5.5-.07h-8.25c-3.58-.01-5.25.26-8.22 1.42-2.42.94-4.89.84-7.49 1.45-1.85.43-4.06 2.16-5.97 2.97-2.5 1.06-4.84 1.64-7.26 3.41-5.59 4.11-11.15 12.29-12.41 19.64-.23 1.35.46 2.87.14 4.2-.29 1.25-1.22 1.36-1.52 2.61s.06 2.91.07 4.2v17.89c0 12.89-.21 23.87 3.79 36.08 4.01 12.25 17.74 17.18 27.85 23.38 4.75 2.91 9.87 5.36 14.08 9.07 5.02 4.43 7.1 10.43 9.89 16.32 5.06 10.68 16.7 19.89 26.65 25.5 4.25 2.4 9.2 3.75 13.74 5.44s8.76 2.39 13.17 4.08c4.76 1.82 9.12 3.56 14.06 4.74s9.73 1.01 14.81 1.01c4.34 0 9.16.62 13.43-.22 3.98-.79 8.09-1 11.94-2.51 3.43-1.35 6.68-3.12 10.06-4.53 4.1-1.71 6.98-5.25 10.86-7.24.92-.47 2.51-.73 3.32-1.23 2.04-1.27 2.44-3.23 3.88-5.01 1.57-1.93 2.92-3.2 3.52-5.81.61-2.65 1.58-5.56 1.71-8.25.14-2.82-.38-3.96 1.33-6.2 5.89-7.71 16.32-12.31 24.4-16.88 4.69-2.66 8.88-5.41 13.34-8.59 2.34-1.67 3.75-2.45 4.98-4.49.93-1.54 1.94-3.73 2.39-5.48.6-2.3.91-4.33 1.65-6.47.9-2.61 2.1-4.44 2.79-6.92.64-2.28 1.53-4.6 2.06-6.88s1.61-5.05 2.1-7.58 1.22-4.34 1.35-6.85c.25-4.78.34-9.73.03-14.51-.4-5.95-2.58-11.73-2.83-17.83-.12-2.85-.5-5.65-1.3-8.33-.67-2.25-2.36-4.45-2.87-6.73-.65-2.91-.04-3.7-2.34-5.92-4.09-3.96-7.03-6.14-12.42-8.26-.86-.34-2.04-.96-3.03-1.37-1.81-.75-3.2-.52-4.9-1-1.25-.36-2.08-1.18-3.32-1.48-1.3-.32-2.9.25-4.23.1-1.35-.15-2.1-.91-3.03-1.1-1.48-.31-3.13.09-4.56-.25-2.51-.6-4.83-1.87-7.51-2.5-5.42-1.29-10.98-2.69-16.51-4.73-3.16-1.17-5.98-2.47-9.26-3.44-5.88-1.75-11.89-4.55-17.32-7.33" fill="#fff"/><path d="M292.3 930.72c0 6.89.3 13.77.43 20.66.07 3.4.1 6.8.03 10.2-.06 3.06-.01 6.18-1.18 9.07-.95 2.36-2.52 4.74-4.18 6.65-1.95 2.25-4.22 3.29-7.12 3.84-2.6.5-5.22.63-7.72 1.54s-5.37-.22-7.99.78c-1.17.45-2.19 1.14-3.48 1.2-1.5.07-3-.15-4.49-.17-3.31-.05-6.66-.1-9.96.02-2.47.09-4.69.63-7 1.46-2.9 1.04-6.12.74-8.94 1.98-1.25.55-2.38 1.28-3.57 1.94s-2.54 1.13-3.84 1.64c-2.69 1.05-5.02 2.44-7.17 4.39-4.18 3.78-7.44 8.69-9.5 13.91-.49 1.23-.9 2.5-1.19 3.8-.15.66-.31 1.35-.34 2.04-.03.86.2 1.7.25 2.55.07 1.16-.63 1.44-1.15 2.42-.67 1.26-.57 2.73-.46 4.11.27 3.3.12 6.66.12 9.97l-.02 9.92c0 12.3-.23 25.22 4.15 36.92 3.47 9.3 12.16 14.6 20.45 19.17 4.48 2.47 8.88 5.06 13.31 7.62 5.12 2.96 9.86 6.13 12.96 11.31 2.81 4.71 4.44 10.03 7.46 14.63 3.06 4.65 6.95 8.73 11.19 12.32 4.15 3.51 8.64 6.65 13.36 9.34 2.72 1.55 5.64 2.69 8.59 3.73s5.79 2.12 8.73 3.02c3.29 1.01 6.65 1.76 9.88 2.95 2.91 1.07 5.79 2.24 8.73 3.23 3.14 1.05 6.33 1.94 9.62 2.36 3.16.4 6.35.41 9.53.4 3.21-.01 6.4.19 9.61.21s6.16-.54 9.27-1.02 6.37-.97 9.39-2.18c3.05-1.23 5.96-2.75 8.96-4.07 2.65-1.17 4.87-2.62 7.15-4.4 1.02-.8 2.03-1.6 3.11-2.31 1.2-.79 2.34-1.17 3.67-1.64 2.67-.95 3.79-3.07 5.23-5.32 1.42-2.22 3.34-3.84 4.18-6.43.89-2.76 1.63-5.79 1.93-8.68.12-1.2.05-2.4.1-3.61.05-1.07.55-1.89 1.21-2.72 3.33-4.16 7.86-7.2 12.41-9.86 4.74-2.77 9.68-5.19 14.38-8.03 2.71-1.64 5.35-3.38 7.95-5.18 2.16-1.5 4.71-2.94 6.48-4.91s3.05-4.77 3.8-7.34c.82-2.81 1.2-5.69 2.36-8.4.54-1.26 1.15-2.49 1.65-3.77.6-1.55 1.01-3.19 1.52-4.78.92-2.87 1.7-5.79 2.53-8.69s1.66-6 1.98-9c.34-3.17.32-6.44.3-9.63s-.16-6.65-.7-9.94c-.51-3.13-1.31-6.2-1.84-9.32-.54-3.17-.49-6.39-1.02-9.56-.25-1.49-.56-3.01-1.11-4.43s-1.35-2.78-1.99-4.2c-.91-2.02-.65-4.36-1.68-6.31-1.17-2.2-3.57-4-5.48-5.53-1.89-1.52-3.9-2.84-6.08-3.9-1.2-.58-2.44-1.06-3.66-1.59-1.47-.65-2.87-1.46-4.47-1.75-1.32-.24-2.67-.21-3.9-.8-1.29-.62-2.37-1.3-3.86-1.36-1.22-.04-2.55.47-3.74.11-1.28-.38-2.21-1.03-3.6-1.12s-2.7.1-4.07-.3-2.73-.99-4.1-1.48c-3.05-1.11-6.29-1.67-9.42-2.51-3.19-.85-6.35-1.8-9.45-2.94-3.02-1.11-5.95-2.43-9.02-3.39-6.02-1.89-11.72-4.41-17.34-7.28-2.14-1.1-4.04 2.14-1.89 3.24 5.74 2.93 11.6 5.62 17.77 7.52 3 .93 5.87 2.17 8.81 3.28 3.02 1.14 6.1 2.09 9.21 2.94 3 .82 6.1 1.4 9.07 2.32 2.76.86 5.37 2.33 8.32 2.35 1.21 0 2.23-.11 3.34.42 1.22.58 2.4.88 3.76.78s2.4-.38 3.63.27c1.39.73 2.65 1.2 4.21 1.4 2.77.35 5.3 1.64 7.82 2.8 2.13.98 4.18 2.18 6.02 3.65.93.74 1.83 1.54 2.7 2.36.74.7 1.78 1.47 2.21 2.42.35.78.35 1.75.49 2.59.23 1.39.68 2.65 1.28 3.92s1.37 2.52 1.8 3.89c.46 1.47.77 3 .97 4.53.42 3.2.46 6.39 1.05 9.58.58 3.11 1.38 6.18 1.82 9.31s.45 6.34.43 9.49c-.02 3.08.12 6.37-.52 9.39-.6 2.85-1.29 5.71-2.15 8.5l-2.6 8.81c-.42 1.35-.79 2.68-1.37 3.97-.61 1.36-1.25 2.7-1.75 4.11-1.72 4.85-1.73 10.82-6.27 14.14-4.91 3.59-10.01 6.98-15.3 9.98-4.5 2.55-9.14 4.83-13.52 7.58-4.39 2.75-9.2 6.14-11.99 10.62-1.28 2.06-1.01 4.21-1.14 6.51-.08 1.38-.39 2.74-.72 4.08-.37 1.48-.67 3.01-1.14 4.45-.75 2.28-2.77 3.86-4 5.86-.61.99-1.1 2.16-2.05 2.88s-2.26.8-3.31 1.28c-2.44 1.11-4.47 2.98-6.58 4.59-2.38 1.81-4.95 2.9-7.63 4.15-2.88 1.34-5.73 2.87-8.8 3.72s-6.16 1.11-9.23 1.68c-2.96.55-5.93.49-8.93.37-3.1-.12-6.2-.1-9.3-.13-3.19-.03-6.36-.21-9.47-.94-3.07-.72-6.08-1.74-9.04-2.83-3.08-1.14-6.11-2.39-9.26-3.3-3.13-.91-6.28-1.71-9.34-2.83-2.81-1.03-5.67-1.92-8.46-3.02-2.57-1.01-4.96-2.34-7.31-3.79-8.97-5.52-17.95-12.86-22.75-22.44-2.45-4.88-4.26-10.02-7.68-14.35-3.68-4.66-9.01-7.57-14.07-10.48l-12.73-7.26c-3.97-2.22-7.95-4.57-11.3-7.69-1.61-1.49-3.05-3.14-4.21-5.01-1.34-2.17-2.13-4.5-2.82-6.94-1.66-5.91-2.43-11.98-2.71-18.1-.28-6.24-.19-12.49-.18-18.73l.01-9.94c0-1.57.05-3.15-.05-4.71-.06-.92-.48-2.38 0-3.23.25-.45.72-.8.99-1.26.35-.59.52-1.3.56-1.98.1-1.45-.41-2.79-.09-4.23.59-2.7 1.66-5.26 3.01-7.67 2.54-4.52 6.2-9.23 11.01-11.47 2.49-1.17 5.03-2 7.43-3.38 1.18-.68 2.26-1.2 3.61-1.45 1.47-.27 2.96-.37 4.43-.66 2.41-.48 4.56-1.67 7.04-1.87 3.1-.25 6.27-.08 9.38-.08 2.87 0 6.12.7 8.86-.35 1.09-.42 2.07-1.09 3.26-1.18 1.51-.12 3 .26 4.52.07 1.07-.13 1.99-.52 3-.85 1.34-.43 2.78-.57 4.18-.77 2.81-.4 5.74-.88 8.19-2.43 2.21-1.4 3.9-3.52 5.35-5.67 1.54-2.28 2.93-4.73 3.58-7.42.75-3.1.67-6.39.71-9.56s0-6.64-.08-9.96l-.41-19.41c0-2.41-3.75-2.42-3.75 0h0z"/><path d="M361.06 933.74c-.71 8.86-.01 17.74.34 26.61.17 4.36.42 8.83.05 13.19-.18 2.13-.7 4.26-1 6.38-.29 2.13-.49 4.25-.52 6.4-.03 2.41 3.72 2.42 3.75 0 .03-2.11.2-4.2.51-6.29.32-2.16.85-4.32 1-6.49.3-4.38.12-8.81-.05-13.19-.35-8.86-1.05-17.74-.34-26.61.19-2.41-3.56-2.39-3.75 0h0zm-105.33 154.01l-1.14-.23 1.31 1.31c-.59-1.84-.18-3.83-.17-5.73h-3.75v8.8c0 2.41 3.75 2.42 3.75 0v-11.55c0-2.41-3.74-2.42-3.75 0-.01 2.19-.36 4.34.36 6.46.53 1.55 2.53 1.84 3.43.45 1.3-2.01 1.66-4.24 1.55-6.6l-.26-8.17-.26-9.96c-.56-4.98-1.2-9.96-1.99-14.91-.24-1.5-.29-4.84-2.19-5.31-1.32-.33-2.77.9-2.31 2.31 1.76 5.36 2.67 10.91 3.76 16.43l1.59 8.35c.24 1.37.41 2.77.78 4.11.34 1.22.81 2.37.78 3.66l3.49-.95c-1.4-2.34-1.72-4.98-2.35-7.59-.68-2.82-1.64-5.57-2.33-8.4-.93-3.8-1.07-8.15-3.72-11.26-1.57-1.84-4.21.82-2.65 2.65 1.12 1.31 1.47 3.36 1.82 4.99.42 1.93.72 3.88 1.24 5.79.74 2.7 1.62 5.36 2.22 8.09.58 2.66 1.11 5.24 2.53 7.61.96 1.61 3.45.91 3.49-.95.03-1.27-.26-2.47-.63-3.68-.41-1.36-.66-2.73-.9-4.12l-1.66-8.84c-1.13-5.67-2.05-11.39-3.86-16.9l-2.31 2.31c4.73 1.17-1.43-1.23-1.03-.76-.02-.03-.14-.49-.13-.29 0 .08.06.19.08.27l.21.92c.18.88.32 1.77.46 2.66l1 7.08.8 6.45c.29 2.49.23 5.01.26 7.51l.18 8.67c.1 2.45.47 4.77-.92 6.93l3.43.45c-.6-1.77-.24-3.64-.23-5.47h-3.75v11.55c0 2.41 3.75 2.42 3.75 0v-8.8c0-2.41-3.74-2.42-3.75 0-.01 2.26-.4 4.53.3 6.73.19.6.66 1.18 1.31 1.31l1.14.23c2.36.49 3.36-3.13 1-3.62h0zm37.5 2.28c.48.24.89.59 1.36.83.24.12.49.23.74.32s.55.12.82.15a2.41 2.41 0 0 0 .38 0c.29-.03.59-.06.87-.17l.6-.26c.42-.21.8-.69.89-1.16.05-.25.08-.5.1-.75.02-.31-.03-.62-.09-.92a1.33 1.33 0 0 0-.05-.19 4.14 4.14 0 0 0-.26-.61c-.13-.24-.3-.46-.5-.65-.39-.38-.89-.66-1.41-.81-.59-.16-1.1-.13-1.68-.04-.39.06-.78.22-1.11.42-.23.14-.46.31-.65.51-.15.15-.27.32-.39.49-.04.05-.07.1-.11.16-.11.2-.19.41-.26.62l-.05.21a3.57 3.57 0 0 0 0 1.42c.05.34.2.65.34.96a3.94 3.94 0 0 0 .36.63l1.12-2.75-.57.17c-.46.14-.88.45-1.12.86s-.33.99-.19 1.44.43.89.86 1.12.95.33 1.44.19l.57-.17a1.93 1.93 0 0 0 .83-.48c.18-.17.31-.37.39-.6.12-.22.17-.46.16-.72 0-.34-.09-.65-.26-.95a3.68 3.68 0 0 1-.37-.64l.19.45c-.07-.17-.12-.34-.14-.51l.07.5c-.02-.13-.02-.26 0-.39l-.07.5c.02-.1.04-.2.08-.3l-.19.45a.92.92 0 0 1 .16-.27l-.29.38c.07-.09.15-.16.23-.23l-.38.29c.11-.08.23-.15.35-.2l-.45.19c.15-.06.3-.1.45-.12l-.5.07a1.85 1.85 0 0 1 .47 0l-.5-.07c.14.02.28.05.41.11l-.45-.19c.1.04.2.1.29.17l-.38-.29c.08.06.14.13.2.2l-.29-.38a1.35 1.35 0 0 1 .15.26l-.19-.45c.04.11.07.22.09.34l-.07-.5c.02.15.02.3 0 .45l.07-.5c0 .05-.02.11-.03.16l.86-1.12-.13.06.45-.19c-.13.06-.27.1-.41.12l.5-.07a1.21 1.21 0 0 1-.38 0l.5.07a1.62 1.62 0 0 1-.43-.12l.45.19c-.56-.24-1.01-.65-1.55-.92-.45-.23-.94-.33-1.44-.19-.43.12-.91.46-1.12.86-.23.44-.35.96-.19 1.44.14.45.43.9.86 1.12h0zm93.2-10.53a1.85 1.85 0 0 1-.47 0l.5.07c-.07-.01-.14-.03-.21-.05l.45.19-.12-.06.38.29s-.05-.05-.08-.07l.29.38s-.04-.06-.05-.09l.19.45-.03-.11.07.5v-.2l-.07.5c.01-.08.03-.16.06-.24l-1.31 1.31a1.31 1.31 0 0 1 .27-.06l-.5.07a.97.97 0 0 1 .34 0l-.5-.07a.77.77 0 0 1 .26.07l-.45-.19c.08.04.16.08.23.14l-.38-.29a1.89 1.89 0 0 1 .2.2l-.29-.38a1.5 1.5 0 0 1 .19.32l2.12-2.75a.88.88 0 0 1-.15-.05l.45.19c-.08-.03-.16-.08-.23-.13l.38.29a1.21 1.21 0 0 1-.16-.16l.29.38-.11-.18.19.45c-.03-.07-.05-.14-.06-.22l.07.5v-.22l-.07.5c.01-.08.03-.15.06-.22l-.19.45a1.18 1.18 0 0 1 .11-.19l-.29.38c.05-.07.11-.12.17-.17l-.38.29c.07-.05.15-.1.23-.13l-.45.19c.09-.04.19-.06.29-.08l-2.12-.86.09.19-.19-.45a2.76 2.76 0 0 1 .19.68l-.07-.5c.03.25.03.5 0 .74l.07-.5-.06.31a1.37 1.37 0 0 0-.03.75c.01.25.09.48.22.7a1.53 1.53 0 0 0 .48.53 1.37 1.37 0 0 0 .64.34l.5.07c.34 0 .65-.09.95-.26.4-.26.75-.64.86-1.12.08-.32.12-.65.15-.98a3.01 3.01 0 0 0-.01-.52c-.04-.32-.07-.65-.17-.96a6.03 6.03 0 0 0-.38-.91l-.29-.38c-.17-.18-.37-.31-.6-.39-.15-.08-.3-.13-.47-.13a1.47 1.47 0 0 0-.75.03c-.26.04-.5.17-.74.27s-.42.27-.61.43-.33.36-.47.55-.22.43-.3.65c-.01.04-.03.08-.04.12-.05.2-.07.4-.09.6v.12c0 .2.04.41.08.6 0 .04.01.08.03.12.06.19.14.37.23.55l.06.11c.1.16.23.32.36.47.33.38.86.66 1.34.79l.5.07.5-.07.45-.19a1.53 1.53 0 0 0 .53-.48.86.86 0 0 0 .24-.41c.08-.15.13-.3.13-.47.04-.17.04-.33 0-.5-.01-.25-.09-.48-.22-.7-.13-.27-.33-.51-.52-.74-.18-.21-.41-.38-.64-.52-.18-.11-.39-.18-.59-.26l-.19-.06c-.27-.05-.57-.11-.86-.08-.23.02-.46.05-.68.1-.04 0-.07.02-.11.03a3.26 3.26 0 0 0-.48.2 1.53 1.53 0 0 0-.53.48 1.37 1.37 0 0 0-.34.64c-.09.26-.13.55-.14.83v.07c.01.18.04.37.07.54 0 .02 0 .04.01.06v.03c.04.13.14.35.2.48 0 .02.02.04.03.05 0 0 .01.02.02.02l.3.39.04.04s.02.01.02.02c.11.1.27.23.4.31a2.02 2.02 0 0 0 .75.29c.33.05.64.1.97.06.26 0 .5-.04.72-.16a1.39 1.39 0 0 0 .6-.39c.18-.17.31-.37.39-.6.12-.22.17-.46.16-.72l-.07-.5a1.93 1.93 0 0 0-.48-.83l-.38-.29c-.29-.17-.61-.25-.95-.26h0z"/><path d="m388.83,839.74c-.45-2.16-.56-3.4-1.35-5.35-.74-1.81-1.2-3.54-1.66-5.44-.84-3.46-.84-8.23-2.76-11.22-.78-1.22-2.06-2.01-2.83-3.28-.96-1.56-1.34-3.41-2.34-4.96-1.61-2.5-3.85-3.48-5.78-5.55-1.54-1.65-2.12-3.93-3.92-5.39-1.8-1.45-4.34-2.93-6.4-4.02-4.28-2.26-7.78-5.11-11.98-7.39-2.52-1.37-5.58-1.48-8.14-2.27-2.74-.85-4.38-1.4-7.38-1.38-6.08.06-12.17-.6-17.96,1.5-4.74,1.72-9.61,2.97-14.57,4.82-8.76,3.27-16.93,8.05-24.34,13.73-3.14,2.41-7.31,5.12-9.48,8.5-.7,1.09-.98,2.22-1.36,3.45-1.32,4.28-3.56,8.07-5,12.23-2.07,5.96-4.08,13.62-3.42,19.97.21,2.03.94,3.95,1.29,5.95.24,1.38.33,2.74.38,4.14.27,7.14,1.57,13.25,3.55,20.12,1.19,4.11,2.07,7.97,3.48,12.02,1.28,3.66,2.89,7.2,3.75,11,.78,3.48,2.72,6.5,4.02,9.77,1.03,2.6,1.6,5.5,2.99,7.82,1.64,2.76,3.55,5.14,5.05,8.01,1.58,3.01,3.93,5.48,6,8.26,2.72,3.65,6.31,5.21,9.85,7.81,1.98,1.46,3.66,3.17,5.94,4.29,4.61,2.26,9.18,5.22,14.12,7.03,1.97.72,4.06,1.78,6,2.04,2.57.33,5.45-.02,8.05-.02,3.81,0,10.26-.52,13.49-2.81.63-.45,1.18-1.46,1.76-1.8,1.79-1.06,4.3-1.2,6.24-2.17,2.8-1.39,4.82-3.46,7.25-5.34,1.65-1.27,3.54-1.94,5.31-2.99,5.04-2.99,9.25-8.95,12.44-13.75,3-4.52,3.09-10.54,5-15.31,1.77-4.43,3.09-9.02,3.56-13.77.41-4.1,1.4-7.95,2.13-11.92.33-1.79.02-3.65.06-5.47.07-2.78.82-5.48,1.25-8.21,1.2-7.59.61-15.36.15-22.97-.2-3.37-1.74-6.45-2.41-9.67Z" fill="#fff"/><path d="M390.63 839.24c-.37-1.82-.68-3.61-1.35-5.35a38.38 38.38 0 0 1-1.77-5.95c-.75-3.49-.78-7.15-2.41-10.4-.86-1.73-2.56-2.75-3.47-4.4-.96-1.73-1.41-3.66-2.61-5.27-1.09-1.47-2.49-2.54-3.89-3.68s-2.35-2.39-3.28-3.95c-2.04-3.45-5.51-5.38-8.95-7.22-3.8-2.04-7.24-4.64-10.96-6.81-3.45-2.01-7.26-2.38-11.02-3.52-3.96-1.2-7.93-1.07-12.03-1.11-4.33-.04-8.74.11-12.86 1.54s-8.65 2.74-12.94 4.23c-8 2.79-15.55 6.74-22.51 11.57-3.22 2.23-6.42 4.59-9.46 7.07-1.42 1.15-2.76 2.4-3.89 3.84-1.25 1.59-1.88 3.27-2.48 5.18-1.29 4.14-3.47 7.93-4.93 12.02-1.34 3.76-2.43 7.63-3.08 11.57-.68 4.13-.91 8.28.12 12.38.53 2.13.95 4.16 1.05 6.37.1 2.15.24 4.3.5 6.44.53 4.27 1.43 8.46 2.56 12.61 1.14 4.17 2.21 8.38 3.53 12.49 1.36 4.22 3.22 8.25 4.27 12.56.98 4.01 3.28 7.48 4.59 11.36.65 1.95 1.21 3.93 2.12 5.78s2.17 3.52 3.31 5.23c1.16 1.75 2.09 3.63 3.23 5.38 1.17 1.81 2.56 3.47 3.91 5.15 1.26 1.58 2.41 3.18 3.95 4.5 1.43 1.23 3.01 2.27 4.59 3.3 3.27 2.12 6.12 4.91 9.61 6.67 3.76 1.89 7.36 4.1 11.22 5.8 3.82 1.68 7.67 3.38 11.9 3.37 3.5 0 7.1-.06 10.58-.46 3.18-.37 6.82-.92 9.44-2.91.61-.46.97-1.14 1.54-1.62s1.52-.66 2.26-.86c1.96-.54 3.8-1.1 5.53-2.2s3.21-2.41 4.75-3.68 3.31-2.2 5.13-3.15c3.43-1.78 6.26-4.49 8.71-7.44s4.8-5.89 6.44-9.16c1.73-3.44 2.3-7.24 3.25-10.93 1.02-3.94 2.78-7.63 3.7-11.62.99-4.3 1.29-8.72 2.17-13.04.43-2.1 1.02-4.25 1.08-6.41.06-2.23-.18-4.38.18-6.6.71-4.4 1.53-8.66 1.66-13.13.13-4.56-.15-9.12-.43-13.66-.13-2.05-.33-4.03-.89-6.01s-1.26-3.84-1.69-5.82c-.52-2.36-4.14-1.36-3.62 1 .42 1.91 1.09 3.74 1.63 5.61.57 1.98.73 3.9.86 5.94.26 4.31.51 8.63.38 12.95-.06 2.23-.21 4.46-.53 6.66-.3 2.06-.8 4.09-1.09 6.15s-.23 4.12-.21 6.23c.03 2.06-.54 4.09-.95 6.09-.84 4.1-1.14 8.29-2.02 12.37s-2.5 7.52-3.59 11.35c-.98 3.45-1.38 7.15-2.87 10.44-1.43 3.14-3.8 6.12-5.98 8.77-2.29 2.78-4.85 5.33-8.08 7.01-1.78.93-3.47 1.79-5.05 3.05-1.49 1.18-2.89 2.48-4.47 3.54s-3.18 1.56-5 2.06c-1.67.46-3.23 1.02-4.37 2.36-1.84 2.17-5.37 2.62-8.05 2.92-3.35.37-6.81.41-10.18.44-3.9.04-7.57-1.61-11.06-3.22-3.68-1.7-7.17-3.8-10.79-5.62-1.65-.83-3.04-1.94-4.47-3.1-1.52-1.22-3.11-2.31-4.74-3.37-1.48-.96-2.97-1.92-4.28-3.12-1.44-1.32-2.55-2.93-3.77-4.45s-2.49-3.08-3.51-4.79c-1.04-1.74-2-3.5-3.14-5.19s-2.3-3.25-3.11-5.04-1.21-3.55-1.84-5.31c-1.35-3.75-3.46-7.12-4.42-11.02-1.02-4.15-2.85-8.04-4.16-12.11-1.28-3.97-2.29-8.03-3.41-12.04-1.08-3.9-2-7.85-2.53-11.86s-.3-8.35-1.31-12.41c-.49-1.97-.96-3.84-1-5.88-.04-1.97.12-3.94.43-5.88.61-3.81 1.66-7.55 2.91-11.2 1.33-3.86 3.33-7.45 4.7-11.29.62-1.74.95-3.52 2.1-5.02 1.06-1.38 2.4-2.55 3.74-3.65 6-4.89 12.49-9.36 19.36-12.93 3.61-1.88 7.34-3.49 11.19-4.82 4.06-1.4 8.21-2.56 12.26-3.99 4-1.41 8.11-1.6 12.31-1.56l6.28.06c1.78.06 3.45.52 5.14 1.04s3.53.86 5.32 1.27c1.92.43 3.51 1.2 5.19 2.22 3.48 2.11 6.76 4.5 10.35 6.44 1.69.91 3.36 1.88 4.93 2.99 1.44 1.02 2.17 2.27 3.07 3.76s2.07 2.75 3.45 3.87c1.3 1.05 2.72 2.06 3.64 3.48 1.06 1.66 1.43 3.67 2.56 5.29.99 1.41 2.46 2.36 3.16 3.96 1.37 3.1 1.29 6.71 2.07 9.97a44.84 44.84 0 0 0 1.68 5.43c.64 1.67.92 3.4 1.27 5.14.48 2.36 4.1 1.36 3.62-1zm-65.7 22.91l.18 3.76c0 1.32-.39 2.48-.81 3.71-.88 2.56-.83 5.21-.82 7.89l.11 8.89-.29 4.37c-.14 3.39.33 7.54 3.91 8.99 3.21 1.29 6.15-.44 6.88-3.72.7-3.16-.03-6.3-.05-9.47-.02-2.42-3.67-2.41-3.75 0a34.26 34.26 0 0 0 .45 6.86c.36 2.09 1.07 4.78 3.14 5.82.77.38 1.64.31 2.27-.29 1.04-.99 1.47-2.55 1.76-3.91.41-1.91.6-3.88.64-5.83.04-1.84-.04-3.71-.4-5.52-.27-1.38-.81-2.97-2.12-3.7-.81-.45-2.15-.27-2.57.67-1.15 2.62-.19 5.14.66 7.69.89 2.69 1.22 5.53 2.83 7.94.96 1.44 2.82 1.04 3.43-.45 1.06-2.6.98-5.65.86-8.4l-.52-8.63c-.02-2.41-3.73-2.42-3.75 0l-.38 8.51c.11 2.68.7 6.43 3.84 7.12.64.14 1.37.03 1.82-.48 3.21-3.57 1.02-9.28-.22-13.23-.83-2.64-1.48-5.35-1.96-8.07-.55-3.13-.36-6.29-.82-9.41-.21-1.45-.72-2.83-.98-4.27-.31-1.73-.16-3.5-.37-5.25-.24-1.94-.68-3.98-1.34-5.82-.65-1.82-1.61-3.73-3.4-4.67-.99-.52-2.1-.61-3.18-.41-.56.1-1.2.29-1.61.7-.67.67-.69 1.84-.86 2.73-1.52 7.89-2.5 15.89-2.6 23.93-.03 2.41 3.72 2.42 3.75 0 .11-8.37 1.19-16.64 2.84-24.83l-1.31 1.31c.94-.32 1.28-.27 1.85.46.65.83 1 2 1.29 3.03s.52 2.08.72 3.12c.44 2.28.18 4.62.64 6.91.4 1.99.93 3.76.99 5.81s.25 4.18.55 6.26c.5 3.49 1.38 6.92 2.44 10.29.53 1.68 1.07 3.4 1.33 5.15.16 1.07.39 2.75-.4 3.63l1.82-.48c-.12-.02-.23-.05-.34-.09.19.08.19.07 0-.04.33.19-.19-.36-.04-.08-.25-.48-.28-.51-.42-1.07-.3-1.16-.31-2.4-.3-3.6.02-2.39.38-4.76.4-7.14h-3.75c.02 2.76.37 5.51.51 8.26.13 2.57.28 5.34-.71 7.77l3.43-.45c-1.3-1.95-1.6-4.24-2.26-6.45-.28-.94-.65-1.86-.93-2.8-.21-.72-.62-1.85-.3-2.59l-2.57.67c.09.05-.14-.16-.13-.15.04.11.31.65.18.31.21.55.33 1.15.43 1.74.21 1.3.23 2.94.18 4.37-.05 1.45-.17 2.9-.45 4.33-.13.62-.28 1.25-.49 1.85-.14.39 0-.02-.18.4-.19.45.13-.06-.17.23l2.27-.29c-.36-.18-.27-.13-.38-.3-.2-.31-.35-.62-.47-.96-.33-.9-.51-1.87-.64-2.81-.25-1.77-.3-3.59-.24-5.38h-3.75c.02 2.36.45 4.69.34 7.05-.03.57-.06.96-.16 1.42-.13.59-.24.84-.39 1.14-.01.02-.24.23-.14.16-.05.03-.36.15-.16.1.24-.07-.29.04-.05.02a2.88 2.88 0 0 1-1.29-.22c-1.98-.98-1.45-4.94-1.31-6.81.3-4.05.1-8.09.1-12.15 0-1.43-.04-2.9.1-4.32.11-1.11.55-2.15.9-3.2.85-2.55.5-4.97.46-7.59-.04-2.41-3.79-2.42-3.75 0h0zm-22.11 7.37c-1.56.02-3.16.03-4.68.43-1.54.4-2.88 1.23-4.28 1.94-2.34 1.19-4.94 2.07-6.47 4.35-1.43 2.13-1.37 5.13.55 6.93 1.73 1.62 4.24 2.07 6.51 2.3 4.15.42 8.47-.05 12.41-1.4s10.88-4.67 8.3-9.99c-1.27-2.63-4.42-3.29-7.07-3.47s-5.3.22-7.95.23c-2.41.02-2.42 3.77 0 3.75 1.89-.01 3.77-.24 5.66-.28 1.71-.03 3.9-.11 5.37.79 1.03.63.93 1.46.19 2.29-1.2 1.36-3.09 2.16-4.75 2.78-1.52.57-3.11 1.05-4.71 1.32-.65.11-.77.12-1.64.2a35.42 35.42 0 0 1-2.91.14c-1.81.01-3.62-.1-5.36-.62-.59-.18-1.19-.47-1.54-.84-.26-.28-.44-.54-.26-1.33.46-2.03 3.34-2.88 4.98-3.65 1.19-.56 2.29-1.33 3.54-1.73 1.33-.42 2.72-.4 4.1-.42 2.41-.04 2.42-3.79 0-3.75h0z"/><path d="M301.01 875.91a3.4 3.4 0 0 1 .09.46l-.07-.5a3.62 3.62 0 0 1 0 .93l.07-.5c-.04.31-.13.61-.25.9l.19-.45a2.59 2.59 0 0 1-.14.29l1.12-.86c-.06.01-.12.03-.18.03l.5-.07c-.11.01-.21.02-.32 0l.5.07c-.06 0-.12-.02-.17-.05l.45.19s-.09-.04-.12-.07l.38.29-.1-.1.29.38-.08-.13.19.45a.9.9 0 0 1-.07-.27l.07.5c-.03-.21-.01-.43.01-.64 0-.26-.04-.5-.16-.72a1.39 1.39 0 0 0-.39-.6c-.17-.18-.37-.31-.6-.39-.22-.12-.46-.17-.72-.16-.48.02-.99.18-1.33.55l-.29.38c-.17.29-.25.61-.26.95-.06.45-.04.94.11 1.37.07.19.14.4.25.57.05.09.13.17.18.24l.19.25c.02.02.04.03.05.05.13.11.28.23.42.32.18.11.38.18.57.25s.42.08.63.1c.06 0 .13.01.19 0 .22 0 .45-.05.67-.08.04 0 .07-.01.11-.02.17-.04.3-.08.48-.2l.38-.29.29-.38a2.59 2.59 0 0 0 .14-.29l.29-.72c.07-.2.12-.41.15-.62.06-.39.11-.77.09-1.16a6.54 6.54 0 0 0-.18-1.22c-.11-.45-.47-.89-.86-1.12-.22-.14-.45-.21-.7-.22a1.47 1.47 0 0 0-.75.03c-.45.15-.89.43-1.12.86a2.04 2.04 0 0 0-.19 1.44h0zm61.94-6.45c-2.48-2.75-6.43-1.88-9.73-1.92-1.39-.02-2.8.06-4.07.67-1.45.7-2.47 2.04-3.16 3.46-1.07 2.22-1.63 5.06.34 6.99 1.66 1.63 4.21 1.95 6.43 2.07s4.33-.08 6.5-.03c2.33.06 4.65.39 6.99.23 2.56-.17 5.31-.83 6.82-3.1 1.39-2.09 1.33-5.12-.48-6.93s-5-2.16-7.52-2.24c-2.5-.07-4.98.23-7.47.25-2.41.01-2.42 3.76 0 3.75 3.56-.02 7.38-.78 10.81.17.62.17 1.25.46 1.52.72.39.38-.15-.28.15.17.03.04.24.53.11.2.13.35.14.4.07.9-.2 1.57-1.63 2.08-3.27 2.3-1.91.26-3.92.07-5.84-.06-1.66-.11-3.29-.09-4.95-.05-1.77.04-3.74.09-5.33-.24-.34-.07-.67-.16-1-.26-.4-.13-.32-.08-.74-.36-.15-.1-.19-.14-.27-.27-.1-.16-.15-.15-.13-.58.04-.81.58-2.15 1.21-2.97.61-.8 1.34-1 2.3-1.03 1.34-.05 2.69.05 4.03-.02 1.43-.08 2.97-.33 4.02.84 1.62 1.8 4.26-.86 2.65-2.65h0z"/><path d="M358.94 870.25l-.78-.05c-.65-.04-1.3.39-1.62.93-.17.29-.25.61-.26.95 0 .34.09.65.26.95.33.44.66.85 1.08 1.21l.38.29c.22.14.45.21.7.22.17.04.33.04.5 0 .25-.01.48-.09.7-.22.27-.17.5-.4.67-.67.14-.22.21-.45.22-.7a1.47 1.47 0 0 0-.03-.75c0-.05-.02-.1-.02-.14l.07.5a2.26 2.26 0 0 1 0-.52l-.07.5c.02-.17.07-.33.13-.49l-.19.45a2.32 2.32 0 0 1 .22-.41l-2.57.67s.03.03.05.04l-.38-.29a1.06 1.06 0 0 1 .15.15l-.29-.38s.06.09.08.14l-.19-.45c.02.05.03.1.04.15l-.07-.5v.2l.07-.5c0 .05-.02.1-.03.15-.09.33-.09.66 0 1a1.42 1.42 0 0 0 .34.64c.13.2.31.37.53.48.29.17.61.25.95.26l.71-.05c.26 0 .5-.04.72-.16a1.39 1.39 0 0 0 .6-.39c.18-.17.31-.37.39-.6.12-.22.17-.46.16-.72-.02-.48-.18-.99-.55-1.33s-.83-.58-1.33-.55l-.71.05 1.81 2.37.03-.15c.03-.2.07-.4.07-.6s-.04-.4-.07-.59c0-.04-.02-.09-.03-.13-.06-.18-.14-.37-.23-.53s-.23-.31-.35-.46c-.16-.19-.38-.33-.58-.48-.22-.14-.45-.21-.7-.22a1.47 1.47 0 0 0-.75.03l-.45.19a1.87 1.87 0 0 0-.67.67c-.08.12-.16.25-.21.39-.12.27-.25.54-.31.82l-.09.67-.01.21c0 .31.05.62.11.92l3.13-1.82a5.39 5.39 0 0 1-.74-.77l.29.38s-.03-.04-.05-.06l-1.62 2.82.78.05c.26 0 .5-.04.72-.16a1.39 1.39 0 0 0 .6-.39c.18-.17.31-.37.39-.6.12-.22.17-.46.16-.72-.02-.48-.18-.99-.55-1.33l-.38-.29c-.29-.17-.61-.25-.95-.26h0zm-70.01 31.08c2.07.28 3.86 1.07 5.6 2.22 1.62 1.07 2.88 2.47 4.71 3.23l.5-3.68c-3.17.04-6.09-.73-8.88-2.24l-8.14-4.94c-1.74-.98-3.32.93-2.57 2.57 2.1 4.59 6.66 7.27 10.26 10.55l1.33-3.2c-2.85.02-5.39-1.72-7.48-3.5-2.32-1.98-4.35-4.25-6.48-6.41-1.7-1.72-4.33.92-2.65 2.65 2.43 2.5 5.47 4.24 7.96 6.66 2.09 2.03 4.23 4.09 7.35 4.06 1.49-.02 2.25-1.56 1.62-2.82s-1.68-2.23-2.94-2.85c-1.14-.55-2.4-.84-3.5-1.46-1.22-.68-2.31-1.61-3.31-2.58-.94-.91-1.98-1.98-2.48-3.21l-1.81 2.37c1.5-.19 2.95 1.27 4.08 2.29 1.45 1.31 2.88 2.83 4.65 3.71 1.55.77 3.7-.89 2.57-2.57-.95-1.4-2.16-2.57-3.35-3.75-.99-.98-2.28-2.08-2.75-3.43-.79-2.26-4.41-1.29-3.62 1 1.19 3.43 4.52 5.19 6.48 8.08l2.57-2.57c-3.52-1.75-6.14-7.06-10.62-6.51-1.06.13-2.32 1.12-1.81 2.37 1.22 3 3.66 5.33 6.24 7.2 1.12.81 2.31 1.35 3.61 1.83 1.16.43 2.18.8 2.76 1.96l1.62-2.82c-2.29.02-3.83-2.21-5.37-3.6-2.34-2.12-5.07-3.74-7.28-6.02l-2.65 2.65c4.48 4.55 9.59 11.06 16.62 11.02 1.56 0 2.55-2.08 1.33-3.2-3.35-3.05-7.73-5.53-9.68-9.79l-2.57 2.57c2.95 1.66 5.7 3.7 8.71 5.24 3.2 1.64 6.6 2.48 10.2 2.44 2.27-.03 2.35-2.91.5-3.68-.73-.31-1.38-.95-1.98-1.45-.79-.66-1.59-1.27-2.46-1.81-1.8-1.1-3.76-1.91-5.86-2.2-1-.14-2.01.24-2.31 1.31-.24.87.3 2.17 1.31 2.31h0zm92.5-56.05l1.63 2.3c1.45 1.89 2.79 4.02 4.04 6.03 1.11 1.77 2.83 4.45 3.57 6.3.7 1.76.48 4 1.73 5.53 1.6 1.96 4.47 1.45 6.53.49 4.22-1.96 5.66-7.95 8.25-11.45 2.02-2.75 4.87-5.41 6.07-8.61 1.16-3.11 1.98-6.26 3.95-9.04.89-1.26 2.02-2.29 2.83-3.66 1.45-2.44 1.95-5.12 3.23-7.63 1.08-2.1 2.53-4.37 1.56-6.81-.7-1.73-2.6-3.33-3.78-4.79-5.47-6.73-10.36-13.99-16.84-19.79-4.63-4.15-10.05-7.25-14.95-11.04-4.15-3.2-7.53-7.28-11.69-10.47-3.34-2.56-7.31-3.94-11.14-5.58-2.9-1.24-5.71-2.69-8.9-3s-6.26.24-9.38.21c-2.16-.02-3.93.37-6.04.78s-4.35-.12-6.48.43c-6.31 1.61-12.25 6.29-18.3 7.61-1.44.31-2.81.15-4.31.21s-1.88.7-3.09.93c-2.79.54-5.09.11-7.86 1.22-4.68 1.86-10.14 4.53-14.87 5.68-4.73 1.16-9.98 3.17-14.06 5.92-2.44 1.64-4.1 4.38-6.28 6.34-1.82 1.64-4.2 3.53-5.58 5.51-3.73 5.34-8.48 9.84-12 15.3-1.41 2.18-3.01 3.92-4.27 6.07-1.38 2.38-3.19 4.63-4.58 7-1.71 2.94-3.01 6.69-3.97 9.94-.92 3.13-3.11 6.44-3.11 9.76 0 .97.43 1.86.48 2.81.15 3.32-1.09 6.5-.68 9.92.2 1.64.51 1.71 1.52 2.95 1.6 1.97 3.34 4.54 5.79 5.53.93.37 1.88.23 2.8.52 3.29 1.03 5.97 3.98 9.04 5.56 2.07 1.07 4.04 2.6 6.31 3.2 4.99 1.31 1.94-3.37 3.54-6.39.54-1.02 1.71-1.65 2.51-2.43 4.58-4.47 7.45-10.38 12.18-14.73 9.18-8.43 18.57-16.14 26.08-26.08 3.98-5.26 8.47-11.69 10.73-17.89 1.3-3.55 2.82-6.98 4.78-10.16 1.01-1.65 2.1-3.57 2.9-5.42.66-1.52.93-3.43 2.24-4.59 2.42 3.52 6.59 6.56 9.48 9.64 1.06 1.13 2.41 1.72 3.38 3.01 1.04 1.38 1.63 2.11 2.99 3.26 1.98 1.68 3.21 4.13 5.27 5.83 3.84 3.15 7.86 5.62 12.03 7.96 4.4 2.47 7.18 6.01 10.65 9.45 1.62 1.6 3 3.19 4.41 4.88 1.15 1.38 2.69 2.55 3.77 3.97 1.22 1.6 1.99 3.11 3.49 4.55.97.93 1.68 1.92 2.39 2.94z"/><path d="m264.03,874.2c2.03,3.83,3.12,7.33,3.39,11.57.26,4.09,1.95,7.94,1.92,12.09-.01,1.97.29,4.11.02,6.05-.16,1.2-.85,4.19-1.57,5.05-1.25,1.5-4.85,1.15-6.49.73-.84-.21-2.35-.48-3.06-.76-1.03-.39-.83-.79-1.68-1.31-2.54-1.54-5.84-3.25-7.81-5.71-2.2-2.74-4.14-5.76-5.8-8.85-.72-1.35-1.69-2.78-2.25-4.23-.72-1.86-.49-3.93-.49-6.04,0-3.81.6-7.8,1.98-11.08.64-1.52,1.46-2.73,2.54-3.99,1.36-1.58,3.41-2.3,5.27-3.12,6.61-2.93,11.33,4.51,14.03,9.6Z" fill="#fff"/><path d="M262.41 875.14c1.91 3.64 2.78 7.24 3.19 11.3.22 2.21.75 4.35 1.23 6.51.45 2.08.58 4.06.66 6.18.07 1.8.24 3.59-.13 5.37-.18.88-.46 2.82-1.08 3.3-.81.64-2.58.39-3.51.26-.63-.09-1.24-.26-1.86-.4s-1.57-.19-2.13-.56-.99-.93-1.58-1.3l-2.46-1.47c-1.6-.98-3.18-2.04-4.42-3.47-2.81-3.25-4.84-7.13-6.93-10.85-1.07-1.89-1.36-3.52-1.32-5.67.04-2.13.03-4.26.36-6.37.53-3.47 1.7-7.97 4.87-10 1.44-.92 3.38-1.93 5.1-2.14 1.48-.18 2.89.42 4.06 1.29 2.68 1.99 4.43 5.13 5.97 8.02 1.14 2.13 4.38.24 3.24-1.89-1.68-3.15-3.63-6.41-6.44-8.7-3.12-2.54-6.64-3.09-10.33-1.5-1.98.85-4 1.7-5.47 3.34-1.57 1.75-2.69 3.76-3.47 5.97s-1.22 4.69-1.44 7.09-.35 4.92-.12 7.29c.25 2.6 1.51 4.64 2.76 6.87 1.23 2.21 2.48 4.39 3.93 6.46 1.35 1.93 2.74 3.82 4.59 5.29 1.72 1.36 3.61 2.45 5.49 3.57.72.43 1.2 1.11 1.96 1.5.87.45 1.85.61 2.8.82 1.68.37 3.37.74 5.1.61s3.59-.65 4.57-2.24c.86-1.39 1.24-3.22 1.52-4.82.44-2.52.19-5.13.1-7.67-.1-2.83-.88-5.55-1.45-8.31s-.56-5.46-1.19-8.15c-.61-2.6-1.67-5.09-2.91-7.45-1.12-2.14-4.36-.24-3.24 1.89z"/><path d="m399.24,897.6c-2.21,2.1-6.78,5.9-9.38,2.76-3.14-3.79-2.67-7.75-2.67-12.39,0-5.81.45-10.79,1.34-16.38.75-4.69,1.85-9.74,5.98-12.8,5.76-4.26,9.73.83,12.87,5.3,1.6,2.28.86,4.16,1.54,6.77.55,2.12,1.14,3.24,1.07,5.59-.17,5.67-3.4,9.84-5.68,14.8-1.2,2.61-3,4.4-5.06,6.36Z" fill="#fff"/><path d="M397.91 896.28c-.94.89-1.92 1.73-3.02 2.42-.78.49-2 1.25-2.96.93-1.13-.37-1.92-2.29-2.26-3.33-.49-1.49-.61-3.02-.63-4.58-.1-7.33.28-14.72 1.7-21.93.57-2.88 1.4-5.94 3.43-8.16s4.61-3.42 7.21-1.57c1.11.79 2.04 1.88 2.88 2.94.9 1.14 1.99 2.38 2.28 3.84.31 1.57.21 3.16.62 4.73.39 1.48.94 2.88.96 4.43.03 3.89-1.83 7.36-3.6 10.7-.89 1.67-1.62 3.47-2.62 5.08-1.06 1.72-2.53 3.12-3.98 4.5-1.75 1.67.9 4.32 2.65 2.65 1.49-1.42 2.94-2.88 4.12-4.58s1.98-3.73 2.97-5.58c1.93-3.64 3.8-7.3 4.16-11.48.17-2-.2-3.85-.76-5.76s-.51-3.66-.86-5.52-1.52-3.38-2.65-4.87c-1.14-1.5-2.35-2.91-3.87-4.04-3.06-2.28-6.8-2.26-9.92-.06-3.21 2.28-5.08 5.7-6.09 9.44-1.08 3.99-1.54 8.22-1.93 12.32-.41 4.4-.53 8.87-.43 13.29.05 2.15.33 4.29 1.17 6.29s2.13 4.06 4.2 4.77c3.67 1.28 7.42-1.89 9.89-4.22 1.76-1.66-.9-4.31-2.65-2.65zm-105.97-36.8c2.15.47 4.03-.76 5.94-1.56 2.25-.95 4.98-.33 7.36-.43l-.5-3.68c-4.49 1.52-9.11 1.76-13.8 2.04l.5 3.68c3.02-.55 5.94-1.55 8.82-2.6 1.09-.4 2.05-.91 3.05-1.48.63-.36 1.65-1.13 2.39-.86l-1.12-2.75c-1.26 2.18-4.27 2.25-6.49 2.26-2.82.01-5.64-.43-8.46-.23l.5 3.68c2.58-.66 4.78-2.21 7.05-3.53 2.14-1.24 4.35-2.3 6.81-1.42l-1.31-2.31c-.05.27.08.02-.03.19.11-.16-.32.32-.26.27-.36.29-.88.56-1.33.76-1.01.46-2.11.75-3.19 1-2.71.61-5.87.15-8.93.33l.5 3.68c2.76-.61 5.62-1.2 8.26-2.22 2.3-.89 4.5-2.22 6.92-2.78 1.24-.29 2.74-.28 4.06-.07.7.11 1.44.28 2.07.59.56.28.78.53.88.9l1.31-2.31c-1.29.38-2.67.02-3.99.22-1.05.16-1.92.78-2.94.99-1.22.25-2.54-.13-3.79.05l-3.96.6c-1.86.24-3.74.37-5.58.74-1.63.33-3.43.81-4.42 2.25-.75 1.09.08 2.35 1.12 2.75 2.46.95 5.24.65 7.81.45 2.99-.24 6-.16 9-.16 2.41 0 2.42-3.75 0-3.75-3.49 0-6.99.12-10.47-.15-2.8-.22-5.95-.63-8.62.44-1.54.62-1.83 2.44-.45 3.43 2.34 1.67 5.7 1.56 8.43 1.35 3.38-.26 6.72-1.26 10.1-1.32 2.41-.04 2.42-3.77 0-3.75s-4.75.37-7.07 0-4.45-1.44-6.64-2.2l.45 3.43c1.88-1.09 4.37-.47 6.44-.51 1.16-.02 2.42-.2 3.54.16s2.06.88 3.31.87c2.41-.02 2.41-3.7 0-3.75-2.04-.04-4.12.06-6.08-.61-.89-.3-1.69-.8-2.57-1.13-1.04-.39-2.03-.39-3.11-.23-2.11.32-1.57 3.71.5 3.68s4.16-.32 6.24-.39c1.08-.03 2.19-.06 3.26.09.43.06.89.15 1.31.31.17.07.52.32.4.16l1.62-2.82c-2.35-.21-4.68-.81-7.03-1.08-1-.11-1.95-.53-2.92-.79-1.17-.31-2.26-.35-3.46-.18-2.12.31-1.56 3.69.5 3.68h10.34v-3.75h-2.73c-2.41 0-2.42 3.75 0 3.75h2.73c2.41 0 2.42-3.75 0-3.75h-10.34l.5 3.68c.92-.14 1.9.31 2.76.57a13.24 13.24 0 0 0 2.99.55c2.25.16 4.42.86 6.66 1.06 1.34.12 2.45-1.72 1.62-2.82-1.63-2.17-4.46-2.42-7-2.44-2.49-.02-4.96.37-7.45.4l.5 3.68c.77-.12 1.58.47 2.25.78.87.4 1.76.72 2.7.91 1.92.39 3.88.37 5.83.41v-3.75c-1.12.01-2.15-.77-3.26-.94-1.46-.22-2.92-.07-4.38-.09-2.6-.03-5.18-.35-7.54 1.01-1.46.85-1.04 2.92.45 3.43 2.37.82 4.63 1.91 7.14 2.27 2.52.36 5.04.07 7.57.05v-3.75c-3.18.05-6.27.97-9.43 1.26-2.25.2-5.25.61-7.21-.78l-.45 3.43c2.47-.99 5.4-.48 7.98-.28 3.36.26 6.75.12 10.12.12 2.41 0 2.42-3.75 0-3.75-2.87 0-5.75-.1-8.62.13-2.36.18-4.93.59-7.19-.29l1.12 2.75c-.24.35-.05.09.22 0s.53-.17.8-.25c.76-.21 1.55-.36 2.33-.48 1.88-.29 3.78-.43 5.66-.71 1.16-.17 2.28-.42 3.45-.36 1.14.06 2.26.15 3.36-.2.97-.31 1.75-.84 2.79-.86 1.31-.02 2.54.12 3.82-.26.99-.29 1.56-1.31 1.31-2.31-1.03-4.05-6.57-4.65-10.01-4.29-2.55.27-4.81 1.41-7.12 2.43-3.07 1.36-6.4 2.08-9.67 2.81-2.04.45-1.62 3.81.5 3.68 3.63-.22 7.16.28 10.72-.66 2.35-.62 6.11-1.83 6.62-4.64.19-1.06-.28-1.94-1.31-2.31-2.92-1.05-5.85-.25-8.5 1.13-2.43 1.27-4.66 3.13-7.35 3.82-2 .51-1.65 3.84.5 3.68 5.76-.41 14.59 2.34 18.19-3.89.65-1.12 0-2.34-1.12-2.75-2.51-.93-4.75 1.17-6.86 2.13-2.91 1.31-6.25 2.24-9.39 2.82-2.07.38-1.61 3.81.5 3.68 5.01-.3 10.01-.55 14.8-2.18 1.91-.65 1.72-3.77-.5-3.68-2.53.1-5.27-.42-7.73.33-.89.27-1.72.71-2.56 1.1-.51.24-1.59.79-2.01.7-2.35-.52-3.36 3.1-1 3.62h0zm59.7-5.21c1.97-.9 4.25-.58 6.22-1.55.79-.39 1.47-.98 2.33-1.18 1.16-.27 2.21-.31 3.28-.91l-1.89-3.24c-1.56.94-3.09 2.34-5 2.41-1.19.04-2.29-.21-3.48.05-.99.22-1.89.79-2.92.78l1.33 3.2c1.29-1.3 3.69-1.38 5.38-1.79 1.42-.35 3.81-1.89 5.06-1.39l-.83-3.13c-.32.28.17-.06-.08.05-.14.06-.28.17-.42.24a6.02 6.02 0 0 1-.83.34c-.86.3-1.75.51-2.65.68-.79.14-1.58.22-2.38.22-.31 0-.86-.01-1.06-.05-.06 0-.86-.29-.58-.15l.38 2.94c-.54.44.22-.12.4-.23l1.11-.62 2.57-1.22c.94-.38 1.9-.72 2.89-.93.08-.02.58-.08.24-.05.19-.02.46.04.64-.01-.2.05-.14.02-.32-.1.17.1.14.07-.11-.1a.96.96 0 0 1-.27-.44l.19-1.44c-.84 1.55-3.21 1.74-4.74 2.21-2.71.84-5.27.94-8.1.93-2.41 0-2.42 3.73 0 3.75l5.77.15c1.58-.07 2.97-.46 4.46-.92.94-.29 2.22-.82 3.17-.35.27.14.36.25.52.37.24.18.1.34.09.07 0-.38-.19-.63-.02-1.04.06-.13.51-.7.35-.49-.17.23.28-.08-.03.02l-.59.16-.5.1c-.33.06.15 0-.31.04a23.54 23.54 0 0 1-2.37.14c-2.8.06-5.59-.09-8.39.06l.5 3.68c3.33-.78 6.69-1.36 9.93-2.48 2.11-.73 4.48-1.48 6.74-1.35l-.95-3.49c-1.61 1.19-4.77 1.17-6.65.42l.45 3.43c1.3-.81 2.91-.8 4.39-.77 1.66.03 3.31.23 4.97.24v-3.75c-2.22.16-4.25-1.09-6.49-1.02-2.41.07-2.42 3.68 0 3.75.96.03 1.92-.1 2.87-.16.51-.03 1.84-.13 2.09.08l-.29-2.27c-.62.88-1.68.56-2.62.46-1.37-.14-2.64-.03-3.87.65-1.2.66-1.24 2.58 0 3.24 2.95 1.55 6.77 1.53 9.86.41 2.25-.81 1.28-4.44-1-3.62-1.37.49-2.65.62-4.1.44-.91-.12-1.74.81-1.84 1.63-.11.95.44 1.75 1.34 2.06 1.25.42 2.48.87 3.79 1.06 1 .14 2.01-.24 2.31-1.31.24-.88-.3-2.16-1.31-2.31-1.31-.19-2.54-.64-3.79-1.06l-.5 3.68c1.72.23 3.46.02 5.09-.57l-1-3.62c-2.13.77-4.9 1.06-6.97-.03v3.24c1.03-.57 2.46.01 3.58-.02 1.85-.06 3.2-.94 4.25-2.44.44-.63.3-1.77-.29-2.27-2.19-1.87-5.02-.94-7.62-1.02v3.75c2.21-.07 4.22 1.18 6.49 1.02 2.38-.17 2.44-3.74 0-3.75-3.68-.02-7.92-1.03-11.25 1.04-1.48.92-1.01 2.84.45 3.43s3.18.64 4.72.55c1.62-.1 3.48-.36 4.82-1.35 1.48-1.09 1.01-3.39-.95-3.49-2.49-.14-5.17.61-7.51 1.41-3.32 1.13-6.75 1.76-10.15 2.56-2.04.48-1.63 3.79.5 3.68 2.7-.14 5.39-.02 8.09-.05 1.57-.02 3.25-.06 4.78-.5 1.81-.52 3.35-2.17 2.22-4.09-1.43-2.43-4.47-2.76-6.94-2.13-1.37.35-2.71.99-4.13 1.08-2.06.13-4.12-.11-6.17-.12v3.75c2.15 0 4.28.01 6.4-.35 1.58-.27 3.15-.82 4.69-1.28s3.15-1.08 4.24-2.31c1.16-1.31 1.34-3.1-.27-4.11-1.89-1.19-4.63-.12-6.49.63-1.98.8-4.07 1.69-5.74 3.04-.91.74-.62 2.44.38 2.94 2.03 1.02 4.48.76 6.64.4 2.05-.34 4.32-.92 5.91-2.32 1.17-1.02.37-2.66-.83-3.13-2.33-.93-4.84.85-7.05 1.39-2.43.6-5.18.88-7.04 2.76-1.15 1.16-.3 3.18 1.33 3.2 1.3.02 2.35-.49 3.57-.82s2.44.07 3.65-.08c2.35-.3 4.1-1.67 6.07-2.85 2.07-1.24.22-4.42-1.89-3.24-.86.48-1.96.35-2.88.67-.99.34-1.78 1.01-2.73 1.42-.88.38-1.93.42-2.87.56-1.19.17-2.25.5-3.35 1-.92.42-1.15 1.75-.67 2.57.55.95 1.64 1.09 2.57.67h0z"/><path d="M366.57 900.35c.4-2.73 2.81-4.57 4.71-6.36 2.01-1.9 4.79-3.29 6-5.89.39-.85.31-1.83-.48-2.42-.67-.5-1.88-.6-2.46.15-2.69 3.47-5.1 7.22-8.38 10.19l2.65 2.65 6.67-6.75c.99-.98 1.98-1.98 3.09-2.83 1.18-.92 2.25-1.79 3.16-2.99l-3.49-.95c.02.38-.02.46-.22.89-.27.57-.64 1.11-1.01 1.62-.62.88-1.33 1.69-2.01 2.53-1.62 1.99-4.36 2.97-5.51 5.36-.75 1.58.86 3.65 2.57 2.57 2.84-1.8 5.59-3.9 7.56-6.67.93-1.31 1.6-2.79 2.53-4.11 1.01-1.44 1.99-2.85 2.59-4.52.73-2.03-2.38-3.25-3.43-1.44-1.74 3-3.02 6.12-5.26 8.81-.91 1.1-1.39 2.26-1.84 3.59-.49 1.44-1.77 2.35-2.54 3.64-1.01 1.69.95 3.37 2.57 2.57 3.14-1.56 4.55-5.02 6.47-7.74.92-1.3 2-2.38 2.73-3.81.38-.75.71-1.51 1.08-2.26.27-.55.41-.93.97-1.05l-2.37-1.81c0 .08.04.2.02.28.06-.2.03-.16 0 .02-.06.28-.15.55-.25.83-.22.62-.52 1.21-.82 1.79-.55 1.08-1.11 2.31-1.89 3.25-1.22 1.47-2.36 2.86-3.35 4.51-1.07 1.79-2.01 3.63-2.78 5.57-.57 1.45 1.06 2.55 2.31 2.31 2.66-.51 4.45-3.45 5.83-5.52 1.56-2.37 3.12-5.01 5.33-6.82l-2.94-2.27c-.32.69-.91 1.12-1.5 1.57-.86.67-1.58 1.35-2.25 2.21-1.42 1.8-2.61 3.77-4.11 5.5-1.58 1.81 1.06 4.48 2.65 2.65s2.83-3.91 4.34-5.79c1.23-1.53 3.27-2.42 4.11-4.26.9-1.96-1.26-3.65-2.94-2.27-2.16 1.76-3.8 4.34-5.31 6.65-.66 1.02-1.31 2.06-2.08 3.01-.62.77-1.36 1.58-2.11 1.72l2.31 2.31c.73-1.85 1.73-3.61 2.78-5.3.5-.8.98-1.59 1.62-2.29s1.32-1.45 1.83-2.29a38.15 38.15 0 0 0 1.76-3.27c.57-1.2 1.36-2.72 1.21-4.1-.14-1.26-1.08-2.07-2.37-1.81-1.85.37-2.81 1.86-3.53 3.46-.7 1.55-1.48 2.85-2.56 4.15-1.1 1.33-1.95 2.82-2.88 4.27-.84 1.32-1.75 2.64-3.19 3.36l2.57 2.57c.84-1.41 2.1-2.35 2.7-3.93.47-1.24.72-2.07 1.58-3.09 2.3-2.72 3.59-5.96 5.36-9.01l-3.43-1.44c-.48 1.32-1.42 2.48-2.22 3.63-.87 1.24-1.51 2.6-2.35 3.85-1.58 2.35-4.04 4.1-6.4 5.59l2.57 2.57c.57-1.19 1.81-1.86 2.83-2.63 1.04-.79 1.85-1.69 2.68-2.69 1.54-1.87 3.92-4.35 3.75-6.98-.13-1.96-2.38-2.41-3.49-.95-.72.95-1.81 1.63-2.74 2.36-1.15.91-2.17 1.96-3.21 2.99l-6.38 6.46c-1.72 1.72.87 4.26 2.65 2.65 3.28-2.97 5.68-6.72 8.38-10.19l-2.94-2.27c-.59 1.28-1.76 2.16-2.84 3.02-1.1.88-2.18 1.73-3.18 2.71-2.16 2.1-4.6 4.26-5.06 7.42-.15 1 .25 2.01 1.31 2.31.88.24 2.16-.3 2.31-1.31h0zm25.17-10.54l-.11-9.49-.16-3.36.02-.76c0-.12.11-.84.03-.44l.13-.56c.06-.34-.11.17-.02.07.05-.06-.33.32-.38.36l-1.44.19c.29.07-.44-.23-.17-.08s-.36-.32-.12-.08c.21.2-.16-.39-.06-.08.02.08.09.16.13.23.05.08.08.17.13.26-.23-.45-.04-.1 0 .03l.24.83.17.86.07.42c-.06-.4.01.12.02.2l.13 2.13-.04 2.06-.08.99-.02.18-.08.49c-.09.53-.27 1.02-.39 1.54-.09.37.19-.3 0 0-.05.08-.11.2-.15.28-.16.38.29-.24-.1.09l3.2 1.33c.19-4.74.84-9.41 2.21-13.96l-3.13.83c.11.09.43.48.23.19.07.11.3.59.17.26a4.76 4.76 0 0 1 .2.74c.06.3-.02-.27.01.04l.03.38c.07 1.16-.07 2.17-.25 3.18-.38 2.13-1.08 4.24-1.21 6.41h3.75c-.03-1.24.26-2.42.57-3.61.27-1.02.49-2.13.95-3.09 1.1-2.23 2.72-4.22 2.56-6.85-.15-2.4-3.64-2.42-3.75 0-.1 2.08-.2 4.15-.72 6.17-.53 2.06-1.49 3.97-1.35 6.15.06.93.67 1.73 1.63 1.84.84.1 1.9-.41 2.06-1.34.52-3.16 1.48-6.22 2.33-9.31l-3.43.45c.14.21-.2-.54-.08-.17s.01-.41 0-.03c-.01.29.02.58.02.87 0 .85-.06 1.7-.12 2.54l-.36 4.13h3.75c-.14-1.63.74-3.07.99-4.65.3-1.9.05-3.8.08-5.71.04-1.82-2.62-2.6-3.49-.95-1.66 3.15-2.68 7.22-2.31 10.78.1 1.01.79 1.88 1.88 1.88.93 0 1.98-.86 1.88-1.88-.3-2.94.44-6.32 1.8-8.89l-3.49-.95c-.04 1.73.33 3.58-.06 5.28-.4 1.72-1.18 3.26-1.02 5.08.21 2.39 3.59 2.43 3.75 0 .1-1.51.28-3.02.39-4.53.09-1.37.46-3.48-.35-4.7-.87-1.32-2.99-1.17-3.43.45-.84 3.09-1.81 6.15-2.33 9.31l3.68.5c-.13-2.01.95-3.87 1.37-5.8.47-2.15.6-4.34.7-6.53h-3.75c.14 2.21-1.78 4.13-2.55 6.11-.42 1.09-.69 2.26-.97 3.39-.33 1.31-.6 2.68-.56 4.04.07 2.43 3.6 2.4 3.75 0 0-.11.02-.21.03-.32.02-.26-.06.35-.01.07l.13-.72c.11-.56.24-1.12.36-1.68.28-1.28.57-2.55.75-3.85.34-2.43.55-5.58-1.54-7.35-1.07-.91-2.7-.6-3.13.83-1.47 4.85-2.15 9.9-2.35 14.96-.07 1.76 2.04 2.3 3.2 1.33 1.47-1.22 1.69-3.75 1.85-5.49.22-2.3.13-4.67-.32-6.93-.35-1.74-1.65-5.13-4.08-4.09-2.33 1-1.92 4.75-1.79 6.78.22 3.58.19 7.14.19 10.72 0 2.41 3.75 2.42 3.75 0h0zm-130.11 3.7l-2.21-1.85c-.68-.69-1.04-1.4-1.54-2.26-1.11-1.94-2.61-3.62-3.75-5.55l-2.12 2.75c.21.03.4.09.61.15.18.05-.25-.19 0 .01a2.07 2.07 0 0 0 .25.15c.39.2-.15-.14.04.02.1.08.19.17.29.26.18.17.34.35.5.54.04.05.27.35.08.09l.21.29.45.68.9 1.56c1.03 1.91 1.94 4.13 3.58 5.6 1.18 1.06 3.21.36 3.2-1.33-.01-2.68-1.91-4.55-3.31-6.62-1.47-2.17-2.8-4.74-3.4-7.3l-2.75 2.12c.66.37.98.65 1.55 1.24s.99 1.14 1.44 1.78l2.75 4.36c1.71 2.74 2.69 6.29 5.76 7.86 1.7.87 3.41-.87 2.57-2.57-1.63-3.27-3.77-6.24-5.55-9.43-.55-.99-1.16-1.95-1.74-2.93-.31-.53-.62-1.07-.86-1.64.1.24 0 .02-.03-.1s-.06-.25-.11-.36c-.1-.24.02-.03 0 .11.06-.42-.12.44-.02.08l-3.13.83c2.75 2.18 3.38 5.76 4.98 8.74 1.37 2.54 2.33 6.01 5.06 7.47.95.5 2.57.14 2.75-1.12.43-2.92-1.64-5.69-3.02-8.1-.31-.54-.61-1.09-.88-1.66-.1-.2-.11-.26-.01-.02-.08-.2-.15-.4-.24-.6a17.17 17.17 0 0 0-.63-1.38c-.84-1.63-1.99-3.12-2.6-4.86l-2.75 2.12c.33.18.24.11.41.26.05.05.5.53.35.34.32.41.57.9.78 1.38-.08-.17.17.42.2.5.1.26.19.52.28.78l.53 1.53c1 2.66 2.58 5.21 4.32 7.44.4.51 1.24.64 1.82.48.69-.19 1.05-.68 1.31-1.31.93-2.22.28-5.08-.35-7.29-.66-2.32-1.59-4.74-2.99-6.72-.86-1.21-2.38-1.19-3.24 0-.67.92-.46 2.28-.27 3.31.22 1.23.63 2.42 1.05 3.59.78 2.17 1.68 4.31 2.65 6.4.8 1.71 3.55.84 3.49-.95-.04-1.29-.14-2.57-.38-3.84-.21-1.16-.64-2.22-.95-3.35-.53-1.96-.69-4.31-2.31-5.76-.75-.68-1.91-.74-2.65 0-.69.69-.76 1.97 0 2.65.24.21.27.24.43.58.09.2.27.81.36 1.17.22.84.36 1.7.6 2.53.29.98.65 1.93.86 2.93s.25 2.03.29 3.08l3.49-.95c-.33-.7-.64-1.41-.94-2.11-.02-.04-.18-.44-.09-.21s-.08-.18-.09-.22l-.35-.87-.68-1.76c-.4-1.08-.77-2.18-1.04-3.31-.06-.25-.1-.51-.16-.75-.08-.35.02.29 0 .07 0-.09-.02-.19-.02-.28v-.49c.1.03-.12.53 0 .19-.02.07-.25.47-.07.22h-3.24c1.27 1.79 1.95 3.57 2.55 5.62.16.54.31 1.1.42 1.65l.17.91c.06.39.03.09.06.47.04.51.04 1 .02 1.51 0 .2-.02.15.01-.02-.02.12-.04.25-.08.37a3.84 3.84 0 0 1-.2.6l3.13-.83c-.89-1.14-1.61-2.44-2.31-3.71-.31-.57-.63-1.14-.91-1.73-.13-.28.09.22-.03-.08-.05-.12-.09-.24-.14-.37-.11-.28-.2-.57-.3-.85-.8-2.33-1.66-4.8-3.94-6.09-1.35-.76-3.31.52-2.75 2.12.62 1.78 1.61 3.33 2.54 4.95.7 1.22 1.15 2.55 1.82 3.79l2.02 3.56c.34.65.57 1.1.73 1.56.09.25.14.52.22.77.07.21.03-.34 0 0-.01.13-.04.55.04 0l2.75-1.12c-.41-.22-.73-.55-.99-.92-.43-.6-.79-1.26-1.12-1.91l-1.91-3.86c-1.62-3.11-2.36-6.62-5.26-8.93-1.09-.86-2.7-.64-3.13.83-.4 1.34.29 2.77.91 3.93.58 1.1 1.29 2.12 1.89 3.2 1.9 3.38 4.15 6.56 5.88 10.03l2.57-2.57c-1.29-.66-1.88-1.73-2.58-3.13s-1.46-2.75-2.28-4.1c-1.76-2.89-3.59-6.28-6.64-8-1.46-.82-3.13.53-2.75 2.12.64 2.73 2.03 5.27 3.44 7.67.57.96 1.3 1.81 1.95 2.71.32.45.64.92.89 1.41.18.36.3.86.3 1.14l3.2-1.33c-.17-.15-.33-.32-.49-.49-.03-.04-.29-.36-.14-.16s-.13-.2-.13-.19c-.31-.45-.59-.92-.86-1.4l-1.76-3.27c-1.12-1.99-2.71-4.42-5.17-4.8-.76-.12-1.48.02-1.97.67-.45.6-.54 1.42-.15 2.08 1.18 2.01 2.76 3.75 3.88 5.79s2.46 3.28 4.2 4.62c.8.62 1.87.78 2.65 0 .65-.65.8-2.03 0-2.65h0zm65.96 22.28c4.37-.07 8.68-.99 13.06-1 1.01 0 1.88-.86 1.88-1.88s-.86-1.88-1.88-1.88c-4.38.01-8.68.94-13.06 1-1.01.02-1.88.85-1.88 1.88s.86 1.89 1.88 1.88h0zm91 171.62v-30.68c0-2.41-3.72-2.42-3.75 0-.06 5.51-.88 10.98-.99 16.48-.06 2.79.07 5.59 0 8.38-.07 2.51-1.19 4.85-1.04 7.39.15 2.41 3.62 2.42 3.75 0 .19-3.53-.81-6.92-.98-10.43s0-7.21-.41-10.8-.23-7.05-.74-10.54c-.37-2.55-2.08-5.09-1.89-7.68h-3.75l.55 9.53c.2 3.06.25 6.15.56 9.19.29 2.87.9 5.69.92 8.59v9.86c0 2.41 3.75 2.42 3.75 0v-45.24h-3.75l.08 13.02c-.09 4.16-1 8.25-1.08 12.4h3.75c0-4.12-.22-8.24-.05-12.35.16-4.03.99-8.01 1.06-12.05h-3.75v2.73c0 2.41 3.75 2.42 3.75 0v-2.73c0-2.41-3.71-2.41-3.75 0-.06 4.04-.9 8.01-1.06 12.05-.16 4.11.04 8.23.05 12.35 0 2.42 3.7 2.41 3.75 0 .08-4.16 1-8.24 1.08-12.4s-.07-8.68-.08-13.02c0-2.41-3.75-2.42-3.75 0v45.24h3.75v-9.86c-.02-2.9-.63-5.72-.92-8.59-.31-3.05-.36-6.14-.56-9.19l-.55-9.53c-.11-2.43-3.57-2.4-3.75 0-.2 2.73 1.35 5.16 1.87 7.76.68 3.4.36 7.01.75 10.45.41 3.59.24 7.2.41 10.8.16 3.5 1.18 6.9.98 10.43h3.75c-.15-2.43.91-4.76 1.03-7.18.14-2.85-.05-5.73.01-8.59.11-5.51.93-10.97.99-16.48h-3.75v30.68c0 2.41 3.75 2.42 3.75 0h0zm-63.07-896.1c0-5.6 1.5-9.99 4.51-13.16s6.89-4.75 11.65-4.75c3.12 0 5.92.74 8.43 2.23 2.5 1.49 4.41 3.57 5.72 6.23s1.97 5.68 1.97 9.06-.69 6.49-2.07 9.19-3.34 4.75-5.87 6.14-5.26 2.08-8.2 2.08c-3.18 0-6.02-.77-8.52-2.3a14.85 14.85 0 0 1-5.69-6.29 19.04 19.04 0 0 1-1.93-8.43zm4.61.07c0 4.07 1.09 7.27 3.28 9.61s4.93 3.51 8.23 3.51 6.13-1.18 8.3-3.55c2.17-2.36 3.26-5.72 3.26-10.06 0-2.75-.46-5.15-1.39-7.2s-2.29-3.64-4.08-4.77-3.79-1.69-6.02-1.69c-3.16 0-5.88 1.09-8.16 3.26s-3.42 5.8-3.42 10.88zm32.85 16.37V183.3h3.73v3.71c.95-1.73 1.83-2.88 2.64-3.43s1.69-.83 2.66-.83c1.4 0 2.82.45 4.26 1.34l-1.43 3.84c-1.01-.6-2.03-.9-3.04-.9-.91 0-1.72.27-2.44.82s-1.24 1.3-1.54 2.27c-.46 1.47-.69 3.09-.69 4.84v12.8h-4.14zm15.66 0V174h4.14v33.75h-4.14zm26.52-3.01c-1.54 1.3-3.01 2.23-4.43 2.76s-2.94.81-4.57.81c-2.69 0-4.75-.66-6.19-1.97s-2.16-2.99-2.16-5.03c0-1.2.27-2.29.82-3.28s1.26-1.78 2.14-2.38 1.88-1.05 2.98-1.36c.81-.21 2.04-.42 3.68-.62 3.35-.4 5.81-.88 7.39-1.43l.02-1.08c0-1.69-.39-2.88-1.17-3.57-1.06-.94-2.63-1.41-4.72-1.41-1.95 0-3.39.34-4.32 1.03-.93.68-1.62 1.89-2.06 3.63l-4.05-.55c.37-1.73.97-3.13 1.82-4.2.84-1.07 2.06-1.89 3.66-2.46 1.6-.58 3.45-.86 5.55-.86s3.78.25 5.09.74 2.26 1.11 2.88 1.85c.61.74 1.04 1.68 1.29 2.82.14.71.21 1.98.21 3.82v5.53l.26 7.31c.17 1.02.53 2 1.05 2.94H436c-.43-.86-.71-1.87-.83-3.02zm-.35-9.26c-1.5.61-3.76 1.14-6.77 1.57-1.7.25-2.91.52-3.62.83s-1.25.76-1.63 1.35a3.58 3.58 0 0 0-.58 1.97 3.52 3.52 0 0 0 1.25 2.76c.84.74 2.06 1.1 3.67 1.1s3.02-.35 4.26-1.05 2.16-1.65 2.74-2.87c.45-.94.67-2.32.67-4.14v-1.52zm10.62 12.27V183.3h3.73v3.48c1.8-2.69 4.39-4.03 7.78-4.03 1.47 0 2.83.26 4.06.79 1.24.53 2.16 1.22 2.77 2.08s1.04 1.88 1.29 3.06c.15.77.23 2.11.23 4.03v15.04h-4.14v-14.87c0-1.69-.16-2.95-.48-3.79s-.89-1.5-1.72-2-1.78-.75-2.89-.75c-1.77 0-3.29.56-4.57 1.68s-1.92 3.25-1.92 6.38v13.35h-4.14zm42.09 0v-3.08c-1.55 2.42-3.83 3.64-6.84 3.64-1.95 0-3.74-.54-5.38-1.61s-2.9-2.57-3.8-4.5-1.35-4.14-1.35-6.64.41-4.66 1.22-6.64c.81-1.99 2.03-3.51 3.66-4.57s3.45-1.59 5.46-1.59c1.47 0 2.79.31 3.94.93s2.09 1.43 2.81 2.43v-12.11h4.12v33.75h-3.85zm-13.1-12.2c0 3.13.66 5.47 1.98 7.02s2.88 2.33 4.67 2.33 3.35-.74 4.62-2.22 1.9-3.74 1.9-6.78c0-3.35-.64-5.8-1.93-7.37s-2.88-2.35-4.77-2.35-3.38.75-4.62 2.26c-1.24 1.5-1.85 3.88-1.85 7.12zm21.92-.02c0-4.53 1.26-7.88 3.78-10.06 2.1-1.81 4.67-2.72 7.69-2.72 3.36 0 6.11 1.1 8.24 3.3s3.2 5.25 3.2 9.13c0 3.15-.47 5.62-1.42 7.43a9.99 9.99 0 0 1-4.12 4.2c-1.8 1-3.77 1.5-5.91 1.5-3.42 0-6.19-1.1-8.3-3.29s-3.17-5.36-3.17-9.49zm4.26 0c0 3.13.68 5.48 2.05 7.03a6.56 6.56 0 0 0 5.16 2.34c2.08 0 3.77-.78 5.13-2.35 1.37-1.57 2.05-3.95 2.05-7.16 0-3.02-.69-5.32-2.06-6.87-1.37-1.56-3.08-2.34-5.12-2.34a6.64 6.64 0 0 0-5.16 2.33c-1.37 1.55-2.05 3.89-2.05 7.02zm-205.81 811.05c1.28.01 2.56-.18 3.84-.2l.87.02c.52 0-.36-.07.11.01.27.04-.07-.01.13.02.16.02-.11-.13.1.06l.37.33c.37.32.72.56 1.17.75 1.09.45 2.26.81 3.38 1.17 1.24.4 2.62.78 3.91.45.98-.26 1.58-1.34 1.31-2.31-.27-.99-1.32-1.57-2.31-1.31-.32.08.43.04.05 0-.1-.01-.24-.03-.33 0-.19.03.34.08 0 0l-.47-.1a19.16 19.16 0 0 1-1.68-.51l-1.73-.62-.63-.2c-.21-.06.09.19-.14-.06.18.19.04.02-.07-.07-1.22-1.11-2.53-1.4-4.14-1.38l-3.75.2a1.92 1.92 0 0 0-1.88 1.88 1.92 1.92 0 0 0 1.88 1.88h0zm68.77 1.31c.02-.07.06-.16.07-.24 0 .09-.25.48-.08.21l.13-.21c.18-.32-.3.33-.08.1l.83-.8c.24-.2-.39.29.02 0l.25-.18.64-.41 1.34-.74 1.41-.66c-.48.24-.16.07-.03.02l.41-.16.65-.24 1.22-.37a5.23 5.23 0 0 1 .54-.12l.21-.04c.3-.06-.58.06-.19.03l-1.81-1.38.23 1.18c.19.96 1.39 1.6 2.31 1.31 1.03-.33 1.51-1.27 1.31-2.31l-.23-1.18c-.14-.74-1.04-1.45-1.81-1.38-2.17.2-4.3 1.13-6.21 2.11-1.06.54-2.06 1.18-2.98 1.94-.78.65-1.53 1.52-1.76 2.53-.21.95.29 2.07 1.31 2.31.95.22 2.08-.29 2.31-1.31h0zm-23.52 36.26c0 1.23.13 2.46.19 3.69.05 1.12.06 2.22-.14 3.15-.5 2.34-1.44 4.47-1.42 6.91.02 2.41 3.77 2.42 3.75 0 0-1.15.18-2.05.53-3.21l.85-3.17c.42-2.46.01-4.9 0-7.38-.02-2.41-3.77-2.42-3.75 0h0zm.06 29.77c-.11.64-.34 1.25-.59 1.84l.19-.45c-.38.89-.8 1.77-.97 2.73-.09.51-.08.99.19 1.44.23.39.67.76 1.12.86.48.11 1.02.09 1.44-.19.39-.25.78-.65.86-1.12.11-.64.34-1.25.59-1.84l-.19.45c.38-.89.8-1.77.97-2.73.09-.51.08-.99-.19-1.44-.23-.39-.67-.76-1.12-.86-.48-.11-1.02-.09-1.44.19-.39.25-.78.65-.86 1.12h0zm10.94-16.01v4.13a1.95 1.95 0 0 0 .55 1.33c.34.34.86.57 1.33.55s.99-.18 1.33-.55.55-.82.55-1.33v-4.13a1.95 1.95 0 0 0-.55-1.33c-.34-.34-.86-.57-1.33-.55s-.99.18-1.33.55-.55.82-.55 1.33h0z"/></svg>