<svg id="Layer_1" data-name="Layer 1" xmlns="http://www.w3.org/2000/svg" xmlns:xlink="http://www.w3.org/1999/xlink" viewBox="0 0 419.53 595.28"><defs><style>.cls-1,.cls-7{fill:none;}.cls-2{clip-path:url(#clip-path);}.cls-3{fill:#00a79d;}.cls-4,.cls-5,.cls-6,.cls-7,.cls-8{stroke:#000;stroke-linecap:round;stroke-linejoin:round;}.cls-5{fill:#fff;}.cls-6{fill:#ec008c;}.cls-8{fill:#ee2a7b;}.cls-9{fill:#020303;}</style><clipPath id="clip-path"><rect class="cls-1" x="-3.65" y="-10.22" width="430.18" height="617.36"/></clipPath></defs><g class="cls-2"><rect class="cls-3" x="-2.43" y="-10.22" width="428.96" height="618.16"/><path class="cls-4" d="M100.88,165.55a17.12,17.12,0,0,1-3.57,1.39c-8,2.07-15.62,5.16-23.77,6.44a114.32,114.32,0,0,0-12.16,2.46c-4.57,1.25-8.74,3.57-13.38,4.72a17.9,17.9,0,0,0-7.87,4.81,40.17,40.17,0,0,1-8.78,6.06c-3,1.63-5.8,3.84-9,5a16,16,0,0,0-4.52,2c-3.15,2.14-5.74,4.83-9,6.76a23.43,23.43,0,0,0-4.64,3.12,44.17,44.17,0,0,0-8.21,9.29c-5.37,8.75-5.54,17-.12,26.46,4.2,7.3,16.73,9.68,23.75,9.05a24.42,24.42,0,0,0,6-1.81c2-.74,4.17-1.16,6.12-1.95,5.11-2.08,9.65-5.33,14.76-7.38,2.61-1,5.13-3,7.61-4.41a53.64,53.64,0,0,0,7.34-4.68,44.32,44.32,0,0,1,6.19-4.54,15.11,15.11,0,0,1,3.58-1.27,28.79,28.79,0,0,0,6.2-2.58c3.86-2,7.72-4,11.5-6.21,4.85-2.78,9.94-5.22,14.84-7.89,2.13-1.17,5.51-2.38,5,1.49-.3,2.25-2.24,4-3.72,5.84-1.35,1.69-3.2,2.78-4.78,4.32A17.83,17.83,0,0,1,95,225.88a36.45,36.45,0,0,0-9.33,6.64c-2.8,2.59-7.11,5.16-5.71,9.45.71,2.22,3.14,4.35,4.44,6.33,1.07,1.61,2,3.28,3,5a37.88,37.88,0,0,0,6,8.42c4.18,4.18,9.23,6.89,14,10.25,4.42,3.09,9.8,7.91,10.56,13.58a11.72,11.72,0,0,0,1.51,4.22c.65,1.33.71,2.54,2,3.52,1,.8,2.42.8,3.59,1.11,1.55.41,3.05,1.37,4.64,1.65,5.06.87,10.39-.72,15-2.59,2.84-1.17,5.66-2.29,8.53-3.35,3.8-1.39,7.29-3.81,10.85-5.74,6.3-3.4,12.91-6.63,18.87-10.62,1.75-1.17,2.85-3,4.46-4.35s3.91-2.4,5.44-3.86,2.28-2.67,4.19-3.81a24.41,24.41,0,0,1,7.55-2.92c5.66-1.35,10.58-5,16-7.09a37.81,37.81,0,0,0,10-5.46c1.73-1.37,3-2.95,5-4a8.91,8.91,0,0,0,2.75-1.94c1.58-1.46,3.38-2.2,5-3.44,1.46-1.1,2.68-2.55,4.07-3.76a97.86,97.86,0,0,1,19-12.62c1.93-1,4.11-1.6,5.88-2.89a18.37,18.37,0,0,0,3.86-4.44c2.36-3.18,5.83-5.67,9-8,2.56-2,3.88-4.48,6-6.74,1.12-1.18,2.53-1.73,3.5-3.15a30.3,30.3,0,0,0,1.8-3.55c1.9-3.82,4.73-7.25,4.86-11.59.11-3.65-.24-7.68-2.87-10.48a8.83,8.83,0,0,0-3.71-2.62c-1.92-.58-3.93-.49-5.59-1.79-1.45-1.14-2.35-2.95-3.41-4.42-5.25-7.35-10.38-12.49-19.87-10.64-12.36,2.42-24.12,6.79-36.74,8.1a211.33,211.33,0,0,1-22.09.64c-4.17,0-7.15-.4-11-2.34-2-1-3.94-1.16-6-1.85-3.35-1.11-6.42-2.9-9.84-3.77-5.9-1.5-12.83-.46-18.91-.46-2.12,0-4.29-.14-6.4,0-5.31.46-10.53,2.48-15.85,3.11-5.83.7-11.65,1.46-17.21,3.48-3,1.1-5.87,2.64-8.9,3.66-2.21.75-4.78.7-6.84,1.81C104.22,163.56,102.65,164.65,100.88,165.55Z"/><path class="cls-5" d="M269.27,581.44c.66,2.94,1.19,6.44.58,9.43a12,12,0,0,0-.29,2.75,74.17,74.17,0,0,1,0,8c-.09,1.09-.42,2.13-.52,3.22-.17,1.78.16,3.58,0,5.34a19.15,19.15,0,0,1-1,3.86c-.26.83-.17,1.5-1.1,1.81s-3,0-4,0H247.21c-4.4,0-9.05.18-13.41-.54a20.34,20.34,0,0,0-3.29-.54c-.55,0-1.92.29-2.32-.08-.67-.6,0-5.5,0-6.17.43-3.87,1.56-7.65,1.49-11.57-.1-5.16,2.33-9.63,5.21-13.65.59-.82.82-1.81,1.67-2.43s1.84-.63,2.69-1.26a32.42,32.42,0,0,0,4.72-5c2-2.35.79-5,1.24-7.91.32-2.08,2.68-7.88,4.84-8.86,3.58-1.63,7.37,1,9.87,3.16,3.19,2.71,4.82,5.87,6.15,9.71.64,1.87,1.47,3.63,2.19,5.47S268.85,579.56,269.27,581.44Z"/><path class="cls-6" d="M324.25,128c0,2.43-4.11-.14-5.11-.5a8.63,8.63,0,0,1-3.37-2.37,49.64,49.64,0,0,1-4.71-4.69c-1.81-2.27-2.88-5.19-4.16-7.78-.57-1.14-1.24-2.22-1.8-3.37s-1.55-2.35-1.35-3.61,1.35-2,2.14-2.73a11.42,11.42,0,0,1,2.92-2.41,12,12,0,0,1,5.53-1.63c2.4,0,4.64-.89,7.12-.49,3.39.56,6.87,1.17,10.29,1.74,5.45.91,10.91,1.66,16.31,3,1.75.42,3.6.42,5.35.75.95.18,1.92.37,2.88.51a64.21,64.21,0,0,0,9.86,1.15,23.22,23.22,0,0,0,4.71-.23c1.18-.24,2.11-.88,3.27-1.19,2.71-.72,5.45-1.21,8.08-2.17,1.3-.47,2.63-.53,3.93-1a31.19,31.19,0,0,0,4.65-2.44c2.3-1.32,4.91-2,7.27-3.16,1.11-.54,2.34-.67,3.46-1.14,1.3-.55,2.43-1.3,3.79-1.78,2.57-.91,4.84-2.56,7.36-3.54,1.59-.61,3.26-.89,4.83-1.58,1.23-.54,2.44-1.11,3.68-1.62,2.19-.88,4.52-1.5,6.77-2.24,1.5-.49,3.87-1,4.6.69a31.27,31.27,0,0,1,1.51,5.58,21.2,21.2,0,0,1,.49,4.58,9.58,9.58,0,0,1-.09,3c-.34,1-1,1.89-1.43,2.87a30.19,30.19,0,0,0-1.65,6.16c-.36,2-.47,3.94-1,5.88a26,26,0,0,0-.42,2.7,29.54,29.54,0,0,1-1.06,2.79c-.46,1.85-1,3.71-1.46,5.56a4.59,4.59,0,0,1-2.95,3.83,20.78,20.78,0,0,1-3.55,1.32c-1.93.59-3.81,1.51-5.77,2-3.73.86-7.92.87-11.72,1.21-2.11.19-4.24,0-6.35,0-3.07.06-6.1.57-9.17.55s-6.3,0-9.45,0c-2.57,0-5.07.37-7.63.53-4.06.24-8,1.36-12.06,1.93-3.48.48-7,1.36-10.51,1.64-1.84.15-3.65.49-5.49.52a36.17,36.17,0,0,0-6.16.25c-2.95.56-5.7-.26-8.64-.26a19.62,19.62,0,0,1-5.9-1.36A31.22,31.22,0,0,1,310.47,128"/><path class="cls-7" d="M320.68,105.77c1.22-.11,1.33,1.19,2.26,1.57.58.23,1.67.33,2.33.54a34.91,34.91,0,0,0,6.71,1.76c1.14.11,2.32-.21,3.46-.08a38.5,38.5,0,0,1,4.16,1c2.22.53,4.33,1.5,6.48,2.13,1.43.41,3,.47,4.43.73a20,20,0,0,1,3.7,1.4,62.24,62.24,0,0,0,7.09,1.89c2.13.56,4,1.36,6.28,1.34a17.49,17.49,0,0,0,7.51-1.56c1.2-.5,2.39-.5,3.59-.89s2.17-1.17,3.29-1.61,2.3-.44,3.33-.95c1.46-.73,2.64-1.8,4.19-2.49,2.32-1,4.62-2.17,7-3,2.17-.78,4.41-1.37,6.51-2.17a48.54,48.54,0,0,1,6.72-2.43c2.62-.59,4.94-1.62,7.49-2.34a39.23,39.23,0,0,0,6.9-2.65c1.35-.65,5-1.42,5.24-2.69l-.69-.17"/><path class="cls-7" d="M303.06-24.45C301.62-23.3,301-18,300.9-16.9c-.38,3.8-.12,7.67-.15,11.49C300.7.92,302.26,6.53,303,12.73c.78,6.44-.21,13.25,0,19.74.11,2.77.8,5.47.82,8.27,0,2.63,0,5.26,0,7.89,0,1.3,0,2.6,0,3.9a8.48,8.48,0,0,1-.6,2.85c-.26,1-.13,1.9-.34,2.88a21.5,21.5,0,0,1-2.44,6.46C297.33,70,294,75.26,291.67,81c-2,5.1-7,29.72-3.16,30.11"/><path class="cls-8" d="M290.72-1.53A71.35,71.35,0,0,0,291.55,9a54.72,54.72,0,0,0,2.34,8.35c1,3.05.73,6.32,1.34,9.44.91,4.56-.21,9.34.77,13.87.41,1.9.08,3.78.55,5.7a6.36,6.36,0,0,1,.28,3.33c-.84,3.86-3.67,7.5-4.94,11.24-.84,2.49-2.9,7-1.76,9.61,2.88-4.35,4.57-10.91,4.6-16.17-1.73,5.93-3.14,12-4.74,17.92a40.22,40.22,0,0,0-1.48,10.39,32.68,32.68,0,0,1,.06-6.1,44.1,44.1,0,0,1,2.24-6.9c1.68-4.77,1.75-8.88,2.38-13.68-2.25,3.43-3.77,9.34-4.49,13.34-.68,3.75,0,7.66.37,11.41.32,3.18.84,6.33,1.27,9.5a35.69,35.69,0,0,0,.47,4.17c1.08,4.13,6.19,6.54,9.6,8.32,2.94,1.55,7,.56,10.34,1.32,4.72,1.07,8.71,4.32,13.68,4.68,1.48.11,3,0,4.44.2,2.34.38,4.43,1.54,6.67,2.28s4.53,1.1,6.59,2.19c2.25,1.19,4.81,1.21,7.27,1.9a22.14,22.14,0,0,0,5.81,1.18,28.23,28.23,0,0,1,4.63.68c2.88.49,6.16.07,9.09.07,1.41,0,2.81,0,4.22,0,1.61,0,2.07-.49,3.4-.81,1.59-.37,2.47.06,4.06-.71a48.49,48.49,0,0,1,4.43-2.12c2.82-1,5-3,8-3.68a36.6,36.6,0,0,0,7.59-2.67c1.74-.85,3.66-1.15,5.49-1.87,3-1.15,5.65-2.71,8.82-3.38,2.93-.61,5.85-1.71,8.81-2.38,1.05-.24,2.44-.43,3.45-.75s1.69-1.14,2.83-1.4a13.31,13.31,0,0,0,2.67-.73c1.4-.6,1.06-.33,1.37-1.71,1.33-6,.23-12.13,1.75-18a41.08,41.08,0,0,0,1.26-8.4c.17-3.69-.4-7.46.21-11.12A56.05,56.05,0,0,0,437.87,47c-.1-5.54.89-11,1.36-16.49a83.49,83.49,0,0,1,1.11-10.48,69.55,69.55,0,0,0,1.23-7.35c.38-3.76-.7-8.2.09-11.88.73-3.41,1.69-7.19,1.57-10.77S442-13,438.59-13c-8.8.08-17.55-.83-26.36-.78-20.45.12-40.89-.73-61.33-.74-7.8,0-15.58,2.45-23.34,1.69-5.47-.53-10.64-2-16.18-2.28a63.65,63.65,0,0,1-16.73-2.7c-1.73-.56-1.65-.91-2.4.53-1.51,2.87-1.39,6.66-1.48,9.78C290.72-5.5,290.69-3.51,290.72-1.53Z"/><path class="cls-4" d="M321.13,528l-.63-.13c-1.24-4.22,1.72-7.68,4.43-10.57,2-2.17,4.24-4.19,6.32-6.32,3.06-3.15,7.25-5.08,10-8.58,1.24-1.62,2.15-3.43,3.53-4.95,4.44-4.89,10.81-7.47,15.76-11.78,2.19-1.9,4.09-4.12,6.63-5.59,6-3.49,12.73-5.93,18.88-9.16a86.17,86.17,0,0,0,9.34-5.88c3.38-2.4,7.17-3.91,10.57-6.2a51.49,51.49,0,0,1,10.08-5.6c4.29-1.73,9.3-3.26,12.95-6,2.4-1.78,8.5-5.9,11.6-4.7,1.32.52,2.2,2.58,2.69,3.75,3.4,8-2.18,17-5.89,24-1.64,3.09-2.43,6.53-4.1,9.55-1.32,2.37-2.75,3.25-2.86,5.94-.28,6.61.84,13.7-1.53,20-.77,2-1.78,4-2.36,6.06a25,25,0,0,0-.76,4.37c-.12,1.44.49,4.21-.27,5.3-1.57,2.25-9.84,1.17-12.41.93a77,77,0,0,1-19.48-4.6c-4.44-1.69-8.79-2.31-13.46-.82a44,44,0,0,0-6,2c-3.5,1.72-7.11,2.43-10.88,3.54-2.55.76-4.82,1.94-7.43,2.49-5.41,1.15-10.2,2.89-15.76,2.89H327.22c-.75,0-1.5,0-2.26,0-1.14,0-2.12.61-3.06.65-1.58.06-4.21-1.94-3.83-3.72"/><path class="cls-5" d="M55.62,108.85c-3.72.9-7.55.75-11.43.75-2,0-4.28.24-6.32,0-5-.5-8.6-5.65-9.82-10-.33-1.18-1.26-3.92-.83-5.29S29,92.28,30.35,91.6c4.41-2.17,10-3.12,14.84-3.93a83.11,83.11,0,0,1,14.24-1c2.24,0,4.49,0,6.74,0,5.15.06,9.21,7.15,6.58,11.63C69.59,103.62,61.42,107.44,55.62,108.85Z"/><path class="cls-5" d="M42.64,98.87c-.23,1.07-2.1,3.23-2.86,4a15.42,15.42,0,0,0-3.36,4.71,6.88,6.88,0,0,1-1.8,2.31c-.51.36-1,.27-1.56.6s-.9.94-1.5,1.23c-1.1.54-6.85.59-7.5-.56,1.21-2.68,3.87-4.51,5.91-6.55a97.4,97.4,0,0,0,7-8.49c1.16-1.44,4.8-6,5-1.73a6.34,6.34,0,0,1-.53,3.66c-.94,1.64-2.2,2.63-2.54,4.61"/><path class="cls-5" d="M111.65,263.11v-8.9c0-1.69,0-3.38,0-5.07,0-1.87-.56-3.28-.72-5.08-.11-1.18.11-2.25-.1-3.42-.13-.75-.55-1.71-.73-2.41-.49-1.91-.67-3.94-1.33-5.82-.57-1.63-1.41-2.89-1.89-4.57s-.46-3.19-.83-4.8a61.88,61.88,0,0,0-2.75-8.43c-1.49-3.91-2.25-7.88-3.58-11.81a94.86,94.86,0,0,1-2.93-9.36c-.37-1.64-.56-3.57-.81-5.25-.15-1-.25-1.83-.48-2.78-.35-1.43-1.25-2.67-1.52-4.07a100.27,100.27,0,0,1-1.56-20.07c0-2.42,0-4.85,0-7.28,0-1.47-.41-1.77-.78-3-.58-1.89-.84-4-1.52-6-1-3.07-1.93-6.14-3.06-9.19s-2.28-6.23-3.38-9.33c-1.51-4.25-2.25-8.81-3.57-13.13-1.23-4-2.42-8.06-3.85-12s-1.73-7.66-2.39-11.66c-.6-3.66-1.61-7.28-2.06-11-.42-3.43-.93-6.89.41-10.21a23.17,23.17,0,0,1,6.72-9.32,23.55,23.55,0,0,1,5.5-3.77c2-.91,3.86-2.06,5.83-3a41.83,41.83,0,0,1,7.12-2.6,38.06,38.06,0,0,1,4.35-1.42c2.64-.44,5.68-.08,8.35-.08a54.42,54.42,0,0,1,7.77.1,36.5,36.5,0,0,1,10,3.34c1.2.58,2.21,1.36,3.36,2.05a15.44,15.44,0,0,1,2.4,1.79,14,14,0,0,1,3.19,3.93,23.24,23.24,0,0,1,1.15,3c.1.3.27.79.38,1.13s.43,1.06.54,1.51c.23.95-.19,2,.09,3a9.15,9.15,0,0,1,.4,1.13,4.93,4.93,0,0,1-.3,2.37c-.57,1.87-1.2,3.73-1.66,5.64,0,.09-.57,1.6-.6,1.7a13.28,13.28,0,0,0-.17,1.36c-.15.71-.56.69-.63,1.69a5.75,5.75,0,0,0,.42,1.93c1.1,4.56,2.25,9.1,3,13.74a21.25,21.25,0,0,0,1.14,4.67,66,66,0,0,1,3,11.27c1,4.75,1,9.22,1,14.09,0,3,0,6.08,0,9.12s-.74,5.61-1.36,8.6-.86,6.06-1.52,8.91c-.93,4.06-1.47,8.24-2.48,12.31s-3.76,7.91-3.87,12.26c-.1,4.58.2,8.28,2.17,12.54a56.14,56.14,0,0,1,3.28,9.19c.9,3.48,2.75,6.66,3.16,10.25.2,1.78,1,3.38,1.22,5.11a41.88,41.88,0,0,1,0,4.48c0,2.47-.39,4.58-.58,7a51.11,51.11,0,0,1-.71,5.59c-.24,1.11-.91,2.09-1.14,3.25a97.76,97.76,0,0,1-3.34,11.37c-.79,2.38-.81,5-1.69,7.36a21.36,21.36,0,0,0-1.23,7.74c0,.91.27,1.75.34,2.64.15,1.87-.54,3.77-.88,5.57a80.9,80.9,0,0,0-1.14,8.77,9.63,9.63,0,0,1-.64,2.84c-1.43,4-2.35,8.34-4.63,11.91-1.89,2.94-4.54,3.9-7.48,2.48a10.9,10.9,0,0,1-3.5-2.39c-1.47-1.63-2.48-3.72-3.82-5.5-.85-1.14-1.69-2.2-2.56-3.35-1.24-1.62-2.19-3.41-3.49-5.05-2.06-2.58-4.82-4.44-7.29-6.57-2.18-1.87-4.32-4-6.6-5.71a52.35,52.35,0,0,1-5.3-4c-2.81-2.66-5.8-5.57-7.12-9.39a21.11,21.11,0,0,0-2.86-5.69c-1.21-1.65-1.76-3.81-2.8-5.61-1.24-2.17-2.9-6.14-.07-7.58a7.47,7.47,0,0,1,4.24-.57c.77.09,1.33.55,2.08.68.38.07.85-.16,1.22-.07.55.14.59.57,1.13.7.8.19,1.61.25,2.41.46s1.39.27,2.09.44c1.67.43,3.37,0,5,.29a14.53,14.53,0,0,1,5.23,2.06,10.68,10.68,0,0,1,2.39,1.7c.47.58.65,1.44,1.15,2.06a24.47,24.47,0,0,0,4.31,3.87,61.94,61.94,0,0,0,5.38,3.45"/><path class="cls-8" d="M-17.54,453.94c-1.37,4.19-.82,8.9-.82,13.26v19.35c0,14.13.56,28.13.89,42.24.27,11.21,2,22.35,2.32,33.55.29,11.46-1.48,22.75-1.66,34.18-.05,2.68-1,7.83,1.78,9.65,1.38.93,4,.8,5.58,1,2.34.25,4.68.55,7,.8,6.82.73,13.55,2,20.36,2.85,8.35,1,16.74,1.21,25.1,2.08,7.55.79,14.86,2.65,22.44,3.21,11.91.87,24,0,36,.53,10.49.46,21,.61,31.51.35,6.42-.17,12.82-.76,19.24-.84,4.75-.06,9.5.49,14.25.73,9.59.47,19.16-.58,28.75-.6a36.94,36.94,0,0,1,4.59.21c2.19.25,4.32.84,6.5,1.15,7.26,1,14.6-.13,21.72-1.6,1.78-.37,3.78-.72,5.56-1.25,1-.31,1.06.1,1.54-1a29.45,29.45,0,0,0,1.56-5.62,27.18,27.18,0,0,0,.58-5.33c-.05-2.94.54-5.54.54-8.49,0-2.7.61-5.29.55-8-.05-2.28.86-4.43.9-6.66.09-5.66,2.31-11.73.95-17.36-.29-1.23-.77-1.76-.75-3.33a13.75,13.75,0,0,0-.41-3.71c-.28-1.11-.92-2.49-1.17-3.7s.28-2.42-.83-3.44a11.18,11.18,0,0,1,3.78,4.34c.7,1.31.92,3.12,2,4.21-.32-6-1.1-11.42-4.14-16.84a71.36,71.36,0,0,1-5.28-11.31c-.69-2-1-4.59-2.35-6.17,2.82,4,4.05,9,5.76,13.57,1.34,3.53,2.25,7.81,4.39,11,.44-5.23-1.3-10.37-3.31-15.12-2.36-5.58-4.68-11.55-7.58-16.85,1,5.17,3.35,9.9,5.57,14.64.83,1.78,4.26,12,5.56,11.93-2.36-13.39-11-24.91-16.32-37.22-1.09-2.51-1.62-5.07-3.38-7.09-.81-.93-1.6-1.86-2.38-2.81-.48-.59-1.59-1.33-2-1.88-.57-.83-.79-2.53-1.14-3.48-.57-1.59-1.81-2.75-2.61-4.2a25.25,25.25,0,0,1-2-5.88c-.75-2.92-1.72-5.78-4-7.86-1.74-1.58-3.95-2.53-5.92-3.76a28.18,28.18,0,0,1-3.8-2.83c-5.17-4.61-9.92-9.76-15-14.48-1.76-1.64-3.06-3.49-5-4.93-4.19-3-7.42-7.84-11.83-10.39-1.89-1.09-4.37-1.08-6.38-2.14a40.16,40.16,0,0,0-3.81-1.95c-4.09-1.62-9-1.42-13.21-2.13a73.91,73.91,0,0,0-11.95-.84,99.23,99.23,0,0,0-23.24,3.11c-2,.48-2.91,1.4-4.52,0-1.27-1.13-2-2.2-3.62-2.87-3.23-1.34-6.4-3.1-9.93-3.54s-7.12-.76-10.68-1.44c-3.75-.72-8.08-.18-11.89-.18a35.83,35.83,0,0,0-7.68.4,26.79,26.79,0,0,0-6.21,2.46c-2.41,1.22-4.25,3.23-6.63,4.42-7.55,3.77-15.81,6.05-23.92,8.14a93.73,93.73,0,0,0-16.62,6.45c-5.87,2.82-12.06,4.65-16.69,9.42"/><path class="cls-5" d="M-1,176.27a15.09,15.09,0,0,1,3.92,1.49c1.16.82,2.43,1.3,3.6,2.13,1.81,1.28,2.89,1.92,3.83,3.71a18.66,18.66,0,0,1,1.52,4.14c.75,2.93.68,5.92,1.64,8.85a34.94,34.94,0,0,1,1,4.33c.2,1,0,1.93.23,2.88.34,1.27,1,2.55,1.43,3.79s.38,2.55,1,3.84.69,2.6,1.25,3.89a39.48,39.48,0,0,1,1.69,4.87,21,21,0,0,0,2,5.39c1.31,2.1,4.78,3.79,6.94,2.37s2.86-3.68,3.68-5.84c.72-1.91,2.11-3.2,3-4.88a6.77,6.77,0,0,0,1.16-2.9c.07-1.27,0-2.57,0-3.84a20.66,20.66,0,0,0-.12-4.24,14.31,14.31,0,0,0-.47-2.06c-.3-.66-1.07-.93-1.47-1.49-.63-.88-.64-2.18-1-3.24-2.07-5.59,1.61-12.68,3.7-17.79a10.13,10.13,0,0,0,.93-5.85A12.42,12.42,0,0,0,37,172.25c-2.07-3.81-5.25-5.59-9.29-6.55-1-.25-2.06-.45-3.06-.78-2.83-.91-5.39-1.81-6.59-4.62-.31-.74-1.24-1.22-1.44-2s.2-1.18-.46-1.81c-.47-.45-1-.49-1.51-1a21.33,21.33,0,0,0-2.25-2.31A3.38,3.38,0,0,1,11,151.37a8.1,8.1,0,0,0-.5-1.35,3.78,3.78,0,0,0-1.94-1.44c-2.45-1-5.06-.82-6.8-3A12.1,12.1,0,0,1,.58,143c-.88-1.79-1.87-3.16-4-3.2-1.07,0-2.15,0-3.22,0-1.54,0-1.84-.26-1.89,1.34a24,24,0,0,0,0,5.22c.22,1.07.84,1.23,1.49,2.17a4.84,4.84,0,0,1,1.24,2.57c0,1.34-.82,1.37-1.75,2.07-1.56,1.17-2.72,3.71-3.21,5.52-.57,2.12-2,3.83-2.48,6a5.85,5.85,0,0,0,3.59,6.82C-6.6,172.84-4.26,175.21-1,176.27Z"/><path class="cls-5" d="M406.47,216.48c0,2.12-.06,4.24,0,6.36s.53,4,.72,6.1c.21,2.39-.1,4.75.22,7.13a95,95,0,0,0,2.3,10.69,9.49,9.49,0,0,1,.43,2.59c0,.93-.41,1.8-.51,2.72-.36,3.37.35,7.11.81,10.45,1,7,2.61,13.94,4.26,20.83.64,2.7,1.35,5.62,1.77,8.34a49.49,49.49,0,0,0,2.29,8.69c1.49,4.41,2.82,9.11,3.9,13.68a69.81,69.81,0,0,1,2.21,16.56c-.06,7.92,0,15.84,0,23.76,0,3.43.69,6.65.8,10,.05,1.87-.09,3.6.14,5.49.29,2.47,0,5.7.64,8.07.33,1.2,1.12,2.36,1.57,3.58a34.46,34.46,0,0,0,2.23,5.4,20.17,20.17,0,0,0,3,3.91c.91,1,1.24,2.85,2.46,3.52.94.53,5.12,1.51,5.85.64.54-.63.72-3.81.82-4.64a31,31,0,0,0,.07-3.61c0-4,0-8,0-12,0-3,.32-6.17,0-9.14-.17-1.78-.79-3.43-.85-5.25-.09-2.67.22-5.37.08-8-.19-3.53-.8-6.88-.81-10.43,0-2.12,0-4.24,0-6.36s.53-4,.71-6.1c.71-8.46.06-17.25.06-25.74V290.14c0-6.88-.82-13.65-.78-20.5s0-13.59,0-20.38a63.51,63.51,0,0,0-.05-6.9c-.34-3.08-1.26-6-1.42-9.12-.36-7-.85-13.67-.82-20.68a12.25,12.25,0,0,0-1.51-6.6c-1.46-3.14-1.87-6-2.71-9.42-1.09-4.43-2.52-8.17-6.12-11.2-1.95-1.64-3.9-3.33-6.5-3.78a34.4,34.4,0,0,0-5.65,0c-4.64,0-9.27-1-13.11,2.27-2.46,2.08-4.55,4.95-3.44,8.25,1,3.14,3.43,5.7,4.56,8.84A46.39,46.39,0,0,1,406.47,216.48Z"/><path class="cls-5" d="M377.39,298.71a42.18,42.18,0,0,0,1.5-11.43,42.75,42.75,0,0,1,.7-6.41c.2-1.53,0-3.06,0-4.6.17-3.65.8-7.12.79-10.83,0-5.68-.2-11.41,0-17.08.11-3.55,1.41-6.92,1.6-10.45.16-3.09-.39-6.29-.08-9.37.17-1.81.77-3.49.84-5.33.09-2.47,0-5,0-7.43,0-4.12,0-8.23,0-12.35,0-3.22-.73-6.25-.78-9.44,0-1,0-2,0-3-.11-3.73-1.52-9.39-3.93-12.32-.94-1.14-2.21-1.17-3.29-2-2.32-1.82-3.84-5.22-5.91-7.42-1.78-1.88-2.66-4.56-4.68-6.16-2.25-1.78-5.22-2.17-7.77-3.22-7.43-3.05-14.48-7.23-21.67-10.84-8.91-4.48-17.68-8.15-27.54-8.85-4.49-.32-8.69-2.08-13.19-2.22-3.08-.1-3.69-.3-5.47,2.68-.85,1.43-1.84,2.51-2.74,3.85-2.19,3.27-2,7.85-2.56,11.64-.77,5.06-1.66,10.17-1.22,15.3,1,12,.94,23.95.94,36.08v31.64c0,8.91-.66,18.17.21,27q.62,6.38,1.33,12.74c.76,6.84,1.57,13.67,2.39,20.51.77,6.51,1.19,13.21,2.49,19.63.75,3.76,2.32,7.21,3.2,10.92,1.37,5.82,1.91,11.93,3.1,17.82.95,4.67,1.31,9.52,2.66,14.11,1,3.31,2.32,6.51,3.55,9.74a75,75,0,0,0,3.55,9c.42.79.48,1.68.87,2.41s1.15,1.28,1.43,2.29c.6,2.14.92,4.63,1.47,6.87.42,1.7,1.14,3.36,1.42,5.1.2,1.21,0,2.31.26,3.47.38,1.69,1.21,3.13,1.42,4.89s.6,3.15.94,4.74c.69,3.23,1.42,6.41,2.11,9.64s1.06,6.4,2.61,9.36c.89,1.7,1.69,3.44,2.54,5.14,1.94,3.89,4.61,7,6.87,10.66a57.08,57.08,0,0,0,4,6.12c1.23,1.5,3.07,2.72,4.07,4.38.52.86.36,1.46.72,2.27,1.22,2.77,2.82,5.28,3.91,8.14,1.25,3.29,5.48,7.53,5.2,11.17a10.28,10.28,0,0,1-1.14,2.73,47.37,47.37,0,0,1-3.3,6,61.4,61.4,0,0,1-8.52,10.37c-2.88,2.86-6.11,5.29-9,8.14s-6.13,4.59-9.14,7.22a24,24,0,0,0-5.67,6.87c-.58,1-1.91,2.18-1.54,3.47a9.2,9.2,0,0,0,2.46,2.49c1.81,1.29,3.91.42,5.38,2.26a20.07,20.07,0,0,0,2.11,2.52,10,10,0,0,0,7.36,2.36c6.7-.14,16.26-2.71,21-8.34,1-1.22,2.25-1.82,3.37-2.91,1.45-1.42,1.79-3.49,3.11-4.94a24.22,24.22,0,0,1,3.46-2.57c1.08-.81,2.12-1.73,3.21-2.58a11.79,11.79,0,0,1,3.7-1.7,75.54,75.54,0,0,1,8.41-2.15c2.88-.71,6-1.4,8.23-3.43,2.08-1.87,3-4.94,3.24-7.48.15-1.45.8-2.23.78-3.81s0-3.07,0-4.6a19.5,19.5,0,0,0-.37-5c-.77-3.09-2-6.06-2.62-9.16-.75-3.77-1.05-7.62-2.37-11.26-.63-1.73-.44-3.26-.7-5-.49-3.31-2.67-6.37-1.86-9.81.26-1.11.83-2.14,1.12-3.25.89-3.48.13-7.34-.15-10.83a50.71,50.71,0,0,0-1.88-9.23,17.51,17.51,0,0,1-.34-3.88c-.08-1.38-.73-2.45-.8-3.83-.66-12.07.75-24-2.26-35.94-1-4.08-1.75-8.68-4-12.31-1.46-2.35-2.32-4.87-3.88-7.28a29.54,29.54,0,0,1-2.1-4.67,17.64,17.64,0,0,1-1.45-3.12c-.54-2.69.56-6.11,1.41-8.62,1.37-4,3.47-7.8,4.83-11.89s3.2-8,4.4-12.14c1-3.43,3-6.54,4.16-10C375.08,306.25,376.41,302.52,377.39,298.71Z"/><path class="cls-7" d="M255.91,570.9c.38,1.31,1.49,2.37,2,3.76a39.71,39.71,0,0,1,1.49,6.61c.47,2.77,1.61,5.41,2.14,8.15.45,2.29-.34,4.82.35,7,2.61-1.26-3.55-13.19-4.15-14.78-.69-1.82-.7-3.79-1.43-5.52-.61-1.44-2.18-5.55-3.4-6.54a21.67,21.67,0,0,1,2.28,6.71c.42,2.59,1.69,4.72,2.62,7.11,1.11,2.83,3.1,7.77,2.09,10.8-1.84-3.06-2.05-8-3.13-11.39s-2.85-8-2.49-11.59c-.08,5.5,2.45,10.09,3.75,15.33a23.79,23.79,0,0,0,1.19,4.77c.55,1.19,1.75,2.19,1.56,3.64-1.13-.84-1.33-1.87-1.72-3.1-.89-2.75-1.5-5.67-2.3-8.45s-1.45-7.7-3.16-10a18.73,18.73,0,0,0,1.54,7.15,28.15,28.15,0,0,1,1,6.4,41.08,41.08,0,0,0,1.26,6.28c.37,1.28,1.1,2.53,1.07,3.89.32-6.16-2.69-12.11-2.5-18.27,0,7.39,0,14.78,0,22.17V588.2"/><path class="cls-7" d="M239.44,595.61a80.21,80.21,0,0,0,2.88-9.51,15.34,15.34,0,0,1,1.28-3.44c.11,1.5-.45,2.56-.68,3.93-.19,1.11-.09,2.17-.37,3.26-.53,2.08-.68,6.44-2.12,8.07-.92-1.62,1-6.17,1.41-7.84.41-1.91-.74-5.6.25-7.31,1.69,2.11.64,6.31.65,8.9v.82c0-2.4-.72-6.19.18-8.39,1.67,3.28.64,8.42.64,12.09,0-3,.73-5.76.8-8.81.08-3.5.85-6.81.85-10.36,0,6.38-.31,12.84,0,19.21-1.41-4.14-.87-8.64-.87-13"/><path class="cls-7" d="M124,202.71c.3-1-.43-1.15-.7-1.92-.48-1.41-.36-3.65-.66-5.21-.49-2.58-.43-5.21-.85-7.79-.16-1-.22-3.95-1.07-4.55-.25,1.77.78,4.66,1.07,6.41.26,1.59.65,3.11.85,4.71s.57,3.06.87,4.62c.16.83.14,3.66,1,4.21.61-1.61.06-3.77-.18-5.45-.39-2.67-.69-5.34-1.22-8-.45-2.27-.34-4.63-1-6.85-.36-1.24-.55-3.73-1.4-4.68a24.13,24.13,0,0,0,0,8.6c.39,2.3.23,4.69.68,7a29.5,29.5,0,0,1,.49,4.49c0,.91.28,3.67,1.3,4,.17-2.15-.76-4.14-1.11-6.22s-.38-4.08-.82-6.11c-.41-1.84-.89-3.66-1.22-5.52-.27-1.51-.07-3.3-.89-4.66-.16,4.15,1.57,8.48,2.28,12.54a49.15,49.15,0,0,1,.46,5.08c.1,1.29.7,2.45.74,3.74-.08-3.08-.62-6-.67-9.06a27.87,27.87,0,0,0-1.22-7.27,12.65,12.65,0,0,1-.87-4.32,44.78,44.78,0,0,0,.13,5.31c.27,1.71,1,3.27,1.27,5a11.19,11.19,0,0,0,.83,3.83,13.85,13.85,0,0,1,1.19,2"/><path class="cls-7" d="M132.81,195.21a11.25,11.25,0,0,0,1.29,2.49,14.78,14.78,0,0,1-3.47-3.54c-1.14-1.48-1.56-3.46-2.62-5-.42-.62-1.41-1.17-1.31-2,1.83,1.58,3.13,4.38,4.59,6.35,1.1,1.48,1.78,3.94,3.4,4.85-1-2.13-2.38-4-3.25-6.26-.77-2-1-4.15-2.55-5.7,1.53,2.37,2.64,5.08,4,7.57.89,1.69,1.35,3.63,2.44,5.19a26.64,26.64,0,0,0-2.19-4.73c-1-1.91-1.63-4.53-2.89-6.23-1,2.05,2.5,5.66,3.38,7.57,1.12,2.4,1.92,5,3.22,7.32.43-.11-5.82-11.8-7.19-13.17,1.16,1,1.77,2.7,2.53,4,.49.8,1.19,2.64,1.91,3.18a2,2,0,0,0-1.24-2.54"/><path class="cls-7" d="M112.33,268.2c-1.32-1.06-.68-3.6-.68-5.09,0-2.11-.25-4.32.72-6.28-.07,3.05,1,9.6-2,11.87-.48-1,.47-3.27.71-4.37.35-1.62,1.73-3.91,1.09-5.5-1.3,1.22-2.17,4.71-1.92,6.46-.19-2.62.65-5.17.68-7.81V268a58.1,58.1,0,0,1,.71-11.19c-.11,3.33,0,6.66,0,10"/><path class="cls-7" d="M102.84,214.29c-.08,1,2.45,3.36,3.11,4.09,1.65,1.81,3.68,3,5.32,4.77,3.39,3.62,8,6.55,12.29,8.91,1.66.91,3.34.91,5.09,1.29,1.93.42,3.79,1.54,5.79,1.93a23.84,23.84,0,0,0,5.54.15c2.05-.12,2.74-1.43,4.43-2.5-.22.32-.36.78-.56,1.12"/><path class="cls-7" d="M109.06,221.79c-1.12,1.05-.37,1.88-.08,3.1.47,2,.88,4.18,1.16,6.23a24.64,24.64,0,0,0,1.4,6A14.12,14.12,0,0,1,112.8,242l0-.46"/><path class="cls-7" d="M111.54,223.83c0,7.26,3.11,13.7,3.11,20.93v-3.21"/><path class="cls-7" d="M115.27,227.92c-.06,1.09.52,1.86.65,2.89.1.77-.11,1.53,0,2.31.33,1.9.68,3.78,1,5.68A55.78,55.78,0,0,1,118.37,249"/><path class="cls-7" d="M122.72,230.64c0,6.19.62,12.21.62,18.4"/><path class="cls-7" d="M124.59,233.37c.18,2,.61,3.91.63,6s-.19,4.07,0,6.06a55.38,55.38,0,0,1,.57,6.7V249"/><path class="cls-7" d="M136.39,235.41c-.13,2.1-.65,4.11-.63,6.2,0,1.31.05,2.64,0,4-.05,3-1.25,5.73-1.25,8.72v-1.16"/><path class="cls-7" d="M140.74,234.73c.06,3.24-1.78,6.41-2.35,9.58-.36,2.05-.94,4.2-1.25,6.28-.22,1.43.44,4.26-.75,5.26"/><path class="cls-7" d="M23.53,200.65a3.79,3.79,0,0,1,.58-2.1c.83-1.56,1.73-3,2.45-4.63.51-1.14,1.61-1.88,2.21-2.95.49-.88.22-1.9,1.13-2.64a23.38,23.38,0,0,1-2.19,5.72c-.75,1.22-1.5,2.47-2.17,3.71-.36.67-2.21,2.35-1.84,3,1.07-.45,1.24-1.3,1.49-2.18a10.82,10.82,0,0,1,1.44-3,32.25,32.25,0,0,0,2.28-4.6,8.37,8.37,0,0,0-1.75,2.51,20.12,20.12,0,0,1-.85,3c-.26.56-.75,1-1,1.52s-.38,1.41-.8,2.07c.69-.85.36-1.85.64-2.79.41-1.33,1.14-2.66,1.66-4s1.3-2.74,1.9-4.13a6.82,6.82,0,0,1,1.84-2.74c.67.65-.7,3.41-.94,4.08a40.58,40.58,0,0,1-1.92,4c-.49,1-1.13,1.93-1.61,2.94-.38.78-.78,2.64-1.85,3a10.21,10.21,0,0,1,1.18-2.56,26.08,26.08,0,0,0,2.22-5.24c.41-1.39.86-2.82,1.4-4.19-.63,2.7-.93,5.64-2.24,8.16A20.47,20.47,0,0,0,25.3,200c-.24.72-.91,1.6-.76,2.36"/><path class="cls-5" d="M34.33,39.59c-.89.1-1.49.71-2.29,1a16,16,0,0,0-2.82.91c-.81.49-1.29,1.38-2.1,1.89a24.62,24.62,0,0,1-2.48.92c-2,1-3.48,2.94-5.59,3.68-1.37.48-1.3.18-2.45,1.09a29.6,29.6,0,0,0-2.47,2.16c-1.55,1.54-3.49,2.57-5.07,4.07A85.8,85.8,0,0,1,2.41,61c-.8.62-1.79.8-2.57,1.39a45.19,45.19,0,0,0-3.4,3.38,37.56,37.56,0,0,0-4.28,5.72A10.28,10.28,0,0,0-10,76.9q-.11,3.36-.19,6.72c-.17,2-.28,4-.35,6a83.6,83.6,0,0,0,1,14.83c.21,1.38.45,2.74.68,4.11a22.49,22.49,0,0,0,.39,3.22c1.09,3.39,1.91,8.65,6.67,7.47a7.11,7.11,0,0,0,3-2.06A12.1,12.1,0,0,1,3,115.78a11.82,11.82,0,0,1,1.28-.65,50,50,0,0,1,5.71-2,14.1,14.1,0,0,1,3.91-.64,20.08,20.08,0,0,0,3-.62c.67-.1,1.34,0,2-.09,1.16-.23,2.07-1.09,3.2-1.46,1.43-.46,3-.65,4.37-1.17,1.67-.62,3.11-1.64,4.8-2.26s3.3-1.26,5-1.81a33.76,33.76,0,0,0,5.15-2.16,17.4,17.4,0,0,1,2.74-.93,8.31,8.31,0,0,1,3.63-.68c2.5,0,5,.09,7.52,0,2.34-.06,4.54-.91,6.9-1,1.94-.06,3.87-.19,5.79-.43,5.07-.63,9.46-3.05,14.43-3.45a27.44,27.44,0,0,0,5.61-1,21.73,21.73,0,0,0,9.7-5.74,31.4,31.4,0,0,0,5.93-9.26A21.1,21.1,0,0,0,105.39,77c.14-.63-.1-1.24,0-1.85a15.83,15.83,0,0,1,1.14-3c.88-2.49.72-6.2.48-8.87-.14-1.47-.74-2.77-.82-4.25s.34-3.17.06-4.61c-.21-1.09-.58-2.31-.88-3.36-.14-.5-.61-.63-.73-1.18s.2-1.1.08-1.61-.58-.64-.73-1.18.07-1.14-.23-1.69c-.5-.94-1.41-1-1.53-2.3l-.61-.15"/><path class="cls-7" d="M60.6,18.58c-2.4.38-5.12-2.91-6.89-4.12A36.91,36.91,0,0,1,50,12c-.91-.79-1.51-2-2.76-2.29,2.32,3.7,7.46,6.65,11,9.09,1.68,1.18,2.9,2.73,4.75,3.63-3.25-2.91-7.85-5-11.64-7.15-1.33-.76-2.72-1.46-4-2.24-1.51-.89-2.72-2.27-4.27-3.08,3.62,1.88,6.72,4.39,10,6.67a26.41,26.41,0,0,0,5.24,2.61c1.28.52,2.17,1.42,3.38,2-1.92,0-4.36-1.22-6.07-2-2.45-1.12-4.36-2.9-6.5-4.47a99.56,99.56,0,0,1-8.09-6c1.57-.3,3.75,2,5,2.74,1.57,1,2.95,2.09,4.47,3.13a21.63,21.63,0,0,0,4.06,1.75c1,.42,1.66,1.08,2.58,1.56-2.52,0-5.66-2.29-7.66-3.62s-3.93-2.75-6-4c-1-.63-2.06-2.21-3.27-2.25"/><path class="cls-7" d="M17.91,48.79c-6.73,0-11.66-4.13-16.44-8.46A14.43,14.43,0,0,1-1,37c-1-1.57-2.29-2.85-3.3-4.43C-5.86,30-7.69,27.73-9,25.14"/><path class="cls-6" d="M430.49,121.52a43.44,43.44,0,0,1,.47,4.91c.1,1.78.76,3.38.8,5.19.11,4.77-.78,9.26-.78,14,0,4.43-.77,8.62-.77,13,0,5.86,1,12.86-.38,18.45a17.39,17.39,0,0,0-.39,4.53c0,1.6-.59,2.7-.79,4.21-.3,2.2.41,4.72-1.57,6.26-2.65,2.06-7.23,1.56-10.33,2.72-1.48.55-3.18,2-4.5,2.92a20.58,20.58,0,0,0-6.38,6.29c-.89,1.47-.55,1.91-2.45,2.13-1.47.16-3-.34-4.43,0-2.52.61-4.83,2.46-7.09,3.62-6.23,3.18-12.22,6.14-19.59,5.47-7.13-.64-13.54-3.78-20.24-6.06a19.76,19.76,0,0,1-7.63-4.6c-2.06-1.8-4.23-3.48-6.3-5.28-1.53-1.34-3.26-2.26-4.83-3.52-1-.78-1.85-1.74-2.82-2.49-2.27-1.76-3.93-1.72-6.73-1.73h-25.9c-3.54,0-7.16-.1-10.66.13a12.72,12.72,0,0,1-4.48-.09c-1.27-.38-.93-.17-1.12-1.55a23.42,23.42,0,0,1,0-3c0-5.55-1.4-10.59-1.35-16.16,0-3.33-.91-6.17-1.93-9.34-.76-2.38-.67-4.52-1.68-6.87-.8-1.86-.5-3.44-.6-5.46-.1-1.74-1.18-2.73-.91-4.57.71-5,4.84-10.35,7.9-14.2,2.31-2.93,4.59-6.18,7.64-8.41,2.87-2.1,6.31-2.81,9.8-3.12a60.43,60.43,0,0,1,18.6.89l1.55.35c3.49.73,6.89.7,10,2.32a10.21,10.21,0,0,0,3.75.9c1.65.26,3.05,1.13,4.65,1.49,3.27.75,6.28,2,9.68,2.37,2.71.29,5.33,1.44,8.09,1.55,3.35.15,7.32.46,10.59-.18a18.31,18.31,0,0,1,3.77-.61,25.07,25.07,0,0,0,3.87.05c2.95-.55,5.85-1,8.8-1.76s5.81-2.17,8.83-2.11c3.43.07,5.68-.82,8.61-2.34,5.74-3,13-2.73,18.93-4.94a15.09,15.09,0,0,0,5.45-3.6c.86-.79,2.36-2.24,3.63-2.06.36,1.47-.11,3,.08,4.48.2,1.68.65,3.5,1,5.18C430.42,121.09,430.46,121.31,430.49,121.52Z"/><path class="cls-7" d="M380.42,167.81c-7.94-.11-15.89-4.49-23.93-4.6a30.23,30.23,0,0,1,5.54.36c2.77.53,5.55.84,8.31,1.36a32.94,32.94,0,0,0,6.12.56c1.71,0,3.24.92,4.92.81a92.39,92.39,0,0,1-12.22-1.16c-2.5-.47-5.05-.7-7.57-1.06-2-.3-4.31-1.09-6.38-.88a65.92,65.92,0,0,1,8.8.59,78.3,78.3,0,0,0,12.22.94,10.29,10.29,0,0,1,3.94.78c1.69.6,3.42.5,5.11.94.86.22,1.62.76,2.44,1,1,.3,2.06.18,3.06.52-1.21,1.74-6.79.11-8.06-.17-3.18-.71-6.42-1.07-9.63-1.53a112.32,112.32,0,0,0-12.34-1.51c-1.47-.05-5.82-.24-6.94-1.34,1.61-2.5,7.9.37,9.81.85a29.72,29.72,0,0,0,7.61,1.23"/><path class="cls-7" d="M364.34,172.41c-1.67-1.67-3.32-3.21-5.1-4.71-2.4-2-4.56-4.88-7.58-5.95,3.18,1.88,5.67,4.32,8.73,6.39,2.08,1.4,3.54,3.55,5.73,4.8a29,29,0,0,1-7.91-5.9A25.71,25.71,0,0,0,351.7,162a22.62,22.62,0,0,1,6,3.92,13.38,13.38,0,0,0,3.75,2.7c1.38.59,2.76,1,3.47,2.5a11,11,0,0,0-3.19-3c-2-1.5-3.79-3.17-5.73-4.74a22.42,22.42,0,0,0-4-2.4c-.82-.44-2-1.59-2.91-1.46a18,18,0,0,0,3.51,1.82,25.84,25.84,0,0,1,3.61,2.5c1.9,1.48,4.5,3.86,7,4-2.25-1.82-5.18-2.8-7.7-4.13s-6.62-2.59-8.6-4.87a1.58,1.58,0,0,1,1.33-.11"/><path class="cls-5" d="M334.83,149.81c3.46,3.34,9.53,2.93,7.69,9.2a8.7,8.7,0,0,1-2.88,4c-2.34,2.21-7.14,2.58-7.49,6.3-.2,2.09-.76,3.52-.75,5.74a28.08,28.08,0,0,1,0,3.89c-.15,1.07-.65,2-.82,3-.21,1.33.43,1.75-1.09,1.87-.86.08-2.63-.93-3.48-1.29a14.48,14.48,0,0,1-4-2.62c-2.08-1.84-4.5-2.46-7.09-3.71a66.21,66.21,0,0,1-22.12-17.73c-1.51-1.85-3.27-3.33-4.62-5.33a49.62,49.62,0,0,0-4.52-5.68,45.42,45.42,0,0,1-5.48-7.55,102.86,102.86,0,0,1-9.33-22.44c-1.32-4.48-.88-9.45-2.79-13.72-.79-1.76-.58-3.54-.56-5.4,0-1.23-.31-2.39-.36-3.62s0-2.37,0-3.55c0-4-.2-8,0-12,.09-1.88.87-3.25,1.32-5a39.14,39.14,0,0,1,1.29-5.12c.29-.72.55-1.48.84-2.17a7.57,7.57,0,0,1,.9-1.26,8.19,8.19,0,0,1,5.39-3.51c1.25-.33,2.28-1.06,3.49-1.4a13.49,13.49,0,0,1,3.81-.13c5.2,0,9.44,1.84,14.44,3,4.6,1,9.36,2.42,12.58,6.2A25.51,25.51,0,0,1,313.47,76c.63,1.49,1.74,2.53,2.46,3.94s.59,2.91,1,4.36,1.26,2.44,1.68,3.85.84,2.72,1.15,4.06a48.72,48.72,0,0,1,1.71,9c.1,2.87.81,5.52.76,8.43,0,2.68.8,5.14.76,7.79a70.65,70.65,0,0,0,0,7.13c.23,2.61,1.06,5.25,1.49,7.76.41,2.32.32,4.74.8,7a15.84,15.84,0,0,0,3.87,6.38C330.88,147.22,333.08,148.12,334.83,149.81Z"/><path class="cls-5" d="M328.34,184.66a2.05,2.05,0,0,1,1.26.81c-4.66-.28-9.41,0-14.07,0h-7a57.92,57.92,0,0,1-8.52-.79c-2.34-.33-4.59-.88-6.9-1.34a17.09,17.09,0,0,1-4.21-.92c-.94-.42-1.78-1-2.75-1.36-3.05-1.16-6.26-1.84-9.14-3.42-1.29-.71-2.44-1.6-3.77-2.3a15.42,15.42,0,0,1-3.48-2.51c-2.25-2.16-4.62-3.84-6.48-6.33-.81-1.08-1.63-2.18-2.46-3.25a16.64,16.64,0,0,0-2.21-2.31,4.51,4.51,0,0,1-.86-2.11c-1.87-3.4-6.11-5.12-8.38-8.4-1.29-1.86-2.44-3.82-3.73-5.69-2.2-3.2-2.29-7-2.27-10.72,0-2.78,0-5.56,0-8.33,0-2.09.71-3.26.88-5.22,1.51-.26,3-.49,4.48-.85a26,26,0,0,1,5.75-.78c1.87-.08,3.66-.94,5.56-.88a3.08,3.08,0,0,1,2.3.78c.34.33.51,1,.84,1.34,1.05,1.23,2.55,2,3.55,3.33.75,1,1.48,2.09,2.27,3.09,1,1.24,2.32,1.88,3.34,3,1.4,1.63,2.47,4.25,3.52,6.13a38,38,0,0,1,2.76,6.91c1.42,4.61,4.48,8.52,6.43,13a17.17,17.17,0,0,0,3.72,5.57c1.55,1.66,1.92,4.13,4,5.12a15,15,0,0,1,2.69,1.19,16.92,16.92,0,0,0,2.66,1.88c2.16.94,4.88,1,7.15,1.6s3.67,1.53,6,1.53c2.52,0,4.7.55,7.2.74s4.7,1.24,7.05,1.6c2.58.39,4.38-.47,4.44,2.83,0,2.38-.81,12.19-4.62,7.08"/><path class="cls-7" d="M261.1,123.55a26.81,26.81,0,0,0,3.72,5.37c1.22,1.47,1.79,3.41,3.09,4.85"/><path class="cls-7" d="M263.49,123.9c1.12,1.52,2.27,3,3.28,4.63.7,1.1,1.29,2.17,2.08,3.19.93,1.22,1.82,2.22,1.79,3.75"/><path class="cls-7" d="M265.87,124.92c2.13,1.65,3.47,3.92,5.09,6a14.13,14.13,0,0,1,1.74,2.33c.29.61.35,1.26.66,1.86"/><path class="cls-7" d="M259.06,122.19c-.15,1.78.7,3.57,1.45,5.14.35.72.9,1.31,1.29,2,.31.54.42,1.52,1,1.7"/><path class="cls-7" d="M246.81,137.17c-.13-.87-.57-1.79-.76-2.68a24.83,24.83,0,0,1-.6-5.37c0-2.51-.41-5.69.68-8"/><path class="cls-7" d="M247.49,135.81c-.13-1.47-.67-2.8-.69-4.29,0-1.64-.36-3.24-.34-4.87a30.54,30.54,0,0,1,0-3.45,11.61,11.61,0,0,0,.35-2"/><path class="cls-7" d="M247.83,134.45V123.8c0-.72-.28-2.07.34-2.63"/><path class="cls-7" d="M252.25,137.85a21.79,21.79,0,0,1-2-8.74c-.09-2.25-1-5.17,0-7.26"/><path class="cls-7" d="M247.15,137.17a26,26,0,0,0,4.65,10.16c-1,.57-1.42-1.12-1.93-1.65"/><path class="cls-7" d="M245.45,137.51a44.4,44.4,0,0,0,3.14,7.43,17.57,17.57,0,0,0,3.24,3.72,16.66,16.66,0,0,1-3.48-5.6,26.6,26.6,0,0,1-1.33-3.79c-.25-.85-.77-1.74-.93-2.6a9.8,9.8,0,0,1,1.28,2.74,19.41,19.41,0,0,0,3,5.44c1.08,1.34,1.72,2.81,3.09,3.92a9.77,9.77,0,0,1,2.54,2.89c-.75-1.08-1.9-1.58-2.7-2.59a36.65,36.65,0,0,1-3.1-4.43,16.82,16.82,0,0,1-.81-1.91c-.39-1-1.21-1.82-1.53-2.81-.17-.53-.06-2-.94-1.89a9.87,9.87,0,0,0,.92,1.69c.31.6.42,1.29.74,1.89.67,1.27,1.6,2.54,2.35,3.8.46.77.83,1.6,1.32,2.36a9.17,9.17,0,0,0,1.9,1.83,19.21,19.21,0,0,0,2.48,2.46,18.44,18.44,0,0,1-3.61-3.23,25.34,25.34,0,0,1-2.94-3.43,22,22,0,0,1-2-3.81,6.17,6.17,0,0,1-.27-1.91.47.47,0,0,0,.37.22"/><path class="cls-7" d="M268.93,91.21c0,.25-.05.36-.26.33a6.49,6.49,0,0,1-.08-2.29c0-1.12,0-2.25,0-3.37a38.91,38.91,0,0,1,1.39-11,38.49,38.49,0,0,1,4.16-9.41c.58-.93,1.33-3.55,2.62-3.82"/><path class="cls-7" d="M271,86.79a47.14,47.14,0,0,1,2.64-14.6c.78-2.39,1.86-4.66,2.82-7,.4-1,1.38-3.67,2.71-3.61"/><path class="cls-7" d="M273.36,82.7c.41-1.94.91-3.84,1.2-5.81A33.94,33.94,0,0,1,276.69,70a22.3,22.3,0,0,1,1.07-3.17c.51-.94,1.18-1.81,1.69-2.77a6.63,6.63,0,0,1,1.79-2.63,3.12,3.12,0,0,1-.39.56"/><path class="cls-7" d="M276.08,79.64c1.15-3.48,1.42-7.11,2.77-10.56.7-1.79,1.22-4.42,2.68-5.78"/><path class="cls-7" d="M281.19,79.64q1.92-5.73,4.28-11.28c1.09-2.54,2.22-5.67,4.25-7.65l0,.21"/><path class="cls-7" d="M309.1,87.81c-.22-1.1-.33-2.25-.58-3.35s-.61-2-.79-3.07c-.37-2.25-.33-4.49-.88-6.71-.15-.64-.4-1.24-.57-1.86s-.17-1.38-.31-2.12-.5-2.19-1.15-2.61a1.93,1.93,0,0,1,.2,1"/><path class="cls-7" d="M310.81,89.17a55.53,55.53,0,0,0-.36-6.32c-.25-2.28-1.37-4.5-1.64-6.81a24,24,0,0,0-.82-4,19.81,19.81,0,0,1-.93-3"/><path class="cls-7" d="M314.21,88.49a12.33,12.33,0,0,0-.68-2.88c-.3-1.07-.51-2.14-.76-3.22-.49-2.19-1.09-4.42-1.76-6.55s-1.77-4.49-2.3-6.7l-.29,0"/><path class="cls-5" d="M309.17,74a13,13,0,0,0,6-2.29c1.31-1,1.54-3.12,2.4-4.53a4.88,4.88,0,0,0,.78-1.41,17.11,17.11,0,0,0,0-3.65,11.12,11.12,0,0,0-1.21-5.66A10.94,10.94,0,0,0,313,51.69a19.5,19.5,0,0,0-3.26-1.64c-.92-.34-2-.58-2.89-.88a23.34,23.34,0,0,0-7-.63,33.8,33.8,0,0,0-6,.09c-1.13.22-2.16.39-3.24.68a8.2,8.2,0,0,1-2.2.45c-2.06,0-3.89,1-5.88,1.25a16.34,16.34,0,0,0-2.08.74c-.71.19-1.53,0-2.27.12a10.23,10.23,0,0,1-2.34.32,10.06,10.06,0,0,0-2.05,0c-.53.13-1,.61-1.6.75a18.27,18.27,0,0,0-4.13,1.39,7.72,7.72,0,0,0-3.76,2.93,5,5,0,0,0-.41,4.07,4.44,4.44,0,0,0,2.32,2.52c1.21.76,2.88.6,4.25.83a16.43,16.43,0,0,0,6.17.15,16,16,0,0,1,2.66-.5,11.64,11.64,0,0,1,4.07.39c2.06.62,3.53,2.08,5.13,3.44a23.7,23.7,0,0,0,7.62,4.13,25.36,25.36,0,0,0,6.41,1.8A25,25,0,0,0,309.17,74Z"/><path class="cls-5" d="M264.75,123.48a5.08,5.08,0,0,0,.59-.35c2.3-1.58,2.08-5.32-.1-6.88-.57-.41-.95-.32-1.55-.5-.33-.1-.42-.36-.76-.44-.86-.19-1.63-.17-2.48-.36a7,7,0,0,1-1.89-.94,19.76,19.76,0,0,1-2.55-1.3c-.55-.44-.93-1.12-1.5-1.53a14.88,14.88,0,0,0-2.23-1,4.51,4.51,0,0,0-2.33-.51,6.86,6.86,0,0,0-1.43,0c-.4.1-.6.36-1,.45l-.85,0a.59.59,0,0,0-.47.33c-.39.13-.76.25-1.13.4a16.5,16.5,0,0,0-4.6,2.91,6.76,6.76,0,0,0-1.44,3.47,4.13,4.13,0,0,0,1.66,4.14,15.36,15.36,0,0,0,4.34,2.53,13.28,13.28,0,0,0,5.34,1.22h5.46a13.83,13.83,0,0,0,2.58-.09c.91-.17,2-.17,2.85-.4A16.45,16.45,0,0,0,264.75,123.48Z"/><path class="cls-8" d="M332.94,180.85a28.76,28.76,0,0,0-1.58,4.63,16.11,16.11,0,0,1-.91,3.76c-.64,1.55-.54,3.11-1.54,4.53-.72-.26-4.39-2.22-4.5-3-.07-.44.68-.88.8-1.29.22-.71-.09-1.42,0-2.12a17.57,17.57,0,0,1,1-2.62,32.51,32.51,0,0,0,2.13-7.54c.37-2.77.56-5.44,2-8,.79-1.4,2.18-2.34,2.9-3.76a15.46,15.46,0,0,1,1.93-3.41c1.74-2.1,3.07-4.34,5.07-6.24,1.78-1.71,4.36-2.74,5.52-5a31,31,0,0,0,2.39-6.35c.22-1,.15-2,.41-3.05.39-1.53,1.41-2.85,1.82-4.28.28-.95,1.68-11.79,4.61-9.07,1,1,0,6.76-.26,8-.48,2.17-.7,4.56-1.28,6.64-.39,1.39-1.15,2.55-1.51,4a22.86,22.86,0,0,1-.75,2.35,26.28,26.28,0,0,1-3.49,6.2c-1.46,2-3.71,3.32-5.17,5.29-.61.82-.93,1.84-1.53,2.68-1,1.42-2.62,2.06-3.57,3.45-1.25,1.84-1.46,4.18-2.24,6.19C334.24,175.43,333.86,178.22,332.94,180.85Z"/><path class="cls-7" d="M5.53,150.2c-.17-1.4-1.47-2.25-1.91-3.54a31.74,31.74,0,0,0-2.32-4.27c-.89-1.7-1.78-3.3-2.64-5A26,26,0,0,0-2.82,135a11.34,11.34,0,0,0-1.24-2"/><path class="cls-7" d="M-7.48,141.46c.12.65.57.77,1,1.15a21.25,21.25,0,0,1,2.35,2.49c.93,1.08,1.5,2.42,2.39,3.5,1.28,1.57,3.92,1.92,5.69,2.78,2.49,1.22,2.68,2.62,4.39,4.87.84,1.1,2.21,2.12,3,3.29a11.38,11.38,0,0,1,.56,1.51c.34.76.88,1.45,1.22,2.27"/><path class="cls-7" d="M6,150.2c1.7,1.77,4.24,3.44,5.28,5.76.56,1.25.54,2.34,1.79,3.22,1,.7,1.86,1.27,2,2.63"/><path class="cls-7" d="M-10.17,146.3c2.27,1.69,4.82,3,7.14,4.7,1.07.77,2,1.4,3.09,2.32,1.64,1.37,3.63,2.11,5.09,3.58,1.1,1.11,4.63,2.46,4.92,3.9"/><path class="cls-7" d="M-.53,155.25a25.16,25.16,0,0,0,3.26,2.83,19.49,19.49,0,0,0,2.15,1.18c.85.46,1.64,1.5,2.67,1.54"/><path class="cls-7" d="M329.1,65.94c1.52,3.85,3.16,7.18,3.91,11.26a29.56,29.56,0,0,0,2.37,6.35c.44.93,1.22,1.66,1.69,2.56s.77,2.15,1.22,3.21c.75,1.77,1.4,5.13,3,6.25-.78-1.09-1.07-2.62-1.82-3.83-1.19-1.94-2.3-3.92-3.43-5.93-1.79-3.17-2.66-6.45-3.88-9.86-.55-1.53-.91-4.13-2.14-5.2.08,1.53,1.49,3.45,2.1,4.82,1.53,3.43,3.42,6.57,5.07,9.91,1.8,3.64,3.56,7.35,5.46,10.92C339.93,92,336.69,88,334.2,83.35c-.6-1.11-5.76-11-4.86-11.6a119.35,119.35,0,0,1,9.8,19.66c.94,2.43,2.41,4.28,3.62,6.56.62,1.17.92,2.7,2,3.56-3.51-3.64-6.13-8-8.74-12.37-2.14-3.55-5.22-7.59-6.26-11.64.58,3.08,2.35,5.81,3.61,8.63.8,1.78,1.35,3.68,2.21,5.43,1.36,2.78,2.49,6.59,4.81,8.67-2.82-2.7-4.47-6.15-6.45-9.43-1.43-2.37-2.69-5.15-4.29-7.38-1.09-1.52-2.42-2.75-3.42-4.37,3.24,3.87,4.73,8.82,7.95,12.72a24.05,24.05,0,0,1,2.92,4.36c.52,1,.75,2.39,1.7,3.12a11.37,11.37,0,0,0-2-2.86,31.94,31.94,0,0,1-3.24-5.34c-1-2-2.35-3.76-3.35-5.71-.79-1.55-.95-3.27-1.66-4.84A152.22,152.22,0,0,1,337,94.4c1.58,2.82,3.9,5,5.65,7.72-4.21-6.3-6.67-13.82-11.07-20C334,86.25,337,90,339.34,94.21c1.37,2.43,2.88,6.55,5,8.36-1-3.86-4.53-7.59-6.43-11-1.52-2.74-2.43-6.73-5-8.76"/><path class="cls-7" d="M297.7,350.87a43.08,43.08,0,0,0,1.71,7.09c.55,1.91,1.79,3,2.19,4.94a20.82,20.82,0,0,0,2.44,5.42c.56,1.08,1.49,2.12,1.39,3.47-.37-1.93-1.51-3.27-2.22-5-.58-1.45-.8-3-1.38-4.51-.5-1.24-1.15-2.44-1.64-3.68s-.55-3.53-1.61-4.33c-.42,3.28,2.57,6.75,3.67,9.77a21.15,21.15,0,0,0,5.39,8.53c-.25-1.8-2.12-3.13-3.07-4.6-1.16-1.79-2-3.83-3-5.7a55.15,55.15,0,0,1-2.91-5.26c-.5-1.21-.53-2.4-1.4-3.45,1.71,4.19,3.8,8.13,5.78,12.19,1.23,2.51,2.95,4.67,4.3,7.09,1.18,2.11,2.78,3.77,3.94,5.82-3.13-4.21-5.84-8.6-9.05-12.82.51,2.34,2.2,5.14,3.26,7.3a54,54,0,0,0,3.51,6.09c-1.78-1-3.43-4.28-4.75-5.83-1.69-2-2.87-4.47-4.76-6.24,2.63,2.55,4.44,6.09,6.54,9.1,1.22,1.75,2.91,3.13,3.75,5.13-2.32-2.11-4.26-5.47-6-8.13-1.25-1.95-1.89-4.29-3.56-6,1.49,3.29,3.91,6.27,5.91,9.26,1,1.55,2.2,3,3.08,4.6a9.8,9.8,0,0,0,2.06,3.27c-2.54-2.38-4.23-6.48-6.34-9.27a14,14,0,0,1-2-3.78c-.52-1.14-2.18-2.34-2.14-3.62"/><path class="cls-7" d="M325.27,376.15c0-2.38,0-4.77,0-7.15,0-1-.37-2.64.59-3.21.79,2.32.17,5.45.17,7.89v-8.13c0,3.17,0,6.35,0,9.53a23.21,23.21,0,0,0,.17,4.17c.23,1.3.78,2.26.59,3.62,0-5.5,0-11,0-16.5v.94a45.87,45.87,0,0,0,.67,7.95c.42,2.37,1.15,5.2.86,7.62,0-5.39,0-10.78,0-16.16V371c0,1.47-.55,4.3.17,5.54,1.43-2.1.59-6.51.59-8.82V359.5c0,2.09-.16,4.26,0,6.34.1,1.78.88,3.21.8,5,0-3.78,0-7.56,0-11.33,0,2.93.09,5.87,0,8.79-.08-2.51.8-4.92.78-7.5,0-2.13,0-4.26,0-6.39.08,3.93-.72,7.66-.76,11.58v-1.73c0,1.58.44,4-.17,5.39-1.4-2.61-.62-7-.56-9.9-1,1.73-.84,4.14-.81,6.08,0,1.33.54,3.8-.59,4.77-.95-2.59-.17-6.73-.17-9.55v2.84"/><path class="cls-7" d="M317.62,428.24c1.95-.38,4.36,1.7,6.29,2.12,1.24.27,2.47-.05,3.66.33a20.24,20.24,0,0,1,2.26,1.18c2.77,1.27,5.49.92,8.45,1a12.44,12.44,0,0,0,4.61-.76,20.47,20.47,0,0,1,4.22-.83,11.64,11.64,0,0,0,3.46-1.28,22.53,22.53,0,0,1,3.6-1.09c1.74-.58,2.74-2.05,4.23-3,1-.63,2.23-.85,3.27-1.47,2.18-1.29,3.94-3.59,5.73-5.39,1-1,2.1-2,3.08-3.06s1.4-2.12,2.28-3.06"/><path class="cls-7" d="M320.68,429.77c1,1.77,2.28,3.1,3.06,5a55.48,55.48,0,0,0,3.36,6.07,45.45,45.45,0,0,0,7.1,9l-.5-.1"/><path class="cls-7" d="M324.51,431.3c2.13,4,4.3,7.89,6.47,11.83a57,57,0,0,0,4.15,6.14c.33-.61.08-1-.66-1.12"/><path class="cls-7" d="M326.81,432.07c3.43,3.7,5.49,8.64,8.39,12.77,1.84,2.62,4.08,6.71,6.86,8.44a3.43,3.43,0,0,0-1.47-2.07"/><path class="cls-7" d="M332.17,434.36a83.4,83.4,0,0,0,5.12,7.73c1.29,1.81,3,3.18,3.88,5.25.93,2.26,2.47,6.82,5.55,6.94"/><path class="cls-7" d="M359,425.94c-2.31,1.94,1.27,7.68,2.11,10.11.55,1.6,1.14,3.35,1.55,5a23.46,23.46,0,0,0,.62,3.22,10.24,10.24,0,0,1,1.08,2.36"/><path class="cls-7" d="M360.51,425.94c1.39,5,3.22,9.75,4.42,14.77.29,1.18.79,2.44,1,3.61s-.35,2,.77,2.79c0-.42,0-.84,0-1.26"/><path class="cls-7" d="M362.81,424.41c1.42,3.7,2.15,7.7,3.27,11.48a36.42,36.42,0,0,1,1.15,4.66c.14.9-.07,2.16.34,3,1.58-1.3.15-3.69-.17-5.34"/><path class="cls-7" d="M364.34,419.81a86,86,0,0,1,4.61,16.1c.21,1.3.56,2.54.79,3.83.18,1-.22,2,.13,3,2-.35-1.1-9.17-.94-10.66"/><path class="cls-7" d="M367.4,421.34c1.5,4,3.38,8.1,3.91,12.32.22,1.79.58,3.3.67,5.13.06,1.33.86,2.45.8,3.74l0-.51"/><path class="cls-7" d="M369.7,419c.77,2.68,1.86,5.07,2.23,7.84.3,2.19,1.23,4.11,1.54,6.28a37.26,37.26,0,0,1,.06,5.69,19.08,19.08,0,0,0,.77,4.7"/><path class="cls-7" d="M317.62,525.51c1.63.28,2.57-1.06,3.85-1.85a26.77,26.77,0,0,0,2.62-1.71,12.39,12.39,0,0,0-2.83,2c-.76.55-2,.94-2.53,1.68,3.42-.8,3.93-5.54,7.08-6.64-.47,1.38-5.85,4.86-7.24,4.06.82-1.41,3.14-2.15,4.42-3a6.27,6.27,0,0,0,2.21-2c-1.67.91-2.88,2.71-4.5,3.75-.94.61-2.37,2.12-3.43,2.19a13.53,13.53,0,0,0,4.94-2.51c1.38-1.27,2.36-3.32,4.6-2.93"/><path class="cls-7" d="M351.32,288.07A119.13,119.13,0,0,0,358,267.92c.83-3.66,1.88-7.41,2.4-11.11.18-1.27,1.46-5.5.68-6.67-1.64,2.83-1.05,6.22-1.91,9.25a36.86,36.86,0,0,0-1.61,5.3,50.88,50.88,0,0,1-.91,6.52c-1.49,5.61-3,11.42-3.07,17.21.06-6.41,2.41-12.92,4.28-19,1.41-4.58,2.62-9.18,4-13.8.84-2.88,1.71-5.44,1.72-8.44.33,3-.78,6.37-1.55,9.26-.84,3.13-1.1,6.14-1.7,9.31-.37,2-1.09,3.85-1.36,5.85a32.76,32.76,0,0,1-1.21,6.36c2.29-4.74,2.62-11.08,3.79-16.15.74-3.2,1.8-6.36,2.42-9.58.36-1.86.21-3.77.55-5.63a13,13,0,0,0,.59-3.61c0,6.15-1.8,12.24-2.26,18.4-.31,4.21-.29,8.35-1.66,12.41,1-2.37,1.12-5.34,1.58-7.87.81-4.52,1.81-8.91,2.71-13.4a130,130,0,0,0,1.95-19.28c-1,6-.93,12.07-1.95,18.14-.57,3.41-.9,6.73-1.24,10.17-.21,2.05-.84,4.08-.71,6.16.38-3.41,1.72-6.47,2.18-9.82.7-5.08.84-10.15,1.89-15.2A39.86,39.86,0,0,0,369,235c0-1-.61-5.82,0-6.45a101.67,101.67,0,0,0-.78,10.74,112.12,112.12,0,0,1-1,15,118.86,118.86,0,0,0-1.34,14.45c0-3.62-.09-7.23.17-10.85.37-5.18.34-10.8,1.36-15.88s.77-10,.77-15.15c0,6.59,0,13.18,0,19.77a52.14,52.14,0,0,1-.6,8.47c-.22,1.45.22,3.45-.76,4.67-.63-2.63-.17-5.68-.17-8.39,0-5.57,0-11.15,0-16.72v-6.74c0-1.7-.41-3.95.17-5.55,1.09,1.62.6,4.07.59,5.92,0,2.81.31,5.77,0,8.56-.22,2.33-.61,4.57-.78,6.92-.13,1.73-.94,3.24-.81,5,.17-4.89,1.08-9.55,1.65-14.42a111.62,111.62,0,0,0,.65-17.15c-.24,2.38,1.34,3.7,1.55,5.82"/><path class="cls-6" d="M18.89,46.79l.13-.64c1.61-.59,3.57.21,5.23-.09,1-.17,1.69-.72,2.69-.83a24,24,0,0,1,2.68,0H43.81c5.43,0,10.18.9,14.6,4.18C63,52.86,67.49,56,70.94,60.56c1.59,2.09,3.45,4,5,6.14,1.89,2.57,3.48,5,5.15,7.7.7,1.14,1.81,1.82,2.44,3a11,11,0,0,0,2,3.06,12.62,12.62,0,0,1,2.35,2.65c.77,1.4.45,2.61.71,4.1.51,2.89,1.63,6.39-1.24,8.62,1.41-.14,3,.22,4.33,0,1.63-.27,3.12-1.48,4.61-2.17a17.5,17.5,0,0,0,5.56-4.55c2.41-2.73,4.89-7.07,8.22-8.77a4.91,4.91,0,0,1,3.38-.22c3,.47,5.52-.43,8.58-.41a49.53,49.53,0,0,0,8.44-.22,10.51,10.51,0,0,1,1.84-.45c1.67,0,3,1.56,4.43-.06a17.65,17.65,0,0,1,.69-1.73c.41-.89.8-1.77,1.16-2.72,1.3-3.41,2.9-7.36,2.88-10.91s.37-6.79-.79-10-1.64-6.54-3.43-9.61c-.73-1.25-1.86-2.15-2.68-3.37a22.45,22.45,0,0,0-3-4.23A42.39,42.39,0,0,1,127.07,32c-1-1.21-2.31-2.16-3.27-3.29-1.1-1.3-1.85-2.82-3-4.14s-3.61-2.6-5-3.83a37.82,37.82,0,0,0-4.48-2.92c-1.31-.86-2.49-2.11-4.07-2.46a11.48,11.48,0,0,0-3.41.1c-1.14.07-2.27,0-3.42,0-4.6.1-9.09,2-13.56,3-3.21.69-6.39,1.42-9.59,2.13s-6.61.56-9.92,1.1c-6.43,1.06-13.17.45-19.35,2.9-2,.78-2.67,1.27-4.8,1.51a9.75,9.75,0,0,0-4.42,1.53A24.69,24.69,0,0,1,35,29.69c-1.73.83-3,2.44-4.64,3.37-1.28.74-2.66,1.06-3.83,2s-2.35,2.25-3.64,3.3c-2.87,2.33-3.11,5.76-5.53,8.42"/><path class="cls-7" d="M103.15,85.09c.21-1.07,1.18-1.24,1.83-2,1.11-1.27,1.49-2.84,2.74-4.15a14.25,14.25,0,0,0,3-4.59c.51-1.07,3-3.05,2.2-4.2a13.16,13.16,0,0,1-.77,1.93c-.51.67-1.24.83-1.69,1.53-.86,1.34-1.46,3.13-2.2,4.58-1.13,2.19-3,5.38-5.11,6.66-.33-1.3,2.92-3.36,3.66-4.19,1.41-1.58,2.14-3.52,3.19-5.34a30.08,30.08,0,0,0,2.51-5.8c.48-1.47.73-3.17,2-4.21.11,1.42-1,3.28-1.26,4.69a25.23,25.23,0,0,1-1.11,4.09c-1,2.64-3,7-2.8,9.9,1.5-1.67,1.29-3.38,1.76-5.47.67-3,1.77-5.88,2.37-8.91.44-2.15.77-4.36,1.34-6.49a6.63,6.63,0,0,0,.56-3.1,56.93,56.93,0,0,1-1,11.93c-.5,2.52-.76,7.25-2.71,9-.45-1.07.56-3,.8-4.1.61-2.88,1.69-5.58,2.54-8.39.72-2.42,2.15-5.24,1.9-7.8a17.23,17.23,0,0,1-1,5.59c-.54,2.05-.47,4.19-1.11,6.21-.4,1.22-1.13,2.23-1.54,3.44-.61,1.81-.51,4.83-2.46,5.85-.25-2.21,1.36-4.86,2.09-6.93s1.51-4.29,2.11-6.44c.38-1.4.48-3,.74-4.39.2-1.06.87-2.06.22-3.16-1,1.68-1.07,3.83-1.75,5.63a60.53,60.53,0,0,0-1.9,6.89c-.74,2.92-2.25,5.27-3.31,8-.83-1.84.75-5.93,1.57-7.42.65-1.2,1.35-3.15,2.35-4.07.65,1.84-1.92,5.37-2.55,7.24-.91,2.71-1.8,6.5-4.13,8.45.26-1.48,1.39-2.74,1.86-4.21.57-1.79,1.22-3.5,1.82-5.28-.85,1.84-1.49,6.81-3.76,7.37"/><path class="cls-8" d="M120.09,15.27a9.12,9.12,0,0,0-.26-2A23.74,23.74,0,0,0,110.36.06,11,11,0,0,0,107.14-1a31.21,31.21,0,0,1-4-1.83c-2.62-1.27-5.26-2.44-8-3.47-3.62-1.38-7.31-2.39-11-3.45a61.15,61.15,0,0,1-10.9-4.38c-2.54-1.3-5.21-2.2-7.77-3.43s-4.18-3.07-6.06-5l-.84-.85c-5.17-5-9.36-10.09-16.68-11.92-2.72-.68-5.28-.8-8-1.83a18.32,18.32,0,0,0-7.51-1c-4.6,0-9.24-.2-13.84-.06-6.78.21-13.83,2-18.95,6.52C-13-26-18.33-18.73-20.24-10a72.59,72.59,0,0,0-.87,24.42c.26,2-.34,4.48.23,6.39.65,2.18,3.52,5,5,6.57a96.13,96.13,0,0,0,9.61,8.64C-2.7,39,1,41.66,4.51,44.62A21.58,21.58,0,0,0,7.82,47a10.46,10.46,0,0,0,6.56,1.2c2.88-.35,6.3-1,8.56-2.93,2.5-2.09,4-5.08,6.09-7.51a33.48,33.48,0,0,1,2.86-2.62c.94-.83,1.54-1.86,2.46-2.7,1.59-1.46,3.85-1.63,5.71-2.53,1-.51,2.15-1.21,3.32-1.72,1.51-.66,2.94-.36,4.47-.73.24-.06.49-.54.86-.64a15.09,15.09,0,0,1,2.93,0c4.38,0,8.82.22,13.18-.06,3.88-.26,7.54-.75,11.45-.69,1.69,0,2.77-.65,4.35-.8a29.82,29.82,0,0,0,6.32-1.53c1.79-.54,3.24-2.23,5.11-2.33a8.77,8.77,0,0,1-1.7,0c1.41.89,2.74.82,4.36.81,2.14,0,4.73.48,6.79,0,.76-.16,1.35-.59,2.1-.74s1.77.11,2.63,0c1.6-.26,3-1.35,4.59-1.61,1.29-.2,2.53.21,3.82-.13.66-.17,1.21-.5,1.92-.62s1.1.19,1.75-.13C119.74,18.36,120.13,16.79,120.09,15.27Z"/><path class="cls-8" d="M257.87-34.27c-4.14,3.87-5.84,11.89-8.08,16.93C247.37-11.9,246.86-5.65,244-.43c-1.63,3-3.57,5.28-3,9.08.57,4.19,4.89,6.59,7.37,9.56l0,0c1.47,1.73,4.91,3.18,7.18,3.41,1.19.11,2.47,0,3.66,0,3.11,0,6.24-.09,9.34,0,1.8,0,3.44.69,5.22.83s3.9,0,5.82,0h11.31a70.21,70.21,0,0,0,14.46-1.15c4.12-.85,8.19-2.17,12.37-2.78a56.24,56.24,0,0,0,13.62-3.37c5-2.1,10.33-1.93,15.35-3.64,1.82-.61,3.7-.89,5.55-1.53s4-.52,6-1.13c1.45-.44,2.91-.7,4.35-1.13.65-.19,1.23-.59,1.87-.8a29,29,0,0,1,3.72-.54,78.6,78.6,0,0,0,11.45-3.85c1.88-.73,3.94-1.07,5.74-2,1-.5,1.8-1.38,2.89-1.72s1.85-.29,2.86-.68c4-1.57,8.17-3,12.09-4.79,4.16-1.93,8.17-4.09,12.55-5.57,2.54-.86,5.08-2,7.72-2.11a40,40,0,0,0,5.36-.74c2.27-.41,4.5-1,6.75-1.39,1.95-.34,4,.19,5.83-1l-.52,0"/><path class="cls-7" d="M50.67,483.62a6.49,6.49,0,0,1,1-1.15,12.29,12.29,0,0,0,1.75-1.37c1.95-2.16,3.26-4.78,5.14-7,2.15-2.52,4.26-5,6.63-7.35,1.15-1.15,2.18-2.37,3.41-3.42,1.93-1.62,3.86-3.24,5.76-4.9,2.74-2.37,5.51-4.74,8.31-7a39.79,39.79,0,0,1,6.64-4.54,6.41,6.41,0,0,0,1.24-.66c.47-.43.54-.7,1.14-1s1.32-.63,2-.93a23.88,23.88,0,0,1,2.3-.77,8,8,0,0,1,1-.36c.65-.13,1.07.52,1.59.77a9.24,9.24,0,0,0,2.25.6c1.72.35,3.39.57,5.13.81a33.53,33.53,0,0,1,6.1,1.49c1.61.56,4.5,1.25,5.47,2.86-.72-.06-1.42-.45-2.14-.58a15.3,15.3,0,0,0-2.71-.07h-7.43c-3.56,0-7.15-.13-10.71,0a12.11,12.11,0,0,0,2.14-.36,24.77,24.77,0,0,1,3.45.08,39.48,39.48,0,0,1,7.22,1.45,27.41,27.41,0,0,1,5.75,1.87c.78.42,1.5,1,2.3,1.38.39.2,1.75.76,1.63,1.31a15.14,15.14,0,0,1-5.88-.38c-.78-.18-1.57-.17-2.35-.33a19.5,19.5,0,0,0-2.42-.62c-1.08-.07-2.17.08-3.25,0-.86,0-1.66-.28-2.51-.36-1.24-.12-2.34-.38-3.55-.61a3.24,3.24,0,0,0-1.72,0,19.4,19.4,0,0,0,3.5.83c2.17.59,4.37,1.15,6.59,1.57a16.4,16.4,0,0,1,4.26,1.3,19.59,19.59,0,0,1,2.08.93c-.82.31-1.78-.17-2.61-.24s-1.56-.08-2.35-.2c-1.75-.28-3.5-.49-5.24-.78s-3.54-.29-5.29-.5c-1.42-.17-2.7-.21-4.14-.26,1.09-.16,2.38.7,3.45.94,1.92.42,3.86.71,5.78,1.11a43.44,43.44,0,0,1,5.3,1.37c1,.35,3.13.58,3.69,1.64a22.9,22.9,0,0,1-4.61.05,36.11,36.11,0,0,1-6-.34c-2.8-.47-5.64-1.19-8.35,0,1.5-.11,2.75.51,4.17.68a16.36,16.36,0,0,1,2.23.24c.87.2,1.75.31,2.62.51,1.24.29,2.45.72,3.69,1,.81.21,3.15.38,3.49,1.22a14.77,14.77,0,0,1-3.88.06c-1,0-2,.05-3,0s-2.1-.34-3.17-.37c-1.94-.06-4-.09-5.9,0-1.11.06-2.15.4-3.28.37a2.08,2.08,0,0,0-1.49.24,3.89,3.89,0,0,0,2.54.43,15.57,15.57,0,0,1,3.86.68c1.57.41,3.14.74,4.72,1.12a8.42,8.42,0,0,1,2.87.86c-.55.34-1.12-.1-1.64-.2a11.29,11.29,0,0,0-1.93-.07,34.23,34.23,0,0,1-5.36-.61c-2.47-.42-5.24-.05-7.74-.08a25.08,25.08,0,0,0-2.76.36c-.72.08-1.5-.21-2.19.06.93.54,2.74.46,3.8.61,1.28.17,2.56.24,3.84.41,1,.14,2,.41,3,.57s2.69.14,3.47.64c-1.42.51-3.7-.26-5.09-.44-1.66-.22-3.37-.76-5-.85s-3-.34-4.54-.33c-1,0-2.71-.31-3.58.05.34.62,1.38.76,2,.89a27.71,27.71,0,0,0,4.45.43c1.46,0,2.92,0,4.38,0,1.06,0,2.32-.27,3.26.36a47.33,47.33,0,0,0-9,.15,45,45,0,0,0-7.86,1.27c.59.63,2.07.26,2.9.26a38.69,38.69,0,0,0,4.17-.07,30.39,30.39,0,0,1,3.3-.28,29.8,29.8,0,0,1,3,.36,26,26,0,0,0-8.23,1c-1.7.47-3.39.6-5.08,1-.39.1-3.26.54-3.41.94,2.23.4,4.43.75,6.68,1a51.23,51.23,0,0,0,7,.78,24,24,0,0,1,5.71.77c1.33.3,3,.27,4.23.95-1.69-.08-3,.82-4.64,1a36.26,36.26,0,0,1-4.17,0,25.58,25.58,0,0,1-4.2-.08c-2.09-.33-4.23,0-6.29-.43a10.57,10.57,0,0,0-6.06.86,2.69,2.69,0,0,1,1,.16,21.71,21.71,0,0,0,3,.25c1.59.12,3.11.26,4.7.26a16.55,16.55,0,0,1,2.44,0c.54.08,2.67.19,2.92.58-1.31.47-3.26.07-4.65.07-2,0-3.82-.21-5.76-.36a33,33,0,0,0-6.36.08c-1.23.17-2.39.68-3.59.89-.59.11-1.34-.1-1.88.15.79.73,3.7.26,4.61.26h5.44a29.48,29.48,0,0,1,5.48.26c.73.14,1.48.17,2.21.33a9.22,9.22,0,0,0,1.85.44,68,68,0,0,0-10.49.37c-2,.17-4,.48-5.95.64-.72.05-3.31.41-3.59,1,1.13,1.14,3.87,1.13,5.35,1.29s3.2.29,4.81.49a36.08,36.08,0,0,1,5,1c1.14.3,3,.39,3.84,1.21a4.35,4.35,0,0,1-1.49.06H64.57a35,35,0,0,0-6.14.27c-.85.14-1.69.06-2.54.24a4.39,4.39,0,0,0-1.68.44c1.21.38,2.87.07,4.14.07h3.88a23.83,23.83,0,0,1,3.68.3,5.27,5.27,0,0,1,1.35.38c.4.17.55.43,1.09.35-3.26-.12-6.55,0-9.81,0a23.3,23.3,0,0,0-4.5.07,8.88,8.88,0,0,1-1.85.27c-.73,0-1.78-.26-2.36.33.41.54,1.35.46,2,.6,1,.21,2,.33,3,.52,1.75.33,3.48.16,5.24.42a50.6,50.6,0,0,1,5.07.51c1,.25,2.4.15,3.29.77-.78.49-2,.25-2.92.25H56.88c-2,0-4.22-.28-6.16.17-1.41.32-2.85-.08-4.26.15l-1.91.35a3.56,3.56,0,0,0-1.82,1c-1.4,1.24-2.92,2.23-4.25,3.58-1.57,1.58-3.54,2.74-5.16,4.3-.5.48-2.16,2.42-2.81,2.32a7.74,7.74,0,0,1,1.07-2.74c.27-.49.64-.76,1-1.23.58-.89.57-1.87,1.28-2.7.5-.59,1.13-1.05,1.64-1.62A17.91,17.91,0,0,1,37.34,495a13.17,13.17,0,0,0,2.59-2.29c.45-.65.47-1,1.15-1.5s1.19-1,1.83-1.39c1.33-.86,2.44-2,3.76-2.89A11.7,11.7,0,0,0,48,485.7c.73-.69,1.78-1.13,2.47-1.82C50.52,483.79,50.6,483.71,50.67,483.62Z"/><path class="cls-7" d="M254.46,611.56c0-3.07.52-6.09.54-9.11s1.36-6.11,1.07-9.05a34.8,34.8,0,0,1-1.22,8.34c-.56,2.31-.25,5.45-1.5,7.55-.12-1.46.69-2.54,1.13-3.86.5-1.51.57-3.13.92-4.67.52-2.23,1.19-4.39,1.78-6.59a18.23,18.23,0,0,1-.42,3.69c-.5,2.52-.65,5.1-1.1,7.63-.24,1.31-.46,2.63-.66,3.94a11.86,11.86,0,0,0-.55,3c0-3,.9-5.84,1.63-8.76.4-1.58.36-3.23.79-4.78a9.9,9.9,0,0,0,.84-2.83c.1,3.11-.67,6.58-1.1,9.67-.26,1.93-1.27,4.13-1.08,6a28,28,0,0,1,.1-4.3c.3-1.64.95-3.22,1.27-4.86a32.89,32.89,0,0,1,.64-3.43,7.83,7.83,0,0,0,.7-2.51c-.09,3-.29,6-.5,9-.05.73-.75,6.67-1.18,6.53.39-2.83.9-5.7,1.41-8.52.35-1.94,2-4.61,1.79-6.49-1.11,1.52-1.37,4.34-1.56,6.16a77.59,77.59,0,0,0,0,8.07c0-2.23-.05-4.46,0-6.68,0-2,.61-4,.56-6"/><path class="cls-9" d="M246.93,118.67a16.38,16.38,0,0,1,1.88.81,21,21,0,0,0,2.47.55,37.4,37.4,0,0,0,5.07.41v-.6a11.17,11.17,0,0,1-2.41-.47,15.32,15.32,0,0,0-2.44,0c-1.15,0-2.79.25-3.66-.71,0,.17-.08.34-.13.5a8.15,8.15,0,0,1,4.53.64,10.1,10.1,0,0,0,2.1.53,20.21,20.21,0,0,0,2.2.07.3.3,0,0,0,0-.6,28.32,28.32,0,0,1-4.62-.89,13.67,13.67,0,0,1-2.08-.68,10.36,10.36,0,0,1-2.19-.7v.52a3.93,3.93,0,0,1,1.91-.42c.75,0,1.49,0,2.24.08,1.8.12,3.6.06,5.4.06a.3.3,0,0,0,0-.6h-8.75a.3.3,0,0,0,0,.6c1.66,0,3.33,0,5,0a13.2,13.2,0,0,1,4,.09l-.07-.55c-1.12.56-2.46.34-3.66.47-.7.07-1.38.21-2.08.26a16.46,16.46,0,0,1-2.33,0c-.35,0-.4.49-.08.58,1.1.33,2.17.78,3.28,1.07a16.16,16.16,0,0,0,3.61.3v-.6a12.36,12.36,0,0,1-3.49-.69,5.64,5.64,0,0,0-3.4-.1.31.31,0,0,0-.13.51,4.89,4.89,0,0,0,3.49,1.06c1.31,0,2.61-.18,3.92-.19a.3.3,0,0,0,0-.6c-2.49,0-5-.43-7.45-.43v.6h7.07V119a29.15,29.15,0,0,1-3.1,0,15.32,15.32,0,0,0-2.85-.42v.6a1.74,1.74,0,0,1,1.43.36A.3.3,0,0,0,252,119a2.28,2.28,0,0,0-1.85-.53c-.38,0-.39.63,0,.6a15.44,15.44,0,0,1,2.85.42,29.15,29.15,0,0,0,3.1,0,.3.3,0,0,0,0-.6h-7.07a.3.3,0,0,0,0,.6c2.49,0,5,.4,7.45.43v-.6c-1.22,0-2.44.18-3.67.19s-2.49,0-3.31-.89c0,.17-.09.34-.14.5a5.45,5.45,0,0,1,3.36.17,11.43,11.43,0,0,0,3.37.64.3.3,0,0,0,0-.6c-.59,0-1.18,0-1.76,0a8.26,8.26,0,0,1-1.79-.29c-1.08-.29-2.11-.72-3.18-1,0,.19-.06.39-.08.59a17.32,17.32,0,0,0,2.39,0c.74-.06,1.47-.22,2.2-.28,1.27-.11,2.61.06,3.78-.53a.3.3,0,0,0-.07-.55,12.69,12.69,0,0,0-4.08-.11c-1.7,0-3.4,0-5.09,0a.3.3,0,0,0,0,.6h8.75a.3.3,0,0,0,0-.6c-1.85,0-3.72.06-5.57-.07-1.37-.09-3-.3-4.28.43a.3.3,0,0,0,0,.52,9.55,9.55,0,0,0,2.23.73,18.49,18.49,0,0,0,2.18.71,29.19,29.19,0,0,0,4.78.91v-.6a16.87,16.87,0,0,1-2.25-.08,11.32,11.32,0,0,1-2.21-.61,8.19,8.19,0,0,0-4.53-.53.31.31,0,0,0-.13.51c.94,1,2.59.92,3.87.89l1.09,0a7.81,7.81,0,0,1,1.45,0,12.18,12.18,0,0,0,2.52.48.3.3,0,0,0,0-.6,36.54,36.54,0,0,1-5-.41,18.75,18.75,0,0,1-2.36-.53,16.38,16.38,0,0,0-1.88-.81c-.38-.07-.54.51-.16.58"/><path class="cls-9" d="M290.81,58.56a14.06,14.06,0,0,1,6.11,1.15c1,.47,2,.92,2.92,1.41s1.76,1.06,2.63,1.62,1.94,1.19,3,1.7l.15-.56a7.51,7.51,0,0,1-3-1c-1-.49-1.88-1.06-2.87-1.49s-2.25-.88-3.34-1.41a17.37,17.37,0,0,1-2.83-1.72,4.34,4.34,0,0,0-3-1,.3.3,0,0,0,0,.6,32.33,32.33,0,0,1,3.68.24,15.86,15.86,0,0,1,3.63,1c1.16.49,2.28,1.08,3.42,1.62s2.2.9,3.26,1.44a8.23,8.23,0,0,1,1.75,1.17c.51.47.94,1,1.45,1.47l.37-.47A43.45,43.45,0,0,0,301,61.58a23.64,23.64,0,0,1-3.61-1.49c-1.1-.58-2.13-1.29-3.18-2-1.21-.77-2.61-.59-3.95-1l.23.29c.07-.63,1.84.18,2.14.28a5.94,5.94,0,0,0,1.57.27,5.15,5.15,0,0,1,2.16.8,14.22,14.22,0,0,0,2.06,1,15.4,15.4,0,0,1,2.23,1c.7.38,1.38.79,2.07,1.2s1.25.71,1.84,1.12c1.08.74,2.28,1.86,3.67,1.85a.3.3,0,0,0,.15-.56c-1.06-.75-2.45-.75-3.59-1.34-1.33-.7-2.73-1.24-4-2,0,.13.07.27.11.41.2-.44.73-.59,1.17-.7s1-.17,1.53-.27c1.49-.28,2.89-1,4.42-.52,0-.19,0-.37-.07-.55a6.35,6.35,0,0,1-3.19.6c-1.1,0-2.2-.13-3.31-.14v.6c.67,0,1.33,0,2-.08a13.65,13.65,0,0,0,1.89-.35,7.07,7.07,0,0,1,3.87-.08l-.13-.51a5.27,5.27,0,0,1-3.36.64c-1.21,0-2.4-.21-3.61-.22v.6c1,0,1.92-.13,2.88-.17a6.3,6.3,0,0,1,2.83.28c0-.16-.05-.32-.06-.48-1,.77-2.34.61-3.49.47a7.31,7.31,0,0,0-3.57.11.3.3,0,0,0-.13.5,5.18,5.18,0,0,0,3.11.82,39.34,39.34,0,0,0,4.06-.14c.57,0,1.14-.08,1.71-.09a.3.3,0,0,0,0-.6c-1.58,0-3.15,0-4.73,0a.3.3,0,0,0,0,.6,10.73,10.73,0,0,0,2.66-.68.3.3,0,0,0,0-.58c-1-.3-2.08-1.06-3.17-.5a.3.3,0,0,0,0,.52c1.57,1.08,3.64,1.16,5.15,2.34.1-.17.2-.33.29-.5-1.25-.27-2.59-.32-3.81-.71a6.53,6.53,0,0,1-.75-.37,2.26,2.26,0,0,0-.8-.21,6,6,0,0,1-1.79-.06c0,.17.09.33.13.5a3.59,3.59,0,0,1,2.56-.42c.38,0,.38-.59,0-.6a4,4,0,0,0-3,.6.3.3,0,0,0,.13.5,4.23,4.23,0,0,0,1.7.08,1.65,1.65,0,0,1,.87.19,6,6,0,0,0,.77.37c1.23.38,2.56.44,3.81.71.27.05.55-.3.3-.51-1.57-1.22-3.66-1.32-5.28-2.43v.52c.86-.44,1.89.32,2.71.56v-.58a9.93,9.93,0,0,1-2.5.66v.6c1.58,0,3.15,0,4.73,0v-.6c-2.34,0-4.7.5-7,.11a2.88,2.88,0,0,1-1.43-.52l-.13.5a7.88,7.88,0,0,1,3.77,0,4.7,4.7,0,0,0,3.55-.68.3.3,0,0,0-.06-.47,6.53,6.53,0,0,0-2.94-.37c-1,0-2,.18-3.07.18a.3.3,0,0,0,0,.6c1.29,0,2.58.2,3.87.22a5.46,5.46,0,0,0,3.52-.81c.19-.15.06-.44-.13-.5a7.3,7.3,0,0,0-3.88,0,18.85,18.85,0,0,1-1.93.39c-.7.08-1.4.08-2.1.09a.3.3,0,0,0,0,.6c2.22,0,4.77.61,6.8-.54a.3.3,0,0,0-.07-.55c-1.67-.56-3.18.24-4.8.54-1,.17-2.51.19-3,1.22a.3.3,0,0,0,.11.41c1.31.74,2.71,1.28,4,2a7.69,7.69,0,0,0,1.76.63,5.25,5.25,0,0,1,1.83.71l.15-.56a3.45,3.45,0,0,1-1.76-.66c-.57-.36-1.11-.78-1.67-1.15s-1.31-.79-2-1.19-1.43-.86-2.17-1.24a17.25,17.25,0,0,0-2.29-1A16.72,16.72,0,0,1,296.15,58a5.78,5.78,0,0,0-1.08-.47,5.16,5.16,0,0,0-1.18-.16,5.34,5.34,0,0,1-1.47-.35c-.78-.29-2.39-.9-2.55.42a.31.31,0,0,0,.23.29c1.15.31,2.43.15,3.5.72.57.29,1.09.69,1.62,1s1,.65,1.57,1a45.62,45.62,0,0,0,7.08,2.73,26.51,26.51,0,0,1,4,1.74c.29.16.63-.24.37-.47-.48-.42-.88-.92-1.34-1.36A7.19,7.19,0,0,0,305.41,62c-1.06-.62-2.24-1-3.35-1.53-2.37-1.09-4.65-2.4-7.25-2.85a29.62,29.62,0,0,0-4.21-.33v.6a3.23,3.23,0,0,1,1.51.2,5.24,5.24,0,0,1,1.12.66,18.06,18.06,0,0,0,2.82,1.73c1.09.52,2.22.95,3.34,1.41s1.92,1,2.87,1.48a8.2,8.2,0,0,0,3.32,1.1.3.3,0,0,0,.15-.56c-.92-.46-1.81-1-2.69-1.53s-1.73-1.17-2.65-1.66-2-1-3-1.46a12.15,12.15,0,0,0-2.92-1,18.52,18.52,0,0,0-3.64-.31.3.3,0,0,0,0,.6"/></g></svg>