<svg xmlns="http://www.w3.org/2000/svg" viewBox="0 0 1080 1350" xmlns:v="https://vecta.io/nano"><defs><clipPath id="A"><path d="M3.01 0h1072.56v1350H3.01z" fill="none"/></clipPath></defs><g clip-path="url(#A)"><path d="M-45.43-60.63h1199.28v1442.85H-45.43z" fill="#fff"/><path d="M512.19 531.07h9.88v1.17h-1.81c-.64 0-1.05.11-1.24.34-.19.22-.29.77-.29 1.63v7.12h10.56v-7.12c0-.9-.09-1.45-.27-1.66s-.61-.31-1.29-.31h-1.69v-1.17h9.81v1.17h-1.8c-.45 0-.76.06-.95.17-.18.12-.33.31-.45.59-.06.18-.09.64-.09 1.39v16.62c0 .8.07 1.29.2 1.45.27.35.77.53 1.48.53h1.59v1.17h-9.81v-1.17h1.69c.67 0 1.12-.18 1.36-.55.14-.2.2-.72.2-1.56v-8.03h-10.56v8.16c0 .81.06 1.3.19 1.47.26.34.71.52 1.34.52h1.81v1.17h-9.88V553h1.89c.33 0 .6-.07.8-.2s.34-.33.44-.58c.05-.17.08-.61.08-1.33V534.2c0-.86-.1-1.41-.29-1.63s-.61-.34-1.26-.34h-1.66v-1.17zm33.11 8.03a6.54 6.54 0 0 1 4.96 2.13c1.34 1.42 2.01 3.29 2.01 5.62 0 1.6-.3 2.97-.9 4.1a6.73 6.73 0 0 1-2.56 2.68c-1.11.66-2.3.98-3.59.98-1.9 0-3.5-.72-4.82-2.16s-1.98-3.3-1.98-5.59.66-4.17 1.98-5.61 2.95-2.16 4.89-2.16zm0 1.11c-1.17 0-2.12.53-2.88 1.59-.75 1.06-1.12 2.73-1.12 5.01s.37 4.02 1.12 5.09 1.71 1.61 2.88 1.61 2.21-.54 2.96-1.61 1.13-2.83 1.13-5.27c0-2.26-.37-3.9-1.12-4.91s-1.74-1.52-2.98-1.52zm12.95-6.64h1.05v5.97h4.73v1.44h-4.73v9.39c0 .81.19 1.44.58 1.87s.88.65 1.47.65c.71 0 1.31-.33 1.81-.98s.79-1.74.88-3.25h1.05c-.06 1.95-.5 3.39-1.33 4.34-.82.94-1.89 1.41-3.2 1.41-1.21 0-2.15-.33-2.84-.99-.68-.66-1.02-1.53-1.02-2.6v-9.83h-2.55v-1.09c1.16-.2 2.04-.68 2.65-1.45.9-1.16 1.39-2.78 1.46-4.86zm22.33 13.39H570.1c.05 2.23.47 3.8 1.25 4.72.9 1.03 2.04 1.55 3.42 1.55 2.04 0 3.68-1.16 4.92-3.48l1.02.44c-1.52 2.96-3.72 4.44-6.59 4.44a6.56 6.56 0 0 1-4.95-2.12c-1.34-1.42-2.01-3.23-2.01-5.44 0-2.38.66-4.29 1.98-5.76 1.32-1.46 2.94-2.2 4.87-2.2 1.42 0 2.64.37 3.67 1.09 1.03.73 1.81 1.78 2.33 3.14.36.96.56 2.17.58 3.62zm-10.48-1.11h6.34c.38 0 .67-.13.88-.38s.31-.69.31-1.3c0-1.15-.36-2.12-1.07-2.92s-1.55-1.2-2.52-1.2c-1.08 0-2 .48-2.76 1.45s-1.15 2.42-1.18 4.36zm7.05-9.16l-.36.39-4.34-3.17c-1.15-.84-1.72-1.53-1.72-2.06 0-.31.13-.6.4-.87s.57-.4.91-.4c.57 0 1.09.33 1.56 1l3.55 5.11zm11.22-5.89v21.22c0 .29.09.52.27.67.26.21.58.31.95.31h1.55v1.17h-8.3V553h1.47c.48 0 .84-.11 1.07-.34s.35-.55.35-.97v-17.81c0-.52-.14-.9-.42-1.14-.39-.33-.86-.5-1.42-.5h-1.31v-1.17l5.8-.27zM551.42 758c-3.51-.61-7.06-.94-10.62-1.15-1.6-.1-3.27-.3-4.87-.19-1.7.12-3.26.73-4.89 1.16s-3.33.88-4.98 1.41-3.4 1.07-5.2 1.03c-1.63-.04-3.09-.15-4.68.27-.76.2-1.51.47-2.28.61-.93.17-1.87.11-2.8.12l-5.78.09c-1.92-.01-3.52-.25-5.33-.74-1.56-.43-3.04-.48-4.65-.4-1.81.09-3.37-.09-5.12-.52-1.47-.36-2.97-.61-4.49-.55-1.45.06-3 .43-4.44.08-.16-.04-.64-.12-.75-.28-.12-.17.08.17.06.07-.08-.27.16-1.03.26-1.28.24-.62.7-1.12.87-1.79.18-.71.07-1.44 0-2.15-.16-1.65.1-3.36.25-5 .17-1.84.36-3.69.64-5.52.54-3.5 1.21-6.92 1.43-10.46.46-7.52.08-15.05.67-22.57s.5-15.43.74-23.15 1.24-15.25 1.72-22.9c.27-4.36.17-8.71.24-13.07a217.58 217.58 0 0 1 .54-12.52c.6-8.5 1.71-16.97 3.38-25.33l-.87.87c2.95-.59 5.98-.36 8.96-.25 3.11.12 6.13-.11 9.22-.43l19.06-2.07c6.5-.66 13.01-1.08 19.54-1.29 6.23-.2 12.51-.39 18.64-1.59 3.09-.6 6.12-1.45 9.18-2.18 3.05-.73 6.13-1.2 9.23-1.68 6.14-.96 12.26-2.07 18.43-2.81 3.11-.37 6.24-.66 9.37-.77 2.66-.1 5.24-.09 7.88-.46 1.75-.24 4.96-1.11 6.49.17 1.24 1.05.97 3.32.9 4.75-.63 12.46-.19 25.01-.17 37.48l-.45 38.88c-.51 12.95-1.97 25.75-3.48 38.62-.75 6.34-1.14 12.72-1.87 19.06-.65 5.61-1.89 11.18-1.51 16.85.13 1.91.58 4.33-.46 6.08-.77 1.3-2.46 1-3.75.9-2.63-.22-5.27-.3-7.88-.69-2.9-.43-5.78-1.03-8.7-1.39-6.33-.78-12.75.74-19.03-.35-6.3-1.1-12.58-1.46-18.95-1.89-3.24-.22-6.47-.52-9.67-1.08-1.57-.27-2.25 2.13-.66 2.41 6.55 1.14 13.19 1.24 19.8 1.77 3.41.28 6.72.94 10.11 1.39 3.19.42 6.4.24 9.6.08s6.56-.17 9.85.31c3.06.45 6.08 1.09 9.15 1.46 2.38.28 4.81.42 7.2.55 1.63.09 3.35-.1 4.51-1.38 1.33-1.46 1.58-3.63 1.54-5.51-.07-2.71-.3-5.33-.1-8.04.22-2.99.72-5.94 1.13-8.91.43-3.14.64-6.29.92-9.44 1.17-13.28 3.26-26.45 4.17-39.75 1.85-26.89.73-53.9 1.02-80.83.03-2.49.16-4.97.22-7.45.04-1.89-.12-4.01-1.49-5.45-1.47-1.54-3.76-1.57-5.73-1.41-2.62.22-5.17.72-7.81.73-6.32 0-12.61.8-18.84 1.74l-9.61 1.54c-3.2.52-6.19.87-9.24 1.5-3.24.67-6.42 1.58-9.64 2.31-3.18.73-6.4 1.19-9.65 1.46-6.62.56-13.27.51-19.9.95s-13.39 1.19-20.07 1.94c-6.45.72-12.89 1.67-19.4 1.4-2.93-.12-5.84-.2-8.73.38a1.22 1.22 0 0 0-.87.87c-1.53 7.63-2.59 15.35-3.24 23.11s-.68 15.4-.78 23.13-1.27 15.54-1.72 23.33-.31 15.76-.69 23.63c-.19 3.9-.61 7.77-.7 11.68-.09 3.84 0 7.68-.09 11.51s-.4 7.67-1.12 11.46c-.66 3.48-1.02 7.02-1.28 10.55-.06.8-.15 1.6-.1 2.41.05.75.27 1.49-.01 2.22-.24.62-.64 1.1-.8 1.77-.13.51-.26 1.07-.26 1.6-.02 2.76 3.58 2.93 5.57 2.79 1.5-.1 2.97-.26 4.47 0 1.67.29 3.26.9 4.96.98 1.66.08 3.35-.29 5-.04 1.81.28 3.44.99 5.3 1.08 2.08.1 4.18.01 6.26-.03 2.06-.04 4.04.04 6.05-.52.83-.23 1.66-.52 2.52-.58 1.03-.07 2.06.1 3.09.09 2.01-.03 3.94-.64 5.83-1.26 1.78-.58 3.59-.98 5.39-1.51.95-.28 1.9-.62 2.88-.77 1.05-.17 2.12-.05 3.17 0 4.08.2 8.16.48 12.19 1.18 1.57.27 2.25-2.13.66-2.41z"/><path d="M535.35 759.13c.3-2.15 1.41-3.84 2.41-5.72 1.1-2.08 1.33-4.15 1.49-6.47.38-5.25 2.44-10.27 3.85-15.29 1.34-4.79 1.34-9.84 2.29-14.71s2.39-9.89 3.78-14.78c1.41-4.96 2.81-9.93 3.71-15.01s1-10.13.99-15.29l.02-33.34c-.02-6.18-.41-12.35-.52-18.53-.04-2.12.1-4.19.19-6.3.07-1.64.1-3.82-1.25-5.01l-.88 2.13c1.65.13 3.36.24 5 .03 1.22-.15 2.27-1.02 3.46-1.12.7-.06 1.35.28 2.06.13.61-.12.92-.45 1.4-.79.56-.39 1.32-.46 1.99-.64a12.84 12.84 0 0 0 2.14-.8l-1.84-.75c.66 2.47.22 4.97-.17 7.45s-.68 5.17-.86 7.77c-.35 5.27-.29 10.55-.29 15.83v32.4 32.26 16.39c0 5.19.05 10.35.61 15.52.61 5.66 1.53 11.3 3.09 16.78.73 2.55 1.33 5.17 2.16 7.69.7 2.13 1.91 4.59 1.58 6.89-.23 1.57 2.18 2.25 2.41.66.3-2.09-.19-4.07-.84-6.04s-1.27-4.08-1.84-6.15c-1.41-5.1-2.7-10.11-3.48-15.35-1.58-10.57-1.19-21.27-1.19-31.92v-65.67c0-6.03-.12-12.07.21-18.09.17-3.01.47-6 .95-8.98.43-2.71.78-5.41.06-8.11-.22-.84-1.12-1.08-1.84-.75-1.23.58-2.75.58-3.92 1.24-.43.24-.62.62-1.09.68-.66.08-1.31-.22-2.01-.08-1.02.2-1.87.86-2.89 1.05-1.55.28-3.31.09-4.87-.04-1.06-.09-1.67 1.44-.88 2.13.94.83.54 3.06.46 4.16-.14 1.96-.16 3.9-.12 5.87l.49 16.09v32.58c0 5.21.18 10.4-.6 15.57s-2.03 9.78-3.38 14.59c-1.36 4.83-2.8 9.64-3.89 14.55-1.06 4.76-1.3 9.58-2.16 14.36-.49 2.7-1.45 5.27-2.22 7.89-.82 2.78-1.56 5.6-2.06 8.46-.45 2.59-.18 5.21-1.44 7.59-1.09 2.06-2.33 3.96-2.66 6.32-.22 1.57 2.19 2.25 2.41.66h0zm-31.43-30.49c2.63-9.4 5.83-18.65 9.53-27.69 1.72-4.19 3.76-8.28 5.21-12.58 1.1-3.25 1.86-6.67 2.19-10.09.15-1.54.27-3.08.6-4.59.21-.96.54-2.84 1.65-3.19l-1.58-1.21c.36 3.65-1.08 7.21-2.14 10.63-1.28 4.11-1.88 8.37-2.59 12.61s-1.63 8.03-2.99 11.95c-1.16 3.36-2.53 6.64-3.69 9.99-1.04 3.01-2 6.83-4.44 9.04l2.09 1.22c.61-4.51 2.58-8.64 4.14-12.87 1.58-4.29 2.3-8.81 3.8-13.13s3.27-8.48 4.57-12.84c1.36-4.57 2.05-9.35 3.1-14 1.19-5.3 2.37-10.61 2.92-16.02.16-1.61-2.31-1.57-2.5 0-1.08 8.95-2.76 17.81-4.48 26.66-.81 4.16-1.56 8.33-2.6 12.45-1.03 4.09-2.13 8.18-2.43 12.4-.1 1.42 2.1 1.67 2.46.33l6.76-25.8c1.02-4.33 1.96-8.68 2.72-13.07.72-4.16 1.34-8.34 2.39-12.43 1.12-4.36 3.46-8.71 3.14-13.31-.11-1.59-2.46-1.62-2.5 0-.24 8.55-.13 17.15-1.55 25.61-.7 4.17-1.41 8.3-1.75 12.52s-.44 8.58-.44 12.87c0 1.61 2.5 1.61 2.5 0 .02-8.59 1.72-17.06 1.85-25.65.02-1.61-2.48-1.61-2.5 0-.13 8.58-1.83 17.06-1.85 25.65h2.5c0-4.22.09-8.44.42-12.64.35-4.4 1.16-8.68 1.83-13.03 1.31-8.39 1.25-16.87 1.49-25.33h-2.5c.28 4.06-1.76 7.89-2.8 11.72-1.12 4.08-1.77 8.26-2.48 12.42-1.46 8.57-3.54 17.01-5.76 25.41l-3.87 14.39 2.46.33c.31-4.3 1.53-8.47 2.57-12.63s1.75-8.34 2.56-12.52c1.69-8.75 3.32-17.52 4.38-26.37h-2.5c-.49 4.8-1.52 9.51-2.57 14.21-1.04 4.6-1.76 9.32-3 13.87-1.2 4.39-2.95 8.59-4.49 12.86-.75 2.08-1.45 4.17-2.01 6.31s-.95 4.3-1.65 6.4c-1.61 4.84-4.03 9.43-4.72 14.54-.16 1.2 1.09 2.12 2.09 1.22 2.28-2.06 3.38-5.33 4.39-8.14l3.57-9.71c1.48-4.03 2.7-8.08 3.47-12.31s1.29-8.92 2.53-13.24c1.17-4.08 3.05-8.26 2.62-12.59-.08-.77-.74-1.47-1.58-1.21-2.75.86-3.36 4.29-3.71 6.76-.46 3.27-.72 6.47-1.54 9.69-1.12 4.39-3.09 8.46-4.85 12.62a268.74 268.74 0 0 0-5.54 14.19c-1.96 5.47-3.72 11.01-5.29 16.61-.43 1.55 1.98 2.21 2.41.66h0zm79.35-77.31l-.96-14.74c-.22-4.92.04-9.91-.14-14.87-.06-1.6-2.48-1.62-2.5 0-.01 1.06.33 1.96.75 2.92.47 1.08.6 2.15.63 3.33.04 2.4-.26 4.79-.28 7.19-.03 2.66-.22 5.34.07 8 .27 2.5 1.01 4.92.94 7.45-.03 1.18 1.34 1.52 2.13.88 1.46-1.17 1.66-3.57 1.79-5.28.19-2.48.04-5-.18-7.48s-.62-4.94-.89-7.42c-.2-1.92-.23-3.83-.3-5.75-.06-1.75-.44-3.58.21-5.26l-2.09.55c1.02 1.21.95 3.51 1.04 4.99.13 2.19.41 4.34.67 6.52.33 2.68.94 5.32.85 8.02s-.41 5.22.32 7.78c.25.88 1.43 1.25 2.09.55 1.53-1.63 1.61-4.29 1.65-6.39.05-2.44-.17-4.87-.37-7.3-.23-2.96-1.06-5.75-1.8-8.61-.74-2.89-1.67-6.38-.36-9.24h-2.16c1.56 3.06 1.23 6.72 1.51 10.04.32 3.87 1.24 7.73 1.98 11.53.91 4.72-1.85 11.46 2.05 15.25.51.5 1.25.44 1.77 0l.83-.7c1.23-1.04-.55-2.81-1.77-1.77l-.83.7h1.77c-1.78-1.73-1.36-4.91-1.23-7.14.08-1.3.2-2.61.19-3.92-.01-1.53-.36-3-.65-4.49-.7-3.65-1.52-7.31-1.72-11.02-.18-3.31-.21-6.73-1.75-9.75-.4-.79-1.77-.84-2.16 0-2.7 5.91 1.02 12.1 1.72 18.02.26 2.17.39 4.4.45 6.58.03 1.28.04 2.57-.11 3.84-.09.83-.2 1.97-.8 2.6l2.09.55c-.76-2.68-.2-5.47-.21-8.2-.02-2.92-.73-5.89-1.09-8.78-.26-2.05-.36-4.08-.55-6.13-.17-1.86-.42-3.82-1.66-5.3-.66-.79-1.78-.24-2.09.55-.61 1.59-.46 3.31-.35 4.97s.08 3.45.21 5.17c.21 2.68.67 5.33.94 8 .23 2.29.39 4.6.34 6.9-.03 1.41.1 4.07-1.12 5.05l2.13.88c.06-2.46-.62-4.79-.92-7.21-.33-2.73-.12-5.5-.09-8.24.03-2.33.3-4.65.29-6.98 0-1.09-.06-2.26-.36-3.31s-1.03-2-1.01-3.15h-2.5c.18 4.96-.08 9.91.14 14.87.22 4.92.7 9.82.96 14.74.08 1.6 2.58 1.61 2.5 0h0zm21.02 12.83c.46 4.56 1.61 9.01 2.35 13.52.35 2.12 1.06 4.09 1.61 6.15s.7 4.24 1.11 6.35l2.64 13.06c.8 4.29 1.82 8.61 1.92 12.98.03 1.61 2.51 1.61 2.5 0-.03-5.22-1.14-10.25-2.82-15.17-.4-1.16-.82-2.29-1.04-3.5-.25-1.33-.33-2.68-.53-4.01-.42-2.71-1.29-5.32-2.14-7.92-1.67-5.11-3.3-10.28-4.44-15.54-1.12-5.17-1.31-10.49-1.26-15.75.05-5.88.44-11.75.47-17.63.01-1.63-2.37-1.58-2.5 0-.21 2.56.55 5.03 1.13 7.49.61 2.6 1.12 5.23 1.63 7.85s.98 4.96 1.79 7.39c.83 2.45 1.52 4.88 1.95 7.43.86 5.12 1.47 10.27 2.51 15.36.54 2.62 1.47 5.07 2.15 7.64s.71 5.06 1.63 7.48c.97 2.56 2.34 4.94 3.45 7.44 1.12 2.53 1.67 5.29 3.27 7.59.8 1.14 2.61.47 2.28-.96-1.05-4.59-2.37-9.1-3.72-13.61s-2.35-9.12-3.78-13.62-3.05-8.94-4.24-13.51c-.56-2.16-.96-4.34-1.46-6.52-.47-2.03-.95-4.06-.81-6.16l-2.46.33c2.8 8.79 6.61 17.31 8.36 26.41.44 2.27.83 4.48 1.55 6.69s1.59 4.35 2.37 6.54c1.49 4.22 2.44 8.53 2.77 13l2.46-.33c-.61-2.38-1.88-4.5-2.51-6.89s-1.39-4.84-2.52-7.15c-1.1-2.25-2-4.54-2.91-6.87-.64-1.65-2.28-3.46-2.11-5.3l-2.33.63c1.55 2.11 2.12 4.65 2.73 7.14.71 2.91 1.67 5.75 2.69 8.56 1.07 2.95 2.2 5.81 3.07 8.83.37 1.26.76 2.48 1.27 3.69.48 1.15 1.08 2.37 1.01 3.64l2.13-.88c-1.5-1.9-2.17-4.48-2.83-6.76l-2.39-8.16c-.89-2.8-1.63-5.53-2.2-8.42-.56-2.84-1.25-5.64-2.8-8.12-.72-1.16-2.74-.43-2.28.96 1.93 5.89 3.59 11.87 5.35 17.81 1.67 5.62 3.85 11.22 4.11 17.14.07 1.61 2.41 1.61 2.5 0 .18-3.09-1.87-5.79-2.79-8.62-1.22-3.79-2.09-7.67-3.19-11.49l-3.05-11.13c-.66-2.19-2.47-5.22-1.6-7.53l-2.28.3c3.06 4.4 3.43 9.94 4.5 15.04 1.26 5.99 3.74 11.65 4.86 17.69.29 1.58 2.7.91 2.41-.66-1.14-6.17-3.69-11.94-4.94-18.06-1.06-5.2-1.56-10.78-4.67-15.26-.64-.92-1.9-.73-2.28.3-.95 2.52.45 5.5 1.27 7.86 1.21 3.5 1.9 7.2 2.98 10.75 1.15 3.81 2.03 7.69 3.17 11.5a35.3 35.3 0 0 0 1.81 4.74c.66 1.44 1.41 2.96 1.31 4.58h2.5c-.26-6-2.36-11.64-4.06-17.34l-5.49-18.27-2.28.96c1.58 2.53 2.14 5.44 2.7 8.33.59 3.07 1.54 5.95 2.45 8.93l2.29 7.88c.73 2.4 1.59 4.83 3.17 6.82.73.92 2.08.09 2.13-.88.14-2.52-1.48-4.97-2.18-7.34-.96-3.23-2.12-6.32-3.27-9.49-1.04-2.88-2.01-5.78-2.74-8.75-.64-2.63-1.3-5.34-2.93-7.55-.75-1.01-2.21-.65-2.33.63-.18 1.95 1.13 3.79 1.96 5.46 1.09 2.18 1.78 4.57 2.83 6.78 1.15 2.42 2.06 4.75 2.74 7.35s1.97 4.79 2.62 7.3c.34 1.33 2.56 1.1 2.46-.33-.34-4.53-1.22-8.93-2.71-13.23l-2.37-6.54c-.74-2.2-1.19-4.39-1.61-6.67-1.71-9.27-5.6-17.92-8.45-26.86-.44-1.37-2.36-1.07-2.46.33-.14 2.02.27 4.04.71 6l1.41 6.4c1.17 4.74 2.84 9.34 4.34 13.99s2.49 9.25 3.85 13.84 2.71 9.17 3.78 13.84l2.28-.96c-1.38-1.97-1.89-4.27-2.79-6.46-.93-2.25-2.1-4.38-3.1-6.6-1.07-2.37-1.41-4.77-1.88-7.3s-1.49-4.87-2.08-7.36c-1.18-4.98-1.86-10.09-2.6-15.14-.35-2.4-.76-4.79-1.48-7.11-.78-2.48-1.65-4.87-2.14-7.43l-1.66-8.33c-.62-2.83-1.7-5.75-1.45-8.68h-2.5c-.07 10.41-1.25 20.9.36 31.25.82 5.24 2.43 10.38 4.02 15.42.82 2.62 1.76 5.21 2.45 7.86s.7 5.26 1.34 7.85c.69 2.78 1.84 5.42 2.51 8.22a39.52 39.52 0 0 1 1.08 8.93h2.5c-.09-4.29-1.05-8.51-1.83-12.71l-2.62-13.06c-.46-2.12-.62-4.29-1.08-6.4-.45-2.06-1.29-4.03-1.68-6.11-.86-4.56-1.94-9.16-2.41-13.78-.16-1.59-2.66-1.6-2.5 0h0z"/><path d="M496.5 725.73c6.38-10.01 10.78-21.21 18.03-30.68l-2.28-.96c-.18 1.19-1.05 2.15-1.78 3.06-.77.96-1.48 1.91-2.11 2.97-1.6 2.68-3.05 5.51-5.1 7.89-1.86 2.16-4.03 4.06-5.54 6.5-1.48 2.37-1.88 5.36-3.92 7.36l1.96 1.51c2.86-4.69 6.07-9.06 9.26-13.52a32.06 32.06 0 0 0 3.46-6.25c.74-1.79 1.12-3.92 2.71-5.19l-2.09-.55c.07.46-.66 1.4-.9 1.77-.55.84-1.17 1.63-1.79 2.42-1.43 1.81-2.48 3.76-3.64 5.74-1.19 2.02-2.82 3.55-4.29 5.35-1.4 1.71-2.51 3.59-2.11 5.87.28 1.58 2.69.91 2.41-.66-.36-2.04 2-4.08 3.22-5.41 1.74-1.9 2.97-3.98 4.24-6.21.97-1.7 2.17-3.15 3.34-4.72 1.02-1.38 2.23-3.01 1.94-4.82-.16-1.03-1.45-1.07-2.09-.55-1.57 1.25-2.22 3.21-2.87 5.03-.83 2.29-2.07 4.54-3.44 6.55-1.55 2.27-3.3 4.41-4.86 6.68s-3.17 4.76-4.66 7.2c-.75 1.22.95 2.5 1.96 1.51 2.11-2.06 2.61-4.87 4.01-7.35 1.54-2.74 4.04-4.73 5.99-7.15 1.98-2.45 3.45-5.25 5.07-7.94 1.24-2.07 3.67-3.95 4.04-6.43.21-1.43-1.4-2.11-2.28-.96-7.25 9.47-11.66 20.66-18.03 30.68-.87 1.36 1.3 2.62 2.16 1.26h0zm11.89-61.24l3.14-15.81 1.73-7.62c.61-2.54 1.41-4.9 1.61-7.42h-2.5c-.25 13.53-6.36 25.94-11.65 38.1l2.33.63c-.14-2.01.52-3.91 1.26-5.75s1.52-3.8 2.15-5.76c1.48-4.55 3.17-9.03 4.47-13.63s2.23-9.32 2.92-14.07c.32-2.19.74-4.33 1.45-6.43.29-.86.62-1.65 1.09-2.44s.7-1.51.62-2.41c-.13-1.59-2.44-1.63-2.5 0-.17 4.35-.45 8.67-1.43 12.93-1.03 4.48-2.59 8.82-3.92 13.22-.63 2.07-1.17 4.14-1.61 6.26s-.81 4.32-1.63 6.33c-1.12 2.73-3.5 5.49-3.26 8.6a1.26 1.26 0 0 0 2.46.33c2.82-7.85 6.43-15.45 8.56-23.54l3.16-11.82a73.26 73.26 0 0 0 2.07-9.6c.24-1.59.48-3.17.85-4.74.3-1.28.61-2.66 1.42-3.73l-2.33-.63c.23 5.53-.58 11.56-2.87 16.64-2.37 5.25-3.24 11.01-5.66 16.23l2.33.63c-.12-2.85.69-5.58 1.31-8.33l2.02-8.43c.75-2.79 1.6-5.26 2.37-7.91s1.48-5.23 2.76-7.65c.75-1.42-1.41-2.69-2.16-1.26-1.27 2.42-2.08 5-2.83 7.62l-2.55 8.54c-.77 2.87-1.42 5.76-2.07 8.65s-1.47 5.78-1.35 8.77c.05 1.14 1.77 1.83 2.33.63 1.28-2.76 2.14-5.64 2.97-8.55a67.53 67.53 0 0 1 3.03-8.45c2.26-5.24 3.11-11.45 2.87-17.13-.06-1.32-1.6-1.59-2.33-.63-1.51 2-1.86 4.96-2.26 7.36-.5 3.06-.92 6.08-1.72 9.08-1.06 4.02-2.35 7.97-3.28 12.03s-2.31 8.07-3.8 11.99l-5.25 13.55 2.46.33c-.12-1.56.78-3.11 1.47-4.46s1.45-2.69 1.94-4.15c.72-2.13 1.11-4.35 1.58-6.55s1.06-4.21 1.7-6.28c1.36-4.39 2.9-8.73 3.85-13.24.88-4.18 1.15-8.42 1.32-12.67h-2.5c.07.89-.54 1.46-.89 2.23-.4.89-.71 1.84-1 2.77-.67 2.15-.99 4.34-1.32 6.56-.72 4.74-1.69 9.44-3.04 14.04s-3.03 9.07-4.5 13.62c-1.18 3.67-3.49 7.29-3.21 11.27.08 1.1 1.79 1.87 2.33.63 5.48-12.58 11.73-25.36 12-39.36.03-1.63-2.37-1.58-2.5 0-.2 2.43-1.08 4.86-1.63 7.23l-1.72 7.62c-1.1 5.09-2.1 10.21-3.04 15.33-.29 1.57 2.12 2.25 2.41.66h0z"/></g></svg>